<svg width="290" height="290" viewBox="0 0 290 290" fill="none" xmlns="http://www.w3.org/2000/svg">
<g clip-path="url(#clip0_2238_20)">
<path d="M245.496 89.2539C248.441 88.737 249.327 89.1601 250.649 91.8317C261.695 114.143 265.696 137.615 261.969 162.261C257.284 193.257 242.577 218.539 218.064 238.095C216.979 238.963 216.328 239.909 215.968 241.253C213.016 252.439 210.023 263.609 206.999 274.775C205.66 279.724 202.502 281.848 197.412 281.38C186.813 278.54 176.213 275.7 165.618 272.867C161.198 270.928 159.919 268.575 160.077 262.651C159.866 262.626 159.638 262.546 159.432 262.574C149.772 263.807 140.119 263.749 130.447 262.637C127.831 262.333 122.555 261.265 122.555 261.265L114.164 259.221C114.164 259.221 104.712 256.477 104.361 256.351C98.8393 254.385 93.526 251.976 88.3614 249.203C82.8888 246.264 77.726 242.838 72.7301 239.125C69.8299 244.448 67.5686 245.833 62.769 245.309C52.1696 242.469 41.5762 239.631 30.9784 236.784C26.3629 234.664 24.6903 231.246 25.9543 226.361C26.9299 222.576 28.043 218.829 28.9512 215.033C29.5448 212.554 30.9281 211.338 33.4794 211.477C36.0666 213.156 36.4301 214.047 35.6386 217.049C34.6803 220.697 33.716 224.344 32.7115 227.973C32.3635 229.224 32.5489 229.991 33.9689 230.358C41.0528 232.186 48.1222 234.068 55.1965 235.931C57.789 236.658 60.4115 237.296 62.972 238.143C64.8367 238.764 65.584 238.151 66.051 236.336C67.8517 229.329 69.76 222.351 71.6385 215.364C72.9408 210.528 73.9649 205.63 74.5968 200.665C77.3332 179.166 72.4823 159.128 62.6684 140.085C60.7342 136.328 56.8857 134.669 52.7914 135.601C48.3081 136.551 45.6832 139.938 45.6493 144.967C45.6142 149.881 45.7637 154.799 45.6581 159.712C45.5093 166.772 46.4959 173.899 45.0847 180.863C43.7584 187.415 41.8291 193.85 40.0958 200.319C39.5149 202.487 37.974 203.431 35.7128 203.094C33.4992 202.149 32.8163 200.513 33.477 198.238C33.9054 196.759 34.174 195.23 34.7008 193.79C35.4275 191.796 35.1944 190.011 34.4106 188.034C27.1721 169.758 24.6892 150.855 26.9773 131.315C27.2523 128.95 30.6299 114.312 30.6299 114.312C30.6299 114.312 34.9738 100.157 36.0122 97.7403C55.1359 53.2715 101.274 24.0815 149.304 26.6383C187.605 28.6814 218.286 45.3397 241.186 76.1664C243.262 78.9633 243.271 79.8874 241.382 82.2748C238.595 83.3973 237.634 83.1334 235.769 80.5276C227.455 68.8959 217.352 59.1343 205.304 51.4185C197.712 46.5611 189.777 42.3864 181.084 39.7948C171.815 36.1269 162.106 34.3895 152.235 33.7803C121.631 31.8984 94.582 41.045 71.4249 60.9906C51.0045 78.5902 38.9267 101.043 34.5564 127.636C31.7627 144.543 33.0482 161.147 38.0659 177.741C38.653 176.554 38.7337 175.583 38.7267 174.557C38.6945 164.562 38.7058 154.572 38.7171 144.582C38.719 142.566 38.9171 140.583 39.7214 138.706C42.4128 132.391 47.1161 128.684 54.0278 128.404C61.0356 128.125 66.1295 131.449 69.2278 137.701C70.7659 140.808 72.1498 143.989 73.5336 147.17C81.4665 165.485 84.021 184.504 81.0642 204.267C79.7737 212.909 77.2019 221.24 74.9502 229.644C74.5405 231.173 74.8499 231.979 76.0533 232.916C84.9509 239.788 94.6065 245.313 105.137 249.248C110.978 251.434 116.901 253.457 123.146 254.228C135.74 257.109 148.416 257.126 161.143 255.351C162.068 255.221 162.462 254.802 162.666 253.947C163.295 251.337 163.973 248.734 164.633 246.127C165.226 244.058 165.844 241.989 166.407 239.912C170.328 225.375 176.924 212.214 186.411 200.481C193.849 191.277 202.962 184.027 212.566 177.261C218.648 172.975 224.797 172.196 231.41 175.71C239.047 181.283 241.306 189.711 236.992 197.345C231.816 206.501 226.465 215.566 221.226 224.693C220.985 225.115 220.051 225.396 220.709 226.167C227.792 222.88 243.635 199.694 248.931 184.905C253.597 173.109 255.93 160.841 256.294 148.193C256.838 129.448 252.79 111.7 244.437 94.9043C243.125 92.2675 243.371 91.1812 245.496 89.2539ZM189.828 271.999C192.199 272.666 194.617 273.206 196.93 274.043C199.127 274.836 200.014 274.274 200.611 271.976C204.256 257.966 208.068 244.002 211.791 230.013C212.787 226.272 214.237 222.75 216.197 219.402C221.205 210.853 226.141 202.26 231.032 193.642C232.89 190.369 232.526 187.064 230.35 184.087C228.169 181.108 225.143 179.894 221.439 180.637C217.873 181.179 215.546 183.859 212.78 185.742C199.963 194.452 189.781 205.576 182.166 219.098C174.21 233.22 171.463 249.045 167.082 264.342C166.767 265.449 167.237 266.061 168.35 266.353C175.515 268.215 182.67 270.113 189.828 271.999Z" fill="#040403"/>
<path d="M181.084 39.7951C189.769 42.3911 197.706 46.5598 205.304 51.4188C217.352 59.1346 227.455 68.8962 235.769 80.5279C237.632 83.1397 238.595 83.3976 241.382 82.2751C242.751 84.6009 244.127 86.9283 245.496 89.2542C243.371 91.1815 243.127 92.2618 244.437 94.9047C252.786 111.692 256.834 129.44 256.294 148.193C255.93 160.841 253.597 173.109 248.931 184.905C248.558 181.777 248.018 178.675 247.178 175.64C244.912 167.453 241.725 159.666 236.734 152.708C236.65 152.398 236.567 152.087 236.482 151.783C236.671 150.957 236.959 150.144 237.03 149.305C238.299 133.763 236.744 118.52 231.854 103.677C228.108 92.3089 222.865 81.6986 215.807 71.9783C209.175 62.8458 201.463 54.8004 192.518 47.8904C188.812 45.0283 184.673 42.8053 181.077 39.7995L181.084 39.7951Z" fill="#5FB5FD"/>
<path d="M236.489 151.778C236.573 152.089 236.656 152.399 236.74 152.71C235.78 160.57 233.586 168.137 231.414 175.718C224.797 172.197 218.654 172.977 212.571 177.268C202.966 184.035 193.852 191.291 186.415 200.488C176.936 212.217 170.338 225.385 166.412 239.92C165.855 241.999 165.23 244.066 164.637 246.135C164.116 246.264 163.576 246.343 163.076 246.535C154.82 249.752 146.291 251.832 137.503 253.018C132.729 253.665 127.913 253.655 123.146 254.228C116.896 253.45 110.979 251.429 105.137 249.249C94.6124 245.315 84.9508 239.788 76.0532 232.916C74.8422 231.984 74.5404 231.173 74.9501 229.644C77.2019 221.24 79.7661 212.914 81.0641 204.267C84.0193 184.51 81.4649 165.492 73.5335 147.171C72.1557 143.991 70.7734 140.804 69.2277 137.701C66.1295 131.449 61.0355 128.125 54.0278 128.405C47.1177 128.678 42.4188 132.393 39.7213 138.706C38.917 140.584 38.7174 142.572 38.717 144.582C38.7117 154.574 38.6989 164.57 38.7266 174.557C38.7277 175.582 38.6546 176.548 38.0658 177.741C33.0481 161.148 31.7642 144.537 34.5564 127.636C39.8397 120.282 46.5248 114.391 54.1154 109.569C61.8775 104.633 70.2046 100.84 79.1498 98.5191C78.4843 100.812 77.4082 102.962 76.9845 105.333C73.913 122.511 84.0159 137.439 101.14 140.99C117.146 144.312 134.101 131.993 136.075 115.802C137.055 107.768 135.106 100.575 130.763 93.8994C148.77 95.6132 166.017 100.164 182.457 107.751C181.932 108.058 181.419 108.395 180.881 108.679C173.824 112.422 168.923 118.061 166.366 125.595C161.34 140.406 168.517 156.284 183.06 162.793C196.677 168.887 213.523 163.12 221.012 149.808C223.163 145.986 224.196 141.82 224.839 137.531C225.187 137.835 225.553 138.119 225.869 138.447C229.853 142.542 233.169 147.169 236.509 151.777L236.489 151.778ZM163.158 196.107C165.441 186.918 165.27 178.134 161.668 169.576C154.706 153.019 137.07 146.738 121.701 155.314C103.394 165.529 96.3044 191.701 106.942 209.748C115.093 223.57 130.918 227.926 144.921 220.072C154.521 214.687 160.125 206.183 163.158 196.107Z" fill="#FDEEAE"/>
<path d="M182.443 107.753C166.008 100.174 148.762 95.6176 130.749 93.9022C130.443 93.564 130.121 93.2345 129.831 92.8816C121.217 82.2513 107.516 78.6953 94.833 83.8687C87.755 86.7542 82.725 91.872 79.1423 98.5235C70.1971 100.845 61.87 104.637 54.1078 109.573C46.5172 114.396 39.8321 120.286 34.5488 127.641C38.9191 101.048 50.9909 78.5933 71.4173 60.9952C94.5819 41.0453 121.637 31.9003 152.235 33.7806C162.106 34.3898 171.815 36.1272 181.084 39.7951C184.673 42.8053 188.814 45.0223 192.526 47.8861C201.471 54.796 209.178 62.8338 215.815 71.9739C222.872 81.6942 228.116 92.3046 231.861 103.672C236.75 118.522 238.306 133.758 237.038 149.301C236.969 150.134 236.679 150.952 236.489 151.778C233.149 147.17 229.833 142.543 225.85 138.448C225.528 138.119 225.162 137.835 224.82 137.532C224.798 137.161 224.739 136.781 224.75 136.406C225.287 122.396 216.083 109.95 202.563 106.269C195.654 104.386 188.993 105.188 182.443 107.753Z" fill="#89C8FC"/>
<path d="M33.4733 211.476C34.2207 208.686 34.9637 205.89 35.7051 203.099C37.9664 203.436 39.5057 202.497 40.0882 200.323C41.8214 193.855 43.7551 187.427 45.077 180.868C46.4823 173.902 45.4973 166.769 45.6505 159.717C45.7561 154.803 45.6066 149.885 45.6416 144.972C45.6756 139.943 48.3004 136.556 52.7838 135.606C53.394 137.011 53.9662 138.439 54.6203 139.824C59.5873 150.245 63.1348 161.086 64.5819 172.568C65.9851 183.711 65.7105 194.827 63.1888 205.745C60.8512 215.88 57.8736 225.868 55.1785 235.927C48.1043 234.063 41.0364 232.176 33.951 230.354C32.5309 229.986 32.3455 229.22 32.6935 227.968C33.6997 224.333 34.6699 220.688 35.6207 217.044C36.4105 214.049 36.047 213.158 33.4614 211.473L33.4733 211.476Z" fill="#FDDF7C"/>
<path d="M189.826 272.005C182.668 270.119 175.512 268.227 168.349 266.359C167.235 266.067 166.765 265.455 167.081 264.349C171.462 249.051 174.209 233.227 182.164 219.105C189.779 205.583 199.966 194.466 212.778 185.749C215.545 183.865 217.871 181.185 221.438 180.643C221.433 180.949 221.335 181.288 221.436 181.558C222.991 185.822 221.962 189.688 219.753 193.436C216.445 199.061 213.413 204.854 209.903 210.348C204.957 218.093 201.755 226.434 199.584 235.346C196.594 247.63 193.099 259.791 189.826 272.005Z" fill="#FDDE7C"/>
<path d="M189.826 272.005C193.099 259.791 196.6 247.632 199.585 235.346C201.755 226.434 204.957 218.093 209.903 210.348C213.413 204.854 216.445 199.061 219.753 193.436C221.956 189.686 222.991 185.822 221.436 181.558C221.336 181.288 221.433 180.949 221.438 180.643C225.142 179.901 228.167 181.115 230.349 184.093C232.526 187.064 232.888 190.375 231.031 193.648C226.139 202.266 221.203 210.86 216.196 219.408C214.234 222.762 212.779 226.277 211.789 230.019C208.067 244.008 204.254 257.973 200.609 271.982C200.014 274.274 199.125 274.843 196.929 274.049C194.616 273.212 192.197 272.673 189.826 272.005Z" fill="#FDC14F"/>
<path d="M55.1905 235.93C57.8839 225.878 60.8616 215.889 63.2007 205.748C65.7224 194.831 65.9971 183.714 64.5939 172.571C63.1424 161.082 59.5949 150.241 54.6322 139.827C53.9722 138.44 53.4059 137.015 52.7957 135.609C56.8856 134.669 60.7326 136.334 62.6728 140.093C72.4866 159.136 77.3391 179.167 74.6011 200.673C73.9692 205.638 72.9451 210.536 71.6428 215.372C69.7584 222.357 67.8501 229.335 66.0553 236.344C65.5883 238.159 64.8427 238.766 62.9764 238.15C60.4218 237.306 57.7993 236.667 55.2008 235.939L55.1905 235.93Z" fill="#FCC04F"/>
<path d="M231.416 175.712C233.588 168.132 235.782 160.564 236.741 152.704C241.733 159.662 244.92 167.449 247.186 175.635C248.025 178.671 248.565 181.773 248.938 184.901C243.648 199.692 227.798 222.882 220.716 226.163C220.058 225.392 220.992 225.111 221.233 224.689C226.472 215.562 231.821 206.503 237 197.341C241.312 189.713 239.06 181.281 231.417 175.706L231.416 175.712Z" fill="#FBDD7C"/>
<path d="M123.146 254.228C127.919 253.657 132.731 253.659 137.503 253.018C146.291 251.832 154.82 249.752 163.076 246.535C163.57 246.341 164.116 246.264 164.637 246.134C163.977 248.742 163.295 251.338 162.67 253.955C162.467 254.81 162.073 255.229 161.147 255.359C148.413 257.138 135.743 257.123 123.151 254.236L123.146 254.228Z" fill="#FBDD7C"/>
<path d="M163.158 196.107C160.126 206.177 154.522 214.681 144.921 220.072C130.924 227.928 115.093 223.57 106.942 209.748C96.2984 191.699 103.394 165.529 121.701 155.314C137.07 146.738 154.706 153.019 161.668 169.576C165.268 178.14 165.441 186.918 163.158 196.107ZM127.504 216.564C132.09 217.671 136.39 216.64 140.444 214.59C154.637 207.414 161.609 188.304 155.578 173.078C153.14 166.92 149.301 161.999 142.717 159.787C137.907 157.698 133.077 158.055 128.33 159.869C110.528 166.666 102.898 192.846 114.235 208.214C117.544 212.698 121.75 215.893 127.505 216.558L127.504 216.564Z" fill="#040302"/>
<path d="M79.1498 98.5191C82.731 91.8736 87.7626 86.7498 94.8406 83.8644C107.522 78.6969 121.224 82.2469 129.839 92.8772C130.129 93.2301 130.45 93.5596 130.757 93.8978C135.099 100.579 137.048 107.772 136.075 115.802C134.101 131.993 117.148 144.306 101.14 140.99C84.0159 137.439 73.919 122.513 76.9845 105.333C77.4098 102.956 78.4859 100.806 79.1498 98.5191ZM118.229 91.9429C118.057 91.7945 117.904 91.5999 117.702 91.4944C109.944 87.3992 102.141 87.2993 94.5965 91.7818C86.9596 96.3227 83.1835 103.313 83.3699 112.159C83.6347 124.873 94.9334 135.409 106.866 134.349C107.241 134.386 107.623 134.488 107.992 134.453C117.499 133.454 124.142 128.531 127.876 119.763C132.064 109.919 127.447 96.711 118.23 91.9369L118.229 91.9429Z" fill="#040404"/>
<path d="M182.443 107.753C188.993 105.188 195.652 104.392 202.563 106.269C216.089 109.951 225.293 122.398 224.75 136.406C224.733 136.779 224.792 137.16 224.82 137.532C224.183 141.823 223.145 145.982 220.994 149.803C213.505 163.115 196.653 168.881 183.042 162.788C168.505 156.281 161.327 140.409 166.348 125.59C168.905 118.056 173.807 112.411 180.863 108.675C181.401 108.39 181.912 108.059 182.439 107.746L182.443 107.753ZM206.788 115.704C206.478 115.474 206.201 115.195 205.864 115.015C190.947 106.863 172.56 117.16 171.744 134.123C171.102 147.426 182.665 159.102 195.438 158.063C199.912 158.225 203.885 156.716 207.552 154.318C221.51 145.198 221.065 123.473 206.788 115.704Z" fill="#040404"/>
<path d="M127.502 216.57C121.749 215.899 117.541 212.71 114.232 208.226C102.895 192.858 110.525 166.678 128.327 159.881C133.073 158.067 137.904 157.71 142.714 159.799C143.693 161.168 144.785 162.473 145.634 163.916C151.95 174.616 151.868 185.848 147.422 196.967C143.725 206.219 137.069 213.007 127.496 216.568L127.502 216.57Z" fill="#FB7F86"/>
<path d="M127.502 216.57C137.075 213.008 143.725 206.219 147.428 196.968C151.874 185.849 151.95 174.616 145.64 163.918C144.791 162.474 143.699 161.17 142.72 159.8C149.304 162.013 153.137 166.932 155.581 173.092C161.612 188.318 154.646 207.429 140.447 214.603C136.392 216.654 132.092 217.684 127.507 216.577L127.502 216.57Z" fill="#EB6060"/>
<path d="M106.86 134.348C94.9274 135.407 83.6287 124.871 83.3639 112.157C83.1776 103.311 86.9536 96.321 94.5906 91.7801C102.137 87.2917 109.94 87.3916 117.696 91.4928C117.892 91.5966 118.045 91.7912 118.223 91.9413C119.206 94.682 121.079 96.9445 122.193 99.6499C126.293 109.602 122.683 123.096 114.153 129.657C111.835 131.443 109.08 132.472 106.848 134.345L106.86 134.348Z" fill="#F1EEF1"/>
<path d="M106.86 134.348C109.092 132.475 111.841 131.445 114.165 129.66C122.689 123.097 126.299 109.603 122.205 99.6531C121.091 96.9476 119.218 94.6852 118.235 91.9445C127.445 96.7169 132.069 109.927 127.88 119.77C124.148 128.533 117.505 133.455 107.996 134.46C107.628 134.496 107.245 134.393 106.87 134.357L106.86 134.348Z" fill="#DEDADE"/>
<path d="M195.438 158.063C182.658 159.107 171.102 147.426 171.744 134.123C172.559 117.166 190.947 106.863 205.864 115.015C206.199 115.201 206.478 115.474 206.788 115.704C206.622 116.37 206.885 116.946 207.314 117.401C208.777 118.945 209.557 120.844 210.37 122.758C215.88 135.719 209.61 151.349 196.575 157.023C196.046 157.253 195.616 157.496 195.444 158.065L195.438 158.063Z" fill="#F1EEF1"/>
<path d="M195.438 158.063C195.616 157.496 196.046 157.253 196.569 157.022C209.604 151.347 215.874 135.718 210.364 122.757C209.551 120.842 208.773 118.938 207.308 117.399C206.879 116.945 206.621 116.376 206.782 115.703C221.059 123.471 221.502 145.202 207.546 154.317C203.881 156.708 199.906 158.223 195.432 158.061L195.438 158.063Z" fill="#DEDADE"/>
</g>
<defs>
<clipPath id="clip0_2238_20">
<rect width="236.69" height="236.69" fill="white" transform="translate(61.2598) rotate(15)"/>
</clipPath>
</defs>
</svg>
