<svg width="255" height="255" viewBox="0 0 255 255" fill="none" xmlns="http://www.w3.org/2000/svg">
<g clip-path="url(#clip0_2238_295)">
<path d="M123.02 255C122.747 254.188 121.942 254.314 121.37 254.155C110.839 251.119 104.123 242.438 104.083 231.388C104.077 228.978 103.365 227.574 101.408 226.142C91.8826 219.173 86.105 209.78 84.2013 198.103C83.9883 196.779 83.2761 196.353 82.2776 195.853C76.6132 193.017 73.4248 188.457 73.1919 182.087C72.9523 175.596 75.8743 170.71 81.4989 167.615C83.0897 166.736 83.316 165.837 83.0897 164.326C81.379 152.79 76.8262 142.565 68.872 133.977C58.1222 122.361 51 108.854 48.5039 93.2369C44.1108 65.7238 52.105 42.0186 72.0204 22.6469C88.1817 6.93658 107.831 -0.585741 130.409 0.0333524C143.116 0.386169 155.063 3.76788 166.253 9.84565C168.589 11.1105 169.474 12.828 168.569 15.3709C166.372 17.7208 165.374 17.8939 162.279 16.2563C153.186 11.4433 143.615 8.31456 133.258 7.86855C132.499 7.39591 131.647 7.54902 130.828 7.51573C123.573 7.20951 116.437 7.92846 109.408 9.81903C57.9158 23.7187 36.1566 85.8144 73.4182 127.74C82.7436 138.231 88.7275 150.06 90.518 163.973C90.7044 165.418 91.2436 165.704 92.5349 165.691C98.4256 165.638 104.316 165.671 110.2 165.671C114.602 165.671 116.577 163.414 116.125 158.901C116.171 147.784 116.231 136.667 116.271 125.55C116.291 120.584 116.271 120.584 111.372 120.384C103.038 120.044 97.2808 112.582 99.3708 104.827C100.988 98.8287 106.473 95.0409 112.703 95.6201C118.76 96.1793 123.333 101.199 123.746 107.742C124.085 113.181 124.085 113.114 129.47 112.955C130.975 112.908 131.287 112.322 131.234 111.011C131.181 109.606 131.208 108.182 131.341 106.784C131.986 100.267 137.238 95.5469 143.735 95.5801C149.951 95.6134 155.37 100.48 155.909 106.504C156.521 113.354 152.268 119.032 145.612 120.111C143.988 120.377 142.303 120.43 140.659 120.351C139.148 120.277 138.676 120.723 138.682 122.281C138.742 136.061 138.742 149.834 138.682 163.614C138.676 165.278 139.208 165.717 140.819 165.697C146.956 165.618 153.1 165.664 159.244 165.664C162.474 165.664 164.371 164.033 164.935 160.771C164.975 160.525 165.054 160.292 165.101 160.046C167.437 147.943 172.816 137.412 181.129 128.306C193.11 115.191 199.654 99.7008 200.119 81.9334C200.679 60.578 193.051 42.398 177.721 27.5065C175.804 25.6492 175.032 23.7986 176.377 21.3555C179.139 19.5182 180.297 19.6114 182.7 21.8614C214.004 51.2584 216.201 100.513 187.446 132.4C179.206 141.54 173.841 151.871 171.97 164.033C171.704 165.757 171.944 166.756 173.681 167.721C179.206 170.803 182.001 175.676 181.808 182.047C181.622 188.218 178.587 192.765 173.182 195.594C171.598 196.419 170.998 197.318 170.666 199.049C168.556 209.979 163.197 219.033 154.211 225.663C151.835 227.42 150.897 229.131 150.877 232.1C150.797 242.565 143.735 251.352 133.67 254.201C132.785 254.454 131.667 254.055 130.988 254.993H123.02V255ZM96.0693 209.234C98.4789 213.687 101.86 217.295 105.934 220.238C123.586 232.966 148.8 227.707 158.931 209.227C160.994 206.185 162.026 202.743 163.004 199.242C163.464 197.597 163.024 197.231 161.46 197.258C157.426 197.331 153.386 197.225 149.346 197.298C146.776 197.344 145.319 196.206 144.873 193.703C145.665 190.708 146.67 189.855 149.732 189.835C155.037 189.796 160.349 189.809 165.654 189.835C167.171 189.835 168.616 189.629 169.967 188.884C173.308 187.04 175.045 183.252 174.193 179.61C173.335 175.929 170.18 173.26 166.299 173.24C155.849 173.173 145.399 173.193 134.948 173.213C126.322 173.226 117.702 173.286 109.076 173.333C102.133 173.306 95.1841 173.173 88.2416 173.293C83.9151 173.366 80.6469 177.107 80.6535 181.528C80.6535 185.921 83.955 189.696 88.2483 189.769C95.1907 189.889 102.133 189.749 109.082 189.722C116.125 189.762 123.173 189.782 130.216 189.849C133.291 189.875 134.316 190.741 135.055 193.71C134.742 196.339 133.191 197.325 130.628 197.311C118.374 197.265 106.12 197.311 93.8661 197.265C92.1888 197.265 91.4433 197.444 92.0357 199.448C93.0474 202.863 94.0658 206.245 96.0693 209.247V209.234ZM123.733 142.964V160.625C123.733 165.724 123.733 165.604 128.771 165.751C130.955 165.817 131.327 165.025 131.314 163.061C131.234 150.626 131.274 138.184 131.274 125.749C131.274 120.191 131.274 120.257 125.61 120.317C124.025 120.331 123.686 120.85 123.699 122.321C123.773 129.204 123.733 136.087 123.733 142.964ZM127.6 247.524C135.301 247.491 142.057 241.759 143.335 234.177C143.581 232.733 143.688 231.767 141.551 232.48C132.219 235.595 122.821 235.602 113.495 232.48C111.445 231.794 111.412 232.606 111.652 234.137C112.876 241.766 119.772 247.564 127.6 247.531V247.524ZM116.377 109.879C116.298 108.894 116.298 107.895 116.118 106.93C115.725 104.84 114.354 103.568 112.344 103.156C110.207 102.716 108.39 103.482 107.232 105.346C106.14 107.103 106.173 108.967 107.332 110.711C108.763 112.862 111.006 112.808 113.276 112.981C115.752 113.174 116.917 112.509 116.384 109.879H116.377ZM141.531 112.855C142.497 112.855 143.335 112.955 144.141 112.835C146.983 112.415 148.707 110.245 148.48 107.483C148.274 104.986 146.224 103.089 143.701 103.056C141.085 103.029 139.095 104.84 138.769 107.603C138.682 108.335 138.769 109.094 138.676 109.826C138.37 112.149 138.889 113.614 141.531 112.855Z" fill="#030302"/>
<path d="M3.39327e-06 77.1737C0.139784 77.1071 0.366096 77.0672 0.406033 76.9607C2.98199 70.2305 8.14057 67.9339 14.9699 68.2668C18.3645 68.4265 21.7659 68.2468 25.1672 68.3067C32.3293 68.4199 37.7142 73.579 37.7807 80.3357C37.8473 87.1724 32.3825 92.478 25.1273 92.5712C21.1468 92.6244 17.1664 92.5712 13.186 92.5845C7.28191 92.6045 3.02193 90.0948 0.71222 84.5429C0.565783 84.1901 0.532501 83.7108 -0.00665283 83.6509C3.39327e-06 81.4941 3.39327e-06 79.3372 3.39327e-06 77.1737ZM18.6574 85.1021C20.8074 85.1021 22.9573 85.1487 25.1073 85.0888C28.1425 85.0089 30.2259 83.1383 30.2925 80.5221C30.359 77.9393 28.2557 75.849 25.287 75.7891C20.9871 75.7025 16.6872 75.6959 12.3872 75.7891C9.48512 75.8556 7.52819 77.7795 7.4816 80.3424C7.42835 83.0118 9.43187 84.969 12.4605 85.0821C14.5239 85.1554 16.594 85.0954 18.6641 85.0954L18.6574 85.1021Z" fill="#040404"/>
<path d="M176.383 21.3622C175.039 23.8053 175.811 25.6559 177.728 27.5132C193.057 42.4047 200.692 60.5847 200.126 81.9401C199.66 99.7075 193.117 115.198 181.136 128.312C172.816 137.419 167.437 147.95 165.108 160.052C165.061 160.299 164.981 160.532 164.941 160.778C164.373 164.04 162.476 165.671 159.25 165.671C153.106 165.671 146.969 165.624 140.826 165.704C139.222 165.724 138.682 165.291 138.689 163.621C138.749 149.841 138.749 136.068 138.689 122.288C138.682 120.723 139.155 120.284 140.666 120.357C142.31 120.43 143.994 120.377 145.618 120.118C152.274 119.033 156.528 113.361 155.915 106.511C155.376 100.486 149.958 95.6201 143.741 95.5868C137.245 95.5535 131.993 100.28 131.347 106.79C131.207 108.188 131.181 109.613 131.241 111.018C131.294 112.329 130.981 112.915 129.477 112.961C124.092 113.121 124.092 113.188 123.753 107.749C123.346 101.212 118.767 96.1859 112.71 95.6268C106.48 95.0543 100.995 98.8421 99.3774 104.833C97.2807 112.589 103.045 120.051 111.379 120.391C116.278 120.59 116.291 120.59 116.278 125.556C116.238 136.673 116.184 147.79 116.131 158.907C115.253 158.115 115.346 156.957 115.079 155.958C112.803 147.531 108.956 139.862 103.165 133.385C96.5086 125.949 90.5779 118.114 86.7971 108.814C84.6871 103.622 82.8101 98.3494 82.2044 92.7177C86.9037 92.9241 91.4033 92.4448 95.377 89.529C101.893 84.7494 102.106 75.7159 95.7365 71.6019C96.7748 70.6101 97.6401 69.5516 97.6069 67.9872C97.5669 65.9968 97.6601 63.9997 97.5802 62.0093C97.4871 59.6395 96.0293 58.1616 93.9127 58.1283C91.6762 58.0951 90.2185 59.6062 90.1386 62.1225C90.072 64.1928 90.0787 66.2697 90.052 68.3401C87.4361 68.0338 84.8402 67.5013 82.1844 67.7542C81.9847 65.9103 82.4573 64.1262 82.9099 62.3888C87.4361 44.9343 96.7549 30.6219 111.092 19.6181C117.822 14.4523 125.15 10.4182 133.264 7.87524C143.615 8.32126 153.193 11.4434 162.285 16.263C165.381 17.9006 166.379 17.7275 168.576 15.3776C171.185 17.3747 173.787 19.3717 176.397 21.3622H176.383ZM159.263 71.6019C154.058 74.997 153.06 82.4394 157.167 87.1991C162.685 93.5898 174.193 94.7813 180.949 89.6688C188.524 83.9372 187.785 74.6109 179.405 70.0176C174.806 67.4946 169.947 67.3415 164.948 68.3401C164.921 66.1832 164.941 64.0264 164.848 61.8695C164.755 59.6261 163.37 58.2149 161.334 58.1283C159.184 58.0351 157.573 59.4597 157.433 61.7497C157.327 63.4872 157.486 65.2379 157.38 66.9754C157.267 68.8526 157.806 70.3904 159.263 71.5886V71.6019ZM127.467 75.7758C131.86 75.8025 135.627 74.1715 138.716 70.9962C140.433 69.2321 140.506 66.9953 139.015 65.4709C137.438 63.8599 135.507 63.9132 133.511 65.6373C129.217 69.3452 125.796 69.3319 121.429 65.5907C119.459 63.9065 117.482 63.8799 115.931 65.5175C114.467 67.0619 114.574 69.272 116.318 71.0428C119.353 74.1249 123.034 75.7692 127.467 75.7825V75.7758Z" fill="#F2E958"/>
<path d="M27.1774 145.574C21.0603 145.633 16.4076 142.212 14.8035 136.96C13.2526 131.894 15.1563 126.355 19.7291 123.499C24.0024 120.83 28.3689 118.274 32.8552 115.977C38.5928 113.035 45.6418 115.378 48.7303 120.956C51.8054 126.515 50.1414 133.465 44.6833 136.893C40.5564 139.489 36.2631 141.826 32.0165 144.222C30.3324 145.174 28.4754 145.594 27.1774 145.567V145.574ZM42.7596 127.014C42.7729 123.319 39.0721 121.089 35.8305 122.814C31.8967 124.904 28.056 127.167 24.2353 129.464C21.7659 130.955 21.1003 133.604 22.4248 135.861C23.7228 138.071 26.4119 138.777 28.9147 137.392C32.742 135.275 36.5094 133.052 40.2968 130.862C41.8477 129.963 42.6198 128.578 42.7596 127.007V127.014Z" fill="#040403"/>
<path d="M240.669 132.146C240.722 142.232 231.703 148.276 223.762 144.502C218.923 142.198 214.271 139.436 209.791 136.493C204.639 133.105 203.314 126.175 206.376 120.816C209.465 115.411 216.274 113.048 221.852 115.844C226.578 118.207 231.157 120.903 235.617 123.745C239.045 125.929 240.616 129.377 240.669 132.153V132.146ZM233.174 133.631C233.247 132.113 232.742 130.748 231.464 129.983C227.224 127.433 222.97 124.89 218.597 122.574C216.52 121.469 213.958 122.567 212.839 124.564C211.681 126.634 212.107 129.177 214.211 130.482C218.278 133.005 222.398 135.455 226.651 137.652C229.713 139.229 233.121 136.973 233.168 133.631H233.174Z" fill="#040403"/>
<path d="M14.3176 28.2585C14.3508 18.6259 23.2569 12.648 31.1179 16.3426C36.0368 18.6526 40.7694 21.4618 45.3089 24.4641C50.3411 27.7859 51.6457 34.729 48.6903 39.968C45.6351 45.3868 38.8191 47.8432 33.2479 45.0939C28.4354 42.7173 23.7894 39.9614 19.2765 37.0656C15.8552 34.8688 14.3375 31.3806 14.3176 28.2585ZM26.778 22.7932C24.242 22.7732 22.6378 23.8583 22.0122 25.9752C21.3665 28.1653 22.0122 30.1025 24.0689 31.3207C27.7631 33.5042 31.4773 35.661 35.2181 37.7713C37.9738 39.329 40.7628 38.7232 42.114 36.38C43.5051 33.9635 42.6531 31.4272 39.8109 29.7563C36.323 27.706 32.8019 25.7156 29.3007 23.6852C28.4288 23.1793 27.5501 22.7466 26.778 22.7932Z" fill="#040403"/>
<path d="M240.676 28.4516C240.609 31.7268 238.812 35.235 235.078 37.5317C230.991 40.048 226.851 42.4778 222.611 44.7145C216.66 47.8632 209.491 45.6731 206.283 39.9215C203.101 34.2165 204.972 27.2134 210.736 23.7119C214.763 21.2621 218.823 18.8523 222.997 16.6755C231.131 12.4284 240.669 18.2466 240.669 28.4516H240.676ZM217.026 38.7632C217.366 38.6833 217.805 38.6567 218.164 38.4836C222.844 36.2003 227.35 33.6107 231.67 30.7216C233.494 29.5034 233.693 26.7275 232.522 24.8835C231.357 23.0462 228.841 22.0676 226.864 23.1194C222.498 25.4494 218.191 27.9124 214.011 30.5619C212.3 31.6469 211.801 33.5841 212.58 35.6411C213.345 37.6715 214.916 38.5235 217.026 38.7565V38.7632Z" fill="#040403"/>
<path d="M235.983 92.5712C233.747 92.5712 231.504 92.6378 229.267 92.5579C222.491 92.3183 217.246 87.0327 217.213 80.4889C217.186 74.0384 222.211 68.6795 228.928 68.3733C233.727 68.1536 238.546 68.147 243.345 68.3733C250.174 68.6995 255.146 74.1515 254.993 80.7685C254.84 87.2257 249.655 92.3316 242.939 92.5579C240.623 92.6378 238.3 92.5712 235.977 92.5712H235.983ZM235.957 85.1022C238.186 85.1022 240.423 85.1754 242.653 85.0822C245.542 84.969 247.492 83.0651 247.525 80.4889C247.558 77.926 245.621 75.889 242.746 75.8091C238.366 75.6893 233.98 75.7026 229.6 75.7958C226.751 75.8557 224.728 77.8794 224.701 80.3891C224.674 82.9919 226.764 84.989 229.753 85.0888C231.816 85.1554 233.886 85.1022 235.957 85.1022Z" fill="#040404"/>
<path d="M133.258 7.87517C125.144 10.4181 117.815 14.4522 111.086 19.618C96.7483 30.6219 87.4296 44.9342 82.9033 62.3887C82.4507 64.1261 81.9781 65.9035 82.1778 67.7542C79.1758 68.5929 76.1606 69.3452 73.5713 71.2624C68.9252 74.704 67.3211 81.301 70.383 85.7944C73.1852 89.9017 77.2322 92.1651 82.2044 92.7176C82.8101 98.3427 84.6872 103.622 86.7972 108.814C90.5779 118.114 96.5086 125.949 103.165 133.385C108.962 139.862 112.803 147.531 115.08 155.958C115.352 156.957 115.259 158.115 116.131 158.907C116.584 163.421 114.609 165.677 110.207 165.677C104.316 165.677 98.4256 165.651 92.5415 165.697C91.2502 165.711 90.7111 165.424 90.5247 163.98C88.7408 150.067 82.7502 138.244 73.4248 127.746C36.1633 85.821 57.9225 23.7253 109.415 9.82565C116.437 7.92842 123.58 7.21613 130.835 7.52235C131.647 7.55564 132.506 7.40253 133.264 7.87517H133.258Z" fill="#FACD5D"/>
<path d="M109.076 173.326C117.702 173.286 126.322 173.226 134.948 173.206C145.399 173.186 155.849 173.167 166.299 173.233C170.173 173.26 173.328 175.922 174.193 179.604C175.045 183.252 173.315 187.04 169.967 188.877C168.615 189.622 167.171 189.835 165.653 189.829C160.348 189.809 155.037 189.795 149.732 189.829C146.67 189.849 145.665 190.701 144.873 193.696C141.598 193.696 138.33 193.696 135.055 193.69C134.316 190.721 133.291 189.855 130.216 189.829C123.173 189.762 116.125 189.742 109.082 189.702C109.115 189.023 108.829 188.477 108.523 187.878C107.179 185.249 106.293 182.626 106.939 179.471C107.392 177.267 108.789 175.503 109.082 173.32L109.076 173.326Z" fill="#69637E"/>
<path d="M158.924 209.234C148.793 227.713 123.579 232.972 105.927 220.244C101.854 217.308 98.4722 213.7 96.0626 209.24C96.7682 208.375 97.7466 208.694 98.6186 208.694C117.868 208.681 137.112 208.681 156.361 208.694C157.233 208.694 158.212 208.375 158.917 209.234H158.924Z" fill="#5B566D"/>
<path d="M158.924 209.234C158.218 208.375 157.233 208.694 156.368 208.694C137.118 208.674 117.875 208.674 98.6253 208.694C97.7533 208.694 96.7748 208.375 96.0693 209.24C94.0658 206.245 93.0474 202.863 92.0356 199.448C91.4432 197.451 92.1887 197.265 93.8661 197.265C106.12 197.311 118.374 197.265 130.628 197.311C133.191 197.318 134.742 196.339 135.055 193.71C138.33 193.71 141.598 193.71 144.873 193.716C145.312 196.219 146.776 197.358 149.346 197.311C153.379 197.238 157.42 197.338 161.46 197.271C163.031 197.245 163.464 197.611 163.004 199.255C162.026 202.75 160.987 206.198 158.931 209.24L158.924 209.234Z" fill="#4E4B5C"/>
<path d="M109.076 173.326C108.789 175.51 107.385 177.274 106.932 179.477C106.287 182.639 107.179 185.256 108.516 187.885C108.823 188.484 109.109 189.03 109.076 189.709C102.133 189.736 95.184 189.875 88.2416 189.756C83.9483 189.682 80.6469 185.908 80.6469 181.514C80.6469 177.094 83.9084 173.36 88.2349 173.28C95.1774 173.16 102.12 173.293 109.069 173.32L109.076 173.326Z" fill="#5B566D"/>
<path d="M123.733 142.971C123.733 136.088 123.773 129.204 123.699 122.328C123.686 120.85 124.019 120.337 125.61 120.324C131.274 120.271 131.274 120.197 131.274 125.756C131.274 138.191 131.234 150.633 131.314 163.068C131.327 165.032 130.955 165.824 128.771 165.757C123.733 165.611 123.733 165.731 123.733 160.632C123.733 154.747 123.733 148.855 123.733 142.971Z" fill="#E3DB53"/>
<path d="M127.6 247.524C119.772 247.564 112.876 241.759 111.651 234.131C111.405 232.599 111.445 231.787 113.495 232.473C122.827 235.602 132.226 235.588 141.551 232.473C143.688 231.761 143.581 232.726 143.335 234.171C142.057 241.753 135.308 247.478 127.6 247.518V247.524Z" fill="#68627C"/>
<path d="M116.377 109.879C116.91 112.509 115.745 113.174 113.269 112.981C110.999 112.808 108.756 112.861 107.325 110.711C106.167 108.967 106.134 107.103 107.225 105.346C108.383 103.475 110.2 102.71 112.337 103.156C114.354 103.568 115.719 104.846 116.111 106.93C116.291 107.895 116.291 108.894 116.371 109.879H116.377Z" fill="#EAE155"/>
<path d="M141.531 112.855C138.889 113.614 138.37 112.142 138.676 109.826C138.769 109.094 138.676 108.335 138.769 107.602C139.102 104.84 141.085 103.029 143.701 103.056C146.224 103.082 148.281 104.986 148.48 107.483C148.707 110.252 146.983 112.415 144.141 112.835C143.335 112.955 142.496 112.855 141.531 112.855Z" fill="#EAE155"/>
<path d="M18.6574 85.1087C16.5873 85.1087 14.5239 85.1686 12.4538 85.0954C9.4319 84.9889 7.42172 83.0251 7.47497 80.3557C7.52822 77.7994 9.4785 75.8689 12.3806 75.8023C16.6805 75.7091 20.9805 75.7091 25.2804 75.8023C28.2491 75.8622 30.3524 77.9525 30.2859 80.5354C30.2193 83.1449 28.1359 85.0222 25.1007 85.102C22.9507 85.1553 20.8007 85.1153 18.6508 85.1153L18.6574 85.1087Z" fill="#EDE456"/>
<path d="M164.955 68.34C169.953 67.3348 174.812 67.4946 179.412 70.0176C187.792 74.6108 188.531 83.9305 180.956 89.6688C174.2 94.7813 162.691 93.5831 157.173 87.1991C153.06 82.4394 154.065 74.9969 159.27 71.6019C162.771 72.3075 163.983 71.6152 164.961 68.3467L164.955 68.34Z" fill="#FEA1AB"/>
<path d="M82.1977 92.7176C77.2322 92.1651 73.1786 89.9084 70.3763 85.7944C67.3144 81.301 68.9186 74.7106 73.5646 71.2623C76.1539 69.3452 79.1692 68.5929 82.1711 67.7541C84.827 67.4945 87.4229 68.0337 90.0388 68.34C91.0039 71.6085 92.222 72.3075 95.7299 71.5952C102.1 75.7092 101.887 84.7426 95.3704 89.5223C91.3967 92.438 86.897 92.924 82.1977 92.7109V92.7176Z" fill="#FEA1AB"/>
<path d="M127.473 75.769C123.04 75.7557 119.359 74.1114 116.324 71.0293C114.58 69.2585 114.474 67.0484 115.938 65.504C117.496 63.8664 119.466 63.893 121.436 65.5772C125.803 69.3118 129.231 69.3251 133.517 65.6238C135.507 63.9064 137.438 63.8464 139.022 65.4574C140.513 66.9819 140.44 69.2186 138.722 70.9827C135.634 74.158 131.866 75.789 127.473 75.7623V75.769Z" fill="#050502"/>
<path d="M95.7298 71.5952C92.222 72.3075 91.0039 71.6085 90.0388 68.3399C90.0654 66.2696 90.0587 64.1927 90.1253 62.1224C90.2052 59.6061 91.6629 58.0949 93.8994 58.1282C96.016 58.1615 97.4738 59.6327 97.5669 62.0092C97.6468 63.9996 97.5536 65.99 97.5936 67.9871C97.6268 69.5515 96.7615 70.6166 95.7232 71.6018L95.7298 71.5952Z" fill="#030302"/>
<path d="M164.955 68.34C163.976 71.6152 162.771 72.3075 159.263 71.5952C157.806 70.397 157.26 68.8592 157.38 66.982C157.486 65.2445 157.327 63.4938 157.433 61.7563C157.579 59.4597 159.184 58.0417 161.334 58.1349C163.377 58.2215 164.755 59.6327 164.848 61.8761C164.941 64.033 164.921 66.1898 164.948 68.3467L164.955 68.34Z" fill="#030302"/>
<path d="M42.7529 127.014C42.6198 128.585 41.8477 129.97 40.2901 130.868C36.5027 133.059 32.7353 135.289 28.908 137.399C26.4052 138.784 23.7161 138.078 22.4182 135.868C21.0936 133.611 21.7592 130.955 24.2287 129.471C28.0427 127.174 31.89 124.911 35.8238 122.82C39.0654 121.096 42.7662 123.326 42.7529 127.021V127.014Z" fill="#EFE657"/>
<path d="M233.181 133.624C233.128 136.966 229.72 139.223 226.658 137.645C222.411 135.455 218.284 132.999 214.217 130.476C212.114 129.171 211.688 126.628 212.846 124.558C213.964 122.554 216.52 121.462 218.604 122.567C222.97 124.884 227.23 127.427 231.47 129.976C232.748 130.742 233.247 132.107 233.181 133.624Z" fill="#EFE657"/>
<path d="M26.778 22.7932C27.5501 22.7466 28.4287 23.1793 29.3007 23.6853C32.8019 25.7156 36.323 27.6994 39.8109 29.7564C42.6531 31.4339 43.5051 33.9702 42.1139 36.38C40.7627 38.7299 37.9738 39.329 35.2181 37.7713C31.4773 35.6611 27.7631 33.5109 24.0689 31.3208C22.0121 30.1025 21.3665 28.1587 22.0121 25.9752C22.6378 23.8583 24.2486 22.7733 26.778 22.7932Z" fill="#EFE657"/>
<path d="M217.026 38.7634C214.916 38.5304 213.345 37.6783 212.58 35.6479C211.801 33.5909 212.307 31.6538 214.011 30.5687C218.184 27.9126 222.498 25.4562 226.864 23.1263C228.841 22.0678 231.357 23.053 232.522 24.8903C233.687 26.7343 233.494 29.5036 231.67 30.7285C227.357 33.6176 222.844 36.2071 218.164 38.4904C217.805 38.6635 217.372 38.6901 217.026 38.77V38.7634Z" fill="#EFE657"/>
<path d="M235.95 85.102C233.88 85.102 231.816 85.1619 229.746 85.0887C226.758 84.9888 224.668 82.9984 224.694 80.3889C224.721 77.8793 226.744 75.8622 229.593 75.7956C233.973 75.7024 238.359 75.6891 242.739 75.809C245.608 75.8822 247.545 77.9259 247.518 80.4888C247.485 83.065 245.535 84.9689 242.646 85.082C240.416 85.1686 238.18 85.102 235.95 85.102Z" fill="#EDE456"/>
</g>
<defs>
<clipPath id="clip0_2238_295">
<rect width="255" height="255" fill="white"/>
</clipPath>
</defs>
</svg>
