<svg width="202" height="203" viewBox="0 0 202 203" fill="none" xmlns="http://www.w3.org/2000/svg">
<g clip-path="url(#clip0_2238_137)">
<path d="M30.1169 63.7453C28.4641 63.3315 27.3685 63.9426 26.6522 65.4886C16.6116 87.114 15.6303 109.154 24.2413 131.456C31.8396 151.143 45.2835 165.703 64.0015 175.205C77.8359 182.225 92.5564 185.03 108.02 183.611C110.624 183.373 113.21 183.036 115.773 182.516C115.993 182.47 116.186 182.46 116.314 182.689L128.075 179.537C128.098 179.439 128.1 179.276 128.157 179.256C131.587 177.957 134.963 176.534 138.221 174.842C138.494 174.698 138.805 174.569 139.134 174.744C140.325 175.373 141.656 175.343 142.935 175.556L172.022 167.762C172.162 167.135 172.79 167.092 173.203 166.835C179.7 162.804 183.102 156.932 181.955 149.333C180.874 142.167 179.294 134.997 175.375 128.655C173.097 125.784 170.279 123.534 167.34 121.392C165.006 119.69 163.272 117.485 162.493 114.626C161.373 110.538 160.264 106.447 159.125 102.364C157.866 97.8541 153.916 95.4273 149.727 96.5622C145.539 97.701 143.382 101.748 144.578 106.304C145.749 110.767 146.967 115.221 148.154 119.68C149.306 123.981 147.879 126.457 143.582 127.608C129.56 131.365 115.534 135.123 101.512 138.881C100.841 139.06 100.176 139.26 99.5148 139.462C98.0908 139.902 96.9578 140.761 96.0574 141.93C94.0806 144.495 93.9411 147.93 95.6891 150.638C97.5635 153.554 100.734 154.76 104.365 153.808C110.459 152.217 116.536 150.559 122.621 148.929C123.179 148.78 123.738 148.63 124.397 148.453C124.393 150.937 124.811 153.503 126.824 154.565C129.579 156.02 129.858 158.148 129.852 160.686C130.336 161.885 130.939 163.003 131.843 163.943C132.714 164.851 134.367 165.047 134.785 165.988C135.243 167.015 134.551 168.512 135.03 169.742C135.389 170.661 135.111 171.053 134.29 171.432C130.224 173.32 126.069 174.968 121.752 176.183C109.921 179.508 97.95 180.062 85.8767 177.66C79.3223 176.357 72.9779 174.379 67.0351 171.233C66.7842 171.149 66.5174 171.1 66.2853 170.978C38.8842 156.23 24.5025 133.238 23.3522 102.095C22.9125 90.1855 25.6782 78.8382 30.7633 68.0812C31.8592 65.765 31.7644 65.2095 30.1099 63.7346L30.1169 63.7453ZM153.215 119.77C151.895 114.904 150.561 110.037 149.26 105.166C148.713 103.123 149.341 101.743 150.961 101.276C152.635 100.79 153.952 101.703 154.531 103.804C155.301 106.599 156.189 109.37 156.753 112.206C158.033 118.608 161.352 123.49 166.801 127.074C169.991 129.174 172.297 132.137 173.572 135.808C175.037 140.02 176.038 144.361 177.105 148.685C177.309 149.508 177.362 150.388 177.348 151.236C177.248 157.515 173.536 162.308 167.391 163.988C159.514 166.14 151.619 168.226 143.726 170.333C143.264 170.457 142.785 170.577 142.313 170.569C141.003 170.549 140.065 169.918 139.697 168.621C139.329 167.328 139.779 166.292 140.874 165.569C141.312 165.28 141.839 165.122 142.325 164.904C143.256 163.927 143.697 162.844 142.871 161.59C142.043 160.332 140.856 160.37 139.596 160.754C139.239 160.862 138.877 160.955 138.514 161.044C136.524 161.544 135.18 161.026 134.63 159.548C134.046 157.987 134.615 156.869 136.501 155.887C137.883 155.166 138.458 153.963 137.997 152.753C137.513 151.491 136.392 150.998 134.83 151.341C133.896 151.55 133.009 151.963 132.021 151.935C130.623 151.896 129.691 151.226 129.359 149.848C129.044 148.533 129.565 147.545 130.682 146.861C131.136 146.585 131.671 146.425 132.083 146.101C132.933 145.443 133.166 144.511 132.845 143.515C132.544 142.58 131.84 141.954 130.843 141.908C130.22 141.878 129.579 142.062 128.967 142.227C120.665 144.438 112.368 146.666 104.069 148.889C101.401 149.604 99.9076 149.102 99.4019 147.323C98.8858 145.506 99.8884 144.33 102.563 143.61C116.636 139.839 130.708 136.068 144.781 132.297C146.65 131.797 148.435 131.122 149.907 129.808C152.937 127.107 153.769 123.667 153.205 119.764L153.215 119.77Z" fill="#030302"/>
<path d="M178.186 74.3854C177.314 73.7206 177.268 72.6339 176.919 71.7368C164.16 38.9155 132.215 17.5575 97.2124 19.1887C69.9232 20.4622 48.3372 32.6901 32.5797 55.1453C31.5997 56.5446 31.6293 57.8029 32.8157 59.0354C34.8421 59.7419 35.3891 59.5034 36.798 57.5797C56.2666 31.0126 82.3009 20.2004 114.762 25.3391C125.322 27.0104 134.998 31.2628 143.783 37.4632C144.064 37.6096 144.362 37.7303 144.619 37.9123C163.848 51.8535 174.796 70.6549 177.359 94.3192C178.249 102.526 177.663 110.67 175.904 118.73C175.42 120.941 175.701 121.48 177.513 122.566C179.063 122.564 180.15 122.014 180.51 120.333C182.537 110.914 183.133 101.427 181.93 91.8325C181.696 89.9685 181.182 88.1255 181.357 86.219L180.773 84.0395C180.112 83.899 180.378 83.2508 180.138 82.8806C179.863 81.8219 179.583 80.7642 179.309 79.7094C179.28 78.8563 178.544 78.1091 178.938 77.1927L178.188 74.3932L178.186 74.3854Z" fill="#040403"/>
<path d="M179.307 79.7016C179.582 80.7603 179.862 81.818 180.136 82.8728C180.225 82.8029 180.326 82.7759 180.437 82.7879L179.604 79.6764C179.509 79.7102 179.407 79.7167 179.307 79.7016Z" fill="#050503"/>
<path d="M179.307 79.7016C179.406 79.7167 179.508 79.7063 179.604 79.6764L178.936 77.1849C178.54 78.0975 179.278 78.8485 179.307 79.7016Z" fill="#7A4E44"/>
<path d="M180.437 82.7879C180.326 82.7759 180.226 82.8068 180.136 82.8728C180.372 83.244 180.109 83.8912 180.771 84.0317L180.437 82.7879Z" fill="#7A4E44"/>
<path d="M143.783 37.4632C134.998 31.2628 125.322 27.0104 114.762 25.3391C82.3009 20.2004 56.2666 31.0126 36.798 57.5797C35.3891 59.5034 34.8421 59.7419 32.8157 59.0354C31.9148 60.6057 31.0178 62.175 30.1169 63.7453C31.7714 65.2201 31.8662 65.7756 30.7703 68.0918C25.6852 78.8488 22.9195 90.1961 23.3591 102.105C24.5105 133.252 38.8923 156.245 66.2923 170.989C66.5205 171.111 66.7912 171.16 67.0421 171.243C67.8429 170.866 68.6242 171.191 69.3862 171.367C75.062 172.68 80.8129 173.295 86.6237 173.297C94.5846 173.304 102.344 172.014 109.967 169.738C114.347 168.431 118.548 166.707 122.616 164.656C125.073 163.417 127.447 162.024 129.86 160.701C129.866 158.162 129.587 156.035 126.832 154.579C124.823 153.517 124.401 150.951 124.405 148.468C123.746 148.644 123.187 148.794 122.629 148.944C116.544 150.574 110.468 152.232 104.373 153.823C100.741 154.771 97.5715 153.568 95.6971 150.652C93.952 147.94 94.0875 144.506 96.0655 141.945C96.9658 140.776 98.0988 139.916 99.5229 139.476C100.187 139.273 100.849 139.075 101.52 138.895C115.542 135.138 129.568 131.38 143.59 127.622C147.887 126.471 149.31 123.996 148.162 119.694C146.967 115.238 145.757 110.781 144.586 106.319C143.389 101.758 145.544 97.7165 149.735 96.5767C153.919 95.4389 157.874 97.8686 159.133 102.379C160.272 106.462 161.377 110.554 162.501 114.64C163.391 115.292 163.327 114.31 163.391 114.005C164.071 110.818 164.862 107.643 165.291 104.423C166.386 96.2398 166.293 88.0739 164.794 79.9045C163.495 72.8223 161.487 65.9802 158.451 59.4761C154.955 51.9798 150.407 45.1498 144.738 39.1006C144.3 38.6327 143.832 38.1731 143.787 37.4749L143.783 37.4632ZM117.102 69.3604C117.04 66.974 117.14 64.6449 119.347 63.0797C118.986 61.0954 119.357 60.2312 120.814 59.6819C124.93 58.1361 129.747 60.0757 131.64 64.0986C132.644 66.2325 133.504 68.4342 134.104 70.7222C135.129 74.6225 133.252 78.8655 129.734 80.6566C125.944 82.583 121.493 81.6821 118.857 78.4851C117.316 76.6121 116.704 74.3106 115.948 72.0936C115.563 70.9681 116.089 69.9997 117.106 69.3594L117.102 69.3604ZM66.7485 88.2018C66.365 85.747 67.2464 83.6386 69.0865 82.6107C68.2165 80.1859 68.8674 78.9543 71.3207 78.3847C75.0835 77.506 79.1494 79.3251 80.9564 82.765C82.1075 84.9514 82.9535 87.2864 83.613 89.6547C84.6764 93.4527 82.9293 97.5732 79.6234 99.4746C76.0397 101.534 71.7554 100.994 68.8692 98.1019C67.1815 96.4103 66.5844 94.1507 65.74 92.0074C65.1182 90.4314 65.3773 89.196 66.7467 88.2106L66.7485 88.2018ZM126.285 106.253C126.491 106.198 126.698 106.151 126.902 106.088C129.414 105.302 130.727 105.644 131.236 107.217C131.741 108.778 130.795 109.947 128.381 110.694C121.679 112.778 115.426 115.829 109.41 119.417C104.689 122.228 100.232 125.403 95.984 128.89C94.6036 130.021 93.1668 129.917 92.3048 128.794C91.4239 127.647 91.6507 126.29 93.0025 125.147C102.919 116.769 114.009 110.462 126.286 106.257L126.285 106.253ZM123.709 44.3047C124.507 43.9948 125.792 43.9053 127.058 43.7251C130.25 43.2752 133.434 43.4333 136.589 44.088C138.126 44.4077 138.879 45.4806 138.661 46.8386C138.443 48.184 137.396 48.9285 135.849 48.7998C135.16 48.742 134.476 48.6244 133.789 48.5284C130.793 48.111 127.817 48.2649 124.915 49.0548C119.736 50.4635 115.437 53.2955 111.935 57.3806C110.684 58.8399 109.326 59.045 108.185 58.0927C107.03 57.1319 107.068 55.5965 108.349 54.1289C112.41 49.4761 117.357 46.1907 123.71 44.3086L123.709 44.3047ZM76.9043 72.885C76.6315 72.9372 76.4232 72.9973 76.2111 73.0123C67.6522 73.5505 59.0925 74.1014 50.527 74.5995C48.8776 74.6946 47.8344 73.733 47.7876 72.333C47.7398 70.9292 48.7045 69.9226 50.3167 69.8124C56.2693 69.4126 62.2264 69.0451 68.1832 68.6608C70.7364 68.4949 73.2861 68.3007 75.8381 68.1768C77.4178 68.1004 78.4108 68.8749 78.613 70.25C78.8176 71.6494 78.1057 72.467 76.9043 72.885Z" fill="#FDE07C"/>
<path d="M153.215 119.77C153.779 123.672 152.947 127.113 149.917 129.814C148.445 131.128 146.656 131.803 144.79 132.303C130.718 136.074 116.645 139.845 102.573 143.615C99.8933 144.333 98.8957 145.512 99.4118 147.329C99.9174 149.108 101.411 149.61 104.079 148.895C112.378 146.672 120.676 144.448 128.977 142.232C129.589 142.068 130.235 141.887 130.853 141.913C131.85 141.96 132.55 142.587 132.855 143.521C133.176 144.517 132.944 145.453 132.093 146.107C131.676 146.428 131.145 146.587 130.692 146.867C129.575 147.551 129.054 148.539 129.369 149.854C129.701 151.232 130.628 151.903 132.031 151.941C133.015 151.97 133.906 151.555 134.839 151.347C136.402 151.004 137.527 151.496 138.007 152.759C138.467 153.965 137.892 155.172 136.511 155.893C134.629 156.874 134.056 157.993 134.64 159.554C135.194 161.031 136.538 161.548 138.524 161.05C138.886 160.957 139.248 160.868 139.606 160.76C140.865 160.372 142.057 160.337 142.881 161.596C143.703 162.85 143.265 163.929 142.335 164.91C142.963 164.787 143.597 164.705 144.215 164.544C151.783 162.524 159.353 160.5 166.916 158.461C170.567 157.478 172.832 153.491 171.857 149.803C170.967 146.435 169.92 143.105 169.191 139.702C168.348 135.778 166.043 133.069 162.928 130.766C160.807 129.194 158.707 127.58 156.991 125.469C155.534 123.678 154.463 121.683 153.217 119.778L153.215 119.77Z" fill="#FDCF63"/>
<path d="M143.783 37.4633C143.83 38.1654 144.293 38.6221 144.734 39.089C150.4 45.1392 154.948 51.9693 158.448 59.4645C161.484 65.9686 163.493 72.8146 164.791 79.8929C166.285 88.0594 166.379 96.2292 165.288 104.411C164.859 107.635 164.068 110.81 163.388 113.993C163.324 114.299 163.388 115.28 162.498 114.629C163.28 117.486 165.012 119.697 167.345 121.395C170.284 123.537 173.102 125.787 175.38 128.658C176.523 126.78 176.797 124.592 177.512 122.562C175.7 121.476 175.423 120.94 175.903 118.726C177.658 110.667 178.248 102.523 177.358 94.3154C174.796 70.655 163.851 51.8486 144.618 37.9084C144.365 37.7254 144.063 37.6058 143.782 37.4594L143.783 37.4633Z" fill="#FCCF63"/>
<path d="M153.215 119.77C154.456 121.673 155.532 123.67 156.989 125.462C158.705 127.572 160.805 129.186 162.925 130.758C166.042 133.065 168.346 135.77 169.189 139.694C169.922 143.096 170.964 146.427 171.854 149.795C172.831 153.487 170.565 157.471 166.913 158.453C159.351 160.492 151.78 162.516 144.213 164.536C143.596 164.701 142.962 164.783 142.332 164.902C141.846 165.12 141.319 165.278 140.881 165.566C139.787 166.29 139.337 167.326 139.704 168.619C140.073 169.916 141.01 170.547 142.321 170.567C142.793 170.575 143.271 170.451 143.733 170.331C151.623 168.225 159.518 166.139 167.398 163.986C173.544 162.306 177.257 157.516 177.356 151.234C177.369 150.382 177.317 149.506 177.113 148.683C176.046 144.359 175.041 140.019 173.58 135.805C172.305 132.135 169.998 129.172 166.809 127.072C161.36 123.488 158.04 118.606 156.761 112.204C156.193 109.368 155.308 106.596 154.539 103.802C153.959 101.701 152.643 100.791 150.969 101.273C149.348 101.741 148.721 103.121 149.268 105.164C150.573 110.034 151.902 114.902 153.223 119.768L153.215 119.77Z" fill="#FDC14F"/>
<path d="M129.856 160.702C127.443 162.025 125.07 163.422 122.612 164.657C118.544 166.708 114.343 168.432 109.963 169.739C102.34 172.016 94.5807 173.305 86.6198 173.298C80.8079 173.293 75.0581 172.681 69.3823 171.369C68.6203 171.192 67.8389 170.867 67.0382 171.244C72.981 174.391 79.3293 176.367 85.8797 177.671C97.953 180.074 109.924 179.52 121.755 176.195C126.072 174.98 130.227 173.332 134.293 171.444C135.111 171.066 135.391 170.669 135.033 169.754C134.554 168.524 135.246 167.026 134.788 166C134.371 165.063 132.717 164.862 131.846 163.955C130.942 163.014 130.334 161.894 129.855 160.698L129.856 160.702Z" fill="#FCCF63"/>
<path d="M126.286 106.257C114.009 110.462 102.923 116.768 93.0026 125.147C91.6507 126.291 91.4239 127.647 92.3049 128.794C93.1669 129.917 94.6086 130.024 95.984 128.89C100.233 125.404 104.689 122.229 109.41 119.417C115.427 115.833 121.679 112.778 128.381 110.694C130.794 109.943 131.74 108.774 131.236 107.217C130.728 105.648 129.415 105.306 126.902 106.088C126.698 106.151 126.491 106.198 126.285 106.253L126.286 106.257Z" fill="#040402"/>
<path d="M66.7484 88.2018C65.3801 89.1911 65.1199 90.4226 65.7417 91.9987C66.5861 94.1419 67.1833 96.4015 68.8709 98.0931C71.7582 100.989 76.0415 101.525 79.6251 99.4658C82.9321 97.5684 84.6792 93.4478 83.6147 89.6459C82.9503 87.2748 82.1093 84.9426 80.9582 82.7562C79.1473 79.3173 75.0863 77.5011 71.3224 78.3759C68.8701 78.9494 68.2154 80.1821 69.0844 82.6029C70.1889 83.5607 71.4994 83.2555 72.7641 83.2133C74.871 82.933 76.2418 83.7525 77.1082 85.8689C77.6749 87.2549 78.1711 88.6724 78.7378 90.0584C79.443 91.7751 78.9771 93.8055 77.5592 95.0129C76.2285 96.1426 74.5955 96.1288 72.8495 94.9794C71.1405 94.0457 71.0077 92.2007 70.4165 90.6458C69.6279 88.5712 68.8526 87.9891 66.7463 88.194L66.7484 88.2018Z" fill="#040302"/>
<path d="M117.102 69.3605C116.086 70.0047 115.56 70.9731 115.944 72.0947C116.7 74.3118 117.312 76.6132 118.853 78.4863C121.485 81.6843 125.941 82.5841 129.73 80.6577C133.245 78.8677 135.121 74.6247 134.101 70.7233C133.5 68.4353 132.64 66.2336 131.636 64.0997C129.743 60.0768 124.93 58.1362 120.81 59.6831C119.353 60.2323 118.982 61.0965 119.343 63.0808C120.373 64.6437 121.849 64.3819 123.339 64.0788C124.962 63.9323 126.35 64.4588 127.12 65.9073C128.174 67.8857 128.981 69.9972 129.48 72.1869C129.848 73.7933 129.152 75.15 127.875 76.1066C126.588 77.0741 124.807 76.9579 123.446 75.9728C121.523 74.9543 121.465 72.8302 120.664 71.1601C119.76 69.2752 119.143 68.8805 117.093 69.3587L117.102 69.3605Z" fill="#040302"/>
<path d="M123.709 44.3047C117.356 46.1868 112.405 49.4733 108.348 54.125C107.064 55.5975 107.03 57.1318 108.184 58.0888C109.329 59.0401 110.683 58.836 111.934 57.3767C115.436 53.2916 119.739 50.4586 124.914 49.0509C127.816 48.2609 130.795 48.1021 133.788 48.5245C134.475 48.6205 135.159 48.7381 135.848 48.7959C137.395 48.9246 138.442 48.1801 138.66 46.8347C138.877 45.4767 138.121 44.4049 136.588 44.0841C133.437 43.4283 130.248 43.2713 127.057 43.7212C125.794 43.8965 124.505 43.987 123.708 44.3008L123.709 44.3047Z" fill="#050402"/>
<path d="M76.9043 72.8851C78.1067 72.471 78.8186 71.6534 78.613 70.25C78.4136 68.8701 77.4177 68.1005 75.8381 68.1769C73.2861 68.3007 70.7335 68.4999 68.1832 68.6609C62.2302 69.0441 56.2731 69.4117 50.3166 69.8125C48.7045 69.9227 47.7436 70.9282 47.7876 72.3331C47.8344 73.7331 48.8776 74.6947 50.527 74.5996C59.0886 74.1025 67.6483 73.5516 76.211 73.0124C76.4231 72.9973 76.6315 72.9373 76.9043 72.8851Z" fill="#050503"/>
<path d="M123.342 64.0777C121.856 64.3798 120.377 64.6426 119.347 63.0797C117.138 64.641 117.039 66.9702 117.102 69.3605C119.152 68.8823 119.769 69.277 120.673 71.1618C121.473 72.8281 121.531 74.9522 123.453 75.9707C123.509 75.3247 123.768 74.7413 123.954 74.1315C124.989 70.7199 125.129 67.3349 123.342 64.0777Z" fill="#9A6745"/>
<path d="M72.7701 83.22C71.5055 83.2622 70.1949 83.5674 69.0904 82.6096C67.2503 83.6376 66.37 85.7498 66.7524 88.2007C68.8587 87.9957 69.6329 88.5739 70.4225 90.6524C71.0138 92.2074 71.1504 94.0513 72.8555 94.9861C74.7785 91.0566 74.6042 87.1332 72.7701 83.22Z" fill="#9A6745"/>
<path d="M72.7701 83.22C74.6042 87.1333 74.7774 91.0527 72.8555 94.9861C74.6026 96.1394 76.2394 96.1522 77.5652 95.0196C78.9842 93.8161 79.449 91.7818 78.7438 90.0651C78.1771 88.6791 77.6809 87.2617 77.1142 85.8756C76.2468 83.7553 74.8759 82.9358 72.7701 83.22Z" fill="#7A4E44"/>
<path d="M123.342 64.0777C125.13 67.3349 124.985 70.7209 123.954 74.1315C123.768 74.7412 123.509 75.3247 123.454 75.9706C124.816 76.9596 126.592 77.073 127.884 76.1083C129.161 75.1518 129.857 73.7951 129.489 72.1887C128.986 70 128.183 67.8875 127.129 65.909C126.355 64.4616 124.967 63.935 123.347 64.0806L123.342 64.0777Z" fill="#7A4E44"/>
</g>
<defs>
<clipPath id="clip0_2238_137">
<rect width="164" height="165" fill="white" transform="matrix(-0.965926 0.258819 0.258819 0.965926 158.412 0.588013)"/>
</clipPath>
</defs>
</svg>
