<svg width="165" height="167" viewBox="0 0 165 167" fill="none" xmlns="http://www.w3.org/2000/svg">
<path d="M18.315 87.239C31.9603 78.8416 46.2781 71.5898 61.1215 65.558C62.381 65.0465 63.525 65.9375 63.5305 67.241C63.5635 76.69 63.602 86.139 63.635 95.588C83.05 91.7215 102.63 88.713 122.309 86.5735L122.622 78.879C122.705 76.91 125.455 76.9705 125.928 78.5985C132.891 78.395 139.766 79.264 146.47 81.2495C147.746 81.629 147.851 83.3395 146.965 84.137L135.641 94.2845C133.837 95.9015 132.027 97.5185 130.223 99.141C129.239 100.021 128.254 100.906 127.27 101.786C126.571 102.408 125.878 103.161 124.965 103.453C123.293 103.981 121.929 102.87 121.753 101.214C121.5 98.899 121.913 96.358 122.012 94.0315L122.177 89.9945C102.08 92.2 82.0875 95.313 62.2655 99.3225C61.105 99.559 60.28 98.569 60.2745 97.5075C60.2415 88.2125 60.2085 78.9175 60.17 69.617C46.1835 75.447 32.67 82.3605 19.7615 90.308C17.9025 91.452 16.478 88.3775 18.315 87.2445V87.239ZM125.488 91.694C125.405 93.7785 125.317 95.863 125.235 97.953C125.229 98.1125 125.251 98.547 125.268 99.042L126.082 98.3105L142.433 83.6585C137.027 82.333 131.455 81.75 125.884 81.959C125.823 83.378 125.768 84.8025 125.708 86.2215L126.181 86.172C128.337 85.952 128.958 89.2795 126.791 89.505L125.57 89.637L125.488 91.705V91.694Z" fill="#0C0C0D"/>
<path d="M18.315 85.239C31.9603 76.8416 46.2781 69.5898 61.1215 63.558C62.381 63.0465 63.525 63.9375 63.5305 65.241C63.5635 74.69 63.602 84.139 63.635 93.588C83.05 89.7215 102.63 86.713 122.309 84.5735L122.622 76.879C122.705 74.91 125.455 74.9705 125.928 76.5985C132.891 76.395 139.766 77.264 146.47 79.2495C147.746 79.629 147.851 81.3395 146.965 82.137L135.641 92.2845C133.837 93.9015 132.027 95.5185 130.223 97.141C129.239 98.021 128.254 98.9065 127.27 99.7865C126.571 100.408 125.878 101.161 124.965 101.453C123.293 101.981 121.929 100.87 121.753 99.2145C121.5 96.899 121.913 94.358 122.012 92.0315L122.177 87.9945C102.08 90.2 82.0875 93.313 62.2655 97.3225C61.105 97.559 60.28 96.569 60.2745 95.5075C60.2415 86.2125 60.2085 76.9175 60.17 67.617C46.1835 73.447 32.67 80.3605 19.7615 88.308C17.9025 89.452 16.478 86.3775 18.315 85.2445V85.239ZM125.488 89.694C125.405 91.7785 125.317 93.863 125.235 95.953C125.229 96.1125 125.251 96.547 125.268 97.042L126.082 96.3105L142.433 81.6585C137.027 80.333 131.455 79.75 125.884 79.959C125.823 81.378 125.768 82.8025 125.708 84.2215L126.181 84.172C128.337 83.952 128.958 87.2795 126.791 87.505L125.57 87.637L125.488 89.705V89.694Z" fill="#6610F2"/>
</svg>
