<svg width="138" height="254" viewBox="0 0 138 254" fill="none" xmlns="http://www.w3.org/2000/svg">
<path d="M2 207V204.9C6.9 204.9 10.54 203.92 12.92 201.96C15.44 199.86 17.05 197.2 17.75 193.98C18.59 190.76 19.01 187.26 19.01 183.48V68.4C19.01 63.36 17.4 59.3 14.18 56.22C11.1 53.14 7.04 51.6 2 51.6V49.5H23.42C30.56 49.5 36.02 48.73 39.8 47.19C43.3 45.65 45.75 43.76 47.15 41.52H49.25V121.32C53.03 113.9 58.56 108.09 65.84 103.89C73.12 99.55 80.89 97.38 89.15 97.38C95.73 97.38 101.33 98.92 105.95 102C110.57 104.94 114.07 108.93 116.45 113.97C118.97 119.01 120.23 124.68 120.23 130.98V188.1C120.23 193.28 121.77 197.41 124.85 200.49C128.07 203.43 132.2 204.9 137.24 204.9V207H73.19V204.9C78.23 204.9 82.29 203.43 85.37 200.49C88.59 197.41 90.2 193.28 90.2 188.1V128.88C90.2 125.8 89.78 122.51 88.94 119.01C88.1 115.37 86.56 112.29 84.32 109.77C82.22 107.11 79.21 105.78 75.29 105.78C71.65 105.78 68.15 106.9 64.79 109.14C61.57 111.24 58.63 113.9 55.97 117.12C53.31 120.34 51.07 123.56 49.25 126.78L49.25 183.48C49.25 187.26 49.6 190.76 50.3 193.98C51.14 197.2 52.75 199.86 55.13 201.96C57.65 203.92 61.36 204.9 66.26 204.9V207H2Z" fill="#0C0C0D"/>
<path d="M0 205L0 202.9C4.9 202.9 8.54 201.92 10.92 199.96C13.44 197.86 15.05 195.2 15.75 191.98C16.59 188.76 17.01 185.26 17.01 181.48V66.4C17.01 61.36 15.4 57.3 12.18 54.22C9.1 51.14 5.04 49.6 0 49.6L0 47.5H21.42C28.56 47.5 34.02 46.73 37.8 45.19C41.3 43.65 43.75 41.76 45.15 39.52H47.25V119.32C51.03 111.9 56.56 106.09 63.84 101.89C71.12 97.55 78.89 95.38 87.15 95.38C93.73 95.38 99.33 96.92 103.95 100C108.57 102.94 112.07 106.93 114.45 111.97C116.97 117.01 118.23 122.68 118.23 128.98V186.1C118.23 191.28 119.77 195.41 122.85 198.49C126.07 201.43 130.2 202.9 135.24 202.9V205H71.19V202.9C76.23 202.9 80.29 201.43 83.37 198.49C86.59 195.41 88.2 191.28 88.2 186.1V126.88C88.2 123.8 87.78 120.51 86.94 117.01C86.1 113.37 84.56 110.29 82.32 107.77C80.22 105.11 77.21 103.78 73.29 103.78C69.65 103.78 66.15 104.9 62.79 107.14C59.57 109.24 56.63 111.9 53.97 115.12C51.31 118.34 49.07 121.56 47.25 124.78L47.25 181.48C47.25 185.26 47.6 188.76 48.3 191.98C49.14 195.2 50.75 197.86 53.13 199.96C55.65 201.92 59.36 202.9 64.26 202.9V205H0Z" fill="#6610F2"/>
</svg>
