<svg width="995" height="256" viewBox="0 0 995 256" fill="none" xmlns="http://www.w3.org/2000/svg">
<path d="M7.46 209V206.9L58.7 104.84H44C36.02 104.84 29.51 107.36 24.47 112.4C19.57 117.3 16.28 125.21 14.6 136.13H12.08L16.49 102.32H90.41V104.42L38.75 206.27H61.01C69.55 206.27 76.34 203.47 81.38 197.87C86.56 192.27 90.13 183.17 92.09 170.57H94.61L89.36 209H7.46Z" fill="#0C0C0D"/>
<path d="M5.46 207V204.9L56.7 102.84H42C34.02 102.84 27.51 105.36 22.47 110.4C17.57 115.3 14.28 123.21 12.6 134.13H10.08L14.49 100.32H88.41V102.42L36.75 204.27H59.01C67.55 204.27 74.34 201.47 79.38 195.87C84.56 190.27 88.13 181.17 90.09 168.57H92.61L87.36 207H5.46Z" fill="#6610F2"/>
<path d="M213.57 209.94C206.29 209.94 200.34 207.63 195.72 203.01C191.1 198.39 188.79 192.37 188.79 184.95V104.1H170.94V101.37C180.6 100.67 189.21 97.59 196.77 92.13C204.47 86.67 210.77 79.32 215.67 70.08H219.03V100.32H246.96L244.86 104.1H219.03V180.33C219.03 191.53 222.81 197.13 230.37 197.13C232.89 197.13 235.76 196.36 238.98 194.82C242.34 193.28 245.49 191.25 248.43 188.73V190.83C243.81 196.71 238.35 201.4 232.05 204.9C225.75 208.26 219.59 209.94 213.57 209.94Z" fill="#0C0C0D"/>
<path d="M211.57 207.94C204.29 207.94 198.34 205.63 193.72 201.01C189.1 196.39 186.79 190.37 186.79 182.95V102.1H168.94V99.37C178.6 98.67 187.21 95.59 194.77 90.13C202.47 84.67 208.77 77.32 213.67 68.08H217.03V98.32H244.96L242.86 102.1H217.03V178.33C217.03 189.53 220.81 195.13 228.37 195.13C230.89 195.13 233.76 194.36 236.98 192.82C240.34 191.28 243.49 189.25 246.43 186.73V188.83C241.81 194.71 236.35 199.4 230.05 202.9C223.75 206.26 217.59 207.94 211.57 207.94Z" fill="#6610F2"/>
<path d="M400.21 214.98L400 185.16C396.64 192.44 391.6 198.46 384.88 203.22C378.16 207.84 370.95 210.15 363.25 210.15C355.69 210.15 348.9 207.77 342.88 203.01C336.86 198.25 332.1 191.74 328.6 183.48C325.1 175.08 323.35 165.63 323.35 155.13C323.35 143.37 325.52 133.15 329.86 124.47C334.34 115.79 340.5 109.14 348.34 104.52C356.18 99.76 365.21 97.38 375.43 97.38C381.17 97.38 385.86 98.29 389.5 100.11C393.14 101.79 396.43 104.73 399.37 108.93V68.4C399.37 63.36 397.76 59.3 394.54 56.22C391.46 53.14 387.4 51.6 382.36 51.6V49.5H403.78C410.78 49.5 416.1 48.8 419.74 47.4C423.38 46 425.97 44.04 427.51 41.52H429.61V188.1C429.61 193.14 431.15 197.2 434.23 200.28C437.31 203.36 441.44 204.9 446.62 204.9V207H425.2C419.04 207 414.14 207.63 410.5 208.89C407 210.15 404.27 212.18 402.31 214.98H400.21ZM374.8 201.75C378.02 201.75 381.24 200.77 384.46 198.81C387.82 196.71 390.83 193.98 393.49 190.62C396.15 187.26 398.11 183.69 399.37 179.91V128.67C398.67 120.27 396.57 113.55 393.07 108.51C389.71 103.47 385.3 100.95 379.84 100.95C372.56 100.95 366.89 105.57 362.83 114.81C358.91 124.05 356.95 137.7 356.95 155.76C356.95 186.42 362.9 201.75 374.8 201.75Z" fill="#0C0C0D"/>
<path d="M398.21 212.98L398 183.16C394.64 190.44 389.6 196.46 382.88 201.22C376.16 205.84 368.95 208.15 361.25 208.15C353.69 208.15 346.9 205.77 340.88 201.01C334.86 196.25 330.1 189.74 326.6 181.48C323.1 173.08 321.35 163.63 321.35 153.13C321.35 141.37 323.52 131.15 327.86 122.47C332.34 113.79 338.5 107.14 346.34 102.52C354.18 97.76 363.21 95.38 373.43 95.38C379.17 95.38 383.86 96.29 387.5 98.11C391.14 99.79 394.43 102.73 397.37 106.93V66.4C397.37 61.36 395.76 57.3 392.54 54.22C389.46 51.14 385.4 49.6 380.36 49.6V47.5H401.78C408.78 47.5 414.1 46.8 417.74 45.4C421.38 44 423.97 42.04 425.51 39.52H427.61V186.1C427.61 191.14 429.15 195.2 432.23 198.28C435.31 201.36 439.44 202.9 444.62 202.9V205H423.2C417.04 205 412.14 205.63 408.5 206.89C405 208.15 402.27 210.18 400.31 212.98H398.21ZM372.8 199.75C376.02 199.75 379.24 198.77 382.46 196.81C385.82 194.71 388.83 191.98 391.49 188.62C394.15 185.26 396.11 181.69 397.37 177.91V126.67C396.67 118.27 394.57 111.55 391.07 106.51C387.71 101.47 383.3 98.95 377.84 98.95C370.56 98.95 364.89 103.57 360.83 112.81C356.91 122.05 354.95 135.7 354.95 153.76C354.95 184.42 360.9 199.75 372.8 199.75Z" fill="#6610F2"/>
<path d="M556.09 210.36L514.3 113.76C512.9 110.54 511.01 107.88 508.63 105.78C506.39 103.68 503.24 102.56 499.18 102.42V100.32H557.98V102.42C553.08 102.98 549.86 105.15 548.32 108.93C546.92 112.71 547.41 117.47 549.79 123.21L571.42 173.82L592.84 124.47C594.24 121.25 594.94 118.1 594.94 115.02C594.94 111.52 593.89 108.65 591.79 106.41C589.69 104.17 586.75 102.84 582.97 102.42V100.32H616.15V102.42C612.51 103.26 609.01 105.36 605.65 108.72C602.29 112.08 599.28 116.7 596.62 122.58L557.98 210.36H556.09Z" fill="#0C0C0D"/>
<path d="M554.09 208.36L512.3 111.76C510.9 108.54 509.01 105.88 506.63 103.78C504.39 101.68 501.24 100.56 497.18 100.42V98.32H555.98V100.42C551.08 100.98 547.86 103.15 546.32 106.93C544.92 110.71 545.41 115.47 547.79 121.21L569.42 171.82L590.84 122.47C592.24 119.25 592.94 116.1 592.94 113.02C592.94 109.52 591.89 106.65 589.79 104.41C587.69 102.17 584.75 100.84 580.97 100.42V98.32H614.15V100.42C610.51 101.26 607.01 103.36 603.65 106.72C600.29 110.08 597.28 114.7 594.62 120.58L555.98 208.36H554.09Z" fill="#6610F2"/>
<path d="M681.66 209.94V68.4C681.66 63.36 680.05 59.3 676.83 56.22C673.75 53.14 669.69 51.6 664.65 51.6V49.5H686.07C694.33 49.5 700 48.73 703.08 47.19C706.16 45.65 708.4 43.76 709.8 41.52H711.9V117.96C715.12 111.66 719.6 106.62 725.34 102.84C731.22 99.06 737.66 97.17 744.66 97.17C752.92 97.17 760.27 99.62 766.71 104.52C773.15 109.42 778.19 116.07 781.83 124.47C785.61 132.87 787.5 142.46 787.5 153.24C787.5 164.44 785.4 174.31 781.2 182.85C777.14 191.39 771.4 198.04 763.98 202.8C756.56 207.56 747.88 209.94 737.94 209.94C721.28 209.94 710.08 203.01 704.34 189.15L683.76 209.94H681.66ZM731.85 206.37C739.27 206.37 744.87 201.75 748.65 192.51C752.43 183.27 754.32 169.69 754.32 151.77C754.32 136.09 752.85 124.47 749.91 116.91C746.97 109.35 742.35 105.57 736.05 105.57C730.45 105.57 725.48 107.6 721.14 111.66C716.94 115.72 713.86 120.27 711.9 125.31V178.02C712.46 186.7 714.49 193.63 717.99 198.81C721.49 203.85 726.11 206.37 731.85 206.37Z" fill="#0C0C0D"/>
<path d="M679.66 207.94V66.4C679.66 61.36 678.05 57.3 674.83 54.22C671.75 51.14 667.69 49.6 662.65 49.6V47.5H684.07C692.33 47.5 698 46.73 701.08 45.19C704.16 43.65 706.4 41.76 707.8 39.52H709.9V115.96C713.12 109.66 717.6 104.62 723.34 100.84C729.22 97.06 735.66 95.17 742.66 95.17C750.92 95.17 758.27 97.62 764.71 102.52C771.15 107.42 776.19 114.07 779.83 122.47C783.61 130.87 785.5 140.46 785.5 151.24C785.5 162.44 783.4 172.31 779.2 180.85C775.14 189.39 769.4 196.04 761.98 200.8C754.56 205.56 745.88 207.94 735.94 207.94C719.28 207.94 708.08 201.01 702.34 187.15L681.76 207.94H679.66ZM729.85 204.37C737.27 204.37 742.87 199.75 746.65 190.51C750.43 181.27 752.32 167.69 752.32 149.77C752.32 134.09 750.85 122.47 747.91 114.91C744.97 107.35 740.35 103.57 734.05 103.57C728.45 103.57 723.48 105.6 719.14 109.66C714.94 113.72 711.86 118.27 709.9 123.31V176.02C710.46 184.7 712.49 191.63 715.99 196.81C719.49 201.85 724.11 204.37 729.85 204.37Z" fill="#6610F2"/>
<path d="M859 207V204.9C863.9 204.9 867.54 203.92 869.92 201.96C872.44 199.86 874.05 197.2 874.75 193.98C875.59 190.76 876.01 187.26 876.01 183.48V68.4C876.01 63.36 874.4 59.3 871.18 56.22C868.1 53.14 864.04 51.6 859 51.6V49.5H880.42C887.56 49.5 893.02 48.73 896.8 47.19C900.3 45.65 902.75 43.76 904.15 41.52H906.25V121.32C910.03 113.9 915.56 108.09 922.84 103.89C930.12 99.55 937.89 97.38 946.15 97.38C952.73 97.38 958.33 98.92 962.95 102C967.57 104.94 971.07 108.93 973.45 113.97C975.97 119.01 977.23 124.68 977.23 130.98V188.1C977.23 193.28 978.77 197.41 981.85 200.49C985.07 203.43 989.2 204.9 994.24 204.9V207H930.19V204.9C935.23 204.9 939.29 203.43 942.37 200.49C945.59 197.41 947.2 193.28 947.2 188.1V128.88C947.2 125.8 946.78 122.51 945.94 119.01C945.1 115.37 943.56 112.29 941.32 109.77C939.22 107.11 936.21 105.78 932.29 105.78C928.65 105.78 925.15 106.9 921.79 109.14C918.57 111.24 915.63 113.9 912.97 117.12C910.31 120.34 908.07 123.56 906.25 126.78V183.48C906.25 187.26 906.6 190.76 907.3 193.98C908.14 197.2 909.75 199.86 912.13 201.96C914.65 203.92 918.36 204.9 923.26 204.9V207H859Z" fill="#0C0C0D"/>
<path d="M857 205V202.9C861.9 202.9 865.54 201.92 867.92 199.96C870.44 197.86 872.05 195.2 872.75 191.98C873.59 188.76 874.01 185.26 874.01 181.48V66.4C874.01 61.36 872.4 57.3 869.18 54.22C866.1 51.14 862.04 49.6 857 49.6V47.5H878.42C885.56 47.5 891.02 46.73 894.8 45.19C898.3 43.65 900.75 41.76 902.15 39.52H904.25V119.32C908.03 111.9 913.56 106.09 920.84 101.89C928.12 97.55 935.89 95.38 944.15 95.38C950.73 95.38 956.33 96.92 960.95 100C965.57 102.94 969.07 106.93 971.45 111.97C973.97 117.01 975.23 122.68 975.23 128.98V186.1C975.23 191.28 976.77 195.41 979.85 198.49C983.07 201.43 987.2 202.9 992.24 202.9V205H928.19V202.9C933.23 202.9 937.29 201.43 940.37 198.49C943.59 195.41 945.2 191.28 945.2 186.1V126.88C945.2 123.8 944.78 120.51 943.94 117.01C943.1 113.37 941.56 110.29 939.32 107.77C937.22 105.11 934.21 103.78 930.29 103.78C926.65 103.78 923.15 104.9 919.79 107.14C916.57 109.24 913.63 111.9 910.97 115.12C908.31 118.34 906.07 121.56 904.25 124.78V181.48C904.25 185.26 904.6 188.76 905.3 191.98C906.14 195.2 907.75 197.86 910.13 199.96C912.65 201.92 916.36 202.9 921.26 202.9V205H857Z" fill="#6610F2"/>
</svg>
