<svg width="104" height="254" viewBox="0 0 104 254" fill="none" xmlns="http://www.w3.org/2000/svg">
<path d="M7.46 207V204.9L58.7 102.84H44C36.02 102.84 29.51 105.36 24.47 110.4C19.57 115.3 16.28 123.21 14.6 134.13H12.08L16.49 100.32H90.41V102.42L38.75 204.27H61.01C69.55 204.27 76.34 201.47 81.38 195.87C86.56 190.27 90.13 181.17 92.09 168.57H94.61L89.36 207H7.46Z" fill="#0C0C0D"/>
<path d="M5.46 205V202.9L56.7 100.84H42C34.02 100.84 27.51 103.36 22.47 108.4C17.57 113.3 14.28 121.21 12.6 132.13H10.08L14.49 98.32H88.41V100.42L36.75 202.27H59.01C67.55 202.27 74.34 199.47 79.38 193.87C84.56 188.27 88.13 179.17 90.09 166.57H92.61L87.36 205H5.46Z" fill="#6610F2"/>
</svg>
