<svg width="86" height="254" viewBox="0 0 86 254" fill="none" xmlns="http://www.w3.org/2000/svg">
<path d="M47.57 209.94C40.29 209.94 34.34 207.63 29.72 203.01C25.1 198.39 22.79 192.37 22.79 184.95V104.1H4.94V101.37C14.6 100.67 23.21 97.59 30.77 92.13C38.47 86.67 44.77 79.32 49.67 70.08H53.03V100.32H80.96L78.86 104.1H53.03L53.03 180.33C53.03 191.53 56.81 197.13 64.37 197.13C66.89 197.13 69.76 196.36 72.98 194.82C76.34 193.28 79.49 191.25 82.43 188.73V190.83C77.81 196.71 72.35 201.4 66.05 204.9C59.75 208.26 53.59 209.94 47.57 209.94Z" fill="#0C0C0D"/>
<path d="M45.57 207.94C38.29 207.94 32.34 205.63 27.72 201.01C23.1 196.39 20.79 190.37 20.79 182.95V102.1H2.94V99.37C12.6 98.67 21.21 95.59 28.77 90.13C36.47 84.67 42.77 77.32 47.67 68.08H51.03V98.32H78.96L76.86 102.1H51.03L51.03 178.33C51.03 189.53 54.81 195.13 62.37 195.13C64.89 195.13 67.76 194.36 70.98 192.82C74.34 191.28 77.49 189.25 80.43 186.73V188.83C75.81 194.71 70.35 199.4 64.05 202.9C57.75 206.26 51.59 207.94 45.57 207.94Z" fill="#6610F2"/>
</svg>

