<svg width="120" height="254" viewBox="0 0 120 254" fill="none" xmlns="http://www.w3.org/2000/svg">
<path d="M59.09 210.36L17.3 113.76C15.9 110.54 14.01 107.88 11.63 105.78C9.39 103.68 6.24 102.56 2.18 102.42V100.32H60.98V102.42C56.08 102.98 52.86 105.15 51.32 108.93C49.92 112.71 50.41 117.47 52.79 123.21L74.42 173.82L95.84 124.47C97.24 121.25 97.94 118.1 97.94 115.02C97.94 111.52 96.89 108.65 94.79 106.41C92.69 104.17 89.75 102.84 85.97 102.42V100.32H119.15V102.42C115.51 103.26 112.01 105.36 108.65 108.72C105.29 112.08 102.28 116.7 99.62 122.58L60.98 210.36H59.09Z" fill="#0C0C0D"/>
<path d="M57.09 208.36L15.3 111.76C13.9 108.54 12.01 105.88 9.63 103.78C7.39 101.68 4.24 100.56 0.179999 100.42V98.32H58.98V100.42C54.08 100.98 50.86 103.15 49.32 106.93C47.92 110.71 48.41 115.47 50.79 121.21L72.42 171.82L93.84 122.47C95.24 119.25 95.94 116.1 95.94 113.02C95.94 109.52 94.89 106.65 92.79 104.41C90.69 102.17 87.75 100.84 83.97 100.42V98.32H117.15V100.42C113.51 101.26 110.01 103.36 106.65 106.72C103.29 110.08 100.28 114.7 97.62 120.58L58.98 208.36H57.09Z" fill="#6610F2"/>
</svg>
