<svg width="133" height="254" viewBox="0 0 133 254" fill="none" xmlns="http://www.w3.org/2000/svg">
<path d="M19.66 209.94L19.66 68.4C19.66 63.36 18.05 59.3 14.83 56.22C11.75 53.14 7.69 51.6 2.65 51.6L2.65 49.5H24.07C32.33 49.5 38 48.73 41.08 47.19C44.16 45.65 46.4 43.76 47.8 41.52H49.9V117.96C53.12 111.66 57.6 106.62 63.34 102.84C69.22 99.06 75.66 97.17 82.66 97.17C90.92 97.17 98.27 99.62 104.71 104.52C111.15 109.42 116.19 116.07 119.83 124.47C123.61 132.87 125.5 142.46 125.5 153.24C125.5 164.44 123.4 174.31 119.2 182.85C115.14 191.39 109.4 198.04 101.98 202.8C94.56 207.56 85.88 209.94 75.94 209.94C59.28 209.94 48.08 203.01 42.34 189.15L21.76 209.94H19.66ZM69.85 206.37C77.27 206.37 82.87 201.75 86.65 192.51C90.43 183.27 92.32 169.69 92.32 151.77C92.32 136.09 90.85 124.47 87.91 116.91C84.97 109.35 80.35 105.57 74.05 105.57C68.45 105.57 63.48 107.6 59.14 111.66C54.94 115.72 51.86 120.27 49.9 125.31L49.9 178.02C50.46 186.7 52.49 193.63 55.99 198.81C59.49 203.85 64.11 206.37 69.85 206.37Z" fill="#0C0C0D"/>
<path d="M17.66 207.94L17.66 66.4C17.66 61.36 16.05 57.3 12.83 54.22C9.75 51.14 5.69 49.6 0.65 49.6L0.65 47.5H22.07C30.33 47.5 36 46.73 39.08 45.19C42.16 43.65 44.4 41.76 45.8 39.52H47.9V115.96C51.12 109.66 55.6 104.62 61.34 100.84C67.22 97.06 73.66 95.17 80.66 95.17C88.92 95.17 96.27 97.62 102.71 102.52C109.15 107.42 114.19 114.07 117.83 122.47C121.61 130.87 123.5 140.46 123.5 151.24C123.5 162.44 121.4 172.31 117.2 180.85C113.14 189.39 107.4 196.04 99.98 200.8C92.56 205.56 83.88 207.94 73.94 207.94C57.28 207.94 46.08 201.01 40.34 187.15L19.76 207.94H17.66ZM67.85 204.37C75.27 204.37 80.87 199.75 84.65 190.51C88.43 181.27 90.32 167.69 90.32 149.77C90.32 134.09 88.85 122.47 85.91 114.91C82.97 107.35 78.35 103.57 72.05 103.57C66.45 103.57 61.48 105.6 57.14 109.66C52.94 113.72 49.86 118.27 47.9 123.31L47.9 176.02C48.46 184.7 50.49 191.63 53.99 196.81C57.49 201.85 62.11 204.37 67.85 204.37Z" fill="#6610F2"/>
</svg>
