<svg width="981" height="537" viewBox="0 0 981 537" fill="none" xmlns="http://www.w3.org/2000/svg">
<g clip-path="url(#clip0_2068_269)">
<path d="M143.919 482.62C140.337 479.546 136.995 476.203 133.928 472.614C130.867 469.032 128.072 465.237 125.27 461.448C125.028 461.12 124.788 460.798 124.547 460.47C126.057 458.135 127.514 455.769 128.881 453.353C130.924 449.738 132.718 445.982 134.012 442.03C134.254 441.288 133.522 440.564 132.786 440.891C127.071 443.438 121.316 445.901 115.524 448.275L107.455 437.369L97.3673 423.731C96.8462 423.027 95.5748 423.596 95.7855 424.461C98.2079 434.389 98.9375 444.517 99.2147 454.681C97.1477 455.458 95.0784 456.222 93.0078 456.978C89.2282 458.351 85.4374 459.682 81.6324 460.982C80.9041 461.23 80.9814 462.433 81.6924 462.646C87.679 464.432 93.5987 466.437 99.4374 468.654C99.4792 471.879 99.5329 475.098 99.6379 478.313C99.8044 483.33 100.095 488.339 100.659 493.328C100.747 494.105 101.863 494.332 102.285 493.703L114.77 475.06C119.383 477.169 123.936 479.408 128.414 481.79C130.449 482.875 132.437 484.072 134.501 485.095C136.399 486.034 138.434 486.583 140.488 485.834C140.908 485.681 141.169 485.022 140.926 484.635C138.043 480.054 134.631 475.857 130.693 472.134C130.507 471.957 130.261 471.882 130.014 471.88C127.63 469.517 125.149 467.253 122.578 465.09L122.49 465.006C122.423 464.939 122.353 464.886 122.281 464.842C122.15 464.734 122.019 464.622 121.888 464.514C122.428 463.71 122.964 462.902 123.496 462.093C126.221 465.779 128.934 469.475 131.876 472.99C135.225 476.994 138.909 480.7 142.87 484.1C143.754 484.855 144.795 483.381 143.916 482.63L143.919 482.62ZM111.471 462.013C111.416 462.251 111.366 462.494 111.311 462.732C110.748 462.624 110.189 462.515 109.625 462.406C109.262 462.329 108.898 462.252 108.534 462.171C108.765 461.976 108.972 461.768 109.153 461.556C110.113 461.502 111.074 461.426 112.031 461.33C111.764 461.44 111.543 461.668 111.467 462.014L111.471 462.013ZM122.249 471.736C120.907 471.114 119.548 470.525 118.176 469.982C118.242 469.884 118.312 469.786 118.377 469.688C119.118 470 119.848 470.327 120.575 470.663C121.13 471.029 121.688 471.384 122.25 471.74L122.249 471.736ZM105.965 452.089C105.914 451.89 105.862 451.687 105.807 451.489C105.956 451.55 106.117 451.579 106.272 451.575C106.332 451.677 106.398 451.787 106.464 451.897C106.298 451.964 106.132 452.027 105.965 452.094L105.965 452.089ZM105.494 454.276C105.49 454.251 105.49 454.229 105.49 454.203C105.9 454.043 106.307 453.888 106.717 453.728C106.425 453.868 106.133 454.012 105.842 454.157C105.727 454.198 105.613 454.239 105.498 454.275L105.494 454.276ZM106.564 456.108C106.421 456.132 106.274 456.156 106.132 456.189L106.778 455.885C107.054 455.804 107.327 455.728 107.603 455.647C107.257 455.805 106.911 455.958 106.564 456.108ZM112.923 465.645C112.8 465.605 112.677 465.57 112.553 465.53C112.603 465.336 112.652 465.141 112.697 464.947C112.754 465.029 112.828 465.107 112.922 465.178C112.967 465.214 113.016 465.248 113.061 465.284C113.017 465.404 112.972 465.524 112.923 465.645ZM110.923 464.511L110.813 465.01C110.317 464.868 109.822 464.727 109.323 464.59C108.57 464.311 107.821 464.026 107.072 463.737C107.81 463.881 108.547 464.02 109.281 464.165C109.824 464.281 110.372 464.396 110.918 464.507L110.923 464.511ZM104.317 476.987C104.396 477.047 104.486 477.093 104.581 477.12C104.465 477.352 104.352 477.583 104.24 477.818C104.257 477.581 104.273 477.345 104.298 477.107C104.301 477.072 104.307 477.032 104.317 476.991L104.317 476.987ZM107.734 472.772C107.671 472.783 107.604 472.798 107.54 472.827C107.498 472.76 107.452 472.69 107.41 472.623C107.514 472.675 107.622 472.726 107.73 472.773L107.734 472.772ZM115.196 468.857C115.166 468.837 115.137 468.816 115.111 468.794C115.594 468.911 116.081 469.028 116.564 469.146C116.525 469.2 116.492 469.258 116.453 469.312C116.038 469.157 115.619 469.007 115.2 468.857L115.196 468.857ZM113.73 463.194C113.525 463.155 113.314 463.113 113.108 463.074C113.167 462.778 113.222 462.488 113.276 462.193C113.348 461.774 113.166 461.489 112.891 461.349C113.017 461.328 113.144 461.281 113.275 461.189C113.585 461.15 113.89 461.112 114.198 461.069C114.077 461.786 113.92 462.496 113.735 463.198L113.73 463.194ZM113.758 458.097C113.67 458.189 113.586 458.281 113.497 458.37C112.933 458.288 112.37 458.209 111.806 458.144C112.128 457.978 112.455 457.81 112.776 457.639C113.098 457.801 113.426 457.953 113.762 458.096L113.758 458.097ZM103.979 470.415C104.001 470.546 104.054 470.68 104.135 470.804C104.311 471.078 104.483 471.352 104.659 471.625C104.322 471.422 103.981 471.224 103.644 471.021C103.6 470.808 103.555 470.595 103.501 470.379C103.486 470.313 103.457 470.248 103.43 470.188C103.615 470.26 103.797 470.338 103.982 470.41L103.979 470.415ZM115.731 464.665C115.825 464.325 115.739 463.92 115.458 463.664C115.709 462.713 115.905 461.75 116.048 460.774L116.25 460.74C116.144 462.19 116.27 463.657 116.635 465.08C116.642 465.118 116.657 465.154 116.671 465.19C116.36 465.014 116.046 464.842 115.731 464.665ZM110.645 448.514C110.225 447.637 109.777 446.778 109.293 445.938C109.788 446.356 110.297 446.76 110.821 447.143C111.628 447.825 112.436 448.51 113.243 449.192C112.773 449.384 112.299 449.572 111.829 449.759C111.438 449.341 111.047 448.922 110.644 448.51L110.645 448.514ZM118.904 465.649C118.773 465.849 118.637 466.045 118.506 466.244L117.749 465.805C117.941 465.764 118.121 465.651 118.265 465.454C118.307 465.395 118.349 465.336 118.387 465.278C118.495 465.355 118.616 465.404 118.745 465.425C118.796 465.499 118.852 465.576 118.904 465.649ZM112.945 455.486C112.908 455.466 112.87 455.447 112.832 455.432C113.128 455.209 113.419 454.982 113.714 454.759C113.764 454.824 113.819 454.893 113.869 454.958C113.561 455.136 113.254 455.313 112.945 455.486ZM115.425 454.025C115.331 453.903 115.237 453.784 115.143 453.662C115.596 453.317 116.052 452.968 116.504 452.623C116.622 452.785 116.745 452.946 116.863 453.108C116.387 453.421 115.908 453.728 115.426 454.029L115.425 454.025ZM104.967 437.525C104.88 437.236 104.792 436.948 104.701 436.661C105.166 437.292 105.636 437.927 106.102 438.558C105.731 438.205 105.349 437.863 104.967 437.52L104.967 437.525ZM102.399 434.228C102.358 434.083 102.315 433.935 102.278 433.79C101.968 432.695 100.223 432.942 100.498 434.09C100.711 434.993 100.907 435.899 101.077 436.804C101.004 436.882 100.945 436.97 100.901 437.068C100.784 437.118 100.68 437.196 100.603 437.304L100.53 437.022C100.415 436.596 100.104 436.371 99.7709 436.319C99.4312 433.612 99.0067 430.914 98.4693 428.24C99.8877 430.16 101.305 432.076 102.724 433.996C102.599 434.051 102.488 434.135 102.401 434.236L102.399 434.228ZM101.438 467.101C101.437 467.222 101.435 467.339 101.43 467.462L101.222 467.38C101.218 467.255 101.219 467.134 101.215 467.009C101.29 467.04 101.364 467.07 101.434 467.102L101.438 467.101ZM108.938 475.702C109.306 475.22 109.675 474.738 110.044 474.261C109.647 475.136 109.198 475.988 108.7 476.811C108.799 476.448 108.875 476.076 108.938 475.706L108.938 475.702ZM131.617 443.377C131.184 444.532 130.713 445.667 130.205 446.782C130.295 446.114 129.518 445.713 128.952 445.921C128.659 445.875 128.328 445.969 128.069 446.255C127.731 446.637 127.402 447.021 127.075 447.414C126.866 447.588 126.657 447.757 126.452 447.93C126.253 447.721 125.958 447.594 125.678 447.598C125.368 446.992 124.36 446.838 124.026 447.655C123.864 448.055 123.697 448.451 123.526 448.847C123.408 448.763 123.273 448.708 123.129 448.698C122.911 447.969 121.706 448.038 121.431 448.738L120.83 450.258C120.019 450.888 119.193 451.503 118.353 452.091L117.933 451.525L120.991 449.184C121.447 448.834 121.382 448.27 121.076 447.915C121.545 447.719 122.018 447.522 122.486 447.322C125.54 446.033 128.58 444.716 131.612 443.374L131.617 443.377ZM100.958 452.626C101.16 452.722 101.403 452.75 101.629 452.704L101.674 453.739C101.45 453.824 101.226 453.909 100.999 453.995C100.987 453.539 100.97 453.083 100.958 452.626ZM95.4833 465.245C91.9927 463.995 88.477 462.826 84.9348 461.732C86.1412 461.316 87.3462 460.892 88.5504 460.464C88.5477 460.525 88.545 460.586 88.5508 460.646C88.452 461.113 88.6711 461.617 89.2793 461.657C89.2351 462.01 89.3915 462.373 89.8485 462.543C90.1531 462.656 90.457 462.765 90.761 462.874C90.8876 463.06 91.0814 463.209 91.3467 463.268C91.8014 463.373 92.254 463.466 92.7129 463.544C93.8766 463.928 95.0452 464.289 96.2228 464.627C97.269 465.186 98.332 465.717 99.411 466.214C99.412 466.374 99.413 466.534 99.4183 466.693C98.1106 466.2 96.8001 465.715 95.4875 465.244L95.4833 465.245ZM101.396 469.393C101.393 469.605 101.39 469.818 101.386 470.026C101.382 470.282 101.479 470.499 101.629 470.669C101.504 471.084 101.389 471.505 101.287 471.925C101.271 471.062 101.26 470.199 101.248 469.331C101.298 469.349 101.349 469.37 101.4 469.388L101.396 469.393ZM108.593 481.022C106.46 484.207 104.323 487.392 102.191 490.582C102.066 489.274 101.957 487.964 101.867 486.656C102.077 486.568 102.258 486.408 102.352 486.171C102.38 486.106 102.399 486.042 102.427 485.977C102.71 486.037 103.03 485.983 103.232 485.798C103.818 485.271 104.366 484.698 104.871 484.098C104.943 484.038 105.014 483.974 105.082 483.911C105.198 483.857 105.304 483.765 105.398 483.629C108.375 480.937 110.674 477.581 112.145 473.863C112.467 474.003 112.786 474.149 113.109 474.293C111.601 476.538 110.096 478.778 108.593 481.022ZM129.052 480.082C125.463 478.174 121.829 476.353 118.153 474.62C117.913 474.505 117.67 474.398 117.43 474.283C117.911 474.185 118.276 473.729 118.226 473.283C118.388 473.347 118.555 473.41 118.717 473.473C124.075 476.912 129.807 479.732 135.802 481.877C136.183 482.012 136.522 481.89 136.746 481.653C137.407 482.546 138.041 483.456 138.651 484.383C137.127 484.453 135.579 483.637 134.283 482.93C132.539 481.978 130.804 481.007 129.05 480.073L129.052 480.082ZM120.449 463.32L120.194 463.117C120.257 462.743 120.306 462.367 120.337 461.989C120.419 461.828 120.499 461.663 120.575 461.499C121.129 461.116 121.658 460.711 122.174 460.282C122.225 460.351 122.275 460.421 122.325 460.486C122.249 460.598 122.178 460.714 122.102 460.826C121.554 461.659 120.997 462.488 120.445 463.317L120.449 463.32Z" fill="#6610F2"/>
<path d="M82.5332 422.593C80.7972 421.736 78.9855 421.042 77.1212 420.52L69.5278 416.98C68.4713 416.487 67.8396 418.182 68.8864 418.667C69.9809 419.18 71.0747 419.687 72.1692 420.2C72.0471 420.168 71.925 420.137 71.8071 420.105C70.9011 419.864 70.0021 421.127 70.9655 421.683C72.865 422.787 74.7686 423.889 76.6674 424.988C77.6652 425.569 78.7202 424.101 77.7133 423.518C77.6746 423.494 77.6367 423.475 77.5981 423.451C77.984 423.533 78.3798 423.596 78.772 423.638C79.8856 423.879 80.9985 424.115 82.117 424.333C83.1955 424.545 83.3778 423.009 82.5283 422.59L82.5332 422.593ZM68.8464 435.471C62.8972 434.908 56.943 434.341 50.9937 433.778C49.8369 433.666 49.6516 435.467 50.8077 435.574C53.6392 435.841 56.4714 436.112 59.3029 436.379C59.3535 436.756 59.6087 437.089 60.0773 437.097L66.2509 437.22C66.4796 437.268 66.7049 437.321 66.9308 437.378C67.2291 437.453 67.4913 437.391 67.6966 437.249L68.6604 437.268C69.8066 437.291 70.0159 435.581 68.8464 435.471ZM76.4212 478.449C76.1818 478.338 75.8956 478.335 75.6126 478.504C75.694 478.139 75.7613 477.769 75.8153 477.396C75.9752 476.24 74.1757 476.063 74.0186 477.21C73.8739 478.251 73.5974 479.254 73.2028 480.199C72.1822 480.92 71.2108 481.709 70.2949 482.559C70.1226 482.692 69.9461 482.825 69.7738 482.958C69.6204 483.075 69.5266 483.212 69.4764 483.35C69.2397 483.589 69.008 483.831 68.777 484.078C68.7259 484.134 68.6706 484.191 68.6195 484.247C68.1407 484.769 68.5185 485.368 69.0534 485.563C68.751 486.285 69.7038 487.189 70.4911 486.597C72.9996 484.712 75.1943 482.442 76.9942 479.872C77.374 479.327 76.9896 478.561 76.4156 478.442L76.4212 478.449ZM83.4451 496.961C83.2903 497.095 83.1349 497.226 82.9801 497.36C83.1312 497.127 83.283 496.898 83.4382 496.664C83.9796 495.846 82.8966 494.708 82.1257 495.449C81.4626 496.084 80.7897 496.712 80.1119 497.337C80.3446 496.87 80.5717 496.394 80.7896 495.916C81.2681 494.853 79.5736 494.222 79.1021 495.275C78.1368 497.428 76.9559 499.457 75.5833 501.376C74.9921 502.207 76.1087 503.261 76.8958 502.591C77.267 502.278 77.6326 501.956 77.9988 501.639L77.9848 501.659C77.4337 502.496 78.4962 503.563 79.2974 502.874L81.4193 501.063C80.5825 502.567 79.6215 504.001 78.5305 505.357C77.8006 506.264 79.2748 507.309 80.0005 506.403C82.0473 503.861 83.6885 501.017 84.866 497.972C85.192 497.134 84.1286 496.37 83.4402 496.958L83.4451 496.961ZM162.201 480.702C161.866 480.49 161.534 480.287 161.196 480.08C161.181 479.736 161.006 479.389 160.661 479.218C160.061 478.921 159.066 478.483 158.039 478.219C157.036 477.657 156.022 477.11 154.995 476.586C154.872 476.525 154.754 476.493 154.65 476.489C154.3 476.24 153.96 475.991 153.617 475.728C152.689 475.024 151.644 476.498 152.571 477.198C153.271 477.729 153.984 478.236 154.714 478.719C154.685 478.754 154.653 478.794 154.629 478.833C153.919 479.905 154.886 480.815 155.607 481.528C155.815 481.731 156.023 481.938 156.23 482.141C155.289 482.131 154.831 483.571 155.855 483.87C156.906 484.174 157.957 484.481 159.003 484.785C159.781 485.008 160.719 484.054 160.018 483.359L158.081 481.444C157.759 481.126 157.437 480.804 157.115 480.486C157.006 480.379 156.805 480.11 156.61 479.905C156.623 479.907 156.633 479.91 156.646 479.912C158.163 480.799 159.741 481.588 161.367 482.275C162.303 482.671 163.081 481.25 162.208 480.696L162.201 480.702ZM167.563 463.564C163.403 462.197 159.149 461.14 154.831 460.397C153.744 460.208 153.577 461.711 154.42 462.14C154.945 462.407 155.481 462.658 156.018 462.896C155.808 463.135 155.723 463.457 155.927 463.79C157.209 465.876 159.091 467.441 161.425 468.22C162.525 468.588 163.167 466.901 162.066 466.533C160.737 466.09 159.543 465.348 158.588 464.354C159.321 464.391 160.054 464.453 160.783 464.542C162.094 464.875 163.43 465.126 164.777 465.288C165.033 465.318 165.252 465.234 165.418 465.085C165.994 465.169 166.57 465.245 167.148 465.312C168.149 465.425 168.549 463.895 167.559 463.568L167.563 463.564ZM145.507 422.979C145.628 422.465 145.348 421.829 144.744 421.844C141.143 421.937 137.652 422.685 134.347 424.129C133.521 424.489 133.797 425.563 134.46 425.802C133.653 426.12 132.846 426.442 132.039 426.76C131.361 427.026 131.34 428.236 132.099 428.424C134.152 428.926 136.289 428.979 138.364 428.58C140.661 428.859 143.032 428.294 145.016 426.995C145.659 426.575 145.363 425.824 144.811 425.55C145.179 425.241 145.534 424.913 145.87 424.567C146.32 424.106 146.25 423.075 145.499 422.985L145.507 422.979ZM138.392 426.744C138.157 426.711 137.928 426.658 137.698 426.602C139.196 425.843 140.807 425.312 142.463 425.02C141.215 425.824 139.838 426.407 138.392 426.744ZM133.636 407.002C133.183 407.265 132.73 407.532 132.277 407.794C132.361 407.066 131.361 406.676 130.77 407.07C130.108 407.512 129.466 407.983 128.844 408.481C129.195 407.89 129.535 407.291 129.857 406.683C130.087 406.251 129.743 405.673 129.331 405.517C128.296 405.125 127.156 405.321 126.375 406.128C125.678 406.847 126.461 408 127.208 407.731C126.083 409.604 124.803 411.382 123.393 413.052C122.823 413.728 123.738 414.841 124.511 414.395L125.267 413.956C125.566 414.005 125.885 413.921 126.126 413.634C126.227 413.513 126.333 413.396 126.434 413.279C126.698 413.126 126.962 412.974 127.226 412.817C127.159 412.906 127.096 412.994 127.028 413.079C126.406 413.881 127.585 414.997 128.34 414.295C130.426 412.368 132.511 410.442 134.595 408.511C135.303 407.855 134.565 406.456 133.635 406.998L133.636 407.002Z" fill="#6610F2"/>
<path d="M139.537 439.926C139.906 439.34 139.466 438.272 138.65 438.513C131.344 440.654 123.989 442.712 116.673 444.871C114.33 441.424 111.983 437.973 109.637 434.53C106.464 429.873 103.282 425.222 100.098 420.575C99.6721 419.95 98.5168 420.309 98.5056 421.064C98.3642 430.953 98.2271 440.842 98.0857 450.731C96.0487 451.429 94.0151 452.148 91.9943 452.891C87.7332 454.462 83.5208 456.168 79.3907 458.054C78.6633 458.384 78.748 459.426 79.4507 459.718C85.5973 462.273 91.7327 464.865 97.8485 467.494L97.6943 478.359L97.4645 494.576C97.4508 495.496 98.5002 495.894 99.1 495.192C104.673 488.648 110.062 481.95 115.263 475.107C119.832 477.136 124.388 479.185 128.938 481.256C133.541 483.353 138.129 485.47 142.713 487.609C143.77 488.102 144.401 486.407 143.354 485.922C143.208 485.851 143.059 485.785 142.913 485.715C143.356 485.467 143.651 484.855 143.281 484.307C137.742 476.038 132.183 467.78 126.608 459.53C128.204 457.24 129.776 454.942 131.329 452.629C134.137 448.443 136.871 444.209 139.539 439.934L139.537 439.926ZM100.071 437.459C100.133 432.974 100.198 428.485 100.26 424C105.139 431.126 110.007 438.263 114.863 445.405C109.845 446.901 104.849 448.448 99.8901 450.115L100.067 437.459L100.071 437.459ZM115.967 447.024C118.787 451.178 121.604 455.337 124.417 459.497C121.255 464.015 118.008 468.474 114.683 472.877C109.688 470.661 104.68 468.473 99.6609 466.31L99.8635 452.036C105.192 450.251 110.572 448.617 115.963 447.029L115.967 447.024ZM94.0723 463.908C90.0723 462.202 86.0625 460.516 82.0458 458.839C87.2896 456.527 92.6419 454.5 98.0585 452.648C97.9999 456.946 97.9371 461.244 97.8786 465.542C96.61 464.999 95.345 464.45 94.073 463.912L94.0723 463.908ZM107.245 482.473C104.641 485.738 101.992 488.966 99.2984 492.16C99.409 484.192 99.5245 476.229 99.6351 468.262C104.287 470.268 108.931 472.302 113.564 474.351C111.485 477.081 109.379 479.785 107.24 482.47L107.245 482.473ZM132.468 471.423C135.545 475.993 138.613 480.564 141.678 485.14C133.279 481.23 124.846 477.393 116.381 473.629C119.489 469.505 122.532 465.332 125.502 461.105C127.825 464.543 130.149 467.981 132.464 471.424L132.468 471.423ZM117.781 446.493C120.403 445.722 123.022 444.96 125.641 444.194C129.355 443.105 133.067 442.021 136.782 440.931C133.155 446.674 129.402 452.339 125.528 457.921C122.951 454.111 120.37 450.301 117.785 446.492L117.781 446.493ZM82.6146 425.591C76.1905 423.135 69.5877 421.184 62.8645 419.726C61.7284 419.481 61.5557 421.279 62.6785 421.523C69.2487 422.946 75.6971 424.879 81.9732 427.278C83.0605 427.696 83.697 426.005 82.6139 425.587L82.6146 425.591ZM68.6308 436.04C64.0365 436.096 59.4414 436.148 54.8471 436.204C53.6982 436.216 53.5038 438.015 54.6611 438.001C59.2554 437.945 63.8504 437.893 68.4447 437.836C69.5937 437.824 69.7881 436.026 68.6308 436.04ZM78.6576 477.752C75.5212 481.402 72.1177 484.814 68.475 487.958C67.5989 488.716 68.7505 490.106 69.6343 489.342C73.3914 486.091 76.8948 482.567 80.1276 478.798C80.887 477.913 79.4092 476.873 78.6576 477.752ZM80.7214 497.693C79.2817 500.112 77.6524 502.407 75.8348 504.561C75.0845 505.45 76.563 506.494 77.3049 505.607C79.1183 503.454 80.7525 501.162 82.1915 498.739C82.781 497.744 81.3144 496.693 80.7214 497.693ZM161.729 481.444C159.508 480.234 157.292 479.024 155.073 477.819C154.063 477.271 153.008 478.734 154.027 479.289C156.247 480.499 158.463 481.709 160.683 482.914C161.692 483.462 162.748 481.999 161.729 481.444ZM164.972 464.701C160.867 464.221 156.766 463.74 152.661 463.255C151.504 463.121 151.323 464.917 152.475 465.052C156.58 465.532 160.68 466.013 164.786 466.498C165.942 466.632 166.124 464.836 164.972 464.701ZM146.134 419.901L128.271 426.482C127.183 426.882 127.948 428.518 129.036 428.119L146.899 421.537C147.987 421.137 147.222 419.501 146.134 419.901ZM132.196 406.133C130.207 408.965 127.978 411.604 125.508 414.024C124.684 414.833 125.832 416.228 126.667 415.407C129.244 412.879 131.589 410.134 133.666 407.179C134.336 406.227 132.866 405.181 132.196 406.133Z" fill="#0C0C0D"/>
</g>
<g clip-path="url(#clip1_2068_269)">
<path d="M107.127 197.884C105.647 192.919 104.549 187.847 103.851 182.712C103.153 177.588 102.828 172.425 102.493 167.263C102.464 166.817 102.434 166.376 102.406 165.931C105.187 164.672 107.938 163.354 110.634 161.937C114.668 159.813 118.555 157.413 122.097 154.534C122.762 153.993 122.516 152.89 121.642 152.754C114.854 151.71 108.079 150.565 101.323 149.315L100.354 134.455L99.1458 115.874C99.083 114.915 97.5715 114.685 97.2524 115.608C93.5899 126.211 88.2468 135.992 82.464 145.539C80.0945 145.028 77.7307 144.504 75.3705 143.971C71.0665 142.993 66.7766 141.97 62.4928 140.908C61.6731 140.705 61.0299 141.861 61.5593 142.48C66.024 147.685 70.2967 153.052 74.3684 158.568C72.491 161.569 70.6283 164.572 68.8155 167.601C65.9887 172.331 63.2812 177.127 60.838 182.067C60.4574 182.836 61.3522 183.709 62.1153 183.379L84.7145 173.589C87.7198 178.276 90.5917 183.048 93.3093 187.906C94.5429 190.117 95.6677 192.402 96.964 194.573C98.1577 196.567 99.7104 198.282 102.052 198.812C102.53 198.92 103.162 198.467 103.168 197.966C103.228 192.025 102.572 186.124 101.15 180.347C101.083 180.074 100.901 179.859 100.674 179.71C99.8767 176.113 98.9327 172.549 97.8442 169.026L97.8135 168.895C97.7907 168.794 97.7581 168.703 97.7175 168.62C97.6609 168.443 97.6062 168.261 97.5496 168.084C98.5259 167.662 99.5002 167.236 100.472 166.804C100.797 171.825 101.105 176.848 101.733 181.84C102.445 187.526 103.644 193.135 105.28 198.626C105.648 199.849 107.484 199.107 107.119 197.891L107.127 197.884ZM89.4211 159.587C89.2286 159.774 89.0386 159.968 88.8461 160.156C88.3904 159.721 87.9391 159.288 87.4834 158.853C87.1937 158.566 86.9041 158.279 86.6163 157.987C86.9453 157.945 87.2601 157.876 87.5529 157.788C88.471 158.308 89.4026 158.81 90.3435 159.289C90.0317 159.232 89.6923 159.311 89.4168 159.585L89.4211 159.587ZM93.5925 174.964C92.723 173.592 91.819 172.242 90.875 170.925C90.9937 170.874 91.1167 170.825 91.2354 170.774C91.7335 171.502 92.2132 172.238 92.6848 172.98C92.98 173.646 93.2832 174.306 93.5907 174.968L93.5925 174.964ZM90.2339 147.156C90.3052 146.942 90.3784 146.724 90.4454 146.508C90.5462 146.653 90.6772 146.776 90.823 146.864C90.8181 146.994 90.8138 147.135 90.8094 147.276C90.6164 147.239 90.4251 147.198 90.232 147.161L90.2339 147.156ZM88.5003 148.895C88.5114 148.869 88.5249 148.849 88.5403 148.825C89.0138 148.921 89.4812 149.02 89.9547 149.116C89.6017 149.071 89.2469 149.031 88.8921 148.991C88.7623 148.961 88.6326 148.931 88.5046 148.897L88.5003 148.895ZM88.4001 151.221C88.2538 151.158 88.1031 151.094 87.9531 151.04L88.7291 151.143C89.0323 151.232 89.3293 151.324 89.6325 151.413C89.2199 151.353 88.8091 151.289 88.4001 151.221ZM88.6033 163.802C88.5129 163.692 88.4206 163.586 88.3302 163.476C88.4914 163.326 88.6525 163.176 88.8093 163.024C88.8136 163.133 88.8351 163.249 88.88 163.37C88.9003 163.43 88.9249 163.491 88.9452 163.551C88.8327 163.635 88.7201 163.719 88.6033 163.802ZM87.4312 161.567L87.0327 161.962C86.6594 161.537 86.2861 161.112 85.9067 160.69C85.3784 159.984 84.8563 159.276 84.3361 158.564C84.932 159.136 85.5297 159.703 86.1213 160.272C86.5536 160.702 86.9902 161.134 87.4287 161.561L87.4312 161.567ZM73.9215 169.158C73.959 169.26 74.015 169.356 74.0869 169.437C73.8415 169.582 73.6005 169.728 73.3576 169.879C73.5132 169.671 73.6687 169.462 73.8329 169.257C73.8563 169.227 73.8858 169.193 73.9196 169.162L73.9215 169.158ZM79.5796 167.297C79.515 167.27 79.4443 167.244 79.368 167.232C79.3693 167.146 79.368 167.054 79.3693 166.968C79.4345 167.077 79.5039 167.188 79.5753 167.295L79.5796 167.297ZM88.7921 168.117C88.7774 168.08 88.7626 168.043 88.7522 168.008C89.1279 168.403 89.5079 168.801 89.8837 169.196C89.816 169.223 89.7509 169.256 89.6832 169.283C89.3917 168.894 89.0941 168.506 88.7964 168.119L88.7921 168.117ZM90.8042 162.019C90.6375 161.861 90.4684 161.697 90.3017 161.539C90.5311 161.301 90.7543 161.065 90.9794 160.825C91.2949 160.482 91.2961 160.11 91.1257 159.818C91.2549 159.873 91.3994 159.905 91.5753 159.899C91.884 160.046 92.1884 160.192 92.4989 160.335C91.9609 160.925 91.3939 161.487 90.8066 162.025L90.8042 162.019ZM93.8579 157.331C93.7214 157.364 93.5892 157.399 93.4545 157.428C92.9834 157.017 92.5105 156.611 92.0278 156.215C92.4245 156.253 92.8254 156.292 93.2239 156.325C93.4244 156.666 93.6371 157.002 93.8622 157.332L93.8579 157.331ZM77.5139 162.891C77.4567 163.025 77.426 163.18 77.4272 163.343C77.4272 163.7 77.4229 164.055 77.4229 164.411C77.2323 164.024 77.0355 163.639 76.8448 163.252C76.9303 163.028 77.0158 162.805 77.0945 162.574C77.1197 162.503 77.132 162.427 77.1425 162.355C77.2704 162.532 77.3921 162.712 77.52 162.889L77.5139 162.891ZM91.7764 164.566C92.0655 164.307 92.2272 163.882 92.1196 163.48C92.9159 162.751 93.6698 161.978 94.3813 161.162L94.5879 161.251C93.6286 162.526 92.8735 163.955 92.3656 165.485C92.349 165.524 92.341 165.567 92.333 165.609C92.1509 165.261 91.9628 164.915 91.7764 164.566ZM96.6779 146.637C96.8107 145.578 96.9078 144.519 96.9607 143.456C97.1686 144.136 97.3992 144.811 97.6544 145.476C97.9945 146.584 98.3327 147.697 98.6728 148.806C98.1255 148.704 97.5757 148.596 97.0303 148.489C96.9184 147.871 96.8064 147.252 96.6797 146.632L96.6779 146.637ZM94.1207 167.359C93.8814 167.465 93.6398 167.565 93.4006 167.672L92.9621 166.816C93.1638 166.892 93.3969 166.896 93.6471 166.799C93.7209 166.769 93.7947 166.74 93.8642 166.709C93.9183 166.844 94.0007 166.961 94.1071 167.057C94.1108 167.156 94.117 167.26 94.1207 167.359ZM94.6591 154.438C94.6358 154.398 94.6124 154.357 94.5872 154.321C94.9924 154.291 95.3952 154.255 95.8005 154.224C95.8079 154.314 95.8177 154.41 95.8251 154.5C95.4358 154.481 95.0466 154.462 94.6591 154.438ZM97.8157 154.563C97.8015 154.394 97.7855 154.229 97.7714 154.06C98.3937 154.011 99.0222 153.959 99.6445 153.91C99.6574 154.13 99.6747 154.351 99.6876 154.571C99.063 154.577 98.4384 154.576 97.8138 154.568L97.8157 154.563ZM97.966 133.121C98.0564 132.803 98.1468 132.485 98.2329 132.165C98.2876 133.024 98.3448 133.889 98.3996 134.748C98.2667 134.202 98.1173 133.659 97.9678 133.116L97.966 133.121ZM97.5545 128.552C97.6019 128.394 97.6511 128.232 97.7027 128.076C98.0667 126.881 96.3092 126.072 95.8818 127.295C95.5418 128.255 95.1845 129.208 94.8033 130.145C94.6895 130.173 94.5831 130.219 94.4841 130.283C94.3464 130.26 94.2043 130.27 94.069 130.325L94.1686 130.021C94.3156 129.559 94.1625 129.167 93.8857 128.921C95.1808 126.22 96.3916 123.478 97.4843 120.691C97.6528 123.305 97.8232 125.916 97.9917 128.531C97.8435 128.508 97.691 128.519 97.5508 128.561L97.5545 128.552ZM77.1381 158.323C77.0649 158.434 76.9936 158.541 76.9161 158.651L76.7722 158.451C76.8429 158.334 76.9161 158.223 76.9868 158.105C77.0372 158.178 77.0877 158.25 77.1338 158.321L77.1381 158.323ZM78.9499 170.716C79.5766 170.491 80.2032 170.265 80.828 170.044C79.9406 170.615 79.0205 171.135 78.0724 171.599C78.3793 171.323 78.6701 171.025 78.9481 170.721L78.9499 170.716ZM119.086 154.354C118.001 155.163 116.892 155.931 115.76 156.659C116.241 156.095 115.762 155.263 115.115 155.119C114.872 154.902 114.511 154.794 114.102 154.904C113.563 155.055 113.031 155.214 112.496 155.382C112.2 155.418 111.906 155.45 111.615 155.489C111.554 155.177 111.359 154.885 111.097 154.722C111.171 153.979 110.332 153.237 109.538 153.794C109.152 154.066 108.762 154.332 108.369 154.597C108.31 154.449 108.218 154.318 108.091 154.223C108.323 153.421 107.17 152.769 106.5 153.251L105.043 154.298C103.92 154.397 102.791 154.474 101.667 154.517L101.615 153.746L105.829 153.402C106.458 153.35 106.733 152.79 106.661 152.28C107.21 152.378 107.764 152.478 108.315 152.571C111.899 153.195 115.488 153.786 119.084 154.348L119.086 154.354ZM85.2939 144.678C85.4237 144.886 85.6309 145.056 85.8671 145.147L85.2933 146.129C85.0363 146.075 84.7792 146.021 84.5179 145.965C84.778 145.537 85.0338 145.106 85.2939 144.678ZM72.7442 153.072C70.2653 149.844 67.7144 146.677 65.0953 143.562C66.4556 143.896 67.8195 144.22 69.1854 144.541C69.1466 144.595 69.1079 144.65 69.0777 144.709C68.7094 145.081 68.6122 145.676 69.1497 146.074C68.8988 146.374 68.8275 146.802 69.1485 147.23C69.3625 147.516 69.5784 147.797 69.7942 148.078C69.8004 148.325 69.8908 148.578 70.1005 148.79C70.4578 149.157 70.8206 149.511 71.1976 149.856C72.0437 150.902 72.9078 151.929 73.7939 152.941C74.4273 154.078 75.0933 155.2 75.7938 156.3C75.6997 156.448 75.6056 156.596 75.5158 156.746C74.602 155.514 73.6802 154.288 72.7485 153.074L72.7442 153.072ZM75.7379 160.413C75.6088 160.607 75.4796 160.802 75.3523 160.992C75.1961 161.225 75.1568 161.484 75.1943 161.729C74.8327 162.038 74.476 162.359 74.1323 162.685C74.6304 161.88 75.1328 161.076 75.637 160.268C75.6733 160.314 75.7078 160.364 75.744 160.411L75.7379 160.413ZM75.4712 175.421C71.6106 177.094 67.7457 178.765 63.8832 180.442C64.5443 179.161 65.2226 177.888 65.9162 176.626C66.1622 176.67 66.4241 176.629 66.6517 176.467C66.7162 176.423 66.7722 176.376 66.8368 176.332C67.0618 176.556 67.389 176.696 67.686 176.645C68.5402 176.507 69.3863 176.304 70.2085 176.05C70.3106 176.038 70.4145 176.021 70.5142 176.003C70.6537 176.022 70.8056 176 70.9735 175.929C75.3206 175.214 79.4358 173.482 83.0031 170.925C83.2171 171.246 83.4249 171.569 83.6371 171.895C80.9117 173.07 78.1924 174.244 75.4712 175.421ZM94.913 186.709C92.7342 182.816 90.4621 178.976 88.0986 175.193C87.9455 174.943 87.7843 174.701 87.6312 174.452C88.1336 174.647 88.7406 174.443 88.9601 174.003C89.072 174.158 89.1883 174.314 89.3002 174.469C92.2028 180.827 95.818 186.834 100.076 192.376C100.349 192.727 100.734 192.815 101.081 192.73C101.161 193.946 101.205 195.163 101.218 196.381C99.7694 195.541 98.8254 193.868 98.0494 192.445C97.0051 190.53 95.9812 188.603 94.9167 186.7L94.913 186.709ZM96.9309 166.127L96.8166 165.788C97.0964 165.48 97.3651 165.162 97.6184 164.832C97.7888 164.732 97.961 164.628 98.1288 164.521C98.868 164.497 99.5967 164.437 100.328 164.348C100.333 164.442 100.339 164.536 100.346 164.626C100.209 164.684 100.075 164.749 99.9374 164.807C98.9375 165.25 97.9309 165.685 96.9285 166.121L96.9309 166.127Z" fill="#6610F2"/>
<path d="M86.1301 106.011C85.037 104.189 83.7771 102.472 82.3666 100.882L77.461 93.104C76.7784 92.0217 75.1888 93.2104 75.8664 94.2804C76.5724 95.4033 77.2803 96.5219 77.9862 97.6448C77.8921 97.5433 77.7981 97.4418 77.7083 97.3422C77.0152 96.5815 75.4348 97.2137 75.9938 98.2991C77.0915 100.446 78.1935 102.594 79.2931 104.737C79.8693 105.865 81.7148 105.138 81.1318 104.001C81.1103 103.957 81.0869 103.916 81.0654 103.871C81.3729 104.176 81.7006 104.469 82.0376 104.741C82.9226 105.625 83.8093 106.504 84.7121 107.37C85.5816 108.206 86.6627 106.897 86.1277 106.005L86.1301 106.011ZM65.8467 109.766C60.6903 105.712 55.5314 101.652 50.375 97.5972C49.3739 96.8064 48.133 98.3586 49.1359 99.1451C51.5909 101.074 54.0439 103.006 56.4988 104.935C56.3217 105.312 56.3592 105.772 56.7872 106.057L62.4122 109.838C62.5949 110.018 62.7714 110.201 62.946 110.388C63.1766 110.635 63.4552 110.734 63.7295 110.724L64.6076 111.314C65.6518 112.016 66.8608 110.563 65.8467 109.766ZM47.3055 153.935C47.1506 153.69 46.8886 153.516 46.527 153.504C46.8185 153.216 47.1007 152.914 47.3719 152.603C48.2064 151.63 46.6505 150.398 45.8241 151.363C45.072 152.239 44.2209 153 43.2954 153.638C41.9251 153.697 40.5601 153.847 39.2097 154.088C38.9717 154.108 38.7295 154.127 38.4915 154.147C38.2805 154.163 38.1127 154.234 37.9841 154.332C37.6238 154.412 37.2659 154.498 36.9061 154.588C36.8256 154.61 36.7407 154.63 36.6602 154.651C35.9081 154.849 35.9013 155.625 36.2789 156.123C35.5711 156.61 35.9137 158.01 36.9917 157.932C40.427 157.682 43.8012 156.891 46.9895 155.588C47.6634 155.311 47.7637 154.375 47.3049 153.924L47.3055 153.935ZM42.7909 175.193C42.5683 175.225 42.3475 175.253 42.1249 175.285C42.4029 175.16 42.679 175.038 42.9613 174.915C43.947 174.481 43.6229 172.788 42.4717 173.013C41.4823 173.206 40.4879 173.386 39.4911 173.56C39.9836 173.267 40.4756 172.963 40.9608 172.651C42.0339 171.954 40.8451 170.365 39.7844 171.057C37.6142 172.471 35.3187 173.642 32.9118 174.598C31.8725 175.013 32.2772 176.649 33.4013 176.499C33.9301 176.43 34.4584 176.351 34.9848 176.276L34.9602 176.286C33.9541 176.731 34.301 178.347 35.4497 178.187L38.4845 177.776C36.8186 178.667 35.0795 179.419 33.2667 180.023C32.0546 180.426 32.7944 182.267 34.0022 181.862C37.4019 180.731 40.6064 179.081 43.5018 176.971C44.3006 176.391 43.773 175.054 42.7885 175.187L42.7909 175.193ZM125.14 206.974C124.958 206.58 124.771 206.194 124.583 205.802C124.773 205.476 124.818 205.052 124.601 204.689C124.224 204.059 123.565 203.063 122.775 202.21C122.182 201.095 121.572 199.987 120.935 198.894C120.858 198.764 120.768 198.665 120.674 198.599C120.499 198.162 120.333 197.729 120.173 197.284C119.735 196.082 117.894 196.822 118.334 198.019C118.664 198.925 119.021 199.817 119.408 200.696C119.361 200.711 119.308 200.729 119.263 200.751C117.97 201.318 118.322 202.732 118.564 203.819C118.635 204.13 118.704 204.445 118.774 204.755C117.912 204.187 116.634 205.244 117.401 206.128C118.191 207.032 118.979 207.941 119.764 208.843C120.349 209.511 121.782 209.188 121.547 208.129L120.897 205.211C120.789 204.727 120.683 204.238 120.574 203.753C120.537 203.59 120.512 203.222 120.454 202.917C120.465 202.927 120.472 202.935 120.483 202.945C121.356 204.664 122.344 206.331 123.436 207.93C124.066 208.852 125.627 208.003 125.151 206.973L125.14 206.974ZM140.271 194.341C137.244 190.608 133.946 187.105 130.402 183.854C129.51 183.034 128.463 184.323 128.986 185.219C129.313 185.777 129.658 186.327 130.012 186.867C129.676 186.962 129.407 187.209 129.397 187.637C129.341 190.324 130.148 192.887 131.839 194.992C132.636 195.986 134.231 194.809 133.434 193.816C132.47 192.618 131.809 191.224 131.518 189.739C132.173 190.208 132.812 190.701 133.432 191.216C134.444 192.302 135.529 193.327 136.675 194.277C136.894 194.458 137.146 194.51 137.388 194.471C137.87 194.891 138.355 195.303 138.849 195.708C139.707 196.407 140.984 195.232 140.265 194.343L140.271 194.341ZM144.024 143.779C144.441 143.377 144.561 142.623 143.995 142.278C140.616 140.224 136.949 138.841 133.041 138.211C132.064 138.052 131.681 139.208 132.152 139.822C131.217 139.636 130.282 139.454 129.347 139.267C128.564 139.11 127.825 140.215 128.414 140.839C130.011 142.522 131.952 143.84 134.105 144.705C136.059 146.327 138.583 147.215 141.185 147.194C142.028 147.188 142.202 146.32 141.855 145.738C142.378 145.672 142.901 145.58 143.416 145.46C144.106 145.302 144.654 144.308 144.014 143.78L144.024 143.779ZM135.221 143.028C135.024 142.857 134.843 142.672 134.664 142.483C136.499 142.673 138.301 143.14 140.003 143.854C138.373 143.855 136.756 143.575 135.221 143.028ZM142.559 121.98C141.985 121.953 141.409 121.93 140.834 121.903C141.345 121.282 140.654 120.328 139.874 120.34C139 120.355 138.128 120.408 137.258 120.498C137.933 120.161 138.603 119.811 139.261 119.441C139.73 119.178 139.756 118.44 139.469 118.052C138.746 117.075 137.578 116.579 136.377 116.86C135.307 117.109 135.345 118.639 136.193 118.834C134.042 119.895 131.805 120.775 129.511 121.479C128.584 121.764 128.767 123.335 129.745 123.383L130.704 123.427C130.95 123.649 131.295 123.761 131.688 123.64C131.853 123.588 132.02 123.542 132.183 123.495C132.518 123.511 132.852 123.527 133.189 123.539C133.074 123.581 132.963 123.625 132.85 123.664C131.8 124.034 132.225 125.765 133.339 125.565C136.409 125.026 139.478 124.486 142.549 123.943C143.591 123.757 143.741 122.028 142.561 121.976L142.559 121.98Z" fill="#6610F2"/>
<path d="M128.447 155.874C129.135 155.552 129.364 154.305 128.467 154.043C120.452 151.678 112.441 149.208 104.405 146.855C104.291 142.282 104.175 137.702 104.055 133.131C103.893 126.947 103.72 120.764 103.541 114.583C103.519 113.754 102.239 113.399 101.781 114.089C95.7753 123.132 89.7741 132.178 83.7687 141.221C81.4737 140.655 79.1695 140.111 76.8628 139.597C71.9967 138.515 67.0955 137.586 62.163 136.874C61.2953 136.747 60.7548 137.758 61.2296 138.446C65.3849 144.455 69.5082 150.492 73.5909 156.553L66.9939 166.489L57.1476 181.321C56.5886 182.161 57.3205 183.152 58.2915 182.86C67.3224 180.131 76.2758 177.151 85.1412 173.925C88.1533 178.512 91.1408 183.109 94.1104 187.725C97.1127 192.394 100.09 197.074 103.05 201.772C103.733 202.854 105.322 201.665 104.645 200.595C104.552 200.443 104.453 200.294 104.36 200.142C104.916 200.177 105.552 199.787 105.536 199.062C105.336 188.138 105.111 177.214 104.867 166.287C107.7 165.122 110.517 163.934 113.324 162.722C118.402 160.527 123.442 158.243 128.443 155.883L128.447 155.874ZM93.4859 130.151C96.207 126.048 98.9343 121.943 101.655 117.841C101.925 127.317 102.179 136.796 102.418 146.273C96.8979 144.672 91.367 143.132 85.7999 141.725L93.4816 130.149L93.4859 130.151ZM102.475 148.422C102.61 153.932 102.74 159.445 102.864 164.955C97.2611 167.247 91.6159 169.434 85.9314 171.522C82.6365 166.509 79.315 161.514 75.9671 156.537L84.634 143.482C90.6125 145 96.5487 146.688 102.469 148.425L102.475 148.422ZM72.2361 150.999C69.5573 147.049 66.8583 143.11 64.1469 139.176C70.3604 140.157 76.5049 141.466 82.6046 142.974C79.9973 146.906 77.3857 150.837 74.7784 154.769C73.9303 153.514 73.0885 152.256 72.2343 151.003L72.2361 150.999ZM73.365 175.96C69.0222 177.426 64.6592 178.833 60.2759 180.18C65.1111 172.892 69.9488 165.61 74.784 158.322C77.8859 162.938 80.9637 167.574 84.0232 172.218C80.4817 173.502 76.9316 174.748 73.3625 175.954L73.365 175.96ZM103.21 180.746C103.335 186.792 103.452 192.833 103.562 198.878C98.1321 190.28 92.6284 181.728 87.0512 173.225C92.3699 171.265 97.6584 169.221 102.91 167.084C103.012 171.637 103.114 176.19 103.206 180.744L103.21 180.746ZM104.465 149.01C107.343 149.856 110.213 150.709 113.085 151.558C117.161 152.759 121.23 153.963 125.306 155.165C118.547 158.311 111.718 161.31 104.826 164.16C104.711 159.113 104.592 154.063 104.469 149.012L104.465 149.01ZM84.4243 108.826C79.9542 102.743 75.0185 97.02 69.6794 91.6799C68.7767 90.7784 67.5486 92.3361 68.4403 93.2277C73.6589 98.4449 78.4623 104.06 82.8298 110.003C83.585 111.035 85.177 109.852 84.4262 108.822L84.4243 108.826ZM65.3099 110.163C61.036 107.485 56.7639 104.804 52.4899 102.126C51.4224 101.455 50.1747 102.999 51.2508 103.674C55.5248 106.352 59.7969 109.033 64.0708 111.711C65.1384 112.382 66.3861 110.838 65.3099 110.163ZM49.7838 154.62C44.7207 156.125 39.5525 157.252 34.3222 157.99C33.0634 158.169 33.3008 160.136 34.5701 159.956C39.9693 159.188 45.2966 158.016 50.5193 156.458C51.7461 156.092 51.0002 154.254 49.7838 154.62ZM39.8422 174.251C37.0762 175.628 34.2087 176.779 31.2515 177.687C30.0314 178.061 30.7755 179.904 31.987 179.526C34.9399 178.616 37.8099 177.471 40.5777 176.089C41.7129 175.521 40.9836 173.68 39.8422 174.251ZM124.264 207.378C122.933 204.943 121.607 202.509 120.274 200.079C119.668 198.973 117.824 199.696 118.436 200.814C119.766 203.249 121.093 205.683 122.425 208.113C123.032 209.219 124.875 208.496 124.264 207.378ZM137.204 193.852C133.701 190.97 130.202 188.089 126.7 185.203C125.713 184.392 124.478 185.942 125.461 186.751C128.965 189.633 132.464 192.513 135.965 195.4C136.953 196.21 138.188 194.661 137.204 193.852ZM146.433 141.311L126.035 136.773C124.793 136.495 124.527 138.46 125.768 138.737L146.166 143.275C147.408 143.553 147.674 141.588 146.433 141.311ZM141.746 120.322C138.228 121.755 134.603 122.866 130.886 123.632C129.645 123.89 129.876 125.859 131.134 125.598C135.015 124.795 138.81 123.655 142.482 122.161C143.666 121.68 142.931 119.841 141.746 120.322Z" fill="#0C0C0D"/>
</g>
<g clip-path="url(#clip2_2068_269)">
<path d="M834.151 189.034C836.168 182.229 837.661 175.279 838.607 168.243C839.552 161.221 839.986 154.148 840.434 147.075C840.472 146.465 840.513 145.86 840.55 145.25C836.737 143.532 832.966 141.732 829.269 139.796C823.739 136.896 818.409 133.616 813.55 129.679C812.638 128.94 812.972 127.427 814.17 127.24C823.466 125.795 832.745 124.211 841.998 122.485L843.293 102.125L844.909 76.6683C844.993 75.3539 847.063 75.0356 847.502 76.2995C852.543 90.8172 859.883 104.205 867.826 117.271C871.071 116.566 874.308 115.843 877.54 115.108C883.434 113.759 889.309 112.348 895.175 110.885C896.298 110.604 897.182 112.187 896.458 113.036C890.353 120.176 884.511 127.538 878.944 135.103C881.523 139.211 884.081 143.32 886.571 147.466C890.454 153.94 894.173 160.504 897.531 167.266C898.054 168.319 896.83 169.517 895.784 169.066L864.803 155.704C860.696 162.131 856.772 168.674 853.059 175.336C851.374 178.366 849.838 181.5 848.067 184.477C846.436 187.211 844.312 189.564 841.106 190.295C840.451 190.444 839.584 189.825 839.575 189.138C839.48 180.999 840.366 172.913 842.302 164.997C842.392 164.623 842.642 164.327 842.953 164.123C844.037 159.193 845.323 154.309 846.806 149.48L846.848 149.301C846.879 149.162 846.923 149.038 846.979 148.924C847.056 148.681 847.131 148.432 847.208 148.19C845.869 147.614 844.534 147.031 843.201 146.443C842.767 153.321 842.355 160.204 841.507 167.044C840.543 174.835 838.913 182.521 836.683 190.047C836.182 191.723 833.665 190.71 834.162 189.043L834.151 189.034ZM858.325 136.531C858.589 136.788 858.85 137.053 859.114 137.309C859.737 136.713 860.355 136.119 860.978 135.522C861.374 135.128 861.771 134.734 862.164 134.334C861.713 134.277 861.282 134.183 860.881 134.062C859.624 134.778 858.349 135.466 857.061 136.126C857.488 136.047 857.953 136.154 858.331 136.529L858.325 136.531ZM852.643 157.606C853.832 155.725 855.067 153.873 856.358 152.067C856.195 151.998 856.026 151.931 855.864 151.861C855.183 152.86 854.527 153.868 853.883 154.886C853.48 155.8 853.066 156.704 852.646 157.611L852.643 157.606ZM857.185 119.504C857.087 119.211 856.986 118.912 856.894 118.616C856.756 118.815 856.577 118.983 856.377 119.104C856.384 119.283 856.391 119.476 856.397 119.668C856.661 119.618 856.923 119.561 857.188 119.51L857.185 119.504ZM859.564 121.882C859.548 121.846 859.53 121.819 859.509 121.787C858.86 121.919 858.22 122.055 857.572 122.187C858.055 122.126 858.541 122.07 859.027 122.015C859.205 121.973 859.383 121.932 859.558 121.884L859.564 121.882ZM859.706 125.069C859.906 124.982 860.112 124.894 860.318 124.819L859.255 124.962C858.84 125.085 858.433 125.211 858.018 125.334C858.583 125.251 859.146 125.163 859.706 125.069ZM859.455 142.304C859.578 142.153 859.704 142.008 859.828 141.857C859.607 141.651 859.386 141.446 859.171 141.238C859.165 141.388 859.136 141.547 859.075 141.713C859.047 141.795 859.013 141.879 858.986 141.961C859.14 142.076 859.294 142.191 859.455 142.304ZM861.056 139.24L861.602 139.78C862.113 139.197 862.623 138.614 863.142 138.034C863.864 137.067 864.578 136.096 865.289 135.12C864.474 135.903 863.656 136.681 862.847 137.463C862.256 138.053 861.659 138.645 861.059 139.231L861.056 139.24ZM879.579 149.609C879.528 149.75 879.452 149.881 879.353 149.993C879.69 150.191 880.02 150.391 880.353 150.596C880.14 150.311 879.926 150.026 879.701 149.746C879.669 149.704 879.628 149.658 879.582 149.615L879.579 149.609ZM871.824 147.073C871.912 147.035 872.009 147 872.114 146.983C872.112 146.865 872.113 146.739 872.111 146.621C872.022 146.771 871.927 146.924 871.83 147.071L871.824 147.073ZM859.205 148.216C859.225 148.165 859.245 148.114 859.26 148.066C858.746 148.609 858.226 149.154 857.712 149.696C857.805 149.733 857.894 149.779 857.987 149.816C858.385 149.281 858.792 148.75 859.199 148.218L859.205 148.216ZM856.436 139.866C856.664 139.649 856.895 139.424 857.123 139.207C856.808 138.882 856.502 138.559 856.193 138.231C855.76 137.761 855.758 137.252 855.99 136.852C855.814 136.928 855.616 136.971 855.375 136.963C854.952 137.166 854.535 137.366 854.11 137.563C854.849 138.37 855.627 139.139 856.432 139.875L856.436 139.866ZM852.242 133.45C852.429 133.495 852.61 133.543 852.795 133.582C853.439 133.018 854.086 132.46 854.747 131.918C854.204 131.97 853.654 132.025 853.109 132.071C852.835 132.538 852.544 132.999 852.236 133.452L852.242 133.45ZM874.644 141.033C874.723 141.215 874.766 141.427 874.764 141.652C874.765 142.14 874.772 142.626 874.772 143.115C875.033 142.584 875.301 142.056 875.562 141.525C875.444 141.219 875.327 140.914 875.218 140.597C875.184 140.5 875.167 140.396 875.152 140.297C874.977 140.54 874.811 140.786 874.636 141.029L874.644 141.033ZM855.109 143.357C854.713 143.004 854.49 142.422 854.637 141.87C853.544 140.873 852.51 139.817 851.533 138.7L851.25 138.822C852.567 140.567 853.605 142.523 854.304 144.618C854.327 144.671 854.338 144.73 854.349 144.788C854.598 144.31 854.855 143.837 855.109 143.357ZM848.356 118.806C848.172 117.355 848.036 115.905 847.962 114.449C847.678 115.381 847.364 116.306 847.016 117.217C846.552 118.737 846.091 120.262 845.628 121.782C846.377 121.641 847.13 121.492 847.877 121.345C848.029 120.497 848.181 119.649 848.353 118.8L848.356 118.806ZM851.904 147.188C852.232 147.333 852.563 147.47 852.891 147.615L853.49 146.443C853.214 146.548 852.894 146.552 852.551 146.421C852.45 146.38 852.349 146.34 852.254 146.297C852.18 146.483 852.067 146.643 851.922 146.775C851.917 146.91 851.908 147.053 851.904 147.188ZM851.138 129.489C851.17 129.434 851.202 129.378 851.237 129.328C850.681 129.288 850.129 129.239 849.574 129.199C849.564 129.322 849.551 129.453 849.541 129.576C850.074 129.549 850.608 129.522 851.138 129.489ZM846.814 129.667C846.833 129.436 846.855 129.21 846.874 128.978C846.021 128.912 845.16 128.842 844.307 128.776C844.29 129.077 844.267 129.381 844.25 129.681C845.105 129.689 845.961 129.686 846.817 129.673L846.814 129.667ZM846.562 100.292C846.438 99.8569 846.313 99.4215 846.195 98.9836C846.122 100.161 846.045 101.346 845.972 102.523C846.153 101.775 846.356 101.031 846.56 100.286L846.562 100.292ZM847.116 94.0328C847.051 93.8164 846.983 93.5941 846.912 93.3802C846.411 91.7449 848.817 90.6326 849.405 92.3073C849.873 93.6216 850.364 94.9258 850.889 96.2089C851.045 96.2466 851.19 96.3095 851.326 96.3978C851.515 96.3655 851.71 96.3795 851.895 96.4533L851.758 96.0374C851.556 95.405 851.764 94.868 852.143 94.5305C850.363 90.8332 848.699 87.0793 847.196 83.2628C846.97 86.8452 846.743 90.4218 846.517 94.0042C846.72 93.9727 846.929 93.9876 847.121 94.0446L847.116 94.0328ZM875.15 134.773C875.25 134.926 875.348 135.072 875.454 135.222L875.651 134.949C875.554 134.788 875.453 134.635 875.356 134.475C875.287 134.574 875.218 134.674 875.155 134.771L875.15 134.773ZM872.694 151.756C871.835 151.448 870.976 151.14 870.12 150.838C871.337 151.62 872.598 152.329 873.898 152.963C873.477 152.585 873.078 152.177 872.697 151.762L872.694 151.756ZM817.674 129.427C819.163 130.532 820.684 131.582 822.236 132.576C821.576 131.806 822.231 130.665 823.116 130.465C823.449 130.168 823.943 130.019 824.504 130.168C825.242 130.375 825.971 130.592 826.705 130.82C827.11 130.87 827.513 130.913 827.913 130.964C827.994 130.538 828.262 130.137 828.619 129.913C828.517 128.895 829.664 127.877 830.753 128.638C831.283 129.011 831.817 129.375 832.357 129.736C832.438 129.534 832.563 129.354 832.737 129.223C832.418 128.124 833.995 127.229 834.914 127.888L836.913 129.319C838.452 129.453 839.998 129.556 841.538 129.612L841.607 128.556L835.834 128.093C834.973 128.023 834.594 127.257 834.692 126.559C833.94 126.694 833.182 126.832 832.427 126.961C827.518 127.823 822.602 128.64 817.678 129.418L817.674 129.427ZM863.947 116.097C863.77 116.383 863.486 116.617 863.163 116.742L863.951 118.086C864.303 118.012 864.655 117.937 865.013 117.86C864.656 117.273 864.304 116.684 863.947 116.097ZM881.158 127.57C884.547 123.143 888.034 118.799 891.616 114.526C889.753 114.986 887.885 115.434 886.015 115.875C886.068 115.95 886.121 116.025 886.163 116.105C886.668 116.614 886.802 117.429 886.067 117.976C886.411 118.387 886.51 118.973 886.071 119.56C885.779 119.952 885.483 120.337 885.188 120.722C885.18 121.061 885.057 121.408 884.77 121.699C884.282 122.202 883.785 122.688 883.27 123.162C882.113 124.596 880.931 126.005 879.719 127.393C878.854 128.953 877.944 130.49 876.987 131.999C877.116 132.202 877.245 132.404 877.369 132.61C878.618 130.92 879.878 129.239 881.152 127.573L881.158 127.57ZM877.072 137.634C877.25 137.9 877.427 138.166 877.602 138.426C877.816 138.745 877.871 139.099 877.82 139.435C878.316 139.858 878.805 140.297 879.277 140.743C878.593 139.641 877.903 138.541 877.21 137.435C877.16 137.498 877.113 137.567 877.064 137.63L877.072 137.634ZM877.47 158.194C882.762 160.477 888.06 162.758 893.355 165.047C892.447 163.294 891.515 161.55 890.562 159.823C890.225 159.884 889.866 159.829 889.554 159.607C889.466 159.548 889.389 159.483 889.3 159.423C888.993 159.73 888.545 159.923 888.138 159.854C886.967 159.666 885.808 159.39 884.681 159.044C884.541 159.027 884.398 159.005 884.262 158.98C884.071 159.006 883.863 158.977 883.632 158.88C877.676 157.91 872.034 155.546 867.142 152.05C866.849 152.49 866.565 152.934 866.275 153.38C870.012 154.985 873.739 156.586 877.47 158.194ZM850.86 173.698C853.836 168.361 856.941 163.096 860.17 157.907C860.38 157.566 860.6 157.234 860.809 156.892C860.121 157.16 859.289 156.883 858.988 156.279C858.835 156.492 858.676 156.707 858.523 156.919C854.56 165.635 849.62 173.872 843.798 181.473C843.426 181.955 842.899 182.077 842.423 181.961C842.316 183.627 842.258 185.294 842.243 186.963C844.226 185.809 845.515 183.514 846.575 181.563C848.002 178.938 849.4 176.296 850.855 173.687L850.86 173.698ZM848.051 145.508L848.207 145.042C847.823 144.621 847.454 144.186 847.106 143.735C846.873 143.598 846.637 143.455 846.407 143.31C845.394 143.277 844.395 143.197 843.394 143.077C843.386 143.206 843.379 143.335 843.369 143.458C843.557 143.537 843.742 143.625 843.93 143.705C845.3 144.31 846.68 144.903 848.054 145.499L848.051 145.508Z" fill="#6610F2"/>
<path d="M862.719 63.1285C864.212 60.6297 865.935 58.275 867.863 56.0945L874.567 45.428C875.5 43.9439 877.68 45.5689 876.754 47.0362C875.789 48.576 874.822 50.11 873.857 51.6498C873.986 51.5106 874.115 51.3714 874.237 51.2347C875.185 50.1911 877.352 51.0538 876.588 52.5419C875.089 55.4852 873.584 58.4311 872.082 61.3685C871.295 62.9156 868.765 61.9229 869.562 60.3648C869.591 60.3033 869.623 60.2476 869.652 60.1861C869.232 60.6046 868.783 61.0071 868.322 61.3802C867.112 62.5927 865.899 63.7993 864.664 64.9873C863.475 66.1349 861.991 64.3428 862.722 63.1201L862.719 63.1285ZM890.514 68.2295C897.569 62.6643 904.628 57.0907 911.683 51.5255C913.053 50.44 914.756 52.5637 913.384 53.6433C910.025 56.2904 906.669 58.9434 903.31 61.5906C903.553 62.1074 903.503 62.7368 902.917 63.1286L895.219 68.3208C894.969 68.568 894.728 68.8186 894.489 69.0751C894.174 69.4134 893.792 69.5496 893.416 69.5367L892.215 70.3473C890.786 71.3116 889.126 69.3226 890.514 68.2295ZM916.009 128.698C916.221 128.363 916.579 128.124 917.075 128.107C916.675 127.713 916.287 127.3 915.915 126.874C914.77 125.543 916.899 123.852 918.033 125.173C919.065 126.37 920.233 127.411 921.502 128.283C923.379 128.361 925.25 128.564 927.1 128.891C927.426 128.918 927.758 128.943 928.084 128.97C928.373 128.992 928.603 129.089 928.78 129.223C929.274 129.331 929.764 129.449 930.257 129.572C930.367 129.601 930.484 129.628 930.594 129.657C931.625 129.926 931.636 130.99 931.12 131.673C932.09 132.338 931.624 134.257 930.147 134.152C925.44 133.817 920.816 132.74 916.446 130.962C915.522 130.584 915.382 129.303 916.01 128.684L916.009 128.698ZM922.239 157.812C922.544 157.855 922.847 157.893 923.152 157.936C922.771 157.765 922.392 157.599 922.005 157.431C920.654 156.839 921.094 154.519 922.672 154.825C924.028 155.086 925.391 155.331 926.757 155.567C926.081 155.167 925.406 154.752 924.741 154.325C923.27 153.373 924.895 151.193 926.349 152.138C929.325 154.071 932.473 155.671 935.772 156.975C937.197 157.542 936.646 159.784 935.105 159.581C934.381 159.487 933.657 159.38 932.936 159.278L932.969 159.292C934.349 159.899 933.877 162.114 932.303 161.897L928.145 161.34C930.429 162.557 932.813 163.585 935.297 164.408C936.959 164.958 935.949 167.481 934.294 166.929C929.634 165.387 925.24 163.133 921.269 160.248C920.174 159.455 920.894 157.623 922.243 157.804L922.239 157.812ZM809.493 201.526C809.742 200.986 809.997 200.457 810.255 199.92C809.993 199.474 809.931 198.893 810.227 198.395C810.742 197.531 811.642 196.166 812.724 194.995C813.533 193.466 814.367 191.947 815.237 190.448C815.342 190.27 815.465 190.134 815.594 190.043C815.832 189.445 816.059 188.851 816.278 188.24C816.875 186.593 819.398 187.603 818.798 189.244C818.348 190.486 817.861 191.708 817.332 192.913C817.397 192.934 817.47 192.959 817.532 192.988C819.304 193.762 818.825 195.7 818.495 197.19C818.399 197.616 818.305 198.047 818.209 198.473C819.389 197.693 821.143 199.138 820.093 200.351C819.014 201.591 817.936 202.837 816.862 204.075C816.063 204.992 814.099 204.552 814.418 203.101L815.302 199.103C815.449 198.439 815.594 197.769 815.741 197.105C815.791 196.88 815.826 196.377 815.905 195.959C815.889 195.972 815.88 195.983 815.865 195.997C814.672 198.354 813.323 200.639 811.829 202.832C810.97 204.097 808.829 202.937 809.479 201.525L809.493 201.526ZM788.738 184.252C792.876 179.132 797.388 174.326 802.236 169.865C803.456 168.739 804.892 170.502 804.178 171.732C803.732 172.497 803.261 173.251 802.776 173.991C803.237 174.121 803.605 174.458 803.62 175.045C803.703 178.726 802.602 182.238 800.29 185.126C799.2 186.489 797.013 184.881 798.103 183.518C799.421 181.875 800.324 179.963 800.719 177.928C799.823 178.573 798.948 179.25 798.1 179.957C796.716 181.447 795.233 182.853 793.663 184.157C793.365 184.405 793.019 184.477 792.688 184.423C792.029 185.001 791.364 185.566 790.688 186.122C789.515 187.081 787.762 185.475 788.746 184.255L788.738 184.252ZM783.487 114.993C782.915 114.443 782.75 113.41 783.525 112.937C788.149 110.115 793.17 108.213 798.522 107.341C799.86 107.122 800.387 108.704 799.744 109.547C801.023 109.289 802.305 109.038 803.584 108.781C804.657 108.563 805.671 110.076 804.867 110.932C802.682 113.24 800.026 115.051 797.079 116.24C794.405 118.466 790.949 119.688 787.384 119.665C786.229 119.659 785.99 118.47 786.464 117.672C785.747 117.582 785.03 117.458 784.324 117.294C783.379 117.079 782.627 115.72 783.502 114.994L783.487 114.993ZM795.546 113.945C795.815 113.71 796.063 113.457 796.307 113.198C793.795 113.462 791.327 114.105 788.997 115.087C791.229 115.085 793.445 114.698 795.546 113.945ZM785.448 85.1267C786.235 85.0884 787.024 85.056 787.811 85.0177C787.109 84.1671 788.055 82.8589 789.123 82.8741C790.32 82.8929 791.516 82.9633 792.706 83.0851C791.782 82.624 790.863 82.1461 789.961 81.6403C789.318 81.2816 789.281 80.2707 789.674 79.7385C790.661 78.3984 792.261 77.7169 793.906 78.0985C795.372 78.4382 795.324 80.5335 794.162 80.8032C797.111 82.251 800.178 83.4526 803.322 84.4115C804.593 84.8005 804.346 86.9533 803.006 87.0202L801.692 87.0829C801.355 87.3884 800.883 87.5425 800.344 87.3765C800.118 87.3061 799.889 87.2441 799.666 87.1796C799.207 87.2022 798.749 87.2248 798.288 87.2415C798.446 87.2994 798.598 87.3598 798.753 87.4118C800.192 87.9168 799.614 90.2891 798.086 90.0177C793.88 89.2854 789.675 88.5531 785.466 87.8149C784.038 87.5635 783.829 85.1949 785.445 85.1208L785.448 85.1267Z" fill="#6610F2"/>
<path d="M804.854 131.529C803.91 131.09 803.594 129.382 804.822 129.021C815.798 125.764 826.767 122.363 837.77 119.122C837.916 112.856 838.066 106.582 838.22 100.32C838.43 91.8479 838.653 83.3767 838.885 74.9089C838.913 73.7724 840.666 73.2836 841.295 74.2278C849.542 86.6041 857.783 98.9829 866.029 111.359C869.172 110.579 872.327 109.829 875.486 109.119C882.15 107.627 888.863 106.344 895.618 105.357C896.807 105.181 897.55 106.566 896.901 107.509C891.221 115.751 885.585 124.03 880.005 132.341L889.064 145.939L902.585 166.236C903.352 167.387 902.352 168.746 901.021 168.348C888.643 164.629 876.371 160.566 864.219 156.164C860.102 162.455 856.02 168.76 851.961 175.089C847.858 181.493 843.789 187.91 839.744 194.352C838.812 195.836 836.631 194.211 837.557 192.744C837.684 192.535 837.82 192.33 837.946 192.122C837.185 192.17 836.313 191.638 836.333 190.644C836.583 175.68 836.868 160.714 837.18 145.744C833.296 144.153 829.434 142.533 825.586 140.878C818.624 137.881 811.716 134.764 804.859 131.541L804.854 131.529ZM852.693 96.2141C848.957 90.5999 845.212 84.9824 841.475 79.3682C841.126 92.35 840.799 105.336 840.492 118.32C848.05 116.115 855.624 113.994 863.248 112.054L852.699 96.2116L852.693 96.2141ZM840.418 121.265C840.244 128.813 840.079 136.365 839.92 143.915C847.601 147.042 855.339 150.026 863.131 152.875C867.635 146 872.174 139.15 876.75 132.324L864.849 114.459C856.662 116.551 848.533 118.876 840.426 121.268L840.418 121.265ZM881.849 124.73C885.51 119.312 889.2 113.911 892.906 108.516C884.396 109.873 875.981 111.679 867.628 113.759C871.208 119.14 874.794 124.518 878.374 129.899C879.534 128.178 880.684 126.453 881.852 124.736L881.849 124.73ZM880.356 158.928C886.309 160.927 892.289 162.844 898.297 164.68C891.657 154.707 885.014 144.741 878.374 134.768C874.135 141.098 869.928 147.456 865.747 153.823C870.601 155.576 875.467 157.274 880.36 158.919L880.356 158.928ZM839.48 165.548C839.322 173.83 839.175 182.108 839.037 190.388C846.457 178.597 853.979 166.871 861.601 155.21C854.31 152.536 847.061 149.747 839.862 146.832C839.732 153.069 839.602 159.307 839.486 165.545L839.48 165.548ZM837.693 122.074C833.752 123.24 829.822 124.414 825.89 125.583C820.309 127.238 814.736 128.896 809.155 130.551C818.422 134.846 827.783 138.94 837.232 142.83C837.378 135.915 837.529 128.997 837.687 122.077L837.693 122.074ZM865.062 66.9813C871.172 58.6375 877.922 50.7872 885.225 43.4601C886.459 42.2231 888.145 44.3544 886.925 45.5779C879.787 52.7363 873.219 60.4389 867.248 68.5895C866.216 70.0048 864.033 68.3881 865.059 66.9754L865.062 66.9813ZM891.25 68.7714C897.1 65.0943 902.946 61.4113 908.796 57.7343C910.257 56.812 911.969 58.9248 910.496 59.8521C904.647 63.5292 898.8 67.2121 892.951 70.8892C891.49 71.8114 889.777 69.6987 891.25 68.7714ZM912.615 129.642C919.555 131.693 926.637 133.226 933.804 134.226C935.529 134.469 935.208 137.163 933.469 136.92C926.071 135.878 918.77 134.285 911.612 132.162C909.93 131.663 910.948 129.144 912.615 129.642ZM926.277 156.514C930.069 158.395 934 159.965 938.053 161.203C939.725 161.713 938.71 164.238 937.05 163.724C933.002 162.483 929.068 160.922 925.273 159.034C923.717 158.258 924.712 155.735 926.277 156.514ZM810.694 202.077C812.512 198.738 814.324 195.402 816.145 192.069C816.973 190.553 819.5 191.54 818.665 193.073C816.847 196.412 815.035 199.748 813.215 203.081C812.387 204.597 809.859 203.61 810.694 202.077ZM792.938 183.575C797.731 179.619 802.519 175.666 807.31 171.704C808.661 170.591 810.356 172.712 809.01 173.822C804.217 177.778 799.43 181.731 794.639 185.693C793.288 186.805 791.593 184.685 792.938 183.575ZM780.183 111.616L808.117 105.355C809.818 104.973 810.187 107.664 808.486 108.047L780.552 114.307C778.852 114.69 778.483 111.999 780.183 111.616ZM786.558 82.8534C791.381 84.808 796.349 86.3226 801.443 87.3644C803.144 87.7147 802.832 90.4127 801.107 90.0582C795.79 88.9662 790.588 87.4124 785.554 85.3738C783.931 84.7176 784.934 82.1971 786.558 82.8534Z" fill="#0C0C0D"/>
</g>
<g clip-path="url(#clip3_2068_269)">
<path d="M779.75 475.451C783.976 472.654 787.983 469.537 791.73 466.123C795.47 462.716 798.954 459.045 802.445 455.382C802.746 455.066 803.045 454.754 803.346 454.437C802.049 451.747 800.812 449.032 799.678 446.276C797.984 442.151 796.574 437.911 795.723 433.527C795.563 432.705 796.44 432.03 797.181 432.478C802.93 435.954 808.732 439.346 814.586 442.649L824.639 432.106L837.207 418.922C837.856 418.242 839.135 419.018 838.795 419.911C834.889 430.165 832.76 440.858 831.108 451.651C833.206 452.754 835.309 453.845 837.414 454.926C841.258 456.893 845.119 458.818 848.999 460.71C849.742 461.072 849.499 462.343 848.713 462.475C842.097 463.579 835.522 464.925 829.005 466.508C828.53 469.939 828.044 473.361 827.503 476.772C826.656 482.095 825.677 487.393 824.41 492.633C824.213 493.449 822.994 493.542 822.629 492.815L811.815 471.287C806.618 472.917 801.468 474.696 796.38 476.636C794.067 477.52 791.789 478.529 789.454 479.345C787.306 480.092 785.065 480.404 782.976 479.332C782.549 479.113 782.359 478.377 782.669 477.997C786.353 473.501 790.548 469.485 795.241 466.043C795.462 465.88 795.734 465.833 795.998 465.864C798.853 463.665 801.798 461.583 804.827 459.622L804.931 459.544C805.012 459.482 805.093 459.434 805.176 459.397C805.33 459.3 805.485 459.198 805.638 459.101C805.171 458.171 804.707 457.24 804.248 456.306C800.854 459.869 797.47 463.445 793.866 466.798C789.763 470.617 785.344 474.074 780.67 477.167C779.627 477.853 778.714 476.145 779.752 475.461L779.75 475.451ZM817.071 457.826C817.097 458.087 817.118 458.352 817.145 458.614C817.76 458.573 818.37 458.532 818.985 458.492C819.383 458.458 819.78 458.424 820.179 458.386C819.959 458.148 819.766 457.898 819.602 457.648C818.586 457.463 817.572 457.254 816.565 457.024C816.835 457.176 817.04 457.449 817.075 457.827L817.071 457.826ZM804.29 466.746C805.803 466.263 807.329 465.817 808.864 465.421C808.807 465.309 808.745 465.195 808.688 465.082C807.858 465.316 807.036 465.566 806.216 465.827C805.576 466.142 804.935 466.447 804.289 466.751L804.29 466.746ZM824.262 447.988C824.343 447.783 824.425 447.573 824.51 447.369C824.343 447.415 824.168 447.424 824.004 447.399C823.926 447.5 823.84 447.608 823.755 447.717C823.923 447.81 824.093 447.899 824.261 447.993L824.262 447.988ZM824.472 450.381C824.48 450.354 824.482 450.331 824.485 450.304C824.07 450.078 823.657 449.859 823.242 449.634C823.535 449.822 823.826 450.015 824.117 450.207C824.234 450.266 824.35 450.325 824.467 450.379L824.472 450.381ZM823.087 452.189C823.236 452.234 823.39 452.28 823.536 452.334L822.889 451.924C822.606 451.801 822.325 451.683 822.042 451.56C822.389 451.774 822.737 451.984 823.087 452.189ZM815.039 461.502C815.176 461.476 815.312 461.455 815.449 461.429C815.422 461.215 815.395 461.001 815.373 460.789C815.301 460.868 815.212 460.942 815.102 461.004C815.05 461.036 814.993 461.067 814.94 461.099C814.972 461.233 815.003 461.367 815.039 461.502ZM817.321 460.561L817.372 461.107C817.919 461.022 818.466 460.938 819.016 460.859C819.855 460.661 820.691 460.458 821.528 460.25C820.722 460.305 819.918 460.355 819.117 460.411C818.523 460.462 817.924 460.512 817.327 460.558L817.321 460.561ZM822.695 474.735C822.602 474.788 822.5 474.825 822.395 474.841C822.488 475.104 822.577 475.365 822.665 475.63C822.679 475.376 822.693 475.122 822.699 474.865C822.7 474.828 822.699 474.784 822.693 474.739L822.695 474.735ZM819.616 469.788C819.682 469.808 819.751 469.833 819.816 469.872C819.869 469.807 819.928 469.738 819.981 469.673C819.864 469.714 819.742 469.754 819.621 469.789L819.616 469.788ZM812.189 464.621C812.223 464.603 812.258 464.584 812.288 464.565C811.757 464.626 811.223 464.685 810.693 464.746C810.727 464.809 810.755 464.875 810.789 464.937C811.252 464.828 811.718 464.724 812.185 464.62L812.189 464.621ZM814.506 458.783C814.731 458.769 814.961 458.752 815.185 458.738C815.162 458.415 815.142 458.099 815.124 457.777C815.103 457.321 815.335 457.042 815.646 456.93C815.515 456.89 815.387 456.823 815.259 456.708C814.934 456.625 814.614 456.543 814.291 456.456C814.325 457.236 814.398 458.014 814.501 458.786L814.506 458.783ZM815.157 453.348C815.239 453.459 815.316 453.568 815.399 453.674C816.01 453.662 816.62 453.654 817.231 453.66C816.91 453.439 816.584 453.217 816.264 452.992C815.9 453.122 815.53 453.24 815.153 453.347L815.157 453.348ZM823.932 467.778C823.891 467.914 823.817 468.05 823.713 468.172C823.489 468.439 823.27 468.708 823.046 468.976C823.432 468.805 823.821 468.64 824.208 468.469C824.284 468.247 824.359 468.026 824.446 467.803C824.471 467.734 824.51 467.67 824.547 467.609C824.34 467.662 824.136 467.72 823.929 467.773L823.932 467.778ZM812.179 460.084C812.124 459.708 812.269 459.288 812.603 459.053C812.463 458.007 812.382 456.954 812.36 455.895L812.149 455.832C812.069 457.391 811.738 458.937 811.159 460.404C811.147 460.444 811.127 460.48 811.106 460.517C811.461 460.37 811.819 460.229 812.179 460.084ZM819.753 443.554C820.318 442.676 820.909 441.821 821.537 440.99C820.954 441.37 820.357 441.731 819.749 442.07C818.798 442.689 817.845 443.312 816.894 443.93C817.369 444.197 817.85 444.461 818.326 444.723C818.798 444.329 819.27 443.935 819.754 443.55L819.753 443.554ZM808.667 460.708C808.78 460.938 808.898 461.165 809.011 461.395L809.877 461.028C809.677 460.959 809.501 460.815 809.373 460.585C809.336 460.517 809.3 460.449 809.267 460.381C809.142 460.449 809.006 460.485 808.866 460.491C808.802 460.562 808.731 460.637 808.667 460.708ZM816.371 450.675C816.414 450.66 816.457 450.644 816.499 450.632C816.214 450.355 815.934 450.075 815.649 449.798C815.587 449.861 815.52 449.927 815.458 449.99C815.762 450.22 816.066 450.45 816.371 450.675ZM813.924 448.788C814.041 448.67 814.157 448.556 814.273 448.438C813.837 448.011 813.398 447.578 812.962 447.15C812.814 447.307 812.663 447.462 812.515 447.619C812.98 448.015 813.449 448.407 813.923 448.792L813.924 448.788ZM827.269 432.604C827.4 432.308 827.532 432.013 827.668 431.719C827.088 432.329 826.502 432.943 825.922 433.553C826.364 433.227 826.817 432.913 827.27 432.599L827.269 432.604ZM830.445 429.434C830.508 429.286 830.573 429.133 830.633 428.983C831.109 427.859 832.936 428.354 832.489 429.541C832.141 430.474 831.812 431.413 831.51 432.356C831.578 432.448 831.628 432.549 831.662 432.66C831.78 432.729 831.88 432.826 831.948 432.951L832.064 432.661C832.243 432.222 832.604 432.024 832.966 432.013C833.689 429.174 834.502 426.356 835.431 423.579C833.664 425.435 831.898 427.287 830.13 429.143C830.256 429.219 830.363 429.323 830.442 429.443L830.445 429.434ZM827.081 464.586C827.066 464.716 827.052 464.841 827.042 464.971L827.275 464.912C827.295 464.78 827.31 464.65 827.331 464.518C827.248 464.54 827.164 464.563 827.085 464.587L827.081 464.586ZM817.943 472.749C817.615 472.186 817.286 471.624 816.956 471.065C817.263 472.051 817.628 473.018 818.048 473.962C817.991 473.562 817.96 473.156 817.942 472.753L817.943 472.749ZM798.095 435.282C798.402 436.57 798.752 437.842 799.144 439.099C799.137 438.374 800.019 438.051 800.594 438.348C800.913 438.338 801.252 438.483 801.49 438.822C801.799 439.274 802.098 439.727 802.395 440.189C802.594 440.402 802.795 440.611 802.989 440.822C803.23 440.627 803.56 440.53 803.859 440.571C804.27 439.968 805.364 439.938 805.611 440.853C805.73 441.301 805.855 441.745 805.984 442.19C806.121 442.117 806.272 442.076 806.428 442.084C806.757 441.336 808.031 441.571 808.232 442.353L808.668 444.053C809.448 444.833 810.247 445.598 811.063 446.336L811.586 445.79L808.64 442.887C808.201 442.454 808.346 441.861 808.72 441.524C808.246 441.252 807.768 440.98 807.296 440.704C804.215 438.923 801.152 437.113 798.1 435.279L798.095 435.282ZM829.525 449.229C829.296 449.304 829.034 449.301 828.8 449.221L828.614 450.318C828.841 450.439 829.067 450.56 829.299 450.682C829.372 450.197 829.451 449.713 829.525 449.229ZM833.673 463.403C837.559 462.537 841.461 461.762 845.381 461.068C844.151 460.465 842.924 459.852 841.698 459.235C841.693 459.301 841.687 459.366 841.673 459.429C841.716 459.939 841.415 460.447 840.762 460.409C840.762 460.791 840.547 461.157 840.037 461.277C839.698 461.357 839.359 461.432 839.021 461.508C838.861 461.689 838.635 461.822 838.344 461.85C837.846 461.901 837.351 461.939 836.852 461.961C835.561 462.215 834.268 462.443 832.968 462.646C831.779 463.103 830.575 463.526 829.359 463.912C829.337 464.082 829.314 464.252 829.288 464.421C830.747 464.07 832.208 463.729 833.669 463.402L833.673 463.403ZM826.82 467.033C826.795 467.26 826.77 467.487 826.746 467.709C826.716 467.983 826.584 468.201 826.402 468.362C826.479 468.821 826.545 469.285 826.598 469.746C826.73 468.829 826.858 467.91 826.986 466.988C826.93 467 826.873 467.016 826.817 467.028L826.82 467.033ZM817.601 478.463C819.448 482.141 821.299 485.82 823.145 489.502C823.453 488.126 823.743 486.745 824.015 485.363C823.802 485.242 823.631 485.047 823.562 484.782C823.541 484.709 823.529 484.638 823.508 484.565C823.199 484.592 822.865 484.492 822.674 484.267C822.12 483.627 821.613 482.944 821.155 482.237C821.086 482.164 821.019 482.086 820.955 482.01C820.839 481.936 820.738 481.825 820.657 481.666C817.844 478.402 815.843 474.519 814.771 470.361C814.409 470.468 814.05 470.58 813.687 470.691C814.994 473.284 816.298 475.871 817.601 478.463ZM795.928 474.731C800.006 473.177 804.121 471.722 808.269 470.366C808.54 470.275 808.813 470.194 809.084 470.104C808.585 469.935 808.257 469.401 808.369 468.932C808.188 468.978 808.003 469.023 807.821 469.069C801.653 472.018 795.171 474.257 788.497 475.743C788.073 475.835 787.728 475.66 787.521 475.378C786.698 476.24 785.901 477.125 785.127 478.031C786.741 478.31 788.5 477.647 789.975 477.066C791.96 476.285 793.938 475.482 795.931 474.722L795.928 474.731ZM807.331 458.021L807.63 457.838C807.613 457.431 807.611 457.024 807.628 456.617C807.563 456.435 807.499 456.249 807.44 456.064C806.901 455.581 806.391 455.079 805.899 454.553C805.835 454.62 805.772 454.688 805.71 454.75C805.777 454.88 805.837 455.013 805.903 455.143C806.376 456.103 806.858 457.061 807.336 458.018L807.331 458.021Z" fill="#6610F2"/>
<path d="M853.163 419.69C855.127 419.008 857.15 418.511 859.206 418.203L867.769 415.445C868.96 415.061 869.407 416.951 868.227 417.329C866.993 417.728 865.759 418.123 864.525 418.523C864.659 418.506 864.794 418.489 864.923 418.47C865.921 418.334 866.71 419.801 865.609 420.264C863.438 421.186 861.263 422.107 859.093 423.024C857.953 423.51 857.025 421.805 858.175 421.319C858.22 421.298 858.263 421.283 858.307 421.262C857.885 421.298 857.455 421.313 857.031 421.305C855.813 421.413 854.595 421.516 853.375 421.599C852.197 421.681 852.208 420.02 853.169 419.687L853.163 419.69ZM866.027 435.237C872.44 435.431 878.86 435.622 885.273 435.816C886.521 435.851 886.478 437.794 885.232 437.755C882.179 437.661 879.126 437.572 876.073 437.478C875.969 437.873 875.653 438.194 875.153 438.139L868.559 437.447C868.309 437.467 868.062 437.493 867.813 437.524C867.485 437.564 867.214 437.464 867.015 437.284L865.985 437.176C864.761 437.048 864.766 435.198 866.027 435.237ZM852.22 480.016C852.49 479.93 852.795 479.964 853.074 480.182C853.036 479.783 853.014 479.379 853.006 478.975C852.99 477.722 854.931 477.773 854.945 479.017C854.96 480.145 855.121 481.251 855.415 482.31C856.406 483.214 857.336 484.184 858.199 485.212C858.364 485.376 858.535 485.542 858.701 485.707C858.848 485.852 858.93 486.01 858.965 486.164C859.185 486.45 859.4 486.74 859.613 487.033C859.66 487.1 859.711 487.168 859.758 487.235C860.199 487.855 859.716 488.442 859.12 488.579C859.346 489.388 858.21 490.224 857.45 489.488C855.03 487.145 852.994 484.434 851.42 481.455C851.088 480.824 851.599 480.059 852.227 480.009L852.22 480.016ZM842.266 498.801C842.413 498.965 842.561 499.124 842.708 499.288C842.578 499.02 842.447 498.755 842.313 498.485C841.845 497.541 843.151 496.475 843.873 497.366C844.495 498.131 845.128 498.891 845.767 499.647C845.581 499.118 845.403 498.581 845.234 498.042C844.867 496.846 846.756 496.399 847.118 497.584C847.859 500.007 848.846 502.327 850.053 504.554C850.572 505.519 849.241 506.492 848.492 505.674C848.138 505.29 847.792 504.899 847.444 504.513L847.456 504.535C847.932 505.501 846.657 506.496 845.896 505.655L843.877 503.442C844.567 505.156 845.4 506.812 846.381 508.403C847.038 509.466 845.328 510.383 844.675 509.321C842.834 506.339 841.465 503.09 840.617 499.689C840.381 498.752 841.616 498.08 842.271 498.798L842.266 498.801ZM760.528 470.967C760.912 470.786 761.294 470.613 761.682 470.438C761.743 470.074 761.976 469.727 762.366 469.591C763.045 469.355 764.164 469.021 765.293 468.877C766.437 468.412 767.59 467.964 768.755 467.543C768.894 467.494 769.024 467.476 769.135 467.486C769.541 467.268 769.937 467.047 770.337 466.813C771.42 466.186 772.337 467.897 771.255 468.519C770.439 468.991 769.612 469.437 768.769 469.853C768.795 469.895 768.824 469.942 768.844 469.986C769.458 471.223 768.307 472.063 767.442 472.727C767.194 472.916 766.945 473.109 766.697 473.297C767.701 473.412 767.997 475.007 766.866 475.189C765.706 475.372 764.545 475.559 763.389 475.743C762.531 475.878 761.659 474.736 762.499 474.089L764.818 472.307C765.203 472.012 765.59 471.712 765.975 471.416C766.106 471.316 766.356 471.057 766.591 470.864C766.576 470.864 766.566 470.866 766.552 470.867C764.817 471.609 763.03 472.239 761.206 472.754C760.156 473.051 759.517 471.433 760.52 470.96L760.528 470.967ZM757.103 451.991C761.717 451.09 766.39 450.532 771.09 450.317C772.274 450.261 772.25 451.885 771.295 452.229C770.7 452.443 770.096 452.639 769.491 452.821C769.684 453.104 769.731 453.458 769.469 453.786C767.825 455.837 765.611 457.253 763.021 457.772C761.799 458.017 761.341 456.134 762.563 455.888C764.038 455.595 765.409 454.963 766.559 454.032C765.773 453.973 764.984 453.941 764.195 453.939C762.754 454.119 761.297 454.207 759.841 454.2C759.564 454.199 759.341 454.079 759.185 453.898C758.559 453.911 757.936 453.916 757.311 453.91C756.23 453.896 756.008 452.213 757.106 451.997L757.103 451.991ZM786.018 411.696C785.958 411.132 786.342 410.492 786.982 410.588C790.807 411.167 794.427 412.431 797.755 414.411C798.587 414.905 798.149 416.012 797.411 416.178C798.229 416.624 799.045 417.075 799.863 417.521C800.55 417.895 800.41 419.188 799.577 419.287C797.323 419.547 795.039 419.318 792.881 418.616C790.396 418.606 787.945 417.689 786.006 416.04C785.377 415.507 785.791 414.746 786.417 414.527C786.066 414.149 785.731 413.752 785.42 413.338C785.002 412.787 785.214 411.698 786.026 411.703L786.018 411.696ZM793.096 416.657C793.351 416.652 793.602 416.627 793.855 416.598C792.359 415.589 790.714 414.808 788.989 414.276C790.211 415.299 791.601 416.105 793.096 416.657ZM800.798 396.258C801.246 396.598 801.693 396.943 802.141 397.283C802.148 396.496 803.265 396.214 803.843 396.713C804.489 397.272 805.111 397.86 805.706 398.473C805.412 397.796 805.129 397.113 804.868 396.423C804.68 395.931 805.124 395.361 805.583 395.25C806.738 394.97 807.926 395.332 808.651 396.296C809.297 397.154 808.309 398.279 807.55 397.893C808.498 400.038 809.624 402.103 810.904 404.07C811.421 404.867 810.298 405.931 809.534 405.352L808.786 404.784C808.462 404.796 808.133 404.664 807.914 404.326C807.823 404.184 807.726 404.044 807.634 403.907C807.373 403.709 807.112 403.511 806.852 403.308C806.911 403.412 806.967 403.515 807.028 403.615C807.583 404.552 806.178 405.584 805.467 404.734C803.503 402.403 801.538 400.072 799.575 397.737C798.909 396.944 799.881 395.552 800.8 396.254L800.798 396.258Z" fill="#6610F2"/>
<path d="M790.117 430.548C789.802 429.875 790.413 428.796 791.25 429.162C798.749 432.417 806.31 435.592 813.817 438.869C816.773 435.508 819.734 432.145 822.693 428.791C826.696 424.252 830.706 419.721 834.719 415.195C835.256 414.586 836.439 415.123 836.35 415.929C835.181 426.484 834.007 437.038 832.838 447.593C834.915 448.608 836.986 449.646 839.039 450.708C843.37 452.95 847.63 455.329 851.778 457.89C852.509 458.339 852.28 459.437 851.492 459.655C844.603 461.557 837.72 463.499 830.853 465.484L829.567 477.081L827.648 494.389C827.539 495.371 826.368 495.655 825.823 494.827C820.759 487.111 815.911 479.256 811.284 471.271C806.144 472.823 801.017 474.398 795.893 475.997C790.709 477.617 785.538 479.26 780.369 480.927C779.177 481.311 778.73 479.421 779.91 479.044C780.075 478.988 780.243 478.938 780.408 478.882C779.97 478.559 779.737 477.868 780.204 477.333C787.209 469.262 794.234 461.207 801.275 453.161C799.881 450.508 798.512 447.849 797.166 445.178C794.734 440.343 792.385 435.467 790.114 430.557L790.117 430.548ZM832.494 433.187C833.027 428.401 833.557 423.609 834.089 418.823C827.94 425.764 821.801 432.718 815.674 439.68C820.82 441.942 825.937 444.258 830.998 446.696L832.498 433.188L832.494 433.187ZM814.282 441.256C810.722 445.306 807.166 449.361 803.614 453.418C806.38 458.654 809.244 463.838 812.198 468.972C817.817 467.279 823.444 465.615 829.08 463.981L830.77 448.746C825.331 446.133 819.817 443.674 814.285 441.262L814.282 441.256ZM835.355 462.167C839.844 460.884 844.342 459.623 848.845 458.373C843.567 455.209 838.135 452.335 832.611 449.639C832.1 454.226 831.593 458.814 831.082 463.4C832.506 462.991 833.927 462.576 835.354 462.172L835.355 462.167ZM818.843 480.189C821.181 484.015 823.572 487.808 826.016 491.57C826.962 483.067 827.902 474.567 828.847 466.064C823.623 467.58 818.404 469.128 813.194 470.692C815.045 473.878 816.927 477.041 818.848 480.186L818.843 480.189ZM793.444 465.05C789.556 469.508 785.677 473.968 781.801 478.435C791.271 475.39 800.768 472.428 810.29 469.547C807.529 464.739 804.843 459.886 802.243 454.987C799.309 458.339 796.375 461.691 793.448 465.051L793.444 465.05ZM812.42 440.449C809.729 439.277 807.04 438.116 804.353 436.951C800.54 435.294 796.731 433.643 792.918 431.987C796.016 438.59 799.258 445.126 802.641 451.59C805.895 447.875 809.153 444.16 812.415 440.447L812.42 440.449ZM852.677 422.873C859.849 421.113 867.144 419.917 874.502 419.261C875.745 419.151 875.689 421.09 874.46 421.2C867.27 421.839 860.142 423.038 853.135 424.756C851.921 425.057 851.468 423.17 852.678 422.869L852.677 422.873ZM866.181 435.872C871.068 436.545 875.957 437.214 880.844 437.887C882.067 438.053 882.034 439.995 880.802 439.826C875.915 439.153 871.026 438.484 866.139 437.811C864.917 437.645 864.949 435.703 866.181 435.872ZM849.93 478.975C852.785 483.282 855.956 487.371 859.417 491.208C860.249 492.132 858.837 493.459 857.997 492.528C854.428 488.562 851.166 484.34 848.225 479.893C847.534 478.849 849.247 477.937 849.93 478.975ZM845.07 499.945C846.281 502.714 847.711 505.377 849.36 507.915C850.04 508.961 848.326 509.877 847.654 508.833C846.009 506.297 844.574 503.637 843.364 500.863C842.869 499.724 844.572 498.8 845.07 499.945ZM760.932 471.82C763.459 470.828 765.981 469.835 768.507 468.847C769.656 468.398 770.585 470.098 769.425 470.553C766.898 471.545 764.376 472.538 761.85 473.526C760.701 473.975 759.772 472.275 760.932 471.82ZM759.711 453.549C764.148 453.585 768.582 453.62 773.021 453.652C774.271 453.663 774.225 455.601 772.979 455.591C768.541 455.555 764.108 455.52 759.669 455.489C758.419 455.477 758.465 453.539 759.711 453.549ZM785.761 408.332L803.915 417.729C805.02 418.3 803.987 419.941 802.881 419.37L784.727 409.974C783.622 409.403 784.655 407.761 785.761 408.332ZM802.449 395.525C804.19 398.807 806.213 401.916 808.521 404.824C809.291 405.796 807.881 407.129 807.101 406.143C804.693 403.105 802.561 399.868 800.743 396.443C800.156 395.338 801.862 394.42 802.449 395.525Z" fill="#0C0C0D"/>
</g>
<g clip-path="url(#clip4_2068_269)">
<path d="M210 227.436C212.356 223.362 211.756 218.603 212.741 214.229C231.159 128.688 282.516 73.8476 367.539 54.2953C432.987 39.2452 491.925 56.7393 542.424 101.246C546.322 104.72 550.177 106.606 555.36 107.078C607.359 111.923 650.748 134.262 685.271 173.238C714.226 205.954 730.631 244.372 734.229 288.022C738.298 337.289 725.919 382.096 696.922 422.229C695.637 423.987 695.123 425.617 695.465 427.889C699.792 456.96 704.032 486.032 708.272 515.103C709.429 523.164 706.559 525.479 698.635 523.035C668.181 513.645 637.727 504.298 607.316 494.822C603.418 493.578 599.991 493.75 596.008 494.864C522.507 515.617 456.716 501.553 399.32 450.486C397.393 448.771 395.594 447.313 392.724 447.141C377.176 446.07 362.013 442.768 347.236 437.794C344.152 436.765 341.411 436.679 338.284 437.665C309.029 446.841 279.732 455.931 250.477 465.064C249.834 465.279 249.192 465.45 248.507 465.665C237.284 468.752 235.143 466.822 236.856 455.46C241.139 427.246 245.294 399.033 249.62 370.819C249.963 368.546 249.32 366.96 248.078 365.245C229.789 340.333 217.881 312.72 212.484 282.276C211.799 278.375 212.27 274.215 210 270.614V227.479L210 227.436ZM327.447 430.462C320.937 427.118 315.283 424.33 309.8 421.329C302.647 417.384 295.751 412.925 289.283 407.908C287.056 406.193 286.071 403.964 287.955 401.219C289.883 398.475 292.239 398.132 295.023 399.762C296.179 400.448 297.336 401.219 298.449 402.034C327.147 422.658 359.101 434.064 394.352 437.108C419.195 439.252 443.31 436.422 466.825 428.661C564.398 396.417 617.896 296.04 590.525 196.778C565.126 104.805 471.75 45.6769 377.818 62.0562C326.291 71.0176 285.129 96.8729 254.931 139.365C222.85 184.515 213.298 234.768 224.349 288.922C229.789 315.507 241.182 339.432 257.073 361.3C258.444 363.144 260.5 364.73 260.071 367.517C257.844 382.139 255.617 396.76 253.475 411.424C251.591 424.373 249.792 437.365 247.907 450.314C247.436 453.53 247.607 455.031 251.762 453.573C259.9 450.7 268.295 448.514 276.519 446.027C293.181 440.924 309.843 435.822 327.404 430.419L327.447 430.462ZM412.127 448.256C412.599 448.814 412.856 449.242 413.198 449.543C446.993 478.013 486.185 492.506 530.089 494.178C552.918 495.036 575.191 491.606 596.822 484.059C600.034 482.944 602.99 482.987 606.202 484.016C622.864 489.247 639.569 494.307 656.274 499.367C669.766 503.483 683.301 507.513 697.436 511.758C696.579 506.013 695.808 500.953 695.08 495.936C691.868 474.026 688.869 452.115 685.357 430.29C684.5 424.845 685.271 420.686 688.527 416.098C719.923 371.805 732.387 322.496 721.208 269.327C705.531 194.849 659.829 146.182 587.313 123.028C578.275 120.156 568.852 118.183 559.215 117.497C610.1 182.457 623.978 253.42 590.14 329.185C556.345 404.907 494.537 442.468 412.127 448.171V448.256Z" fill="#040404"/>
<path d="M327.447 430.462C309.886 435.865 293.224 440.967 276.562 446.07C268.295 448.6 259.943 450.743 251.805 453.616C247.693 455.074 247.521 453.531 247.95 450.358C249.834 437.409 251.591 424.417 253.518 411.467C255.66 396.846 257.887 382.225 260.114 367.561C260.543 364.774 258.487 363.187 257.116 361.343C241.225 339.476 229.789 315.55 224.392 288.966C213.341 234.811 222.893 184.515 254.932 139.408C285.086 96.8732 326.248 71.0607 377.818 62.0564C471.751 45.6771 565.169 104.806 590.525 196.736C617.896 295.998 564.44 396.417 466.825 428.619C443.31 436.379 419.195 439.209 394.352 437.065C359.101 434.021 327.147 422.616 298.45 401.991C297.336 401.177 296.222 400.405 295.023 399.719C292.239 398.09 289.883 398.433 287.956 401.177C286.028 403.921 287.056 406.108 289.283 407.866C295.751 412.882 302.647 417.342 309.8 421.286C315.283 424.331 320.937 427.075 327.447 430.419V430.462ZM406.431 360.786C410.885 360.786 416.539 356.412 420.908 355.812C449.392 351.867 469.438 342.992 487.641 320.567C509.786 293.296 518.866 265.94 509.786 231.638C500.877 197.893 479.075 173.667 448.664 157.588C430.16 147.812 413.969 147.855 393.153 152.271C359.443 159.432 332.159 171.995 313.826 200.98C311.77 204.196 309.458 207.026 306.673 209.599C297.507 218.046 287.998 226.15 280.031 235.84C275.834 240.943 272.621 246.388 272.536 253.291C272.364 269.027 281.959 281.076 297.55 283.949C301.619 284.721 303.675 286.307 305.131 290.381C320.765 333.258 360.985 361.343 406.388 360.743L406.431 360.786ZM273.564 350.924C273.307 353.282 274.292 355.255 276.434 355.812C287.056 358.556 293.095 365.46 296.436 375.75C297.893 380.167 303.118 379.824 305.56 375.75C306.588 373.992 307.701 372.191 308.215 370.262C309.972 363.702 314.255 360.057 320.594 358.127C324.021 357.056 328.604 356.198 328.732 351.61C328.904 346.636 324.106 345.693 320.594 344.535C313.912 342.391 309.543 338.318 307.616 331.586C307.359 330.6 306.888 329.699 306.459 328.756C305.346 326.269 304.318 323.611 300.891 323.568C297.507 323.525 295.965 325.926 295.28 328.585C292.838 337.761 286.928 343.335 277.976 345.993C277.033 346.293 276.134 346.894 275.32 347.451C274.121 348.266 273.435 349.38 273.564 350.924ZM512.956 187.26C515.268 186.616 517.11 185.373 517.753 183.058C520.366 173.796 526.234 167.922 535.571 165.521C536.042 165.392 536.471 165.049 536.942 164.792C541.439 162.09 541.354 158.017 536.728 155.401C535.271 154.587 533.729 153.772 532.102 153.3C525.42 151.328 521.137 147.212 519.081 140.394C518.01 136.835 516.939 132.033 511.928 132.333C507.387 132.59 506.531 137.178 505.46 140.609C503.532 146.783 499.977 150.942 493.595 152.614C492.482 152.914 491.454 153.686 490.383 154.115C487.77 155.187 485.071 156.43 485.157 159.689C485.243 162.819 487.727 164.277 490.468 165.22C498.478 167.965 505.203 171.909 506.659 181.342C506.873 182.757 508.073 184.044 509.015 185.244C509.957 186.531 511.456 187.045 512.956 187.26ZM326.291 144.853C326.376 134.52 319.138 127.016 308.901 126.802C298.621 126.587 291.125 133.877 291.039 144.253C290.911 155.015 298.278 162.733 308.558 162.648C318.838 162.562 326.205 155.187 326.291 144.853ZM505.203 341.362C494.666 341.362 487.684 348.351 487.599 358.942C487.513 369.619 494.966 377.337 505.331 377.294C515.183 377.251 522.807 369.319 522.807 359.071C522.807 348.609 515.611 341.362 505.203 341.362Z" fill="#6610F2"/>
<path d="M412.127 448.256C494.537 442.554 556.345 404.993 590.14 329.271C623.935 253.463 610.057 182.543 559.215 117.583C568.895 118.226 578.275 120.199 587.313 123.114C659.786 146.268 705.531 194.892 721.208 269.413C732.387 322.539 719.923 371.848 688.526 416.184C685.271 420.772 684.5 424.931 685.357 430.376C688.869 452.201 691.867 474.155 695.08 496.022C695.808 501.039 696.579 506.099 697.436 511.844C683.301 507.599 669.766 503.526 656.274 499.452C639.569 494.393 622.864 489.333 606.202 484.102C602.947 483.073 600.034 483.03 596.822 484.145C575.234 491.692 552.918 495.165 530.089 494.264C486.142 492.592 446.993 478.099 413.198 449.629C412.813 449.328 412.556 448.9 412.127 448.342V448.256Z" fill="#FCE165"/>
<path d="M406.559 353.282C366.211 353.196 327.062 326.098 312.499 288.494C311.128 284.935 313.612 282.834 317.339 280.69C328.946 274.087 333.444 262.167 330.617 248.232C328.175 236.226 324.791 224.52 321.322 212.772C320.594 210.328 320.423 208.312 321.879 206.04C339.14 179.327 360.685 153.386 408.187 153.386C431.488 153.386 434.186 151.928 449.692 159.818C481.174 175.854 501.048 202.181 508.158 237.727C513.341 263.625 505.674 288.194 490.768 309.675C472.393 336.088 438.512 353.368 406.559 353.282ZM408.915 251.147C391.825 251.147 374.734 251.147 357.687 251.147C351.305 251.147 348.949 253.849 349.677 259.98C353.147 289.137 379.232 312.248 408.487 312.119C438.041 311.991 463.612 289.308 467.339 259.894C468.195 253.334 466.268 251.104 459.629 251.104C442.71 251.104 425.791 251.104 408.915 251.104V251.147ZM369.98 193.52C361.114 194.591 352.89 197.807 346.85 205.225C344.709 207.884 342.824 211.142 346.55 214.144C350.148 217.059 352.376 214.53 354.517 211.785C358.329 206.855 362.955 203.81 369.552 203.596C377.047 203.339 382.144 206.683 386.299 212.386C388.312 215.13 390.968 216.545 394.138 214.229C397.564 211.7 396.622 208.87 394.437 205.868C388.441 197.679 380.088 194.291 369.937 193.477L369.98 193.52ZM447.25 193.605C439.026 193.605 428.061 198.922 423.392 204.839C422.364 206.168 421.422 207.541 421.036 209.299C420.522 211.871 421.379 213.758 423.521 214.873C425.491 215.902 427.504 215.516 429.046 213.672C430.117 212.343 431.188 211.014 432.344 209.77C440.44 201.066 453.289 201.28 460.999 210.199C461.985 211.357 462.884 212.6 463.912 213.758C465.325 215.301 467.21 215.773 469.052 214.958C471.108 214.101 471.965 212.3 471.836 209.985C471.75 207.626 470.594 205.74 469.095 204.11C463.055 197.507 455.345 194.463 447.25 193.562V193.605Z" fill="#FBE065"/>
<path d="M406.388 360.743C361.028 361.343 320.765 333.301 305.131 290.38C303.632 286.307 301.576 284.678 297.55 283.949C281.959 281.033 272.364 269.027 272.536 253.291C272.621 246.388 275.834 240.942 280.031 235.84C287.998 226.149 297.507 218.046 306.673 209.599C309.457 207.026 312.07 204.368 313.826 200.98C328.475 172.466 369.038 145.839 410.157 145.839C467.553 145.839 515.654 197.207 515.654 251.104C515.654 309.204 471.108 360.743 406.431 360.743H406.388ZM406.816 351.524C438.769 351.61 469.609 335.702 487.984 309.289C502.89 287.851 506.188 277.56 506.188 251.061C506.188 198.45 453.975 155.23 410.157 155.23C369.123 155.23 339.183 179.241 321.922 205.954C320.465 208.227 320.637 210.242 321.365 212.686C324.834 224.391 328.218 236.14 330.66 248.146C333.487 262.081 328.989 273.958 317.382 280.604C313.612 282.748 313.484 284.635 314.854 288.194C329.417 325.84 366.553 351.395 406.859 351.481L406.816 351.524ZM312.499 217.702C303.247 227.178 294.038 235.24 286.028 244.673C280.46 251.233 281.83 261.867 286.842 267.741C292.41 274.301 302.818 276.874 310.614 273.401C318.966 269.67 323.507 261.824 321.493 253.12C318.838 241.543 315.668 230.137 312.499 217.702Z" fill="#030303"/>
<path d="M273.521 350.924C273.349 349.38 274.078 348.266 275.277 347.451C276.091 346.893 276.99 346.25 277.933 345.993C286.885 343.335 292.796 337.76 295.237 328.585C295.965 325.926 297.464 323.525 300.848 323.568C304.275 323.611 305.303 326.269 306.416 328.756C306.845 329.699 307.273 330.6 307.573 331.586C309.5 338.318 313.869 342.391 320.551 344.535C324.063 345.65 328.861 346.593 328.689 351.61C328.518 356.198 323.978 357.055 320.551 358.127C314.212 360.057 309.929 363.702 308.172 370.262C307.658 372.191 306.545 373.992 305.517 375.75C303.118 379.866 297.85 380.167 296.393 375.75C293.01 365.46 287.013 358.556 276.391 355.812C274.292 355.255 273.264 353.282 273.521 350.924ZM311.171 351.782C305.688 350.066 302.818 346.293 300.591 340.205C299.006 346.422 295.665 349.552 290.997 352.082C296.736 352.811 298.835 357.098 301.148 362.029C303.204 356.712 305.859 353.111 311.128 351.782H311.171Z" fill="#020202"/>
<path d="M512.913 187.217C511.414 187.002 509.957 186.445 508.972 185.201C508.073 184.001 506.873 182.672 506.616 181.3C505.117 171.909 498.435 167.922 490.426 165.178C487.684 164.234 485.2 162.776 485.114 159.646C485.029 156.43 487.727 155.144 490.34 154.072C491.453 153.601 492.439 152.829 493.552 152.571C499.892 150.899 503.489 146.74 505.417 140.566C506.488 137.135 507.344 132.548 511.885 132.29C516.853 132.033 517.967 136.792 519.038 140.351C521.094 147.169 525.334 151.285 532.059 153.258C533.687 153.729 535.186 154.544 536.685 155.359C541.311 157.974 541.396 162.047 536.899 164.749C536.471 165.006 536.042 165.349 535.528 165.478C526.191 167.879 520.323 173.753 517.71 183.015C517.067 185.373 515.226 186.574 512.913 187.217ZM503.19 159.775C508.544 161.233 510.814 165.306 512.913 169.851C513.941 164.406 517.796 162.005 522.893 159.603C517.539 157.717 514.283 154.758 512.484 149.827C511.414 155.144 507.987 157.631 503.19 159.818V159.775Z" fill="#030203"/>
<path d="M326.291 144.853C326.205 155.187 318.838 162.562 308.558 162.647C298.278 162.733 290.911 154.972 291.039 144.253C291.168 133.876 298.621 126.587 308.901 126.801C319.18 127.016 326.376 134.519 326.291 144.853ZM316.653 143.995C316.61 139.536 312.927 136.063 308.344 136.192C304.189 136.32 300.591 139.965 300.505 144.124C300.42 148.455 304.36 152.357 308.644 152.271C313.141 152.142 316.696 148.455 316.653 144.038V143.995Z" fill="#030203"/>
<path d="M505.203 341.362C515.611 341.362 522.807 348.609 522.807 359.071C522.807 369.319 515.183 377.251 505.331 377.294C495.008 377.337 487.556 369.619 487.598 358.942C487.684 348.351 494.666 341.362 505.203 341.362ZM504.989 367.175C509.743 367.26 513.041 364.088 513.212 359.285C513.384 354.826 509.7 350.881 505.374 350.838C501.005 350.838 497.321 354.483 497.193 358.985C497.064 363.702 500.277 367.089 505.031 367.132L504.989 367.175Z" fill="#030303"/>
<path d="M312.499 217.746C315.668 230.18 318.838 241.629 321.493 253.163C323.464 261.867 318.966 269.713 310.614 273.444C302.818 276.917 292.41 274.344 286.842 267.784C281.83 261.867 280.46 251.276 286.028 244.716C293.995 235.325 303.247 227.222 312.499 217.746Z" fill="#84F8FC"/>
<path d="M311.214 351.782C305.902 353.111 303.247 356.713 301.234 362.029C298.878 357.056 296.822 352.811 291.082 352.082C295.751 349.552 299.135 346.422 300.677 340.205C302.904 346.293 305.774 350.066 311.256 351.782H311.214Z" fill="#E34747"/>
<path d="M503.19 159.775C507.944 157.588 511.413 155.101 512.484 149.784C514.283 154.758 517.539 157.717 522.893 159.56C517.796 162.004 513.941 164.406 512.913 169.808C510.814 165.306 508.544 161.19 503.19 159.732V159.775Z" fill="#E34747"/>
<path d="M316.653 143.996C316.696 148.455 313.141 152.142 308.644 152.228C304.318 152.357 300.42 148.455 300.505 144.081C300.591 139.922 304.189 136.278 308.344 136.149C312.927 136.02 316.611 139.493 316.653 143.953V143.996Z" fill="#F6DC66"/>
<path d="M504.989 367.174C500.277 367.089 497.065 363.744 497.15 359.027C497.279 354.525 500.962 350.838 505.331 350.881C509.657 350.881 513.341 354.825 513.17 359.328C512.998 364.087 509.7 367.26 504.946 367.217L504.989 367.174Z" fill="#F6DC66"/>
<path d="M408.872 251.104C425.791 251.104 442.71 251.104 459.586 251.104C466.225 251.104 468.153 253.334 467.296 259.894C463.527 289.309 437.955 311.948 408.444 312.12C379.189 312.248 353.104 289.137 349.635 259.98C348.906 253.806 351.262 251.147 357.644 251.147C374.734 251.147 391.825 251.147 408.872 251.147V251.104ZM361.756 265.383C362.913 272.844 366.896 278.889 371.308 284.764C373.107 287.122 374.606 287.293 377.219 285.664C386.599 279.747 396.965 276.831 408.058 276.703C419.709 276.531 430.503 279.49 440.44 285.664C441.939 286.607 443.395 288.151 445.237 285.921C450.72 279.275 455.174 272.2 456.202 263.41C457.359 260.023 454.532 261.352 453.461 261.352C423.692 261.267 393.881 261.352 364.112 261.267C360.514 261.267 359.872 262.51 361.799 265.383H361.756ZM381.973 293.596C395.208 303.93 415.383 305.13 430.974 296.855C432.259 296.169 434.358 295.869 434.4 294.197C434.4 292.524 432.302 292.267 431.059 291.495C422.45 286.179 412.898 286.993 403.39 286.822C395.508 286.65 388.869 289.437 381.973 293.553V293.596Z" fill="#030302"/>
<path d="M369.98 193.477C380.131 194.334 388.484 197.679 394.48 205.868C396.665 208.827 397.607 211.7 394.18 214.229C391.011 216.545 388.355 215.13 386.342 212.386C382.187 206.683 377.047 203.338 369.594 203.596C362.998 203.81 358.372 206.854 354.56 211.785C352.461 214.53 350.234 217.016 346.593 214.144C342.867 211.142 344.752 207.883 346.893 205.225C352.89 197.807 361.156 194.591 370.023 193.519L369.98 193.477Z" fill="#040403"/>
<path d="M447.207 193.562C455.303 194.463 463.013 197.507 469.052 204.11C470.551 205.74 471.665 207.626 471.793 209.985C471.879 212.3 471.022 214.058 469.009 214.958C467.167 215.773 465.283 215.302 463.869 213.758C462.841 212.6 461.985 211.357 460.957 210.199C453.247 201.238 440.397 201.023 432.302 209.77C431.145 211.014 430.074 212.343 429.003 213.672C427.462 215.516 425.448 215.902 423.478 214.873C421.336 213.758 420.48 211.828 420.994 209.299C421.336 207.541 422.322 206.169 423.35 204.839C428.018 198.922 438.983 193.605 447.207 193.605V193.562Z" fill="#040403"/>
<path d="M456.202 263.453C455.217 272.243 450.72 279.361 445.237 285.964C443.395 288.194 441.939 286.65 440.44 285.707C430.545 279.532 419.709 276.574 408.058 276.745C396.965 276.874 386.599 279.79 377.219 285.707C374.606 287.336 373.107 287.208 371.308 284.806C366.896 278.932 362.913 272.886 361.756 265.426C361.585 261.395 364.54 262.381 366.725 262.381C394.951 262.381 423.178 262.381 451.405 262.381C453.033 262.381 454.874 261.781 456.159 263.453H456.202Z" fill="#EF4242"/>
<path d="M381.973 293.639C388.826 289.523 395.508 286.736 403.389 286.907C412.898 287.122 422.493 286.307 431.059 291.581C432.302 292.353 434.4 292.61 434.4 294.282C434.4 295.955 432.259 296.255 430.974 296.941C415.383 305.216 395.208 304.016 381.973 293.682V293.639Z" fill="#EC4343"/>
<path d="M456.202 263.453C454.917 261.781 453.075 262.381 451.448 262.381C423.221 262.381 394.994 262.381 366.768 262.381C364.583 262.381 361.585 261.395 361.799 265.426C359.871 262.553 360.514 261.309 364.112 261.309C393.881 261.352 423.692 261.309 453.461 261.395C454.532 261.395 457.359 260.109 456.202 263.453Z" fill="#DF6161"/>
</g>
<defs>
<clipPath id="clip0_2068_269">
<rect width="128" height="128" fill="white" transform="translate(36.2505 402.509) rotate(-9.56989)"/>
</clipPath>
<clipPath id="clip1_2068_269">
<rect width="140.499" height="140.499" fill="white" transform="translate(55.3433 59.9785) rotate(23.1977)"/>
</clipPath>
<clipPath id="clip2_2068_269">
<rect width="192.477" height="192.477" fill="white" transform="matrix(-0.918534 0.395342 0.395342 0.918534 904.796 0)"/>
</clipPath>
<clipPath id="clip3_2068_269">
<rect width="137.44" height="137.44" fill="white" transform="matrix(-0.95777 -0.287537 -0.287537 0.95777 905.155 404.47)"/>
</clipPath>
<clipPath id="clip4_2068_269">
<rect width="525" height="475" fill="white" transform="translate(210 48.9785)"/>
</clipPath>
</defs>
</svg>
