<svg width="720" height="251" viewBox="0 0 720 251" fill="none" xmlns="http://www.w3.org/2000/svg">
<path d="M30.9088 130.784C26.0555 130.784 21.8955 129.12 18.4288 125.792C14.9622 122.325 13.2288 118.165 13.2288 113.312C13.2288 108.459 14.9622 104.299 18.4288 100.832C22.0342 97.2267 26.1942 95.424 30.9088 95.424C35.6235 95.424 39.7142 97.2267 43.1808 100.832C46.7862 104.299 48.5888 108.459 48.5888 113.312C48.5888 118.027 46.9248 122.117 43.5968 125.584C40.2688 129.051 36.0395 130.784 30.9088 130.784ZM30.4928 248.512C25.2235 248.512 20.9248 246.848 17.5968 243.52C14.4075 240.331 12.8128 236.032 12.8128 230.624C12.8128 226.187 13.7142 221.819 15.5168 217.52C17.3195 213.221 19.3302 208.091 21.5488 202.128C23.6288 196.027 25.5008 188.747 27.1648 180.288C28.9675 171.691 29.7995 160.944 29.6608 148.048H31.7408C31.6022 160.944 32.3648 171.691 34.0288 180.288C35.8315 188.747 37.7728 196.027 39.8528 202.128C41.7942 208.091 43.6662 213.221 45.4688 217.52C47.2715 221.819 48.1728 226.187 48.1728 230.624C48.1728 236.032 46.5088 240.331 43.1808 243.52C39.9915 246.848 35.7622 248.512 30.4928 248.512ZM149.168 206.912C132.528 206.912 117.899 203.584 105.28 196.928C92.8002 190.133 83.0242 180.704 75.9522 168.64C69.0189 156.437 65.5522 142.224 65.5522 126C65.5522 109.776 69.0189 95.632 75.9522 83.568C83.0242 71.3653 92.8002 61.936 105.28 55.28C117.899 48.4853 132.528 45.088 149.168 45.088C165.808 45.088 180.368 48.4853 192.848 55.28C205.467 61.936 215.243 71.3653 222.176 83.568C229.248 95.632 232.784 109.776 232.784 126C232.784 142.224 229.248 156.437 222.176 168.64C215.243 180.704 205.467 190.133 192.848 196.928C180.368 203.584 165.808 206.912 149.168 206.912ZM149.168 203.584C156.379 203.584 162.966 201.712 168.928 197.968C174.891 194.224 180.022 188.955 184.32 182.16C188.48 175.365 191.67 167.184 193.888 157.616C196.246 148.048 197.424 137.44 197.424 125.792C197.424 114.144 196.246 103.536 193.888 93.968C191.67 84.2613 188.48 76.0107 184.32 69.216C180.022 62.4213 174.891 57.152 168.928 53.408C162.966 49.664 156.379 47.792 149.168 47.792C141.958 47.792 135.371 49.664 129.408 53.408C123.446 57.152 118.384 62.4213 114.224 69.216C109.926 76.0107 106.598 84.2613 104.24 93.968C102.022 103.536 100.912 114.144 100.912 125.792C100.912 137.44 102.022 148.048 104.24 157.616C106.598 167.184 109.926 175.365 114.224 182.16C118.384 188.955 123.446 194.224 129.408 197.968C135.371 201.712 141.958 203.584 149.168 203.584ZM232.747 204V201.92C237.6 201.92 241.205 200.949 243.563 199.008C246.059 196.928 247.653 194.293 248.347 191.104C249.179 187.915 249.595 184.448 249.595 180.704V66.72C249.595 61.728 248 57.7067 244.811 54.656C241.76 51.6053 237.739 50.08 232.747 50.08V48H253.963C261.035 48 266.443 47.2373 270.187 45.712C273.653 44.1867 276.08 42.3147 277.467 40.096H279.547V119.136C283.291 111.787 288.768 106.032 295.979 101.872C303.189 97.5733 310.885 95.424 319.067 95.424C325.584 95.424 331.131 96.9493 335.707 100C340.283 102.912 343.749 106.864 346.107 111.856C348.603 116.848 349.851 122.464 349.851 128.704V185.28C349.851 190.411 351.376 194.501 354.427 197.552C357.616 200.464 361.707 201.92 366.699 201.92V204H303.259V201.92C308.251 201.92 312.272 200.464 315.323 197.552C318.512 194.501 320.107 190.411 320.107 185.28V126.624C320.107 123.573 319.691 120.315 318.859 116.848C318.027 113.243 316.501 110.192 314.283 107.696C312.203 105.061 309.221 103.744 305.339 103.744C301.733 103.744 298.267 104.853 294.939 107.072C291.749 109.152 288.837 111.787 286.203 114.976C283.568 118.165 281.349 121.355 279.547 124.544V180.704C279.547 184.448 279.893 187.915 280.587 191.104C281.419 194.293 283.013 196.928 285.371 199.008C287.867 200.949 291.541 201.92 296.395 201.92V204H232.747ZM409.901 204V201.92H410.109C415.101 201.92 419.122 200.395 422.173 197.344C425.224 194.293 426.749 190.272 426.749 185.28V117.056C426.749 111.787 425.64 107.696 423.421 104.784C421.341 101.872 416.834 100.416 409.901 100.416V98.336H430.493C437.565 98.336 442.973 97.5733 446.717 96.048C450.184 94.5227 452.61 92.6507 453.997 90.432H456.077L456.285 119.552C459.89 112.341 465.368 106.517 472.717 102.08C480.066 97.6427 487.832 95.424 496.013 95.424C505.304 95.424 512.722 98.4747 518.269 104.576C523.954 110.677 526.797 118.72 526.797 128.704V185.28C526.797 190.272 528.322 194.293 531.373 197.344C534.424 200.395 538.445 201.92 543.437 201.92H543.645V204H480.205V201.92H480.413C485.405 201.92 489.426 200.395 492.477 197.344C495.528 194.293 497.053 190.272 497.053 185.28V126.624C497.053 119.691 495.666 114.144 492.893 109.984C490.258 105.824 486.722 103.744 482.285 103.744C477.986 103.744 473.48 105.616 468.765 109.36C464.189 112.965 460.168 117.888 456.701 124.128V185.28C456.701 190.272 458.226 194.293 461.277 197.344C464.328 200.395 468.349 201.92 473.341 201.92H473.549V204H409.901ZM601.697 206.912C590.326 206.912 580.342 204.624 571.745 200.048C563.286 195.472 556.699 189.024 551.985 180.704C547.27 172.384 544.913 162.539 544.913 151.168C544.913 139.797 547.27 129.952 551.985 121.632C556.699 113.312 563.286 106.864 571.745 102.288C580.342 97.712 590.326 95.424 601.697 95.424C613.067 95.424 622.982 97.712 631.441 102.288C639.899 106.864 646.486 113.312 651.201 121.632C655.915 129.952 658.273 139.797 658.273 151.168C658.273 162.539 655.915 172.384 651.201 180.704C646.486 189.024 639.899 195.472 631.441 200.048C622.982 204.624 613.067 206.912 601.697 206.912ZM601.489 204.208C606.342 204.208 610.502 201.781 613.969 196.928C617.435 192.075 620.139 185.627 622.081 177.584C624.022 169.403 624.993 160.528 624.993 150.96C624.993 140.56 623.953 131.408 621.873 123.504C619.931 115.461 617.158 109.221 613.553 104.784C610.086 100.208 606.134 97.92 601.697 97.92C596.982 97.92 592.822 100.347 589.217 105.2C585.75 110.053 583.046 116.501 581.105 124.544C579.163 132.587 578.193 141.392 578.193 150.96C578.193 161.499 579.233 170.789 581.313 178.832C583.393 186.875 586.166 193.115 589.633 197.552C593.238 201.989 597.19 204.208 601.489 204.208ZM688.288 147.632C688.288 134.736 687.387 123.851 685.584 114.976C683.92 106.101 682.117 98.4747 680.176 92.096C678.235 85.9947 676.363 80.7253 674.56 76.288C672.757 71.712 671.856 67.2053 671.856 62.768C671.856 57.4987 673.451 53.2693 676.64 50.08C679.829 46.752 684.059 45.088 689.328 45.088C694.736 45.088 699.035 46.752 702.224 50.08C705.552 53.2693 707.216 57.4987 707.216 62.768C707.216 67.2053 706.315 71.712 704.512 76.288C702.848 80.7253 700.976 85.9947 698.896 92.096C696.677 98.4747 694.667 106.101 692.864 114.976C691.2 123.851 690.368 134.736 690.368 147.632H688.288ZM689.12 206.912C684.267 206.912 680.107 205.179 676.64 201.712C673.173 198.245 671.44 194.085 671.44 189.232C671.44 184.101 673.243 179.872 676.848 176.544C680.453 173.216 684.544 171.552 689.12 171.552C693.696 171.552 697.787 173.216 701.392 176.544C704.997 179.872 706.8 184.101 706.8 189.232C706.8 194.085 705.067 198.245 701.6 201.712C698.133 205.179 693.973 206.912 689.12 206.912Z" fill="#0C0C0D"/>
<path d="M28.912 129.784C24.0587 129.784 19.8987 128.12 16.432 124.792C12.9653 121.325 11.232 117.165 11.232 112.312C11.232 107.459 12.9653 103.299 16.432 99.832C20.0373 96.2267 24.1973 94.424 28.912 94.424C33.6267 94.424 37.7173 96.2267 41.184 99.832C44.7893 103.299 46.592 107.459 46.592 112.312C46.592 117.027 44.928 121.117 41.6 124.584C38.272 128.051 34.0427 129.784 28.912 129.784ZM28.496 247.512C23.2267 247.512 18.928 245.848 15.6 242.52C12.4107 239.331 10.816 235.032 10.816 229.624C10.816 225.187 11.7173 220.819 13.52 216.52C15.3227 212.221 17.3333 207.091 19.552 201.128C21.632 195.027 23.504 187.747 25.168 179.288C26.9707 170.691 27.8027 159.944 27.664 147.048H29.744C29.6053 159.944 30.368 170.691 32.032 179.288C33.8347 187.747 35.776 195.027 37.856 201.128C39.7973 207.091 41.6693 212.221 43.472 216.52C45.2747 220.819 46.176 225.187 46.176 229.624C46.176 235.032 44.512 239.331 41.184 242.52C37.9947 245.848 33.7653 247.512 28.496 247.512ZM147.171 205.912C130.531 205.912 115.902 202.584 103.283 195.928C90.8034 189.133 81.0274 179.704 73.9554 167.64C67.022 155.437 63.5554 141.224 63.5554 125C63.5554 108.776 67.022 94.632 73.9554 82.568C81.0274 70.3653 90.8034 60.936 103.283 54.28C115.902 47.4853 130.531 44.088 147.171 44.088C163.811 44.088 178.371 47.4853 190.851 54.28C203.47 60.936 213.246 70.3653 220.179 82.568C227.251 94.632 230.787 108.776 230.787 125C230.787 141.224 227.251 155.437 220.179 167.64C213.246 179.704 203.47 189.133 190.851 195.928C178.371 202.584 163.811 205.912 147.171 205.912ZM147.171 202.584C154.382 202.584 160.969 200.712 166.931 196.968C172.894 193.224 178.025 187.955 182.323 181.16C186.483 174.365 189.673 166.184 191.891 156.616C194.249 147.048 195.427 136.44 195.427 124.792C195.427 113.144 194.249 102.536 191.891 92.968C189.673 83.2613 186.483 75.0107 182.323 68.216C178.025 61.4213 172.894 56.152 166.931 52.408C160.969 48.664 154.382 46.792 147.171 46.792C139.961 46.792 133.374 48.664 127.411 52.408C121.449 56.152 116.387 61.4213 112.227 68.216C107.929 75.0107 104.601 83.2613 102.243 92.968C100.025 102.536 98.9154 113.144 98.9154 124.792C98.9154 136.44 100.025 147.048 102.243 156.616C104.601 166.184 107.929 174.365 112.227 181.16C116.387 187.955 121.449 193.224 127.411 196.968C133.374 200.712 139.961 202.584 147.171 202.584ZM230.75 203V200.92C235.603 200.92 239.209 199.949 241.566 198.008C244.062 195.928 245.657 193.293 246.35 190.104C247.182 186.915 247.598 183.448 247.598 179.704V65.72C247.598 60.728 246.003 56.7067 242.814 53.656C239.763 50.6053 235.742 49.08 230.75 49.08V47H251.966C259.038 47 264.446 46.2373 268.19 44.712C271.657 43.1867 274.083 41.3147 275.47 39.096H277.55V118.136C281.294 110.787 286.771 105.032 293.982 100.872C301.193 96.5733 308.889 94.424 317.07 94.424C323.587 94.424 329.134 95.9493 333.71 99C338.286 101.912 341.753 105.864 344.11 110.856C346.606 115.848 347.854 121.464 347.854 127.704V184.28C347.854 189.411 349.379 193.501 352.43 196.552C355.619 199.464 359.71 200.92 364.702 200.92V203H301.262V200.92C306.254 200.92 310.275 199.464 313.326 196.552C316.515 193.501 318.11 189.411 318.11 184.28V125.624C318.11 122.573 317.694 119.315 316.862 115.848C316.03 112.243 314.505 109.192 312.286 106.696C310.206 104.061 307.225 102.744 303.342 102.744C299.737 102.744 296.27 103.853 292.942 106.072C289.753 108.152 286.841 110.787 284.206 113.976C281.571 117.165 279.353 120.355 277.55 123.544V179.704C277.55 183.448 277.897 186.915 278.59 190.104C279.422 193.293 281.017 195.928 283.374 198.008C285.87 199.949 289.545 200.92 294.398 200.92V203H230.75ZM407.904 203V200.92H408.112C413.104 200.92 417.126 199.395 420.176 196.344C423.227 193.293 424.752 189.272 424.752 184.28V116.056C424.752 110.787 423.643 106.696 421.424 103.784C419.344 100.872 414.838 99.416 407.904 99.416V97.336H428.496C435.568 97.336 440.976 96.5733 444.72 95.048C448.187 93.5227 450.614 91.6507 452 89.432H454.08L454.288 118.552C457.894 111.341 463.371 105.517 470.72 101.08C478.07 96.6427 485.835 94.424 494.016 94.424C503.307 94.424 510.726 97.4747 516.272 103.576C521.958 109.677 524.8 117.72 524.8 127.704V184.28C524.8 189.272 526.326 193.293 529.376 196.344C532.427 199.395 536.448 200.92 541.44 200.92H541.648V203H478.208V200.92H478.416C483.408 200.92 487.43 199.395 490.48 196.344C493.531 193.293 495.056 189.272 495.056 184.28V125.624C495.056 118.691 493.67 113.144 490.896 108.984C488.262 104.824 484.726 102.744 480.288 102.744C475.99 102.744 471.483 104.616 466.768 108.36C462.192 111.965 458.171 116.888 454.704 123.128V184.28C454.704 189.272 456.23 193.293 459.28 196.344C462.331 199.395 466.352 200.92 471.344 200.92H471.552V203H407.904ZM599.7 205.912C588.329 205.912 578.345 203.624 569.748 199.048C561.289 194.472 554.702 188.024 549.988 179.704C545.273 171.384 542.916 161.539 542.916 150.168C542.916 138.797 545.273 128.952 549.988 120.632C554.702 112.312 561.289 105.864 569.748 101.288C578.345 96.712 588.329 94.424 599.7 94.424C611.07 94.424 620.985 96.712 629.444 101.288C637.902 105.864 644.489 112.312 649.204 120.632C653.918 128.952 656.276 138.797 656.276 150.168C656.276 161.539 653.918 171.384 649.204 179.704C644.489 188.024 637.902 194.472 629.444 199.048C620.985 203.624 611.07 205.912 599.7 205.912ZM599.492 203.208C604.345 203.208 608.505 200.781 611.972 195.928C615.438 191.075 618.142 184.627 620.084 176.584C622.025 168.403 622.996 159.528 622.996 149.96C622.996 139.56 621.956 130.408 619.876 122.504C617.934 114.461 615.161 108.221 611.556 103.784C608.089 99.208 604.137 96.92 599.7 96.92C594.985 96.92 590.825 99.3467 587.22 104.2C583.753 109.053 581.049 115.501 579.108 123.544C577.166 131.587 576.196 140.392 576.196 149.96C576.196 160.499 577.236 169.789 579.316 177.832C581.396 185.875 584.169 192.115 587.636 196.552C591.241 200.989 595.193 203.208 599.492 203.208ZM686.291 146.632C686.291 133.736 685.39 122.851 683.587 113.976C681.923 105.101 680.12 97.4747 678.179 91.096C676.238 84.9947 674.366 79.7253 672.563 75.288C670.76 70.712 669.859 66.2053 669.859 61.768C669.859 56.4987 671.454 52.2693 674.643 49.08C677.832 45.752 682.062 44.088 687.331 44.088C692.739 44.088 697.038 45.752 700.227 49.08C703.555 52.2693 705.219 56.4987 705.219 61.768C705.219 66.2053 704.318 70.712 702.515 75.288C700.851 79.7253 698.979 84.9947 696.899 91.096C694.68 97.4747 692.67 105.101 690.867 113.976C689.203 122.851 688.371 133.736 688.371 146.632H686.291ZM687.123 205.912C682.27 205.912 678.11 204.179 674.643 200.712C671.176 197.245 669.443 193.085 669.443 188.232C669.443 183.101 671.246 178.872 674.851 175.544C678.456 172.216 682.547 170.552 687.123 170.552C691.699 170.552 695.79 172.216 699.395 175.544C703 178.872 704.803 183.101 704.803 188.232C704.803 193.085 703.07 197.245 699.603 200.712C696.136 204.179 691.976 205.912 687.123 205.912Z" fill="#6610F2"/>
</svg>
