<svg width="305" height="147" viewBox="0 0 305 147" fill="none" xmlns="http://www.w3.org/2000/svg">
<path d="M3.59714 88.9435C3.59714 89.1934 3.70859 89.3413 3.86188 89.4382C4.14054 89.6167 4.67002 89.7595 5.21341 89.8105C6.82965 89.9584 7.81894 90.0502 11.1769 86.2864C7.74927 91.4425 7.15015 93.2785 8.01401 93.8191C8.34842 94.0231 8.86392 94.1659 9.46308 94.222C11.8596 94.4413 12.7653 93.4723 14.2701 91.8709C14.8692 91.2334 15.5659 90.4378 16.374 89.4688C12.5423 94.7728 11.9989 96.2416 12.8071 96.7516C13.1275 96.9505 13.6291 97.0933 14.2283 97.1443C16.6666 97.3687 17.7534 96.3742 19.4811 94.5994C20.3729 93.6763 21.4597 92.4574 22.7555 90.907C12.3891 104.534 9.54666 109.129 11.0515 110.078C11.3859 110.292 11.9153 110.44 12.5563 110.496C14.702 110.69 16.2765 110.333 22.0867 103.142C21.39 104.641 21.3761 105.36 21.8359 105.641C22.1563 105.84 22.6579 105.983 23.2571 106.039C25.6815 106.258 26.8936 105.391 29.5688 102.479C31.3105 100.587 33.5399 97.8583 36.4241 94.1353C38.1936 91.8403 40.1164 89.2903 42.1228 86.5771C42.1646 86.6128 42.2064 86.6434 42.2482 86.674C42.6105 86.9035 43.1678 87.0616 43.8366 87.1228C46.1913 87.337 47.3896 86.5261 49.8001 83.9863C51.3606 82.3441 53.3531 79.9726 55.8889 76.7392C56.5159 75.9487 57.1569 75.1225 57.8117 74.2657C41.8023 95.6806 38.737 100.536 40.1582 101.418C40.4787 101.617 40.9803 101.76 41.5794 101.811C43.126 101.954 44.0456 102.035 46.9437 98.8222C34.0833 116.178 30.2237 122.394 31.8539 123.414C32.1883 123.624 32.7178 123.771 33.3309 123.828C35.7274 124.047 37.5109 123.532 44.8955 113.923C44.9652 114.092 45.0627 114.219 45.216 114.311C45.5643 114.53 46.1078 114.683 46.7626 114.744C48.6854 114.918 49.9533 114.535 52.3499 112.087C52.1409 112.863 52.2245 113.322 52.5589 113.531C52.8933 113.74 53.4088 113.883 54.0219 113.939C56.3905 114.153 57.338 113.332 59.4419 110.919C60.8074 109.359 62.5909 107.089 64.9038 103.983C65.4193 103.285 65.9627 102.555 66.5062 101.801C66.5619 101.852 66.6176 101.903 66.6873 101.943C67.0774 102.188 67.6765 102.362 68.3871 102.428C69.1953 102.504 69.878 102.566 70.7558 102.153C68.638 105.753 68.0528 107.798 69.0141 108.405C69.3904 108.64 69.9616 108.803 70.6304 108.864C72.0516 108.992 73.0409 108.757 74.1416 107.967C73.2638 109.884 73.1663 111.042 73.8629 111.48C74.2392 111.715 74.8243 111.883 75.5071 111.945C76.1619 112.006 76.8447 111.965 77.4577 111.827C78.1544 111.674 78.9765 111.225 79.9379 110.466C79.5199 111.603 79.5756 112.251 79.9936 112.526C80.328 112.735 80.8575 112.883 81.4845 112.939C83.6999 113.143 85.4276 112.735 90.9731 105.952C91.0382 106.059 91.1412 106.161 91.2796 106.258C91.6697 106.503 92.2689 106.671 92.9655 106.737C94.1081 106.839 95.0137 106.753 96.0587 106.166C91.1263 113.612 89.6912 116.999 90.9034 117.753C91.2517 117.973 91.7952 118.126 92.4361 118.182C93.6204 118.289 94.6515 118.223 96.2538 117.009C93.6901 121.308 92.9098 123.72 93.9687 124.389C94.3449 124.623 94.9162 124.786 95.5989 124.848C96.2259 124.904 96.8808 124.868 97.466 124.74C97.898 124.644 98.3717 124.429 98.9151 124.067C90.2207 137.241 91.3911 137.975 92.1992 138.485C92.5475 138.704 93.1049 138.857 93.7458 138.918C94.4007 138.98 95.0973 138.939 95.7104 138.801C99.1101 138.046 105.422 130.325 116.764 113.969C117.056 114.066 117.405 114.138 117.795 114.173C119.731 114.352 120.944 114.459 126.155 108.048C126.224 108.237 126.35 108.385 126.517 108.492C126.879 108.726 127.451 108.885 128.133 108.946C130.599 109.17 131.756 108.191 133.985 105.728C135.518 104.034 137.51 101.581 140.074 98.2204C144.825 91.9831 150.691 83.7415 156.906 75.0205C165.628 62.7754 175.994 48.2251 181.874 41.5339C177.039 50.3875 160.291 72.3736 146.302 90.7183C117.976 127.897 108.961 140.535 111.497 142.121C111.845 142.341 112.403 142.499 113.043 142.555C113.684 142.616 114.367 142.575 114.966 142.443C115.315 142.366 115.705 142.208 116.123 141.963C114.883 144.483 114.715 145.829 115.44 146.283C115.788 146.502 116.346 146.66 116.987 146.716C117.628 146.778 118.31 146.737 118.909 146.604C121.139 146.115 124.761 142.356 130.502 134.782C130.544 135.017 130.669 135.185 130.836 135.297C130.993 135.401 131.206 135.491 131.463 135.563C131.719 135.635 132.014 135.687 132.327 135.716C132.996 135.777 133.707 135.736 134.334 135.593C136.925 135.017 141.231 130.529 147.821 121.803C148.159 121.99 148.684 122.121 149.284 122.168C149.883 122.214 150.509 122.173 151.026 122.053C151.499 121.951 152.043 121.675 152.684 121.206C151.29 123.848 151.04 125.194 151.722 125.623C151.882 125.726 152.098 125.817 152.357 125.889C152.615 125.961 152.912 126.012 153.227 126.041C155.596 126.255 156.808 125.531 159.748 122.165C161.573 120.074 163.928 117.034 166.965 112.878C167.23 112.521 167.495 112.159 167.76 111.792C167.801 111.843 167.857 111.883 167.927 111.924C168.275 112.138 168.805 112.291 169.446 112.347C170.087 112.404 170.755 112.368 171.341 112.235C171.8 112.133 172.316 111.904 172.887 111.526C160.264 128.698 156.432 135.073 158.132 136.129C158.48 136.343 159.01 136.496 159.637 136.552C160.877 136.664 161.963 136.593 163.677 135.277C160.821 139.831 160.124 141.948 161.058 142.534C161.406 142.749 161.936 142.902 162.576 142.958C163.217 143.014 163.886 142.978 164.471 142.845C167.774 142.111 174.698 133.298 187.545 114.495C187.852 114.607 188.242 114.688 188.66 114.729C190.22 114.872 191.265 114.969 194.553 111.261C194.331 112.098 194.428 112.602 194.804 112.842C195.153 113.056 195.682 113.204 196.309 113.26C197.716 113.388 198.845 113.301 200.893 111.44C188.27 128.698 185.748 133.089 187.043 133.895C187.364 134.094 187.865 134.232 188.465 134.288C190.75 134.497 192.004 134.609 199.834 124.225C199.806 124.603 199.918 124.842 200.141 124.98C200.461 125.179 200.963 125.322 201.562 125.378C204.683 125.664 206.787 124.725 220.846 105.376C221.194 105.529 221.654 105.631 222.155 105.677C223.758 105.825 224.677 105.906 227.701 102.581C225.583 105.809 225.332 106.998 226.043 107.451C226.377 107.661 226.893 107.803 227.506 107.859C229.861 108.074 230.766 107.13 232.257 105.57C233.33 104.448 234.737 102.826 236.562 100.612C239.934 96.5017 244.142 91.0906 248.587 85.3582C252.669 80.095 257.267 74.1637 261.057 69.5278C256.71 75.6682 249.98 84.2209 244.086 91.6975C226.071 114.576 220.79 121.91 222.88 123.236C223.047 123.345 223.273 123.44 223.543 123.517C223.814 123.593 224.124 123.648 224.454 123.68C225.095 123.736 225.764 123.7 226.349 123.567C228.286 123.139 231.128 120.37 236.005 113.959C236.326 114.158 236.841 114.296 237.44 114.352C238.778 114.474 239.614 114.551 241.69 112.485C238.221 117.611 237.649 119.309 238.471 119.829C238.792 120.033 239.307 120.171 239.906 120.227C242.888 120.497 243.738 120.579 261.768 96.4558C261.796 96.4762 261.824 96.4966 261.851 96.5119C262.2 96.7312 262.743 96.8893 263.384 96.9454C265.725 97.1596 266.756 96.2518 268.372 94.63C268.944 94.0537 269.598 93.355 270.337 92.5135C268.665 95.14 268.526 96.1396 269.194 96.568C269.529 96.7771 270.058 96.925 270.671 96.9811C272.915 97.1851 273.43 96.8485 277.652 92.4472C280.021 89.9839 283.072 86.6434 286.012 83.4151C286.109 83.3131 286.193 83.2111 286.291 83.1142C284.855 84.9502 283.392 86.8168 281.999 88.5814C269.515 104.422 267.132 108.038 268.581 108.956C268.738 109.059 268.951 109.15 269.208 109.222C269.464 109.294 269.759 109.346 270.072 109.374C272.719 109.614 272.998 109.639 284.855 95.4052C275.255 108.522 275.088 109.293 275.91 109.803C276.189 109.981 276.718 110.124 277.262 110.175C278.85 110.323 278.976 110.333 284.061 107.324C282.947 108.874 283.072 108.951 283.504 109.221C283.783 109.4 284.27 109.532 284.814 109.583C285.928 109.685 287.071 109.435 287.349 109.027C287.405 108.941 287.419 108.854 287.405 108.772C287.6 108.364 288.729 106.87 289.495 105.86C291.009 103.854 291.581 102.734 291.209 102.499C290.93 102.321 290.443 102.188 289.899 102.137C288.757 102.032 286.063 103.235 281.818 105.748C284.34 102.01 288.743 96.0325 292.533 90.8917C304.905 74.1229 305.17 73.3579 304.306 72.8224C304.028 72.6439 303.512 72.5062 302.969 72.4552C300.461 72.2257 299.945 72.1798 289.481 84.6391C298.371 73.2661 299.848 70.762 298.649 70.0021C298.329 69.793 297.813 69.6502 297.2 69.5941C294.985 69.3901 294.469 69.7216 290.317 74.0464C288.004 76.4638 284.995 79.7533 282.083 82.9357C281.344 83.7466 280.578 84.5881 279.798 85.4347C282.194 82.2982 284.897 78.8608 287.377 75.7141C300.879 58.5781 303.47 54.6715 301.952 53.7127C301.617 53.4985 301.088 53.3506 300.461 53.2945C298.134 53.0803 297.354 53.2741 292.059 59.6746C292.491 58.6393 292.421 58.0528 291.947 57.7519C291.599 57.5326 291.056 57.3796 290.415 57.3184C288.297 57.1246 287.377 57.043 280.801 65.3611C285.064 59.2003 285.873 57.1654 284.981 56.6095C284.66 56.4055 284.145 56.2627 283.546 56.2117C282.208 56.0893 281.316 56.0077 279.198 58.0732C291.864 40.9321 295.668 34.8071 294.079 33.8176C293.745 33.6086 293.229 33.4658 292.602 33.4097C291.961 33.3484 291.279 33.3893 290.68 33.5218C287.349 34.2562 281.623 41.3197 268.553 60.3682C268.303 60.3019 268.01 60.2509 267.703 60.2254C265.99 60.0673 265.042 59.9806 261.294 64.1167C267.968 55.0846 269.933 51.3616 268.512 50.4589C268.149 50.2345 267.592 50.0764 266.937 50.0152C265.209 49.8571 264.248 49.7704 260.472 54.136L260.472 54.1258C260.472 53.6566 260.305 53.3302 259.97 53.1211C259.594 52.8814 258.995 52.7131 258.298 52.6468C256.905 52.5193 255.93 52.4326 253.673 54.6664C260.012 45.5884 261.865 41.9062 260.695 41.1667C260.361 40.9576 259.845 40.8148 259.232 40.7587C257.894 40.6364 256.891 40.7791 255.595 41.7124C257.532 38.2954 257.964 36.5767 257.17 36.0871C256.822 35.8729 256.292 35.725 255.665 35.6689C254.55 35.5669 253.575 35.6077 252.182 36.5461C255.86 31.0687 256.835 28.7789 255.958 28.2332C255.637 28.0291 255.122 27.8863 254.523 27.8353C253.7 27.7588 253.018 27.6976 252.084 28.1719C258.633 18.7522 260.611 14.6773 259.246 13.8256C258.898 13.6063 258.354 13.4533 257.713 13.3921C257.044 13.3309 256.348 13.3717 255.721 13.5094C251.541 14.4376 242.679 25.933 226.753 49.3624C226.642 49.342 226.517 49.3267 226.391 49.3165C225.346 49.2196 224.44 49.2553 223.131 50.1274C233.678 35.47 236.994 29.4724 235.225 28.3708C234.863 28.1464 234.305 27.9883 233.65 27.9272C233.023 27.871 232.355 27.9068 231.769 28.0343C229.972 28.432 227.45 30.7831 223.131 36.3472C222.755 36.1177 222.183 35.9596 221.514 35.8984C220.442 35.8015 219.55 35.9086 218.616 36.3472C229.749 20.8534 233.316 14.606 231.658 13.5655C231.31 13.3513 230.766 13.1983 230.139 13.1422C229.498 13.0861 228.829 13.1218 228.23 13.2544C227.701 13.3717 227.102 13.6573 226.405 14.1418C227.743 11.6173 227.993 10.3372 227.38 9.94964C227.046 9.74563 226.53 9.59774 225.917 9.54675C225.276 9.48555 224.58 9.52633 223.981 9.66404C220.121 10.5208 212.054 21.0472 196.602 43.7983C196.253 43.6198 195.766 43.4923 195.194 43.4413C194.553 43.3801 193.871 43.4209 193.272 43.5535C192.324 43.7626 191.126 44.5429 189.635 45.9352C195.807 37.0051 197.647 33.2923 196.504 32.5681C196.17 32.359 195.654 32.2163 195.041 32.1601C194.386 32.0989 193.704 32.1397 193.09 32.2774C191.655 32.5936 189.691 34.1797 187.029 37.1683C186.974 37.1071 186.918 37.0561 186.848 37.0153C186.486 36.7858 185.929 36.6328 185.26 36.5716C183.95 36.4543 182.849 36.5308 180.982 38.0659C182.682 35.0263 183.086 33.2617 182.153 32.665C181.763 32.4202 181.164 32.2519 180.467 32.1856C179.366 32.0837 178.502 32.0071 177.011 33.1291C178.697 30.1558 179.032 28.6463 178.265 28.1617C177.917 27.9424 177.374 27.7894 176.733 27.7333C176.078 27.6721 175.395 27.7129 174.796 27.8506C174.155 27.9934 173.389 28.4014 172.511 29.0848C185.218 11.4235 189.175 4.74253 187.615 3.76844C187.28 3.55934 186.765 3.41654 186.152 3.36044C185.483 3.29925 184.758 3.34004 184.131 3.48284C180.523 4.27844 173.723 12.3619 162.27 28.5442C162.005 28.4677 161.699 28.4116 161.364 28.381C159.818 28.2382 158.508 28.4014 155.93 30.8596C170.881 10.4851 175.688 2.62605 173.821 1.44795C173.472 1.22865 172.929 1.08074 172.288 1.01954C169.891 0.800241 168.624 1.39695 164.862 5.75746C162.618 8.36865 159.692 12.1528 155.93 17.3293C153.227 21.0574 150.218 25.3159 147.055 29.8753C146.72 29.6815 146.219 29.5438 145.62 29.4928C144.268 29.3704 143.293 29.5846 142.234 30.3037C151.764 16.9775 154.76 11.4898 153.144 10.48C152.795 10.2607 152.238 10.1077 151.597 10.0465C150.998 9.99044 150.371 10.0261 149.841 10.1485C147.208 10.7299 142.303 16.9978 128.189 37.663C128.147 37.612 128.091 37.5661 128.022 37.5253C127.673 37.3111 127.144 37.1581 126.503 37.102C125.165 36.9796 124.218 36.8929 122.128 38.8411C125.639 33.6952 126.503 31.5124 125.542 30.9106C125.207 30.6964 124.678 30.5485 124.051 30.4924C121.626 30.2731 120.623 30.1813 111.33 42.7477C111.274 42.661 111.19 42.5896 111.093 42.5284C110.744 42.304 110.173 42.1459 109.518 42.0847C108.223 41.9674 107.233 42.1408 106.119 42.865C123.215 19.6549 128.746 10.9799 126.81 9.77114C126.461 9.55694 125.932 9.40903 125.305 9.35294C122.95 9.13874 121.808 9.68955 118.185 13.9633C116.039 16.4929 113.252 20.1598 109.63 25.168C107.512 28.1005 105.241 31.3186 102.844 34.7662C102.51 34.603 102.05 34.4857 101.507 34.4398C99.4167 34.2511 97.8561 34.5928 92.4082 41.4013C92.5754 40.7128 92.4779 40.2997 92.1574 40.0957C91.823 39.8866 91.3075 39.7438 90.6944 39.6877C89.4822 39.5755 88.6323 39.499 86.9324 40.9576C94.0384 30.9769 96.1145 27.0346 94.8605 26.2492C94.5261 26.0401 94.0105 25.8922 93.3835 25.8361C91.0288 25.6219 89.9838 26.4787 87.9774 28.6309C86.6398 30.064 84.9121 32.1448 82.6967 34.9957C81.9164 35.9953 81.0943 37.0612 80.2444 38.1781C80.4952 37.3978 80.3977 36.9388 80.0215 36.694C79.6871 36.4798 79.1576 36.3319 78.5306 36.2758C76.1341 36.0565 75.1448 36.9082 72.9155 39.3868C71.4525 41.0086 69.5575 43.3597 67.0913 46.5727C66.7848 46.9756 66.4643 47.3887 66.1439 47.812C76.7053 33.3076 78.7675 29.5846 77.5832 28.84C77.2627 28.6411 76.7611 28.5034 76.1759 28.4524C73.3474 28.1923 72.1491 28.0852 57.6167 48.1129C57.5609 47.8885 57.4495 47.7202 57.2683 47.608C56.92 47.3887 56.3906 47.2408 55.7496 47.1796C53.3809 46.9654 52.3359 47.9089 50.7057 49.6021C50.3853 49.9285 50.0509 50.3008 49.6747 50.7088C51.3328 47.9191 51.6671 46.5268 50.9147 46.0525C50.5664 45.8332 50.0369 45.6853 49.396 45.6241C47.0273 45.4048 46.0102 46.3483 44.2825 48.1639C43.0703 49.4389 41.5097 51.2749 39.5033 53.779C39.3361 53.9932 39.155 54.2125 38.9739 54.4369C57.4216 29.9161 61.1139 24.2449 59.5673 23.2708C59.2469 23.0668 58.7313 22.9291 58.1322 22.873C55.7217 22.6537 54.7882 22.567 45.216 35.1946C45.5783 34.2766 45.4947 33.8686 45.1603 33.6646C44.8816 33.4861 44.3243 33.3331 43.7809 33.2821C41.3565 33.0628 41.2311 33.0475 31.6032 43.5841C35.8528 37.7905 35.6438 37.6579 35.0447 37.2856C34.766 37.1071 34.2505 36.9694 33.7071 36.9184C32.5924 36.8164 31.4499 37.0663 31.1712 37.4743C31.0876 37.5967 31.0876 37.7191 31.1712 37.8313C30.8926 38.7799 27.0887 43.8646 24.0095 47.9752C15.6913 59.0881 15.8863 59.2105 16.6248 59.6746C16.9035 59.8531 17.419 59.9908 17.9624 60.0418C20.136 60.2407 20.6794 59.9908 25.1799 55.3039C27.6461 52.7335 30.7811 49.3063 33.8046 45.9964C34.0275 45.7516 34.2505 45.5017 34.4873 45.2518C30.5999 50.7394 25.6397 57.451 21.1949 63.4486C6.88541 82.8133 3.63892 87.5461 3.63892 88.9486L3.59714 88.9435ZM56.0701 61.4035C54.3423 63.7954 52.5449 66.274 50.7336 68.7883C44.5611 77.3461 37.5527 87.0667 31.9933 94.2526C37.4133 86.47 45.3832 75.7651 52.3778 66.3709C53.6735 64.6369 54.8997 62.9845 56.0701 61.4035ZM32.6342 38.3974C32.4392 38.3821 32.2719 38.3566 32.1187 38.3209C32.2719 38.3515 32.4392 38.377 32.6342 38.3974ZM45.2439 61.5412C43.0563 64.4992 40.6041 67.7275 38.11 70.9762C40.4229 67.8958 42.8891 64.6165 45.2439 61.5412ZM57.4913 90.448C50.8869 99.9085 44.3103 109.15 39.4894 115.275C43.6555 109.012 50.5385 99.6994 57.4913 90.448ZM62.3819 62.3419C57.6585 68.7577 52.8933 75.1276 49.2149 79.6156C52.5171 74.8471 57.7281 68.212 62.3819 62.3419ZM71.5779 80.4367C63.6498 91.9372 56.1119 102.54 51.1795 108.492C55.1087 102.168 63.4269 91.1059 71.5779 80.4367ZM84.3408 38.4229C79.088 45.925 71.5918 55.9159 64.8202 64.9225C67.2028 61.6891 69.6551 58.3282 72.0795 55.0132C76.1898 49.3777 80.551 43.4005 84.3408 38.428L84.3408 38.4229ZM78.0151 57.2521C76.0505 59.9653 73.8908 62.8876 71.6476 65.9017C73.7793 62.9794 75.939 60.0367 78.0151 57.2521ZM86.821 76.9381C81.3173 84.6187 75.9808 91.8913 72.2467 96.4303C75.2423 91.6567 81.0943 84.124 86.821 76.9381ZM99.0126 69.4105C98.4135 70.2622 97.7865 71.1394 97.1595 72.037C89.2593 83.2366 79.9518 96.4609 74.3367 103.193C78.5724 95.956 89.5937 81.574 99.0126 69.4105ZM107.47 68.1865C96.1981 84.7513 84.2851 101.775 78.1823 108.089C81.4984 101.459 94.7072 84.5422 104.823 71.5831C105.728 70.4152 106.62 69.283 107.47 68.1865ZM94.0523 44.7622C91.614 48.2659 88.4929 52.5091 85.0653 57.0634C88.3397 52.4479 91.4189 48.22 94.0523 44.7622ZM111.455 71.5525C102.58 84.379 92.5893 98.7406 86.3054 106.314C90.9731 98.8834 101.158 85.2103 111.455 71.5525ZM124.12 63.3466C113.002 79.6105 101.451 96.1957 95.5571 102.652C99.0126 95.5429 113.155 77.4022 124.12 63.3466ZM129.387 66.2995C127.673 68.7577 125.862 71.374 123.939 74.1637C113.893 88.714 102.816 104.733 96.4349 112.378C101.521 103.581 115.9 84.2413 129.387 66.2995ZM139.768 73.4089C137.803 76.3414 135.755 79.4269 133.595 82.6654C120.303 102.617 104.279 126.684 96.6997 134.798C101.13 125.658 121.32 98.2357 139.782 73.4038L139.768 73.4089ZM102.984 50.8822C101.395 53.065 99.4863 55.564 97.4381 58.1905C99.4306 55.4875 101.312 53.0089 102.984 50.8822ZM125.806 82.2268C114.883 98.455 104.279 113.857 98.5528 120.349C102.092 113.469 114.088 97.5064 125.806 82.2268ZM119.801 17.2579C115.44 24.1786 107.289 35.419 98.6085 47.1235C106.676 35.3119 114.493 24.0766 119.801 17.2579ZM141.467 102.78C131.589 117.529 122.1 131.314 116.555 137.643C120.247 131.08 130.53 117.228 141.467 102.78ZM158.494 88.2295C156.947 90.5092 155.331 92.8858 153.659 95.3542C141.732 112.975 127.409 134.124 120.205 142.137C124.901 133.166 142.847 109.099 158.494 88.2295ZM136.521 88.1377C132.285 94.1353 128.203 99.8218 124.831 104.233C127.827 99.8422 131.965 94.2016 136.521 88.1377ZM145.731 18.8644C142.429 24.0256 137.246 31.2829 131.394 39.244C136.772 31.3594 141.858 24.0358 145.731 18.8644ZM145.383 85.1032C141.008 91.1824 136.814 96.9148 133.525 101.087C136.368 96.8689 140.701 91.1314 145.383 85.1032ZM157.115 34.2358C153.004 40.9423 143.432 53.6107 133.679 66.325C142.373 53.7892 151.472 40.8811 157.115 34.2358ZM165.112 90.8764C153.562 108.053 142.262 124.271 135.964 131.059C140.255 123.659 153.283 106.477 165.057 90.9529C165.071 90.9274 165.098 90.9019 165.112 90.8764ZM168.066 7.05284C163.468 14.8711 151.82 30.676 139.614 46.9603C150.454 31.0534 161.615 14.8507 168.066 7.05284ZM182.445 7.97085C177.193 17.2834 158.355 42.6253 141.314 65.5192C156.488 42.8701 173.946 16.9723 182.445 7.97085ZM172.901 32.8894C169.028 39.4786 159.023 52.8049 149.451 65.3917C158.592 51.8461 167.495 39.0604 172.901 32.8894ZM172.372 89.4076C166.213 98.4397 160.431 106.753 156.014 112.572C159.846 106.743 165.739 98.4907 172.372 89.4076ZM177.025 37.561C173.709 43.2883 165.628 53.8453 157.769 63.8515C165.043 53.4526 172.413 43.0996 177.025 37.561ZM176.997 92.3095C170.282 102.137 163.621 111.72 158.856 117.901C162.73 111.843 169.432 102.545 176.997 92.3095ZM191.446 48.5056C187.043 56.1301 174.253 73.0876 162.939 88.0102C173.598 72.3073 185.037 55.7425 191.446 48.5056ZM190.582 93.5896C181.219 107.13 170.588 122.43 164.151 130.192C168.805 122.614 179.589 108.155 190.582 93.5896ZM190.485 38.1322C186.207 45.1039 176.44 58.4302 166.018 72.3838C175.381 58.4251 184.675 44.9662 190.485 38.1322ZM187.252 108.553C179.087 120.65 171.689 131.207 166.854 136.996C170.63 130.82 178.781 119.783 187.252 108.553ZM185.413 90.6622C181.498 96.2518 177.833 101.291 174.894 104.963C177.443 101.209 181.219 96.1447 185.413 90.6622ZM221.473 15.4117C216.666 23.4085 204.544 39.9988 192.185 56.7115C203.666 39.5296 214.896 23.1025 221.473 15.4117ZM218.575 40.1722C215.022 46.9603 202.454 63.1579 192.422 76.0252C202.342 61.5055 212.862 46.4044 218.575 40.1722ZM226.433 18.2728C221.723 26.6623 207.066 46.3942 193.508 64.4788C205.798 46.2208 219.285 26.4124 226.433 18.2728ZM209.239 85.6285C204.474 92.4013 199.904 98.7967 196.17 103.759C199.5 98.8426 204.126 92.5033 209.239 85.6285ZM221.166 56.7676C217.112 63.1426 209.518 73.414 201.618 83.8945C208.905 73.3936 216.164 63.0712 221.166 56.7676ZM218.24 82.3798C212.416 90.8509 206.397 99.4648 201.938 105.207C205.589 99.5464 211.705 91.1569 218.24 82.3798ZM230.181 32.9914C226.168 40.3609 214.13 56.6809 201.966 72.8122C202.663 71.7922 203.373 70.7467 204.084 69.6757C213.21 56.1913 224.064 40.1416 230.167 32.9914L230.181 32.9914ZM224.998 93.4978C219.55 101.209 213.949 109.043 209.434 114.857C213.433 109.089 219.132 101.367 224.998 93.4978ZM254.509 17.5996C250.315 25.5199 234.403 46.5625 220.985 64.2799C234.291 44.3236 247.681 24.7804 254.509 17.5996ZM251.081 42.1102C246.288 50.0866 234.946 65.5549 223.841 80.4928C224.942 78.8965 226.085 77.2186 227.283 75.4642C235.448 63.5404 245.062 49.5001 251.081 42.1051L251.081 42.1102ZM239.837 102.627C235.754 108.487 231.978 113.673 229.052 117.264C231.533 113.5 235.531 108.191 239.837 102.627ZM253.032 49.189C248.35 56.3035 240.115 67.4623 232.118 78.1774C239.809 67.09 247.57 56.0893 253.032 49.189ZM258.173 62.3878C256.097 65.2387 253.714 68.3956 251.262 71.5831C253.617 68.4058 255.986 65.2387 258.173 62.3878ZM287.475 40.1671C283.671 46.0984 276.565 55.7782 269.306 65.4631C276.091 55.4671 282.779 45.9046 287.475 40.1671ZM286.095 108.16C285.984 108.14 285.873 108.13 285.761 108.114C285.878 108.123 285.991 108.139 286.095 108.16Z" fill="#0C0C0D"/>
<path d="M0.782443 87.9628C0.782443 88.2127 0.893893 88.3606 1.04718 88.4575C1.32584 88.636 1.85532 88.7788 2.39871 88.8298C4.01496 88.9777 5.00424 89.0695 8.36215 85.3057C4.93457 90.4618 4.33545 92.2978 5.19931 92.8384C5.53372 93.0424 6.04923 93.1852 6.64838 93.2413C9.04489 93.4606 9.95056 92.4916 11.4554 90.8902C12.0545 90.2527 12.7512 89.4571 13.5593 88.4881C9.72763 93.7921 9.18424 95.2609 9.99237 95.7709C10.3128 95.9698 10.8144 96.1126 11.4136 96.1636C13.8519 96.388 14.9387 95.3935 16.6664 93.6187C17.5582 92.6956 18.645 91.4767 19.9408 89.9263C9.57437 103.554 6.73197 108.149 8.23679 109.097C8.57117 109.311 9.10065 109.459 9.74158 109.515C11.8873 109.709 13.4618 109.352 19.272 102.161C18.5753 103.661 18.5614 104.38 19.0212 104.66C19.3416 104.859 19.8432 105.002 20.4424 105.058C22.8668 105.277 24.079 104.41 26.7542 101.498C28.4958 99.6061 30.7252 96.8776 33.6094 93.1546C35.3789 90.8596 37.3017 88.3096 39.3081 85.5964C39.3499 85.6321 39.3917 85.6627 39.4335 85.6933C39.7958 85.9228 40.3531 86.0809 41.0219 86.1421C43.3767 86.3563 44.5749 85.5454 46.9854 83.0056C48.5459 81.3634 50.5384 78.9919 53.0742 75.7585C53.7012 74.968 54.3422 74.1418 54.997 73.285C38.9876 94.6999 35.9223 99.5551 37.3435 100.437C37.664 100.636 38.1656 100.779 38.7647 100.83C40.3113 100.973 41.2309 101.055 44.129 97.8415C31.2686 115.197 27.409 121.414 29.0392 122.434C29.3736 122.643 29.9031 122.791 30.5162 122.847C32.9127 123.066 34.6962 122.551 42.0808 112.943C42.1505 113.111 42.248 113.238 42.4013 113.33C42.7496 113.55 43.2931 113.702 43.9479 113.764C45.8707 113.937 47.1386 113.555 49.5352 111.107C49.3262 111.882 49.4098 112.341 49.7442 112.55C50.0786 112.759 50.5941 112.902 51.2072 112.958C53.5758 113.172 54.5233 112.351 56.6272 109.939C57.9927 108.378 59.7762 106.109 62.0891 103.003C62.6046 102.304 63.148 101.575 63.6915 100.82C63.7472 100.871 63.8029 100.922 63.8726 100.963C64.2627 101.208 64.8618 101.381 65.5724 101.447C66.3806 101.524 67.0633 101.585 67.9411 101.172C65.8233 104.772 65.2381 106.818 66.1994 107.424C66.5757 107.659 67.1469 107.822 67.8157 107.883C69.2369 108.011 70.2262 107.776 71.3269 106.986C70.4491 108.903 70.3516 110.061 71.0482 110.5C71.4245 110.734 72.0096 110.903 72.6924 110.964C73.3472 111.025 74.03 110.984 74.6431 110.847C75.3397 110.694 76.1618 110.245 77.1232 109.485C76.7052 110.622 76.7609 111.27 77.1789 111.545C77.5133 111.754 78.0428 111.902 78.6698 111.958C80.8852 112.162 82.6129 111.754 88.1584 104.971C88.2235 105.078 88.3265 105.181 88.4649 105.277C88.855 105.522 89.4542 105.69 90.1508 105.757C91.2934 105.859 92.199 105.772 93.244 105.186C88.3116 112.632 86.8765 116.018 88.0887 116.773C88.437 116.992 88.9805 117.145 89.6214 117.201C90.8057 117.308 91.8368 117.242 93.4391 116.028C90.8754 120.327 90.0951 122.74 91.154 123.408C91.5302 123.642 92.1015 123.806 92.7842 123.867C93.4112 123.923 94.0661 123.887 94.6513 123.76C95.0833 123.663 95.557 123.449 96.1004 123.087C87.406 136.26 88.5764 136.994 89.3845 137.504C89.7328 137.723 90.2902 137.876 90.9311 137.938C91.586 137.999 92.2826 137.958 92.8957 137.82C96.2954 137.066 102.607 129.344 113.949 112.989C114.242 113.085 114.59 113.157 114.98 113.193C116.917 113.371 118.129 113.478 123.34 107.067C123.41 107.256 123.535 107.404 123.702 107.511C124.065 107.746 124.636 107.904 125.319 107.965C127.785 108.189 128.941 107.21 131.171 104.747C132.703 103.054 134.696 100.601 137.259 97.2397C142.011 91.0024 147.877 82.7608 154.091 74.0398C162.813 61.7947 173.18 47.2444 179.059 40.5532C174.225 49.4068 157.477 71.3929 143.488 89.7376C115.161 126.917 106.146 139.554 108.682 141.14C109.031 141.36 109.588 141.518 110.229 141.574C110.87 141.635 111.552 141.594 112.152 141.462C112.5 141.385 112.89 141.227 113.308 140.982C112.068 143.502 111.901 144.848 112.625 145.302C112.974 145.521 113.531 145.679 114.172 145.736C114.813 145.797 115.496 145.756 116.095 145.623C118.324 145.134 121.947 141.375 127.687 133.802C127.729 134.036 127.854 134.205 128.022 134.317C128.178 134.42 128.392 134.511 128.648 134.583C128.905 134.655 129.199 134.706 129.512 134.735C130.181 134.796 130.892 134.755 131.519 134.613C134.111 134.036 138.416 129.548 145.006 120.822C145.344 121.009 145.87 121.14 146.469 121.187C147.068 121.234 147.694 121.192 148.211 121.072C148.685 120.97 149.228 120.695 149.869 120.225C148.476 122.867 148.225 124.214 148.908 124.642C149.067 124.746 149.283 124.836 149.542 124.908C149.801 124.98 150.097 125.032 150.412 125.06C152.781 125.274 153.993 124.55 156.933 121.184C158.759 119.093 161.113 116.054 164.151 111.897C164.415 111.54 164.68 111.178 164.945 110.811C164.987 110.862 165.042 110.903 165.112 110.943C165.46 111.158 165.99 111.311 166.631 111.367C167.272 111.423 167.941 111.387 168.526 111.255C168.986 111.153 169.501 110.923 170.072 110.546C157.449 127.717 153.617 134.092 155.317 135.148C155.665 135.362 156.195 135.515 156.822 135.571C158.062 135.684 159.149 135.612 160.863 134.296C158.006 138.851 157.31 140.967 158.243 141.554C158.591 141.768 159.121 141.921 159.762 141.977C160.403 142.033 161.072 141.997 161.657 141.865C164.959 141.13 171.884 132.318 184.73 113.514C185.037 113.626 185.427 113.708 185.845 113.748C187.406 113.891 188.451 113.988 191.739 110.28C191.516 111.117 191.613 111.622 191.99 111.861C192.338 112.076 192.867 112.224 193.494 112.28C194.902 112.407 196.03 112.32 198.078 110.459C185.455 127.717 182.933 132.108 184.229 132.914C184.549 133.113 185.051 133.251 185.65 133.307C187.935 133.516 189.189 133.628 197.02 123.245C196.992 123.622 197.103 123.862 197.326 123.999C197.647 124.198 198.148 124.341 198.747 124.397C201.868 124.683 203.972 123.744 218.031 104.395C218.379 104.548 218.839 104.65 219.341 104.696C220.943 104.844 221.863 104.925 224.886 101.6C222.768 104.829 222.518 106.017 223.228 106.471C223.563 106.68 224.078 106.823 224.691 106.879C227.046 107.093 227.952 106.149 229.442 104.589C230.515 103.467 231.923 101.845 233.748 99.6316C237.12 95.521 241.328 90.1099 245.772 84.3775C249.855 79.1143 254.453 73.183 258.243 68.5471C253.895 74.6875 247.166 83.2402 241.272 90.7168C223.256 113.595 217.975 120.929 220.065 122.255C220.233 122.364 220.458 122.46 220.729 122.536C220.999 122.612 221.309 122.668 221.64 122.699C222.281 122.755 222.949 122.719 223.535 122.587C225.471 122.158 228.314 119.389 233.19 112.978C233.511 113.177 234.026 113.315 234.626 113.371C235.963 113.493 236.799 113.57 238.875 111.504C235.406 116.63 234.835 118.328 235.657 118.848C235.977 119.052 236.493 119.19 237.092 119.246C240.074 119.517 240.923 119.598 258.953 95.4751C258.981 95.4955 259.009 95.5159 259.037 95.5312C259.385 95.7505 259.929 95.9086 260.569 95.9647C262.91 96.1789 263.941 95.2711 265.558 93.6493C266.129 93.073 266.784 92.3743 267.522 91.5328C265.85 94.1593 265.711 95.1589 266.38 95.5873C266.714 95.7964 267.244 95.9443 267.857 96.0004C270.1 96.2044 270.615 95.8678 274.837 91.4665C277.206 89.0032 280.257 85.6627 283.197 82.4344C283.295 82.3324 283.378 82.2304 283.476 82.1335C282.041 83.9695 280.578 85.8361 279.184 87.6007C266.7 103.441 264.318 107.057 265.767 107.975C265.923 108.079 266.137 108.169 266.393 108.241C266.65 108.313 266.944 108.365 267.257 108.393C269.905 108.633 270.183 108.659 282.041 94.4245C272.441 107.542 272.273 108.312 273.096 108.822C273.374 109 273.904 109.143 274.447 109.194C276.035 109.342 276.161 109.352 281.247 106.343C280.132 107.894 280.257 107.97 280.689 108.24C280.968 108.419 281.456 108.552 281.999 108.603C283.114 108.705 284.256 108.455 284.535 108.047C284.591 107.96 284.604 107.873 284.591 107.792C284.786 107.384 285.914 105.889 286.681 104.88C288.195 102.874 288.766 101.753 288.394 101.519C288.116 101.34 287.628 101.208 287.085 101.157C285.942 101.051 283.248 102.255 279.003 104.767C281.525 101.029 285.928 95.0518 289.718 89.911C302.091 73.1422 302.356 72.3772 301.492 71.8417C301.213 71.6632 300.697 71.5255 300.154 71.4745C297.646 71.245 297.131 71.1991 286.667 83.6584C295.556 72.2854 297.033 69.7813 295.835 69.0214C295.514 68.8123 294.999 68.6695 294.386 68.6134C292.17 68.4094 291.655 68.7409 287.503 73.0657C285.19 75.4831 282.18 78.7726 279.268 81.955C278.53 82.7659 277.763 83.6074 276.983 84.454C279.379 81.3175 282.083 77.8801 284.563 74.7334C298.064 57.5974 300.656 53.6908 299.137 52.732C298.803 52.5178 298.273 52.3699 297.646 52.3138C295.319 52.0996 294.539 52.2934 289.244 58.6939C289.676 57.6586 289.607 57.0721 289.133 56.7712C288.784 56.5519 288.241 56.3989 287.6 56.3377C285.482 56.1439 284.563 56.0623 277.986 64.3804C282.25 58.2196 283.058 56.1847 282.166 55.6288C281.846 55.4248 281.33 55.282 280.731 55.231C279.393 55.1086 278.502 55.027 276.384 57.0925C289.049 39.9514 292.853 33.8263 291.265 32.8369C290.93 32.6278 290.415 32.485 289.788 32.4289C289.147 32.3677 288.464 32.4085 287.865 32.5411C284.535 33.2755 278.808 40.339 265.739 59.3875C265.488 59.3212 265.195 59.2702 264.889 59.2447C263.175 59.0866 262.228 58.9999 258.479 63.136C265.154 54.1039 267.118 50.3809 265.697 49.4782C265.335 49.2538 264.777 49.0957 264.122 49.0345C262.395 48.8764 261.433 48.7897 257.657 53.1553L257.657 53.1451C257.657 52.6759 257.49 52.3495 257.156 52.1404C256.78 51.9007 256.18 51.7324 255.484 51.6661C254.09 51.5386 253.115 51.4519 250.858 53.6857C257.198 44.6077 259.051 40.9255 257.88 40.186C257.546 39.9769 257.03 39.8341 256.417 39.778C255.08 39.6556 254.077 39.7984 252.781 40.7317C254.717 37.3147 255.149 35.596 254.355 35.1064C254.007 34.8922 253.477 34.7443 252.85 34.6882C251.736 34.5862 250.76 34.627 249.367 35.5654C253.045 30.088 254.021 27.7981 253.143 27.2524C252.823 27.0484 252.307 26.9056 251.708 26.8546C250.886 26.7781 250.203 26.7169 249.27 27.1912C255.818 17.7715 257.797 13.6966 256.431 12.8449C256.083 12.6256 255.54 12.4726 254.899 12.4114C254.23 12.3502 253.533 12.391 252.906 12.5287C248.726 13.4569 239.865 24.9523 223.939 48.3817C223.827 48.3613 223.702 48.346 223.576 48.3358C222.531 48.2389 221.626 48.2746 220.316 49.1467C230.864 34.4893 234.18 28.4917 232.41 27.3901C232.048 27.1657 231.491 27.0076 230.836 26.9464C230.209 26.8903 229.54 26.926 228.955 27.0535C227.157 27.4513 224.635 29.8024 220.316 35.3665C219.94 35.137 219.369 34.9789 218.7 34.9177C217.627 34.8208 216.735 34.9279 215.802 35.3665C226.934 19.8727 230.501 13.6252 228.843 12.5848C228.495 12.3706 227.952 12.2176 227.325 12.1615C226.684 12.1054 226.015 12.1411 225.416 12.2737C224.886 12.391 224.287 12.6766 223.59 13.1611C224.928 10.6366 225.179 9.35652 224.566 8.96893C224.231 8.76492 223.716 8.61703 223.103 8.56604C222.462 8.50483 221.765 8.54562 221.166 8.68333C217.306 9.54013 209.239 20.0665 193.787 42.8176C193.439 42.6391 192.951 42.5116 192.38 42.4606C191.739 42.3994 191.056 42.4402 190.457 42.5728C189.509 42.7819 188.311 43.5622 186.82 44.9545C192.993 36.0244 194.832 32.3116 193.689 31.5874C193.355 31.3783 192.84 31.2355 192.226 31.1794C191.572 31.1182 190.889 31.159 190.276 31.2967C188.841 31.6129 186.876 33.199 184.215 36.1876C184.159 36.1264 184.103 36.0754 184.034 36.0346C183.671 35.8051 183.114 35.6521 182.445 35.5909C181.136 35.4736 180.035 35.5501 178.168 37.0852C179.868 34.0456 180.272 32.281 179.338 31.6843C178.948 31.4395 178.349 31.2712 177.652 31.2049C176.551 31.1029 175.688 31.0264 174.197 32.1484C175.883 29.1751 176.217 27.6655 175.451 27.181C175.102 26.9617 174.559 26.8087 173.918 26.7526C173.263 26.6914 172.58 26.7322 171.981 26.8699C171.34 27.0127 170.574 27.4207 169.696 28.1041C182.403 10.4428 186.361 3.76182 184.8 2.78773C184.466 2.57862 183.95 2.43583 183.337 2.37973C182.668 2.31854 181.944 2.35932 181.317 2.50213C177.708 3.29772 170.908 11.3812 159.455 27.5635C159.191 27.487 158.884 27.4309 158.55 27.4003C157.003 27.2575 155.693 27.4207 153.116 29.8789C168.066 9.50443 172.873 1.64533 171.006 0.467234C170.658 0.247934 170.114 0.100031 169.473 0.0388278C167.077 -0.180472 165.809 0.416239 162.047 4.77674C159.804 7.38793 156.878 11.1721 153.116 16.3486C150.413 20.0767 147.403 24.3352 144.24 28.8946C143.906 28.7008 143.404 28.5631 142.805 28.5121C141.453 28.3897 140.478 28.6039 139.419 29.323C148.949 15.9967 151.945 10.5091 150.329 9.49932C149.981 9.28002 149.423 9.12702 148.782 9.06582C148.183 9.00973 147.556 9.04543 147.027 9.16782C144.393 9.74923 139.489 16.0171 125.374 36.6823C125.332 36.6313 125.277 36.5854 125.207 36.5446C124.859 36.3304 124.329 36.1774 123.688 36.1213C122.351 35.9989 121.403 35.9122 119.313 37.8604C122.825 32.7145 123.688 30.5317 122.727 29.9299C122.393 29.7157 121.863 29.5678 121.236 29.5117C118.812 29.2924 117.809 29.2006 108.515 41.767C108.459 41.6803 108.376 41.6089 108.278 41.5477C107.93 41.3233 107.359 41.1652 106.704 41.104C105.408 40.9867 104.419 41.1601 103.304 41.8843C120.4 18.6742 125.932 9.99914 123.995 8.79043C123.647 8.57623 123.117 8.42832 122.49 8.37223C120.135 8.15803 118.993 8.70884 115.37 12.9826C113.224 15.5122 110.438 19.1791 106.815 24.1873C104.697 27.1198 102.426 30.3379 100.03 33.7855C99.6952 33.6223 99.2354 33.505 98.692 33.4591C96.602 33.2704 95.0414 33.6121 89.5935 40.4206C89.7607 39.7321 89.6632 39.319 89.3427 39.115C89.0083 38.9059 88.4928 38.7631 87.8797 38.707C86.6675 38.5948 85.8176 38.5183 84.1177 39.9769C91.2237 29.9962 93.2998 26.0539 92.0458 25.2685C91.7114 25.0594 91.1959 24.9115 90.5688 24.8554C88.2141 24.6412 87.1691 25.498 85.1627 27.6502C83.8251 29.0833 82.0974 31.1641 79.882 34.015C79.1017 35.0146 78.2797 36.0805 77.4297 37.1974C77.6805 36.4171 77.583 35.9581 77.2068 35.7133C76.8724 35.4991 76.3429 35.3512 75.7159 35.2951C73.3194 35.0758 72.3301 35.9275 70.1008 38.4061C68.6378 40.0279 66.7428 42.379 64.2766 45.592C63.9701 45.9949 63.6496 46.408 63.3292 46.8313C73.8906 32.3269 75.9528 28.6039 74.7685 27.8593C74.448 27.6604 73.9464 27.5227 73.3612 27.4717C70.5327 27.2116 69.3344 27.1045 54.802 47.1322C54.7463 46.9078 54.6348 46.7395 54.4536 46.6273C54.1053 46.408 53.5759 46.2601 52.9349 46.1989C50.5662 45.9847 49.5212 46.9282 47.891 48.6214C47.5706 48.9478 47.2362 49.3201 46.86 49.7281C48.5181 46.9384 48.8525 45.5461 48.1 45.0718C47.7517 44.8525 47.2222 44.7046 46.5813 44.6434C44.2127 44.4241 43.1955 45.3676 41.4678 47.1832C40.2556 48.4582 38.695 50.2942 36.6886 52.7983C36.5214 53.0125 36.3403 53.2318 36.1592 53.4562C54.6069 28.9354 58.2992 23.2642 56.7526 22.2901C56.4322 22.0861 55.9166 21.9484 55.3175 21.8923C52.907 21.673 51.9735 21.5863 42.4013 34.2139C42.7636 33.2959 42.68 32.8879 42.3456 32.6839C42.0669 32.5054 41.5096 32.3524 40.9662 32.3014C38.5418 32.0821 38.4164 32.0668 28.7885 42.6034C33.0381 36.8098 32.8291 36.6772 32.23 36.3049C31.9513 36.1264 31.4358 35.9887 30.8924 35.9377C29.7777 35.8357 28.6352 36.0856 28.3565 36.4936C28.2729 36.616 28.2729 36.7384 28.3565 36.8506C28.0779 37.7992 24.2741 42.8839 21.1948 46.9945C12.8766 58.1074 13.0716 58.2298 13.8101 58.6939C14.0888 58.8724 14.6043 59.0101 15.1477 59.0611C17.3213 59.26 17.8647 59.0101 22.3652 54.3232C24.8314 51.7528 27.9664 48.3256 30.9899 45.0157C31.2128 44.7709 31.4358 44.521 31.6726 44.2711C27.7852 49.7587 22.825 56.4703 18.3803 62.4679C4.07071 81.8326 0.824221 86.5654 0.824221 87.9679L0.782443 87.9628ZM53.2554 60.4228C51.5276 62.8147 49.7302 65.2933 47.9189 67.8076C41.7464 76.3654 34.738 86.086 29.1786 93.2719C34.5986 85.4893 42.5685 74.7844 49.5631 65.3902C50.8588 63.6562 52.085 62.0038 53.2554 60.4228ZM29.8195 37.4167C29.6245 37.4014 29.4572 37.3759 29.304 37.3402C29.4572 37.3708 29.6245 37.3963 29.8195 37.4167ZM42.4292 60.5605C40.2416 63.5185 37.7894 66.7468 35.2953 69.9955C37.6082 66.9151 40.0744 63.6358 42.4292 60.5605ZM54.6766 89.4673C48.0722 98.9278 41.4956 108.169 36.6747 114.294C40.8408 108.031 47.7238 98.7187 54.6766 89.4673ZM59.5672 61.3612C54.8438 67.777 50.0786 74.1469 46.4002 78.6349C49.7024 73.8664 54.9134 67.2313 59.5672 61.3612ZM68.7632 79.456C60.8351 90.9565 53.2972 101.559 48.3648 107.511C52.294 101.187 60.6122 90.1252 68.7632 79.456ZM81.5261 37.4422C76.2733 44.9443 68.7771 54.9352 62.0055 63.9418C64.3881 60.7084 66.8404 57.3475 69.2648 54.0325C73.3751 48.397 77.7363 42.4198 81.5261 37.4473L81.5261 37.4422ZM75.2004 56.2714C73.2358 58.9846 71.0761 61.9069 68.8329 64.921C70.9646 61.9987 73.1243 59.056 75.2004 56.2714ZM84.0063 75.9574C78.5026 83.638 73.1661 90.9106 69.432 95.4496C72.4276 90.676 78.2797 83.1433 84.0063 75.9574ZM96.1979 68.4298C95.5988 69.2815 94.9718 70.1587 94.3448 71.0563C86.4446 82.2559 77.1371 95.4802 71.522 102.212C75.7577 94.9753 86.779 80.5933 96.1979 68.4298ZM104.655 67.2058C93.3834 83.7706 81.4704 100.794 75.3676 107.108C78.6837 100.478 91.8925 83.5615 102.008 70.6024C102.914 69.4345 103.806 68.3023 104.655 67.2058ZM91.2376 43.7815C88.7993 47.2852 85.6782 51.5284 82.2506 56.0827C85.525 51.4672 88.6042 47.2393 91.2376 43.7815ZM108.64 70.5718C99.7648 83.3983 89.7746 97.7599 83.4907 105.333C88.1584 97.9027 98.3436 84.2296 108.64 70.5718ZM121.306 62.3659C110.187 78.6298 98.6362 95.215 92.7424 101.672C96.1979 94.5622 110.34 76.4215 121.306 62.3659ZM126.573 65.3188C124.859 67.777 123.047 70.3933 121.125 73.183C111.079 87.7333 100.002 103.752 93.6202 111.397C98.7059 102.6 113.085 83.2606 126.573 65.3188ZM136.953 72.4282C134.988 75.3607 132.94 78.4462 130.78 81.6847C117.488 101.636 101.465 125.703 93.885 133.817C98.3158 124.678 118.505 97.255 136.967 72.4231L136.953 72.4282ZM100.169 49.9015C98.5805 52.0843 96.6717 54.5833 94.6234 57.2098C96.6159 54.5068 98.4969 52.0282 100.169 49.9015ZM122.992 81.2461C112.068 97.4743 101.465 112.876 95.7381 119.369C99.2772 112.489 111.274 96.5257 122.992 81.2461ZM116.986 16.2772C112.625 23.1979 104.474 34.4383 95.7938 46.1428C103.861 34.3312 111.678 23.0959 116.986 16.2772ZM138.653 101.799C128.774 116.548 119.285 130.334 113.74 136.663C117.432 130.099 127.715 116.247 138.653 101.799ZM155.679 87.2488C154.133 89.5285 152.516 91.9051 150.844 94.3735C138.918 111.994 124.594 133.144 117.391 141.156C122.086 132.185 140.032 108.118 155.679 87.2488ZM133.706 87.157C129.471 93.1546 125.388 98.8411 122.016 103.253C125.012 98.8615 129.15 93.2209 133.706 87.157ZM142.916 17.8837C139.614 23.0449 134.431 30.3022 128.579 38.2633C133.957 30.3787 139.043 23.0551 142.916 17.8837ZM142.568 84.1225C138.193 90.2017 133.999 95.9341 130.711 100.106C133.553 95.8882 137.886 90.1507 142.568 84.1225ZM154.3 33.2551C150.19 39.9616 140.617 52.63 130.864 65.3443C139.558 52.8085 148.657 39.9004 154.3 33.2551ZM162.298 89.8957C150.747 107.073 139.447 123.291 133.149 130.079C137.441 122.679 150.468 105.497 162.242 89.9722C162.256 89.9467 162.284 89.9212 162.298 89.8957ZM165.252 6.07212C160.654 13.8904 149.005 29.6953 136.8 45.9796C147.64 30.0727 158.8 13.87 165.252 6.07212ZM179.631 6.99014C174.378 16.3027 155.54 41.6446 138.5 64.5385C153.673 41.8894 171.131 15.9916 179.631 6.99014ZM170.086 31.9087C166.213 38.4979 156.209 51.8242 146.637 64.411C155.777 50.8654 164.68 38.0797 170.086 31.9087ZM169.557 88.4269C163.398 97.459 157.616 105.772 153.199 111.591C157.031 105.762 162.925 97.51 169.557 88.4269ZM174.211 36.5803C170.895 42.3076 162.813 52.8646 154.955 62.8708C162.228 52.4719 169.599 42.1189 174.211 36.5803ZM174.183 91.3288C167.467 101.157 160.807 110.739 156.042 116.921C159.915 110.862 166.617 101.565 174.183 91.3288ZM188.632 47.5249C184.229 55.1494 171.438 72.1069 160.124 87.0295C170.783 71.3266 182.222 54.7618 188.632 47.5249ZM187.768 92.6089C178.405 106.149 167.773 121.449 161.336 129.212C165.99 121.633 176.774 107.175 187.768 92.6089ZM187.67 37.1515C183.393 44.1232 173.625 57.4495 163.203 71.4031C172.567 57.4444 181.86 43.9855 187.67 37.1515ZM184.438 107.572C176.273 119.67 168.874 130.227 164.039 136.015C167.815 129.839 175.966 118.803 184.438 107.572ZM182.599 89.6815C178.683 95.2711 175.019 100.31 172.079 103.982C174.629 100.228 178.405 95.164 182.599 89.6815ZM218.658 14.431C213.851 22.4278 201.729 39.0181 189.37 55.7308C200.851 38.5489 212.081 22.1218 218.658 14.431ZM215.76 39.1915C212.207 45.9796 199.639 62.1772 189.607 75.0445C199.528 60.5248 210.047 45.4237 215.76 39.1915ZM223.618 17.2921C218.909 25.6816 204.251 45.4135 190.694 63.4981C202.983 45.2401 216.47 25.4317 223.618 17.2921ZM206.425 84.6478C201.659 91.4206 197.089 97.816 193.355 102.778C196.685 97.8619 201.311 91.5226 206.425 84.6478ZM218.351 55.7869C214.297 62.1619 206.703 72.4333 198.803 82.9138C206.09 72.4129 213.349 62.0905 218.351 55.7869ZM215.425 81.3991C209.601 89.8702 203.582 98.4841 199.123 104.227C202.774 98.5657 208.891 90.1762 215.425 81.3991ZM227.366 32.0107C223.354 39.3802 211.315 55.7002 199.151 71.8315C199.848 70.8115 200.559 69.766 201.269 68.695C210.396 55.2106 221.25 39.1609 227.352 32.0107L227.366 32.0107ZM222.183 92.5171C216.735 100.228 211.134 108.062 206.62 113.876C210.618 108.108 216.317 100.386 222.183 92.5171ZM251.694 16.6189C247.5 24.5392 231.588 45.5818 218.17 63.2992C231.477 43.3429 244.867 23.7997 251.694 16.6189ZM248.266 41.1295C243.473 49.1059 232.132 64.5742 221.027 79.5121C222.127 77.9158 223.27 76.2379 224.468 74.4835C232.633 62.5597 242.247 48.5194 248.266 41.1244L248.266 41.1295ZM237.022 101.646C232.94 107.506 229.164 112.693 226.238 116.283C228.718 112.519 232.717 107.21 237.022 101.646ZM250.217 48.2083C245.535 55.3228 237.301 66.4816 229.303 77.1967C236.994 66.1093 244.755 55.1086 250.217 48.2083ZM255.358 61.4071C253.282 64.258 250.9 67.4149 248.447 70.6024C250.802 67.4251 253.171 64.258 255.358 61.4071ZM284.66 39.1864C280.856 45.1177 273.75 54.7975 266.491 64.4824C273.277 54.4864 279.965 44.9239 284.66 39.1864ZM283.281 107.18C283.169 107.159 283.058 107.149 282.946 107.134C283.064 107.143 283.176 107.158 283.281 107.18Z" fill="#6610F2"/>
<path opacity="0.9" d="M104.71 82.0361H100.134V60.5961H110.086C114.726 60.5961 118.118 62.7401 118.118 67.2841C118.118 71.0921 115.526 73.0441 112.038 73.4601C113.734 73.9081 114.63 74.9641 115.558 76.4681L118.95 82.0361H113.67L110.054 75.9561C109.222 74.5161 108.262 74.0041 106.374 74.0041H104.71V82.0361ZM109.926 64.6601H104.71V70.3241H109.926C111.91 70.3241 113.318 69.5241 113.318 67.5081C113.318 65.4281 111.91 64.6601 109.926 64.6601ZM127.553 82.3561C122.561 82.3561 119.521 79.0281 119.521 74.1961C119.521 69.3641 122.561 66.0361 127.169 66.0361C132.161 66.0361 134.657 69.3641 134.657 73.4601C134.657 74.1321 134.593 75.0281 134.497 75.3801H123.809C124.097 77.5881 125.569 78.6441 127.617 78.6441C129.825 78.6441 131.009 77.6841 131.585 76.3401L134.369 79.1241C133.185 80.8201 131.073 82.3561 127.553 82.3561ZM127.201 69.5561C125.249 69.5561 124.033 70.6441 123.809 72.7561H130.529C130.369 70.6761 129.249 69.5561 127.201 69.5561ZM146.269 82.0361H140.477L134.973 66.3561H140.029L142.205 73.8761L143.421 79.3801L144.605 73.8761L146.781 66.3561H151.773L146.269 82.0361ZM159.928 82.3561C154.936 82.3561 151.896 79.0281 151.896 74.1961C151.896 69.3641 154.936 66.0361 159.544 66.0361C164.536 66.0361 167.032 69.3641 167.032 73.4601C167.032 74.1321 166.968 75.0281 166.872 75.3801H156.184C156.472 77.5881 157.944 78.6441 159.992 78.6441C162.2 78.6441 163.384 77.6841 163.96 76.3401L166.744 79.1241C165.56 80.8201 163.448 82.3561 159.928 82.3561ZM159.576 69.5561C157.624 69.5561 156.408 70.6441 156.184 72.7561H162.904C162.744 70.6761 161.624 69.5561 159.576 69.5561ZM174.301 82.0361H169.725V60.5961H174.301V82.0361ZM180.93 82.3881C178.498 82.3881 176.802 81.0761 176.802 78.5481C176.802 76.1801 178.306 74.8041 181.282 73.7801L186.082 71.9881C185.922 70.6761 185.314 69.9401 183.586 69.9401C181.602 69.9401 179.778 71.0601 178.69 72.6281L176.386 69.3001C177.954 67.6041 180.546 66.0361 183.906 66.0361C187.874 66.0361 190.178 68.1481 190.178 72.0841V77.4601C190.178 78.1641 190.434 78.3881 191.01 78.3881H191.938V82.0361H189.25C187.554 82.0361 186.018 81.2681 186.018 79.0281V77.9721C185.506 80.0201 184.13 82.3881 180.93 82.3881ZM181.026 77.8761C181.026 78.6121 181.538 79.0281 182.626 79.0281C184.802 79.0281 186.018 77.9401 186.018 76.0201V74.9321L182.69 76.3081C181.442 76.8201 181.026 77.2681 181.026 77.8761ZM198.676 82.0361H194.1V66.3561H198.676V71.2841C199.188 68.6601 200.724 66.0361 203.732 66.0361C206.036 66.0361 207.316 67.5081 207.316 69.9721C207.316 71.6681 206.804 73.0121 206.42 73.6201H202.004C202.58 73.0441 203.124 71.9241 203.124 71.0281C203.124 70.1321 202.708 69.4601 201.716 69.4601C200.148 69.4601 198.676 71.1561 198.676 73.7481V82.0361Z" fill="#F4F0FF"/>
</svg>
