<svg width="1017" height="172" viewBox="0 0 1017 172" fill="none" xmlns="http://www.w3.org/2000/svg">
<path d="M82.76 134.808C75.0693 134.808 67.1173 133.203 58.904 129.992C50.7653 126.856 43.2613 122.301 36.392 116.328C26.76 113.715 19.144 108.787 13.544 101.544C7.944 94.3013 5.144 85.3413 5.144 74.664C5.144 65.928 7.01067 58.3493 10.744 51.928C14.4773 45.432 19.704 40.392 26.424 36.808C33.144 33.224 40.9467 31.432 49.832 31.432C58.792 31.432 66.5947 33.224 73.24 36.808C79.96 40.392 85.1867 45.432 88.92 51.928C92.6533 58.3493 94.52 65.928 94.52 74.664C94.52 82.1307 93.1387 88.776 90.376 94.6C87.6133 100.424 83.7307 105.24 78.728 109.048C73.8 112.781 67.9387 115.357 61.144 116.776C66.1467 120.659 71.336 123.608 76.712 125.624C82.1627 127.64 87.4267 128.648 92.504 128.648C97.88 128.648 102.621 127.528 106.728 125.288L106.616 126.52C103.779 129.357 100.307 131.448 96.2 132.792C92.0933 134.136 87.6133 134.808 82.76 134.808ZM49.832 116.104C53.7147 116.104 57.224 115.133 60.36 113.192C63.5707 111.176 66.3333 108.339 68.648 104.68C70.888 101.096 72.6053 96.7653 73.8 91.688C75.0693 86.536 75.704 80.8613 75.704 74.664C75.704 68.392 75.0693 62.68 73.8 57.528C72.6053 52.376 70.888 47.9707 68.648 44.312C66.3333 40.728 63.5707 37.928 60.36 35.912C57.224 33.896 53.7147 32.888 49.832 32.888C45.9493 32.888 42.4027 33.896 39.192 35.912C36.056 37.928 33.368 40.728 31.128 44.312C28.888 47.9707 27.1333 52.376 25.864 57.528C24.6693 62.68 24.072 68.392 24.072 74.664C24.072 82.952 25.1173 90.232 27.208 96.504C29.3733 102.701 32.3973 107.517 36.28 110.952C40.1627 114.387 44.68 116.104 49.832 116.104ZM141.743 120.136L141.631 105.688C139.69 109.496 136.74 112.595 132.783 114.984C128.826 117.373 124.644 118.568 120.239 118.568C115.236 118.568 111.204 116.925 108.143 113.64C105.156 110.355 103.663 106.024 103.663 100.648V70.184C103.663 67.3467 103.103 65.144 101.983 63.576C100.863 62.008 98.3989 61.224 94.5909 61.224V60.104H105.903C109.711 60.104 112.623 59.6933 114.639 58.872C116.506 58.0507 117.812 57.0427 118.559 55.848H119.679V101.768C119.679 105.501 120.426 108.488 121.919 110.728C123.412 112.968 125.354 114.088 127.743 114.088C130.058 114.088 132.447 113.117 134.911 111.176C137.375 109.16 139.54 106.472 141.407 103.112V70.184C141.407 67.496 140.735 65.3307 139.391 63.688C138.047 62.0453 135.732 61.224 132.447 61.224V60.104H143.759C147.567 60.104 150.479 59.6933 152.495 58.872C154.436 58.0507 155.78 57.0427 156.527 55.848H157.647L157.535 106.92C157.535 109.608 158.356 111.811 159.999 113.528C161.642 115.171 163.807 115.992 166.495 115.992V117H155.407C153.466 117 151.748 117.037 150.255 117.112C148.762 117.261 147.53 117.411 146.559 117.56C144.543 118.008 143.124 118.867 142.303 120.136H141.743ZM165.409 117V115.88H165.521C168.209 115.88 170.374 115.059 172.017 113.416C173.66 111.773 174.481 109.608 174.481 106.92V70.184C174.481 67.3467 173.884 65.144 172.689 63.576C171.569 62.008 169.142 61.224 165.409 61.224V60.104H176.833C180.641 60.104 183.553 59.6933 185.569 58.872C187.436 58.0507 188.742 57.0427 189.489 55.848H190.609V106.92C190.609 109.608 191.43 111.773 193.073 113.416C194.716 115.059 196.881 115.88 199.569 115.88H199.681V117H165.409ZM182.433 48.792C179.745 48.792 177.505 47.9333 175.713 46.216C173.996 44.424 173.137 42.184 173.137 39.496C173.137 36.808 173.996 34.6053 175.713 32.888C177.505 31.096 179.745 30.2 182.433 30.2C185.046 30.2 187.212 31.096 188.929 32.888C190.721 34.68 191.617 36.8827 191.617 39.496C191.617 42.1093 190.721 44.312 188.929 46.104C187.212 47.896 185.046 48.792 182.433 48.792ZM226.362 118.344C221.21 118.344 216.618 117.075 212.586 114.536C208.629 111.997 205.53 108.488 203.29 104.008C201.05 99.4533 199.93 94.264 199.93 88.44C199.93 82.4667 201.162 77.24 203.626 72.76C206.09 68.28 209.45 64.808 213.706 62.344C218.037 59.8053 222.928 58.536 228.378 58.536C232.933 58.536 236.965 59.432 240.474 61.224C244.058 63.016 246.896 65.5547 248.986 68.84C251.152 72.0507 252.384 75.784 252.682 80.04L252.794 81.72H215.162V82.28C215.162 90.1947 216.917 96.5413 220.426 101.32C223.936 106.024 228.64 108.376 234.538 108.376C238.122 108.376 241.52 107.517 244.73 105.8C248.016 104.008 250.666 101.619 252.682 98.632L253.69 98.968C252.421 102.776 250.442 106.136 247.754 109.048C245.066 111.96 241.893 114.237 238.234 115.88C234.576 117.523 230.618 118.344 226.362 118.344ZM215.274 80.04H238.01C238.01 74.1413 237.04 69.3627 235.098 65.704C233.232 62.0453 230.581 60.216 227.146 60.216C223.861 60.216 221.136 62.008 218.97 65.592C216.805 69.176 215.573 73.992 215.274 80.04ZM220.65 51.928L219.866 50.808L235.21 29.192H235.77L243.05 35.688V36.248L220.65 51.928ZM254.219 117V115.88H254.331C257.019 115.88 259.184 115.059 260.827 113.416C262.47 111.773 263.291 109.608 263.291 106.92V70.184C263.291 67.3467 262.694 65.144 261.499 63.576C260.379 62.008 257.952 61.224 254.219 61.224V60.104H265.307C269.115 60.104 272.027 59.6933 274.043 58.872C275.91 58.0507 277.216 57.0427 277.963 55.848H279.083L279.195 71.528C281.136 67.6453 284.086 64.5093 288.043 62.12C292 59.7307 296.182 58.536 300.587 58.536C305.59 58.536 309.584 60.1787 312.571 63.464C315.632 66.7493 317.163 71.08 317.163 76.456V106.92C317.163 109.608 317.984 111.773 319.627 113.416C321.27 115.059 323.435 115.88 326.123 115.88H326.235V117H292.075V115.88H292.187C294.875 115.88 297.04 115.059 298.683 113.416C300.326 111.773 301.147 109.608 301.147 106.92V75.336C301.147 71.6027 300.4 68.616 298.907 66.376C297.488 64.136 295.584 63.016 293.195 63.016C290.88 63.016 288.454 64.024 285.915 66.04C283.451 67.9813 281.286 70.632 279.419 73.992V106.92C279.419 109.608 280.24 111.773 281.883 113.416C283.526 115.059 285.691 115.88 288.379 115.88H288.491V117H254.219ZM352.034 118.344C346.882 118.344 342.29 117.075 338.258 114.536C334.301 111.997 331.202 108.488 328.962 104.008C326.722 99.4533 325.602 94.264 325.602 88.44C325.602 82.4667 326.834 77.24 329.298 72.76C331.762 68.28 335.122 64.808 339.378 62.344C343.709 59.8053 348.6 58.536 354.05 58.536C358.605 58.536 362.637 59.432 366.146 61.224C369.73 63.016 372.568 65.5547 374.658 68.84C376.824 72.0507 378.056 75.784 378.354 80.04L378.466 81.72H340.834V82.28C340.834 90.1947 342.589 96.5413 346.098 101.32C349.608 106.024 354.312 108.376 360.21 108.376C363.794 108.376 367.192 107.517 370.402 105.8C373.688 104.008 376.338 101.619 378.354 98.632L379.362 98.968C378.093 102.776 376.114 106.136 373.426 109.048C370.738 111.96 367.565 114.237 363.906 115.88C360.248 117.523 356.29 118.344 352.034 118.344ZM340.946 80.04H363.682C363.682 74.1413 362.712 69.3627 360.77 65.704C358.904 62.0453 356.253 60.216 352.818 60.216C349.533 60.216 346.808 62.008 344.642 65.592C342.477 69.176 341.245 73.992 340.946 80.04ZM403.27 118.568C401.329 118.568 399.873 118.493 398.902 118.344C397.931 118.195 396.998 118.008 396.102 117.784C395.281 117.56 394.161 117.373 392.742 117.224C391.323 117.075 389.158 117 386.246 117L383.558 95.944H385.014C386.209 102.963 388.449 108.264 391.734 111.848C395.019 115.357 398.603 117.112 402.486 117.112C406.294 117.112 409.169 116.328 411.11 114.76C413.126 113.192 414.134 111.064 414.134 108.376C414.134 106.659 413.686 105.165 412.79 103.896C411.969 102.552 410.513 101.208 408.422 99.864C406.331 98.4453 403.494 96.7653 399.91 94.824L396.662 93.032C392.555 90.7173 389.494 88.0293 387.478 84.968C385.537 81.832 384.566 78.472 384.566 74.888C384.566 69.8107 386.395 65.816 390.054 62.904C393.787 59.992 398.753 58.536 404.95 58.536C406.518 58.536 407.787 58.6107 408.758 58.76C409.729 58.9093 410.662 59.096 411.558 59.32C412.454 59.544 413.574 59.7307 414.918 59.88C416.262 60.0293 418.054 60.104 420.294 60.104L421.862 78.136H420.518C420.07 74.6267 419.062 71.528 417.494 68.84C416.001 66.0773 414.209 63.9493 412.118 62.456C410.027 60.888 407.899 60.104 405.734 60.104C402.897 60.104 400.619 60.8507 398.902 62.344C397.259 63.8373 396.438 65.928 396.438 68.616C396.438 70.632 397.073 72.4987 398.342 74.216C399.686 75.8587 402.225 77.6507 405.958 79.592L409.318 81.272C414.545 83.96 418.353 86.76 420.742 89.672C423.131 92.584 424.326 96.3173 424.326 100.872C424.326 112.52 417.307 118.419 403.27 118.568ZM473.926 118.568C471.985 118.568 470.529 118.493 469.558 118.344C468.587 118.195 467.654 118.008 466.758 117.784C465.937 117.56 464.817 117.373 463.398 117.224C461.979 117.075 459.814 117 456.902 117L454.214 95.944H455.67C456.865 102.963 459.105 108.264 462.39 111.848C465.675 115.357 469.259 117.112 473.142 117.112C476.95 117.112 479.825 116.328 481.766 114.76C483.782 113.192 484.79 111.064 484.79 108.376C484.79 106.659 484.342 105.165 483.446 103.896C482.625 102.552 481.169 101.208 479.078 99.864C476.987 98.4453 474.15 96.7653 470.566 94.824L467.318 93.032C463.211 90.7173 460.15 88.0293 458.134 84.968C456.193 81.832 455.222 78.472 455.222 74.888C455.222 69.8107 457.051 65.816 460.71 62.904C464.443 59.992 469.409 58.536 475.606 58.536C477.174 58.536 478.443 58.6107 479.414 58.76C480.385 58.9093 481.318 59.096 482.214 59.32C483.11 59.544 484.23 59.7307 485.574 59.88C486.918 60.0293 488.71 60.104 490.95 60.104L492.518 78.136H491.174C490.726 74.6267 489.718 71.528 488.15 68.84C486.657 66.0773 484.865 63.9493 482.774 62.456C480.683 60.888 478.555 60.104 476.39 60.104C473.553 60.104 471.275 60.8507 469.558 62.344C467.915 63.8373 467.094 65.928 467.094 68.616C467.094 70.632 467.729 72.4987 468.998 74.216C470.342 75.8587 472.881 77.6507 476.614 79.592L479.974 81.272C485.201 83.96 489.009 86.76 491.398 89.672C493.787 92.584 494.982 96.3173 494.982 100.872C494.982 112.52 487.963 118.419 473.926 118.568ZM530.962 118.568C524.839 118.568 519.463 117.336 514.834 114.872C510.279 112.408 506.733 108.936 504.194 104.456C501.655 99.976 500.386 94.6747 500.386 88.552C500.386 82.4293 501.655 77.128 504.194 72.648C506.733 68.168 510.279 64.696 514.834 62.232C519.463 59.768 524.839 58.536 530.962 58.536C537.085 58.536 542.423 59.768 546.978 62.232C551.533 64.696 555.079 68.168 557.618 72.648C560.157 77.128 561.426 82.4293 561.426 88.552C561.426 94.6747 560.157 99.976 557.618 104.456C555.079 108.936 551.533 112.408 546.978 114.872C542.423 117.336 537.085 118.568 530.962 118.568ZM530.85 117.112C533.463 117.112 535.703 115.805 537.57 113.192C539.437 110.579 540.893 107.107 541.938 102.776C542.983 98.3707 543.506 93.592 543.506 88.44C543.506 82.84 542.946 77.912 541.826 73.656C540.781 69.3253 539.287 65.9653 537.346 63.576C535.479 61.112 533.351 59.88 530.962 59.88C528.423 59.88 526.183 61.1867 524.242 63.8C522.375 66.4133 520.919 69.8853 519.874 74.216C518.829 78.5467 518.306 83.288 518.306 88.44C518.306 94.1147 518.866 99.1173 519.986 103.448C521.106 107.779 522.599 111.139 524.466 113.528C526.407 115.917 528.535 117.112 530.85 117.112ZM562.985 117V115.88H563.097C565.785 115.88 567.95 115.059 569.593 113.416C571.235 111.773 572.057 109.608 572.057 106.92V70.184C572.057 67.3467 571.459 65.144 570.265 63.576C569.145 62.008 566.718 61.224 562.985 61.224V60.104H574.073C577.134 60.104 579.486 59.9547 581.129 59.656C582.846 59.3573 584.115 58.984 584.937 58.536C585.758 58.0133 586.355 57.4907 586.729 56.968H587.849L587.961 71.528C589.902 67.6453 592.851 64.5093 596.809 62.12C600.766 59.7307 604.947 58.536 609.353 58.536C613.609 58.536 617.155 59.7307 619.993 62.12C622.83 64.5093 624.659 67.72 625.481 71.752C627.571 67.72 630.558 64.5093 634.441 62.12C638.398 59.7307 642.654 58.536 647.209 58.536C652.211 58.536 656.206 60.1787 659.193 63.464C662.254 66.7493 663.785 71.08 663.785 76.456V106.92C663.785 109.608 664.606 111.773 666.249 113.416C667.891 115.059 670.057 115.88 672.745 115.88H672.857V117H638.697V115.88H638.809C641.497 115.88 643.662 115.059 645.305 113.416C646.947 111.773 647.769 109.608 647.769 106.92V75.336C647.769 71.6027 647.022 68.616 645.529 66.376C644.035 64.136 642.094 63.016 639.705 63.016C637.39 63.016 634.963 64.0613 632.425 66.152C629.886 68.168 627.683 70.8187 625.817 74.104C625.891 74.2533 625.929 74.44 625.929 74.664C625.929 74.888 625.929 75.0747 625.929 75.224V106.92C625.929 109.608 626.75 111.773 628.393 113.416C630.035 115.059 632.201 115.88 634.889 115.88H635.001V117H600.841V115.88H600.953C603.641 115.88 605.806 115.059 607.449 113.416C609.091 111.773 609.913 109.608 609.913 106.92V75.336C609.913 71.6027 609.166 68.616 607.673 66.376C606.254 64.136 604.35 63.016 601.961 63.016C599.646 63.016 597.219 64.024 594.681 66.04C592.217 67.9813 590.051 70.632 588.185 73.992V106.92C588.185 109.608 589.006 111.773 590.649 113.416C592.291 115.059 594.457 115.88 597.145 115.88H597.257V117H562.985ZM704.103 118.568C697.98 118.568 692.604 117.336 687.975 114.872C683.42 112.408 679.873 108.936 677.335 104.456C674.796 99.976 673.527 94.6747 673.527 88.552C673.527 82.4293 674.796 77.128 677.335 72.648C679.873 68.168 683.42 64.696 687.975 62.232C692.604 59.768 697.98 58.536 704.103 58.536C710.225 58.536 715.564 59.768 720.119 62.232C724.673 64.696 728.22 68.168 730.759 72.648C733.297 77.128 734.567 82.4293 734.567 88.552C734.567 94.6747 733.297 99.976 730.759 104.456C728.22 108.936 724.673 112.408 720.119 114.872C715.564 117.336 710.225 118.568 704.103 118.568ZM703.991 117.112C706.604 117.112 708.844 115.805 710.711 113.192C712.577 110.579 714.033 107.107 715.079 102.776C716.124 98.3707 716.647 93.592 716.647 88.44C716.647 82.84 716.087 77.912 714.967 73.656C713.921 69.3253 712.428 65.9653 710.487 63.576C708.62 61.112 706.492 59.88 704.103 59.88C701.564 59.88 699.324 61.1867 697.383 63.8C695.516 66.4133 694.06 69.8853 693.015 74.216C691.969 78.5467 691.447 83.288 691.447 88.44C691.447 94.1147 692.007 99.1173 693.127 103.448C694.247 107.779 695.74 111.139 697.607 113.528C699.548 115.917 701.676 117.112 703.991 117.112ZM759.504 118.568C757.563 118.568 756.107 118.493 755.136 118.344C754.166 118.195 753.232 118.008 752.336 117.784C751.515 117.56 750.395 117.373 748.976 117.224C747.558 117.075 745.392 117 742.48 117L739.792 95.944H741.248C742.443 102.963 744.683 108.264 747.968 111.848C751.254 115.357 754.838 117.112 758.72 117.112C762.528 117.112 765.403 116.328 767.344 114.76C769.36 113.192 770.368 111.064 770.368 108.376C770.368 106.659 769.92 105.165 769.024 103.896C768.203 102.552 766.747 101.208 764.656 99.864C762.566 98.4453 759.728 96.7653 756.144 94.824L752.896 93.032C748.79 90.7173 745.728 88.0293 743.712 84.968C741.771 81.832 740.8 78.472 740.8 74.888C740.8 69.8107 742.63 65.816 746.288 62.904C750.022 59.992 754.987 58.536 761.184 58.536C762.752 58.536 764.022 58.6107 764.992 58.76C765.963 58.9093 766.896 59.096 767.792 59.32C768.688 59.544 769.808 59.7307 771.152 59.88C772.496 60.0293 774.288 60.104 776.528 60.104L778.096 78.136H776.752C776.304 74.6267 775.296 71.528 773.728 68.84C772.235 66.0773 770.443 63.9493 768.352 62.456C766.262 60.888 764.134 60.104 761.968 60.104C759.131 60.104 756.854 60.8507 755.136 62.344C753.494 63.8373 752.672 65.928 752.672 68.616C752.672 70.632 753.307 72.4987 754.576 74.216C755.92 75.8587 758.459 77.6507 762.192 79.592L765.552 81.272C770.779 83.96 774.587 86.76 776.976 89.672C779.366 92.584 780.56 96.3173 780.56 100.872C780.56 112.52 773.542 118.419 759.504 118.568Z" fill="#0C0C0D"/>
<path d="M81.76 133.808C74.0693 133.808 66.1173 132.203 57.904 128.992C49.7653 125.856 42.2613 121.301 35.392 115.328C25.76 112.715 18.144 107.787 12.544 100.544C6.944 93.3013 4.144 84.3413 4.144 73.664C4.144 64.928 6.01067 57.3493 9.744 50.928C13.4773 44.432 18.704 39.392 25.424 35.808C32.144 32.224 39.9467 30.432 48.832 30.432C57.792 30.432 65.5947 32.224 72.24 35.808C78.96 39.392 84.1867 44.432 87.92 50.928C91.6533 57.3493 93.52 64.928 93.52 73.664C93.52 81.1307 92.1387 87.776 89.376 93.6C86.6133 99.424 82.7307 104.24 77.728 108.048C72.8 111.781 66.9387 114.357 60.144 115.776C65.1467 119.659 70.336 122.608 75.712 124.624C81.1627 126.64 86.4267 127.648 91.504 127.648C96.88 127.648 101.621 126.528 105.728 124.288L105.616 125.52C102.779 128.357 99.3067 130.448 95.2 131.792C91.0933 133.136 86.6133 133.808 81.76 133.808ZM48.832 115.104C52.7147 115.104 56.224 114.133 59.36 112.192C62.5707 110.176 65.3333 107.339 67.648 103.68C69.888 100.096 71.6053 95.7653 72.8 90.688C74.0693 85.536 74.704 79.8613 74.704 73.664C74.704 67.392 74.0693 61.68 72.8 56.528C71.6053 51.376 69.888 46.9707 67.648 43.312C65.3333 39.728 62.5707 36.928 59.36 34.912C56.224 32.896 52.7147 31.888 48.832 31.888C44.9493 31.888 41.4027 32.896 38.192 34.912C35.056 36.928 32.368 39.728 30.128 43.312C27.888 46.9707 26.1333 51.376 24.864 56.528C23.6693 61.68 23.072 67.392 23.072 73.664C23.072 81.952 24.1173 89.232 26.208 95.504C28.3733 101.701 31.3973 106.517 35.28 109.952C39.1627 113.387 43.68 115.104 48.832 115.104ZM140.743 119.136L140.631 104.688C138.69 108.496 135.74 111.595 131.783 113.984C127.826 116.373 123.644 117.568 119.239 117.568C114.236 117.568 110.204 115.925 107.143 112.64C104.156 109.355 102.663 105.024 102.663 99.648V69.184C102.663 66.3467 102.103 64.144 100.983 62.576C99.8629 61.008 97.3989 60.224 93.5909 60.224V59.104H104.903C108.711 59.104 111.623 58.6933 113.639 57.872C115.506 57.0507 116.812 56.0427 117.559 54.848H118.679V100.768C118.679 104.501 119.426 107.488 120.919 109.728C122.412 111.968 124.354 113.088 126.743 113.088C129.058 113.088 131.447 112.117 133.911 110.176C136.375 108.16 138.54 105.472 140.407 102.112V69.184C140.407 66.496 139.735 64.3307 138.391 62.688C137.047 61.0453 134.732 60.224 131.447 60.224V59.104H142.759C146.567 59.104 149.479 58.6933 151.495 57.872C153.436 57.0507 154.78 56.0427 155.527 54.848H156.647L156.535 105.92C156.535 108.608 157.356 110.811 158.999 112.528C160.642 114.171 162.807 114.992 165.495 114.992V116H154.407C152.466 116 150.748 116.037 149.255 116.112C147.762 116.261 146.53 116.411 145.559 116.56C143.543 117.008 142.124 117.867 141.303 119.136H140.743ZM164.409 116V114.88H164.521C167.209 114.88 169.374 114.059 171.017 112.416C172.66 110.773 173.481 108.608 173.481 105.92V69.184C173.481 66.3467 172.884 64.144 171.689 62.576C170.569 61.008 168.142 60.224 164.409 60.224V59.104H175.833C179.641 59.104 182.553 58.6933 184.569 57.872C186.436 57.0507 187.742 56.0427 188.489 54.848H189.609V105.92C189.609 108.608 190.43 110.773 192.073 112.416C193.716 114.059 195.881 114.88 198.569 114.88H198.681V116H164.409ZM181.433 47.792C178.745 47.792 176.505 46.9333 174.713 45.216C172.996 43.424 172.137 41.184 172.137 38.496C172.137 35.808 172.996 33.6053 174.713 31.888C176.505 30.096 178.745 29.2 181.433 29.2C184.046 29.2 186.212 30.096 187.929 31.888C189.721 33.68 190.617 35.8827 190.617 38.496C190.617 41.1093 189.721 43.312 187.929 45.104C186.212 46.896 184.046 47.792 181.433 47.792ZM225.362 117.344C220.21 117.344 215.618 116.075 211.586 113.536C207.629 110.997 204.53 107.488 202.29 103.008C200.05 98.4533 198.93 93.264 198.93 87.44C198.93 81.4667 200.162 76.24 202.626 71.76C205.09 67.28 208.45 63.808 212.706 61.344C217.037 58.8053 221.928 57.536 227.378 57.536C231.933 57.536 235.965 58.432 239.474 60.224C243.058 62.016 245.896 64.5547 247.986 67.84C250.152 71.0507 251.384 74.784 251.682 79.04L251.794 80.72H214.162V81.28C214.162 89.1947 215.917 95.5413 219.426 100.32C222.936 105.024 227.64 107.376 233.538 107.376C237.122 107.376 240.52 106.517 243.73 104.8C247.016 103.008 249.666 100.619 251.682 97.632L252.69 97.968C251.421 101.776 249.442 105.136 246.754 108.048C244.066 110.96 240.893 113.237 237.234 114.88C233.576 116.523 229.618 117.344 225.362 117.344ZM214.274 79.04H237.01C237.01 73.1413 236.04 68.3627 234.098 64.704C232.232 61.0453 229.581 59.216 226.146 59.216C222.861 59.216 220.136 61.008 217.97 64.592C215.805 68.176 214.573 72.992 214.274 79.04ZM219.65 50.928L218.866 49.808L234.21 28.192H234.77L242.05 34.688V35.248L219.65 50.928ZM253.219 116V114.88H253.331C256.019 114.88 258.184 114.059 259.827 112.416C261.47 110.773 262.291 108.608 262.291 105.92V69.184C262.291 66.3467 261.694 64.144 260.499 62.576C259.379 61.008 256.952 60.224 253.219 60.224V59.104H264.307C268.115 59.104 271.027 58.6933 273.043 57.872C274.91 57.0507 276.216 56.0427 276.963 54.848H278.083L278.195 70.528C280.136 66.6453 283.086 63.5093 287.043 61.12C291 58.7307 295.182 57.536 299.587 57.536C304.59 57.536 308.584 59.1787 311.571 62.464C314.632 65.7493 316.163 70.08 316.163 75.456V105.92C316.163 108.608 316.984 110.773 318.627 112.416C320.27 114.059 322.435 114.88 325.123 114.88H325.235V116H291.075V114.88H291.187C293.875 114.88 296.04 114.059 297.683 112.416C299.326 110.773 300.147 108.608 300.147 105.92V74.336C300.147 70.6027 299.4 67.616 297.907 65.376C296.488 63.136 294.584 62.016 292.195 62.016C289.88 62.016 287.454 63.024 284.915 65.04C282.451 66.9813 280.286 69.632 278.419 72.992V105.92C278.419 108.608 279.24 110.773 280.883 112.416C282.526 114.059 284.691 114.88 287.379 114.88H287.491V116H253.219ZM351.034 117.344C345.882 117.344 341.29 116.075 337.258 113.536C333.301 110.997 330.202 107.488 327.962 103.008C325.722 98.4533 324.602 93.264 324.602 87.44C324.602 81.4667 325.834 76.24 328.298 71.76C330.762 67.28 334.122 63.808 338.378 61.344C342.709 58.8053 347.6 57.536 353.05 57.536C357.605 57.536 361.637 58.432 365.146 60.224C368.73 62.016 371.568 64.5547 373.658 67.84C375.824 71.0507 377.056 74.784 377.354 79.04L377.466 80.72H339.834V81.28C339.834 89.1947 341.589 95.5413 345.098 100.32C348.608 105.024 353.312 107.376 359.21 107.376C362.794 107.376 366.192 106.517 369.402 104.8C372.688 103.008 375.338 100.619 377.354 97.632L378.362 97.968C377.093 101.776 375.114 105.136 372.426 108.048C369.738 110.96 366.565 113.237 362.906 114.88C359.248 116.523 355.29 117.344 351.034 117.344ZM339.946 79.04H362.682C362.682 73.1413 361.712 68.3627 359.77 64.704C357.904 61.0453 355.253 59.216 351.818 59.216C348.533 59.216 345.808 61.008 343.642 64.592C341.477 68.176 340.245 72.992 339.946 79.04ZM402.27 117.568C400.329 117.568 398.873 117.493 397.902 117.344C396.931 117.195 395.998 117.008 395.102 116.784C394.281 116.56 393.161 116.373 391.742 116.224C390.323 116.075 388.158 116 385.246 116L382.558 94.944H384.014C385.209 101.963 387.449 107.264 390.734 110.848C394.019 114.357 397.603 116.112 401.486 116.112C405.294 116.112 408.169 115.328 410.11 113.76C412.126 112.192 413.134 110.064 413.134 107.376C413.134 105.659 412.686 104.165 411.79 102.896C410.969 101.552 409.513 100.208 407.422 98.864C405.331 97.4453 402.494 95.7653 398.91 93.824L395.662 92.032C391.555 89.7173 388.494 87.0293 386.478 83.968C384.537 80.832 383.566 77.472 383.566 73.888C383.566 68.8107 385.395 64.816 389.054 61.904C392.787 58.992 397.753 57.536 403.95 57.536C405.518 57.536 406.787 57.6107 407.758 57.76C408.729 57.9093 409.662 58.096 410.558 58.32C411.454 58.544 412.574 58.7307 413.918 58.88C415.262 59.0293 417.054 59.104 419.294 59.104L420.862 77.136H419.518C419.07 73.6267 418.062 70.528 416.494 67.84C415.001 65.0773 413.209 62.9493 411.118 61.456C409.027 59.888 406.899 59.104 404.734 59.104C401.897 59.104 399.619 59.8507 397.902 61.344C396.259 62.8373 395.438 64.928 395.438 67.616C395.438 69.632 396.073 71.4987 397.342 73.216C398.686 74.8587 401.225 76.6507 404.958 78.592L408.318 80.272C413.545 82.96 417.353 85.76 419.742 88.672C422.131 91.584 423.326 95.3173 423.326 99.872C423.326 111.52 416.307 117.419 402.27 117.568ZM472.926 117.568C470.985 117.568 469.529 117.493 468.558 117.344C467.587 117.195 466.654 117.008 465.758 116.784C464.937 116.56 463.817 116.373 462.398 116.224C460.979 116.075 458.814 116 455.902 116L453.214 94.944H454.67C455.865 101.963 458.105 107.264 461.39 110.848C464.675 114.357 468.259 116.112 472.142 116.112C475.95 116.112 478.825 115.328 480.766 113.76C482.782 112.192 483.79 110.064 483.79 107.376C483.79 105.659 483.342 104.165 482.446 102.896C481.625 101.552 480.169 100.208 478.078 98.864C475.987 97.4453 473.15 95.7653 469.566 93.824L466.318 92.032C462.211 89.7173 459.15 87.0293 457.134 83.968C455.193 80.832 454.222 77.472 454.222 73.888C454.222 68.8107 456.051 64.816 459.71 61.904C463.443 58.992 468.409 57.536 474.606 57.536C476.174 57.536 477.443 57.6107 478.414 57.76C479.385 57.9093 480.318 58.096 481.214 58.32C482.11 58.544 483.23 58.7307 484.574 58.88C485.918 59.0293 487.71 59.104 489.95 59.104L491.518 77.136H490.174C489.726 73.6267 488.718 70.528 487.15 67.84C485.657 65.0773 483.865 62.9493 481.774 61.456C479.683 59.888 477.555 59.104 475.39 59.104C472.553 59.104 470.275 59.8507 468.558 61.344C466.915 62.8373 466.094 64.928 466.094 67.616C466.094 69.632 466.729 71.4987 467.998 73.216C469.342 74.8587 471.881 76.6507 475.614 78.592L478.974 80.272C484.201 82.96 488.009 85.76 490.398 88.672C492.787 91.584 493.982 95.3173 493.982 99.872C493.982 111.52 486.963 117.419 472.926 117.568ZM529.962 117.568C523.839 117.568 518.463 116.336 513.834 113.872C509.279 111.408 505.733 107.936 503.194 103.456C500.655 98.976 499.386 93.6747 499.386 87.552C499.386 81.4293 500.655 76.128 503.194 71.648C505.733 67.168 509.279 63.696 513.834 61.232C518.463 58.768 523.839 57.536 529.962 57.536C536.085 57.536 541.423 58.768 545.978 61.232C550.533 63.696 554.079 67.168 556.618 71.648C559.157 76.128 560.426 81.4293 560.426 87.552C560.426 93.6747 559.157 98.976 556.618 103.456C554.079 107.936 550.533 111.408 545.978 113.872C541.423 116.336 536.085 117.568 529.962 117.568ZM529.85 116.112C532.463 116.112 534.703 114.805 536.57 112.192C538.437 109.579 539.893 106.107 540.938 101.776C541.983 97.3707 542.506 92.592 542.506 87.44C542.506 81.84 541.946 76.912 540.826 72.656C539.781 68.3253 538.287 64.9653 536.346 62.576C534.479 60.112 532.351 58.88 529.962 58.88C527.423 58.88 525.183 60.1867 523.242 62.8C521.375 65.4133 519.919 68.8853 518.874 73.216C517.829 77.5467 517.306 82.288 517.306 87.44C517.306 93.1147 517.866 98.1173 518.986 102.448C520.106 106.779 521.599 110.139 523.466 112.528C525.407 114.917 527.535 116.112 529.85 116.112ZM561.985 116V114.88H562.097C564.785 114.88 566.95 114.059 568.593 112.416C570.235 110.773 571.057 108.608 571.057 105.92V69.184C571.057 66.3467 570.459 64.144 569.265 62.576C568.145 61.008 565.718 60.224 561.985 60.224V59.104H573.073C576.134 59.104 578.486 58.9547 580.129 58.656C581.846 58.3573 583.115 57.984 583.937 57.536C584.758 57.0133 585.355 56.4907 585.729 55.968H586.849L586.961 70.528C588.902 66.6453 591.851 63.5093 595.809 61.12C599.766 58.7307 603.947 57.536 608.353 57.536C612.609 57.536 616.155 58.7307 618.993 61.12C621.83 63.5093 623.659 66.72 624.481 70.752C626.571 66.72 629.558 63.5093 633.441 61.12C637.398 58.7307 641.654 57.536 646.209 57.536C651.211 57.536 655.206 59.1787 658.193 62.464C661.254 65.7493 662.785 70.08 662.785 75.456V105.92C662.785 108.608 663.606 110.773 665.249 112.416C666.891 114.059 669.057 114.88 671.745 114.88H671.857V116H637.697V114.88H637.809C640.497 114.88 642.662 114.059 644.305 112.416C645.947 110.773 646.769 108.608 646.769 105.92V74.336C646.769 70.6027 646.022 67.616 644.529 65.376C643.035 63.136 641.094 62.016 638.705 62.016C636.39 62.016 633.963 63.0613 631.425 65.152C628.886 67.168 626.683 69.8187 624.817 73.104C624.891 73.2533 624.929 73.44 624.929 73.664C624.929 73.888 624.929 74.0747 624.929 74.224V105.92C624.929 108.608 625.75 110.773 627.393 112.416C629.035 114.059 631.201 114.88 633.889 114.88H634.001V116H599.841V114.88H599.953C602.641 114.88 604.806 114.059 606.449 112.416C608.091 110.773 608.913 108.608 608.913 105.92V74.336C608.913 70.6027 608.166 67.616 606.673 65.376C605.254 63.136 603.35 62.016 600.961 62.016C598.646 62.016 596.219 63.024 593.681 65.04C591.217 66.9813 589.051 69.632 587.185 72.992V105.92C587.185 108.608 588.006 110.773 589.649 112.416C591.291 114.059 593.457 114.88 596.145 114.88H596.257V116H561.985ZM703.103 117.568C696.98 117.568 691.604 116.336 686.975 113.872C682.42 111.408 678.873 107.936 676.335 103.456C673.796 98.976 672.527 93.6747 672.527 87.552C672.527 81.4293 673.796 76.128 676.335 71.648C678.873 67.168 682.42 63.696 686.975 61.232C691.604 58.768 696.98 57.536 703.103 57.536C709.225 57.536 714.564 58.768 719.119 61.232C723.673 63.696 727.22 67.168 729.759 71.648C732.297 76.128 733.567 81.4293 733.567 87.552C733.567 93.6747 732.297 98.976 729.759 103.456C727.22 107.936 723.673 111.408 719.119 113.872C714.564 116.336 709.225 117.568 703.103 117.568ZM702.991 116.112C705.604 116.112 707.844 114.805 709.711 112.192C711.577 109.579 713.033 106.107 714.079 101.776C715.124 97.3707 715.647 92.592 715.647 87.44C715.647 81.84 715.087 76.912 713.967 72.656C712.921 68.3253 711.428 64.9653 709.487 62.576C707.62 60.112 705.492 58.88 703.103 58.88C700.564 58.88 698.324 60.1867 696.383 62.8C694.516 65.4133 693.06 68.8853 692.015 73.216C690.969 77.5467 690.447 82.288 690.447 87.44C690.447 93.1147 691.007 98.1173 692.127 102.448C693.247 106.779 694.74 110.139 696.607 112.528C698.548 114.917 700.676 116.112 702.991 116.112ZM758.504 117.568C756.563 117.568 755.107 117.493 754.136 117.344C753.166 117.195 752.232 117.008 751.336 116.784C750.515 116.56 749.395 116.373 747.976 116.224C746.558 116.075 744.392 116 741.48 116L738.792 94.944H740.248C741.443 101.963 743.683 107.264 746.968 110.848C750.254 114.357 753.838 116.112 757.72 116.112C761.528 116.112 764.403 115.328 766.344 113.76C768.36 112.192 769.368 110.064 769.368 107.376C769.368 105.659 768.92 104.165 768.024 102.896C767.203 101.552 765.747 100.208 763.656 98.864C761.566 97.4453 758.728 95.7653 755.144 93.824L751.896 92.032C747.79 89.7173 744.728 87.0293 742.712 83.968C740.771 80.832 739.8 77.472 739.8 73.888C739.8 68.8107 741.63 64.816 745.288 61.904C749.022 58.992 753.987 57.536 760.184 57.536C761.752 57.536 763.022 57.6107 763.992 57.76C764.963 57.9093 765.896 58.096 766.792 58.32C767.688 58.544 768.808 58.7307 770.152 58.88C771.496 59.0293 773.288 59.104 775.528 59.104L777.096 77.136H775.752C775.304 73.6267 774.296 70.528 772.728 67.84C771.235 65.0773 769.443 62.9493 767.352 61.456C765.262 59.888 763.134 59.104 760.968 59.104C758.131 59.104 755.854 59.8507 754.136 61.344C752.494 62.8373 751.672 64.928 751.672 67.616C751.672 69.632 752.307 71.4987 753.576 73.216C754.92 74.8587 757.459 76.6507 761.192 78.592L764.552 80.272C769.779 82.96 773.587 85.76 775.976 88.672C778.366 91.584 779.56 95.3173 779.56 99.872C779.56 111.52 772.542 117.419 758.504 117.568Z" fill="#6610F2"/>
<g clip-path="url(#clip0_2775_2)">
<path d="M919.144 154.963C919.07 154.49 918.607 154.399 918.323 154.134C916.636 152.56 915.888 150.666 916.312 148.365C916.402 147.875 916.532 147.388 916.662 146.905C920.255 133.495 923.933 120.107 927.392 106.66C928.612 101.926 932.458 100.281 936.252 101.566C938.359 102.278 940.563 102.714 942.701 103.339C943.422 103.552 943.661 103.381 943.946 102.683C946.294 96.9397 952.375 93.8523 958.282 95.3481C964.224 96.8535 968.083 102.51 967.335 108.784C967.221 109.747 967.444 110 968.308 110.205C970.652 110.765 972.981 111.411 975.302 112.06C978.947 113.082 980.793 116.18 979.823 119.828C976.116 133.775 972.364 147.707 968.629 161.646C967.742 164.957 965.396 166.321 962.154 166.487L919.144 154.963ZM971.559 140.117C973.409 133.213 975.27 126.311 977.106 119.403C977.765 116.915 976.852 115.329 974.396 114.648C972.028 113.994 969.64 113.4 967.279 112.718C966.549 112.507 966.196 112.628 965.777 113.302C962.736 118.221 957.383 120.396 952.074 118.939C946.746 117.481 943.259 112.949 943.096 107.138C943.073 106.349 942.79 106.152 942.143 105.987C939.892 105.414 937.654 104.795 935.412 104.194C932.389 103.388 930.947 104.2 930.143 107.197C926.511 120.741 922.881 134.285 919.256 147.831C918.473 150.751 919.316 152.174 922.268 152.965C935.153 156.418 948.038 159.87 960.923 163.323C963.949 164.134 965.344 163.328 966.159 160.3C967.965 153.573 969.765 146.844 971.567 140.116L971.559 140.117ZM961.688 113.979C965.131 111.073 965.708 105.702 963.043 101.798C960.36 97.8626 955.01 96.5692 950.815 98.8426C946.778 101.03 944.747 105.985 946.316 109.819C950.587 107.973 959.138 110.249 961.688 113.979ZM953.89 112.642C952.878 112.37 951.869 112.089 950.856 111.833C950.099 111.641 949.339 111.558 948.573 111.822C947.656 112.139 947.274 112.521 948.119 113.401C950.845 116.248 954.09 117.242 957.913 116.244C958.409 116.116 959.182 116.108 959.243 115.516C959.3 114.949 958.769 114.433 958.268 114.117C957.776 113.808 957.219 113.575 956.662 113.396C955.753 113.107 954.821 112.891 953.897 112.644L953.89 112.642Z" fill="#050606"/>
<path d="M862.413 139.762C862.442 139.411 862.116 139.331 861.924 139.174C859.763 137.408 859.029 135.181 859.752 132.484C860.859 128.351 861.967 124.218 863.074 120.085C865.642 110.501 868.313 100.94 870.733 91.3197C871.853 86.8576 875.672 85.0879 879.426 86.3395C881.538 87.0454 883.735 87.4941 885.876 88.1057C886.582 88.3062 886.901 88.301 887.245 87.4708C889.677 81.637 895.802 78.5954 901.718 80.1845C907.692 81.7851 911.423 87.4941 910.58 93.8709C910.474 94.6741 910.779 94.7784 911.351 94.9279C913.728 95.5497 916.107 96.1795 918.474 96.8366C922.279 97.8862 924.096 100.962 923.078 104.79C919.392 118.648 915.663 132.491 911.955 146.343C911.057 149.697 908.74 151.151 905.418 151.289L862.412 139.765L862.413 139.762ZM868.037 112.141C866.176 119.087 864.303 126.035 862.459 132.986C861.814 135.421 862.719 137.009 865.107 137.649C878.296 141.194 891.488 144.726 904.682 148.253C907.017 148.879 908.658 148 909.282 145.684C913.027 131.792 916.75 117.899 920.453 103.996C921.053 101.757 920.082 100.132 917.868 99.5087C915.416 98.8139 912.938 98.2028 910.487 97.5045C909.806 97.3106 909.492 97.4382 909.1 98.0701C906.063 102.998 900.731 105.182 895.405 103.759C890.084 102.333 886.561 97.7795 886.381 91.9903C886.358 91.2735 886.185 90.9739 885.476 90.799C883.179 90.2326 880.899 89.5876 878.613 88.9789C875.694 88.2045 874.231 89.0407 873.447 91.9525C871.637 98.6787 869.841 105.409 868.038 112.137L868.037 112.141ZM904.921 98.7985C908.317 96.0954 908.985 90.7827 906.492 86.8568C903.935 82.8306 898.653 81.37 894.373 83.5074C890.188 85.5987 888.064 90.5211 889.619 94.7173C891.425 93.5079 893.368 93.5486 895.361 94.1055C896.807 94.5079 898.253 94.9104 899.709 95.2705C901.887 95.8048 903.851 96.6411 904.921 98.7985ZM897.148 97.4378C896.136 97.1666 895.127 96.8848 894.115 96.6287C893.311 96.4248 892.51 96.3688 891.703 96.6855C890.875 97.0117 890.637 97.3636 891.347 98.1283C894.036 101.026 897.286 102.017 901.107 101.084C901.633 100.956 902.469 100.938 902.518 100.29C902.562 99.6745 901.973 99.1501 901.42 98.8167C900.961 98.5389 900.434 98.3485 899.918 98.1875C899.003 97.9082 898.073 97.6818 897.152 97.4387L897.148 97.4378Z" fill="#060606"/>
<path d="M864.796 61.2165C865.612 60.8079 866.414 60.4255 867.375 60.7888C868.041 61.0391 868.116 60.4772 868.221 60.0441C868.503 58.8764 869.27 58.2579 870.41 58.5711C871.544 58.8824 871.902 59.8475 871.606 60.9627C871.427 61.6327 871.56 61.9555 872.261 62.132C873.38 62.413 874.074 63.2075 873.76 64.3366C873.458 65.4234 872.53 65.8815 871.378 65.5124C870.714 65.2966 870.402 65.4588 870.211 66.156C869.923 67.2315 869.228 67.9221 868.022 67.7123C866.985 67.5328 866.563 66.6375 866.849 65.2325C866.97 64.6412 866.953 64.2513 866.269 64.1548C865.3 64.0198 864.785 63.3718 864.438 62.538L864.791 61.2191L864.796 61.2165Z" fill="#6610F2"/>
<path d="M884.059 41.7698C885.873 34.9993 887.679 28.2305 889.5 21.4619C890.648 17.1925 893.603 15.4862 897.857 16.6221C900.142 17.2344 902.433 17.8255 904.709 18.4695C905.341 18.6502 905.586 18.5684 905.866 17.8913C908.332 11.9606 914.413 8.89973 920.397 10.5032C926.392 12.1094 930.14 17.8382 929.26 24.171C929.155 24.9291 929.384 25.0888 929.996 25.2452C932.422 25.8687 934.837 26.5195 937.252 27.1817C940.906 28.1837 942.77 31.2454 941.795 34.9261C938.084 48.9138 934.342 62.893 930.558 76.8609C929.588 80.4407 926.413 82.2169 922.839 81.2668C909.514 77.7227 896.195 74.1539 882.883 70.5605C879.267 69.584 877.482 66.4112 878.45 62.7436C880.295 55.7469 882.188 48.7634 884.061 41.7743L884.059 41.7698ZM886.679 42.5702C884.852 49.3865 883.022 56.2019 881.199 63.0192C880.446 65.8296 881.326 67.3162 884.164 68.0768C897.092 71.5407 910.023 75.0056 922.95 78.4694C925.845 79.2452 927.318 78.3888 928.105 75.4665C929.82 69.0928 931.521 62.7154 933.231 56.3363C935.175 49.0792 937.129 41.8284 939.056 34.5666C939.74 31.987 938.833 30.4477 936.273 29.7502C933.902 29.1037 931.517 28.4986 929.154 27.8239C928.487 27.6338 928.169 27.7223 927.772 28.3683C924.751 33.296 919.427 35.4788 914.084 34.0508C908.741 32.6194 905.211 28.0641 905.056 22.2965C905.035 21.5691 904.844 21.2949 904.149 21.1239C901.852 20.5574 899.572 19.9125 897.286 19.3037C894.338 18.5138 892.911 19.3258 892.122 22.2552C890.301 29.0238 888.493 35.7997 886.679 42.5702ZM908.263 24.9398C910.857 23.8057 911.566 23.7574 914.436 24.5265C916.108 24.9744 917.778 25.4107 919.446 25.8727C920.882 26.2688 922.23 26.9096 923.005 28.2173C923.652 29.3014 924.024 28.9854 924.596 28.2201C926.953 25.0497 927.438 21.6343 925.668 18.0986C923.875 14.5192 920.844 12.713 916.82 12.8632C910.613 13.0935 906.152 19.4458 908.263 24.9398ZM915.848 27.7356C914.836 27.4644 913.827 27.1942 912.815 26.923C912.053 26.7189 911.294 26.6742 910.535 26.928C909.6 27.2408 909.273 27.6444 910.1 28.5085C912.823 31.3659 916.072 32.3424 919.889 31.3431C920.381 31.2141 921.148 31.2004 921.198 30.6053C921.244 30.0393 920.724 29.5223 920.22 29.2056C919.728 28.8963 919.171 28.6637 918.613 28.4879C917.704 28.1989 916.772 27.9831 915.848 27.7356Z" fill="#060606"/>
<path d="M992.909 71.0193C991.083 77.8321 989.261 84.6458 987.432 91.4577C986.271 95.7765 983.3 97.471 978.952 96.306C966.028 92.8431 953.108 89.3811 940.184 85.9181C935.85 84.7569 934.111 81.7814 935.267 77.4687C938.9 63.8835 942.538 50.3038 946.185 36.7224C947.351 32.3709 950.3 30.6742 954.631 31.831C956.874 32.4319 959.123 33.0082 961.352 33.647C962.043 33.8472 962.314 33.7535 962.609 33.0199C964.93 27.2621 971.025 24.1484 976.909 25.6492C982.954 27.1934 986.796 32.8414 986.001 39.1668C985.885 40.077 986.115 40.3049 986.903 40.497C989.112 41.0398 991.301 41.6567 993.501 42.2498C997.834 43.4146 999.516 46.3448 998.349 50.7149C996.542 57.4872 994.722 64.2523 992.908 71.0228L992.909 71.0193ZM943.378 57.7778C941.551 64.5941 939.718 71.4085 937.899 78.2268C937.166 80.9747 938.044 82.5064 940.762 83.2384C953.776 86.733 966.791 90.2205 979.812 93.7019C982.468 94.4134 984.024 93.5266 984.742 90.9033C985.605 87.7404 986.443 84.571 987.291 81.4044C990.107 70.896 992.927 60.385 995.74 49.8757C996.475 47.1323 995.598 45.6502 992.838 44.9068C990.508 44.2787 988.169 43.6859 985.85 43.0155C985.159 42.8153 984.856 42.9607 984.475 43.5768C981.442 48.5053 976.128 50.6793 970.783 49.2434C965.441 47.8119 961.904 43.2396 961.765 37.4804C961.746 36.7194 961.513 36.487 960.844 36.319C958.591 35.7568 956.355 35.1312 954.112 34.5303C950.988 33.6931 949.626 34.4734 948.785 37.5968C946.979 44.324 945.18 51.0531 943.377 57.7813L943.378 57.7778ZM980.326 44.3209C983.839 41.3505 984.398 35.9368 981.671 32.0237C978.878 28.0175 973.465 26.862 969.201 29.2946C964.694 31.8666 963.659 37.5193 965.057 40.188C966.919 38.9521 968.903 39.0643 970.944 39.6565C972.557 40.1264 974.186 40.5479 975.814 40.9614C977.745 41.4561 979.333 42.3993 980.331 44.3183L980.326 44.3209ZM971.668 46.6308C972.975 47.0301 974.426 47.0713 975.858 46.7217C976.593 46.5446 977.803 46.6154 977.857 45.7493C977.913 44.8497 976.926 44.2752 976.059 43.8993C975.933 43.8467 975.805 43.8012 975.671 43.7652C973.563 43.2002 971.454 42.6201 969.342 42.0692C968.483 41.8467 967.643 41.8901 966.822 42.3049C966.231 42.604 966.142 42.8939 966.587 43.4212C967.913 45.0011 969.535 46.1008 971.666 46.6264L971.668 46.6308Z" fill="#060606"/>
<path d="M991.017 110.904C988.407 110.968 986.535 112.141 985.048 114.531C984.966 111.75 983.923 109.815 981.349 108.336C984.254 108.283 986.209 107.193 987.65 104.722C987.714 107.543 988.784 109.531 991.02 110.904L991.017 110.904Z" fill="#EEC34A"/>
<path d="M955.458 23.5261C953.784 23.667 952.444 24.3246 951.377 26.0043C951.298 24.0025 950.401 22.7379 948.965 21.7334C951.16 21.471 951.692 21.1754 953.058 19.5078C953.515 21.1219 954.314 22.461 955.455 23.5251L955.458 23.5261Z" fill="#F5627B"/>
<path d="M876.253 50.0264C875.309 49.7662 874.704 48.7385 874.934 47.7833C875.168 46.8105 876.317 46.1736 877.287 46.4751C878.204 46.7624 878.792 47.842 878.53 48.7621C878.27 49.6787 877.183 50.2794 876.254 50.0229L876.253 50.0264Z" fill="#EEC34A"/>
<path d="M992.911 123.411C992.694 124.362 991.696 124.998 990.727 124.806C989.715 124.607 989.052 123.537 989.312 122.526C989.554 121.597 990.59 120.986 991.546 121.212C992.477 121.435 993.123 122.478 992.911 123.411Z" fill="#83CB45"/>
<path d="M971.559 140.117C969.757 146.845 967.954 153.574 966.151 160.302C965.339 163.331 963.941 164.135 960.915 163.325C948.03 159.872 935.145 156.419 922.26 152.967C919.308 152.176 918.465 150.752 919.248 147.832C922.874 134.287 926.503 120.742 930.136 107.199C930.938 104.205 932.38 103.393 935.404 104.196C937.646 104.797 939.884 105.415 942.135 105.988C942.782 106.154 943.07 106.348 943.089 107.14C943.251 112.951 946.738 117.483 952.066 118.941C957.376 120.394 962.729 118.219 965.769 113.304C966.188 112.63 966.541 112.509 967.271 112.72C969.631 113.405 972.021 113.992 974.389 114.65C976.844 115.33 977.762 116.914 977.098 119.404C975.262 126.313 973.401 133.214 971.555 140.12L971.559 140.117ZM949.305 129.596C943.946 128.16 938.587 126.732 933.231 125.282C932.321 125.038 931.517 125.106 931.214 126.068C930.891 127.104 931.544 127.672 932.497 127.935C932.716 127.993 932.938 128.053 933.157 128.111C943.436 130.866 953.715 133.62 963.992 136.37C964.429 136.487 964.881 136.634 965.32 136.616C966.234 136.578 966.746 136.076 966.655 135.118C966.57 134.196 965.833 134.025 965.114 133.832C959.841 132.423 954.57 131.007 949.302 129.595L949.305 129.596ZM947.631 135.705C942.317 134.281 937 132.868 931.691 131.423C930.74 131.164 929.868 131.176 929.569 132.218C929.25 133.339 930.03 133.827 931.025 134.094C941.61 136.919 952.196 139.755 962.776 142.601C963.766 142.867 964.7 142.852 964.986 141.727C965.278 140.581 964.416 140.187 963.439 139.929C958.165 138.539 952.896 137.116 947.627 135.704L947.631 135.705ZM946.046 141.819C940.777 140.407 935.503 139.005 930.24 137.572C929.222 137.296 928.224 137.183 927.917 138.412C927.633 139.546 928.501 139.96 929.476 140.213C933.522 141.275 937.557 142.367 941.598 143.45C947.879 145.133 954.159 146.816 960.439 148.499C960.746 148.581 961.06 148.65 961.36 148.745C962.276 149.036 963.067 148.832 963.34 147.885C963.611 146.945 963.067 146.364 962.122 146.111C956.763 144.687 951.405 143.243 946.048 141.808L946.046 141.819ZM943.755 150.567C947.926 151.684 952.103 152.796 956.271 153.928C957.188 154.174 958.058 154.271 958.386 153.157C958.73 151.986 957.945 151.53 956.967 151.272C948.578 149.024 940.186 146.776 931.797 144.528C930.838 144.271 929.913 144.197 929.593 145.389C929.266 146.609 930.151 146.933 931.104 147.184C935.325 148.3 939.541 149.437 943.758 150.567L943.755 150.567ZM950.57 124.946C952.104 125.357 953.638 125.757 955.168 126.182C956.075 126.436 956.831 126.321 957.107 125.307C957.377 124.298 956.789 123.785 955.889 123.544C952.783 122.712 949.673 121.879 946.566 121.046C945.67 120.806 944.898 120.939 944.623 121.95C944.348 122.962 944.924 123.452 945.847 123.688C947.428 124.093 949 124.529 950.576 124.952L950.57 124.946Z" fill="#EBF2FA"/>
<path d="M961.691 113.98C959.142 110.25 950.59 107.974 946.32 109.82C944.751 105.986 946.781 101.031 950.818 98.8436C955.011 96.5692 960.36 97.8626 963.047 101.799C965.711 105.707 965.138 111.075 961.691 113.98ZM954.603 109.643C957.417 110.397 960.201 108.781 960.943 105.956C961.663 103.212 960.078 100.41 957.363 99.6373C954.638 98.8618 951.714 100.508 950.93 103.265C950.151 106.001 951.817 108.896 954.603 109.643Z" fill="#508CD5"/>
<path d="M953.894 112.639C954.818 112.887 955.751 113.102 956.66 113.391C957.217 113.567 957.774 113.803 958.266 114.113C958.77 114.429 959.297 114.945 959.24 115.511C959.18 116.104 958.406 116.112 957.911 116.24C954.091 117.238 950.846 116.244 948.117 113.396C947.272 112.516 947.655 112.131 948.57 111.817C949.336 111.554 950.1 111.637 950.854 111.828C951.87 112.085 952.875 112.366 953.887 112.637L953.894 112.639Z" fill="#6610F2"/>
<path d="M868.038 112.141C869.84 105.412 871.64 98.6832 873.446 91.956C874.226 89.0433 875.694 88.2081 878.612 88.9824C880.898 89.5912 883.178 90.2361 885.475 90.8026C886.184 90.9774 886.356 91.2805 886.381 91.9938C886.56 97.783 890.079 102.339 895.405 103.762C900.729 105.189 906.06 102.997 909.099 98.0736C909.489 97.4372 909.805 97.3142 910.486 97.508C912.937 98.2063 915.415 98.8174 917.867 99.5122C920.08 100.139 921.047 101.763 920.452 103.999C916.749 117.902 913.027 131.796 909.282 145.687C908.658 148 907.02 148.88 904.681 148.257C891.488 144.729 878.295 141.198 865.106 137.653C862.718 137.013 861.814 135.425 862.459 132.99C864.302 126.038 866.175 119.091 868.037 112.144L868.038 112.141ZM892.634 114.411C887.32 112.987 882.003 111.574 876.691 110.128C875.707 109.864 874.774 109.807 874.484 110.961C874.198 112.098 875.036 112.568 876.014 112.796C876.28 112.86 876.54 112.937 876.804 113.008C885.369 115.303 893.935 117.598 902.5 119.893C904.344 120.387 906.183 120.918 908.037 121.362C909.237 121.649 910.074 120.981 909.962 119.958C909.864 119.043 909.175 118.836 908.447 118.645C903.174 117.239 897.904 115.819 892.635 114.408L892.634 114.411ZM891.048 120.544C885.691 119.108 880.332 117.669 874.975 116.237C873.702 115.896 872.838 116.314 872.804 117.288C872.766 118.4 873.568 118.694 874.457 118.933C884.953 121.737 895.452 124.547 905.943 127.369C906.959 127.641 907.975 127.74 908.279 126.521C908.591 125.274 907.583 124.959 906.595 124.698C901.406 123.327 896.229 121.928 891.045 120.539L891.048 120.544ZM888.523 129.233C891.245 129.962 893.968 130.691 896.69 131.421C899.37 132.139 902.048 132.849 904.727 133.574C905.668 133.827 906.424 133.572 906.653 132.62C906.864 131.747 906.358 131.154 905.466 130.942C905.335 130.91 905.201 130.871 905.071 130.836C894.531 128.012 883.991 125.187 873.451 122.363C873.144 122.281 872.831 122.167 872.52 122.17C871.863 122.18 871.387 122.532 871.198 123.154C871.026 123.724 871.228 124.27 871.701 124.604C872.022 124.83 872.449 124.918 872.844 125.024C878.068 126.431 883.295 127.828 888.521 129.228L888.523 129.233ZM886.883 135.324C891.143 136.466 895.408 137.601 899.664 138.756C900.553 138.994 901.362 139.007 901.665 137.989C902.042 136.725 901.165 136.316 900.156 136.046C891.809 133.813 883.462 131.577 875.116 129.336C874.167 129.082 873.232 128.975 872.888 130.161C872.537 131.374 873.396 131.722 874.36 131.976C878.535 133.08 882.708 134.205 886.88 135.323L886.883 135.324ZM893.784 109.727C895.36 110.149 896.939 110.561 898.512 110.997C899.374 111.236 900.084 111.097 900.378 110.182C900.689 109.203 900.178 108.617 899.258 108.366C896.108 107.511 892.955 106.67 889.801 105.832C888.891 105.588 888.137 105.791 887.897 106.8C887.651 107.83 888.286 108.269 889.188 108.499C890.723 108.891 892.253 109.317 893.788 109.724L893.784 109.727Z" fill="#EBF2FA"/>
<path d="M904.921 98.7985C903.851 96.641 901.887 95.8048 899.709 95.2705C898.252 94.9139 896.806 94.5114 895.361 94.1055C893.368 93.5486 891.425 93.5079 889.619 94.7173C888.06 90.5202 890.189 85.5951 894.373 83.5074C898.653 81.37 903.936 82.827 906.492 86.8568C908.985 90.7827 908.321 96.0963 904.921 98.7985ZM897.876 94.4391C900.66 95.1926 903.557 93.5349 904.268 90.7848C904.983 88.0171 903.285 85.1132 900.541 84.4082C897.808 83.706 895.027 85.3232 894.268 88.06C893.486 90.878 895.071 93.68 897.88 94.4401L897.876 94.4391Z" fill="#83CB45"/>
<path d="M897.149 97.4342C898.073 97.6818 899.004 97.9046 899.916 98.183C900.433 98.3405 900.96 98.5309 901.418 98.8122C901.967 99.1447 902.56 99.67 902.516 100.286C902.47 100.935 901.634 100.953 901.105 101.079C897.28 102.012 894.034 101.021 891.345 98.1238C890.637 97.3636 890.875 97.0116 891.701 96.6811C892.508 96.3643 893.309 96.4203 894.112 96.6242C895.128 96.8813 896.134 97.1621 897.146 97.4333L897.149 97.4342Z" fill="#6610F2"/>
<path d="M886.679 42.5702C888.493 35.7997 890.305 29.0247 892.122 22.2552C892.907 19.3248 894.337 18.5173 897.286 19.3037C899.571 19.916 901.852 20.5574 904.149 21.1238C904.844 21.2949 905.035 21.5691 905.056 22.2965C905.211 28.064 908.744 32.6238 914.084 34.0508C919.426 35.4823 924.75 33.2996 927.773 28.3683C928.169 27.7223 928.487 27.6338 929.154 27.8239C931.517 28.4986 933.902 29.1037 936.273 29.7502C938.833 30.4477 939.745 31.9844 939.056 34.5666C937.129 41.8284 935.175 49.0792 933.231 56.3363C931.522 62.7118 929.818 69.0883 928.105 75.4665C927.321 78.3933 925.849 79.2461 922.95 78.4694C910.023 75.0055 897.092 71.5407 884.164 68.0768C881.322 67.3153 880.446 65.8296 881.2 63.0192C883.019 56.2009 884.852 49.3865 886.679 42.5702ZM911.251 44.6793C905.979 43.2668 900.705 41.8612 895.437 40.4346C894.478 40.1776 893.511 40.0506 893.177 41.1971C892.822 42.4247 893.747 42.8653 894.757 43.1134C894.846 43.137 894.934 43.1607 895.022 43.1843C905.343 45.9499 915.668 48.7165 925.99 51.4821C926.339 51.5757 926.695 51.6711 927.053 51.7178C927.844 51.8277 928.431 51.4709 928.618 50.7276C928.805 49.9877 928.478 49.3898 927.716 49.1175C927.374 48.9958 927.02 48.9083 926.667 48.8138C921.529 47.4372 916.388 46.0595 911.25 44.6829L911.251 44.6793ZM909.726 50.8357C904.542 49.4467 899.359 48.0578 894.179 46.6698C893.826 46.5753 893.477 46.4818 893.12 46.4049C892.32 46.2436 891.746 46.6076 891.526 47.3309C891.302 48.0684 891.643 48.6701 892.363 48.9877C892.695 49.1332 893.056 49.2075 893.406 49.301C903.727 52.0667 914.049 54.8323 924.37 57.5979C924.85 57.7264 925.315 57.9229 925.835 57.8431C926.449 57.7507 926.863 57.3928 926.986 56.8325C927.121 56.2185 926.928 55.6414 926.307 55.3467C925.942 55.1732 925.537 55.076 925.142 54.9702C920.004 53.5935 914.863 52.2159 909.725 50.8392L909.726 50.8357ZM907.097 59.5194C912.323 60.9197 917.549 62.32 922.775 63.7203C923.127 63.8148 923.478 63.9465 923.833 63.9737C924.612 64.0311 925.198 63.6628 925.351 62.9065C925.487 62.2322 925.201 61.6491 924.506 61.3797C924.212 61.2632 923.898 61.1942 923.591 61.1119C913.181 58.3227 902.775 55.5344 892.366 52.7451C892.013 52.6506 891.662 52.5341 891.306 52.4953C890.634 52.4247 890.142 52.7768 889.919 53.3708C889.663 54.0431 889.913 54.6468 890.527 55.0078C890.87 55.2093 891.292 55.2845 891.684 55.3894C896.82 56.7696 901.959 58.1428 907.097 59.5194ZM905.562 65.6429C909.779 66.7729 913.999 67.8959 918.21 69.0356C919 69.2473 919.751 69.3919 920.251 68.5395C920.794 67.6153 920.289 66.762 918.956 66.4048C910.569 64.1499 902.178 61.9091 893.791 59.6543C892.839 59.3991 891.91 59.271 891.571 60.4653C891.23 61.6665 892.076 62.0367 893.043 62.2921C897.218 63.3958 901.391 64.5216 905.563 65.6393L905.562 65.6429ZM913.168 37.4111C911.592 36.9888 910.016 36.5664 908.439 36.1441C907.579 35.9135 906.872 36.0832 906.598 37.0075C906.302 38.0014 906.833 38.5443 907.756 38.7919C910.909 39.6366 914.061 40.4813 917.21 41.3251C918.071 41.5556 918.782 41.3834 919.055 40.4626C919.351 39.4722 918.824 38.9267 917.896 38.6817C916.319 38.2629 914.744 37.837 913.167 37.4147L913.168 37.4111Z" fill="#EAF1F9"/>
<path d="M908.263 24.9398C906.153 19.4423 910.613 13.0935 916.82 12.8632C920.844 12.713 923.875 14.5192 925.667 18.0986C927.438 21.6343 926.953 25.0497 924.596 28.2201C924.023 28.9889 923.651 29.305 923.005 28.2173C922.226 26.9086 920.882 26.2688 919.446 25.8727C917.778 25.4107 916.107 24.9744 914.436 24.5265C911.566 23.7574 910.857 23.8057 908.263 24.9398ZM916.616 24.7704C919.381 25.4926 922.261 23.8 922.944 21.0539C923.639 18.2655 921.973 15.4418 919.209 14.7241C916.435 14.0035 913.623 15.6689 912.905 18.4622C912.18 21.2652 913.814 24.0423 916.616 24.7704Z" fill="#F5627B"/>
<path d="M915.848 27.7356C916.772 27.9831 917.704 28.1989 918.613 28.4879C919.171 28.6637 919.728 28.8963 920.22 29.2056C920.725 29.5223 921.244 30.0393 921.198 30.6053C921.148 31.2004 920.381 31.2141 919.889 31.3431C916.069 32.3415 912.823 31.3659 910.1 28.5085C909.274 27.6409 909.601 27.2408 910.535 26.928C911.299 26.6716 912.057 26.7198 912.815 26.923C913.827 27.1941 914.836 27.4644 915.848 27.7356Z" fill="#6610F2"/>
<path d="M943.377 57.7813C945.18 51.0531 946.982 44.3249 948.785 37.5968C949.622 34.4725 950.984 33.6922 954.112 34.5303C956.355 35.1312 958.591 35.7568 960.844 36.319C961.517 36.4879 961.749 36.7203 961.765 37.4804C961.903 43.2432 965.442 47.8084 970.783 49.2434C976.129 50.6758 981.439 48.5043 984.475 43.5768C984.856 42.9607 985.159 42.8153 985.85 43.0155C988.169 43.6859 990.508 44.2787 992.838 44.9068C995.597 45.6537 996.471 47.1313 995.739 49.8757C992.931 60.386 990.107 70.896 987.291 81.4044C986.443 84.571 985.605 87.7404 984.742 90.9033C984.023 93.5301 982.471 94.4143 979.812 93.7019C966.795 90.2215 953.779 86.7339 940.762 83.2384C938.043 82.5099 937.166 80.9747 937.899 78.2268C939.714 71.4076 941.551 64.5941 943.378 57.7778L943.377 57.7813ZM967.251 62.538C972.389 63.9147 977.53 65.2923 982.67 66.6619C983.149 66.7904 983.647 66.8936 984.138 66.908C984.765 66.9248 985.175 66.4942 985.317 65.9502C985.479 65.3472 985.304 64.7563 984.685 64.443C984.366 64.2818 984.007 64.1819 983.658 64.0883C973.161 61.2719 962.662 58.4626 952.161 55.6488C951.942 55.5902 951.72 55.5307 951.498 55.4862C950.712 55.3286 950.11 55.632 949.87 56.3692C949.608 57.1794 949.993 57.789 950.779 58.098C951.158 58.2487 951.561 58.3414 951.955 58.4472C957.051 59.8125 962.146 61.1779 967.242 62.5432L967.251 62.538ZM965.605 68.6507C970.743 70.0274 975.885 71.405 981.022 72.7817C981.417 72.8875 981.814 73.0279 982.216 73.0524C982.993 73.1018 983.569 72.7156 983.702 71.9501C983.821 71.2676 983.527 70.6976 982.815 70.4501C982.473 70.3319 982.12 70.2374 981.767 70.1429C971.446 67.3773 961.124 64.6116 950.803 61.846C950.408 61.7402 950.011 61.6264 949.608 61.5789C948.92 61.4964 948.454 61.8818 948.245 62.476C948.03 63.0834 948.212 63.6727 948.794 64.0102C949.181 64.231 949.626 64.3615 950.06 64.4778C955.242 65.8738 960.426 67.2592 965.606 68.6472L965.605 68.6507ZM963.961 74.7599C968.309 75.925 972.657 77.09 977.005 78.255C978.059 78.5375 979.113 78.82 980.168 79.1025C981.046 79.3378 981.771 79.0711 982.02 78.2003C982.266 77.3366 981.83 76.7094 980.925 76.4746C980.706 76.416 980.484 76.3565 980.265 76.2979C969.856 73.5086 959.45 70.7203 949.04 67.9311C948.733 67.8489 948.426 67.7551 948.115 67.7021C947.377 67.5799 946.838 67.9418 946.612 68.588C946.355 69.3205 946.678 69.9325 947.376 70.2781C947.696 70.4358 948.069 70.4979 948.418 70.5914C953.602 71.9804 958.782 73.3684 963.965 74.7573L963.961 74.7599ZM962.236 80.8323C966.495 81.9737 970.757 83.1081 975.017 84.2645C975.962 84.5178 976.793 84.5025 977.079 83.3924C977.364 82.2894 976.632 81.8591 975.701 81.6097C967.265 79.3566 958.833 77.0974 950.4 74.8302C949.48 74.5836 948.617 74.5302 948.288 75.6324C947.934 76.8264 948.734 77.226 949.715 77.4851C953.891 78.5888 958.064 79.7146 962.236 80.8323ZM969.089 55.226C970.665 55.6483 972.244 56.0636 973.818 56.4931C974.716 56.7375 975.484 56.6371 975.773 55.6298C976.06 54.6295 975.503 54.1101 974.582 53.867C971.474 53.0416 968.363 52.2082 965.259 51.3687C964.356 51.1269 963.587 51.2193 963.304 52.232C963 53.3224 963.668 53.7923 964.623 54.0368C966.116 54.4179 967.6 54.8308 969.088 55.2295L969.089 55.226Z" fill="#EAF1F9"/>
<path d="M980.325 44.3244C979.331 42.4064 977.74 41.4622 975.809 40.9675C974.182 40.5504 972.552 40.129 970.939 39.6626C968.899 39.0668 966.913 38.9582 965.052 40.1941C963.653 37.5289 964.689 31.8727 969.195 29.3007C973.46 26.8681 978.873 28.0236 981.665 32.0298C984.394 35.9394 983.838 41.3576 980.321 44.327L980.325 44.3244ZM979.618 36.285C980.363 33.5063 978.734 30.6699 975.963 29.9273C973.205 29.1884 970.348 30.8379 969.597 33.5997C968.849 36.3474 970.506 39.2063 973.277 39.949C976.063 40.6954 978.866 39.0769 979.615 36.2841L979.618 36.285Z" fill="#EEC34A"/>
<path d="M971.667 46.6344C969.537 46.1088 967.914 45.0127 966.589 43.4291C966.144 42.9019 966.233 42.612 966.823 42.3129C967.645 41.8981 968.484 41.8547 969.343 42.0772C971.457 42.6246 973.563 43.2002 975.673 43.7732C975.803 43.8082 975.935 43.8512 976.06 43.9073C976.927 44.2832 977.916 44.8542 977.859 45.7573C977.804 46.6234 976.595 46.5526 975.86 46.7297C974.429 47.0758 972.973 47.0371 971.67 46.6388L971.667 46.6344Z" fill="#6610F2"/>
<path d="M949.305 129.596C954.577 131.009 959.849 132.421 965.117 133.833C965.837 134.026 966.573 134.197 966.659 135.119C966.749 136.081 966.233 136.581 965.324 136.617C964.884 136.635 964.429 136.487 963.995 136.371C953.715 133.62 943.436 130.866 933.16 128.112C932.942 128.054 932.719 127.994 932.501 127.936C931.547 127.673 930.894 127.105 931.217 126.069C931.517 125.106 932.326 125.035 933.234 125.283C938.59 126.736 943.949 128.161 949.309 129.597L949.305 129.596Z" fill="#080909"/>
<path d="M947.631 135.705C952.899 137.117 958.168 138.54 963.442 139.93C964.42 140.188 965.278 140.581 964.99 141.728C964.703 142.853 963.773 142.869 962.779 142.602C952.199 139.756 941.613 136.92 931.028 134.095C930.034 133.828 929.25 133.339 929.573 132.219C929.871 131.177 930.744 131.165 931.695 131.424C937.003 132.869 942.32 134.282 947.634 135.706L947.631 135.705Z" fill="#040404"/>
<path d="M946.049 141.82C951.406 143.255 956.764 144.698 962.123 146.123C963.065 146.375 963.613 146.953 963.341 147.897C963.068 148.844 962.277 149.048 961.361 148.757C961.058 148.661 960.747 148.592 960.44 148.51C954.16 146.827 947.879 145.145 941.599 143.462C937.558 142.379 933.521 141.282 929.476 140.225C928.501 139.971 927.633 139.557 927.918 138.424C928.228 137.196 929.224 137.304 930.241 137.584C935.503 139.017 940.778 140.419 946.046 141.83L946.049 141.82Z" fill="#020202"/>
<path d="M943.754 150.567C939.537 149.436 935.321 148.299 931.1 147.183C930.148 146.928 929.263 146.608 929.59 145.388C929.909 144.196 930.834 144.27 931.793 144.527C940.182 146.775 948.575 149.024 956.964 151.271C957.941 151.533 958.726 151.986 958.383 153.156C958.054 154.27 957.187 154.177 956.267 153.927C952.1 152.795 947.923 151.683 943.751 150.566L943.754 150.567Z" fill="#060606"/>
<path d="M950.57 124.946C948.994 124.524 947.421 124.091 945.841 123.683C944.917 123.447 944.343 122.953 944.617 121.945C944.89 120.937 945.663 120.804 946.56 121.041C949.666 121.873 952.777 122.707 955.883 123.539C956.782 123.78 957.373 124.297 957.1 125.301C956.828 126.317 956.072 126.432 955.161 126.176C953.635 125.752 952.098 125.352 950.564 124.941L950.57 124.946Z" fill="#040404"/>
<path d="M954.604 109.639C951.818 108.893 950.153 105.994 950.931 103.262C951.715 100.505 954.637 98.8538 957.364 99.6338C960.079 100.407 961.667 103.209 960.944 105.952C960.202 108.777 957.417 110.397 954.604 109.639ZM955.319 107C956.641 107.354 957.927 106.618 958.298 105.304C958.656 104.024 957.909 102.649 956.65 102.27C955.353 101.88 953.896 102.718 953.564 104.043C953.237 105.346 954.01 106.649 955.319 107Z" fill="#040404"/>
<path d="M892.634 114.411C897.906 115.824 903.178 117.236 908.446 118.648C909.176 118.844 909.862 119.05 909.962 119.961C910.073 120.985 909.236 121.653 908.036 121.365C906.178 120.92 904.344 120.391 902.499 119.897C893.934 117.602 885.369 115.307 876.803 113.011C876.539 112.941 876.276 112.863 876.013 112.8C875.035 112.572 874.197 112.102 874.483 110.965C874.774 109.807 875.708 109.864 876.69 110.132C882 111.573 887.316 112.99 892.634 114.415L892.634 114.411Z" fill="#080909"/>
<path d="M891.048 120.544C896.231 121.933 901.409 123.331 906.597 124.702C907.585 124.967 908.593 125.279 908.282 126.526C907.978 127.745 906.96 127.649 905.946 127.374C895.454 124.551 884.956 121.738 874.459 118.937C873.571 118.699 872.769 118.405 872.806 117.292C872.84 116.319 873.704 115.904 874.978 116.241C880.336 117.67 885.694 119.113 891.05 120.548L891.048 120.544Z" fill="#040404"/>
<path d="M888.523 129.233C883.297 127.832 878.071 126.432 872.846 125.028C872.455 124.923 872.025 124.835 871.704 124.609C871.23 124.274 871.029 123.729 871.2 123.159C871.39 122.537 871.867 122.181 872.522 122.175C872.833 122.171 873.146 122.285 873.453 122.368C883.993 125.192 894.533 128.016 905.073 130.84C905.204 130.875 905.338 130.911 905.468 130.946C906.36 131.159 906.866 131.752 906.655 132.625C906.427 133.576 905.67 133.835 904.729 133.579C902.051 132.854 899.373 132.144 896.693 131.425C893.97 130.696 891.248 129.967 888.526 129.237L888.523 129.233Z" fill="#020202"/>
<path d="M886.882 135.328C882.711 134.21 878.538 133.084 874.362 131.98C873.4 131.723 872.54 131.375 872.891 130.165C873.234 128.983 874.17 129.087 875.119 129.341C883.465 131.577 891.811 133.818 900.159 136.05C901.171 136.322 902.048 136.73 901.668 137.993C901.364 139.015 900.555 139.002 899.667 138.761C895.411 137.605 891.146 136.47 886.886 135.329L886.882 135.328Z" fill="#060606"/>
<path d="M893.783 109.73C892.249 109.319 890.722 108.895 889.184 108.502C888.282 108.271 887.648 107.829 887.893 106.803C888.133 105.794 888.886 105.591 889.796 105.835C892.95 106.672 896.103 107.517 899.254 108.369C900.174 108.616 900.688 109.207 900.373 110.185C900.083 111.101 899.369 111.238 898.507 111C896.935 110.563 895.356 110.151 893.779 109.729L893.783 109.73Z" fill="#040404"/>
<path d="M897.88 94.4401C895.071 93.68 893.483 90.877 894.268 88.06C895.028 85.3232 897.809 83.7025 900.541 84.4082C903.285 85.1132 904.982 88.0207 904.268 90.7848C903.556 93.5384 900.664 95.1936 897.876 94.4391L897.88 94.4401ZM901.613 90.0849C901.953 88.8154 901.165 87.4251 899.909 87.0657C898.648 86.7053 897.277 87.4793 896.901 88.7543C896.496 90.1272 897.254 91.4568 898.64 91.813C899.95 92.145 901.262 91.3816 901.61 90.0839L901.613 90.0849Z" fill="#040404"/>
<path d="M911.251 44.6794C916.389 46.056 921.53 47.4337 926.668 48.8103C927.02 48.9048 927.375 48.9922 927.717 49.114C928.479 49.3863 928.806 49.9842 928.619 50.7241C928.431 51.4674 927.845 51.8242 927.054 51.7143C926.697 51.664 926.341 51.5686 925.991 51.4786C915.669 48.713 905.344 45.9464 895.023 43.1808C894.935 43.1571 894.846 43.1335 894.758 43.1099C893.747 42.8653 892.823 42.4211 893.178 41.1936C893.512 40.0471 894.48 40.1705 895.438 40.431C900.706 41.8577 905.98 43.2633 911.252 44.6758L911.251 44.6794Z" fill="#0B0C0C"/>
<path d="M909.723 50.8348C914.86 52.2114 920.002 53.5891 925.14 54.9657C925.534 55.0716 925.939 55.1687 926.305 55.3422C926.925 55.6369 927.118 56.214 926.984 56.8281C926.859 57.3918 926.446 57.7497 925.832 57.8386C925.31 57.9139 924.844 57.7175 924.367 57.5935C914.045 54.8313 903.724 52.0657 893.403 49.2966C893.05 49.2021 892.688 49.1313 892.361 48.9833C891.641 48.6656 891.299 48.0639 891.523 47.3265C891.744 46.6031 892.318 46.2356 893.117 46.4004C893.472 46.4728 893.823 46.5708 894.176 46.6653C899.36 48.0543 904.543 49.4432 909.724 50.8312L909.723 50.8348Z" fill="#080909"/>
<path d="M907.093 59.5185C901.956 58.1418 896.818 56.7651 891.68 55.3885C891.285 55.2826 890.863 55.2074 890.524 55.0068C889.91 54.6458 889.663 54.043 889.915 53.3698C890.139 52.7759 890.63 52.4237 891.303 52.4943C891.662 52.534 892.013 52.6506 892.362 52.7442C902.772 55.5334 913.178 58.3217 923.587 61.111C923.894 61.1932 924.208 61.2622 924.502 61.3788C925.197 61.6481 925.483 62.2312 925.348 62.9055C925.193 63.6654 924.608 64.0301 923.83 63.9727C923.474 63.9455 923.12 63.8129 922.771 63.7194C917.545 62.3191 912.319 60.9188 907.093 59.5185Z" fill="#040404"/>
<path d="M905.558 65.6419C901.387 64.5242 897.213 63.3984 893.038 62.2947C892.072 62.0358 891.225 61.6691 891.566 60.4678C891.905 59.2736 892.831 59.4008 893.786 59.6568C902.174 61.9117 910.565 64.1525 918.952 66.4074C920.281 66.7636 920.787 67.6134 920.247 68.5421C919.746 69.3945 918.994 69.2534 918.205 69.0382C913.991 67.8976 909.771 66.7746 905.557 65.6455L905.558 65.6419Z" fill="#020202"/>
<path d="M913.165 37.4102C914.741 37.8326 916.317 38.2549 917.894 38.6773C918.821 38.9258 919.348 39.4677 919.053 40.4581C918.78 41.3789 918.068 41.5512 917.208 41.3206C914.055 40.4759 910.903 39.6312 907.754 38.7874C906.83 38.5399 906.298 38.0005 906.596 37.003C906.87 36.0787 907.577 35.9091 908.437 36.1396C910.013 36.562 911.589 36.9843 913.166 37.4067L913.165 37.4102Z" fill="#020202"/>
<path d="M916.616 24.7704C913.814 24.0422 912.181 21.2616 912.905 18.4622C913.627 15.6698 916.435 14.0035 919.209 14.7241C921.973 15.4418 923.639 18.2655 922.944 21.0539C922.26 23.8036 919.381 25.4926 916.616 24.7704ZM918.503 17.3617C917.166 17.0302 915.826 17.8728 915.522 19.2315C915.231 20.5443 916.015 21.8087 917.315 22.1308C918.658 22.4642 920.013 21.6254 920.306 20.279C920.586 18.9934 919.771 17.6788 918.499 17.3608L918.503 17.3617Z" fill="#040404"/>
<path d="M967.251 62.538C962.155 61.1727 957.06 59.8074 951.964 58.442C951.569 58.3362 951.167 58.2435 950.788 58.0928C950.002 57.7838 949.617 57.1743 949.879 56.364C950.118 55.6303 950.721 55.3235 951.507 55.481C951.729 55.5255 951.948 55.5841 952.17 55.6436C962.668 58.4565 973.166 61.2693 983.667 64.0832C984.016 64.1767 984.371 64.2757 984.694 64.4378C985.313 64.7511 985.485 65.3376 985.326 65.9451C985.18 66.4916 984.773 66.9231 984.147 66.9029C983.656 66.8884 983.158 66.7853 982.679 66.6568C977.538 65.2907 972.398 63.9095 967.26 62.5329L967.251 62.538Z" fill="#0B0C0C"/>
<path d="M965.605 68.6507C960.422 67.2618 955.238 65.8728 950.059 64.4813C949.625 64.3651 949.177 64.2335 948.793 64.0137C948.21 63.6798 948.029 63.0869 948.244 62.4795C948.453 61.8853 948.919 61.5 949.607 61.5824C950.01 61.6299 950.407 61.7437 950.802 61.8495C961.123 64.6152 971.445 67.3808 981.766 70.1464C982.119 70.2409 982.468 70.3345 982.814 70.4536C983.526 70.7012 983.82 71.2711 983.701 71.9536C983.567 72.7227 982.992 73.1053 982.215 73.0559C981.813 73.0315 981.416 72.8911 981.021 72.7852C975.884 71.4086 970.742 70.0309 965.604 68.6543L965.605 68.6507Z" fill="#080909"/>
<path d="M963.962 74.7564C958.778 73.3674 953.598 71.9794 948.415 70.5905C948.062 70.496 947.693 70.4349 947.372 70.2772C946.675 69.9316 946.351 69.3195 946.608 68.5871C946.834 67.9409 947.373 67.5789 948.112 67.7011C948.423 67.7507 948.73 67.8479 949.037 67.9301C959.446 70.7194 969.852 73.5077 980.262 76.2969C980.481 76.3555 980.703 76.415 980.921 76.4736C981.826 76.7085 982.264 77.3322 982.016 78.1994C981.768 79.0701 981.046 79.3378 980.164 79.1016C979.11 78.8191 978.056 78.5366 977.001 78.254C972.653 77.089 968.305 75.924 963.958 74.759L963.962 74.7564Z" fill="#040404"/>
<path d="M962.237 80.8288C958.065 79.711 953.892 78.5852 949.716 77.4816C948.736 77.2189 947.935 76.8229 948.289 75.6289C948.618 74.5266 949.482 74.5766 950.401 74.8267C958.834 77.0939 967.266 79.3531 975.702 81.6061C976.637 81.8565 977.365 82.2859 977.08 83.3889C976.794 84.499 975.962 84.5178 975.017 84.261C970.761 83.109 966.5 81.9711 962.237 80.8288Z" fill="#020202"/>
<path d="M969.089 55.226C967.601 54.8273 966.117 54.4144 964.624 54.0333C963.669 53.7888 963.001 53.3188 963.305 52.2285C963.587 51.2193 964.357 51.1233 965.26 51.3652C968.364 52.2082 971.475 53.0381 974.583 53.8634C975.504 54.1101 976.061 54.626 975.774 55.6262C975.484 56.6371 974.716 56.7375 973.819 56.4895C972.245 56.0601 970.667 55.6448 969.09 55.2225L969.089 55.226Z" fill="#020202"/>
<path d="M979.617 36.2885C978.869 39.0814 976.065 40.7034 973.28 39.9535C970.512 39.2117 968.852 36.3518 969.599 33.6042C970.35 30.8424 973.208 29.1928 975.965 29.9317C978.733 30.6735 980.365 33.5108 979.621 36.2895L979.617 36.2885ZM976.983 35.5677C977.324 34.2831 976.577 32.9529 975.308 32.5826C973.993 32.2001 972.588 32.9991 972.245 34.3243C971.909 35.6178 972.652 36.9241 973.931 37.2972C975.267 37.6854 976.622 36.9147 976.981 35.5632L976.983 35.5677Z" fill="#040404"/>
<path d="M955.318 107.003C954.009 106.653 953.235 105.353 953.563 104.046C953.895 102.722 955.351 101.884 956.649 102.273C957.908 102.652 958.655 104.027 958.297 105.307C957.929 106.622 956.641 107.354 955.318 107.003Z" fill="#F0C9AE"/>
<path d="M901.61 90.0839C901.261 91.3851 899.949 92.1485 898.64 91.813C897.253 91.4603 896.496 90.1272 896.901 88.7543C897.278 87.4757 898.648 86.7053 899.909 87.0657C901.165 87.4251 901.95 88.8145 901.613 90.0849L901.61 90.0839Z" fill="#F0C9AE"/>
<path d="M918.506 17.3627C919.779 17.6772 920.594 18.9918 920.313 20.2809C920.02 21.6273 918.666 22.4661 917.323 22.1327C916.022 21.8106 915.239 20.5426 915.529 19.2334C915.828 17.8773 917.173 17.0356 918.51 17.3636L918.506 17.3627Z" fill="#F0C9AE"/>
<path d="M976.984 35.5677C976.625 36.9192 975.27 37.6898 973.934 37.3016C972.654 36.9285 971.909 35.6178 972.247 34.3288C972.591 33.0036 973.997 32.201 975.31 32.5871C976.579 32.9574 977.324 34.2831 976.986 35.5721L976.984 35.5677Z" fill="#F0C9AE"/>
</g>
<defs>
<clipPath id="clip0_2775_2">
<rect width="139.851" height="139.862" fill="white" transform="translate(881.199) rotate(15)"/>
</clipPath>
</defs>
</svg>
