<svg width="1042" height="269" viewBox="0 0 1042 269" fill="none" xmlns="http://www.w3.org/2000/svg">
<path d="M81.02 179.52C66.62 179.52 53.96 176.64 43.04 170.88C32.24 165 23.78 156.84 17.66 146.4C11.66 135.84 8.66 123.54 8.66 109.5C8.66 95.46 11.66 83.22 17.66 72.78C23.78 62.22 32.24 54.06 43.04 48.3C53.96 42.42 66.62 39.48 81.02 39.48C95.42 39.48 108.02 42.42 118.82 48.3C129.74 54.06 138.2 62.22 144.2 72.78C150.32 83.22 153.38 95.46 153.38 109.5C153.38 123.54 150.32 135.84 144.2 146.4C138.2 156.84 129.74 165 118.82 170.88C108.02 176.64 95.42 179.52 81.02 179.52ZM81.02 176.64C87.26 176.64 92.96 175.02 98.12 171.78C103.28 168.54 107.72 163.98 111.44 158.1C115.04 152.22 117.8 145.14 119.72 136.86C121.76 128.58 122.78 119.4 122.78 109.32C122.78 99.24 121.76 90.06 119.72 81.78C117.8 73.38 115.04 66.24 111.44 60.36C107.72 54.48 103.28 49.92 98.12 46.68C92.96 43.44 87.26 41.82 81.02 41.82C74.78 41.82 69.08 43.44 63.92 46.68C58.76 49.92 54.38 54.48 50.78 60.36C47.06 66.24 44.18 73.38 42.14 81.78C40.22 90.06 39.26 99.24 39.26 109.32C39.26 119.4 40.22 128.58 42.14 136.86C44.18 145.14 47.06 152.22 50.78 158.1C54.38 163.98 58.76 168.54 63.92 171.78C69.08 175.02 74.78 176.64 81.02 176.64ZM167.604 179.52V58.2C167.604 53.88 166.224 50.4 163.464 47.76C160.824 45.12 157.344 43.8 153.024 43.8V42H171.384C178.464 42 183.324 41.34 185.964 40.02C188.604 38.7 190.524 37.08 191.724 35.16H193.524V100.68C196.284 95.28 200.124 90.96 205.044 87.72C210.084 84.48 215.604 82.86 221.604 82.86C228.684 82.86 234.984 84.96 240.504 89.16C246.024 93.36 250.344 99.06 253.464 106.26C256.704 113.46 258.324 121.68 258.324 130.92C258.324 140.52 256.524 148.98 252.924 156.3C249.444 163.62 244.524 169.32 238.164 173.4C231.804 177.48 224.364 179.52 215.844 179.52C201.564 179.52 191.964 173.58 187.044 161.7L169.404 179.52H167.604ZM210.624 176.46C216.984 176.46 221.784 172.5 225.024 164.58C228.264 156.66 229.884 145.02 229.884 129.66C229.884 116.22 228.624 106.26 226.104 99.78C223.584 93.3 219.624 90.06 214.224 90.06C209.424 90.06 205.164 91.8 201.444 95.28C197.844 98.76 195.204 102.66 193.524 106.98V152.16C194.004 159.6 195.744 165.54 198.744 169.98C201.744 174.3 205.704 176.46 210.624 176.46ZM284.715 66.48C280.515 66.48 276.975 65.04 274.095 62.16C271.335 59.28 269.955 55.74 269.955 51.54C269.955 47.22 271.335 43.68 274.095 40.92C276.975 38.04 280.515 36.6 284.715 36.6C288.915 36.6 292.455 38.04 295.335 40.92C298.215 43.68 299.655 47.22 299.655 51.54C299.655 55.74 298.215 59.28 295.335 62.16C292.455 65.04 288.915 66.48 284.715 66.48ZM258.255 217.32V215.34C262.695 215.34 266.235 213.3 268.875 209.22C271.515 205.14 272.835 199.68 272.835 192.84V101.76C272.835 97.2 271.875 93.66 269.955 91.14C268.155 88.62 264.255 87.36 258.255 87.36V85.56H276.615C282.975 85.56 287.775 85.2 291.015 84.48C294.255 84 296.535 82.68 297.855 80.52H298.755V172.5C298.755 181.38 297.075 189.18 293.715 195.9C290.475 202.62 285.795 207.84 279.675 211.56C273.675 215.4 266.535 217.32 258.255 217.32ZM357.158 179.16C348.878 179.16 341.498 177.12 335.018 173.04C328.658 168.96 323.678 163.32 320.078 156.12C316.478 148.8 314.678 140.46 314.678 131.1C314.678 121.5 316.658 113.1 320.618 105.9C324.578 98.7 329.978 93.12 336.818 89.16C343.778 85.08 351.638 83.04 360.398 83.04C367.718 83.04 374.198 84.48 379.838 87.36C385.598 90.24 390.158 94.32 393.518 99.6C396.998 104.76 398.978 110.76 399.458 117.6L399.638 120.3H339.158V121.2C339.158 133.92 341.978 144.12 347.618 151.8C353.258 159.36 360.818 163.14 370.298 163.14C376.058 163.14 381.518 161.76 386.678 159C391.958 156.12 396.218 152.28 399.458 147.48L401.078 148.02C399.038 154.14 395.858 159.54 391.538 164.22C387.218 168.9 382.118 172.56 376.238 175.2C370.358 177.84 363.998 179.16 357.158 179.16ZM339.338 117.6H375.878C375.878 108.12 374.318 100.44 371.198 94.56C368.198 88.68 363.938 85.74 358.418 85.74C353.138 85.74 348.758 88.62 345.278 94.38C341.798 100.14 339.818 107.88 339.338 117.6ZM444.478 179.52C438.238 179.52 433.138 177.54 429.178 173.58C425.218 169.62 423.238 164.46 423.238 158.1V88.8H407.938V86.46C416.218 85.86 423.598 83.22 430.078 78.54C436.678 73.86 442.078 67.56 446.278 59.64H449.158V85.56H473.098L471.298 88.8H449.158V154.14C449.158 163.74 452.398 168.54 458.878 168.54C461.038 168.54 463.498 167.88 466.258 166.56C469.138 165.24 471.838 163.5 474.358 161.34V163.14C470.398 168.18 465.718 172.2 460.318 175.2C454.918 178.08 449.638 179.52 444.478 179.52ZM472.596 177V175.2H472.776C477.096 175.2 480.576 173.88 483.216 171.24C485.856 168.6 487.176 165.12 487.176 160.8V101.76C487.176 97.2 486.216 93.66 484.296 91.14C482.496 88.62 478.596 87.36 472.596 87.36V85.56H490.956C497.076 85.56 501.756 84.9 504.996 83.58C507.996 82.26 510.096 80.64 511.296 78.72H513.096V160.8C513.096 165.12 514.416 168.6 517.056 171.24C519.696 173.88 523.176 175.2 527.496 175.2H527.676V177H472.596ZM499.956 67.38C495.636 67.38 492.036 66 489.156 63.24C486.396 60.36 485.016 56.76 485.016 52.44C485.016 48.12 486.396 44.58 489.156 41.82C492.036 38.94 495.636 37.5 499.956 37.5C504.156 37.5 507.636 38.94 510.396 41.82C513.276 44.7 514.716 48.24 514.716 52.44C514.716 56.64 513.276 60.18 510.396 63.06C507.636 65.94 504.156 67.38 499.956 67.38ZM565.993 179.88L530.173 97.08C528.973 94.32 527.353 92.04 525.313 90.24C523.393 88.44 520.693 87.48 517.213 87.36V85.56H567.613V87.36C563.413 87.84 560.653 89.7 559.333 92.94C558.133 96.18 558.553 100.26 560.593 105.18L579.133 148.56L597.493 106.26C598.693 103.5 599.293 100.8 599.293 98.16C599.293 95.16 598.393 92.7 596.593 90.78C594.793 88.86 592.273 87.72 589.033 87.36V85.56H617.473V87.36C614.353 88.08 611.353 89.88 608.473 92.76C605.593 95.64 603.013 99.6 600.733 104.64L567.613 179.88H565.993ZM659.135 179.52C649.295 179.52 640.655 177.54 633.215 173.58C625.895 169.62 620.195 164.04 616.115 156.84C612.035 149.64 609.995 141.12 609.995 131.28C609.995 121.44 612.035 112.92 616.115 105.72C620.195 98.52 625.895 92.94 633.215 88.98C640.655 85.02 649.295 83.04 659.135 83.04C668.975 83.04 677.555 85.02 684.875 88.98C692.195 92.94 697.895 98.52 701.975 105.72C706.055 112.92 708.095 121.44 708.095 131.28C708.095 141.12 706.055 149.64 701.975 156.84C697.895 164.04 692.195 169.62 684.875 173.58C677.555 177.54 668.975 179.52 659.135 179.52ZM658.955 177.18C663.155 177.18 666.755 175.08 669.755 170.88C672.755 166.68 675.095 161.1 676.775 154.14C678.455 147.06 679.295 139.38 679.295 131.1C679.295 122.1 678.395 114.18 676.595 107.34C674.915 100.38 672.515 94.98 669.395 91.14C666.395 87.18 662.975 85.2 659.135 85.2C655.055 85.2 651.455 87.3 648.335 91.5C645.335 95.7 642.995 101.28 641.315 108.24C639.635 115.2 638.795 122.82 638.795 131.1C638.795 140.22 639.695 148.26 641.495 155.22C643.295 162.18 645.695 167.58 648.695 171.42C651.815 175.26 655.235 177.18 658.955 177.18Z" fill="#0C0C0D"/>
<path d="M79.02 178.52C64.62 178.52 51.96 175.64 41.04 169.88C30.24 164 21.78 155.84 15.66 145.4C9.66 134.84 6.66 122.54 6.66 108.5C6.66 94.46 9.66 82.22 15.66 71.78C21.78 61.22 30.24 53.06 41.04 47.3C51.96 41.42 64.62 38.48 79.02 38.48C93.42 38.48 106.02 41.42 116.82 47.3C127.74 53.06 136.2 61.22 142.2 71.78C148.32 82.22 151.38 94.46 151.38 108.5C151.38 122.54 148.32 134.84 142.2 145.4C136.2 155.84 127.74 164 116.82 169.88C106.02 175.64 93.42 178.52 79.02 178.52ZM79.02 175.64C85.26 175.64 90.96 174.02 96.12 170.78C101.28 167.54 105.72 162.98 109.44 157.1C113.04 151.22 115.8 144.14 117.72 135.86C119.76 127.58 120.78 118.4 120.78 108.32C120.78 98.24 119.76 89.06 117.72 80.78C115.8 72.38 113.04 65.24 109.44 59.36C105.72 53.48 101.28 48.92 96.12 45.68C90.96 42.44 85.26 40.82 79.02 40.82C72.78 40.82 67.08 42.44 61.92 45.68C56.76 48.92 52.38 53.48 48.78 59.36C45.06 65.24 42.18 72.38 40.14 80.78C38.22 89.06 37.26 98.24 37.26 108.32C37.26 118.4 38.22 127.58 40.14 135.86C42.18 144.14 45.06 151.22 48.78 157.1C52.38 162.98 56.76 167.54 61.92 170.78C67.08 174.02 72.78 175.64 79.02 175.64ZM165.604 178.52V57.2C165.604 52.88 164.224 49.4 161.464 46.76C158.824 44.12 155.344 42.8 151.024 42.8V41H169.384C176.464 41 181.324 40.34 183.964 39.02C186.604 37.7 188.524 36.08 189.724 34.16H191.524V99.68C194.284 94.28 198.124 89.96 203.044 86.72C208.084 83.48 213.604 81.86 219.604 81.86C226.684 81.86 232.984 83.96 238.504 88.16C244.024 92.36 248.344 98.06 251.464 105.26C254.704 112.46 256.324 120.68 256.324 129.92C256.324 139.52 254.524 147.98 250.924 155.3C247.444 162.62 242.524 168.32 236.164 172.4C229.804 176.48 222.364 178.52 213.844 178.52C199.564 178.52 189.964 172.58 185.044 160.7L167.404 178.52H165.604ZM208.624 175.46C214.984 175.46 219.784 171.5 223.024 163.58C226.264 155.66 227.884 144.02 227.884 128.66C227.884 115.22 226.624 105.26 224.104 98.78C221.584 92.3 217.624 89.06 212.224 89.06C207.424 89.06 203.164 90.8 199.444 94.28C195.844 97.76 193.204 101.66 191.524 105.98V151.16C192.004 158.6 193.744 164.54 196.744 168.98C199.744 173.3 203.704 175.46 208.624 175.46ZM282.715 65.48C278.515 65.48 274.975 64.04 272.095 61.16C269.335 58.28 267.955 54.74 267.955 50.54C267.955 46.22 269.335 42.68 272.095 39.92C274.975 37.04 278.515 35.6 282.715 35.6C286.915 35.6 290.455 37.04 293.335 39.92C296.215 42.68 297.655 46.22 297.655 50.54C297.655 54.74 296.215 58.28 293.335 61.16C290.455 64.04 286.915 65.48 282.715 65.48ZM256.255 216.32V214.34C260.695 214.34 264.235 212.3 266.875 208.22C269.515 204.14 270.835 198.68 270.835 191.84V100.76C270.835 96.2 269.875 92.66 267.955 90.14C266.155 87.62 262.255 86.36 256.255 86.36V84.56H274.615C280.975 84.56 285.775 84.2 289.015 83.48C292.255 83 294.535 81.68 295.855 79.52H296.755V171.5C296.755 180.38 295.075 188.18 291.715 194.9C288.475 201.62 283.795 206.84 277.675 210.56C271.675 214.4 264.535 216.32 256.255 216.32ZM355.158 178.16C346.878 178.16 339.498 176.12 333.018 172.04C326.658 167.96 321.678 162.32 318.078 155.12C314.478 147.8 312.678 139.46 312.678 130.1C312.678 120.5 314.658 112.1 318.618 104.9C322.578 97.7 327.978 92.12 334.818 88.16C341.778 84.08 349.638 82.04 358.398 82.04C365.718 82.04 372.198 83.48 377.838 86.36C383.598 89.24 388.158 93.32 391.518 98.6C394.998 103.76 396.978 109.76 397.458 116.6L397.638 119.3H337.158V120.2C337.158 132.92 339.978 143.12 345.618 150.8C351.258 158.36 358.818 162.14 368.298 162.14C374.058 162.14 379.518 160.76 384.678 158C389.958 155.12 394.218 151.28 397.458 146.48L399.078 147.02C397.038 153.14 393.858 158.54 389.538 163.22C385.218 167.9 380.118 171.56 374.238 174.2C368.358 176.84 361.998 178.16 355.158 178.16ZM337.338 116.6H373.878C373.878 107.12 372.318 99.44 369.198 93.56C366.198 87.68 361.938 84.74 356.418 84.74C351.138 84.74 346.758 87.62 343.278 93.38C339.798 99.14 337.818 106.88 337.338 116.6ZM442.478 178.52C436.238 178.52 431.138 176.54 427.178 172.58C423.218 168.62 421.238 163.46 421.238 157.1V87.8H405.938V85.46C414.218 84.86 421.598 82.22 428.078 77.54C434.678 72.86 440.078 66.56 444.278 58.64H447.158V84.56H471.098L469.298 87.8H447.158V153.14C447.158 162.74 450.398 167.54 456.878 167.54C459.038 167.54 461.498 166.88 464.258 165.56C467.138 164.24 469.838 162.5 472.358 160.34V162.14C468.398 167.18 463.718 171.2 458.318 174.2C452.918 177.08 447.638 178.52 442.478 178.52ZM470.596 176V174.2H470.776C475.096 174.2 478.576 172.88 481.216 170.24C483.856 167.6 485.176 164.12 485.176 159.8V100.76C485.176 96.2 484.216 92.66 482.296 90.14C480.496 87.62 476.596 86.36 470.596 86.36V84.56H488.956C495.076 84.56 499.756 83.9 502.996 82.58C505.996 81.26 508.096 79.64 509.296 77.72H511.096V159.8C511.096 164.12 512.416 167.6 515.056 170.24C517.696 172.88 521.176 174.2 525.496 174.2H525.676V176H470.596ZM497.956 66.38C493.636 66.38 490.036 65 487.156 62.24C484.396 59.36 483.016 55.76 483.016 51.44C483.016 47.12 484.396 43.58 487.156 40.82C490.036 37.94 493.636 36.5 497.956 36.5C502.156 36.5 505.636 37.94 508.396 40.82C511.276 43.7 512.716 47.24 512.716 51.44C512.716 55.64 511.276 59.18 508.396 62.06C505.636 64.94 502.156 66.38 497.956 66.38ZM563.993 178.88L528.173 96.08C526.973 93.32 525.353 91.04 523.313 89.24C521.393 87.44 518.693 86.48 515.213 86.36V84.56H565.613V86.36C561.413 86.84 558.653 88.7 557.333 91.94C556.133 95.18 556.553 99.26 558.593 104.18L577.133 147.56L595.493 105.26C596.693 102.5 597.293 99.8 597.293 97.16C597.293 94.16 596.393 91.7 594.593 89.78C592.793 87.86 590.273 86.72 587.033 86.36V84.56H615.473V86.36C612.353 87.08 609.353 88.88 606.473 91.76C603.593 94.64 601.013 98.6 598.733 103.64L565.613 178.88H563.993ZM657.135 178.52C647.295 178.52 638.655 176.54 631.215 172.58C623.895 168.62 618.195 163.04 614.115 155.84C610.035 148.64 607.995 140.12 607.995 130.28C607.995 120.44 610.035 111.92 614.115 104.72C618.195 97.52 623.895 91.94 631.215 87.98C638.655 84.02 647.295 82.04 657.135 82.04C666.975 82.04 675.555 84.02 682.875 87.98C690.195 91.94 695.895 97.52 699.975 104.72C704.055 111.92 706.095 120.44 706.095 130.28C706.095 140.12 704.055 148.64 699.975 155.84C695.895 163.04 690.195 168.62 682.875 172.58C675.555 176.54 666.975 178.52 657.135 178.52ZM656.955 176.18C661.155 176.18 664.755 174.08 667.755 169.88C670.755 165.68 673.095 160.1 674.775 153.14C676.455 146.06 677.295 138.38 677.295 130.1C677.295 121.1 676.395 113.18 674.595 106.34C672.915 99.38 670.515 93.98 667.395 90.14C664.395 86.18 660.975 84.2 657.135 84.2C653.055 84.2 649.455 86.3 646.335 90.5C643.335 94.7 640.995 100.28 639.315 107.24C637.635 114.2 636.795 121.82 636.795 130.1C636.795 139.22 637.695 147.26 639.495 154.22C641.295 161.18 643.695 166.58 646.695 170.42C649.815 174.26 653.235 176.18 656.955 176.18Z" fill="#6610F2"/>
<g clip-path="url(#clip0_2068_269)">
<path d="M843.615 87.3688C841.941 86.8321 841.692 85.6814 842.117 84.096C844.671 74.6726 847.17 65.2345 849.725 55.8111C850.721 52.0935 853.788 50.2786 857.598 50.9478C858.379 51.0984 859.172 51.3111 859.939 51.5164C883.528 57.8371 907.124 64.1304 930.728 70.3964C931.713 70.6604 932.399 71.1664 932.9 72.0331C939.626 83.7089 946.345 95.412 953.072 107.088C953.593 107.989 953.93 108.812 953.629 109.933C948.352 129.408 943.184 148.913 937.778 168.324C936.734 172 936.655 174.703 940.129 176.953C941.258 177.665 942.131 178.895 942.847 180.054C943.811 181.602 944.69 182.042 946.498 181.208C949.607 179.785 952.821 178.625 956.043 177.437C957.115 177.051 957.661 176.435 957.927 175.335C958.43 173.126 959.098 170.961 959.65 168.794C959.979 167.564 960.659 166.779 961.869 166.312C965.867 164.747 969.865 163.181 973.87 161.588C974.755 161.24 975.688 160.933 976.527 161.744C977.325 162.485 977.262 163.376 976.999 164.36C976.312 166.813 975.68 169.281 975.021 171.741C974.289 174.474 974.922 176.05 977.31 177.54C979.398 178.832 981.513 180.131 983.594 181.45C984.574 182.064 985.615 182.666 985.46 184.119C985.308 185.455 984.291 185.856 983.247 186.25C979.311 187.803 975.363 189.294 971.467 190.916C970.249 191.41 969.207 191.248 968.181 190.592C967.5 190.176 966.743 189.826 966.182 189.295C963.183 186.587 960.059 186.424 956.542 188.382C954.406 189.568 952.002 190.33 949.666 191.169C948.663 191.515 948.512 191.973 948.702 192.903C952.043 209.004 943.317 224.713 927.881 230.216C926.879 230.563 926.568 231.066 926.558 232.088C926.448 237.098 926.159 242.118 926.083 247.108C926.048 249.208 925.026 249.959 923.148 250.072C921.834 250.159 920.471 249.882 919.197 250.478L917.089 249.913C916.362 249.015 916.27 247.936 916.178 246.856C915.79 242.504 915.367 238.172 915.033 233.834C914.928 232.693 914.766 232.093 913.325 232C909.893 231.783 906.519 230.908 903.446 229.352C901.919 228.592 901.417 229.043 900.58 230.196C897.5 234.468 894.786 239.015 891.318 242.979L888.773 242.297C887.891 241.211 886.587 240.715 885.465 239.975C883.474 238.65 883.241 237.767 884.404 235.618C886.743 231.264 889.056 226.903 891.491 222.633C892.141 221.518 891.848 220.971 891.259 219.993C889.807 217.641 887.72 216.672 885.141 216.01C876.457 213.829 867.846 211.376 859.149 209.133C857.48 208.686 856.572 207.915 856.787 206.127C857.677 204.666 858.899 204.701 860.377 205.097C868.162 207.241 876.003 209.284 883.829 211.381C884.541 211.572 885.28 211.769 886.21 212.019C885.588 209.743 885.097 207.853 884.572 205.984C884.144 204.404 884.596 203.266 886.166 202.661C887.826 202.813 888.462 203.833 888.78 205.383C889.5 208.828 890.641 212.122 892.883 214.92C893.156 215.433 893.367 215.958 893.71 216.431C901.085 226.669 914.74 230.767 926.586 226.295C938.853 221.671 946.483 209.506 945.14 196.782C944.879 194.329 943.585 193.573 941.261 194.513C940.797 194.711 940.374 194.978 939.93 195.211C937.795 195.517 936.25 196.246 936.797 198.912C937.084 200.249 936.827 201.645 936.578 203.014C935.158 209.518 931.553 214.324 925.607 217.36C921.366 219.505 916.887 219.799 912.275 219.061C910.657 218.423 908.94 217.933 907.428 217.118C897.716 211.879 893.954 200.412 898.626 190.53C903.098 181.064 914.591 176.702 924.602 180.937C927.181 182.038 930.409 182.581 931.647 185.842C931.956 186.658 932.726 186.63 933.495 186.279C935.246 185.547 936.976 184.78 938.772 184.207C940.251 183.724 940.198 183.153 939.344 182.074C936.994 179.13 934.252 176.667 930.949 174.874C929.444 174.031 928.739 173.051 929.516 171.355C930.19 170.92 930.867 170.252 931.686 170.589C932.819 171.068 933 170.501 933.235 169.627C938.391 150.383 943.548 131.138 948.711 111.867C948.99 110.828 948.915 110.339 947.731 110.052C942.784 108.814 937.858 107.494 932.925 106.201C929.832 105.373 926.755 104.489 923.67 103.634C921.043 102.93 920.762 102.444 921.487 99.738C923.575 91.9474 925.615 84.1149 927.784 76.3463C928.246 74.6241 927.967 74.0221 926.216 73.5528C903.542 67.5361 880.891 61.4374 858.225 55.3934C855.133 54.5648 854.404 54.9849 853.562 58.1284C851.189 66.9851 848.816 75.8418 846.443 84.6985C846.047 86.1746 845.486 87.284 843.747 87.3161L843.615 87.3688ZM919.279 190.293C920.78 191.369 921.812 190.473 922.722 189.047C923.117 188.45 923.574 187.84 924.063 187.326C925.028 186.354 924.941 185.803 923.646 185.163C915.726 181.225 906.195 184.501 902.144 192.616C898.455 200.035 901.805 209.752 909.364 213.506C917.284 217.444 926.978 214.212 930.805 206.389C932.704 202.474 932.63 202.425 928.34 201.686C926.771 201.412 925.933 201.363 925.16 203.265C923.175 208.154 917.79 210.08 912.752 208.085C908.349 206.349 905.914 201.097 907.432 196.523C909.061 191.539 914.005 188.85 919.252 190.285L919.279 190.293ZM931.363 78.5356C929.517 85.4241 927.73 92.0939 925.95 98.7364C925.569 100.158 926.642 100.094 927.408 100.299C932.197 101.582 936.986 102.866 941.748 104.141C943.444 104.596 945.168 105.058 947.002 105.549C941.751 96.4662 936.681 87.6952 931.37 78.5082L931.363 78.5356ZM971.419 177.631C971.514 177.276 971.555 176.906 971.243 176.647C970.619 176.128 969.995 176.488 969.4 176.739C957.766 181.298 946.105 185.849 934.471 190.408C933.883 190.631 932.942 190.643 933.389 191.817C933.797 192.923 934.429 192.535 935.086 192.272C946.747 187.721 958.374 183.189 970.035 178.638C970.588 178.434 971.161 178.265 971.412 177.659L971.419 177.631ZM918.323 194.519C915.07 193.852 912.952 194.75 911.793 197.105C910.784 199.12 911.311 201.752 913.038 203.298C914.886 204.936 917.439 205.152 919.502 203.8C920.426 203.198 921.491 202.399 921.324 201.271C921.157 200.142 919.768 200.619 918.942 200.31C918.593 200.187 918.208 200.201 917.88 200.113C916.163 199.624 915.677 198.263 916.691 196.777C917.177 196.058 917.704 195.408 918.35 194.526L918.323 194.519ZM922.186 196.521C924.976 196.946 927.485 197.325 929.986 197.732C930.638 197.819 931.234 197.891 930.852 196.909C929.889 194.483 928.933 192.03 927.844 189.306C925.844 191.846 924.137 194.055 922.179 196.548L922.186 196.521ZM889.832 237.688C890.024 237.739 890.274 237.572 890.514 237.226C892.885 233.847 895.352 230.553 897.574 227.076C898.343 225.846 896.581 225.638 895.994 224.983C895.387 224.293 894.985 224.917 894.701 225.427C892.795 228.93 890.916 232.441 889.037 235.951C888.633 236.692 888.546 237.343 889.805 237.68L889.832 237.688ZM921.553 231.831C920.916 232.569 918.839 231.016 919.006 233.346C919.327 237.182 919.703 241.033 920.025 244.869C920.083 245.529 920.254 245.985 921.009 246.012C921.854 246.033 921.913 245.375 921.923 244.792C922.063 240.874 922.176 236.949 922.262 233.017C922.262 232.578 922.466 231.929 921.526 231.824L921.553 231.831ZM962.757 174.93C964.396 174.285 965.888 173.425 967.447 173.081C970.599 172.372 971.404 170.244 971.474 167.245C970.028 167.825 968.732 168.503 967.352 168.836C964.302 169.601 962.569 171.363 962.73 174.922L962.757 174.93ZM966.465 184.625C968.275 185.315 969.27 187.075 970.954 186.589C973.413 185.842 975.741 184.708 978.598 183.569C976.624 182.835 975.626 180.868 973.691 181.522C971.369 182.306 969.185 183.449 966.465 184.625Z" fill="#060505"/>
<path d="M785.517 148.65C787.928 147.86 789.781 149.265 791.681 150.272C793.146 151.046 794.128 151.104 794.708 149.267C795.1 148.024 795.758 146.882 796.313 145.683C796.946 144.417 797.954 143.72 799.311 144.348C800.641 144.968 800.868 146.2 800.255 147.501C799.685 148.755 799.087 150.001 798.462 151.24C797.844 152.451 797.706 153.293 799.353 153.822C800.734 154.251 801.993 155.028 803.288 155.668C804.508 156.258 805.117 157.271 804.553 158.497C803.961 159.833 802.74 160.121 801.423 159.563C800.031 158.955 798.597 158.395 797.284 157.604C796.018 156.855 795.536 157.341 795.077 158.507C794.525 159.912 793.808 161.272 793.119 162.641C792.508 163.825 791.453 164.04 790.321 163.561C789.078 163.052 788.842 161.963 789.259 160.845C789.856 159.276 790.554 157.764 791.355 156.308C791.879 155.335 791.699 155.023 790.738 154.561C788.678 153.599 786.442 152.97 784.801 151.212L785.482 148.67L785.517 148.65Z" fill="#070707"/>
<path d="M843.615 87.3687C845.347 87.364 845.916 86.2272 846.311 84.7511C848.657 75.8871 851.057 67.0378 853.431 58.1811C854.273 55.0375 855.001 54.6175 858.094 55.4461C880.752 61.5174 903.411 67.5888 926.084 73.6055C927.863 74.0821 928.142 74.6841 927.653 76.3989C925.456 84.1602 923.416 91.9928 921.356 99.7907C920.631 102.497 920.918 102.955 923.538 103.686C926.631 104.515 929.708 105.398 932.793 106.254C932.083 108.905 931.372 111.557 930.654 114.236C929.881 114.058 929.093 113.935 928.326 113.729C913.275 109.696 898.224 105.663 883.173 101.631C882.462 101.44 881.75 101.249 881.044 101.148C879.844 101.031 879.099 101.623 878.846 102.785C878.585 103.976 879.012 104.793 880.139 105.183C880.754 105.406 881.398 105.52 882.027 105.689C897.845 109.927 913.675 114.227 929.492 118.466C927.858 124.561 926.225 130.657 924.592 136.753C923.736 136.553 922.873 136.38 922.052 136.16C906.755 132.061 891.485 127.97 876.187 123.871C874.737 123.482 873.36 123.26 872.854 125.146C872.349 127.032 873.66 127.501 875.111 127.889C885.811 130.756 896.538 133.631 907.238 136.498C912.656 137.95 918.06 139.456 923.471 140.935C921.838 147.031 920.204 153.127 918.571 159.223C902.754 154.984 886.894 150.794 871.077 146.555C870.366 146.365 869.669 146.119 868.955 146.045C867.872 145.931 867.148 146.44 866.835 147.499C866.53 148.53 866.735 149.406 867.744 149.91C868.391 150.23 869.095 150.448 869.78 150.632C876.813 152.516 883.845 154.401 890.878 156.285C899.745 158.661 908.597 161.091 917.428 163.487C917.207 164.424 917.02 165.34 916.798 166.277C911.36 166.431 906.1 167.454 901.307 170.125C899.719 171.018 898.356 171.18 896.611 170.683C890.449 168.944 884.242 167.369 878.045 165.65C876.43 165.217 874.97 165.412 874.482 167.126C874.02 168.849 875.083 169.807 876.732 170.22C878.354 170.625 879.961 171.085 881.576 171.518C885.681 172.618 889.786 173.718 894.246 174.913C891.525 177.406 889.497 179.939 887.863 182.754C887.311 183.719 886.706 183.352 886.049 183.176C882.108 182.12 878.16 181.091 874.227 180.008C872.64 179.583 871.147 179.681 870.631 181.388C870.071 183.26 871.3 184.146 872.996 184.6C876.534 185.519 880.015 186.539 883.567 187.403C884.997 187.757 885.479 188.15 884.917 189.699C884.161 191.752 883.796 193.881 883.615 196.089C883.457 197.775 884.018 198.745 885.655 199.096C885.752 200.265 885.849 201.433 885.947 202.602C884.377 203.207 883.925 204.346 884.353 205.925C884.878 207.795 885.369 209.684 885.991 211.96C885.061 211.711 884.322 211.513 883.61 211.322C875.784 209.225 867.985 207.135 860.158 205.038C858.68 204.642 857.431 204.6 856.568 206.068C854.598 205.54 852.627 205.013 850.657 204.485C850.651 202.754 849.54 202.193 848.063 201.797C838.97 199.39 829.892 196.928 820.807 194.494C817.577 193.629 817.177 192.935 818.056 189.655C823.073 170.93 828.083 152.233 833.1 133.508C836.264 121.699 839.436 109.863 842.6 98.0541C842.996 96.578 843.342 95.1766 841.645 94.2826C842.275 91.9318 842.905 89.5809 843.528 87.2574L843.615 87.3687ZM864.575 122.986C865.879 118.12 865.067 116.555 860.633 115.367C855.133 113.893 853.643 114.637 852.319 119.468C850.935 124.634 851.735 126.138 856.66 127.457C861.723 128.814 863.235 127.988 864.575 122.986ZM858.532 145.538C859.88 140.508 859.053 138.997 854.264 137.714C849.174 136.35 847.593 137.216 846.282 142.109C844.92 147.193 845.749 148.587 850.811 149.944C855.737 151.264 857.229 150.403 858.532 145.538ZM863.716 101.017C863.285 99.6706 862.939 98.5526 862.613 97.4692C862.209 96.1305 861.25 95.5511 859.932 95.8719C858.525 96.198 858.108 97.3167 858.472 98.5861C859.189 100.946 859.933 103.314 860.878 105.588C861.597 107.393 863.173 107.639 864.468 106.199C868.599 101.622 872.654 96.9954 876.764 92.3836C877.555 91.5115 877.777 90.5747 876.933 89.6747C875.731 88.3567 874.572 88.6321 873.438 89.9102C870.292 93.5499 867.092 97.175 863.743 101.024L863.716 101.017Z" fill="#FDF4E9"/>
<path d="M841.726 94.4213C843.415 95.3426 843.076 96.7167 842.68 98.1928C839.516 110.002 836.344 121.838 833.18 133.647C828.163 152.372 823.153 171.069 818.136 189.794C817.257 193.074 817.658 193.767 820.887 194.633C829.972 197.067 839.057 199.501 848.143 201.936C849.621 202.332 850.739 202.866 850.737 204.623C850.039 206.135 848.94 206.515 847.352 206.09C837.727 203.481 828.06 200.92 818.434 198.312C814.658 197.3 812.754 194.006 813.738 190.227C815.155 184.718 816.675 179.265 818.147 173.771C824.988 148.24 831.822 122.736 838.663 97.2043C839.11 95.5368 839.567 94.048 841.773 94.4633L841.726 94.4213Z" fill="#010101"/>
<path d="M990.133 131.872C990.182 130.157 991.12 129.5 992.785 129.419C997.832 129.189 1002.24 133.006 1002.73 138.149C1003.23 143.204 999.638 147.516 994.342 148.235C989.321 148.911 984.595 145.535 983.727 140.674C983.411 139.007 983.74 137.777 985.662 137.501C987.08 137.793 987.606 138.784 988.025 140.068C989.013 143.057 991.448 144.588 994.143 144.051C996.777 143.526 998.626 141.004 998.362 138.267C998.086 135.468 996.012 133.682 992.804 133.614C991.492 133.584 990.529 133.238 990.133 131.872Z" fill="#060505"/>
<path d="M975.748 50.7004C978.227 49.1089 980.061 47.0807 980.708 44.1191C980.983 42.8744 981.657 42.0003 983.164 42.2869C984.691 42.6082 985.094 43.6242 984.981 45.0297C984.638 49.1566 986.151 52.3747 989.653 54.6314C990.401 55.1247 991.242 55.3794 992.07 55.572C993.473 55.9186 994.312 56.7293 994.095 58.1948C993.878 59.6602 992.768 60.3003 991.383 60.105C988.216 59.6665 985.54 60.678 983.136 62.6415C981.894 62.5723 980.73 62.319 980.388 60.9676C980.026 59.5815 981.131 58.8521 982.069 58.1953C982.904 57.5986 983.771 57.0985 984.653 56.5437C983.873 55.5144 982.905 54.6397 982.435 53.547C981.681 51.7629 980.982 51.6343 979.667 53.0397C978.876 53.9118 977.801 54.5319 976.535 53.7826C975.269 53.0333 975.336 51.9085 975.74 50.7278L975.748 50.7004Z" fill="#060505"/>
<path d="M975.748 50.7004C975.343 51.8812 975.277 53.0059 976.542 53.7553C977.808 54.5046 978.856 53.8772 979.674 53.0124C980.99 51.6069 981.688 51.7356 982.442 53.5196C982.912 54.6124 983.88 55.487 984.66 56.5164C983.778 57.0711 982.911 57.5712 982.077 58.168C981.131 58.852 980.061 59.5615 980.395 60.9402C980.737 62.2916 981.921 62.5796 983.144 62.6142C982 64.0363 981.115 65.5865 980.659 67.398C980.308 68.7101 979.413 69.6422 977.948 69.3082C976.592 69.0036 976.378 67.8328 976.427 66.5568C976.616 60.9237 974.529 57.8743 969.226 56.1017C967.825 55.6384 966.8 54.8658 967.136 53.2857C967.435 51.8422 968.672 51.3828 970.002 51.5634C972.039 51.8453 973.875 51.3412 975.735 50.6384L975.748 50.7004Z" fill="#F1953A"/>
<path d="M952.021 223.207C952.847 223.517 953.312 224.081 953.56 224.909C956.13 233.156 958.701 241.404 961.272 249.652C961.703 250.998 961.505 252.175 960.027 252.658C958.486 253.153 957.598 252.417 957.129 250.885C954.638 242.776 952.058 234.673 949.575 226.536C948.883 224.3 950.133 222.701 952.028 223.18L952.021 223.207Z" fill="#070707"/>
<path d="M974.962 218.485C971.24 217.487 967.533 216.435 963.769 215.486C962.237 215.075 961.066 214.41 961.5 212.68C961.912 211.033 963.231 211.035 964.669 211.361C972.364 213.072 980.04 214.747 987.735 216.458C989.255 216.806 990.384 217.519 989.97 219.283C989.55 220.958 988.244 221.018 986.848 220.644C982.99 219.61 979.104 218.569 975.245 217.535C975.165 217.836 975.077 218.164 974.996 218.465L974.962 218.485Z" fill="#070707"/>
<path d="M861.885 19.0776C862.16 17.3934 862.421 15.3246 864.669 15.6926C866.999 16.0825 866.4 18.2073 866.119 19.8021C865.005 26.4766 863.837 33.1364 862.668 39.7962C862.632 39.9329 862.595 40.0695 862.558 40.2062C862.287 41.657 861.769 43.0418 859.947 42.7292C858.151 42.4239 858.052 40.9325 858.296 39.4744C859.133 34.6007 859.97 29.727 860.834 24.8606C861.175 22.9305 861.516 21.0004 861.857 19.0702L861.885 19.0776Z" fill="#070707"/>
<path d="M840.608 48.2411C840.102 50.1272 838.527 50.6426 837.178 49.5486C836.791 49.24 836.461 48.8293 836.124 48.4459C831.517 43.1978 826.911 37.9497 822.27 32.7216C821.238 31.5369 820.639 30.3801 821.999 29.1333C823.422 27.8739 824.514 28.7232 825.499 29.8659C830.24 35.2674 835.009 40.6762 839.777 46.085C840.357 46.7676 840.909 47.443 840.615 48.2137L840.608 48.2411Z" fill="#060505"/>
<path d="M990.633 247.675C990.169 249.191 988.799 249.703 987.587 248.646C982.038 243.848 976.539 238.976 971.04 234.104C970.065 233.257 970.035 232.165 970.882 231.191C971.73 230.217 972.803 230.153 973.778 231C979.237 235.803 984.662 240.625 990.114 245.456C990.797 246.078 990.861 246.828 990.641 247.648L990.633 247.675Z" fill="#070707"/>
<path d="M990.133 131.872C990.537 133.211 991.492 133.584 992.804 133.614C996.012 133.682 998.086 135.468 998.362 138.267C998.626 141.004 996.777 143.526 994.143 144.051C991.448 144.588 989.013 143.057 988.025 140.068C987.599 138.811 987.08 137.793 985.662 137.501C986.383 135.028 987.688 133.004 990.125 131.9L990.133 131.872Z" fill="#C74BCB"/>
<path d="M843.986 21.8406C843.713 22.9686 843.039 23.4034 842.081 23.5861C840.909 23.7995 840.262 23.0401 839.913 22.1554C839.161 20.2547 838.568 18.3086 837.878 16.3951C836.848 13.453 835.852 10.4909 834.795 7.54139C834.276 6.08398 834.245 4.66923 835.869 4.07912C837.563 3.449 838.349 4.5677 838.853 6.07978C840.41 10.7747 842.038 15.4296 843.63 20.1045C843.847 20.7192 844.09 21.3412 843.951 21.8606L843.986 21.8406Z" fill="#070707"/>
<path d="M845.638 27.4982C846.158 27.6375 846.602 28.1668 846.844 28.9055C848.233 33.0277 849.622 37.1499 850.983 41.2648C851.389 42.4869 851.225 43.6443 849.863 44.129C848.564 44.6011 847.467 43.9851 847.027 42.7831C845.524 38.5422 844.075 34.316 842.765 30.0098C842.23 28.2844 843.729 26.9576 845.638 27.4982Z" fill="#070707"/>
<path d="M961.204 220.131C961.327 220.222 961.66 220.399 961.925 220.617C964.357 222.704 966.762 224.784 969.187 226.899C970.19 227.753 970.709 228.771 969.674 229.9C968.757 230.914 967.581 230.922 966.559 230.032C964.004 227.854 961.511 225.662 958.992 223.464C958.166 222.715 958.181 221.781 958.773 220.885C959.309 220.091 960.05 219.733 961.232 220.138L961.204 220.131Z" fill="#070707"/>
<path d="M916.796 166.394C917.018 165.457 917.205 164.54 917.426 163.604C918.603 163.48 919.742 163.169 920.012 161.835C920.272 160.645 919.647 159.804 918.549 159.305C920.182 153.209 921.816 147.113 923.449 141.017C924.664 141.079 925.661 140.643 925.983 139.44C926.313 138.21 925.66 137.362 924.57 136.835C926.203 130.739 927.836 124.643 929.47 118.548C930.65 118.629 931.612 118.213 932.009 117.06C932.45 115.743 931.639 114.939 930.647 114.263C931.358 111.612 932.068 108.96 932.786 106.281C937.712 107.601 942.637 108.921 947.593 110.131C948.769 110.447 948.844 110.935 948.573 111.947C943.416 131.191 938.26 150.435 933.096 169.707C932.854 170.609 932.708 171.155 931.548 170.669C930.729 170.332 930.051 171 929.377 171.435C927.635 170.822 925.893 170.208 924.158 169.568C924.227 167.887 923.334 167.062 921.735 166.897C920.11 166.725 918.484 166.553 916.831 166.374L916.796 166.394Z" fill="#E9C6AE"/>
<path d="M924.123 169.588C925.866 170.201 927.608 170.814 929.342 171.455C928.538 173.144 929.236 174.151 930.775 174.974C934.071 176.794 936.821 179.23 939.17 182.175C940.025 183.253 940.077 183.824 938.599 184.307C936.803 184.88 935.045 185.64 933.321 186.379C932.533 186.695 931.783 186.758 931.473 185.942C930.235 182.681 927.042 182.118 924.428 181.037C914.445 176.809 902.917 181.191 898.452 190.63C893.781 200.512 897.542 211.979 907.255 217.218C908.767 218.034 910.483 218.523 912.101 219.161C909.593 219.984 907.094 219.46 904.62 219.061C900.44 218.351 896.6 216.59 892.709 215.02C890.44 212.215 889.326 208.928 888.607 205.483C888.289 203.933 887.653 202.913 885.992 202.761C885.895 201.592 885.797 200.423 885.7 199.255C887.115 198.901 887.626 197.867 887.807 196.538C888.288 193.21 889.015 189.947 890.556 186.932C896.393 175.547 907.266 169.67 919.991 171C921.562 171.157 923.244 171.667 924.109 169.642L924.123 169.588Z" fill="#6610F2"/>
<path d="M892.724 214.965C896.615 216.535 900.454 218.297 904.634 219.006C907.108 219.406 909.601 219.956 912.116 219.107C916.728 219.845 921.207 219.55 925.448 217.405C931.394 214.37 934.999 209.564 936.419 203.059C938.449 200.849 939.059 198.024 939.771 195.256C940.215 195.023 940.639 194.756 941.102 194.558C943.427 193.618 944.72 194.375 944.981 196.828C946.351 209.559 938.694 221.716 926.427 226.34C914.581 230.813 900.927 226.714 893.551 216.476C893.208 216.003 892.997 215.478 892.724 214.965Z" fill="#6610F2"/>
<path d="M919.272 190.32C914.018 188.912 909.074 191.601 907.453 196.558C905.968 201.111 908.376 206.356 912.772 208.12C917.81 210.115 923.195 208.188 925.18 203.3C925.946 201.425 926.784 201.474 928.36 201.72C932.657 202.432 932.724 202.509 930.825 206.424C926.998 214.246 917.304 217.479 909.384 213.54C901.825 209.787 898.475 200.07 902.164 192.65C906.215 184.536 915.746 181.259 923.666 185.198C924.933 185.831 925.048 186.389 924.083 187.361C923.566 187.867 923.117 188.45 922.742 189.082C921.832 190.508 920.773 191.396 919.3 190.327L919.272 190.32Z" fill="#F9F9F9"/>
<path d="M931.355 78.5629C936.646 87.7152 941.736 96.5209 946.987 105.604C945.154 105.113 943.457 104.658 941.733 104.196C936.944 102.913 932.155 101.63 927.394 100.354C926.627 100.148 925.554 100.213 925.935 98.7911C927.742 92.1559 929.502 85.4788 931.348 78.5902L931.355 78.5629Z" fill="#E7C4AB"/>
<path d="M971.392 177.624C971.141 178.231 970.568 178.4 970.015 178.603C958.354 183.154 946.727 187.686 935.066 192.237C934.381 192.493 933.777 192.888 933.369 191.783C932.929 190.581 933.863 190.597 934.451 190.373C946.085 185.814 957.718 181.256 969.38 176.704C969.967 176.481 970.599 176.093 971.223 176.612C971.535 176.871 971.521 177.249 971.399 177.597L971.392 177.624Z" fill="#E0B606"/>
<path d="M918.296 194.512C917.649 195.393 917.095 196.036 916.637 196.762C915.65 198.256 916.136 199.617 917.825 200.099C918.181 200.194 918.566 200.18 918.887 200.295C919.713 200.605 921.103 200.127 921.269 201.256C921.436 202.385 920.379 203.156 919.448 203.785C917.412 205.144 914.832 204.922 912.983 203.284C911.256 201.737 910.729 199.106 911.739 197.091C912.925 194.742 915.023 193.81 918.268 194.504L918.296 194.512Z" fill="#6610F2"/>
<path d="M922.159 196.514C924.117 194.021 925.851 191.819 927.824 189.271C928.906 192.022 929.869 194.448 930.832 196.874C931.214 197.856 930.583 197.804 929.966 197.697C927.457 197.318 924.983 196.919 922.166 196.486L922.159 196.514Z" fill="#30A5EE"/>
<path d="M889.805 237.68C888.546 237.343 888.64 236.665 889.037 235.951C890.916 232.441 892.795 228.93 894.701 225.427C894.985 224.917 895.387 224.293 895.994 224.983C896.581 225.638 898.336 225.874 897.574 227.076C895.352 230.553 892.885 233.847 890.514 237.226C890.281 237.544 890.024 237.739 889.832 237.688L889.805 237.68Z" fill="#E0B606"/>
<path d="M921.526 231.824C922.438 231.922 922.262 232.578 922.262 233.017C922.176 236.949 922.063 240.874 921.923 244.792C921.913 245.375 921.861 246.006 921.009 246.012C920.246 246.013 920.075 245.557 920.025 244.869C919.703 241.033 919.327 237.182 919.006 233.346C918.811 231.009 920.888 232.561 921.553 231.831L921.526 231.824Z" fill="#B79508"/>
<path d="M962.702 174.915C962.549 171.329 964.247 169.587 967.325 168.829C968.712 168.468 970.001 167.818 971.447 167.238C971.376 170.237 970.544 172.358 967.419 173.073C965.826 173.437 964.342 174.27 962.73 174.922L962.702 174.915Z" fill="#0184E6"/>
<path d="M966.411 184.61C969.138 183.407 971.342 182.298 973.636 181.507C975.571 180.853 976.577 182.793 978.543 183.554C975.679 184.72 973.351 185.855 970.9 186.575C969.208 187.088 968.213 185.327 966.411 184.61Z" fill="#0184E6"/>
<path d="M939.737 195.276C938.997 198.037 938.414 200.869 936.384 203.079C936.634 201.711 936.883 200.342 936.604 198.978C936.057 196.312 937.601 195.583 939.737 195.276Z" fill="#6610F2"/>
<path d="M924.123 169.588C923.286 171.619 921.576 171.103 920.005 170.945C907.28 169.616 896.401 175.519 890.571 186.878C889.03 189.893 888.302 193.155 887.821 196.483C887.641 197.812 887.129 198.847 885.715 199.2C884.078 198.849 883.517 197.879 883.675 196.193C883.884 193.992 884.229 191.829 884.977 189.803C885.539 188.254 885.03 187.854 883.627 187.507C880.095 186.678 876.594 185.623 873.056 184.704C871.36 184.25 870.131 183.364 870.691 181.492C871.214 179.757 872.68 179.652 874.287 180.112C878.22 181.195 882.168 182.224 886.109 183.28C886.766 183.456 887.371 183.823 887.923 182.858C889.53 180.036 891.565 177.476 894.306 175.017C889.846 173.822 885.741 172.722 881.636 171.622C880.022 171.189 878.414 170.729 876.792 170.324C875.143 169.911 874.053 168.945 874.542 167.23C875.003 165.508 876.49 165.321 878.105 165.754C884.29 167.411 890.516 169.021 896.672 170.787C898.423 171.256 899.772 171.149 901.367 170.229C906.14 167.523 911.42 166.535 916.858 166.381C918.484 166.553 920.117 166.698 921.763 166.904C923.361 167.069 924.247 167.922 924.185 169.575L924.123 169.588Z" fill="#060505"/>
<path d="M930.654 114.236C931.646 114.912 932.458 115.715 932.017 117.033C931.62 118.186 930.658 118.602 929.477 118.52C913.66 114.282 897.83 109.982 882.013 105.744C881.383 105.575 880.746 105.434 880.124 105.238C879.004 104.82 878.551 103.996 878.831 102.84C879.084 101.677 879.829 101.086 881.03 101.203C881.743 101.277 882.447 101.495 883.159 101.685C898.21 105.718 913.261 109.751 928.312 113.784C929.078 113.989 929.866 114.113 930.64 114.291L930.654 114.236Z" fill="#070707"/>
<path d="M918.576 159.312C919.674 159.811 920.272 160.645 920.039 161.843C919.762 163.204 918.631 163.487 917.454 163.611C908.595 161.208 899.743 158.777 890.904 156.409C883.871 154.525 876.838 152.64 869.805 150.756C869.093 150.565 868.382 150.374 867.769 150.034C866.788 149.537 866.555 148.654 866.861 147.623C867.174 146.564 867.904 146.027 868.981 146.169C869.694 146.243 870.391 146.489 871.103 146.679C886.92 150.918 902.779 155.108 918.596 159.347L918.576 159.312Z" fill="#070707"/>
<path d="M924.604 136.815C925.723 137.349 926.375 138.198 926.018 139.42C925.688 140.65 924.672 141.052 923.484 140.997C918.073 139.518 912.669 138.012 907.251 136.56C896.551 133.693 885.823 130.818 875.124 127.951C873.673 127.563 872.362 127.094 872.867 125.208C873.372 123.322 874.75 123.544 876.2 123.933C891.498 128.032 906.767 132.123 922.065 136.222C922.913 136.45 923.776 136.622 924.604 136.815Z" fill="#010101"/>
<path d="M864.575 122.986C863.242 127.961 861.75 128.821 856.66 127.457C851.735 126.138 850.935 124.634 852.319 119.468C853.616 114.629 855.133 113.893 860.633 115.367C865.066 116.555 865.879 118.12 864.575 122.986ZM859.055 119.397C857.535 118.609 856.767 118.96 856.345 120.752C856.019 122.188 855.944 123.017 857.712 123.315C859.055 123.558 860.145 124.084 860.55 122.025C860.851 120.465 860.978 119.444 859.027 119.39L859.055 119.397Z" fill="#060505"/>
<path d="M858.532 145.538C857.221 150.431 855.737 151.264 850.811 149.944C845.749 148.587 844.927 147.166 846.282 142.109C847.593 137.216 849.174 136.35 854.264 137.714C859.08 139.005 859.88 140.508 858.532 145.538ZM854.455 144.445C855.285 142.88 854.775 142.158 853.056 141.785C851.591 141.451 850.755 141.286 850.339 143.167C849.962 144.794 849.983 145.591 851.859 146.035C853.488 146.413 854.377 146.27 854.455 144.445Z" fill="#060505"/>
<path d="M863.689 101.009C867.037 97.1603 870.23 93.5626 873.383 89.8956C874.49 88.6101 875.649 88.3347 876.878 89.6601C877.722 90.5601 877.466 91.5168 876.709 92.3689C872.599 96.9807 868.544 101.607 864.414 106.184C863.119 107.624 861.542 107.378 860.823 105.574C859.913 103.279 859.134 100.932 858.417 98.5715C858.053 97.3021 858.47 96.1833 859.878 95.8572C861.195 95.5365 862.147 96.1431 862.559 97.4545C862.912 98.5453 863.257 99.6633 863.661 101.002L863.689 101.009Z" fill="#070707"/>
<path d="M859.055 119.397C861.005 119.451 860.871 120.499 860.578 122.032C860.173 124.092 859.082 123.565 857.739 123.322C855.971 123.024 856.047 122.195 856.373 120.759C856.76 118.988 857.535 118.609 859.082 119.405L859.055 119.397Z" fill="#0184E6"/>
<path d="M854.455 144.445C854.377 146.27 853.515 146.42 851.859 146.035C849.983 145.591 849.962 144.794 850.339 143.167C850.755 141.286 851.591 141.451 853.056 141.785C854.775 142.158 855.285 142.88 854.455 144.445Z" fill="#0184E6"/>
</g>
<defs>
<clipPath id="clip0_2068_269">
<rect width="223.757" height="217.71" fill="white" transform="translate(825.347) rotate(15)"/>
</clipPath>
</defs>
</svg>
