<svg width="854" height="206" viewBox="0 0 854 206" fill="none" xmlns="http://www.w3.org/2000/svg">
<g clip-path="url(#clip0_12_1598)">
<path d="M811.357 133.964C782.606 109.796 750.922 91.0932 715.908 77.5146C698.828 70.8819 691.427 98.4092 708.336 104.957C738.482 116.656 766.494 133.281 791.231 154.09C805.18 165.79 825.419 145.778 811.357 133.964ZM818.758 87.7342C804.731 72.7761 789.977 58.5161 774.55 45.0057C760.829 32.9928 740.617 53.0333 754.424 65.1316C769.853 78.6533 784.598 92.8866 798.632 107.86C811.186 121.239 831.284 101.085 818.758 87.7342ZM138.433 60.4916C109.17 98.4376 74.5827 132.341 36.1527 160.95C21.6347 171.768 35.8111 196.477 50.5283 185.517C93.1714 153.777 130.577 116.941 163.029 74.8388C174.216 60.3492 149.478 46.1444 138.462 60.4631L138.433 60.4916ZM65.9288 47.8524C56.791 61.8295 49.5889 76.7745 43.8956 92.4312C41.2767 99.6617 46.8561 108.031 53.8305 109.938C61.7442 112.102 68.6901 107.234 71.3375 100.003C76.2053 86.624 82.7241 74.1271 90.4955 62.228C100.544 46.856 75.9206 32.5658 65.9288 47.8524ZM149.82 816.054C127.616 775.802 97.2137 741.784 60.3209 714.456C45.5751 703.554 31.3703 728.234 45.9452 739.023C78.8242 763.39 105.497 794.618 125.225 830.401C134.078 846.456 158.673 832.109 149.792 816.025L149.82 816.054ZM92.5451 811.499C84.1759 795.359 72.5331 781.04 58.2997 769.739C52.2933 764.956 44.0379 763.874 38.1738 769.739C33.2206 774.692 32.1104 785.054 38.1738 789.864C50.7276 799.828 60.6055 811.613 67.9784 825.875C76.433 842.129 101 827.754 92.5451 811.499ZM785.395 737.315C760.202 752.886 737.087 771.39 716.534 792.711C703.81 805.891 723.907 826.046 736.66 812.837C755.619 793.195 776.542 776.229 799.771 761.882C815.342 752.26 801.052 727.636 785.395 737.315ZM815.655 776.4C808.567 772.642 800.511 774.834 796.184 781.495L782.691 802.247C778.62 808.51 781.211 818.246 787.787 821.719C794.875 825.476 802.931 823.284 807.258 816.623L820.751 795.871C824.822 789.608 822.231 779.873 815.655 776.4Z" fill="#6610F2"/>
</g>
<defs>
<clipPath id="clip0_12_1598">
<rect width="854" height="206" fill="white"/>
</clipPath>
</defs>
</svg>
