<svg width="166" height="166" viewBox="0 0 166 166" fill="none" xmlns="http://www.w3.org/2000/svg">
<path d="M155.738 86.7158C155.603 83.6835 153.481 81.9239 150.62 81.5974C126.302 78.8275 101.908 76.7756 77.4694 75.4444L80.2748 75.378C85.7418 75.2452 91.1893 74.8993 96.5788 73.9089C96.6424 73.8978 96.7033 73.8784 96.7642 73.8618C104.115 73.8037 111.466 73.8757 118.812 74.0527C128.647 74.2879 138.477 74.7084 148.302 75.2341C150.98 75.378 153.539 72.7773 153.42 70.1158C153.287 67.1222 151.165 65.2741 148.302 64.9974C115.99 61.8849 83.4593 61.1379 51.0395 62.8007C46.5934 63.0276 42.1502 63.3042 37.7097 63.6224C36.4813 61.9652 34.3952 61.0743 32.251 61.6664C26.3525 63.2932 20.4429 64.8923 14.5278 66.461C12.0599 67.1167 10.5299 69.6067 10.8619 72.0773C10.9256 72.5504 11.0694 73.0235 11.2742 73.4745C10.6129 74.3792 10.2145 75.4776 10.2616 76.5178C10.3667 78.8861 11.8026 80.6761 14.0187 81.4536C21.497 84.0791 29.5923 84.0432 37.4634 84.1677C37.2255 84.5744 37.0401 84.9977 36.9267 85.4099C36.4149 87.2636 37.0208 88.9872 38.2436 90.3899C41.4862 94.1055 47.0029 94.1775 51.5209 94.6838C56.0444 95.1928 60.5845 95.558 65.1246 95.8873C67.3019 96.045 69.4821 96.1944 71.6622 96.3465C71.6982 97.1212 71.9029 97.882 72.3096 98.5571C74.0747 101.495 77.0268 103.794 80.4408 104.422C82.7787 104.851 85.4264 103.944 86.4362 101.722C93.6904 102.007 100.956 101.88 108.202 101.34C110.763 101.149 112.874 99.5393 113.229 96.9026C113.561 94.4348 112.042 91.9392 109.563 91.2863C105.451 90.2045 101.299 89.3745 97.1238 88.7133C107.02 88.9208 116.908 89.4354 126.785 90.0856C134.737 90.6112 142.68 91.2227 150.626 91.8396C153.301 92.0471 155.86 89.3386 155.744 86.7213L155.738 86.7158Z" fill="#6610F2"/>
</svg>
