<svg width="146" height="44" viewBox="0 0 146 44" fill="none" xmlns="http://www.w3.org/2000/svg">
<path d="M145.738 25.7158C145.603 22.6835 143.481 20.9239 140.62 20.5974C116.302 17.8275 91.9082 15.7756 67.4694 14.4444L70.2748 14.378C75.7418 14.2452 81.1893 13.8993 86.5788 12.9089C86.6424 12.8978 86.7033 12.8784 86.7642 12.8618C94.1152 12.8037 101.466 12.8757 108.812 13.0527C118.647 13.2879 128.477 13.7084 138.302 14.2341C140.98 14.378 143.539 11.7773 143.42 9.11575C143.287 6.12222 141.165 4.27409 138.302 3.99742C105.99 0.884921 73.4593 0.137925 41.0395 1.80069C36.5934 2.02756 32.1502 2.30423 27.7097 2.62239C26.4813 0.965159 24.3952 0.0742897 22.251 0.666356C16.3525 2.29316 10.4429 3.89229 4.52776 5.46099C2.0599 6.11669 0.529931 8.60669 0.861931 11.0773C0.925564 11.5504 1.06943 12.0235 1.27416 12.4745C0.612931 13.3792 0.214531 14.4776 0.261565 15.5178C0.366698 17.8861 1.8026 19.6761 4.0187 20.4536C11.497 23.0791 19.5923 23.0432 27.4634 23.1677C27.2255 23.5744 27.0401 23.9977 26.9267 24.4099C26.4149 26.2636 27.0208 27.9872 28.2436 29.3899C31.4862 33.1055 37.0029 33.1775 41.5209 33.6838C46.0444 34.1928 50.5845 34.558 55.1246 34.8873C57.3019 35.045 59.4821 35.1944 61.6622 35.3465C61.6982 36.1212 61.9029 36.882 62.3096 37.5571C64.0747 40.4953 67.0268 42.7944 70.4408 43.4224C72.7787 43.8513 75.4264 42.9438 76.4362 40.7222C83.6904 41.0071 90.9557 40.8799 98.2016 40.3404C100.763 40.1495 102.874 38.5393 103.229 35.9026C103.561 33.4348 102.042 30.9392 99.5628 30.2863C95.4515 29.2045 91.2987 28.3745 87.1238 27.7133C97.0202 27.9208 106.908 28.4354 116.785 29.0856C124.737 29.6112 132.68 30.2227 140.626 30.8396C143.301 31.0471 145.86 28.3386 145.744 25.7213L145.738 25.7158Z" fill="#6610F2"/>
</svg>
