<svg width="571" height="263" viewBox="0 0 571 263" fill="none" xmlns="http://www.w3.org/2000/svg">
<path d="M54.8066 90H7.57463V25.68H54.8066V37.872H21.3026V51.408H49.3346V63.6H21.3026V77.808H54.8066V90ZM78.7624 37.392H65.0344V25.68H78.7624V37.392ZM62.5384 108.816C54.6664 108.816 49.9624 105.36 47.3704 102.576L54.3784 93.072C55.8184 95.376 57.9304 96.912 60.6184 96.912C63.4984 96.912 65.0344 95.472 65.0344 91.632V42.96H78.7624V91.536C78.7624 100.944 73.1944 108.816 62.5384 108.816ZM110.456 90.96C95.4799 90.96 86.3599 80.976 86.3599 66.48C86.3599 51.984 95.4799 42 109.304 42C124.28 42 131.768 51.984 131.768 64.272C131.768 66.288 131.576 68.976 131.288 70.032H99.2239C100.088 76.656 104.504 79.824 110.648 79.824C117.272 79.824 120.824 76.944 122.552 72.912L130.904 81.264C127.352 86.352 121.016 90.96 110.456 90.96ZM109.4 52.56C103.544 52.56 99.8959 55.824 99.2239 62.16H119.384C118.904 55.92 115.544 52.56 109.4 52.56ZM153.387 90H139.659V42.96H153.387V57.744C154.923 49.872 159.531 42 168.555 42C175.467 42 179.307 46.416 179.307 53.808C179.307 58.896 177.771 62.928 176.619 64.752H163.371C165.099 63.024 166.731 59.664 166.731 56.976C166.731 54.288 165.483 52.272 162.507 52.272C157.803 52.272 153.387 57.36 153.387 65.136V90ZM205.692 90.96C191.196 90.96 182.076 80.88 182.076 66.48C182.076 52.176 191.196 42 205.692 42C216.924 42 224.7 48.144 227.58 56.208L216.156 62.832C215.004 56.976 211.932 53.424 206.172 53.424C200.124 53.424 196.092 57.84 196.092 66.48C196.092 75.12 200.124 79.536 206.172 79.536C212.028 79.536 215.004 75.984 216.156 70.128L227.58 76.752C224.7 84.816 216.924 90.96 205.692 90.96ZM247.7 37.392H233.972V25.68H247.7V37.392ZM247.7 90H233.972V42.96H247.7V90ZM278.817 90.96C264.321 90.96 255.201 80.88 255.201 66.48C255.201 52.176 264.321 42 278.817 42C290.049 42 297.825 48.144 300.705 56.208L289.281 62.832C288.129 56.976 285.057 53.424 279.297 53.424C273.249 53.424 269.217 57.84 269.217 66.48C269.217 75.12 273.249 79.536 279.297 79.536C285.153 79.536 288.129 75.984 289.281 70.128L300.705 76.752C297.825 84.816 290.049 90.96 278.817 90.96ZM320.825 37.392H307.097V25.68H320.825V37.392ZM320.825 90H307.097V42.96H320.825V90ZM351.654 90.96C337.35 90.96 328.134 80.88 328.134 66.48C328.134 52.176 337.35 42 351.654 42C366.342 42 375.654 52.176 375.654 66.48C375.654 80.88 366.342 90.96 351.654 90.96ZM351.846 79.824C357.702 79.824 361.734 76.08 361.734 66.48C361.734 56.784 357.702 53.136 351.846 53.136C346.086 53.136 342.054 56.784 342.054 66.48C342.054 76.08 346.086 79.824 351.846 79.824ZM403.212 90.96C392.748 90.96 383.436 87.12 379.404 81.456L385.74 72.144C389.676 76.368 396.492 80.496 403.596 80.496C407.34 80.496 409.548 79.344 409.548 76.848C409.548 74.352 406.86 73.392 401.868 72.144L395.532 70.608C387.084 68.4 380.94 65.04 380.94 56.784C380.94 47.568 388.428 42.096 399.948 42.096C410.124 42.096 417.516 46.512 420.78 50.64L414.636 59.856C410.028 55.056 404.268 52.464 398.796 52.464C395.436 52.464 393.42 53.712 393.42 56.016C393.42 58.512 395.436 59.472 401.676 61.2L406.956 62.64C417.324 65.424 421.836 69.456 421.836 76.656C421.836 85.776 414.156 90.96 403.212 90.96ZM456.757 93.84H443.989L468.949 21.84H481.717L456.757 93.84ZM508.962 90.96C498.498 90.96 489.186 87.12 485.154 81.456L491.49 72.144C495.426 76.368 502.242 80.496 509.346 80.496C513.09 80.496 515.298 79.344 515.298 76.848C515.298 74.352 512.61 73.392 507.618 72.144L501.282 70.608C492.834 68.4 486.69 65.04 486.69 56.784C486.69 47.568 494.178 42.096 505.698 42.096C515.874 42.096 523.266 46.512 526.53 50.64L520.386 59.856C515.778 55.056 510.018 52.464 504.546 52.464C501.186 52.464 499.17 53.712 499.17 56.016C499.17 58.512 501.186 59.472 507.426 61.2L512.706 62.64C523.074 65.424 527.586 69.456 527.586 76.656C527.586 85.776 519.906 90.96 508.962 90.96ZM544.132 93.84H531.364L556.324 21.84H569.092L544.132 93.84Z" fill="#0C0C0D"/>
<path d="M52.8066 88H5.57463V23.68H52.8066V35.872H19.3026V49.408H47.3346V61.6H19.3026V75.808H52.8066V88ZM76.7624 35.392H63.0344V23.68H76.7624V35.392ZM60.5384 106.816C52.6664 106.816 47.9624 103.36 45.3704 100.576L52.3784 91.072C53.8184 93.376 55.9304 94.912 58.6184 94.912C61.4984 94.912 63.0344 93.472 63.0344 89.632V40.96H76.7624V89.536C76.7624 98.944 71.1944 106.816 60.5384 106.816ZM108.456 88.96C93.4799 88.96 84.3599 78.976 84.3599 64.48C84.3599 49.984 93.4799 40 107.304 40C122.28 40 129.768 49.984 129.768 62.272C129.768 64.288 129.576 66.976 129.288 68.032H97.2239C98.0879 74.656 102.504 77.824 108.648 77.824C115.272 77.824 118.824 74.944 120.552 70.912L128.904 79.264C125.352 84.352 119.016 88.96 108.456 88.96ZM107.4 50.56C101.544 50.56 97.8959 53.824 97.2239 60.16H117.384C116.904 53.92 113.544 50.56 107.4 50.56ZM151.387 88H137.659V40.96H151.387V55.744C152.923 47.872 157.531 40 166.555 40C173.467 40 177.307 44.416 177.307 51.808C177.307 56.896 175.771 60.928 174.619 62.752H161.371C163.099 61.024 164.731 57.664 164.731 54.976C164.731 52.288 163.483 50.272 160.507 50.272C155.803 50.272 151.387 55.36 151.387 63.136V88ZM203.692 88.96C189.196 88.96 180.076 78.88 180.076 64.48C180.076 50.176 189.196 40 203.692 40C214.924 40 222.7 46.144 225.58 54.208L214.156 60.832C213.004 54.976 209.932 51.424 204.172 51.424C198.124 51.424 194.092 55.84 194.092 64.48C194.092 73.12 198.124 77.536 204.172 77.536C210.028 77.536 213.004 73.984 214.156 68.128L225.58 74.752C222.7 82.816 214.924 88.96 203.692 88.96ZM245.7 35.392H231.972V23.68H245.7V35.392ZM245.7 88H231.972V40.96H245.7V88ZM276.817 88.96C262.321 88.96 253.201 78.88 253.201 64.48C253.201 50.176 262.321 40 276.817 40C288.049 40 295.825 46.144 298.705 54.208L287.281 60.832C286.129 54.976 283.057 51.424 277.297 51.424C271.249 51.424 267.217 55.84 267.217 64.48C267.217 73.12 271.249 77.536 277.297 77.536C283.153 77.536 286.129 73.984 287.281 68.128L298.705 74.752C295.825 82.816 288.049 88.96 276.817 88.96ZM318.825 35.392H305.097V23.68H318.825V35.392ZM318.825 88H305.097V40.96H318.825V88ZM349.654 88.96C335.35 88.96 326.134 78.88 326.134 64.48C326.134 50.176 335.35 40 349.654 40C364.342 40 373.654 50.176 373.654 64.48C373.654 78.88 364.342 88.96 349.654 88.96ZM349.846 77.824C355.702 77.824 359.734 74.08 359.734 64.48C359.734 54.784 355.702 51.136 349.846 51.136C344.086 51.136 340.054 54.784 340.054 64.48C340.054 74.08 344.086 77.824 349.846 77.824ZM401.212 88.96C390.748 88.96 381.436 85.12 377.404 79.456L383.74 70.144C387.676 74.368 394.492 78.496 401.596 78.496C405.34 78.496 407.548 77.344 407.548 74.848C407.548 72.352 404.86 71.392 399.868 70.144L393.532 68.608C385.084 66.4 378.94 63.04 378.94 54.784C378.94 45.568 386.428 40.096 397.948 40.096C408.124 40.096 415.516 44.512 418.78 48.64L412.636 57.856C408.028 53.056 402.268 50.464 396.796 50.464C393.436 50.464 391.42 51.712 391.42 54.016C391.42 56.512 393.436 57.472 399.676 59.2L404.956 60.64C415.324 63.424 419.836 67.456 419.836 74.656C419.836 83.776 412.156 88.96 401.212 88.96ZM454.757 91.84H441.989L466.949 19.84H479.717L454.757 91.84ZM506.962 88.96C496.498 88.96 487.186 85.12 483.154 79.456L489.49 70.144C493.426 74.368 500.242 78.496 507.346 78.496C511.09 78.496 513.298 77.344 513.298 74.848C513.298 72.352 510.61 71.392 505.618 70.144L499.282 68.608C490.834 66.4 484.69 63.04 484.69 54.784C484.69 45.568 492.178 40.096 503.698 40.096C513.874 40.096 521.266 44.512 524.53 48.64L518.386 57.856C513.778 53.056 508.018 50.464 502.546 50.464C499.186 50.464 497.17 51.712 497.17 54.016C497.17 56.512 499.186 57.472 505.426 59.2L510.706 60.64C521.074 63.424 525.586 67.456 525.586 74.656C525.586 83.776 517.906 88.96 506.962 88.96ZM542.132 91.84H529.364L554.324 19.84H567.092L542.132 91.84Z" fill="#6610F2"/>
<g clip-path="url(#clip0_2020_2)">
<path d="M379.895 163.745C379.722 159.873 377.012 157.626 373.358 157.209C342.302 153.671 311.148 151.051 279.937 149.35L283.52 149.266C290.502 149.096 297.459 148.654 304.342 147.389C304.423 147.375 304.501 147.351 304.578 147.329C313.966 147.255 323.354 147.347 332.735 147.573C345.296 147.874 357.85 148.411 370.397 149.082C373.818 149.266 377.086 145.944 376.934 142.545C376.764 138.722 374.054 136.362 370.397 136.009C329.131 132.034 287.587 131.08 246.183 133.203C240.505 133.493 234.83 133.846 229.159 134.253C227.591 132.136 224.926 130.998 222.188 131.754C214.655 133.832 207.108 135.874 199.554 137.878C196.402 138.715 194.448 141.895 194.872 145.05C194.953 145.655 195.137 146.259 195.398 146.835C194.554 147.99 194.045 149.393 194.105 150.721C194.239 153.746 196.073 156.032 198.903 157.025C208.454 160.378 218.793 160.332 228.845 160.491C228.541 161.01 228.304 161.551 228.159 162.078C227.506 164.445 228.28 166.646 229.841 168.438C233.982 173.183 241.028 173.275 246.798 173.921C252.575 174.571 258.373 175.038 264.171 175.458C266.952 175.66 269.736 175.85 272.52 176.045C272.566 177.034 272.828 178.006 273.347 178.868C275.601 182.62 279.372 185.557 283.732 186.359C286.717 186.906 290.099 185.747 291.388 182.91C300.653 183.274 309.931 183.111 319.185 182.422C322.457 182.179 325.153 180.122 325.605 176.755C326.029 173.603 324.089 170.416 320.924 169.582C315.673 168.201 310.369 167.141 305.038 166.296C317.676 166.561 330.305 167.219 342.919 168.049C353.073 168.72 363.218 169.501 373.365 170.289C376.782 170.554 380.05 167.095 379.902 163.752L379.895 163.745Z" fill="#0C0C0D"/>
<path d="M376.895 161.745C376.722 157.873 374.012 155.626 370.358 155.209C339.302 151.671 308.148 149.051 276.937 147.35L280.52 147.266C287.502 147.096 294.459 146.654 301.342 145.389C301.423 145.375 301.501 145.351 301.578 145.329C310.966 145.255 320.354 145.347 329.735 145.573C342.296 145.874 354.85 146.411 367.397 147.082C370.818 147.266 374.086 143.944 373.934 140.545C373.764 136.722 371.054 134.362 367.397 134.009C326.131 130.034 284.587 129.08 243.183 131.203C237.505 131.493 231.83 131.846 226.159 132.253C224.591 130.136 221.926 128.998 219.188 129.754C211.655 131.832 204.108 133.874 196.554 135.878C193.402 136.715 191.448 139.895 191.872 143.05C191.953 143.655 192.137 144.259 192.398 144.835C191.554 145.99 191.045 147.393 191.105 148.721C191.239 151.746 193.073 154.032 195.903 155.025C205.454 158.378 215.793 158.332 225.845 158.491C225.541 159.01 225.304 159.551 225.159 160.078C224.506 162.445 225.28 164.646 226.841 166.438C230.982 171.183 238.028 171.275 243.798 171.921C249.575 172.571 255.373 173.038 261.171 173.458C263.952 173.66 266.736 173.85 269.52 174.045C269.566 175.034 269.828 176.006 270.347 176.868C272.601 180.62 276.372 183.557 280.732 184.359C283.717 184.906 287.099 183.747 288.388 180.91C297.653 181.274 306.931 181.111 316.185 180.422C319.457 180.179 322.153 178.122 322.605 174.755C323.029 171.603 321.089 168.416 317.924 167.582C312.673 166.201 307.369 165.141 302.038 164.296C314.676 164.561 327.305 165.219 339.919 166.049C350.073 166.72 360.218 167.501 370.365 168.289C373.782 168.554 377.05 165.095 376.902 161.752L376.895 161.745Z" fill="#6610F2"/>
</g>
<defs>
<clipPath id="clip0_2020_2">
<rect width="212" height="212" fill="white" transform="translate(178 51)"/>
</clipPath>
</defs>
</svg>
