<svg width="206" height="93" viewBox="0 0 206 93" fill="none" xmlns="http://www.w3.org/2000/svg">
<path d="M19.7951 32.4419H2.79688V9.25674H19.7951V13.6515H7.73744V18.5308H17.8258V22.9256H7.73744V28.0471H19.7951V32.4419ZM28.4165 13.4785H23.476V9.25674H28.4165V13.4785ZM22.5777 39.2244C19.7446 39.2244 18.0517 37.9786 17.1189 36.9751L19.641 33.5492C20.1592 34.3797 20.9193 34.9334 21.8867 34.9334C22.9232 34.9334 23.476 34.4143 23.476 33.0301V15.4856H28.4165V32.9955C28.4165 36.3868 26.4127 39.2244 22.5777 39.2244ZM39.8226 32.7879C34.4329 32.7879 31.1507 29.189 31.1507 23.9637C31.1507 18.7384 34.4329 15.1395 39.408 15.1395C44.7979 15.1395 47.4927 18.7384 47.4927 23.1678C47.4927 23.8945 47.4236 24.8634 47.32 25.2441H35.7803C36.0913 27.6318 37.6806 28.7738 39.8917 28.7738C42.2756 28.7738 43.5541 27.7356 44.176 26.2822L47.1818 29.2928C45.9035 31.1269 43.6232 32.7879 39.8226 32.7879ZM39.4426 18.946C37.3351 18.946 36.0222 20.1226 35.7803 22.4065H43.0357C42.8629 20.1572 41.6537 18.946 39.4426 18.946ZM55.2732 32.4419H50.3327V15.4856H55.2732V20.8147C55.826 17.9771 57.4844 15.1395 60.732 15.1395C63.2195 15.1395 64.6015 16.7313 64.6015 19.3959C64.6015 21.23 64.0487 22.6833 63.6341 23.3408H58.8663C59.4882 22.718 60.0756 21.5068 60.0756 20.5379C60.0756 19.5689 59.6264 18.8422 58.5554 18.8422C56.8625 18.8422 55.2732 20.6763 55.2732 23.4793V32.4419ZM74.0969 32.7879C68.88 32.7879 65.5978 29.1544 65.5978 23.9637C65.5978 18.8076 68.88 15.1395 74.0969 15.1395C78.1392 15.1395 80.9377 17.3542 81.9742 20.261L77.8628 22.6487C77.4482 20.5379 76.3426 19.2575 74.2697 19.2575C72.0931 19.2575 70.642 20.8493 70.642 23.9637C70.642 27.0781 72.0931 28.67 74.2697 28.67C76.3772 28.67 77.4482 27.3896 77.8628 25.2787L81.9742 27.6664C80.9377 30.5732 78.1392 32.7879 74.0969 32.7879ZM89.2153 13.4785H84.2747V9.25674H89.2153V13.4785ZM89.2153 32.4419H84.2747V15.4856H89.2153V32.4419ZM100.414 32.7879C95.197 32.7879 91.9149 29.1544 91.9149 23.9637C91.9149 18.8076 95.197 15.1395 100.414 15.1395C104.456 15.1395 107.255 17.3542 108.291 20.261L104.18 22.6487C103.765 20.5379 102.66 19.2575 100.587 19.2575C98.4101 19.2575 96.9591 20.8493 96.9591 23.9637C96.9591 27.0781 98.4101 28.67 100.587 28.67C102.694 28.67 103.765 27.3896 104.18 25.2787L108.291 27.6664C107.255 30.5732 104.456 32.7879 100.414 32.7879ZM115.532 13.4785H110.591V9.25674H115.532V13.4785ZM115.532 32.4419H110.591V15.4856H115.532V32.4419ZM126.627 32.7879C121.479 32.7879 118.162 29.1544 118.162 23.9637C118.162 18.8076 121.479 15.1395 126.627 15.1395C131.913 15.1395 135.264 18.8076 135.264 23.9637C135.264 29.1544 131.913 32.7879 126.627 32.7879ZM126.696 28.7738C128.804 28.7738 130.255 27.4242 130.255 23.9637C130.255 20.4687 128.804 19.1537 126.696 19.1537C124.623 19.1537 123.172 20.4687 123.172 23.9637C123.172 27.4242 124.623 28.7738 126.696 28.7738ZM145.182 32.7879C141.416 32.7879 138.065 31.4037 136.614 29.362L138.894 26.0054C140.311 27.528 142.764 29.016 145.32 29.016C146.668 29.016 147.462 28.6007 147.462 27.701C147.462 26.8013 146.495 26.4553 144.698 26.0054L142.418 25.4517C139.378 24.6558 137.167 23.4447 137.167 20.4687C137.167 17.1466 139.861 15.1741 144.007 15.1741C147.67 15.1741 150.33 16.766 151.505 18.254L149.293 21.576C147.635 19.8458 145.562 18.9114 143.593 18.9114C142.384 18.9114 141.658 19.3613 141.658 20.1918C141.658 21.0915 142.384 21.4376 144.629 22.0605L146.529 22.5795C150.261 23.5831 151.885 25.0365 151.885 27.6318C151.885 30.9193 149.121 32.7879 145.182 32.7879ZM164.452 33.826H159.857L168.84 7.87256H173.435L164.452 33.826ZM190.357 32.4419H174.879V28.8084L180.753 22.3719L184.38 19.2575L179.371 19.4997H175.363V15.4856H190.012V19.1191L184.035 25.2441L180.2 28.6353L185.417 28.4277H190.357V32.4419ZM196.403 33.826H191.808L200.791 7.87256H205.386L196.403 33.826Z" fill="#0C0C0D"/>
<path d="M18.9314 31.5767H1.93317V8.39162H18.9314V12.7864H6.87373V17.6657H16.9621V22.0605H6.87373V27.182H18.9314V31.5767ZM27.5528 12.6134H22.6123V8.39162H27.5528V12.6134ZM21.714 38.3593C18.8809 38.3593 17.188 37.1135 16.2552 36.11L18.7773 32.6841C19.2955 33.5146 20.0556 34.0683 21.023 34.0683C22.0595 34.0683 22.6123 33.5492 22.6123 32.165V14.6205H27.5528V32.1304C27.5528 35.5217 25.5489 38.3593 21.714 38.3593ZM38.9589 31.9228C33.5692 31.9228 30.287 28.3239 30.287 23.0986C30.287 17.8733 33.5692 14.2744 38.5443 14.2744C43.9342 14.2744 46.629 17.8733 46.629 22.3027C46.629 23.0294 46.5599 23.9983 46.4563 24.379H34.9166C35.2276 26.7667 36.8168 27.9086 39.028 27.9086C41.4119 27.9086 42.6902 26.8705 43.3123 25.4171L46.3181 28.4277C45.0397 30.2618 42.7593 31.9228 38.9589 31.9228ZM38.5789 18.0809C36.4714 18.0809 35.1585 19.2575 34.9166 21.5414H42.172C41.9992 19.2921 40.79 18.0809 38.5789 18.0809ZM54.4095 31.5767H49.469V14.6205H54.4095V19.9496C54.9623 17.112 56.6207 14.2744 59.8683 14.2744C62.3558 14.2744 63.7378 15.8662 63.7378 18.5308C63.7378 20.3648 63.185 21.8182 62.7704 22.4757H58.0026C58.6245 21.8528 59.2118 20.6417 59.2118 19.6727C59.2118 18.7038 58.7627 17.9771 57.6917 17.9771C55.9988 17.9771 54.4095 19.8112 54.4095 22.6141V31.5767ZM73.2332 31.9228C68.0163 31.9228 64.7341 28.2893 64.7341 23.0986C64.7341 17.9425 68.0163 14.2744 73.2332 14.2744C77.2755 14.2744 80.074 16.4891 81.1105 19.3959L76.9991 21.7836C76.5845 19.6727 75.4789 18.3924 73.406 18.3924C71.2294 18.3924 69.7783 19.9842 69.7783 23.0986C69.7783 26.213 71.2294 27.8048 73.406 27.8048C75.5135 27.8048 76.5845 26.5245 76.9991 24.4136L81.1105 26.8013C80.074 29.7081 77.2755 31.9228 73.2332 31.9228ZM88.3516 12.6134H83.411V8.39162H88.3516V12.6134ZM88.3516 31.5767H83.411V14.6205H88.3516V31.5767ZM99.5503 31.9228C94.3333 31.9228 91.0512 28.2893 91.0512 23.0986C91.0512 17.9425 94.3333 14.2744 99.5503 14.2744C103.593 14.2744 106.391 16.4891 107.428 19.3959L103.316 21.7836C102.902 19.6727 101.796 18.3924 99.723 18.3924C97.5464 18.3924 96.0953 19.9842 96.0953 23.0986C96.0953 26.213 97.5464 27.8048 99.723 27.8048C101.831 27.8048 102.902 26.5245 103.316 24.4136L107.428 26.8013C106.391 29.7081 103.593 31.9228 99.5503 31.9228ZM114.668 12.6134H109.728V8.39162H114.668V12.6134ZM114.668 31.5767H109.728V14.6205H114.668V31.5767ZM125.763 31.9228C120.615 31.9228 117.299 28.2893 117.299 23.0986C117.299 17.9425 120.615 14.2744 125.763 14.2744C131.049 14.2744 134.401 17.9425 134.401 23.0986C134.401 28.2893 131.049 31.9228 125.763 31.9228ZM125.832 27.9086C127.94 27.9086 129.391 26.5591 129.391 23.0986C129.391 19.6035 127.94 18.2886 125.832 18.2886C123.759 18.2886 122.308 19.6035 122.308 23.0986C122.308 26.5591 123.759 27.9086 125.832 27.9086ZM144.318 31.9228C140.552 31.9228 137.201 30.5386 135.75 28.4969L138.03 25.1403C139.447 26.6629 141.9 28.1509 144.457 28.1509C145.804 28.1509 146.599 27.7356 146.599 26.8359C146.599 25.9362 145.631 25.5901 143.835 25.1403L141.554 24.5866C138.514 23.7907 136.303 22.5795 136.303 19.6035C136.303 16.2815 138.998 14.309 143.144 14.309C146.806 14.309 149.466 15.9008 150.641 17.3888L148.43 20.7109C146.771 18.9806 144.698 18.0463 142.729 18.0463C141.52 18.0463 140.794 18.4962 140.794 19.3267C140.794 20.2264 141.52 20.5725 143.766 21.1953L145.666 21.7144C149.397 22.718 151.021 24.1713 151.021 26.7667C151.021 30.0541 148.257 31.9228 144.318 31.9228ZM163.589 32.9609H158.994L167.976 7.00744H172.571L163.589 32.9609ZM189.494 31.5767H174.016V27.9433L179.889 21.5068L183.517 18.3924L178.507 18.6346H174.499V14.6205H189.148V18.254L183.171 24.379L179.336 27.7702L184.553 27.5626H189.494V31.5767ZM195.54 32.9609H190.945L199.928 7.00744H204.523L195.54 32.9609Z" fill="#6610F2"/>
<mask id="mask0_2176_11" style="mask-type:luminance" maskUnits="userSpaceOnUse" x="67" y="21" width="73" height="72">
<path d="M139.061 21.1953H67.3711V93H139.061V21.1953Z" fill="white"/>
</mask>
<g mask="url(#mask0_2176_11)">
<path d="M135.643 59.3824C135.585 58.0705 134.669 57.3096 133.433 57.1682C122.931 55.97 112.396 55.0824 101.842 54.5066L103.054 54.4781C105.415 54.4206 107.767 54.2709 110.095 53.8427C110.122 53.8379 110.148 53.8293 110.175 53.8223C113.349 53.7973 116.524 53.8284 119.696 53.905C123.944 54.0066 128.189 54.1883 132.432 54.4158C133.589 54.4781 134.694 53.353 134.642 52.202C134.585 50.9069 133.669 50.1075 132.432 49.9877C118.478 48.6416 104.429 48.3185 90.428 49.0378C88.5075 49.1356 86.5887 49.2554 84.6712 49.3929C84.1404 48.6762 83.2396 48.2908 82.3137 48.5469C79.7665 49.2506 77.2142 49.9423 74.6597 50.621C73.5939 50.9047 72.9331 51.9818 73.0765 53.0502C73.1041 53.2548 73.1659 53.4594 73.2544 53.6545C72.9689 54.046 72.7971 54.5209 72.8174 54.9712C72.8627 55.9955 73.4829 56.7698 74.4399 57.1059C77.6694 58.2418 81.1653 58.2262 84.5645 58.2803C84.4622 58.4559 84.3819 58.6393 84.3331 58.8175C84.1119 59.619 84.3737 60.3648 84.9018 60.9717C86.3019 62.5786 88.6845 62.6098 90.6357 62.8291C92.589 63.0492 94.5501 63.2071 96.5108 63.3494C97.451 63.4178 98.3925 63.4822 99.3339 63.548C99.3495 63.8832 99.438 64.2124 99.6138 64.5044C100.376 65.7752 101.651 66.7697 103.125 67.0413C104.135 67.2269 105.278 66.8345 105.714 65.8734C108.847 65.9967 111.985 65.9418 115.114 65.7082C116.221 65.6256 117.132 64.9291 117.285 63.7889C117.429 62.7214 116.773 61.6417 115.702 61.3592C113.927 60.8912 112.133 60.5322 110.33 60.2463C114.604 60.3362 118.874 60.5586 123.14 60.8397C126.574 61.0673 130.004 61.332 133.436 61.5989C134.591 61.6884 135.696 60.5166 135.646 59.3846L135.643 59.3824Z" fill="#0C0C0D"/>
<path d="M134.629 58.7051C134.571 57.3931 133.654 56.6322 132.419 56.4908C121.917 55.2926 111.382 54.405 100.827 53.8293L102.039 53.8007C104.4 53.7432 106.752 53.5935 109.08 53.1653C109.107 53.1605 109.134 53.1519 109.16 53.145C112.335 53.1199 115.509 53.151 118.682 53.2276C122.929 53.3292 127.175 53.5109 131.418 53.7384C132.574 53.8007 133.679 52.6756 133.628 51.5246C133.571 50.2295 132.654 49.4301 131.418 49.3103C117.463 47.9642 103.414 47.6411 89.4131 48.3604C87.493 48.4582 85.5742 48.578 83.6567 48.7156C83.126 47.9988 82.2251 47.6134 81.2992 47.8695C78.7516 48.5732 76.1997 49.2649 73.6452 49.9436C72.5794 50.2274 71.9186 51.3044 72.062 52.3728C72.0897 52.5774 72.1514 52.782 72.2399 52.9771C71.9545 53.3686 71.7826 53.8435 71.8029 54.2938C71.8482 55.3181 72.4684 56.0924 73.4254 56.4285C76.6549 57.5644 80.1509 57.5488 83.5501 57.6029C83.4473 57.7785 83.3674 57.9619 83.3186 58.1401C83.0975 58.9417 83.3592 59.6874 83.8874 60.2943C85.2875 61.9012 87.6701 61.9324 89.6212 62.1517C91.5746 62.3719 93.5352 62.5297 95.4963 62.672C96.4365 62.7404 97.378 62.8048 98.3195 62.8706C98.335 63.2058 98.4235 63.535 98.5993 63.827C99.3615 65.0978 100.636 66.0923 102.111 66.3639C103.121 66.5495 104.264 66.1572 104.7 65.196C107.833 65.3193 110.971 65.2644 114.1 65.0308C115.206 64.9482 116.118 64.2518 116.271 63.1115C116.414 62.044 115.758 60.9643 114.688 60.6818C112.912 60.2138 111.119 59.8548 109.316 59.5689C113.589 59.6588 117.86 59.8812 122.125 60.1623C125.559 60.3899 128.99 60.6546 132.421 60.9215C133.577 61.011 134.682 59.8392 134.632 58.7072L134.629 58.7051Z" fill="#6610F2"/>
</g>
</svg>