<svg width="300" height="300" viewBox="0 0 300 300" fill="none" xmlns="http://www.w3.org/2000/svg">
<path d="M217.62 227.1C210.54 218.6 204.12 209.57 198.43 200.08C192.75 190.61 187.77 180.75 182.77 170.9C182.34 170.05 181.91 169.21 181.48 168.36C185.88 163.55 190.17 158.65 194.27 153.6C200.4 146.04 206.01 138.06 210.54 129.43C211.39 127.81 209.98 125.85 208.15 126.32C193.95 129.98 179.69 133.43 165.38 136.66L150.98 108.31L132.98 72.86C132.05 71.03 128.89 71.85 129.04 73.93C130.77 97.82 128.51 121.51 125.19 145.11C120.11 146.1 115.03 147.06 109.95 148C100.68 149.7 91.4 151.3 82.1 152.82C80.32 153.11 80.03 155.92 81.59 156.69C94.73 163.15 107.63 170.09 120.26 177.49C119.1 184.96 117.97 192.42 116.96 199.89C115.39 211.55 114.11 223.24 113.47 234.99C113.37 236.82 115.86 237.78 117.08 236.49L153.2 198.27C163.04 204.94 172.69 211.89 182.11 219.14C186.39 222.44 190.52 225.98 194.89 229.15C198.91 232.06 203.4 234.12 208.44 233.19C209.47 233 210.33 231.58 209.92 230.59C205.04 218.88 198.79 207.85 191.14 197.71C190.78 197.23 190.24 196.96 189.67 196.86C185.08 190.47 180.23 184.27 175.13 178.27L174.96 178.04C174.83 177.86 174.69 177.71 174.54 177.58C174.28 177.28 174.02 176.97 173.76 176.67C175.321 175.021 176.874 173.364 178.42 171.7C183.28 181.28 188.11 190.88 193.54 200.15C199.72 210.71 206.79 220.71 214.62 230.11C216.37 232.2 219.35 229.2 217.61 227.12L217.62 227.1ZM150.66 166.83C150.44 167.36 150.23 167.9 150.01 168.43C148.75 167.96 147.5 167.49 146.24 167.02C145.43 166.7 144.62 166.38 143.81 166.05C144.42 165.69 144.98 165.29 145.48 164.87C147.72 165.12 149.97 165.32 152.22 165.47C151.56 165.62 150.96 166.06 150.65 166.83H150.66ZM171.78 193.5C168.92 191.54 166.01 189.65 163.05 187.86C163.24 187.66 163.44 187.46 163.63 187.26C165.22 188.27 166.78 189.31 168.33 190.37C169.47 191.43 170.62 192.47 171.78 193.51V193.5ZM141.8 141.75C141.76 141.27 141.72 140.78 141.67 140.3C141.99 140.5 142.35 140.63 142.71 140.68C142.81 140.94 142.92 141.22 143.03 141.5C142.62 141.59 142.21 141.67 141.8 141.76V141.75ZM139.86 146.62C139.86 146.56 139.87 146.51 139.88 146.45C140.89 146.24 141.89 146.04 142.9 145.83C142.17 146.04 141.44 146.26 140.71 146.48C140.43 146.53 140.15 146.58 139.87 146.62H139.86ZM141.62 151.27C141.28 151.27 140.93 151.27 140.59 151.29L142.2 150.84C142.87 150.76 143.53 150.69 144.2 150.61C143.34 150.84 142.48 151.06 141.62 151.27ZM152.6 175.79C152.33 175.65 152.06 175.52 151.79 175.38C151.98 174.95 152.17 174.52 152.35 174.09C152.45 174.3 152.59 174.51 152.78 174.71C152.87 174.81 152.97 174.91 153.06 175.01C152.91 175.27 152.76 175.53 152.6 175.79ZM148.42 172.39L147.97 173.5C146.88 172.98 145.79 172.46 144.69 171.95C143.06 171.01 141.44 170.06 139.82 169.1C141.47 169.72 143.12 170.33 144.76 170.95C145.97 171.43 147.19 171.91 148.41 172.38L148.42 172.39ZM128.29 198.65C128.45 198.82 128.64 198.96 128.85 199.06C128.49 199.55 128.14 200.04 127.79 200.54C127.92 200 128.05 199.46 128.2 198.92C128.22 198.84 128.25 198.75 128.29 198.66V198.65ZM137.83 190.24C137.68 190.24 137.52 190.25 137.36 190.29C137.29 190.12 137.21 189.94 137.14 189.77C137.36 189.93 137.59 190.09 137.82 190.24H137.83ZM156.6 184.1C156.54 184.04 156.48 183.98 156.43 183.92C157.5 184.38 158.58 184.84 159.65 185.3C159.54 185.41 159.44 185.53 159.33 185.64C158.43 185.12 157.52 184.61 156.61 184.1H156.6ZM155.42 170.44C154.96 170.27 154.49 170.09 154.03 169.92C154.28 169.26 154.52 168.61 154.76 167.95C155.09 167.01 154.78 166.28 154.2 165.85C154.5 165.85 154.81 165.79 155.15 165.63C155.88 165.66 156.6 165.69 157.33 165.71C156.77 167.32 156.13 168.9 155.43 170.45L155.42 170.44ZM157.47 158.67C157.23 158.85 157 159.03 156.76 159.2C155.49 158.79 154.22 158.39 152.94 158.02C153.75 157.76 154.57 157.5 155.38 157.23C156.06 157.73 156.76 158.21 157.48 158.67H157.47ZM130.07 183.33C130.07 183.64 130.14 183.97 130.28 184.29C130.58 184.99 130.87 185.69 131.17 186.39C130.47 185.79 129.76 185.2 129.06 184.6C129.04 184.09 129.02 183.58 128.98 183.06C128.97 182.9 128.93 182.74 128.89 182.59C129.29 182.83 129.68 183.08 130.08 183.32L130.07 183.33ZM159.47 174.62C159.82 173.87 159.78 172.9 159.23 172.2C160.18 170.1 161.01 167.95 161.72 165.75H162.2C161.39 169.06 161.11 172.5 161.4 175.93C161.4 176.02 161.42 176.11 161.44 176.2C160.79 175.67 160.13 175.15 159.47 174.62ZM154.01 135.31C153.38 133.12 152.68 130.96 151.89 128.83C152.87 129.99 153.89 131.12 154.95 132.21C156.55 134.1 158.15 136 159.75 137.89C158.59 138.15 157.42 138.4 156.26 138.65C155.52 137.53 154.78 136.41 154.01 135.3V135.31ZM166.42 178.13C166.04 178.54 165.65 178.94 165.27 179.35L163.69 178.04C164.15 178.02 164.61 177.83 165.02 177.43C165.14 177.31 165.26 177.19 165.37 177.07C165.59 177.29 165.85 177.45 166.14 177.55C166.23 177.74 166.33 177.94 166.42 178.13ZM156.61 152.32C156.53 152.26 156.45 152.2 156.37 152.15C157.14 151.75 157.9 151.34 158.67 150.94C158.76 151.11 158.86 151.29 158.95 151.46C158.17 151.75 157.39 152.04 156.61 152.32ZM162.91 149.91C162.74 149.59 162.57 149.28 162.4 148.96C163.58 148.34 164.77 147.71 165.95 147.09C166.16 147.51 166.38 147.93 166.59 148.35C165.37 148.888 164.143 149.411 162.91 149.92V149.91ZM145.17 107.7C145.08 107 144.99 106.3 144.89 105.6C145.72 107.24 146.56 108.89 147.39 110.53C146.67 109.57 145.92 108.63 145.17 107.69V107.7ZM140.52 99.08C140.48 98.73 140.44 98.37 140.41 98.02C140.12 95.37 135.99 95.26 136.18 98.02C136.32 100.19 136.42 102.36 136.46 104.52C136.26 104.67 136.09 104.85 135.95 105.06C135.66 105.13 135.39 105.27 135.17 105.49L135.11 104.81C135.01 103.78 134.38 103.14 133.63 102.89C133.9 96.5 133.97 90.1 133.77 83.71C136.3 88.7 138.83 93.68 141.36 98.67C141.05 98.75 140.76 98.9 140.52 99.1V99.08ZM125.49 174.68C125.44 174.96 125.39 175.23 125.33 175.51L124.88 175.24C124.92 174.95 124.97 174.67 125.01 174.38C125.17 174.48 125.33 174.58 125.48 174.68H125.49ZM139.47 197.48C140.51 196.51 141.55 195.54 142.59 194.58C141.329 196.449 139.96 198.242 138.49 199.95C138.86 199.15 139.18 198.32 139.47 197.49V197.48ZM204.48 131.61C203.03 134.11 201.5 136.55 199.89 138.93C200.36 137.42 198.72 136.19 197.33 136.45C196.67 136.23 195.87 136.32 195.16 136.88C194.23 137.63 193.32 138.39 192.41 139.17C191.86 139.49 191.31 139.8 190.77 140.12C190.39 139.56 189.76 139.15 189.11 139.05C188.63 137.53 186.36 136.78 185.27 138.54C184.74 139.4 184.2 140.25 183.65 141.1C183.41 140.86 183.12 140.68 182.79 140.6C182.57 138.83 179.76 138.52 178.85 140.03L176.87 143.31C174.75 144.45 172.6 145.55 170.43 146.58L169.68 145.11L177.66 140.89C178.85 140.26 178.92 138.93 178.35 137.99C179.51 137.72 180.68 137.45 181.84 137.17C189.4 135.38 196.94 133.52 204.47 131.6L204.48 131.61ZM130.02 141.04C130.45 141.34 131 141.5 131.54 141.48L131.24 143.89C130.69 144 130.14 144.11 129.58 144.22C129.73 143.16 129.87 142.1 130.02 141.04ZM112.45 168.07C104.87 163.82 97.2 159.75 89.44 155.84C92.39 155.35 95.34 154.84 98.29 154.32C98.26 154.46 98.23 154.6 98.22 154.74C97.81 155.78 98.12 157.03 99.51 157.36C99.27 158.16 99.49 159.06 100.48 159.63C101.14 160.01 101.8 160.38 102.46 160.75C102.68 161.23 103.07 161.65 103.66 161.89C104.67 162.31 105.68 162.7 106.71 163.06C109.25 164.4 111.81 165.69 114.4 166.93C116.6 168.63 118.85 170.27 121.15 171.84C121.09 172.21 121.03 172.58 120.98 172.95C118.15 171.3 115.31 169.67 112.46 168.07H112.45ZM124.5 179.96C124.41 180.45 124.32 180.94 124.23 181.42C124.12 182.01 124.26 182.55 124.54 183C124.09 183.91 123.66 184.84 123.26 185.77C123.56 183.77 123.87 181.77 124.18 179.76C124.29 179.82 124.4 179.89 124.51 179.95L124.5 179.96ZM136.6 209.64C130.43 216.17 124.25 222.7 118.08 229.24C118.3 226.17 118.56 223.1 118.86 220.04C119.38 219.92 119.86 219.62 120.17 219.11C120.26 218.97 120.33 218.83 120.42 218.69C121.05 218.94 121.81 218.94 122.35 218.59C123.91 217.6 125.4 216.49 126.8 215.3C126.99 215.19 127.18 215.07 127.36 214.95C127.65 214.87 127.93 214.7 128.2 214.42C136.13 209.36 142.75 202.5 147.6 194.48C148.29 194.93 148.97 195.39 149.66 195.85C145.3 200.45 140.95 205.04 136.6 209.64ZM184.25 215.44C176.7 209.633 169.011 204.008 161.19 198.57C160.68 198.21 160.16 197.87 159.65 197.51C160.8 197.47 161.82 196.56 161.88 195.51C162.23 195.72 162.59 195.93 162.94 196.14C173.984 206.176 186.132 214.925 199.15 222.22C199.98 222.68 200.81 222.53 201.42 222.07C202.6 224.39 203.71 226.74 204.76 229.12C201.21 228.69 197.95 226.2 195.23 224.06C191.57 221.18 187.94 218.26 184.25 215.42V215.44ZM170.9 173.35L170.39 172.78C170.68 171.94 170.94 171.09 171.16 170.23C171.41 169.89 171.66 169.54 171.9 169.19C173.33 168.52 174.71 167.79 176.07 167C176.16 167.18 176.25 167.36 176.34 167.53C176.12 167.76 175.91 168 175.69 168.23C174.1 169.94 172.49 171.64 170.89 173.34L170.9 173.35Z" fill="#6610F2"/>
<path d="M99.14 64.45C95.4619 61.7929 91.5451 59.483 87.44 57.55L71.27 46.41C69.02 44.86 66.9 48.53 69.13 50.06C71.46 51.67 73.79 53.27 76.12 54.88C75.85 54.76 75.58 54.64 75.32 54.52C73.32 53.61 70.75 56.18 72.76 57.84C76.72 61.13 80.69 64.42 84.65 67.7C86.73 69.43 89.74 66.45 87.64 64.71C87.56 64.64 87.48 64.58 87.4 64.51C88.26 64.85 89.15 65.15 90.04 65.4C92.52 66.39 95 67.37 97.5 68.31C99.91 69.22 100.93 65.74 99.13 64.44L99.14 64.45ZM62.49 88.88C48.96 85.26 35.42 81.63 21.89 78.01C19.26 77.3 18.13 81.39 20.76 82.09C27.2 83.81 33.64 85.54 40.08 87.26C40.05 88.15 40.51 89.02 41.59 89.22L55.81 91.91C56.32 92.11 56.82 92.32 57.32 92.54C57.98 92.83 58.61 92.79 59.14 92.54L61.36 92.96C64 93.46 65.15 89.59 62.49 88.88ZM63.25 191.16C62.74 190.81 62.08 190.69 61.36 190.97C61.69 190.16 61.99 189.33 62.26 188.49C63.08 185.88 58.99 184.77 58.18 187.36C57.44 189.71 56.41 191.92 55.13 193.95C52.4903 195.219 49.938 196.662 47.49 198.27C47.04 198.51 46.58 198.75 46.13 198.99C45.73 199.2 45.46 199.48 45.29 199.78C44.65 200.24 44.02 200.71 43.39 201.19C43.25 201.3 43.1 201.41 42.96 201.52C41.65 202.54 42.29 204.07 43.45 204.73C42.47 206.28 44.32 208.74 46.37 207.68C52.9019 204.3 58.8587 199.909 64.02 194.67C65.11 193.56 64.52 191.64 63.24 191.14L63.25 191.16ZM72.27 236.68C71.86 236.93 71.45 237.17 71.04 237.42C71.48 236.94 71.92 236.47 72.37 235.99C73.94 234.31 71.88 231.26 69.81 232.67C68.03 233.88 66.23 235.07 64.42 236.25C65.14 235.26 65.85 234.25 66.54 233.23C68.06 230.96 64.39 228.84 62.89 231.09C59.82 235.69 56.3 239.92 52.38 243.82C50.69 245.51 52.86 248.38 54.94 247.14C55.92 246.56 56.89 245.96 57.86 245.37L57.82 245.41C56.22 247.13 58.26 250.01 60.38 248.73L65.99 245.37C63.47 248.52 60.69 251.46 57.64 254.17C55.6 255.98 58.6 258.97 60.63 257.16C66.3511 252.081 71.2523 246.147 75.16 239.57C76.24 237.76 74.08 235.58 72.26 236.67L72.27 236.68ZM260.62 229.79C259.93 229.17 259.24 228.57 258.54 227.96C258.64 227.16 258.37 226.29 257.64 225.76C256.37 224.84 254.24 223.44 251.97 222.43C249.87 220.74 247.74 219.08 245.57 217.47C245.31 217.28 245.05 217.16 244.81 217.11C244.1 216.4 243.41 215.69 242.72 214.95C240.85 212.96 237.86 215.96 239.73 217.94C241.14 219.44 242.59 220.89 244.09 222.29C244.01 222.36 243.92 222.44 243.85 222.52C241.79 224.72 243.67 227.2 245.06 229.13C245.46 229.68 245.86 230.24 246.26 230.79C244.09 230.4 242.47 233.55 244.72 234.64C247.03 235.75 249.34 236.87 251.64 237.98C253.35 238.8 255.89 236.96 254.54 235.08L250.81 229.9C250.19 229.04 249.57 228.17 248.95 227.31C248.74 227.02 248.38 226.32 248.01 225.77C248.04 225.78 248.06 225.79 248.09 225.8C251.25 228.44 254.59 230.88 258.08 233.1C260.09 234.38 262.44 231.4 260.64 229.78L260.62 229.79ZM279.69 192.27C270.61 187.49 261.19 183.39 251.5 179.99C249.06 179.13 248.09 182.54 249.87 183.86C250.98 184.68 252.12 185.47 253.27 186.23C252.69 186.7 252.37 187.41 252.71 188.26C254.86 193.58 258.6 197.93 263.69 200.64C266.09 201.92 268.23 198.27 265.83 196.99C262.93 195.45 260.46 193.27 258.64 190.6C260.32 190.97 261.99 191.4 263.64 191.89C266.54 193.17 269.53 194.27 272.58 195.17C273.16 195.34 273.7 195.23 274.14 194.95C275.44 195.37 276.74 195.77 278.05 196.15C280.32 196.8 281.84 193.42 279.68 192.28L279.69 192.27ZM244.53 89.88C245.01 88.74 244.61 87.16 243.21 86.96C234.85 85.77 226.49 86.14 218.29 88.19C216.24 88.7 216.46 91.29 217.9 92.1C215.91 92.52 213.92 92.95 211.93 93.37C210.26 93.72 209.74 96.51 211.42 97.24C215.97 99.1986 220.888 100.154 225.84 100.04C231.04 101.58 236.74 101.2 241.83 98.97C243.48 98.25 243.09 96.4 241.92 95.55C242.89 94.98 243.84 94.36 244.75 93.69C245.97 92.8 246.21 90.39 244.51 89.89L244.53 89.88ZM226.62 95.81C226.09 95.64 225.58 95.43 225.07 95.21C228.83 94.04 232.76 93.44 236.7 93.41C233.503 94.7823 230.093 95.5941 226.62 95.81ZM223.32 48.33C222.17 48.76 221.02 49.2 219.87 49.63C220.35 47.98 218.19 46.69 216.67 47.37C214.968 48.1343 213.3 48.9718 211.67 49.88C212.71 48.65 213.73 47.4 214.71 46.12C215.41 45.21 214.84 43.74 213.95 43.22C211.71 41.91 209 41.92 206.88 43.48C204.99 44.87 206.35 47.84 208.18 47.51C204.85 51.4 201.2 55.01 197.29 58.32C195.71 59.66 197.39 62.59 199.35 61.86L201.27 61.14C201.94 61.37 202.71 61.3 203.38 60.73C203.66 60.49 203.95 60.26 204.23 60.03C204.9 59.78 205.57 59.53 206.24 59.27C206.05 59.45 205.87 59.63 205.68 59.8C203.93 61.41 206.22 64.45 208.24 63.12C213.81 59.48 219.38 55.84 224.95 52.19C226.84 50.95 225.68 47.43 223.32 48.32V48.33Z" fill="#6610F2"/>
<path d="M224.13 126.72C225.21 125.51 224.61 122.87 222.63 123.11C204.91 125.21 187.11 127.1 169.36 129.24C165.29 120.36 161.21 111.47 157.13 102.6C151.61 90.6 146.07 78.61 140.52 66.63C139.78 65.02 136.97 65.4 136.65 67.14C132.47 89.94 128.3 112.74 124.12 135.54C119.14 136.36 114.16 137.23 109.2 138.16C98.74 140.13 88.34 142.43 78.06 145.18C76.25 145.66 76.04 148.1 77.55 149.05C90.76 157.35 103.93 165.73 117.04 174.19L112.45 199.24L105.6 236.63C105.21 238.75 107.48 240.08 109.14 238.69C124.569 225.738 139.635 212.359 154.32 198.57C164.09 205.04 173.82 211.55 183.53 218.11C193.35 224.75 203.13 231.43 212.89 238.16C215.14 239.71 217.26 236.04 215.03 234.51C214.72 234.29 214.4 234.08 214.09 233.86C215.21 233.46 216.13 232.16 215.49 230.75C205.91 209.48 196.28 188.23 186.61 166.99C191.19 162.32 195.72 157.62 200.21 152.88C208.33 144.3 216.3 135.58 224.13 126.74V126.72ZM133.88 105.64C135.77 95.3 137.67 84.95 139.56 74.61C148.06 92.98 156.53 111.37 164.97 129.77C152.79 131.27 140.64 132.9 128.53 134.82L133.87 105.64H133.88ZM166.89 133.94C171.79 144.64 176.68 155.35 181.56 166.06C172.49 175.27 163.25 184.31 153.85 193.19C143.167 186.123 132.447 179.113 121.69 172.16L127.72 139.25C140.73 137.2 153.8 135.52 166.88 133.95L166.89 133.94ZM109.71 164.43C101.13 158.93 92.52 153.47 83.89 148.03C96.91 144.73 110.07 142.13 123.31 139.96C121.5 149.87 119.68 159.78 117.87 169.69C115.15 167.94 112.44 166.18 109.71 164.44V164.43ZM132.92 212.47C125.63 219 118.25 225.43 110.78 231.76C114.14 213.39 117.51 195.03 120.87 176.66C130.84 183.11 140.78 189.62 150.69 196.16C144.82 201.66 138.9 207.09 132.91 212.46L132.92 212.47ZM195.52 196.76C200.85 208.52 206.16 220.28 211.46 232.05C193.572 219.742 175.578 207.588 157.48 195.59C166.27 187.27 174.93 178.81 183.44 170.2C187.47 179.05 191.5 187.9 195.51 196.76H195.52ZM171.29 133.42C177.65 132.66 184 131.92 190.35 131.17C199.36 130.1 208.36 129.04 217.37 127.97C206.75 139.83 195.87 151.46 184.74 162.85C180.27 153.04 175.79 143.23 171.3 133.42H171.29ZM98.16 71.41C84.27 63.23 69.77 56.15 54.8 50.16C52.27 49.15 51.17 53.24 53.67 54.24C68.3 60.09 82.45 67.07 96.02 75.06C98.37 76.45 100.5 72.79 98.16 71.4V71.41ZM61.77 90.11C51.13 88.45 40.49 86.78 29.85 85.12C27.19 84.7 26.04 88.78 28.72 89.2C39.36 90.86 50 92.53 60.64 94.19C63.3 94.61 64.45 90.53 61.77 90.11ZM68.69 190.42C60.0194 197.633 50.824 204.191 41.18 210.04C38.86 211.45 40.98 215.11 43.32 213.69C53.27 207.64 62.74 200.86 71.68 193.41C73.78 191.66 70.77 188.68 68.69 190.42ZM65.69 237.31C61.42 242.34 56.76 247.01 51.72 251.28C49.64 253.04 52.65 256.03 54.71 254.27C59.74 250 64.41 245.34 68.68 240.3C70.43 238.23 67.45 235.23 65.69 237.31ZM259.24 231.32C254.58 227.66 249.93 224 245.27 220.35C243.15 218.69 240.14 221.66 242.28 223.34C246.94 227 251.59 230.66 256.25 234.31C258.37 235.97 261.38 233 259.24 231.32ZM273.26 193.89C263.96 191.18 254.67 188.47 245.37 185.75C242.75 184.99 241.63 189.07 244.24 189.83C253.54 192.54 262.83 195.25 272.13 197.97C274.75 198.73 275.87 194.65 273.26 193.89ZM247.18 83.01L203.33 91.26C200.66 91.76 201.79 95.84 204.46 95.34L248.31 87.09C250.98 86.59 249.85 82.51 247.18 83.01ZM220.33 45.76C214.63 51.53 208.45 56.76 201.8 61.39C199.58 62.94 201.69 66.61 203.94 65.04C210.88 60.2 217.37 54.77 223.32 48.75C225.24 46.81 222.25 43.82 220.33 45.76Z" fill="#0C0C0D"/>
</svg>
