<svg width="56" height="56" viewBox="0 0 56 56" fill="none" xmlns="http://www.w3.org/2000/svg">
<path d="M22.3011 29.6613L22.2675 31.0371L22.303 32.4128L22.5998 33.7885L22.3291 35.1643L22.6894 36.54L22.6315 37.9157L22.7118 39.2915L22.6352 40.6672L22.6819 41.8675C22.8088 41.9664 22.9974 42.0616 23.1075 42.1045C23.1915 42.1363 23.2662 42.1512 23.3352 42.1624C23.5163 42.0635 23.6862 41.9459 23.8355 41.8357L24.2107 41.2944L25.4968 40.6467L26.3312 39.5453L27.2216 38.5L28.2296 37.5741L29.4691 36.8797L30.115 35.5861L31.1435 34.6808L32.2635 33.8688L33.2435 32.9131L33.9659 31.7016L34.9571 30.7589L36.1107 29.9805L36.7696 28.9781L36.0976 27.9888L35.1736 26.9696L34.0238 26.1837L32.984 25.2877L32.1534 24.1827L31.403 22.9955L30.423 22.0397L29.0995 21.4312L28.2072 20.3896L27.4214 19.2397L26.2566 18.4707L25.4166 17.3768L24.4963 16.3613L23.4622 15.4616L22.5158 14.6739L22.288 15.9115L22.5531 17.2891L22.2656 18.6648L22.723 20.0405L22.4803 21.4163L22.6558 22.792L22.2824 24.1677L22.2078 25.5435L22.1723 26.9173L22.3384 28.2931L22.3011 29.6688V29.6613Z" fill="#6610F2"/>
<path d="M23.6264 40.0325V30.5013V20.9701V15.5773C23.6264 14.9763 22.6931 14.9763 22.6931 15.5773V40.0325C22.6931 40.6336 23.6264 40.6336 23.6264 40.0325Z" fill="#0C0C0D"/>
<path d="M23.9717 40.992C27.5931 37.2811 31.2125 33.5683 34.8339 29.8573C35.8531 28.812 36.8723 27.7685 37.8915 26.7232C38.0595 26.5515 38.0837 26.2323 37.8915 26.0624L26.7157 16.2643C25.6685 15.3459 24.6195 14.4275 23.5723 13.5091C23.3837 13.3429 23.0981 13.3224 22.9115 13.5091C22.7416 13.6789 22.7211 14.0019 22.9115 14.1699L34.0872 23.968C35.1344 24.8864 36.1835 25.8048 37.2307 26.7232V26.0624C33.6093 29.7733 29.9899 33.4861 26.3685 37.1971C25.3493 38.2424 24.3301 39.2859 23.3109 40.3312C22.8909 40.7605 23.5499 41.4213 23.9717 40.992Z" fill="#0C0C0D"/>
</svg>
