<svg width="56" height="56" viewBox="0 0 56 56" fill="none" xmlns="http://www.w3.org/2000/svg">
<path d="M33.6989 29.6614L33.7325 31.0371L33.6971 32.4128L33.4003 33.7886L33.6709 35.1643L33.3107 36.54L33.3685 37.9158L33.2883 39.2915L33.3648 40.6672L33.3181 41.8675C33.1912 41.9664 33.0027 42.0616 32.8925 42.1046C32.8085 42.1363 32.7339 42.1512 32.6648 42.1624C32.4837 42.0635 32.3139 41.9459 32.1645 41.8358L31.7893 41.2944L30.5032 40.6467L29.6688 39.5454L28.7784 38.5L27.7704 37.5742L26.5309 36.8798L25.8851 35.5862L24.8565 34.6808L23.7365 33.8688L22.7565 32.9131L22.0341 31.7016L21.0429 30.759L19.8893 29.9806L19.2304 28.9782L19.9024 27.9888L20.8264 26.9696L21.9763 26.1838L23.016 25.2878L23.8467 24.1827L24.5971 22.9955L25.5771 22.0398L26.9005 21.4312L27.7928 20.3896L28.5787 19.2398L29.7435 18.4707L30.5835 17.3768L31.5037 16.3614L32.5379 15.4616L33.4843 14.6739L33.712 15.9115L33.4469 17.2891L33.7344 18.6648L33.2771 20.0406L33.5197 21.4163L33.3443 22.792L33.7176 24.1678L33.7923 25.5435L33.8277 26.9174L33.6616 28.2931L33.6989 29.6688V29.6614Z" fill="#6610F2"/>
<path d="M32.3736 40.0325V30.5013V20.9701V15.5773C32.3736 14.9763 33.3069 14.9763 33.3069 15.5773V40.0325C33.3069 40.6336 32.3736 40.6336 32.3736 40.0325Z" fill="#0C0C0D"/>
<path d="M32.0283 40.992C28.4069 37.2811 24.7875 33.5683 21.1661 29.8573C20.1469 28.812 19.1277 27.7685 18.1085 26.7232C17.9405 26.5515 17.9163 26.2323 18.1085 26.0624L29.2843 16.2643C30.3315 15.3459 31.3805 14.4275 32.4277 13.5091C32.6163 13.3429 32.9019 13.3224 33.0885 13.5091C33.2584 13.6789 33.2789 14.0019 33.0885 14.1699L21.9128 23.968C20.8656 24.8864 19.8165 25.8048 18.7693 26.7232V26.0624C22.3907 29.7733 26.0101 33.4861 29.6315 37.1971C30.6507 38.2424 31.6699 39.2859 32.6891 40.3312C33.1091 40.7605 32.4501 41.4213 32.0283 40.992Z" fill="#0C0C0D"/>
</svg>
