<svg width="97" height="99" viewBox="0 0 97 99" fill="none" xmlns="http://www.w3.org/2000/svg">
<g clip-path="url(#clip0_2011_208)">
<path d="M91.8739 51.105C91.5557 50.6736 91.2234 50.3412 90.7496 50.0938C90.29 49.8463 89.7738 49.7543 89.2647 49.6412C88.7415 49.5281 88.2323 49.3725 87.7161 49.2382C86.9029 49.019 86.1039 48.7998 85.2695 48.6301C83.3674 48.2412 81.4723 47.8028 79.556 47.5129C78.2055 47.3078 76.855 47.1027 75.5044 46.8976C74.8751 46.8057 74.267 46.6926 73.6376 46.6148C71.2971 46.3249 68.9495 46.042 66.6019 45.7592C64.8624 45.5471 63.1229 45.4057 61.3763 45.2289C59.7358 45.0734 58.0954 44.9036 56.4408 44.7622C52.085 44.3945 47.7292 43.9985 43.3735 43.5884C42.2916 43.4823 41.2239 43.3621 40.142 43.2278C39.6753 43.1712 39.2086 43.1005 38.7419 43.0439C40.7713 42.952 42.7936 42.952 44.816 42.9096C46.5696 42.8671 48.3161 42.9449 50.0627 42.9944C51.7315 43.0368 53.4072 43.0581 55.076 43.1571C57.4448 43.2915 59.8136 43.4258 62.1824 43.5602C62.1541 43.5602 62.1401 43.5601 62.1189 43.553C64.318 43.7581 66.517 43.9067 68.7161 44.0834C70.4697 44.2248 72.2093 44.4086 73.9629 44.5783C77.8661 44.9743 81.7552 45.4269 85.6443 45.9077C86.7403 46.0421 87.8292 46.2259 88.9394 46.2896C89.7243 46.3391 90.4597 45.7027 90.6506 44.9744C90.8627 44.1258 90.4172 43.2137 89.604 42.8813C89.5616 42.8672 89.5192 42.853 89.4839 42.8318C89.5475 42.8671 89.6111 42.8884 89.6748 42.9237C89.7031 42.9379 89.7314 42.9662 89.7596 42.9803C89.3919 42.754 88.9606 42.6621 88.5434 42.7116C87.8292 42.6338 87.108 42.5207 86.3938 42.4287C85.3685 42.3085 84.3432 42.1742 83.3179 42.054C81.3945 41.8277 79.4642 41.5661 77.5338 41.3893C75.3346 41.1843 73.1497 40.9509 70.9506 40.7317C69.098 40.5478 67.2383 40.4276 65.3857 40.2721C63.7381 40.1377 62.0976 40.0104 60.4501 39.9185C59.0429 39.8407 57.6287 39.7559 56.2216 39.6781C55.4791 39.6427 54.7367 39.5791 54.0013 39.5508C51.7597 39.4872 49.5182 39.4377 47.2838 39.3811C45.5584 39.3387 43.8542 39.3882 42.1289 39.4307C40.6864 39.4589 39.244 39.473 37.8156 39.5579C36.96 39.6074 36.1044 39.671 35.2488 39.7488C34.4144 39.8195 33.5942 39.9468 32.7527 40.0104C32.0456 40.067 31.3809 40.1801 30.7162 40.4064C30.0021 40.668 29.5707 41.2267 29.1252 41.7995C28.4959 42.5985 28.7293 43.9349 29.6556 44.4086C30.2001 44.6844 30.7304 44.9743 31.2819 45.2289C31.8052 45.4693 32.4062 45.6036 32.9648 45.738C32.9861 45.7451 33.0073 45.7521 33.0214 45.7521C32.378 45.7309 31.7415 45.7168 31.0909 45.7168C28.51 45.6956 25.9362 45.6814 23.3553 45.6885C24.126 45.0874 24.9109 44.4864 25.6816 43.8854C27.3292 42.6196 28.9838 41.3611 30.6525 40.1166C32.2011 38.9498 33.7992 37.8326 35.376 36.7083C36.8892 35.6194 38.4731 34.6153 40.0288 33.5829C41.7895 32.4869 43.5432 31.3696 45.3109 30.2948C46.2302 29.7291 47.1565 29.1705 48.0757 28.6189C48.698 28.2371 49.3132 27.8623 49.9283 27.4734C50.7344 26.9784 51.5829 26.526 52.2334 25.833C52.8415 25.1966 52.9405 24.2208 52.3961 23.5066C51.8445 22.7854 50.89 22.6368 50.1051 23.0399C43.1118 26.6249 36.4367 30.811 29.7829 34.99C29.1535 35.393 28.5242 35.7819 27.8878 36.1779C28.0434 36.0506 28.206 35.9163 28.3545 35.7819C28.8707 35.3506 29.3727 34.9051 29.9031 34.5021C30.6667 33.9222 31.4304 33.3565 32.187 32.7838C32.6891 32.409 33.1911 32.006 33.7073 31.6453C35.0649 30.6978 36.4155 29.7149 37.7944 28.8028C37.9005 28.7391 38.0065 28.6614 38.1055 28.5906C39.152 27.926 40.1915 27.2542 41.2309 26.5825C43.3805 25.1965 45.4877 23.754 47.5807 22.2833C49.0303 21.3004 50.487 20.3104 51.8517 19.2286C52.6082 18.6275 52.785 17.5315 52.184 16.7466C51.5829 15.9618 50.4869 15.8416 49.7091 16.4073C48.1322 17.5457 46.5483 18.6771 44.9644 19.7943C44.5048 20.0984 44.0594 20.4024 43.5997 20.7065C41.1461 22.3257 38.6853 23.9238 36.2528 25.5784C33.9972 27.028 31.7415 28.4776 29.4787 29.9342C27.8029 31.0019 26.1625 32.1332 24.5078 33.2363C22.9239 34.297 21.3824 35.4142 19.8409 36.5173C18.0873 37.7618 16.4043 39.1054 14.7002 40.4277C13.9295 41.0287 13.2154 41.6863 12.48 42.3227C12.1123 42.6338 11.7446 42.9591 11.3769 43.2702C10.8183 43.7581 10.2667 44.2531 9.7576 44.7905C9.30505 45.2713 8.97978 45.8087 8.6333 46.3673C8.15246 47.131 8.44946 48.1068 9.1 48.6583C9.44648 48.9482 9.80002 49.2169 10.2526 49.3301C10.6768 49.4432 11.1505 49.4221 11.5748 49.3231C11.8011 49.2665 12.0274 49.1957 12.2537 49.1109C12.4588 49.1462 12.678 49.1675 12.8972 49.1745C13.2012 49.1957 13.4911 49.217 13.7952 49.224C13.7881 49.2594 13.774 49.2877 13.7669 49.323C13.5831 50.0018 13.8517 50.7514 14.4104 51.1827C15.0326 51.6494 15.9377 51.6635 16.5529 51.1756C16.567 51.1615 16.574 51.1545 16.5882 51.1545C16.9983 51.8757 17.4085 52.6111 17.8186 53.3323C18.7591 55.0082 19.7066 56.6911 20.6329 58.3669C22.4219 61.6267 24.2109 64.8864 26.0281 68.1321C26.0706 68.2311 26.1201 68.323 26.1554 68.4149C26.8625 69.9281 27.5272 71.4696 28.206 72.997C28.8141 74.3687 29.295 75.7971 29.8182 77.2113C30.0162 77.8336 30.2001 78.4558 30.3981 79.0781C30.7375 80.1529 31.0203 81.2418 31.3809 82.2954C31.3739 82.2883 31.3809 82.2813 31.3739 82.2742C31.3809 82.2813 31.3809 82.2954 31.3739 82.3025C31.3809 82.3378 31.395 82.3662 31.4021 82.4015C31.593 83.0026 31.7768 83.5824 32.187 84.0915C32.5971 84.5865 33.1346 84.7703 33.7568 84.8834C34.669 85.0602 35.666 84.2753 35.7367 83.3561C35.7791 82.8611 35.7933 82.3944 35.7579 81.8924C35.7155 81.355 35.5669 80.8106 35.4538 80.2732C35.1639 78.9509 34.7255 77.6639 34.2376 76.3981C33.382 74.1566 32.2577 72.0141 31.0839 69.9352C30.4688 68.8392 29.8464 67.7362 29.2313 66.6401C28.7151 65.5441 28.1777 64.4551 27.6615 63.3591C26.9191 61.7681 26.1624 60.1772 25.4129 58.5933C24.4654 56.5992 23.5179 54.6051 22.5775 52.604C22.132 51.6353 21.6724 50.6665 21.241 49.6836C22.3512 50.9635 23.4613 52.2434 24.5291 53.5515C25.2008 54.3788 25.8655 55.1991 26.5231 56.0264C27.0039 56.7052 27.4848 57.3982 27.9868 58.0699C30.1223 60.9974 32.3002 63.8965 34.4356 66.8239C34.4286 66.8168 34.4215 66.8098 34.4215 66.7956C35.0579 67.7573 35.7013 68.712 36.3377 69.6736C36.564 70.0272 36.762 70.4089 36.9741 70.7766C37.2358 71.2221 37.5115 71.6534 37.759 72.1131C38.5369 73.598 39.2581 75.1395 40.2481 76.4971C40.8632 77.3386 42.1855 77.4305 42.9068 76.681C43.2815 76.2921 43.5361 75.8678 43.5361 75.3163C43.5361 74.793 43.3452 74.3617 43.1189 73.9091C42.7159 73.0535 42.2987 72.2121 41.8532 71.3706C41.4148 70.5221 40.8703 69.723 40.3895 68.9028C40.2268 68.627 40.0288 68.3583 39.845 68.0896C39.449 67.4957 39.0389 66.9017 38.6429 66.3077C38.2116 65.6784 37.7802 65.0491 37.3277 64.4268C34.8811 61.0751 32.385 57.7588 29.8324 54.4849C29.6485 54.2445 29.4505 54.0041 29.2666 53.7637C28.7928 53.092 28.3333 52.4201 27.8737 51.7343C27.3858 50.9635 26.8979 50.1786 26.4383 49.3796C26.41 49.323 26.3817 49.2664 26.3463 49.217C29.8819 49.217 33.4173 49.3302 36.9458 49.4504C39.3287 49.5281 41.7118 49.7331 44.0876 49.8321C45.6645 49.9523 47.2342 50.0514 48.804 50.1645C50.5152 50.2918 52.2264 50.4332 53.9446 50.5252C53.8739 50.5252 53.7962 50.518 53.7184 50.511C57.3317 50.8433 60.9521 51.112 64.5654 51.4585C67.0615 51.706 69.5717 51.9394 72.0678 52.1869C73.8709 52.3637 75.6741 52.5828 77.4701 52.7808C78.9834 52.9505 80.4965 53.1344 82.0097 53.3182C83.0209 53.4384 84.0391 53.5657 85.0503 53.6859C85.7786 53.7779 86.514 53.8769 87.2494 53.9617C87.8221 54.0253 88.3878 54.0678 88.9606 54.0748C89.5263 54.089 90.1061 53.9899 90.6647 53.9404C91.0749 53.898 91.4143 53.7283 91.6689 53.4737C92.2841 52.8585 92.4254 51.8403 91.8739 51.105Z" fill="#0C0C0D"/>
</g>
<g clip-path="url(#clip1_2011_208)">
<path d="M91.4571 48.5217C91.1389 48.0904 90.8066 47.758 90.3329 47.5105C89.8733 47.263 89.3571 47.1711 88.848 47.0579C88.3247 46.9448 87.8155 46.7893 87.2994 46.6549C86.4862 46.4357 85.6871 46.2166 84.8527 46.0469C82.9506 45.6579 81.0556 45.2196 79.1393 44.9296C77.7887 44.7246 76.4382 44.5194 75.0876 44.3144C74.4583 44.2225 73.8502 44.1093 73.2209 44.0315C70.8804 43.7416 68.5328 43.4588 66.1852 43.1759C64.4457 42.9638 62.7061 42.8225 60.9596 42.6457C59.3191 42.4901 57.6787 42.3203 56.024 42.1789C51.6683 41.8112 47.3125 41.4153 42.9567 41.0051C41.8748 40.8991 40.8071 40.7789 39.7252 40.6445C39.2585 40.5879 38.7919 40.5172 38.3252 40.4607C40.3546 40.3687 42.3769 40.3687 44.3992 40.3263C46.1528 40.2839 47.8994 40.3617 49.6459 40.4112C51.3147 40.4536 52.9905 40.4749 54.6593 40.5739C57.0281 40.7082 59.3969 40.8426 61.7657 40.9769C61.7374 40.9769 61.7233 40.9768 61.7021 40.9698C63.9012 41.1748 66.1002 41.3234 68.2993 41.5002C70.053 41.6416 71.7925 41.8254 73.5462 41.9951C77.4494 42.3911 81.3385 42.8436 85.2275 43.3245C86.3236 43.4588 87.4125 43.6427 88.5226 43.7063C89.3075 43.7558 90.0429 43.1194 90.2338 42.3911C90.446 41.5426 90.0005 40.6304 89.1873 40.2981C89.1449 40.2839 89.1025 40.2697 89.0671 40.2485C89.1308 40.2839 89.1944 40.3051 89.258 40.3405C89.2863 40.3546 89.3146 40.3829 89.3429 40.397C88.9752 40.1708 88.5438 40.0789 88.1266 40.1284C87.4125 40.0506 86.6912 39.9374 85.9771 39.8455C84.9518 39.7253 83.9264 39.591 82.9011 39.4707C80.9778 39.2445 79.0474 38.9828 77.117 38.8061C74.9179 38.601 72.733 38.3676 70.5339 38.1484C68.6813 37.9646 66.8216 37.8444 64.9689 37.6888C63.3214 37.5544 61.6809 37.4272 60.0333 37.3352C58.6262 37.2575 57.212 37.1726 55.8048 37.0948C55.0624 37.0595 54.3199 36.9958 53.5845 36.9676C51.343 36.9039 49.1015 36.8544 46.867 36.7978C45.1417 36.7554 43.4375 36.805 41.7121 36.8474C40.2696 36.8757 38.8272 36.8898 37.3989 36.9746C36.5433 37.0241 35.6877 37.0878 34.8321 37.1655C33.9977 37.2363 33.1774 37.3635 32.336 37.4272C31.6289 37.4837 30.9642 37.5969 30.2995 37.8231C29.5853 38.0848 29.1539 38.6435 28.7084 39.2162C28.0791 40.0152 28.3125 41.3516 29.2388 41.8254C29.7833 42.1011 30.3136 42.3911 30.8652 42.6456C31.3884 42.886 31.9895 43.0204 32.5481 43.1547C32.5693 43.1618 32.5905 43.1689 32.6047 43.1689C31.9612 43.1477 31.3247 43.1336 30.6742 43.1336C28.0933 43.1124 25.5195 43.0982 22.9385 43.1052C23.7093 42.5042 24.4942 41.9032 25.2649 41.3021C26.9125 40.0364 28.567 38.7778 30.2358 37.5333C31.7844 36.3666 33.3824 35.2494 34.9593 34.1251C36.4725 33.0361 38.0564 32.032 39.612 30.9996C41.3727 29.9036 43.1264 28.7863 44.8942 27.7115C45.8134 27.1458 46.7397 26.5872 47.659 26.0357C48.2812 25.6538 48.8964 25.2791 49.5116 24.8902C50.3177 24.3952 51.1662 23.9427 51.8167 23.2497C52.4248 22.6134 52.5238 21.6375 51.9793 20.9234C51.4278 20.2021 50.4733 20.0536 49.6884 20.4566C42.6951 24.0416 36.02 28.2277 29.3661 32.4067C28.7368 32.8098 28.1075 33.1987 27.4711 33.5946C27.6266 33.4674 27.7893 33.333 27.9378 33.1987C28.4539 32.7673 28.956 32.3219 29.4863 31.9188C30.25 31.339 31.0137 30.7733 31.7703 30.2005C32.2723 29.8258 32.7744 29.4227 33.2906 29.0621C34.6482 28.1146 35.9988 27.1317 37.3776 26.2195C37.4837 26.1559 37.5898 26.0781 37.6888 26.0074C38.7353 25.3427 39.7747 24.671 40.8142 23.9992C42.9638 22.6133 45.071 21.1708 47.164 19.7C48.6136 18.7171 50.0702 17.7272 51.4349 16.6453C52.1915 16.0443 52.3683 14.9483 51.7672 14.1634C51.1662 13.3785 50.0702 13.2583 49.2923 13.824C47.7155 14.9625 46.1315 16.0938 44.5476 17.2111C44.088 17.5151 43.6426 17.8191 43.1829 18.1232C40.7293 19.7424 38.2685 21.3406 35.8361 22.9952C33.5804 24.4448 31.3247 25.8943 29.062 27.351C27.3861 28.4187 25.7457 29.55 24.0911 30.6531C22.5072 31.7137 20.9657 32.831 19.4242 33.9341C17.6706 35.1786 15.9876 36.5221 14.2835 37.8444C13.5127 38.4455 12.7986 39.103 12.0632 39.7394C11.6955 40.0505 11.3278 40.3758 10.9601 40.6869C10.4015 41.1748 9.84997 41.6698 9.34085 42.2072C8.8883 42.688 8.56303 43.2254 8.21655 43.7841C7.73572 44.5477 8.03271 45.5235 8.68325 46.0751C9.02973 46.365 9.38328 46.6337 9.83583 46.7468C10.2601 46.86 10.7338 46.8388 11.1581 46.7398C11.3843 46.6833 11.6107 46.6125 11.8369 46.5276C12.042 46.563 12.2612 46.5842 12.4804 46.5913C12.7845 46.6125 13.0744 46.6337 13.3784 46.6408C13.3714 46.6761 13.3572 46.7044 13.3502 46.7398C13.1663 47.4186 13.435 48.1681 13.9936 48.5995C14.6159 49.0661 15.521 49.0803 16.1362 48.5924C16.1503 48.5782 16.1573 48.5712 16.1714 48.5712C16.5816 49.2925 16.9918 50.0278 17.4019 50.7491C18.3423 52.4249 19.2898 54.1078 20.2162 55.7837C22.0051 59.0434 23.7941 62.3032 25.6114 65.5488C25.6538 65.6478 25.7033 65.7397 25.7387 65.8316C26.4458 67.3449 27.1104 68.8863 27.7893 70.4137C28.3974 71.7855 28.8782 73.2138 29.4015 74.6281C29.5995 75.2503 29.7833 75.8726 29.9813 76.4948C30.3207 77.5696 30.6036 78.6586 30.9642 79.7122C30.9571 79.7051 30.9642 79.698 30.9571 79.6909C30.9642 79.698 30.9642 79.7122 30.9571 79.7192C30.9642 79.7546 30.9783 79.7829 30.9853 79.8183C31.1762 80.4193 31.3601 80.9992 31.7702 81.5083C32.1803 82.0032 32.7178 82.187 33.3401 82.3002C34.2522 82.4769 35.2493 81.692 35.32 80.7728C35.3624 80.2778 35.3765 79.8111 35.3412 79.3091C35.2987 78.7717 35.1502 78.2273 35.037 77.6899C34.7471 76.3676 34.3088 75.0806 33.8209 73.8149C32.9653 71.5734 31.841 69.4308 30.6672 67.3519C30.052 66.2559 29.4297 65.1529 28.8145 64.0569C28.2983 62.9609 27.761 61.8718 27.2448 60.7758C26.5023 59.1848 25.7457 57.5939 24.9961 56.01C24.0486 54.016 23.1012 52.0219 22.1607 50.0207C21.7152 49.052 21.2556 48.0833 20.8243 47.1004C21.9344 48.3803 23.0446 49.6601 24.1123 50.9683C24.7841 51.7956 25.4487 52.6158 26.1064 53.4431C26.5872 54.122 27.068 54.8149 27.5701 55.4867C29.7055 58.4141 31.8834 61.3132 34.0189 64.2407C34.0118 64.2336 34.0047 64.2265 34.0047 64.2124C34.6411 65.174 35.2845 66.1287 35.9209 67.0904C36.1472 67.4439 36.3453 67.8257 36.5574 68.1934C36.819 68.6389 37.0948 69.0702 37.3423 69.5298C38.1201 71.0147 38.8414 72.5562 39.8313 73.9139C40.4465 74.7553 41.7688 74.8473 42.49 74.0977C42.8648 73.7088 43.1193 73.2846 43.1193 72.733C43.1193 72.2098 42.9284 71.7784 42.7022 71.3259C42.2991 70.4703 41.8819 69.6288 41.4364 68.7874C40.998 67.9388 40.4536 67.1398 39.9727 66.3196C39.8101 66.0438 39.6121 65.7751 39.4283 65.5064C39.0323 64.9124 38.6222 64.3184 38.2262 63.7245C37.7948 63.0951 37.3635 62.4658 36.911 61.8436C34.4644 58.4919 31.9683 55.1755 29.4156 51.9016C29.2318 51.6612 29.0337 51.4209 28.8499 51.1805C28.3761 50.5087 27.9166 49.8369 27.4569 49.151C26.969 48.3803 26.4811 47.5954 26.0215 46.7963C25.9932 46.7398 25.9649 46.6832 25.9296 46.6337C29.4651 46.6337 33.0006 46.7469 36.529 46.8671C38.912 46.9449 41.295 47.1499 43.6709 47.2489C45.2477 47.3691 46.8174 47.4682 48.3872 47.5813C50.0984 47.7086 51.8096 47.85 53.5279 47.9419C53.4572 47.9419 53.3795 47.9348 53.3017 47.9277C56.915 48.26 60.5354 48.5287 64.1487 48.8752C66.6448 49.1227 69.1549 49.3561 71.651 49.6036C73.4542 49.7804 75.2574 49.9995 77.0534 50.1975C78.5666 50.3672 80.0797 50.5511 81.593 50.735C82.6041 50.8552 83.6224 50.9825 84.6335 51.1027C85.3618 51.1946 86.0972 51.2936 86.8326 51.3785C87.4054 51.4421 87.9711 51.4845 88.5438 51.4916C89.1095 51.5057 89.6894 51.4067 90.248 51.3572C90.6581 51.3148 90.9976 51.145 91.2521 50.8905C91.8673 50.2753 92.0087 49.2571 91.4571 48.5217Z" fill="#6610F2"/>
</g>
<defs>
<clipPath id="clip0_2011_208">
<rect width="71" height="65" fill="white" transform="matrix(-0.707107 0.707107 0.707107 0.707107 50.6213 2.58325)"/>
</clipPath>
<clipPath id="clip1_2011_208">
<rect width="71" height="65" fill="white" transform="matrix(-0.707107 0.707107 0.707107 0.707107 50.2046 0)"/>
</clipPath>
</defs>
</svg>
