<svg width="272" height="232" viewBox="0 0 272 232" fill="none" xmlns="http://www.w3.org/2000/svg">
<path d="M2 115.488L30.544 2.71999H38.864L10.576 115.616L2 115.488ZM64.987 101.792C62.7683 101.792 61.1043 101.707 59.995 101.536C58.8857 101.365 57.819 101.152 56.795 100.896C55.8563 100.64 54.5763 100.427 52.955 100.256C51.3337 100.085 48.859 100 45.531 100L42.459 75.936H44.123C45.4883 83.9573 48.0483 90.016 51.803 94.112C55.5577 98.1227 59.6537 100.128 64.091 100.128C68.443 100.128 71.7283 99.232 73.947 97.44C76.251 95.648 77.403 93.216 77.403 90.144C77.403 88.1813 76.891 86.4747 75.867 85.024C74.9283 83.488 73.2643 81.952 70.875 80.416C68.4857 78.7947 65.243 76.8747 61.147 74.656L57.435 72.608C52.7417 69.9627 49.243 66.8907 46.939 63.392C44.7203 59.808 43.611 55.968 43.611 51.872C43.611 46.0693 45.7017 41.504 49.883 38.176C54.1497 34.848 59.8243 33.184 66.907 33.184C68.699 33.184 70.1497 33.2693 71.259 33.44C72.3683 33.6107 73.435 33.824 74.459 34.08C75.483 34.336 76.763 34.5493 78.299 34.72C79.835 34.8907 81.883 34.976 84.443 34.976L86.235 55.584H84.699C84.187 51.5733 83.035 48.032 81.243 44.96C79.5363 41.8027 77.4883 39.3707 75.099 37.664C72.7097 35.872 70.2777 34.976 67.803 34.976C64.5603 34.976 61.9577 35.8293 59.995 37.536C58.1177 39.2427 57.179 41.632 57.179 44.704C57.179 47.008 57.9043 49.1413 59.355 51.104C60.891 52.9813 63.7923 55.0293 68.059 57.248L71.899 59.168C77.8723 62.24 82.2243 65.44 84.955 68.768C87.6857 72.096 89.051 76.3627 89.051 81.568C89.051 94.88 81.0297 101.621 64.987 101.792ZM92.125 115.488L120.669 2.71999H128.989L100.701 115.616L92.125 115.488Z" fill="#0C0C0D"/>
<path d="M136 231.488L164.544 118.72H172.864L144.576 231.616L136 231.488ZM176.203 216V214.72L207.435 152.512H198.475C193.611 152.512 189.643 154.048 186.571 157.12C183.584 160.107 181.579 164.928 180.555 171.584H179.019L181.707 150.976H226.763V152.256L195.275 214.336H208.843C214.048 214.336 218.187 212.629 221.259 209.216C224.416 205.803 226.592 200.256 227.787 192.576H229.323L226.123 216H176.203ZM234.5 231.488L263.044 118.72H271.364L243.076 231.616L234.5 231.488Z" fill="#0C0C0D"/>
<path d="M134 230.488L162.544 117.72H170.864L142.576 230.616L134 230.488ZM174.203 215V213.72L205.435 151.512H196.475C191.611 151.512 187.643 153.048 184.571 156.12C181.584 159.107 179.579 163.928 178.555 170.584H177.019L179.707 149.976H224.763V151.256L193.275 213.336H206.843C212.048 213.336 216.187 211.629 219.259 208.216C222.416 204.803 224.592 199.256 225.787 191.576H227.323L224.123 215H174.203ZM232.5 230.488L261.044 117.72H269.364L241.076 230.616L232.5 230.488Z" fill="#6610F2"/>
<path d="M0 113.488L28.544 0.719994H36.864L8.576 113.616L0 113.488ZM62.987 99.792C60.7683 99.792 59.1043 99.7067 57.995 99.536C56.8857 99.3653 55.819 99.152 54.795 98.896C53.8563 98.64 52.5763 98.4267 50.955 98.256C49.3337 98.0853 46.859 98 43.531 98L40.459 73.936H42.123C43.4883 81.9573 46.0483 88.016 49.803 92.112C53.5577 96.1227 57.6537 98.128 62.091 98.128C66.443 98.128 69.7283 97.232 71.947 95.44C74.251 93.648 75.403 91.216 75.403 88.144C75.403 86.1813 74.891 84.4747 73.867 83.024C72.9283 81.488 71.2643 79.952 68.875 78.416C66.4857 76.7947 63.243 74.8747 59.147 72.656L55.435 70.608C50.7417 67.9627 47.243 64.8907 44.939 61.392C42.7203 57.808 41.611 53.968 41.611 49.872C41.611 44.0693 43.7017 39.504 47.883 36.176C52.1497 32.848 57.8243 31.184 64.907 31.184C66.699 31.184 68.1497 31.2693 69.259 31.44C70.3683 31.6107 71.435 31.824 72.459 32.08C73.483 32.336 74.763 32.5493 76.299 32.72C77.835 32.8907 79.883 32.976 82.443 32.976L84.235 53.584H82.699C82.187 49.5733 81.035 46.032 79.243 42.96C77.5363 39.8027 75.4883 37.3707 73.099 35.664C70.7097 33.872 68.2777 32.976 65.803 32.976C62.5603 32.976 59.9577 33.8293 57.995 35.536C56.1177 37.2427 55.179 39.632 55.179 42.704C55.179 45.008 55.9043 47.1413 57.355 49.104C58.891 50.9813 61.7923 53.0293 66.059 55.248L69.899 57.168C75.8723 60.24 80.2243 63.44 82.955 66.768C85.6857 70.096 87.051 74.3627 87.051 79.568C87.051 92.88 79.0297 99.6213 62.987 99.792ZM90.125 113.488L118.669 0.719994H126.989L98.701 113.616L90.125 113.488Z" fill="#6610F2"/>
</svg>