<svg width="216" height="216" viewBox="0 0 216 216" fill="none" xmlns="http://www.w3.org/2000/svg">
<path d="M107.15 26.2728C100.872 26.2728 94.7592 27.2232 88.884 28.5552C82.8144 29.9376 77.148 32.2704 71.6688 34.9128C66.1896 37.5552 59.7312 39.3192 54.9504 43.1352C50.148 46.9728 46.1736 52.1064 42.336 56.9088C38.4984 61.7112 35.9352 67.4424 33.2568 73.008C30.5784 78.5736 27.2232 83.9664 25.8408 90.036C24.4584 96.1056 24.0984 102.312 24.0984 108.598C24.0984 114.883 24.9912 121.169 26.3232 127.044C27.6552 132.919 31.32 138.362 33.9624 143.842C36.6048 149.321 40.1904 154.174 44.0064 158.947C47.8224 163.721 51.4584 168.574 56.2608 172.411C61.0632 176.249 66.4776 178.819 72.0432 181.505C77.6088 184.19 83.016 186.365 89.0856 187.74C95.1552 189.115 100.872 191.837 107.15 191.837C113.429 191.837 119.851 191.318 125.726 189.986C131.602 188.654 137.34 185.299 142.812 182.657C148.284 180.014 154.094 177.278 158.875 173.462C163.656 169.646 166.802 164.03 170.64 159.228C174.478 154.426 177.17 149.177 179.856 143.611C182.498 138.139 184.882 132.725 186.264 126.655C187.646 120.586 190.202 114.876 190.202 108.598C190.202 102.319 188.748 96.156 187.409 90.2808C186.026 84.2112 184.37 78.156 181.735 72.684C179.1 67.212 173.909 63.1944 170.086 58.4136C166.262 53.6328 163.022 48.3984 158.22 44.5608C153.439 40.7448 148.925 36.1008 143.359 33.4152C137.794 30.7296 131.479 29.9808 125.41 28.5984C119.534 27.2592 113.429 26.2728 107.15 26.2728ZM107.15 182.398C101.491 182.398 95.9688 182.009 90.6696 180.799C85.3704 179.59 79.812 177.984 74.88 175.608C69.948 173.232 66.3192 168.646 62.0136 165.204C57.708 161.762 53.3592 158.58 49.9032 154.253C46.4472 149.926 42.7824 145.778 40.356 140.76C37.9728 135.828 37.4688 130.255 36.2232 124.783C34.9776 119.311 34.0848 114.257 34.0848 108.59C34.0848 102.924 34.5312 97.5888 35.7408 92.2896C36.9504 86.9904 37.2672 81.0144 39.6504 76.0824C42.0336 71.1504 44.7912 65.9088 48.2328 61.6032C51.6744 57.2976 56.3688 53.7984 60.7032 50.3424C65.0376 46.8864 69.4944 43.2288 74.5128 40.8096C79.5312 38.3904 85.0032 36.7416 90.4752 35.5032C95.7744 34.3008 101.498 35.7192 107.158 35.7192C112.817 35.7192 118.037 36.54 123.329 37.7496C128.621 38.9592 134.309 39.5856 139.241 41.9688C144.173 44.352 148.457 47.9592 152.77 51.4008C157.097 54.8568 162.274 57.5568 165.73 61.8912C169.186 66.2256 172.721 70.848 175.14 75.8664C177.559 80.8848 179.035 86.4432 180.281 91.9152C181.526 97.3872 180.23 102.946 180.23 108.605C180.23 114.264 180.346 119.736 179.143 125.035C177.941 130.334 175.651 135.504 173.275 140.443C170.899 145.382 169.733 151.452 166.291 155.765C162.85 160.078 157.766 163.181 153.432 166.637C149.126 170.078 143.719 171.698 138.708 174.125C133.776 176.508 129.125 179.611 123.653 180.857C118.181 182.102 112.824 182.412 107.165 182.412L107.15 182.398Z" fill="#6610F2"/>
<path d="M107.15 190.339C100.843 190.339 94.5144 191.182 88.6104 189.835C82.7064 188.489 76.2912 186.761 70.7904 184.104C65.2896 181.447 60.552 176.882 55.7496 173.052C50.9472 169.222 47.3184 164.196 43.4664 159.372C39.6144 154.548 34.2576 150.574 31.5576 144.994C28.8576 139.414 29.6712 132.682 28.2816 126.598C26.892 120.514 25.8624 114.905 25.8624 108.598C25.8624 102.29 26.568 96.4152 27.9144 90.5184C29.2608 84.6216 30.1536 78.3 32.8104 72.8064C35.4672 67.3128 38.9592 62.0856 42.7968 57.2832C46.6344 52.4808 49.9968 46.8216 54.8136 42.9696C59.6304 39.1176 65.2464 35.8704 70.8264 33.1704C76.32 30.5136 82.6632 29.3832 88.7472 27.9936C94.6512 26.6472 100.836 26.64 107.143 26.64C113.45 26.64 119.75 26.1504 125.654 27.4968C131.558 28.8432 137.045 32.4216 142.546 35.0784C148.046 37.7352 153.13 41.076 157.932 44.9136C162.734 48.7512 167.832 52.3152 171.684 57.1392C175.536 61.9632 178.87 67.1832 181.57 72.7704C184.27 78.3576 185.522 84.312 186.912 90.4032C188.302 96.4944 190.598 102.305 190.598 108.605C190.598 114.905 189.331 121.154 187.985 127.051C186.638 132.948 184.694 139.169 182.038 144.662C179.338 150.242 174.442 154.411 170.611 159.206C166.781 164.002 163.987 169.985 159.17 173.837C154.368 177.674 149.155 181.541 143.568 184.241C137.981 186.941 131.472 187.142 125.388 188.532C119.304 189.922 113.45 190.346 107.15 190.346V190.339ZM107.15 26.1216C100.901 26.1216 95.004 28.3824 89.1504 29.7144C83.2968 31.0464 77.724 33.516 72.2736 36.1512C66.8232 38.7864 60.9696 40.9104 56.2104 44.712C51.4296 48.5352 46.3104 52.2576 42.4944 57.0384C38.6928 61.7976 37.4688 68.2272 34.7904 73.764C32.112 79.3008 27.2808 84.024 25.9056 90.0648C24.5304 96.1056 24.228 102.355 24.228 108.605C24.228 114.854 24.9408 121.212 26.2728 127.066C27.6048 132.919 30.9096 138.6 33.5448 144.05C36.18 149.501 39.3624 154.872 43.164 159.631C46.9656 164.39 52.3656 167.501 57.1464 171.324C61.9056 175.126 66.7008 178.459 72.2376 181.138C77.7744 183.816 82.9728 186.754 89.0064 188.129C95.04 189.504 100.901 190.872 107.15 190.872C113.4 190.872 119.333 188.964 125.186 187.632C131.227 186.257 137.542 185.674 142.992 183.038C148.442 180.403 153.95 177.07 158.71 173.268C163.49 169.445 167.141 164.275 170.957 159.494C174.773 154.714 178.006 149.558 180.684 144.022C183.362 138.485 186.134 132.991 187.51 126.958C188.842 121.104 187.92 114.869 187.92 108.619C187.92 102.37 187.769 96.3792 186.43 90.5256C185.09 84.672 182.844 78.8904 180.209 73.44C177.574 67.9896 175.824 61.6392 172.022 56.88C168.221 52.1208 162.252 49.3272 157.471 45.504C152.69 41.6808 147.499 38.9736 141.962 36.2952C136.512 33.66 131.486 29.7936 125.446 28.4184C119.405 27.0432 113.393 26.136 107.143 26.136L107.15 26.1216ZM107.15 182.246C101.462 182.246 95.7312 183.161 90.4104 181.944C84.9168 180.691 79.2576 179.208 74.304 176.81C69.2712 174.377 65.124 170.186 60.7968 166.73C56.448 163.253 53.2728 158.681 49.7952 154.332C46.3176 149.983 41.292 146.52 38.8584 141.48C36.4248 136.44 37.4256 130.284 36.1728 124.798C34.92 119.311 33.9552 114.286 33.9552 108.598C33.9552 102.91 34.5888 97.6392 35.8056 92.3184C37.0224 86.9976 37.7064 81.2736 40.104 76.32C42.5016 71.3664 45.6624 66.6576 49.1256 62.3304C52.5888 58.0032 55.5192 52.776 59.868 49.3056C64.1952 45.8496 69.3144 42.912 74.3472 40.4784C79.38 38.0448 85.068 37.152 90.5616 35.8992C96.0552 34.6464 101.47 34.7472 107.158 34.7472C112.846 34.7472 118.541 34.1856 123.862 35.4024C129.355 36.6552 134.086 39.9816 139.039 42.3792C144.072 44.8128 148.565 47.7864 152.892 51.2496C157.219 54.7128 161.885 57.8448 165.362 62.1936C168.84 66.5424 171.842 71.2584 174.276 76.2912C176.71 81.324 177.768 86.7168 179.021 92.2104C180.274 97.704 182.506 102.924 182.506 108.612C182.506 114.3 181.31 119.938 180.101 125.258C178.891 130.579 177.149 136.202 174.751 141.163C172.354 146.124 167.753 149.846 164.297 154.181C160.841 158.515 158.479 164.052 154.13 167.522C149.782 170.993 145.102 174.521 140.062 176.954C135.022 179.388 129.082 179.395 123.595 180.648C118.274 181.865 112.838 182.261 107.158 182.261L107.15 182.246ZM107.15 34.2216C101.52 34.2216 96.2208 36.4104 90.9504 37.6128C85.68 38.8152 80.6976 41.076 75.78 43.4448C70.8624 45.8136 65.5344 47.6064 61.2504 51.0336C56.9664 54.4608 52.2576 57.7656 48.816 62.0784C45.3744 66.3912 44.4888 72.2808 42.0768 77.2704C39.6648 82.26 35.028 86.4216 33.7896 91.8576C32.5512 97.2936 32.3136 102.967 32.3136 108.598C32.3136 114.228 32.9544 119.981 34.1568 125.251C35.3952 130.694 38.4552 135.612 40.8312 140.522C43.2072 145.433 46.0584 150.286 49.4856 154.57C52.9128 158.854 57.8736 161.539 62.1864 164.981C66.4992 168.422 70.7544 171.41 75.744 173.822C80.6544 176.198 85.3632 178.97 90.8064 180.209C96.2496 181.447 101.52 182.75 107.15 182.75C112.781 182.75 118.109 180.914 123.379 179.712C128.822 178.474 134.561 178.092 139.471 175.716C144.382 173.34 149.371 170.338 153.655 166.91C157.961 163.469 161.179 158.724 164.621 154.418C168.062 150.113 170.971 145.469 173.383 140.479C175.795 135.49 178.366 130.565 179.611 125.122C180.857 119.678 179.82 114.214 179.82 108.583C179.82 102.953 179.734 97.5672 178.531 92.2896C177.293 86.8464 175.284 81.828 172.908 76.9176C170.496 71.928 169.114 66.1824 165.686 61.8912C162.259 57.6 156.722 55.2384 152.417 51.7968C148.126 48.3696 143.431 45.972 138.442 43.56C133.531 41.184 129.074 37.5264 123.638 36.288C118.368 35.0856 112.774 34.2072 107.136 34.2072L107.15 34.2216Z" fill="#6610F2"/>
<path d="M86.0184 114.408L85.8888 119.714L86.0256 125.021L87.1704 130.327L86.1264 135.634L87.516 140.94L87.2928 146.246L87.6024 151.553L87.3072 156.859L87.4872 161.489C87.9768 161.87 88.704 162.238 89.1288 162.403C89.4528 162.526 89.7408 162.583 90.0072 162.626C90.7056 162.245 91.3608 161.791 91.9368 161.366L93.384 159.278L98.3448 156.78L101.563 152.532L104.998 148.5L108.886 144.929L113.666 142.25L116.158 137.261L120.125 133.769L124.445 130.637L128.225 126.95L131.011 122.278L134.834 118.642L139.284 115.639L141.826 111.773L139.234 107.957L135.67 104.026L131.234 100.994L127.224 97.5384L124.02 93.276L121.126 88.6968L117.346 85.0104L112.241 82.6632L108.799 78.6456L105.768 74.2104L101.275 71.244L98.0352 67.0248L94.4856 63.108L90.4968 59.6376L86.8464 56.5992L85.968 61.3728L86.9904 66.6864L85.8816 71.9928L87.6456 77.2992L86.7096 82.6056L87.3864 87.912L85.9464 93.2184L85.6584 98.5248L85.5216 103.824L86.1624 109.13L86.0184 114.437V114.408Z" fill="#6610F2"/>
<path d="M91.1304 154.411V117.648V80.8848V60.084C91.1304 57.7656 87.5304 57.7656 87.5304 60.084V154.411C87.5304 156.73 91.1304 156.73 91.1304 154.411Z" fill="#0C0C0D"/>
<path d="M92.4624 158.112C106.43 143.798 120.391 129.478 134.359 115.164C138.29 111.132 142.222 107.107 146.153 103.075C146.801 102.413 146.894 101.182 146.153 100.526L103.046 62.7336C99.0072 59.1912 94.9608 55.6488 90.9216 52.1064C90.1944 51.4656 89.0928 51.3864 88.3728 52.1064C87.7176 52.7616 87.6384 54.0072 88.3728 54.6552L131.479 92.448C135.518 95.9904 139.565 99.5328 143.604 103.075V100.526C129.636 114.84 115.675 129.161 101.707 143.474C97.776 147.506 93.8448 151.531 89.9136 155.563C88.2936 157.219 90.8352 159.768 92.4624 158.112Z" fill="#0C0C0D"/>
<path d="M111.06 30.6864H110.354C110.11 30.6792 109.872 30.7296 109.663 30.8448C109.44 30.9168 109.246 31.0392 109.087 31.2192C108.914 31.3848 108.785 31.572 108.713 31.7952C108.598 32.0112 108.547 32.2416 108.554 32.4864L108.619 32.9616C108.706 33.264 108.857 33.5304 109.08 33.7536L109.447 34.0344C109.728 34.2 110.03 34.2792 110.354 34.2792H111.06C111.305 34.2864 111.542 34.236 111.751 34.1208C111.974 34.0488 112.169 33.9264 112.327 33.7464C112.5 33.5808 112.63 33.3936 112.702 33.1704C112.817 32.9544 112.867 32.724 112.86 32.4792L112.795 32.004C112.712 31.7047 112.554 31.4318 112.334 31.212L111.967 30.9312C111.686 30.7656 111.384 30.6864 111.06 30.6864Z" fill="#0C0C0D"/>
<path d="M112.147 34.3512C126.972 33.372 141.646 39.2112 152.82 48.7944C163.994 58.3776 171.864 71.1936 177.041 84.816C179.834 92.1528 181.843 99.7272 182.124 107.597C182.376 114.89 181.346 122.17 179.208 129.139C174.96 142.999 166.349 155.045 155.059 164.066C143.849 173.023 130.104 178.934 115.97 181.296C107.842 182.65 99.5688 182.477 91.5984 180.288C84.096 178.229 77.0976 174.715 70.4736 170.669C63.7416 166.55 57.0888 162.029 51.9336 155.974C47.2104 150.422 43.8048 143.806 41.1624 137.052C39.7872 133.531 38.5848 129.946 37.4832 126.331C36.2448 122.27 35.0856 118.166 34.452 113.962C33.264 106.02 34.956 98.0928 37.3104 90.5184C41.5656 76.8024 49.068 64.0152 59.508 54.0936C70.1424 43.9848 83.952 37.0584 98.5464 35.1216C102.103 34.6464 105.71 34.5024 109.296 34.632C111.614 34.7184 111.607 31.1184 109.296 31.032C93.7728 30.4488 78.2496 35.5176 65.6136 44.46C52.9776 53.4024 43.7616 65.4912 37.6992 79.2792C34.5672 86.4144 32.112 93.996 30.9744 101.722C30.312 106.207 30.3192 110.606 31.0104 115.085C31.7016 119.563 32.868 123.574 34.1424 127.721C36.432 135.158 39.132 142.553 42.9912 149.335C44.8848 152.669 47.0808 155.844 49.5864 158.753C52.2792 161.878 55.3896 164.585 58.68 167.069C65.1384 171.95 72.2088 176.278 79.5672 179.654C87.156 183.139 95.22 185.472 103.601 185.753C112.054 186.041 120.578 184.478 128.621 181.958C135.641 179.755 142.423 176.717 148.702 172.879C161.424 165.103 172.138 153.979 178.61 140.479C185.285 126.569 187.603 110.599 184.133 95.4864C182.333 87.6456 179.287 79.992 175.658 72.828C172.03 65.664 167.962 59.5296 162.914 53.7552C152.762 42.1416 138.787 33.4512 123.372 31.2408C119.65 30.708 115.906 30.5136 112.147 30.7656C111.175 30.8304 110.347 31.5504 110.347 32.5656C110.347 33.4872 111.175 34.4304 112.147 34.3656V34.3512Z" fill="#0C0C0D"/>
<path d="M112.14 25.5384C129.118 24.4008 145.994 30.8952 158.947 41.7168C171.799 52.452 181.001 67.0464 186.926 82.5912C190.289 91.404 192.91 100.728 192.73 110.232C192.564 118.987 190.217 127.764 187.063 135.9C181.318 150.739 171.67 164.095 159.257 174.06C146.182 184.55 129.773 190.966 113.054 192.161C104.314 192.787 95.6016 191.959 87.12 189.77C82.476 188.575 77.9256 187.042 73.44 185.35C68.9544 183.658 64.9224 181.994 61.02 179.59C53.352 174.859 47.736 167.27 42.7248 159.941C37.4832 152.273 32.8392 144.079 29.3616 135.454C26.0208 127.181 23.724 118.426 23.3352 109.49C22.9752 101.398 24.0624 93.312 26.3664 85.5504C31.0392 69.84 40.5936 55.8936 53.244 45.5256C66.0384 35.0424 81.7056 28.3248 97.884 25.2072C101.772 24.4584 105.696 23.9328 109.642 23.6088C110.614 23.5296 111.442 22.8384 111.442 21.8088C111.442 20.8944 110.614 19.9296 109.642 20.0088C92.4552 21.4128 75.4848 26.5752 60.8112 35.7192C46.2744 44.784 34.3296 57.744 27.1512 73.3608C23.5944 81.0936 21.2112 89.28 20.196 97.7256C19.1808 106.171 19.7424 115.229 21.7944 123.746C24.0336 133.02 27.8928 141.876 32.5008 150.206C37.1088 158.537 42.6168 166.817 49.0464 173.988C52.1424 177.444 55.6344 180.54 59.6232 182.938C63.72 185.4 68.184 187.186 72.6408 188.87C81.6552 192.269 90.9576 194.904 100.591 195.689C118.159 197.129 136.13 192.766 151.301 183.859C165.78 175.356 177.61 162.598 185.508 147.823C189.418 140.515 192.42 132.689 194.335 124.618C195.509 119.686 196.308 114.61 196.33 109.534C196.351 104.458 195.66 99.6768 194.544 94.8816C192.449 85.9176 188.986 77.1552 184.774 68.976C180.821 61.2936 175.961 54.0432 170.194 47.5992C158.465 34.4952 142.459 24.8688 124.898 22.4208C120.665 21.8304 116.402 21.636 112.133 21.924C111.161 21.9888 110.333 22.7016 110.333 23.724C110.333 24.6456 111.161 25.5888 112.133 25.524L112.14 25.5384Z" fill="#0C0C0D"/>
</svg>
