<?xml version="1.0" encoding="utf-8"?>
<!-- Generator: Adobe Illustrator 26.5.0, SVG Export Plug-In . SVG Version: 6.00 Build 0)  -->
<svg version="1.1" id="Capa_1" xmlns="http://www.w3.org/2000/svg" xmlns:xlink="http://www.w3.org/1999/xlink" x="0px" y="0px"
	 viewBox="0 0 595.28 841.89" style="enable-background:new 0 0 595.28 841.89;" xml:space="preserve">
<style type="text/css">
	.st0{fill:#FFFFFF;}
</style>
<g>
	<path d="M272.6,497.06c2.34,0,4.43,0,6.87,0c-0.16,3.1,1.18,6.2-1.34,9.02c-1.43,1.6-1.96,3.69-1.96,5.85
		c-0.01,7.97-0.08,15.94,0.02,23.91c0.06,5.33,3.79,9.34,9.07,10.09c0.5,0.07,1,0.14,1.5,0.14c7.38,0.01,14.77,0.04,22.15-0.01
		c3.26-0.02,6.03-1.26,8.15-3.82c1.69-2.03,2.39-4.41,2.4-6.99c0.03-7.55,0.03-15.1,0-22.65c-0.01-2.67-0.75-5.11-2.48-7.23
		c-0.45-0.55-0.85-1.29-0.89-1.97c-0.12-2-0.04-4.01-0.04-6.21c2.36,0,4.57,0,7.02,0c0.17,3.32,0.36,6.56,0.5,9.81
		c0.62,13.82,1.24,27.64,1.83,41.47c0.26,6.03,0.44,12.07,0.68,18.1c0.48,12.4,0.98,24.8,1.47,37.2c0.17,4.36,0.49,8.71,0.48,13.07
		c-0.01,3.42-0.07,6.91-0.74,10.25c-1.81,9.02-7.57,14.42-16.49,16.2c-8.63,1.72-17.37,1.71-26.01,0.01
		c-9.96-1.96-15.79-8.73-17.08-18.88c-0.61-4.8-0.08-9.55,0.05-14.32c0.27-9.81,0.72-19.61,1.11-29.41
		c0.51-12.82,1.02-25.64,1.54-38.46c0.32-7.79,0.63-15.58,0.98-23.37c0.3-6.78,0.65-13.57,0.98-20.35
		C272.4,498.1,272.5,497.7,272.6,497.06z M297.71,634.85c6.15-0.19,11.63-1.96,16.27-5.96c8.69-7.5,9.55-19.85,1.98-28.26
		c-9.31-10.35-26.73-10.45-36.16-0.19c-7.09,7.7-7.1,19.03,0.01,26.7C284.66,632.35,290.8,634.61,297.71,634.85z"/>
	<path d="M283.82,466.74c0-15.61,0-31.21,0-46.82c0-0.76-0.02-1.51,0.01-2.27c0.13-3.05,1.97-5.16,5-5.23
		c5.95-0.13,11.92-0.12,17.87,0c2.91,0.05,4.8,2.02,5.12,4.91c0.07,0.66,0.03,1.34,0.03,2.01c0,31.63,0.01,63.26-0.01,94.89
		c0,1.16-0.05,2.38-0.41,3.46c-0.65,2-2.15,3.28-4.29,3.31c-6.21,0.08-12.42,0.08-18.63,0.01c-2.51-0.03-4.4-1.96-4.66-4.44
		c-0.09-0.83-0.05-1.68-0.05-2.51C283.82,498.29,283.82,482.52,283.82,466.74z"/>
	<path d="M279.44,421.35c0,23.88,0,47.31,0,71.01c-3.82,0-7.47,0-11.4,0c-0.37,7.49-0.73,14.72-1.11,22.34
		c-2.38-1.94-3.35-4.21-3.61-6.84c-0.08-0.83-0.08-1.68,0-2.51c0.73-7.02-0.61-13.86-1.83-20.71c-1.36-7.68-3.2-15.24-5.87-22.58
		c-1.79-4.94-1.49-9.96,0.21-14.8c3.69-10.54,10.68-18.45,20.12-24.27C276.94,422.37,278.05,421.99,279.44,421.35z"/>
	<path d="M328.65,514.31c-0.36-7.19-0.73-14.41-1.11-21.91c-3.85,0-7.5,0-11.31,0c0-23.77,0-47.25,0-71.01
		c1.24,0.56,2.35,0.93,3.32,1.53c9.58,5.92,16.67,13.93,20.31,24.71c1.74,5.15,1.72,10.33-0.23,15.51
		c-3.32,8.82-4.98,18.06-6.56,27.31c-0.91,5.32-1.19,10.65-0.87,16.02c0.17,2.92-0.72,5.44-2.7,7.59c-0.11,0.12-0.25,0.22-0.4,0.3
		C329.06,514.38,328.96,514.34,328.65,514.31z"/>
	<path d="M391.79,271.85c-0.61,1.09-0.97,2.17-1.68,2.91c-3.02,3.15-6.09,6.24-9.24,9.26c-1.88,1.8-3.96,1.8-5.82-0.03
		c-5.09-4.99-10.13-10.03-15.11-15.13c-1.65-1.68-1.7-3.96-0.09-5.66c3.12-3.28,6.32-6.49,9.61-9.6c1.68-1.59,3.96-1.45,5.65,0.21
		c5.02,4.94,10,9.92,14.93,14.96C390.8,269.56,391.17,270.73,391.79,271.85z"/>
	<path d="M271.5,385.12c3.36,0,6.71-0.03,10.07,0.01c3.11,0.03,4.65,1.53,4.69,4.62c0.05,4.03,0.05,8.05,0.01,12.08
		c-0.04,3.18-1.63,4.74-4.87,4.75c-6.63,0.04-13.25,0.03-19.88,0c-3.43-0.02-4.87-1.49-4.9-4.92c-0.03-3.86-0.02-7.72,0-11.57
		c0.02-3.58,1.42-4.93,5.07-4.96C264.95,385.1,268.22,385.12,271.5,385.12z"/>
	<path d="M324.16,406.58c-3.27,0-6.54,0.02-9.81-0.01c-3.43-0.03-4.94-1.48-4.98-4.88c-0.05-3.94-0.04-7.88,0.01-11.83
		c0.05-3.35,1.45-4.73,4.78-4.75c6.71-0.03,13.42-0.03,20.13,0c3.22,0.02,4.73,1.55,4.77,4.82c0.04,3.94,0.05,7.88,0,11.83
		c-0.04,3.21-1.6,4.76-4.83,4.8C330.87,406.62,327.52,406.58,324.16,406.58z"/>
	<path d="M462.37,211.95c4.91-0.28,6.38,0.99,6.72,4.54c0.61,6.41,1.25,12.81,1.88,19.22c0.36,3.63-0.99,5.34-4.64,5.73
		c-3.74,0.4-7.49,0.77-11.24,1.07c-3.65,0.29-5.22-1.13-5.57-4.79c-0.59-6.24-1.2-12.48-1.85-18.72c-0.42-4.03,0.96-5.74,4.98-6.1
		C456.33,212.57,459.99,212.19,462.37,211.95z"/>
	<path d="M253.83,290.53c1.96-0.14,3.07,0.45,3.83,1.53c2.6,3.71,5.22,7.41,7.67,11.21c1.46,2.27,0.82,4.28-1.67,6
		c-4.62,3.19-9.28,6.35-13.92,9.52c-0.97,0.66-1.91,1.37-2.91,1.98c-2.43,1.5-4.54,1.18-6.15-1.09c-2.48-3.49-4.89-7.02-7.23-10.6
		c-1.49-2.27-1.09-4.33,1.17-5.91c5.77-4.04,11.6-7.99,17.44-11.94C252.72,290.78,253.58,290.62,253.83,290.53z"/>
	<path d="M322.25,336.26c0.28,0.07,0.93,0.23,1.57,0.42c6.12,1.75,12.25,3.48,18.37,5.25c3.69,1.07,4.63,2.85,3.56,6.62
		c-1.01,3.55-2.02,7.09-3.06,10.63c-1.01,3.43-2.8,4.44-6.26,3.46c-6.29-1.77-12.55-3.66-18.85-5.39c-2.7-0.74-4.56-2.95-3.43-6.34
		c1.27-3.82,2.25-7.73,3.43-11.57C318.27,337.11,319.72,336.13,322.25,336.26z"/>
	<path d="M147.85,218.74c-0.58,6.39-1.12,12.57-1.72,18.74c-0.1,0.99-0.29,2.02-0.72,2.9c-0.76,1.58-2.18,2.29-3.93,2.16
		c-2.34-0.17-4.68-0.4-7.01-0.61c-1.84-0.17-3.68-0.29-5.5-0.53c-3.2-0.42-4.53-1.87-4.28-5.01c0.53-6.68,1.12-13.36,1.83-20.02
		c0.38-3.64,1.85-4.75,5.56-4.46c3.76,0.29,7.51,0.69,11.27,1.03c3.39,0.31,4.7,1.82,4.54,5.28
		C147.87,218.46,147.85,218.71,147.85,218.74z"/>
	<path d="M281.79,352.65c0.03,2.15-0.99,3.63-3.06,4.3c-2.71,0.87-5.46,1.62-8.2,2.42c-3.78,1.1-7.56,2.22-11.35,3.28
		c-3.46,0.97-5.26-0.01-6.28-3.44c-1.13-3.77-2.22-7.56-3.27-11.36c-0.78-2.82,0.21-4.8,3.01-5.65c6.58-1.98,13.18-3.89,19.79-5.75
		c2.75-0.77,4.77,0.25,5.58,2.85c1.3,4.16,2.45,8.36,3.66,12.55C281.76,352.17,281.77,352.51,281.79,352.65z"/>
	<path d="M428.24,246.09c-0.07,1.9-0.78,3.18-2.19,4.01c-3.76,2.2-7.52,4.42-11.34,6.51c-2.21,1.22-4.36,0.65-5.65-1.52
		c-3.62-6.14-7.18-12.31-10.69-18.51c-1.2-2.12-0.71-4.19,1.37-5.48c3.85-2.37,7.78-4.64,11.76-6.79c2.08-1.12,4.21-0.44,5.43,1.63
		c3.62,6.14,7.15,12.33,10.69,18.51C427.96,245.02,428.1,245.7,428.24,246.09z"/>
	<path d="M350.77,321.61c-0.33-0.14-1.24-0.36-1.98-0.85c-5.77-3.89-11.53-7.79-17.23-11.77c-2.19-1.53-2.62-3.72-1.18-5.93
		c2.39-3.64,4.85-7.25,7.38-10.79c1.48-2.07,3.64-2.46,5.75-1.05c5.85,3.92,11.66,7.9,17.44,11.92c2.19,1.52,2.62,3.74,1.19,5.93
		c-2.35,3.57-4.8,7.08-7.22,10.6C354.07,320.9,352.94,321.69,350.77,321.61z"/>
	<path d="M197.7,235.11c-0.13,0.34-0.32,1.17-0.72,1.88c-3.37,5.89-6.75,11.78-10.17,17.64c-1.58,2.7-3.65,3.28-6.33,1.78
		c-3.51-1.97-6.99-3.97-10.45-6.03c-2.8-1.66-3.36-3.69-1.73-6.56c3.31-5.83,6.67-11.63,10.06-17.41c1.59-2.71,3.64-3.29,6.35-1.78
		c3.59,1.99,7.13,4.08,10.68,6.14C196.85,231.62,197.8,232.82,197.7,235.11z"/>
	<path d="M223.3,252.25c1.09,0.52,2.23,0.78,2.96,1.47c3.16,3,6.26,6.07,9.27,9.22c1.96,2.05,1.89,4.15-0.14,6.21
		c-4.83,4.9-9.69,9.76-14.59,14.59c-2.16,2.13-4.2,2.12-6.37,0.01c-3-2.92-5.97-5.89-8.89-8.9c-1.84-1.9-1.89-4.16-0.05-6.03
		c4.94-5.02,9.92-10,14.95-14.93C221.17,253.18,222.26,252.84,223.3,252.25z"/>
	<path class="st0" d="M297.71,634.85c-6.91-0.24-13.05-2.5-17.9-7.72c-7.11-7.67-7.1-19-0.01-26.7
		c9.44-10.25,26.85-10.16,36.16,0.19c7.57,8.42,6.71,20.76-1.98,28.26C309.34,632.9,303.86,634.66,297.71,634.85z"/>
</g>
</svg>
