<svg width="10" height="10" viewBox="0 0 10 10" fill="none" xmlns="http://www.w3.org/2000/svg">
<path d="M5.37131 9.99974H4.59003C4.5822 9.97365 4.55949 9.98148 4.54174 9.97939C4.37364 9.96165 4.20657 9.93764 4.0403 9.90581C1.97525 9.51212 0.350309 7.81313 0.0537731 5.74001C0.0391552 5.63696 0.0488135 5.52895 0 5.43163V4.57274C0.0409825 4.52813 0.0276697 4.46995 0.0336735 4.41881C0.173066 3.26772 0.641362 2.26769 1.47406 1.46516C2.84711 0.141347 4.48327 -0.287313 6.328 0.187005C8.44969 0.732548 9.97831 2.72557 9.99972 4.91348C10.0099 5.94952 9.74521 6.90728 9.16336 7.76591C8.33823 8.98275 7.19464 9.7104 5.73963 9.94521C5.61694 9.96504 5.49034 9.95826 5.37131 10V9.99974ZM5.51201 5.72436C5.51201 5.3244 5.50888 4.92444 5.51384 4.52448C5.51566 4.38411 5.45171 4.29489 5.33268 4.2414C5.12072 4.14591 4.90301 4.14435 4.68844 4.22992C4.5561 4.28262 4.49032 4.38124 4.4911 4.53309C4.49502 5.32988 4.49528 6.12641 4.4911 6.9232C4.49032 7.06617 4.55088 7.16192 4.66887 7.22167C4.89597 7.33646 5.12594 7.33307 5.34991 7.20967C5.46032 7.14888 5.51645 7.05913 5.51436 6.9245C5.50835 6.52454 5.51227 6.12458 5.51227 5.72462L5.51201 5.72436ZM5.02283 3.56358C5.14056 3.56515 5.26638 3.51949 5.3734 3.42556C5.59084 3.23485 5.58327 2.92959 5.358 2.74853C5.14369 2.57607 4.81713 2.58468 4.61248 2.76836C4.42141 2.93977 4.40992 3.20615 4.58716 3.39191C4.69862 3.50853 4.83723 3.56332 5.02283 3.56384V3.56358Z" fill="#6610F2"/>
</svg>
