<svg width="1067" height="148" viewBox="0 0 1067 148" fill="none" xmlns="http://www.w3.org/2000/svg">
<path fill-rule="evenodd" clip-rule="evenodd" d="M108.487 19.2236C79.1889 57.2536 44.5616 91.2324 6.08693 119.905C-8.44795 130.746 5.74494 155.51 20.4793 144.526C63.172 112.715 100.621 75.7979 133.11 33.6025C144.311 19.0809 119.545 4.84464 108.515 19.1951L108.487 19.2236ZM35.8977 6.55642C26.7493 20.5645 19.5388 35.5425 13.8389 51.2339C11.2169 58.4804 16.8028 66.8681 23.7853 68.7796C31.7082 70.9478 38.6622 66.0693 41.3127 58.8227C46.1861 45.4138 52.7126 32.8893 60.493 20.9639C70.5534 5.55789 45.9011 -8.764 35.8977 6.55642Z" fill="#6610F2"/>
<path fill-rule="evenodd" clip-rule="evenodd" d="M1054.71 92.8644C1025.93 68.6427 994.207 49.8987 959.152 36.2901C942.052 29.6427 934.642 57.2308 951.571 63.7926C981.752 75.5183 1009.8 92.1797 1034.56 113.035C1048.53 124.761 1068.79 104.704 1054.71 92.8644ZM1062.12 46.5322C1048.08 31.5411 1033.31 17.2495 1017.86 3.70921C1004.12 -8.3303 983.89 11.7546 997.712 23.8797C1013.16 37.4312 1027.92 51.6961 1041.97 66.7027C1054.54 80.1116 1074.66 59.9126 1062.12 46.5322Z" fill="#6610F2"/>
</svg>
