<svg width="793" height="797" viewBox="0 0 793 797" fill="none" xmlns="http://www.w3.org/2000/svg">
<path d="M781.357 92.964C752.606 68.7958 720.922 50.0932 685.908 36.5146C668.828 29.8819 661.427 57.4092 678.336 63.9565C708.482 75.6563 736.494 92.2808 761.231 113.09C775.18 124.79 795.419 104.778 781.357 92.964ZM788.758 46.7342C774.731 31.7761 759.977 17.5161 744.55 4.00571C730.829 -8.00723 710.617 12.0333 724.424 24.1316C739.853 37.6533 754.598 51.8866 768.632 66.8601C781.186 80.2394 801.284 60.085 788.758 46.7342ZM108.433 19.4916C79.1697 57.4376 44.5827 91.3414 6.15266 119.95C-8.36534 130.768 5.81106 155.477 20.5283 144.517C63.1714 112.777 100.577 75.941 133.029 33.8388C144.216 19.3492 119.478 5.14437 108.462 19.4631L108.433 19.4916ZM35.9288 6.85237C26.791 20.8295 19.5889 35.7745 13.8956 51.4312C11.2767 58.6617 16.8561 67.0309 23.8305 68.9382C31.7442 71.1016 38.6901 66.2338 41.3375 59.0033C46.2053 45.624 52.7241 33.1271 60.4955 21.228C70.5443 5.85604 45.9206 -8.43423 35.9288 6.85237ZM119.82 775.054C97.6161 734.802 67.2137 700.784 30.3209 673.456C15.5751 662.554 1.37026 687.234 15.9452 698.023C48.8242 722.39 75.4975 753.618 95.2249 789.401C104.078 805.456 128.673 791.109 119.792 775.025L119.82 775.054ZM62.5451 770.499C54.1759 754.359 42.5331 740.04 28.2997 728.739C22.2933 723.956 14.0379 722.874 8.17379 728.739C3.22059 733.692 2.11039 744.054 8.17379 748.864C20.7276 758.828 30.6055 770.613 37.9784 784.875C46.433 801.129 70.9997 786.754 62.5451 770.499ZM755.395 696.315C730.202 711.886 707.087 730.39 686.534 751.711C673.81 764.891 693.907 785.046 706.66 771.837C725.619 752.195 746.542 735.229 769.771 720.882C785.342 711.26 771.052 686.636 755.395 696.315ZM785.655 735.4C778.567 731.642 770.511 733.834 766.184 740.495L752.691 761.247C748.62 767.51 751.211 777.246 757.787 780.719C764.875 784.476 772.931 782.284 777.258 775.623L790.751 754.871C794.822 748.608 792.231 738.873 785.655 735.4Z" fill="#6610F2"/>
</svg>
