<svg width="854" height="312" viewBox="0 0 854 312" fill="none" xmlns="http://www.w3.org/2000/svg">
<g clip-path="url(#clip0_12_1598)">
<path d="M811.357 -408.036C782.606 -432.204 750.922 -450.907 715.908 -464.485C698.828 -471.118 691.427 -443.591 708.336 -437.043C738.482 -425.344 766.494 -408.719 791.231 -387.91C805.18 -376.21 825.419 -396.222 811.357 -408.036ZM818.758 -454.266C804.731 -469.224 789.977 -483.484 774.55 -496.994C760.829 -509.007 740.617 -488.967 754.424 -476.868C769.853 -463.347 784.598 -449.113 798.632 -434.14C811.186 -420.761 831.284 -440.915 818.758 -454.266ZM138.433 -481.508C109.17 -443.562 74.5827 -409.659 36.1527 -381.05C21.6347 -370.232 35.8111 -345.523 50.5283 -356.483C93.1714 -388.223 130.577 -425.059 163.029 -467.161C174.216 -481.651 149.478 -495.856 138.462 -481.537L138.433 -481.508ZM65.9288 -494.148C56.791 -480.17 49.5889 -465.225 43.8956 -449.569C41.2767 -442.338 46.8561 -433.969 53.8305 -432.062C61.7442 -429.898 68.6901 -434.766 71.3375 -441.997C76.2053 -455.376 82.7241 -467.873 90.4955 -479.772C100.544 -495.144 75.9206 -509.434 65.9288 -494.148ZM149.82 274.054C127.616 233.802 97.2137 199.784 60.3209 172.456C45.5751 161.554 31.3703 186.234 45.9452 197.023C78.8242 221.39 105.497 252.618 125.225 288.401C134.078 304.456 158.673 290.109 149.792 274.025L149.82 274.054ZM92.5451 269.499C84.1759 253.359 72.5331 239.04 58.2997 227.739C52.2933 222.956 44.0379 221.874 38.1738 227.739C33.2206 232.692 32.1104 243.054 38.1738 247.864C50.7276 257.828 60.6055 269.613 67.9784 283.875C76.433 300.129 101 285.754 92.5451 269.499ZM785.395 195.315C760.202 210.886 737.087 229.39 716.534 250.711C703.81 263.891 723.907 284.046 736.66 270.837C755.619 251.195 776.542 234.229 799.771 219.882C815.342 210.26 801.052 185.636 785.395 195.315ZM815.655 234.4C808.567 230.642 800.511 232.834 796.184 239.495L782.691 260.247C778.62 266.51 781.211 276.246 787.787 279.719C794.875 283.476 802.931 281.284 807.258 274.623L820.751 253.871C824.822 247.608 822.231 237.873 815.655 234.4Z" fill="#6610F2"/>
</g>
<defs>
<clipPath id="clip0_12_1598">
<rect width="854" height="312" fill="white"/>
</clipPath>
</defs>
</svg>
