<svg width="1064" height="126" viewBox="0 0 1064 126" fill="none" xmlns="http://www.w3.org/2000/svg">
<path fill-rule="evenodd" clip-rule="evenodd" d="M1026.01 21.2182C1000.79 36.8239 977.643 55.3681 957.067 76.7369C944.327 89.9461 964.448 110.145 977.216 96.9073C996.197 77.2219 1017.14 60.2182 1040.4 45.8393C1055.99 36.1963 1041.68 11.5181 1026.01 21.2182ZM1056.3 60.3894C1049.21 56.6234 1041.14 58.8202 1036.81 65.4962L1023.3 86.2943C1019.22 92.5708 1021.82 102.328 1028.4 105.809C1035.5 109.575 1043.56 107.378 1047.9 100.702L1061.4 79.9036C1065.48 73.627 1062.89 63.87 1056.3 60.3894Z" fill="#6610F2"/>
<path fill-rule="evenodd" clip-rule="evenodd" d="M115.923 104.548C93.6928 64.2073 63.255 30.1144 26.3193 2.72593C11.5564 -8.20093 -2.66497 16.5343 11.9269 27.347C44.8442 51.7684 71.5485 83.0653 91.2988 118.927C100.162 135.018 124.786 120.639 115.894 104.52L115.923 104.548ZM58.581 99.9835C50.2021 83.8072 38.5457 69.4567 24.2958 58.1305C18.2824 53.3375 10.0174 52.2534 4.14648 58.1305C-0.812483 63.0946 -1.92397 73.4794 4.14648 78.3009C16.7149 88.2863 26.6043 100.098 33.9857 114.391C42.4502 130.681 67.0455 116.274 58.581 99.9835Z" fill="#6610F2"/>
</svg>
