<svg width="120" height="120" viewBox="0 0 120 120" fill="none" xmlns="http://www.w3.org/2000/svg">
<path d="M72.212 63.56L72.284 66.508L72.208 69.456L71.572 72.404L72.152 75.352L71.38 78.3L71.504 81.248L71.332 84.196L71.496 87.144L71.396 89.716C71.124 89.928 70.72 90.132 70.484 90.224C70.304 90.292 70.144 90.324 69.996 90.348C69.608 90.136 69.244 89.884 68.924 89.648L68.12 88.488L65.364 87.1L63.576 84.74L61.668 82.5L59.508 80.516L56.852 79.028L55.468 76.256L53.264 74.316L50.864 72.576L48.764 70.528L47.216 67.932L45.092 65.912L42.62 64.244L41.208 62.096L42.648 59.976L44.628 57.792L47.092 56.108L49.32 54.188L51.1 51.82L52.708 49.276L54.808 47.228L57.644 45.924L59.556 43.692L61.24 41.228L63.736 39.58L65.536 37.236L67.508 35.06L69.724 33.132L71.752 31.444L72.24 34.096L71.672 37.048L72.288 39.996L71.308 42.944L71.828 45.892L71.452 48.84L72.252 51.788L72.412 54.736L72.488 57.68L72.132 60.628L72.212 63.576V63.56Z" fill="#6610F2"/>
<path d="M69.3719 85.784V65.36V44.936V33.38C69.3719 32.092 71.3719 32.092 71.3719 33.38V85.784C71.3719 87.072 69.3719 87.072 69.3719 85.784Z" fill="#0C0C0D"/>
<path d="M68.632 87.84C60.872 79.888 53.116 71.932 45.356 63.98C43.172 61.74 40.988 59.504 38.804 57.264C38.444 56.896 38.392 56.212 38.804 55.848L62.752 34.852C64.996 32.884 67.244 30.916 69.488 28.948C69.892 28.592 70.504 28.548 70.904 28.948C71.268 29.312 71.312 30.004 70.904 30.364L46.956 51.36C44.712 53.328 42.464 55.296 40.22 57.264V55.848C47.98 63.8 55.736 71.756 63.496 79.708C65.68 81.948 67.864 84.184 70.048 86.424C70.948 87.344 69.536 88.76 68.632 87.84Z" fill="#0C0C0D"/>
</svg>
