<svg width="97" height="99" viewBox="0 0 97 99" fill="none" xmlns="http://www.w3.org/2000/svg">
<g clip-path="url(#clip0_2011_202)">
<path d="M4.70934 51.105C5.02753 50.6736 5.35984 50.3412 5.8336 50.0938C6.29322 49.8463 6.8094 49.7543 7.31851 49.6412C7.84177 49.5281 8.35093 49.3725 8.86712 49.2382C9.68029 49.019 10.4794 48.7998 11.3137 48.6301C13.2159 48.2412 15.1109 47.8028 17.0272 47.5129C18.3778 47.3078 19.7283 47.1027 21.0788 46.8976C21.7082 46.8057 22.3163 46.6926 22.9456 46.6148C25.2861 46.3249 27.6337 46.042 29.9813 45.7592C31.7208 45.5471 33.4603 45.4057 35.2069 45.2289C36.8474 45.0734 38.4878 44.9036 40.1424 44.7622C44.4982 44.3945 48.854 43.9985 53.2098 43.5884C54.2916 43.4823 55.3594 43.3621 56.4412 43.2278C56.9079 43.1712 57.3746 43.1005 57.8413 43.0439C55.8119 42.952 53.7896 42.952 51.7673 42.9096C50.0136 42.8671 48.2671 42.9449 46.5205 42.9944C44.8518 43.0368 43.176 43.0581 41.5072 43.1571C39.1384 43.2915 36.7696 43.4258 34.4008 43.5602C34.4291 43.5602 34.4431 43.5601 34.4644 43.553C32.2653 43.7581 30.0662 43.9067 27.8671 44.0834C26.1135 44.2248 24.3739 44.4086 22.6203 44.5783C18.7171 44.9743 14.828 45.4269 10.9389 45.9077C9.84292 46.0421 8.75402 46.2259 7.64386 46.2896C6.85897 46.3391 6.12356 45.7027 5.93265 44.9744C5.72052 44.1258 6.166 43.2137 6.97917 42.8813C7.0216 42.8672 7.06397 42.853 7.09933 42.8318C7.03569 42.8671 6.97209 42.8884 6.90845 42.9237C6.88016 42.9379 6.85186 42.9662 6.82358 42.9803C7.19127 42.754 7.62265 42.6621 8.03984 42.7116C8.75402 42.6338 9.47523 42.5207 10.1894 42.4287C11.2147 42.3085 12.24 42.1742 13.2653 42.054C15.1887 41.8277 17.1191 41.5661 19.0495 41.3893C21.2486 41.1843 23.4335 40.9509 25.6326 40.7317C27.4852 40.5478 29.3449 40.4276 31.1975 40.2721C32.8451 40.1377 34.4856 40.0104 36.1331 39.9185C37.5403 39.8407 38.9545 39.7559 40.3616 39.6781C41.1041 39.6427 41.8466 39.5791 42.5819 39.5508C44.8235 39.4872 47.065 39.4377 49.2995 39.3811C51.0248 39.3387 52.729 39.3882 54.4543 39.4307C55.8968 39.4589 57.3393 39.473 58.7676 39.5579C59.6232 39.6074 60.4788 39.671 61.3344 39.7488C62.1688 39.8195 62.989 39.9468 63.8305 40.0104C64.5376 40.067 65.2023 40.1801 65.867 40.4064C66.5811 40.668 67.0126 41.2267 67.458 41.7995C68.0874 42.5985 67.8539 43.9349 66.9276 44.4086C66.3832 44.6844 65.8528 44.9743 65.3013 45.2289C64.778 45.4693 64.177 45.6036 63.6184 45.738C63.5972 45.7451 63.5759 45.7521 63.5618 45.7521C64.2053 45.7309 64.8417 45.7168 65.4923 45.7168C68.0732 45.6956 70.647 45.6814 73.228 45.6885C72.4572 45.0874 71.6723 44.4864 70.9016 43.8854C69.254 42.6196 67.5995 41.3611 65.9307 40.1166C64.3821 38.9498 62.7841 37.8326 61.2072 36.7083C59.694 35.6194 58.1101 34.6153 56.5544 33.5829C54.7938 32.4869 53.0401 31.3696 51.2723 30.2948C50.3531 29.7291 49.4267 29.1705 48.5075 28.6189C47.8852 28.2371 47.2701 27.8623 46.6549 27.4734C45.8488 26.9784 45.0003 26.526 44.3498 25.833C43.7417 25.1966 43.6427 24.2208 44.1871 23.5066C44.7387 22.7854 45.6932 22.6368 46.4781 23.0399C53.4714 26.6249 60.1465 30.811 66.8004 34.99C67.4297 35.393 68.059 35.7819 68.6954 36.1779C68.5398 36.0506 68.3772 35.9163 68.2287 35.7819C67.7125 35.3506 67.2105 34.9051 66.6802 34.5021C65.9165 33.9222 65.1528 33.3565 64.3962 32.7838C63.8941 32.409 63.3921 32.006 62.8759 31.6453C61.5183 30.6978 60.1677 29.7149 58.7888 28.8028C58.6828 28.7391 58.5767 28.6614 58.4777 28.5906C57.4312 27.926 56.3917 27.2542 55.3523 26.5825C53.2027 25.1965 51.0955 23.754 49.0025 22.2833C47.5529 21.3004 46.0963 20.3104 44.7316 19.2286C43.975 18.6275 43.7982 17.5315 44.3992 16.7466C45.0003 15.9618 46.0963 15.8416 46.8742 16.4073C48.451 17.5457 50.0349 18.6771 51.6188 19.7943C52.0785 20.0984 52.5239 20.4024 52.9836 20.7065C55.4371 22.3257 57.8979 23.9238 60.3304 25.5784C62.5861 27.028 64.8417 28.4776 67.1045 29.9342C68.7803 31.0019 70.4207 32.1332 72.0754 33.2363C73.6593 34.297 75.2008 35.4142 76.7423 36.5173C78.4959 37.7618 80.1789 39.1054 81.883 40.4277C82.6538 41.0287 83.3679 41.6863 84.1033 42.3227C84.471 42.6338 84.8387 42.9591 85.2063 43.2702C85.765 43.7581 86.3165 44.2531 86.8256 44.7905C87.2782 45.2713 87.6034 45.8087 87.9499 46.3673C88.4308 47.131 88.1338 48.1068 87.4832 48.6583C87.1367 48.9482 86.7832 49.2169 86.3306 49.3301C85.9064 49.4432 85.4327 49.4221 85.0084 49.3231C84.7821 49.2665 84.5558 49.1957 84.3295 49.1109C84.1245 49.1462 83.9053 49.1675 83.6861 49.1745C83.382 49.1957 83.0921 49.217 82.788 49.224C82.7951 49.2594 82.8093 49.2877 82.8163 49.323C83.0002 50.0018 82.7315 50.7514 82.1729 51.1827C81.5506 51.6494 80.6455 51.6635 80.0303 51.1756C80.0162 51.1615 80.0092 51.1545 79.995 51.1545C79.5849 51.8757 79.1747 52.6111 78.7646 53.3323C77.8241 55.0082 76.8766 56.6911 75.9503 58.3669C74.1613 61.6267 72.3724 64.8864 70.5551 68.1321C70.5127 68.2311 70.4632 68.323 70.4278 68.4149C69.7207 69.9281 69.056 71.4696 68.3772 72.997C67.7691 74.3687 67.2883 75.7971 66.765 77.2113C66.567 77.8336 66.3832 78.4558 66.1852 79.0781C65.8458 80.1529 65.5629 81.2418 65.2023 82.2954C65.2094 82.2883 65.2023 82.2813 65.2094 82.2742C65.2023 82.2813 65.2023 82.2954 65.2094 82.3025C65.2023 82.3378 65.1882 82.3662 65.1811 82.4015C64.9902 83.0026 64.8064 83.5824 64.3963 84.0915C63.9861 84.5865 63.4487 84.7703 62.8264 84.8834C61.9142 85.0602 60.9172 84.2753 60.8465 83.3561C60.8041 82.8611 60.7899 82.3944 60.8253 81.8924C60.8677 81.355 61.0163 80.8106 61.1294 80.2732C61.4193 78.9509 61.8577 77.6639 62.3456 76.3981C63.2012 74.1566 64.3255 72.0141 65.4993 69.9352C66.1145 68.8392 66.7368 67.7362 67.352 66.6401C67.8682 65.5441 68.4055 64.4551 68.9217 63.3591C69.6641 61.7681 70.4208 60.1772 71.1703 58.5933C72.1179 56.5992 73.0653 54.6051 74.0058 52.604C74.4512 51.6353 74.9109 50.6665 75.3422 49.6836C74.232 50.9635 73.1219 52.2434 72.0542 53.5515C71.3824 54.3788 70.7177 55.1991 70.0601 56.0264C69.5793 56.7052 69.0985 57.3982 68.5964 58.0699C66.4609 60.9974 64.2831 63.8965 62.1476 66.8239C62.1547 66.8168 62.1617 66.8098 62.1617 66.7956C61.5253 67.7573 60.8819 68.712 60.2455 69.6736C60.0193 70.0272 59.8212 70.4089 59.6091 70.7766C59.3474 71.2221 59.0717 71.6534 58.8242 72.1131C58.0464 73.598 57.3251 75.1395 56.3352 76.4971C55.72 77.3386 54.3977 77.4305 53.6765 76.681C53.3017 76.2921 53.0471 75.8678 53.0471 75.3163C53.0471 74.793 53.238 74.3617 53.4643 73.9091C53.8674 73.0535 54.2846 72.2121 54.73 71.3706C55.1684 70.5221 55.7129 69.723 56.1938 68.9028C56.3564 68.627 56.5544 68.3583 56.7382 68.0896C57.1342 67.4957 57.5443 66.9017 57.9403 66.3077C58.3716 65.6784 58.803 65.0491 59.2555 64.4268C61.7021 61.0751 64.1982 57.7588 66.7509 54.4849C66.9347 54.2445 67.1328 54.0041 67.3166 53.7637C67.7904 53.092 68.2499 52.4201 68.7095 51.7343C69.1974 50.9635 69.6853 50.1786 70.145 49.3796C70.1733 49.323 70.2015 49.2664 70.2369 49.217C66.7014 49.217 63.1659 49.3302 59.6374 49.4504C57.2545 49.5281 54.8715 49.7331 52.4956 49.8321C50.9187 49.9523 49.349 50.0514 47.7793 50.1645C46.0681 50.2918 44.3569 50.4332 42.6386 50.5252C42.7093 50.5252 42.787 50.518 42.8648 50.511C39.2515 50.8433 35.6311 51.112 32.0178 51.4585C29.5217 51.706 27.0115 51.9394 24.5154 52.1869C22.7123 52.3637 20.9091 52.5828 19.1131 52.7808C17.5999 52.9505 16.0867 53.1344 14.5735 53.3182C13.5624 53.4384 12.5441 53.5657 11.533 53.6859C10.8046 53.7779 10.0692 53.8769 9.33386 53.9617C8.7611 54.0253 8.19539 54.0678 7.62264 54.0748C7.05695 54.089 6.47709 53.9899 5.91848 53.9404C5.50836 53.898 5.16891 53.7283 4.91435 53.4737C4.29917 52.8585 4.15779 51.8403 4.70934 51.105Z" fill="#0C0C0D"/>
</g>
<g clip-path="url(#clip1_2011_202)">
<path d="M5.12608 48.5217C5.44428 48.0904 5.77659 47.758 6.25035 47.5105C6.70997 47.263 7.22614 47.1711 7.73526 47.0579C8.25852 46.9448 8.76768 46.7893 9.28386 46.6549C10.097 46.4357 10.8961 46.2166 11.7305 46.0469C13.6326 45.6579 15.5277 45.2196 17.4439 44.9296C18.7945 44.7246 20.145 44.5194 21.4956 44.3144C22.1249 44.2225 22.733 44.1093 23.3623 44.0315C25.7029 43.7416 28.0505 43.4588 30.398 43.1759C32.1375 42.9638 33.8771 42.8225 35.6236 42.6457C37.2641 42.4901 38.9045 42.3203 40.5592 42.1789C44.915 41.8112 49.2707 41.4153 53.6265 41.0051C54.7084 40.8991 55.7761 40.7789 56.858 40.6445C57.3247 40.5879 57.7914 40.5172 58.2581 40.4607C56.2287 40.3687 54.2063 40.3687 52.184 40.3263C50.4304 40.2839 48.6838 40.3617 46.9373 40.4112C45.2685 40.4536 43.5927 40.4749 41.924 40.5739C39.5552 40.7082 37.1863 40.8426 34.8175 40.9769C34.8458 40.9769 34.8599 40.9768 34.8811 40.9698C32.682 41.1748 30.483 41.3234 28.2839 41.5002C26.5302 41.6416 24.7907 41.8254 23.0371 41.9951C19.1338 42.3911 15.2448 42.8436 11.3557 43.3245C10.2597 43.4588 9.17076 43.6427 8.06061 43.7063C7.27572 43.7558 6.54031 43.1194 6.34939 42.3911C6.13726 41.5426 6.58275 40.6304 7.39592 40.2981C7.43835 40.2839 7.48072 40.2697 7.51608 40.2485C7.45244 40.2839 7.38884 40.3051 7.3252 40.3405C7.29691 40.3546 7.26861 40.3829 7.24033 40.397C7.60802 40.1708 8.03939 40.0789 8.45659 40.1284C9.17076 40.0506 9.89198 39.9374 10.6062 39.8455C11.6315 39.7253 12.6568 39.591 13.6821 39.4707C15.6054 39.2445 17.5358 38.9828 19.4662 38.8061C21.6653 38.601 23.8502 38.3676 26.0493 38.1484C27.902 37.9646 29.7617 37.8444 31.6143 37.6888C33.2618 37.5544 34.9023 37.4272 36.5499 37.3352C37.957 37.2575 39.3712 37.1726 40.7784 37.0948C41.5208 37.0595 42.2633 36.9958 42.9987 36.9676C45.2402 36.9039 47.4818 36.8544 49.7162 36.7978C51.4415 36.7554 53.1457 36.805 54.8711 36.8474C56.3136 36.8757 57.756 36.8898 59.1844 36.9746C60.04 37.0241 60.8956 37.0878 61.7512 37.1655C62.5856 37.2363 63.4058 37.3635 64.2473 37.4272C64.9544 37.4837 65.619 37.5969 66.2837 37.8231C66.9979 38.0848 67.4293 38.6435 67.8748 39.2162C68.5041 40.0152 68.2707 41.3516 67.3444 41.8254C66.7999 42.1011 66.2696 42.3911 65.718 42.6456C65.1948 42.886 64.5937 43.0204 64.0351 43.1547C64.0139 43.1618 63.9927 43.1689 63.9786 43.1689C64.622 43.1477 65.2585 43.1336 65.909 43.1336C68.49 43.1124 71.0638 43.0982 73.6447 43.1052C72.874 42.5042 72.0891 41.9032 71.3183 41.3021C69.6708 40.0364 68.0162 38.7778 66.3474 37.5333C64.7989 36.3666 63.2008 35.2494 61.624 34.1251C60.1107 33.0361 58.5268 32.032 56.9712 30.9996C55.2105 29.9036 53.4568 28.7863 51.689 27.7115C50.7698 27.1458 49.8435 26.5872 48.9242 26.0357C48.302 25.6538 47.6868 25.2791 47.0716 24.8902C46.2655 24.3952 45.4171 23.9427 44.7665 23.2497C44.1584 22.6134 44.0594 21.6375 44.6039 20.9234C45.1554 20.2021 46.11 20.0536 46.8949 20.4566C53.8881 24.0416 60.5632 28.2277 67.2171 32.4067C67.8464 32.8098 68.4758 33.1987 69.1122 33.5946C68.9566 33.4674 68.794 33.333 68.6455 33.1987C68.1293 32.7673 67.6272 32.3219 67.0969 31.9188C66.3332 31.339 65.5695 30.7733 64.8129 30.2005C64.3109 29.8258 63.8089 29.4227 63.2927 29.0621C61.935 28.1146 60.5844 27.1317 59.2056 26.2195C59.0995 26.1559 58.9935 26.0781 58.8945 26.0074C57.8479 25.3427 56.8085 24.671 55.769 23.9992C53.6194 22.6133 51.5123 21.1708 49.4192 19.7C47.9697 18.7171 46.513 17.7272 45.1483 16.6453C44.3917 16.0443 44.215 14.9483 44.816 14.1634C45.417 13.3785 46.5131 13.2583 47.2909 13.824C48.8678 14.9625 50.4517 16.0938 52.0356 17.2111C52.4952 17.5151 52.9406 17.8191 53.4003 18.1232C55.8539 19.7424 58.3147 21.3406 60.7471 22.9952C63.0028 24.4448 65.2585 25.8943 67.5212 27.351C69.1971 28.4187 70.8375 29.55 72.4921 30.6531C74.076 31.7137 75.6175 32.831 77.159 33.9341C78.9126 35.1786 80.5956 36.5221 82.2998 37.8444C83.0705 38.4455 83.7846 39.103 84.52 39.7394C84.8877 40.0505 85.2554 40.3758 85.6231 40.6869C86.1817 41.1748 86.7333 41.6698 87.2424 42.2072C87.6949 42.688 88.0202 43.2254 88.3667 43.7841C88.8475 44.5477 88.5505 45.5235 87.9 46.0751C87.5535 46.365 87.1999 46.6337 86.7474 46.7468C86.3231 46.86 85.8494 46.8388 85.4252 46.7398C85.1989 46.6833 84.9726 46.6125 84.7463 46.5276C84.5412 46.563 84.322 46.5842 84.1028 46.5913C83.7988 46.6125 83.5088 46.6337 83.2048 46.6408C83.2119 46.6761 83.226 46.7044 83.2331 46.7398C83.4169 47.4186 83.1482 48.1681 82.5896 48.5995C81.9674 49.0661 81.0623 49.0803 80.4471 48.5924C80.4329 48.5782 80.4259 48.5712 80.4118 48.5712C80.0017 49.2925 79.5915 50.0278 79.1813 50.7491C78.2409 52.4249 77.2934 54.1078 76.3671 55.7837C74.5781 59.0434 72.7891 62.3032 70.9718 65.5488C70.9294 65.6478 70.8799 65.7397 70.8446 65.8316C70.1375 67.3449 69.4728 68.8863 68.7939 70.4137C68.1858 71.7855 67.705 73.2138 67.1817 74.6281C66.9838 75.2503 66.7999 75.8726 66.6019 76.4948C66.2625 77.5696 65.9797 78.6586 65.619 79.7122C65.6261 79.7051 65.619 79.698 65.6261 79.6909C65.619 79.698 65.619 79.7122 65.6261 79.7192C65.619 79.7546 65.605 79.7829 65.5979 79.8183C65.407 80.4193 65.2231 80.9992 64.813 81.5083C64.4029 82.0032 63.8654 82.187 63.2432 82.3002C62.331 82.4769 61.334 81.692 61.2633 80.7728C61.2208 80.2778 61.2067 79.8111 61.242 79.3091C61.2845 78.7717 61.433 78.2273 61.5462 77.6899C61.8361 76.3676 62.2744 75.0806 62.7623 73.8149C63.6179 71.5734 64.7422 69.4308 65.916 67.3519C66.5312 66.2559 67.1535 65.1529 67.7687 64.0569C68.2849 62.9609 68.8222 61.8718 69.3384 60.7758C70.0809 59.1848 70.8376 57.5939 71.5871 56.01C72.5346 54.016 73.4821 52.0219 74.4225 50.0207C74.868 49.052 75.3276 48.0833 75.759 47.1004C74.6488 48.3803 73.5386 49.6601 72.4709 50.9683C71.7992 51.7956 71.1345 52.6158 70.4769 53.4431C69.996 54.122 69.5152 54.8149 69.0132 55.4867C66.8777 58.4141 64.6998 61.3132 62.5643 64.2407C62.5714 64.2336 62.5785 64.2265 62.5785 64.2124C61.9421 65.174 61.2987 66.1287 60.6623 67.0904C60.436 67.4439 60.238 67.8257 60.0258 68.1934C59.7642 68.6389 59.4884 69.0702 59.2409 69.5298C58.4631 71.0147 57.7419 72.5562 56.7519 73.9139C56.1367 74.7553 54.8144 74.8473 54.0932 74.0977C53.7184 73.7088 53.4639 73.2846 53.4639 72.733C53.4639 72.2098 53.6548 71.7784 53.8811 71.3259C54.2841 70.4703 54.7013 69.6288 55.1468 68.7874C55.5852 67.9388 56.1297 67.1398 56.6105 66.3196C56.7731 66.0438 56.9711 65.7751 57.155 65.5064C57.551 64.9124 57.9611 64.3184 58.3571 63.7245C58.7884 63.0951 59.2197 62.4658 59.6723 61.8436C62.1189 58.4919 64.6149 55.1755 67.1676 51.9016C67.3515 51.6612 67.5495 51.4209 67.7334 51.1805C68.2071 50.5087 68.6667 49.8369 69.1263 49.151C69.6142 48.3803 70.1021 47.5954 70.5617 46.7963C70.59 46.7398 70.6183 46.6832 70.6536 46.6337C67.1181 46.6337 63.5826 46.7469 60.0542 46.8671C57.6712 46.9449 55.2882 47.1499 52.9123 47.2489C51.3355 47.3691 49.7658 47.4682 48.196 47.5813C46.4848 47.7086 44.7736 47.85 43.0553 47.9419C43.126 47.9419 43.2038 47.9348 43.2815 47.9277C39.6682 48.26 36.0478 48.5287 32.4345 48.8752C29.9384 49.1227 27.4283 49.3561 24.9322 49.6036C23.1291 49.7804 21.3259 49.9995 19.5298 50.1975C18.0166 50.3672 16.5035 50.5511 14.9903 50.735C13.9791 50.8552 12.9609 50.9825 11.9497 51.1027C11.2214 51.1946 10.486 51.2936 9.75061 51.3785C9.17785 51.4421 8.61214 51.4845 8.03938 51.4916C7.4737 51.5057 6.89384 51.4067 6.33522 51.3572C5.9251 51.3148 5.58566 51.145 5.3311 50.8905C4.71592 50.2753 4.57454 49.2571 5.12608 48.5217Z" fill="#6610F2"/>
</g>
<defs>
<clipPath id="clip0_2011_202">
<rect width="71" height="65" fill="white" transform="translate(45.9619 2.58325) rotate(45)"/>
</clipPath>
<clipPath id="clip1_2011_202">
<rect width="71" height="65" fill="white" transform="translate(46.3787) rotate(45)"/>
</clipPath>
</defs>
</svg>
