<svg width="120" height="120" viewBox="0 0 120 120" fill="none" xmlns="http://www.w3.org/2000/svg">
<path d="M47.788 63.56L47.716 66.508L47.792 69.456L48.428 72.404L47.848 75.352L48.62 78.3L48.496 81.248L48.668 84.196L48.504 87.144L48.604 89.716C48.876 89.928 49.28 90.132 49.516 90.224C49.696 90.292 49.856 90.324 50.004 90.348C50.392 90.136 50.756 89.884 51.076 89.648L51.88 88.488L54.636 87.1L56.424 84.74L58.332 82.5L60.492 80.516L63.148 79.028L64.532 76.256L66.736 74.316L69.136 72.576L71.236 70.528L72.784 67.932L74.908 65.912L77.38 64.244L78.792 62.096L77.352 59.976L75.372 57.792L72.908 56.108L70.68 54.188L68.9 51.82L67.292 49.276L65.192 47.228L62.356 45.924L60.444 43.692L58.76 41.228L56.264 39.58L54.464 37.236L52.492 35.06L50.276 33.132L48.248 31.444L47.76 34.096L48.328 37.048L47.712 39.996L48.692 42.944L48.172 45.892L48.548 48.84L47.748 51.788L47.588 54.736L47.512 57.68L47.868 60.628L47.788 63.576V63.56Z" fill="#6610F2"/>
<path d="M50.6281 85.784V65.36V44.936V33.38C50.6281 32.092 48.6281 32.092 48.6281 33.38V85.784C48.6281 87.072 50.6281 87.072 50.6281 85.784Z" fill="#0C0C0D"/>
<path d="M51.368 87.84C59.128 79.888 66.884 71.932 74.644 63.98C76.828 61.74 79.012 59.504 81.196 57.264C81.556 56.896 81.608 56.212 81.196 55.848L57.248 34.852C55.004 32.884 52.756 30.916 50.512 28.948C50.108 28.592 49.496 28.548 49.096 28.948C48.732 29.312 48.688 30.004 49.096 30.364L73.044 51.36C75.288 53.328 77.536 55.296 79.78 57.264V55.848C72.02 63.8 64.264 71.756 56.504 79.708C54.32 81.948 52.136 84.184 49.952 86.424C49.052 87.344 50.464 88.76 51.368 87.84Z" fill="#0C0C0D"/>
</svg>
