<svg width="194" height="195" viewBox="0 0 194 195" fill="none" xmlns="http://www.w3.org/2000/svg">
<g clip-path="url(#clip0_12_1108)">
<path d="M31.4101 58.9891C50.9081 80.7425 75.4923 97.6164 102.637 108.215C108.033 111.49 113.547 114.565 119.168 117.436C118.29 124.622 117.287 131.788 116.143 138.935C116.028 139.652 116.366 140.182 116.857 140.459L116.809 140.476C114.95 141.077 115.967 143.938 117.826 143.336C121.212 142.241 124.545 141.013 127.831 139.635C127.884 139.617 127.926 139.586 127.975 139.557C141.215 135.088 153.727 128.724 165.139 120.656C166.113 119.966 165.907 118.584 164.92 118.044C163.054 117.01 161.202 115.955 159.362 114.874C159.146 114.188 158.563 113.681 157.783 113.937C145.981 106.888 134.773 98.8877 124.272 90.016C123.474 89.3435 121.891 89.7237 121.802 90.8938C121.636 93.101 121.45 95.299 121.257 97.5051C121.076 97.8272 120.996 98.2209 121.092 98.6592L121.133 98.8648C120.775 102.859 120.379 106.85 119.939 110.841C116.897 109.973 113.879 109.021 110.888 107.995C107.627 106.119 104.362 104.246 101.102 102.37L91.4698 96.2126C90.8359 95.8042 90.1796 96.0428 89.7602 96.5248C85.672 93.9071 81.6521 91.1791 77.7021 88.3458C77.3335 88.0793 76.9384 88.0103 76.5761 88.0639C73.2062 85.8669 69.7702 83.773 66.2729 81.7852C66.2338 81.7507 66.1947 81.7163 66.1525 81.6883C65.5254 81.1325 64.9013 80.5703 64.2741 80.0145C64.1961 79.7951 64.0623 79.5849 63.8506 79.397C55.9955 72.2203 48.4408 64.7215 41.206 56.9199C40.0465 55.6671 37.8909 57.6255 38.9846 58.95C39.288 59.3201 39.6009 59.6868 39.9091 60.0553C39.2657 60.5417 38.9103 61.4306 39.5352 62.1161C40.5054 63.1837 41.4756 64.2513 42.4475 65.3237C42.4716 65.5729 42.5679 65.8287 42.7762 66.0822C43.35 66.7751 43.9396 67.4517 44.5308 68.1331C40.8306 64.6578 37.2794 61.0275 33.8901 57.2483C32.6023 55.8157 30.0977 57.5329 31.4006 58.9924L31.4101 58.9891ZM130.952 123.258C131.144 123.33 131.345 123.35 131.535 123.325C131.602 123.349 131.665 123.375 131.73 123.39C131.293 123.658 130.857 123.926 130.422 124.199C130.331 124.231 130.244 124.272 130.155 124.309L130.07 123.389C130.362 123.35 130.657 123.304 130.946 123.255L130.952 123.258ZM131.18 118.022C131.293 118.127 131.407 118.236 131.524 118.34C131.771 118.568 132.094 118.696 132.431 118.699C132.17 118.765 131.915 118.834 131.655 118.905L131.187 118.025L131.18 118.022ZM133.141 118.522C133.656 118.248 134.031 117.701 134.017 117.104C134.676 117.386 135.342 117.659 136.021 117.907C135.055 118.089 134.097 118.295 133.143 118.527L133.141 118.522ZM146.499 115.128C144.892 114.459 143.302 113.762 141.741 113.011C141.818 113.016 141.896 113.01 141.974 113.004C143.591 113.654 145.206 114.315 146.815 114.989C146.709 115.037 146.606 115.079 146.499 115.128ZM149.391 116.297C149.397 116.225 149.397 116.149 149.397 116.074C149.486 116.112 149.58 116.149 149.67 116.192C150.007 116.4 150.347 116.601 150.684 116.809L149.386 116.298L149.391 116.297ZM153.502 120.748C154.095 120.36 154.682 119.958 155.261 119.548C155.574 119.733 155.886 119.917 156.197 120.096C155.299 120.303 154.399 120.521 153.502 120.748ZM124.955 132.237C125.03 132.221 125.103 132.2 125.173 132.17C125.279 132.122 125.384 132.068 125.495 132.018C125.289 132.242 125.089 132.463 124.887 132.68C124.914 132.531 124.932 132.385 124.96 132.235L124.955 132.237ZM126.032 137.02C125.822 137.095 125.653 137.193 125.513 137.312C123.387 138.175 121.24 138.981 119.067 139.727C119.09 139.654 119.114 139.587 119.124 139.508C119.796 135.311 120.417 131.105 120.994 126.894C121.033 126.945 121.071 126.99 121.113 127.034C121.18 127.811 121.256 128.584 121.343 129.359C121.414 129.951 121.731 130.359 122.142 130.562C121.938 131.908 121.71 133.245 121.443 134.581C121.066 136.482 123.974 137.048 124.41 135.207C124.784 135.686 125.395 135.953 126.038 135.649L126.362 135.501C126.541 135.975 126.945 136.385 127.479 136.528C127 136.692 126.517 136.859 126.037 137.019L126.032 137.02ZM160.6 120.094C160.28 119.617 159.712 119.304 159.046 119.438C159.189 118.92 159.074 118.354 158.547 117.989L157.904 117.54C157.909 117.539 157.914 117.537 157.917 117.531C159.078 118.213 160.239 118.896 161.409 119.56C161.141 119.741 160.871 119.918 160.602 120.099L160.6 120.094ZM124.563 94.2196C125.536 95.0231 126.524 95.8102 127.513 96.5974C127.151 97.1663 127.128 97.9318 127.811 98.4945C127.964 98.6227 128.12 98.7445 128.273 98.8727C128.177 98.9498 128.094 99.0331 128.014 99.1259C126.807 98.3575 125.582 97.6006 124.342 96.8761C124.418 95.9894 124.495 95.1028 124.568 94.2179L124.563 94.2196Z" fill="#6610F2"/>
<path d="M89.573 42.1302C94.5408 46.2559 100.066 49.6087 105.813 52.5395C108.705 54.014 111.648 55.39 114.602 56.7353C115.557 57.1694 116.517 57.6338 117.486 58.0789C116.246 59.5614 115.047 61.0832 113.901 62.6503C113.391 63.347 113.589 64.3722 114.177 64.8776C114.125 65.7125 114.669 66.5932 115.746 66.4951C122.144 65.9127 128.026 69.7402 134.455 68.0032C135.474 67.727 135.659 66.4797 135.189 65.7016C134.83 65.0988 134.475 64.4944 134.126 63.8883C134.724 63.3212 134.696 62.1981 134.083 61.562C133.3 60.75 132.476 60.0013 131.607 59.311C130.132 56.5056 128.759 53.6534 127.488 50.7431C126.994 49.6085 125.758 49.4728 124.899 50.2724C123.033 52.0042 121.254 53.8127 119.554 55.6949C118.177 55.0995 116.832 54.4122 115.498 53.8015C112.678 52.5159 109.874 51.1981 107.112 49.7897C101.589 46.973 96.3035 43.7659 91.526 39.7981C90.0241 38.5489 88.0612 40.8684 89.5696 42.1206L89.573 42.1302ZM119.551 62.4843C119.659 63.4233 120.645 64.0985 121.531 63.7945C121.61 63.8954 121.698 63.9928 121.807 64.0723C120.641 63.8152 119.474 63.5966 118.303 63.4917C118.739 63.1758 119.151 62.8411 119.551 62.4843ZM126.63 64.995C126.898 65.0394 127.165 65.0789 127.437 65.1215C127.762 65.1728 128.06 65.1205 128.314 65.0034C129.237 64.9276 130.128 64.7131 131.024 64.529C131.201 64.8472 131.379 65.1654 131.559 65.4771C129.412 65.6763 127.262 65.3075 125.098 64.8252C125.609 64.9016 126.117 64.9572 126.635 64.9933L126.63 64.995ZM129.519 61.8202C129.147 61.8932 128.775 61.9501 128.389 61.9802C128.299 61.9851 128.214 61.9884 128.128 61.9869C127.936 61.8242 127.748 61.6599 127.558 61.502C127.886 61.3211 128.146 61.0246 128.27 60.6204C128.609 60.849 128.942 61.0905 129.267 61.3402C129.351 61.4986 129.435 61.6618 129.523 61.8185L129.519 61.8202ZM123.429 56.4715C123.36 56.3832 123.285 56.3079 123.195 56.2376C123.502 55.9082 123.816 55.5819 124.131 55.2604C123.906 55.6682 123.674 56.0729 123.433 56.4698L123.429 56.4715Z" fill="#6610F2"/>
<path d="M37.5467 113.154C45.5369 122.339 56.9199 127.047 68.6199 129.489C68.5155 130.766 68.4141 132.038 68.2468 133.289C67.6252 135.465 67.0002 137.641 66.3718 139.815C65.9149 141.4 68.1396 142.129 69.0509 141.022C69.3928 141.561 70.0213 141.939 70.797 141.749C76.6475 140.319 82.1886 138.141 87.4827 135.282C88.4836 134.743 88.249 133.07 87.2631 132.669C86.9049 132.522 86.545 132.371 86.1929 132.212C87.2818 131.996 88.0387 130.53 86.9428 129.577C82.3376 125.58 77.7324 121.583 73.1303 117.58C72.1907 116.765 70.9905 117.422 70.6605 118.458C69.8289 121.089 69.2826 123.738 68.9296 126.446C58.1579 124.169 47.4108 119.89 40.0298 111.407C38.7607 109.952 36.2561 111.669 37.5385 113.146L37.5467 113.154ZM71.2062 133.94C71.4594 133.066 71.711 132.187 71.9594 131.315C72.0847 131.337 72.2127 131.341 72.3389 131.325C71.983 131.94 71.9953 132.806 72.5692 133.257C72.4104 133.566 72.3836 133.913 72.4621 134.24C72.3555 134.273 72.2554 134.308 72.1488 134.341C70.9552 134.684 70.7615 136.708 72.0056 137.141C73.0885 137.514 74.1075 137.404 74.8806 136.92C74.9317 137.079 74.9764 137.235 75.0276 137.394C73.3881 137.933 71.7331 138.414 70.0495 138.83C70.6201 137.247 70.9688 135.614 71.2031 133.946L71.2062 133.94ZM80.2412 128.838C80.1379 128.548 80.0393 128.255 79.9454 127.961C80.2932 128.229 80.638 128.504 80.9858 128.772C80.7332 128.787 80.4887 128.809 80.2412 128.838ZM80.1298 134.055C80.6135 133.829 81.0887 133.58 81.5538 133.302C82.0748 133.589 82.6051 133.857 83.1384 134.119C81.9874 134.673 80.8261 135.198 79.6449 135.683C79.8489 135.154 80.0159 134.611 80.1281 134.05L80.1298 134.055ZM73.8251 122.209C73.4539 122.132 73.0613 122.191 72.7396 122.434C72.8133 122.112 72.887 121.791 72.9702 121.466C73.2568 121.713 73.5433 121.96 73.8251 122.209Z" fill="#0C0C0D"/>
</g>
<defs>
<clipPath id="clip0_12_1108">
<rect width="151.809" height="151.809" fill="white" transform="translate(193.923 143.271) rotate(160.434)"/>
</clipPath>
</defs>
</svg>
