<svg width="300" height="300" viewBox="0 0 300 300" fill="none" xmlns="http://www.w3.org/2000/svg">
<path d="M201.23 70.91C197.95 71.3 194.82 70.74 191.58 70.93C188.13 71.13 184.81 73.07 181.89 74.78C179.65 76.1 177.54 77.5 175.34 78.79C177.48 75.93 179.62 73.08 181.76 70.22C185.01 65.88 190.15 66.71 192.43 69.93C193.81 68.38 195.18 66.83 196.56 65.28C199.97 61.44 206.49 64.05 207.53 68.43C208.18 67.78 208.82 67.13 209.47 66.48C211.48 64.46 214.81 64.03 217.27 65.47C217.89 65.83 218.48 66.36 218.97 66.97C213.25 68.97 207.14 70.21 201.23 70.91ZM171.16 80.96C168.84 81.99 166.5 82.98 164.15 83.92C164.79 83.05 165.43 82.17 166.05 81.28C168.3 78.04 172.07 77.63 174.77 79.11C173.61 79.77 172.42 80.4 171.16 80.96Z" fill="#6610F2"/>
<path d="M25.56 258.8C27.07 253.64 29.01 248.62 30.16 243.37C31.18 241.49 32.26 239.64 33.49 237.87C34.32 236.67 33.98 235.51 33.16 234.77C33.7845 233.163 34.3648 231.539 34.9 229.9C36.52 229.32 38.41 229.34 39.84 229.97C40.4 230.22 40.9 230.52 41.34 230.86C42.92 229.55 44.88 228.91 47.09 229.51C47.91 229.73 48.7 230.16 49.41 230.73C50.83 227.69 52.27 224.65 53.73 221.62C58.3973 210.541 63.5183 199.658 69.08 189C70.57 186.15 74.36 185.15 77.21 186.36C78.9 183.76 80.6 181.18 82.32 178.6C80.72 176.78 80.06 174.14 81.52 171.36C84.15 166.35 86.86 161.37 89.63 156.43C88.92 155.56 88.46 154.5 88.4 153.29C87.14 151.76 86.74 149.7 87.1 147.49C87.2 146.9 87.29 146.32 87.39 145.73C83.99 145 81.03 141.39 82.03 137.6C82.4 136.19 82.78 134.79 83.15 133.38C83.99 127.63 85.38 122.06 87.58 116.64C88.87 113.48 91.76 111.23 95.31 112.1C96.82 108.69 98.35 105.29 99.91 101.9L100.36 100.52C99.23 98.96 98.9 96.93 99.26 94.93C99.7 92.5 100.13 90.07 100.55 87.64C98.14 86.24 96.4 83.18 97.44 80.37C98.48 77.56 99.53 74.76 100.57 71.95C100.43 71.88 100.29 71.81 100.15 71.73C97.39 70.11 96.6 67.16 97.33 64.35C96.28 62.4 96.44 60.07 97.39 57.98C98.11 56.38 98.84 54.78 99.56 53.18C99.64 52.28 99.92 51.34 100.47 50.38L102.1 47.55C102.2 47.37 102.32 47.22 102.44 47.05C107.55 51.35 114.08 54.62 117.76 60.26C117.94 60.54 118.11 60.82 118.28 61.11C118.02 61.82 117.75 62.53 117.49 63.24C118.1 63.15 118.73 63.16 119.36 63.26C122.31 70.13 121.66 78.61 120.45 85.7C119.87 89.08 125.04 90.52 125.62 87.13C127.01 79.01 127.65 69.81 124.6 61.94C124.67 61.84 124.73 61.73 124.8 61.63C125.649 60.2999 126.931 59.3038 128.43 58.81C128.51 58.89 128.59 58.98 128.66 59.06C129.23 60.31 129.79 61.57 130.31 62.85C130.29 62.95 130.27 63.04 130.26 63.14C129.89 67.44 130.26 71.69 130.68 75.97L130.53 76.27C130.42 76.47 130.31 76.68 130.19 76.88C129.22 78.55 130.24 80.13 131.62 80.68C131.68 80.91 131.78 81.12 131.9 81.31C131.16 81.53 130.55 82.11 130.34 83.13C130.15 84.1 129.94 85.02 129.81 86C129.48 88.51 132.87 89.25 134.39 87.9C135.84 86.61 137.18 85.21 138.51 83.8C141.74 82.36 145.81 83.66 147.24 86.72C147.94 85.84 148.64 84.97 149.34 84.09C151.38 81.53 154.88 81.76 157.41 83.39C158.25 83.2698 159.106 83.3251 159.923 83.5523C160.741 83.7795 161.502 84.1737 162.16 84.71C160.8 85.24 159.44 85.75 158.07 86.24C149.4 89.31 140.44 91.45 131.21 91.52C127.75 91.55 127.76 96.91 131.21 96.89C141.07 96.81 150.71 94.56 159.96 91.25C163.89 89.84 167.76 88.26 171.59 86.6C175.55 84.89 179.01 82.92 182.65 80.61C185.32 78.92 188.81 76.39 192.08 76.29C195.16 76.2 198.11 76.65 201.21 76.29C208.75 75.41 216.32 73.74 223.42 71C228.6 69.01 235.97 63.33 240.59 68.92C240.84 69.23 241.12 69.44 241.4 69.59C237.04 73.6 232.65 77.57 228.24 81.53L215.92 96.13C214.4 97.93 212.28 98.36 210.31 97.9L206.48 101.43C205.75 102.1 204.97 102.56 204.18 102.85L187.24 117.72C188.63 119.13 189.43 121.11 189.02 123.29C190.17 123.22 191.36 123.47 192.5 124.13C195.8 126.06 196.2 129.73 194.81 132.94C193.33 136.37 191.9 139.82 190.5 143.29C190.69 143.14 190.87 142.99 191.06 142.84C196.28 138.72 202.79 142.55 201.82 149.11C201.52 151.13 201.26 153.16 201.02 155.19C201.24 155.27 201.46 155.35 201.67 155.45C202.62 154.47 203.56 153.49 204.51 152.5C208.41 148.45 214.55 151.54 215.43 156.06C217.31 158.61 216.88 162.04 214.8 164.42C211.77 167.88 208.74 171.34 205.7 174.8C205.23 175.33 204.73 175.75 204.2 176.06L197.52 183.4C195.06 186.11 191.05 185.65 188.62 183.48C187.27 185.08 185.93 186.69 184.58 188.29C183.06 190.1 181.1 190.58 179.26 190.2L178.6 190.98C176.55 193.4 172.47 193.33 170.14 191.48C167.8 189.62 167.12 186.73 168.12 184.02C167.12 184.1 166.09 183.95 165.12 183.52C163.15 185.68 161.17 187.84 159.2 190C156.49 192.96 152.65 192.24 150.3 189.96C149.49 189.93 148.7 189.73 147.96 189.39C146.01 191.95 144.08 194.53 142.18 197.13C140.29 199.72 137.27 201.14 134.14 199.76C132.95 199.23 131.83 198.26 131.08 197.08C126.44 202.4 121.88 207.79 117.42 213.27C116.21 214.76 114.2 215.29 112.3 215.08C108.4 222.22 104.64 229.43 100.99 236.7C101.99 238.15 102.42 239.94 101.83 241.75C101.1 244.01 100.29 246.24 99.42 248.45C100.52 250.2 100.82 252.46 99.57 254.8C99.53 254.88 99.48 254.95 99.44 255.03C95.36 253.71 90.93 253.37 86.68 253.34C81.99 253.31 77.07 253.65 72.49 254.89C68.64 255.35 64.78 255.78 60.91 255.82C59.37 255.83 58.52 256.87 58.35 258.03C54.94 257.79 51.54 257.64 48.13 257.64C41.48 256.99 34.83 256.26 28.13 256.69C26.5 256.8 25.66 257.9 25.56 259.08H25.44C25.48 258.99 25.51 258.9 25.54 258.8H25.56ZM164.62 134.42C164.06 133.74 163.65 132.95 163.42 132.11H163.4C163.28 132.51 163.14 132.9 162.97 133.29C162.66 133.98 162.36 134.67 162.06 135.35C162.88 134.82 163.75 134.52 164.63 134.42H164.62ZM165.5 111.13C166.48 110.34 167.49 109.58 168.51 108.83C171.04 106.27 175.17 106.86 177.53 109.17L190.31 97.95C188.98 97.4 187.82 96.48 187.1 95.3C185.29 97.34 183.48 99.37 181.68 101.41C179.72 103.61 176.15 103.78 173.76 102.28C172.79 103.58 171.81 104.88 170.84 106.18C168.82 108.87 165.49 110.29 162.34 108.65C162.28 108.8 162.23 108.96 162.16 109.11C161.91 109.71 161.65 110.32 161.4 110.92C162.73 110.47 164.18 110.6 165.51 111.13H165.5ZM244.4 65.11C239.35 59 232.5 61.2 226.34 63.9C228.7 61.44 232.07 59.92 234.99 58.19C240.09 55.19 245.77 60.56 244.59 65.36C244.53 65.27 244.47 65.19 244.4 65.1V65.11Z" fill="#6610F2"/>
<path d="M89.41 259.24C96.43 240.95 105.92 223.75 117.77 208.13C118.04 207.78 118.35 207.52 118.68 207.34C118.16 205.98 118.59 204.34 120.41 204.01C124.98 203.18 129.55 202.36 134.11 201.53C133.37 200.15 133.69 198.16 135.64 197.62C137.55 197.1 139.46 196.58 141.36 196.06C137.44 190 136.38 182.39 138.54 175.59C137.2 175.76 135.85 175.93 134.51 176.08C132.2 176.34 131.47 174 132.26 172.31C132.21 172.22 132.16 172.13 132.11 172.03C129.39 166.2 127.95 160.05 127.92 153.6C127.92 152.56 128.4 151.84 129.08 151.42C128.99 151.12 128.94 150.81 128.94 150.49C127.83 151.58 125.72 151.85 124.56 150.17C120.62 144.44 118.54 137.78 118.38 130.83C118.35 129.37 119.29 128.52 120.4 128.3C118.34 127.72 117.23 124.65 119.63 123.46C129.34 118.63 139.59 114.91 150.19 112.57C154.17 111.69 158.2 111 162.24 110.49C162.04 109.27 162.56 107.93 164.08 107.49C178.49 103.3 192.5 97.9 206.3 92.03C212.45 89.42 218.68 86.89 224.62 83.83C229.54 81.29 234.49 78.25 237.91 73.79C239.42 71.82 241.97 68.03 241.26 65.37C240.68 63.23 237.95 62.88 236.08 62.82C233.17 62.73 230.38 63.44 227.55 64.04C209.5 67.88 191.692 72.7819 174.22 78.72C158.56 84.0454 143.192 90.194 128.18 97.14C126.62 97.86 125.16 97.06 124.48 95.91C123.67 95.34 123.13 94.36 123.38 93.13C126.24 78.75 127.2 61.1 115.09 50.45C112.54 48.21 108.71 45.61 105.16 46.45C101.48 47.32 99.38 50.99 98.54 54.4C96.63 62.2 98.1 71.47 100.03 79.12C102.1 87.33 105.93 95.68 101.9 103.92C100.38 107.02 95.76 104.31 97.27 101.21C99.41 96.84 98.11 91.88 96.84 87.44C95.52 82.84 94.17 78.31 93.45 73.57C92.2 65.39 90.91 54.56 95.78 47.24C97.78 44.22 100.86 41.77 104.48 41.11C108.54 40.37 112.55 42.04 115.86 44.3C122.27 48.68 126.6 55.5 128.8 62.86C131.51 71.94 130.86 81.54 129.25 90.78C157.84 77.84 187.66 67.67 218.25 60.6C224.52 59.15 231.53 56.76 238.04 57.62C244.12 58.43 247.91 63.07 246.21 69.24C242.66 82.12 228.46 88.18 217.39 93.02C203.4 99.14 189.28 104.99 174.77 109.76C176.99 109.91 179.18 110.29 181.29 111.03C189.16 113.81 195.1 121.5 195.45 129.91C195.64 134.56 192.63 136.92 188.5 138.13C182.91 139.77 177.23 141.16 171.6 142.67C158.8 146.1 146 149.53 133.21 152.97C133.25 153.16 133.27 153.36 133.27 153.58C133.29 159.04 134.41 164.34 136.72 169.3C136.89 169.67 136.98 170.03 136.99 170.38C138.43 170.2 139.86 170.01 141.29 169.81L141.61 169.34C142.09 168.67 142.72 168.31 143.38 168.2C141.81 165.69 140.23 163.17 138.66 160.66C136.82 157.72 141.46 155.03 143.29 157.95L148.04 165.54C148.86 166.85 148.39 168.11 147.45 168.85C165.788 165.77 183.73 160.675 200.95 153.66C201.185 153.558 201.435 153.494 201.69 153.47C201.845 153.334 202.012 153.214 202.19 153.11C207.69 149.98 201.21 143.06 198.62 140.5C196.16 138.07 199.95 134.28 202.41 136.71C205.58 139.84 208.89 143.35 209.43 147.97C209.65 149.87 209.4 151.77 208.68 153.46C214.98 157.57 221.88 164.35 217.01 172.31C212.49 179.71 202.98 183.7 195.47 187.18C192.36 188.62 189.63 184 192.76 182.55C198.85 179.73 205.26 176.88 210.17 172.19C212.39 170.07 214.21 167.41 212.67 164.34C211.29 161.6 208.44 159.72 205.95 158.09C205.68 157.92 205.47 157.72 205.29 157.51C205.16 157.59 205.03 157.68 204.89 157.76C204.38 158.05 203.88 158.16 203.41 158.12C203.14 158.42 202.79 158.67 202.36 158.85C183.79 166.4 164.44 171.68 144.66 174.71C141.59 181.01 142.11 188.84 146.67 194.42C146.71 194.47 146.74 194.52 146.78 194.56C148.13 194.19 149.48 193.82 150.83 193.46C149.45 190.96 149.07 188.04 149.96 185.2C151 181.92 156.18 183.32 155.13 186.63C154.57 188.39 154.79 190.27 156.03 191.7C156.11 191.79 156.18 191.89 156.25 191.99C165.88 189.36 175.5 186.74 185.13 184.11C185.7 183.89 186.28 183.67 186.85 183.44C187.38 183.23 187.86 183.2 188.28 183.29C191.23 183.02 192.34 187.7 189.19 188.56C188.31 188.8 187.43 189.04 186.56 189.28C172.57 194.74 158.19 199.14 143.53 202.42C143.94 203.74 143.48 205.25 141.73 205.56L122.81 208.98C122.94 209.55 122.82 210.18 122.34 210.83C110.79 226.05 101.37 242.81 94.52 260.65C93.29 263.84 88.1 262.46 89.35 259.22L89.41 259.24ZM159.86 140.3C164.87 138.96 169.87 137.62 174.88 136.27C177.12 135.67 179.37 135.07 181.61 134.46C183.82 133.87 186.35 133.49 188.45 132.56C191.93 131.01 189.33 125.37 187.87 122.95C185.97 119.79 183 117.26 179.48 116.09C175.12 114.64 170.41 115 165.91 115.45C161.28 115.91 156.67 116.65 152.12 117.64C141.8 119.88 131.82 123.39 122.36 128.1C122.15 128.21 121.94 128.28 121.73 128.33C122.8 128.58 123.73 129.42 123.77 130.84C123.91 136.89 125.8 142.49 129.22 147.47C129.51 147.9 129.66 148.32 129.69 148.73C129.99 148.44 130.37 148.21 130.87 148.08C140.54 145.49 150.2 142.9 159.87 140.3H159.86Z" fill="#0C0C0D"/>
<path d="M89.96 103.7C91.3 100.53 95.93 103.26 94.59 106.41C85.38 128.13 81.87 151.96 84.11 175.42C84.44 178.86 79.07 178.83 78.74 175.42C76.4 150.95 80.36 126.3 89.95 103.7H89.96ZM26.21 244.61C45.48 225.47 61.44 203.26 73.49 178.92C75.02 175.82 79.65 178.54 78.12 181.63C65.88 206.36 49.57 228.97 30 248.41C27.55 250.85 23.75 247.05 26.21 244.62V244.61ZM129.45 130.88C130.59 127.64 135.77 129.04 134.62 132.31C133.71 134.9 134.37 137.42 136.44 139.24C139.04 141.52 135.24 145.3 132.65 143.03C129.26 140.06 127.96 135.14 129.45 130.88ZM242.13 43.08C245 40.89 247.86 38.7 250.73 36.52C251.89 35.63 253.72 36.35 254.4 37.48C255.22 38.85 254.58 40.28 253.44 41.15C250.57 43.34 247.71 45.53 244.84 47.71C243.68 48.6 241.85 47.88 241.17 46.75C240.35 45.38 240.99 43.95 242.13 43.08ZM255.04 51.11C258.161 49.9936 261.378 49.1668 264.65 48.64C266.09 48.41 267.52 49.01 267.95 50.51C268.32 51.79 267.5 53.58 266.08 53.81C262.8 54.34 259.6 55.16 256.47 56.28C253.21 57.44 251.81 52.26 255.04 51.11ZM258.71 67.44H271.99C275.44 67.44 275.45 72.81 271.99 72.81H258.71C255.26 72.81 255.25 67.44 258.71 67.44ZM72.69 260.51C74.55 249.43 79.47 239.2 86.76 230.67C89.01 228.04 92.79 231.85 90.55 234.46C83.85 242.3 79.56 251.77 77.86 261.93C77.29 265.33 72.12 263.89 72.69 260.5V260.51Z" fill="#0C0C0D"/>
</svg>
