<svg width="255" height="255" viewBox="0 0 255 255" fill="none" xmlns="http://www.w3.org/2000/svg">
<path d="M83.9545 60.2736C86.7425 60.6051 89.403 60.1291 92.157 60.2906C95.0895 60.4606 97.9115 62.1096 100.393 63.5631C102.297 64.6851 104.091 65.8751 105.961 66.9716C104.142 64.5406 102.323 62.1181 100.504 59.6871C97.7415 55.9981 93.3725 56.7036 91.4345 59.4406C90.2615 58.1231 89.097 56.8056 87.924 55.4881C85.0255 52.2241 79.4835 54.4426 78.5995 58.1656C78.047 57.6131 77.503 57.0606 76.9505 56.5081C75.242 54.7911 72.4115 54.4256 70.3205 55.6496C69.7935 55.9556 69.292 56.4061 68.8755 56.9246C73.7375 58.6246 78.931 59.6786 83.9545 60.2736ZM109.514 68.8161C111.486 69.6916 113.475 70.5331 115.472 71.3321C114.928 70.5926 114.384 69.8446 113.857 69.0881C111.945 66.3341 108.74 65.9856 106.445 67.2436C107.431 67.8046 108.443 68.3401 109.514 68.8161Z" fill="#6610F2"/>
<path d="M233.274 219.98C231.991 215.594 230.342 211.327 229.364 206.864C228.497 205.266 227.579 203.694 226.534 202.189C225.828 201.169 226.117 200.183 226.814 199.554C226.283 198.188 225.79 196.808 225.335 195.415C223.958 194.922 222.352 194.939 221.136 195.474C220.66 195.687 220.235 195.942 219.861 196.231C218.518 195.117 216.852 194.573 214.974 195.083C214.277 195.27 213.605 195.636 213.001 196.12C211.795 193.536 210.571 190.952 209.33 188.377C205.362 178.96 201.009 169.709 196.282 160.65C195.016 158.227 191.794 157.377 189.372 158.406C187.935 156.196 186.49 154.003 185.028 151.81C186.388 150.263 186.949 148.019 185.708 145.656C183.473 141.397 181.169 137.164 178.814 132.965C179.418 132.226 179.809 131.325 179.86 130.296C180.931 128.996 181.271 127.245 180.965 125.366C180.88 124.865 180.804 124.372 180.719 123.87C183.609 123.25 186.125 120.181 185.275 116.96C184.96 115.761 184.637 114.571 184.323 113.373C183.609 108.485 182.427 103.751 180.557 99.1439C179.461 96.4579 177.004 94.5454 173.987 95.2849C172.703 92.3864 171.403 89.4964 170.077 86.6149L169.694 85.4419C170.655 84.1159 170.935 82.3904 170.629 80.6904C170.255 78.6249 169.89 76.5594 169.533 74.4939C171.581 73.3039 173.06 70.7029 172.176 68.3144C171.292 65.9259 170.399 63.5459 169.516 61.1574C169.634 61.0979 169.754 61.0384 169.873 60.9704C172.219 59.5934 172.89 57.0859 172.27 54.6974C173.162 53.0399 173.026 51.0594 172.219 49.2829C171.607 47.9229 170.986 46.5629 170.374 45.2029C170.306 44.4379 170.068 43.6389 169.601 42.8229L168.215 40.4174C168.13 40.2644 168.028 40.1369 167.926 39.9924C163.583 43.6474 158.032 46.4269 154.904 51.2209C154.751 51.4589 154.607 51.6969 154.462 51.9434C154.683 52.5469 154.913 53.1504 155.134 53.7539C154.615 53.6774 154.08 53.6859 153.544 53.7709C151.037 59.6104 151.589 66.8184 152.618 72.8449C153.111 75.7179 148.716 76.9419 148.223 74.0604C147.042 67.1584 146.498 59.3384 149.09 52.6489C149.031 52.5639 148.98 52.4704 148.92 52.3854C148.198 51.2549 147.108 50.4082 145.835 49.9884C145.767 50.0564 145.699 50.1329 145.639 50.2009C145.155 51.2634 144.679 52.3344 144.237 53.4224C144.254 53.5074 144.271 53.5839 144.279 53.6689C144.594 57.3239 144.279 60.9364 143.922 64.5744L144.05 64.8294C144.143 64.9994 144.237 65.1779 144.339 65.3479C145.163 66.7674 144.296 68.1104 143.123 68.5779C143.072 68.7734 142.987 68.9519 142.885 69.1134C143.514 69.3004 144.033 69.7934 144.211 70.6604C144.373 71.4849 144.551 72.2669 144.662 73.0999C144.942 75.2334 142.061 75.8624 140.769 74.7149C139.536 73.6184 138.397 72.4284 137.267 71.2299C134.521 70.0059 131.062 71.1109 129.846 73.7119C129.251 72.9639 128.656 72.2244 128.061 71.4764C126.327 69.3004 123.352 69.4959 121.202 70.8814C120.488 70.7793 119.76 70.8263 119.065 71.0194C118.37 71.2125 117.723 71.5476 117.164 72.0034C118.32 72.4539 119.476 72.8874 120.641 73.3039C128.01 75.9134 135.626 77.7324 143.472 77.7919C146.413 77.8174 146.404 82.3734 143.472 82.3564C135.091 82.2884 126.897 80.3759 119.034 77.5624C115.694 76.3639 112.404 75.0209 109.149 73.6099C105.783 72.1564 102.842 70.4819 99.7475 68.5184C97.478 67.0819 94.5115 64.9314 91.732 64.8464C89.114 64.7699 86.6065 65.1524 83.9715 64.8464C77.5625 64.0984 71.128 62.6789 65.093 60.3499C60.69 58.6584 54.4255 53.8304 50.4985 58.5819C50.286 58.8454 50.048 59.0239 49.81 59.1514C53.516 62.5599 57.2475 65.9344 60.996 69.3004L71.468 81.7104C72.76 83.2404 74.562 83.6059 76.2365 83.2149L79.492 86.2154C80.1125 86.7849 80.7755 87.1759 81.447 87.4224L95.846 100.062C94.6645 101.26 93.9845 102.943 94.333 104.796C93.3555 104.737 92.344 104.949 91.375 105.51C88.57 107.151 88.23 110.27 89.4115 112.999C90.6695 115.914 91.885 118.847 93.075 121.796C92.9135 121.669 92.7605 121.541 92.599 121.414C88.162 117.912 82.6285 121.167 83.453 126.743C83.708 128.46 83.929 130.186 84.133 131.911C83.946 131.979 83.759 132.047 83.5805 132.132C82.773 131.299 81.974 130.466 81.1665 129.625C77.8515 126.182 72.6325 128.809 71.8845 132.651C70.2865 134.818 70.652 137.734 72.42 139.757C74.9955 142.698 77.571 145.639 80.155 148.58C80.5545 149.03 80.9795 149.387 81.43 149.651L87.108 155.89C89.199 158.193 92.6075 157.802 94.673 155.958C95.8205 157.318 96.9595 158.686 98.107 160.046C99.399 161.585 101.065 161.993 102.629 161.67L103.19 162.333C104.933 164.39 108.401 164.33 110.381 162.758C112.37 161.177 112.948 158.72 112.098 156.417C112.948 156.485 113.824 156.357 114.648 155.992C116.323 157.828 118.006 159.664 119.68 161.5C121.984 164.016 125.248 163.404 127.245 161.466C127.934 161.44 128.605 161.27 129.234 160.981C130.892 163.157 132.532 165.35 134.147 167.56C135.754 169.762 138.321 170.969 140.981 169.796C141.993 169.345 142.945 168.521 143.582 167.518C147.526 172.04 151.402 176.621 155.193 181.279C156.222 182.546 157.93 182.996 159.545 182.818C162.86 188.887 166.056 195.015 169.159 201.195C168.309 202.427 167.943 203.949 168.445 205.487C169.065 207.408 169.754 209.304 170.493 211.182C169.558 212.67 169.303 214.591 170.366 216.58C170.399 216.648 170.442 216.707 170.476 216.775C173.944 215.653 177.71 215.364 181.322 215.339C185.309 215.313 189.491 215.602 193.383 216.656C196.656 217.047 199.937 217.413 203.227 217.447C204.536 217.455 205.258 218.339 205.402 219.325C208.301 219.121 211.191 218.994 214.09 218.994C219.742 218.441 225.395 217.821 231.09 218.186C232.475 218.28 233.189 219.215 233.274 220.218H233.376C233.342 220.141 233.316 220.065 233.291 219.98H233.274ZM115.073 114.257C115.549 113.679 115.898 113.007 116.093 112.293H116.11C116.212 112.633 116.331 112.965 116.476 113.296C116.739 113.883 116.994 114.469 117.249 115.047C116.552 114.597 115.813 114.342 115.065 114.257H115.073ZM114.325 94.4604C113.492 93.7889 112.634 93.1429 111.767 92.5054C109.616 90.3294 106.106 90.8309 104.1 92.7944L93.2365 83.2574C94.367 82.7899 95.353 82.0079 95.965 81.0049C97.5035 82.7389 99.042 84.4644 100.572 86.1984C102.238 88.0684 105.273 88.2129 107.304 86.9379C108.129 88.0429 108.962 89.1479 109.786 90.2529C111.503 92.5394 114.334 93.7464 117.011 92.3524C117.062 92.4799 117.105 92.6159 117.164 92.7434C117.377 93.2534 117.598 93.7719 117.81 94.2819C116.68 93.8994 115.447 94.0099 114.317 94.4604H114.325ZM47.26 55.3434C51.5525 50.1499 57.375 52.0199 62.611 54.3149C60.605 52.2239 57.7405 50.9319 55.2585 49.4614C50.9235 46.9114 46.0955 51.4759 47.0985 55.5559C47.1495 55.4794 47.2005 55.4114 47.26 55.3349V55.3434Z" fill="#6610F2"/>
<path d="M179.001 220.354C173.034 204.807 164.968 190.188 154.895 176.91C154.666 176.613 154.403 176.392 154.122 176.239C154.564 175.083 154.198 173.689 152.651 173.408C148.767 172.703 144.882 172.006 141.007 171.3C141.635 170.127 141.363 168.436 139.706 167.977C138.082 167.535 136.459 167.093 134.844 166.651C138.176 161.5 139.077 155.031 137.241 149.251C138.38 149.396 139.528 149.54 140.667 149.668C142.63 149.889 143.251 147.9 142.579 146.463C142.622 146.387 142.664 146.31 142.706 146.225C145.018 141.27 146.243 136.042 146.268 130.56C146.268 129.676 145.86 129.064 145.282 128.707C145.358 128.452 145.401 128.188 145.401 127.916C146.344 128.843 148.138 129.072 149.124 127.644C152.473 122.774 154.241 117.113 154.377 111.205C154.402 109.964 153.604 109.242 152.66 109.055C154.411 108.562 155.354 105.952 153.314 104.941C145.061 100.835 136.348 97.6735 127.338 95.6845C123.955 94.9365 120.53 94.35 117.096 93.9165C117.266 92.8795 116.824 91.7405 115.532 91.3665C103.283 87.805 91.375 83.215 79.645 78.2255C74.4175 76.007 69.122 73.8565 64.073 71.2555C59.891 69.0965 55.6835 66.5125 52.7765 62.7215C51.493 61.047 49.3255 57.8255 49.929 55.5645C50.422 53.7455 52.7425 53.448 54.332 53.397C56.8055 53.3205 59.177 53.924 61.5825 54.434C76.925 57.698 92.0614 61.8646 106.913 66.912C120.224 71.4386 133.287 76.6648 146.047 82.569C147.373 83.181 148.614 82.501 149.192 81.5235C149.881 81.039 150.339 80.206 150.127 79.1605C147.696 66.9375 146.88 51.935 157.174 42.8825C159.341 40.9785 162.596 38.7685 165.614 39.4825C168.742 40.222 170.527 43.3415 171.241 46.24C172.865 52.87 171.615 60.7495 169.975 67.252C168.215 74.2305 164.96 81.328 168.385 88.332C169.677 90.967 173.604 88.6635 172.32 86.0285C170.501 82.314 171.606 78.098 172.686 74.324C173.808 70.414 174.956 66.5635 175.568 62.5345C176.63 55.5815 177.727 46.376 173.587 40.154C171.887 37.587 169.269 35.5045 166.192 34.9435C162.741 34.3145 159.332 35.734 156.519 37.655C151.07 41.378 147.39 47.175 145.52 53.431C143.216 61.149 143.769 69.309 145.137 77.163C120.836 66.164 95.489 57.5195 69.4875 51.51C64.158 50.2775 58.1995 48.246 52.666 48.977C47.498 49.6655 44.2765 53.6095 45.7215 58.854C48.739 69.802 60.809 74.953 70.2185 79.067C82.11 84.269 94.112 89.2415 106.445 93.296C104.558 93.4235 102.697 93.7465 100.903 94.3755C94.214 96.7385 89.165 103.275 88.8675 110.423C88.706 114.376 91.2645 116.382 94.775 117.41C99.5265 118.804 104.354 119.986 109.14 121.269C120.02 124.185 130.9 127.1 141.771 130.024C141.737 130.186 141.72 130.356 141.72 130.543C141.703 135.184 140.751 139.689 138.788 143.905C138.643 144.219 138.567 144.525 138.558 144.823C137.334 144.67 136.119 144.508 134.904 144.338L134.632 143.939C134.223 143.369 133.688 143.063 133.127 142.97C134.461 140.836 135.804 138.694 137.139 136.561C138.703 134.062 134.759 131.775 133.204 134.257L129.166 140.709C128.469 141.822 128.868 142.893 129.668 143.522C114.08 140.904 98.8299 136.574 84.1925 130.611C83.9926 130.525 83.7803 130.47 83.5635 130.449C83.432 130.334 83.2897 130.232 83.1385 130.143C78.4635 127.483 83.9715 121.601 86.173 119.425C88.264 117.359 85.0425 114.138 82.9515 116.203C80.257 118.864 77.4435 121.847 76.9845 125.774C76.7975 127.389 77.01 129.004 77.622 130.441C72.267 133.934 66.402 139.697 70.5415 146.463C74.3835 152.753 82.467 156.145 88.8505 159.103C91.494 160.327 93.8145 156.4 91.154 155.167C85.9775 152.77 80.529 150.348 76.3555 146.361C74.4685 144.559 72.9215 142.298 74.2305 139.689C75.4035 137.36 77.826 135.762 79.9425 134.376C80.172 134.232 80.3505 134.062 80.5035 133.883C80.614 133.951 80.7245 134.028 80.8435 134.096C81.277 134.342 81.702 134.436 82.1015 134.402C82.331 134.657 82.6285 134.869 82.994 135.022C98.7785 141.44 115.226 145.928 132.039 148.504C134.648 153.858 134.206 160.514 130.33 165.257C130.297 165.299 130.271 165.342 130.237 165.376C129.09 165.061 127.942 164.747 126.794 164.441C127.967 162.316 128.29 159.834 127.534 157.42C126.65 154.632 122.247 155.822 123.139 158.635C123.615 160.132 123.428 161.729 122.374 162.945C122.306 163.021 122.247 163.106 122.188 163.191C114.002 160.956 105.825 158.729 97.6395 156.493C97.155 156.306 96.662 156.119 96.1775 155.924C95.727 155.745 95.319 155.72 94.962 155.796C92.4545 155.567 91.511 159.545 94.1885 160.276C94.9365 160.48 95.6845 160.684 96.424 160.888C108.315 165.529 120.538 169.269 132.999 172.057C132.651 173.179 133.042 174.462 134.53 174.726L150.611 177.633C150.501 178.117 150.603 178.653 151.011 179.205C160.828 192.143 168.835 206.388 174.658 221.552C175.703 224.264 180.115 223.091 179.052 220.337L179.001 220.354ZM119.119 119.255C114.86 118.116 110.61 116.977 106.352 115.829C104.448 115.319 102.535 114.809 100.631 114.291C98.753 113.789 96.6025 113.466 94.8175 112.676C91.8595 111.358 94.0695 106.564 95.3105 104.507C96.9255 101.821 99.45 99.671 102.442 98.6765C106.148 97.444 110.151 97.75 113.976 98.1325C117.912 98.5235 121.83 99.1525 125.698 99.994C134.47 101.898 142.953 104.881 150.994 108.885C151.173 108.978 151.351 109.038 151.53 109.08C150.62 109.293 149.829 110.007 149.795 111.214C149.676 116.356 148.07 121.116 145.163 125.349C144.916 125.715 144.789 126.072 144.763 126.42C144.508 126.174 144.186 125.978 143.76 125.868C135.541 123.666 127.33 121.465 119.111 119.255H119.119Z" fill="black"/>
<path d="M178.534 88.1451C177.395 85.4506 173.46 87.7711 174.598 90.4486C182.427 108.911 185.41 129.166 183.507 149.107C183.226 152.031 187.79 152.006 188.071 149.107C190.06 128.308 186.694 107.355 178.542 88.1451H178.534ZM232.722 207.919C216.342 191.65 202.776 172.771 192.533 152.082C191.233 149.447 187.298 151.759 188.598 154.386C199.002 175.406 212.865 194.625 229.5 211.149C231.583 213.223 234.812 209.993 232.722 207.927V207.919ZM144.967 111.248C143.998 108.494 139.595 109.684 140.573 112.464C141.346 114.665 140.785 116.807 139.026 118.354C136.816 120.292 140.046 123.505 142.247 121.576C145.129 119.051 146.234 114.869 144.967 111.248ZM49.1895 36.6181C46.75 34.7566 44.319 32.8951 41.8795 31.0421C40.8935 30.2856 39.338 30.8976 38.76 31.8581C38.063 33.0226 38.607 34.2381 39.576 34.9776C42.0155 36.8391 44.4465 38.7006 46.886 40.5536C47.872 41.3101 49.4275 40.6981 50.0055 39.7376C50.7025 38.5731 50.1585 37.3576 49.1895 36.6181ZM38.216 43.4436C35.5633 42.4946 32.829 41.7918 30.0475 41.3441C28.8235 41.1486 27.608 41.6586 27.2425 42.9336C26.928 44.0216 27.625 45.5431 28.832 45.7386C31.62 46.1891 34.34 46.8861 37.0005 47.8381C39.7715 48.8241 40.9615 44.4211 38.216 43.4436ZM35.0965 57.3241H23.8085C20.876 57.3241 20.8675 61.8886 23.8085 61.8886H35.0965C38.029 61.8886 38.0375 57.3241 35.0965 57.3241ZM193.214 221.434C191.632 212.016 187.451 203.32 181.254 196.07C179.342 193.834 176.128 197.073 178.032 199.291C183.727 205.955 187.374 214.005 188.819 222.641C189.303 225.531 193.698 224.307 193.214 221.425V221.434Z" fill="black"/>
</svg>
