<svg width="225" height="225" viewBox="0 0 225 225" fill="none" xmlns="http://www.w3.org/2000/svg">
<path d="M181.14 55.1326C178.74 51.1951 175.373 48.1501 171.323 45.9826C171.152 45.8915 170.971 45.8234 170.783 45.7801L169.148 44.3101C167.535 42.8551 165.563 44.8726 166.088 46.5976C164.858 46.8076 163.763 47.9251 164.535 49.2526C164.708 49.5451 164.888 49.8376 165.06 50.1226C163.658 49.6126 161.813 50.8201 162.293 52.3651L161.768 51.9601C161.753 50.4226 161.693 48.8776 161.58 47.3401C161.46 45.6376 158.97 45.0226 158.01 46.3951C157.29 47.4301 156.563 48.4651 155.843 49.5001C155.753 49.5826 155.663 49.6651 155.58 49.7626L150.915 45.7051C149.948 44.8576 148.913 45.1801 148.313 45.9301C147.615 45.8476 146.85 46.1176 146.355 46.6576C145.703 47.3776 145.043 48.0976 144.39 48.8176C143.19 48.0226 141.975 47.2426 140.76 46.4776C138.585 45.1126 136.365 47.9176 138.315 49.6501L139.335 50.5576C137.745 49.5001 136.163 48.4426 134.573 47.3851C134.618 46.5826 134.663 45.7726 134.693 44.9626C134.76 43.1551 132.338 41.6851 131.115 43.4851C130.83 43.9051 130.53 44.3251 130.238 44.7451C128.655 44.5351 126.96 46.2376 128.115 47.7001C128.033 47.8126 127.95 47.9326 127.86 48.0451C126.33 47.2051 124.8 46.3801 123.248 45.5851C121.29 44.5801 119.625 47.4076 121.043 48.8401C120.113 48.3751 119.175 47.9251 118.238 47.4826C118.448 45.5626 118.748 43.6501 119.145 41.7376C119.648 39.3451 116.325 38.8951 115.313 40.7026C114.375 42.3751 113.445 44.0401 112.508 45.7126C111.915 46.0576 111.54 46.7476 111.525 47.4751C111.105 48.2326 110.678 48.9901 110.258 49.7476C108.72 48.7576 107.183 47.7676 105.645 46.7851C105.398 44.9551 105.068 43.1326 104.648 41.3251C104.295 39.7951 102.113 38.8276 101.078 40.3801C100.448 41.3176 99.825 42.2626 99.195 43.2001C98.2875 42.3301 96.3975 42.3526 95.7975 43.7626C95.1 45.3901 94.4025 47.0251 93.7125 48.6526L93.6075 48.5776C91.86 47.2651 89.1525 49.7176 90.795 51.3901L92.01 52.6276C91.8 53.1226 91.59 53.6101 91.38 54.1051C90.225 54.4276 89.4975 55.8976 90.2025 57.1876C90.1725 57.9976 90.6975 58.7101 91.3875 59.0701C91.545 59.3176 91.71 59.5576 91.875 59.7976L91.41 61.7251C90.6975 62.2801 90.33 63.2026 90.8475 64.0501C89.64 69.0001 88.4325 73.9576 87.2325 78.9076C86.7525 80.8876 89.7 81.9076 90.81 80.3851C91.215 79.8301 91.605 79.2751 91.995 78.7126C90.21 85.5526 88.59 92.4301 87.1425 99.3451C86.655 101.655 90.0375 102.308 90.975 100.38C90.975 100.373 90.9825 100.358 90.99 100.35C90.8175 101.28 90.645 102.218 90.495 103.155C90.1125 105.525 93.3225 106.073 94.3275 104.19C94.3275 104.19 94.3275 104.183 94.335 104.175L94.485 104.37C94.0425 106.155 93.615 107.948 93.21 109.748C91.845 109.965 90.7875 111.465 91.8825 112.868C92.055 113.085 92.22 113.303 92.3925 113.528C91.9875 115.455 91.59 117.383 91.23 119.325C90.78 121.718 94.05 122.183 95.0625 120.36C95.43 119.708 95.79 119.055 96.1575 118.403C96.2175 118.485 96.285 118.568 96.345 118.643C95.9325 119.873 95.5125 121.103 95.1 122.325C93.57 122.535 92.4825 124.538 93.945 125.753C93.645 126.645 93.345 127.538 93.0375 128.43C92.295 130.635 94.815 131.985 96.3975 130.493C96.945 131.093 97.485 131.693 98.0175 132.3C97.3425 134.318 96.69 136.343 96.0675 138.375C94.6125 137.25 93.135 138.48 93.0225 139.935C92.9025 140.063 92.7975 140.213 92.7075 140.385C92.6325 140.34 92.5575 140.303 92.475 140.265C91.65 139.56 90.825 138.855 90 138.143C88.26 136.658 85.785 139.185 87.1875 140.955L88.845 143.04C88.605 143.37 88.365 143.7 88.1325 144.03C86.685 142.8 85.2375 141.57 83.79 140.333C82.08 138.878 79.455 141.435 80.9775 143.145C81.81 144.083 82.635 145.028 83.4525 145.973C83.1825 145.995 82.92 146.07 82.6725 146.22C80.4675 144.06 78.2625 141.893 76.0575 139.733C74.4375 138.143 71.775 140.828 73.245 142.545C74.1 143.543 74.9625 144.54 75.8175 145.545C75.06 145.185 74.1375 145.268 73.515 146.145C73.005 146.873 72.5175 147.608 72.0375 148.358C70.7775 147.465 69.5175 146.58 68.2575 145.688C66.9975 144.795 65.76 145.425 65.31 146.453C63.6064 145.135 61.8913 143.833 60.165 142.545C58.4175 141.24 55.7175 143.67 57.3525 145.358C60.8025 148.905 64.32 152.378 67.9125 155.775C67.4977 156.649 67.1026 157.531 66.7275 158.423C65.445 157.68 64.1625 156.93 62.88 156.188C61.29 155.265 60.0975 156.878 60.2625 158.34C58.4475 157.935 57.465 160.68 58.8225 161.993C60.48 163.598 62.16 165.173 63.855 166.733C63.7575 167.108 63.66 167.483 63.57 167.858L63.1575 167.618C60.9525 166.328 58.77 169.013 60.7125 170.79C61.3275 171.353 61.95 171.908 62.58 172.463C62.4975 172.928 62.4225 173.393 62.355 173.858C61.83 173.61 61.305 173.37 60.78 173.123C60.36 172.928 59.9175 172.928 59.5125 173.055L58.9875 172.815C56.64 171.72 55.1175 175.41 57.435 176.513C58.3425 176.94 59.235 177.398 60.1125 177.863C64.6274 182.181 69.6999 185.877 75.195 188.85C77.1525 189.915 78.42 187.418 77.5425 185.865C81.6375 187.77 85.74 189.675 89.835 191.588C91.695 192.45 93.36 190.065 92.1975 188.513C91.5675 187.68 90.93 186.855 90.2775 186.038C90.6225 185.648 90.825 185.153 90.78 184.65C90.8325 184.605 90.885 184.56 90.9375 184.508C91.2225 184.215 91.5 183.915 91.7775 183.623C91.8825 183.638 91.9875 183.645 92.085 183.645C92.025 184.44 92.4975 185.138 93.1725 185.483C93.0525 185.723 92.94 185.97 92.82 186.21C92.22 187.44 93.2475 188.768 94.425 188.985C94.0125 189.878 93.6075 190.778 93.21 191.678C92.2425 193.898 95.1525 195.225 96.645 193.68C99.6825 190.523 102.495 187.185 105.098 183.675C107.374 181.279 109.226 178.511 110.573 175.493C111.255 173.955 109.613 172.47 108.263 172.695C108.48 172.298 108.69 171.893 108.893 171.48C109.913 169.463 106.733 167.603 105.458 169.478C105.405 169.56 105.353 169.643 105.3 169.718C106.095 168.09 106.89 166.455 107.678 164.828C108.788 164.468 109.598 163.095 108.945 161.933C109.02 160.973 108.255 160.148 107.355 159.893C106.403 158.693 105.443 157.493 104.49 156.293C104.543 156.18 104.595 156.068 104.648 155.963L106.598 157.628C108.585 159.323 110.91 156.18 109.043 154.455C108.188 153.658 107.355 152.838 106.545 151.995L107.333 150.353C109.433 151.38 111.593 152.31 113.79 153.128C115.778 153.863 117.18 151.725 116.153 150.053C114.45 147.278 112.643 144.57 110.76 141.923C112.125 141.81 113.22 140.018 112.253 138.653C111.831 138.06 111.398 137.475 110.955 136.898C112.65 137.348 114.428 135.48 113.13 133.808L109.14 128.655C109.448 127.358 109.695 126.045 109.89 124.718C109.898 124.658 109.89 124.605 109.898 124.545C109.935 124.568 109.965 124.59 110.003 124.613C111.848 125.79 114.27 123.705 112.815 121.8C111.345 119.88 109.875 117.953 108.405 116.033C108.63 115.5 108.855 114.96 109.088 114.428C109.185 114.503 109.283 114.57 109.373 114.645C111.143 115.958 113.73 113.595 112.185 111.833L110.888 110.355C111.083 109.92 111.278 109.485 111.48 109.05C111.885 108.173 111.63 107.415 111.098 106.928C111.54 106.283 111.623 105.428 110.978 104.708C109.583 103.155 108.21 101.58 106.86 99.9826C107.085 99.3151 107.31 98.6551 107.535 97.9876C107.535 97.9726 107.535 97.9651 107.543 97.9501C108.188 98.2726 108.833 98.5876 109.485 98.8876C111.24 99.6976 113.213 97.3051 111.848 95.8126C108.998 92.7001 106.283 89.4751 103.718 86.1376C103.718 85.1926 103.088 84.4951 102.308 84.2626C102 83.8501 101.685 83.4526 101.385 83.0401L110.003 88.5976C111.945 89.8501 114.053 87.7351 112.815 85.7851C110.31 81.8626 107.64 78.0601 104.813 74.3701C106.823 75.3976 108.773 72.6151 106.943 71.0026C105.985 70.1624 105.052 69.2946 104.145 68.4001C104.318 68.2801 104.468 68.1301 104.595 67.9576L113.625 74.5876C115.38 75.8776 118.095 73.4551 116.438 71.7751C115.283 70.5976 114.12 69.4276 112.965 68.2501C113.835 68.9251 114.72 69.5776 115.62 70.2151C117.72 71.7001 120.135 68.6026 118.065 67.0426C117.488 66.6076 116.91 66.1726 116.34 65.7376C116.798 65.8576 117.278 65.8126 117.698 65.5201L124.605 69.8851C125.7 70.5751 126.795 70.2151 127.373 69.4651C127.95 70.6201 129.51 71.0926 130.665 69.8251C131.078 69.3676 131.498 68.9101 131.91 68.4601L135.758 70.9351C137.94 72.3376 140.1 69.5176 138.203 67.7626L135.135 64.9201C135.698 64.3051 136.253 63.6901 136.815 63.0751C139.748 65.1826 142.598 67.4101 145.35 69.7576C147.233 71.3701 149.348 68.6776 148.065 66.9001C148.253 66.8551 148.433 66.7726 148.605 66.6526C150.938 68.5276 153.315 70.3501 155.738 72.1126C156.45 72.6301 157.185 72.6226 157.77 72.3226C158.295 72.2776 158.79 72.0601 159.135 71.6476C159.675 70.9876 160.223 70.3276 160.763 69.6751C162.105 70.5151 163.455 69.7051 163.8 68.5651C165.87 70.3576 167.903 72.1801 169.898 74.0551C171.788 75.8251 174.195 72.6376 172.343 70.8826C172.23 70.7776 172.118 70.6651 172.005 70.5601C173.175 70.0576 173.858 68.2051 172.628 67.0051C172.358 66.7426 172.088 66.4726 171.818 66.2101C173.408 65.4376 174.638 64.1476 175.275 62.3626C175.418 61.9651 175.433 61.5976 175.365 61.2601C176.588 60.8176 177.465 59.3701 176.34 58.2301C175.121 56.995 173.957 55.7062 172.853 54.3676C173.168 54.2626 173.453 54.0751 173.678 53.8276L178.298 57.9901C180.12 59.6326 182.198 56.9701 181.11 55.1776L181.14 55.1326ZM126.405 56.2801C127.395 56.8576 128.385 57.4426 129.36 58.0501C129.293 58.4701 129.225 58.8976 129.15 59.3176C128.16 58.3951 127.163 57.4801 126.173 56.5576C126.255 56.4676 126.33 56.3776 126.413 56.2801H126.405ZM118.965 55.3276C118.613 55.1026 118.26 54.8776 117.915 54.6526V54.3526L118.973 55.3276H118.965ZM113.94 51.3226L113.918 52.0801C113.82 52.0201 113.723 51.9526 113.625 51.8926C113.73 51.7051 113.835 51.5101 113.94 51.3226ZM99.42 73.9051L98.295 76.2226C97.8675 75.9451 97.4325 75.6676 97.005 75.3901C97.305 74.2801 97.62 73.1776 97.9275 72.0751C98.43 72.6826 98.9325 73.2901 99.42 73.9051ZM101.648 47.0926C101.438 47.6401 101.475 48.2926 101.865 48.8776C101.933 49.5376 101.993 50.1901 102.038 50.8501L101.123 50.2726C100.575 49.9276 99.99 49.8601 99.4725 49.9876L101.61 46.7926C101.625 46.8976 101.64 46.9951 101.648 47.1001V47.0926ZM95.6175 81.6976L95.0325 82.9051L95.415 81.3976C95.4825 81.4951 95.55 81.6001 95.625 81.6976H95.6175ZM99.1725 86.6851C98.9925 87.0226 98.8125 87.3601 98.6325 87.6901L98.385 87.5101C98.5275 87.0751 98.67 86.6401 98.82 86.1976C98.94 86.3551 99.0525 86.5201 99.1725 86.6776V86.6851ZM107.7 54.3151C107.7 54.3151 107.67 54.3676 107.655 54.3901L106.185 53.4601C106.185 53.2801 106.185 53.0926 106.17 52.9126C106.68 53.3776 107.19 53.8426 107.693 54.3076L107.7 54.3151ZM104.7 111.083C104.985 111.293 105.27 111.51 105.555 111.72C105.503 111.81 105.45 111.9 105.398 111.998L104.7 111.09V111.083ZM87.9075 181.658C87.6825 181.485 87.4575 181.32 87.2325 181.148C87.285 181.058 87.33 180.968 87.3825 180.878C87.6075 181.035 87.84 181.178 88.065 181.335C88.0125 181.448 87.96 181.553 87.9075 181.665V181.658ZM103.448 148.478C103.373 148.395 103.298 148.305 103.23 148.223L103.275 148.133C103.373 148.193 103.478 148.245 103.583 148.305C103.538 148.365 103.493 148.425 103.455 148.478H103.448ZM79.65 149.948C79.0425 150.758 78.435 151.575 77.8275 152.393L75.8775 151.02C76.2375 150.053 76.605 149.078 76.965 148.11C77.1225 147.683 77.1225 147.263 77.01 146.888C77.8875 147.908 78.765 148.935 79.6425 149.955L79.65 149.948ZM103.883 162.645C103.418 163.298 102.953 163.95 102.48 164.595C102.105 164.018 101.723 163.448 101.34 162.87C101.61 162.308 101.88 161.738 102.15 161.175C102.728 161.663 103.305 162.158 103.875 162.645H103.883ZM109.35 146.805C107.154 145.738 105.018 144.552 102.953 143.25C103.568 142.298 104.138 141.323 104.678 140.333C106.29 142.448 107.85 144.6 109.35 146.805ZM107.018 122.618C106.77 122.745 106.545 122.925 106.358 123.18C106.133 123.488 105.915 123.795 105.698 124.103C105.585 123.953 105.465 123.81 105.353 123.66L106.005 121.973L107.018 122.618ZM102.803 115.185L101.925 114.623L102.06 114.218L102.795 115.185H102.803ZM104.108 96.0301C104.04 96.1201 103.973 96.2101 103.913 96.3151C103.71 96.0676 103.508 95.8276 103.313 95.5801C103.575 95.7301 103.845 95.8801 104.108 96.0301ZM101.798 78.4651C101.94 78.1351 102.083 77.8126 102.225 77.4826C102.833 78.2851 103.433 79.0876 104.025 79.9051L101.798 78.4651ZM114.743 63.9901C114.78 64.2226 114.87 64.4476 114.99 64.6501C114.848 64.5451 114.705 64.4401 114.57 64.3351C113.288 63.3076 112.043 62.2351 110.843 61.1251L114.675 63.5476L114.743 63.9976V63.9901ZM122.063 62.0551L127.785 65.7376L127.448 67.0651C127.35 66.9301 127.238 66.7951 127.095 66.6676C125.423 65.1301 123.743 63.5926 122.07 62.0551H122.063ZM132.773 61.5676C132.855 61.1626 132.93 60.7651 133.005 60.3601C133.185 60.4801 133.365 60.6076 133.545 60.7276C133.29 61.0126 133.035 61.2901 132.773 61.5751V61.5676ZM145.613 64.4176L143.813 62.7301C144.135 62.9626 144.458 63.1951 144.773 63.4276C145.073 63.6826 145.38 63.9301 145.68 64.1776C145.65 64.2601 145.628 64.3351 145.613 64.4176ZM156.383 66.6826L156.27 67.2526C154.62 65.8951 152.948 64.5601 151.253 63.2626C152.963 64.4026 154.673 65.5426 156.39 66.6826H156.383Z" fill="#6610F2"/>
<path d="M182.078 46.6049C181.973 45.8324 181.44 45.1724 180.405 45.1349C152.333 44.0926 124.289 42.4197 96.2925 40.1174C93.7275 39.9074 93.2025 43.8824 95.7825 44.0924C123.428 46.3649 151.118 48.0149 178.838 49.0649L176.085 70.4549C175.755 73.0124 179.73 73.5299 180.06 70.9649L182.955 48.4799C183.068 47.5949 182.67 46.9574 182.078 46.5974V46.6049Z" fill="#0C0C0D"/>
<path d="M177.795 73.1776C157.02 71.8126 136.26 70.1851 115.523 68.2951C114.578 68.2126 113.91 68.7001 113.573 69.3601C112.418 68.3101 109.965 69.0826 110.175 71.1226C112.433 92.9776 113.558 114.93 113.528 136.898C112.838 137.228 112.328 137.918 112.448 138.9C113.813 150.045 113.7 162.218 110.108 172.98C107.07 182.1 100.725 190.088 90.435 190.538C85.3125 190.763 80.2275 189.18 75.6675 186.975C71.175 184.8 66.5025 181.838 63.2625 177.99C59.4 173.408 59.64 168.03 60.3075 162.39C60.9525 156.975 61.9725 151.245 65.34 146.798C71.055 139.238 82.7775 136.778 90.96 141.668C91.6575 142.088 92.385 142.05 92.9775 141.758C94.17 142.103 95.8425 141.278 95.775 139.605C95.13 123.908 94.575 108.21 94.1025 92.5051C93.87 84.7876 93.66 77.0701 93.465 69.3451C93.3675 65.3551 93.27 61.3576 93.1875 57.3676C93.15 55.5076 93.105 53.6401 93.0675 51.7801L93 48.5851C92.9925 48.0526 92.9775 47.5201 92.97 46.9876C92.985 46.9051 92.9925 46.8376 93 46.7701C93.045 46.7326 93.09 46.7026 93.135 46.6651C93.78 46.1776 94.1775 45.0526 93.7575 44.2951C92.8425 42.6601 90.54 42.6151 89.4375 44.1676C88.6875 45.2251 88.98 46.7326 89.0025 47.9476L89.115 53.5351C89.2575 60.4576 89.4225 67.3801 89.6025 74.3026C89.9625 88.2751 90.39 102.248 90.885 116.22C91.14 123.338 91.41 130.455 91.695 137.573C83.3175 133.493 72.81 134.723 65.595 140.768C61.1325 144.503 58.7175 149.715 57.42 155.303C56.025 161.318 54.78 168.743 56.7825 174.735C58.605 180.195 63.42 184.163 68.07 187.223C73.005 190.47 78.465 193.005 84.3 194.078C89.8575 195.098 95.7975 194.543 100.793 191.76C105.458 189.165 108.9 185.07 111.353 180.383C114.218 174.9 115.658 168.72 116.423 162.615C116.813 159.518 117.045 156.398 117.128 153.278C117.225 153.06 117.285 152.805 117.293 152.513C117.975 125.67 116.978 98.8051 114.285 72.0901C114.488 72.1876 114.728 72.2626 115.005 72.2851C135.743 74.1751 156.503 75.7951 177.278 77.1676C179.843 77.3326 180.368 73.3651 177.788 73.1926L177.795 73.1776Z" fill="#0C0C0D"/>
</svg>
