<svg xmlns="http://www.w3.org/2000/svg" viewBox="0 0 300 300"><path fill="#000000" d="M154.25 42.62h-.98c-.34-.01-.67.06-.96.22-.31.1-.58.27-.8.52-.24.23-.42.49-.52.8-.16.3-.23.62-.22.96l.09.66c.12.42.33.79.64 1.1l.51.39c.39.23.81.34 1.26.34h.98c.34.01.67-.06.96-.22.31-.1.58-.27.8-.52.24-.23.42-.49.52-.8.16-.3.23-.62.22-.96l-.09-.66a2.5 2.5 0 00-.64-1.1l-.51-.39c-.39-.23-.81-.34-1.26-.34z"></path><path fill="#6610F2" d="M149.71 34.04c-62.99 0-114.04 51.06-114.04 114.05 0 62.99 51.05 114.04 114.04 114.04 62.99 0 114.05-51.05 114.05-114.04 0-62.99-51.06-114.05-114.05-114.05zm0 216.84c-56.77 0-102.8-46.03-102.8-102.8 0-56.78 46.03-102.8 102.8-102.8 56.78 0 102.8 46.02 102.8 102.8 0 56.77-46.02 102.8-102.8 102.8z"></path><g fill="#000000"><path d="M252.29 155.76c1.36 20.59-6.75 40.97-20.06 56.49-13.26 15.47-31.11 26.45-50.03 33.64-10.19 3.88-20.71 6.67-31.64 7.06-10.13.35-20.24-1.08-29.92-4.05-19.25-5.9-35.98-17.86-48.51-33.54S51.48 180.7 48.2 161.07c-1.88-11.29-1.64-22.78 1.4-33.85 2.86-10.42 7.74-20.14 13.36-29.34s12-18.59 20.41-25.75c7.71-6.56 16.9-11.29 26.28-14.96 4.89-1.91 9.87-3.58 14.89-5.11 5.64-1.72 11.34-3.33 17.18-4.21 11.03-1.65 22.04.7 32.56 3.97 19.05 5.91 36.81 16.33 50.59 30.83 14.04 14.77 23.66 33.95 26.35 54.22.66 4.94.86 9.95.68 14.93-.12 3.22 4.88 3.21 5 0 .81-21.56-6.23-43.12-18.65-60.67-12.12-17.13-29.21-30.35-48.36-38.77-9.91-4.35-20.44-7.76-31.17-9.34-6.23-.92-12.34-.91-18.56.05s-11.79 2.58-17.55 4.35c-10.33 3.18-20.6 6.93-30.02 12.29-4.63 2.63-9.04 5.68-13.08 9.16-4.34 3.74-8.1 8.06-11.55 12.63-6.78 8.97-12.79 18.79-17.48 29.01s-8.08 21.74-8.47 33.38c-.4 11.74 1.77 23.58 5.27 34.75 3.06 9.75 7.28 19.17 12.61 27.89 10.8 17.67 26.25 32.55 45 41.54s41.5 12.49 62.49 7.67c10.89-2.5 21.52-6.73 31.47-11.77 9.5-4.81 18.47-10.69 26.49-17.7 16.13-14.1 28.2-33.51 31.27-54.92.74-5.17 1.01-10.37.66-15.59-.09-1.35-1.09-2.5-2.5-2.5-1.28 0-2.59 1.15-2.5 2.5z"></path><path d="M264.53 155.75c1.58 23.58-7.44 47.02-22.47 65.01s-35.18 30.63-56.77 38.86c-12.24 4.67-25.19 8.31-38.39 8.06-12.16-.23-24.35-3.49-35.65-7.87-20.61-7.98-39.16-21.38-53-38.62-14.57-18.16-23.48-40.95-25.14-64.17-.87-12.14.28-24.24 3.32-36.02 1.66-6.45 3.79-12.77 6.14-19s4.66-11.83 8-17.25C57.14 74.1 67.68 66.3 77.86 59.34s22.03-13.73 34.01-18.56c11.49-4.64 23.65-7.83 36.06-8.37 11.24-.5 22.47 1.01 33.25 4.21 21.82 6.49 41.19 19.76 55.59 37.33s23.89 39.53 28.22 62c1.04 5.4 1.77 10.85 2.22 16.33.11 1.35 1.07 2.5 2.5 2.5 1.27 0 2.61-1.15 2.5-2.5-1.95-23.87-9.12-47.44-21.82-67.82s-30.59-36.78-52.28-46.75c-10.74-4.94-22.11-8.25-33.84-9.66-12.08-1.46-24.31-.63-36.14 2.22-12.88 3.11-25.18 8.47-36.75 14.87-11.68 6.47-23.07 14.05-33.03 22.98-4.8 4.3-9.1 9.15-12.43 14.69s-5.9 11.89-8.24 18.08c-4.72 12.52-8.38 25.44-9.47 38.82-2 24.4 4.06 49.36 16.43 70.43 11.81 20.11 29.53 36.54 50.05 47.51 10.15 5.43 21.02 9.6 32.23 12.26 6.85 1.63 13.9 2.74 20.95 2.77s13.69-.93 20.35-2.48c12.45-2.91 24.62-7.72 35.98-13.57 10.67-5.49 20.74-12.24 29.69-20.25 18.2-16.29 31.57-38.52 34.97-62.91.82-5.88 1.09-11.8.69-17.73-.09-1.35-1.08-2.5-2.5-2.5-1.28 0-2.59 1.15-2.5 2.5z"></path></g><path fill="#000000" d="M115.31 90.92c7.87.56 15.78.32 23.6-.69 1.34-.17 2.5-1.03 2.5-2.5 0-1.22-1.15-2.67-2.5-2.5-7.83 1.01-15.73 1.24-23.6.69-1.35-.1-2.5 1.22-2.5 2.5 0 1.43 1.15 2.4 2.5 2.5z"></path><path fill="#6610F2" d="M136.18 206.39L106.05 207.28 106.39 183.09 107.79 159.75 107.62 136.42 105.58 113.09 107.24 90.39 135.85 90.2 135.06 113.08 136.4 136.41 137.18 159.75 135.18 183.08 136.18 206.39z"></path><path fill="#6610F2" d="M193.24 208.87L163.12 209.76 163.46 185.57 164.86 162.24 164.68 138.91 162.64 115.57 164.3 92.87 192.91 92.68 192.13 115.57 193.46 138.9 194.24 162.23 192.25 185.56 193.24 208.87z"></path><path fill="#000000" d="M114.68 211.05V116.2 89.74c0-3.22-5-3.22-5 0v121.31c0 3.22 5 3.22 5 0z"></path><path fill="#000000" d="M136.72 88c.98 32.23 1.43 64.47 1.36 96.71-.02 9.14-.09 18.28-.19 27.42l2.5-2.5c-8.87.39-17.76-.14-26.51-1.69-1.33-.23-2.69.36-3.08 1.75-.33 1.21.41 2.84 1.75 3.08 9.19 1.62 18.51 2.28 27.84 1.87 1.36-.06 2.48-1.1 2.5-2.5.37-32.24.22-64.48-.46-96.72-.19-9.14-.43-18.28-.71-27.41-.1-3.21-5.1-3.22-5 0zM160.18 89.1c-1.11 31.74-2.21 63.48-3.32 95.22l-.94 26.92c-.03.99.79 2.25 1.84 2.41 10.01 1.59 20.22 1.01 29.95-1.86 1.33-.39 2.07-1.74 1.75-3.08-3.6-14.96-1.25-30.47.12-45.57s1.76-31.56 1.61-47.36c-.08-8.9-.31-17.8-.57-26.7-.09-3.21-5.09-3.22-5 0 .47 15.98.84 31.97.43 47.96-.21 8.07-.61 16.13-1.3 24.18-.65 7.61-1.58 15.19-1.99 22.82-.46 8.71-.18 17.49 1.87 26l1.75-3.08c-8.83 2.61-18.19 3.3-27.29 1.86l1.84 2.41c1.11-31.74 2.21-63.48 3.32-95.22l.94-26.92c.11-3.22-4.89-3.21-5 0z"></path><path fill="#000000" d="M188.18 85.5h-26.79c-3.22 0-3.22 5 0 5h26.79c3.22 0 3.22-5 0-5z"></path></svg>