<svg width="414" height="156" viewBox="0 0 414 156" fill="none" xmlns="http://www.w3.org/2000/svg">
<path d="M46.1331 75H6.77313V21.4H46.1331V31.56H18.2131V42.84H41.5731V53H18.2131V64.84H46.1331V75ZM66.0963 31.16H54.6563V21.4H66.0963V31.16ZM52.5763 90.68C46.0162 90.68 42.0962 87.8 39.9362 85.48L45.7762 77.56C46.9762 79.48 48.7362 80.76 50.9763 80.76C53.3763 80.76 54.6563 79.56 54.6563 76.36V35.8H66.0963V76.28C66.0963 84.12 61.4563 90.68 52.5763 90.68ZM92.5075 75.8C80.0275 75.8 72.4275 67.48 72.4275 55.4C72.4275 43.32 80.0275 35 91.5475 35C104.028 35 110.268 43.32 110.268 53.56C110.268 55.24 110.108 57.48 109.868 58.36H83.1475C83.8675 63.88 87.5475 66.52 92.6675 66.52C98.1875 66.52 101.148 64.12 102.588 60.76L109.548 67.72C106.588 71.96 101.308 75.8 92.5075 75.8ZM91.6275 43.8C86.7475 43.8 83.7075 46.52 83.1475 51.8H99.9475C99.5475 46.6 96.7475 43.8 91.6275 43.8ZM128.284 75H116.844V35.8H128.284V48.12C129.564 41.56 133.404 35 140.924 35C146.684 35 149.884 38.68 149.884 44.84C149.884 49.08 148.604 52.44 147.644 53.96H136.604C138.044 52.52 139.404 49.72 139.404 47.48C139.404 45.24 138.364 43.56 135.884 43.56C131.964 43.56 128.284 47.8 128.284 54.28V75ZM171.871 75.8C159.791 75.8 152.191 67.4 152.191 55.4C152.191 43.48 159.791 35 171.871 35C181.231 35 187.711 40.12 190.111 46.84L180.591 52.36C179.631 47.48 177.071 44.52 172.271 44.52C167.231 44.52 163.871 48.2 163.871 55.4C163.871 62.6 167.231 66.28 172.271 66.28C177.151 66.28 179.631 63.32 180.591 58.44L190.111 63.96C187.711 70.68 181.231 75.8 171.871 75.8ZM206.878 31.16H195.438V21.4H206.878V31.16ZM206.878 75H195.438V35.8H206.878V75ZM232.809 75.8C220.729 75.8 213.129 67.4 213.129 55.4C213.129 43.48 220.729 35 232.809 35C242.169 35 248.649 40.12 251.049 46.84L241.529 52.36C240.569 47.48 238.009 44.52 233.209 44.52C228.169 44.52 224.809 48.2 224.809 55.4C224.809 62.6 228.169 66.28 233.209 66.28C238.089 66.28 240.569 63.32 241.529 58.44L251.049 63.96C248.649 70.68 242.169 75.8 232.809 75.8ZM267.815 31.16H256.375V21.4H267.815V31.16ZM267.815 75H256.375V35.8H267.815V75ZM293.506 75.8C281.586 75.8 273.906 67.4 273.906 55.4C273.906 43.48 281.586 35 293.506 35C305.746 35 313.506 43.48 313.506 55.4C313.506 67.4 305.746 75.8 293.506 75.8ZM293.666 66.52C298.546 66.52 301.906 63.4 301.906 55.4C301.906 47.32 298.546 44.28 293.666 44.28C288.866 44.28 285.506 47.32 285.506 55.4C285.506 63.4 288.866 66.52 293.666 66.52ZM336.471 75.8C327.751 75.8 319.991 72.6 316.631 67.88L321.911 60.12C325.191 63.64 330.871 67.08 336.791 67.08C339.911 67.08 341.751 66.12 341.751 64.04C341.751 61.96 339.511 61.16 335.351 60.12L330.071 58.84C323.031 57 317.911 54.2 317.911 47.32C317.911 39.64 324.151 35.08 333.751 35.08C342.231 35.08 348.391 38.76 351.111 42.2L345.991 49.88C342.151 45.88 337.351 43.72 332.791 43.72C329.991 43.72 328.311 44.76 328.311 46.68C328.311 48.76 329.991 49.56 335.191 51L339.591 52.2C348.231 54.52 351.991 57.88 351.991 63.88C351.991 71.48 345.591 75.8 336.471 75.8ZM384.612 75H373.172V21.4H384.612V47.16C385.892 40.76 389.652 35 397.732 35C405.172 35 409.732 39.56 409.732 47.64V75H398.292V51.64C398.292 46.84 397.012 43.88 391.812 43.88C386.372 43.88 384.612 46.92 384.612 53.32V75Z" fill="#0C0C0D"/>
<path d="M44.1331 73H4.77313V19.4H44.1331V29.56H16.2131V40.84H39.5731V51H16.2131V62.84H44.1331V73ZM64.0963 29.16H52.6563V19.4H64.0963V29.16ZM50.5763 88.68C44.0162 88.68 40.0962 85.8 37.9362 83.48L43.7762 75.56C44.9762 77.48 46.7362 78.76 48.9763 78.76C51.3763 78.76 52.6563 77.56 52.6563 74.36V33.8H64.0963V74.28C64.0963 82.12 59.4563 88.68 50.5763 88.68ZM90.5075 73.8C78.0275 73.8 70.4275 65.48 70.4275 53.4C70.4275 41.32 78.0275 33 89.5475 33C102.028 33 108.268 41.32 108.268 51.56C108.268 53.24 108.108 55.48 107.868 56.36H81.1475C81.8675 61.88 85.5475 64.52 90.6675 64.52C96.1875 64.52 99.1475 62.12 100.588 58.76L107.548 65.72C104.588 69.96 99.3075 73.8 90.5075 73.8ZM89.6275 41.8C84.7475 41.8 81.7075 44.52 81.1475 49.8H97.9475C97.5475 44.6 94.7475 41.8 89.6275 41.8ZM126.284 73H114.844V33.8H126.284V46.12C127.564 39.56 131.404 33 138.924 33C144.684 33 147.884 36.68 147.884 42.84C147.884 47.08 146.604 50.44 145.644 51.96H134.604C136.044 50.52 137.404 47.72 137.404 45.48C137.404 43.24 136.364 41.56 133.884 41.56C129.964 41.56 126.284 45.8 126.284 52.28V73ZM169.871 73.8C157.791 73.8 150.191 65.4 150.191 53.4C150.191 41.48 157.791 33 169.871 33C179.231 33 185.711 38.12 188.111 44.84L178.591 50.36C177.631 45.48 175.071 42.52 170.271 42.52C165.231 42.52 161.871 46.2 161.871 53.4C161.871 60.6 165.231 64.28 170.271 64.28C175.151 64.28 177.631 61.32 178.591 56.44L188.111 61.96C185.711 68.68 179.231 73.8 169.871 73.8ZM204.878 29.16H193.438V19.4H204.878V29.16ZM204.878 73H193.438V33.8H204.878V73ZM230.809 73.8C218.729 73.8 211.129 65.4 211.129 53.4C211.129 41.48 218.729 33 230.809 33C240.169 33 246.649 38.12 249.049 44.84L239.529 50.36C238.569 45.48 236.009 42.52 231.209 42.52C226.169 42.52 222.809 46.2 222.809 53.4C222.809 60.6 226.169 64.28 231.209 64.28C236.089 64.28 238.569 61.32 239.529 56.44L249.049 61.96C246.649 68.68 240.169 73.8 230.809 73.8ZM265.815 29.16H254.375V19.4H265.815V29.16ZM265.815 73H254.375V33.8H265.815V73ZM291.506 73.8C279.586 73.8 271.906 65.4 271.906 53.4C271.906 41.48 279.586 33 291.506 33C303.746 33 311.506 41.48 311.506 53.4C311.506 65.4 303.746 73.8 291.506 73.8ZM291.666 64.52C296.546 64.52 299.906 61.4 299.906 53.4C299.906 45.32 296.546 42.28 291.666 42.28C286.866 42.28 283.506 45.32 283.506 53.4C283.506 61.4 286.866 64.52 291.666 64.52ZM334.471 73.8C325.751 73.8 317.991 70.6 314.631 65.88L319.911 58.12C323.191 61.64 328.871 65.08 334.791 65.08C337.911 65.08 339.751 64.12 339.751 62.04C339.751 59.96 337.511 59.16 333.351 58.12L328.071 56.84C321.031 55 315.911 52.2 315.911 45.32C315.911 37.64 322.151 33.08 331.751 33.08C340.231 33.08 346.391 36.76 349.111 40.2L343.991 47.88C340.151 43.88 335.351 41.72 330.791 41.72C327.991 41.72 326.311 42.76 326.311 44.68C326.311 46.76 327.991 47.56 333.191 49L337.591 50.2C346.231 52.52 349.991 55.88 349.991 61.88C349.991 69.48 343.591 73.8 334.471 73.8ZM382.612 73H371.172V19.4H382.612V45.16C383.892 38.76 387.652 33 395.732 33C403.172 33 407.732 37.56 407.732 45.64V73H396.292V49.64C396.292 44.84 395.012 41.88 389.812 41.88C384.372 41.88 382.612 44.92 382.612 51.32V73Z" fill="#6610F2"/>
<path d="M283.087 137.282C282.952 134.249 280.83 132.49 277.969 132.163C253.651 129.393 229.257 127.341 204.818 126.01L207.624 125.944C213.091 125.811 218.538 125.465 223.928 124.475C223.991 124.464 224.052 124.444 224.113 124.428C231.464 124.37 238.815 124.442 246.161 124.619C255.996 124.854 265.826 125.274 275.651 125.8C278.329 125.944 280.888 123.343 280.769 120.682C280.636 117.688 278.514 115.84 275.651 115.563C243.339 112.451 210.808 111.704 178.389 113.367C173.942 113.593 169.499 113.87 165.059 114.188C163.83 112.531 161.744 111.64 159.6 112.232C153.702 113.859 147.792 115.458 141.877 117.027C139.409 117.683 137.879 120.173 138.211 122.643C138.275 123.116 138.418 123.589 138.623 124.04C137.962 124.945 137.564 126.043 137.611 127.084C137.716 129.452 139.152 131.242 141.368 132.019C148.846 134.645 156.941 134.609 164.812 134.734C164.575 135.14 164.389 135.564 164.276 135.976C163.764 137.829 164.37 139.553 165.593 140.956C168.835 144.671 174.352 144.743 178.87 145.25C183.393 145.759 187.934 146.124 192.474 146.453C194.651 146.611 196.831 146.76 199.011 146.912C199.047 147.687 199.252 148.448 199.659 149.123C201.424 152.061 204.376 154.36 207.79 154.988C210.128 155.417 212.775 154.51 213.785 152.288C221.039 152.573 228.305 152.446 235.551 151.906C238.113 151.715 240.224 150.105 240.578 147.469C240.91 145.001 239.391 142.505 236.912 141.852C232.801 140.77 228.648 139.94 224.473 139.279C234.369 139.487 244.257 140.001 254.134 140.651C262.086 141.177 270.029 141.789 277.975 142.406C280.65 142.613 283.209 139.904 283.093 137.287L283.087 137.282Z" fill="#0C0C0D"/>
<path d="M280.738 135.716C280.603 132.683 278.481 130.924 275.62 130.597C251.302 127.827 226.908 125.775 202.469 124.444L205.275 124.378C210.742 124.245 216.189 123.899 221.579 122.909C221.642 122.898 221.703 122.878 221.764 122.862C229.115 122.804 236.466 122.876 243.812 123.053C253.647 123.288 263.477 123.708 273.302 124.234C275.98 124.378 278.539 121.777 278.42 119.116C278.287 116.122 276.165 114.274 273.302 113.997C240.99 110.885 208.459 110.138 176.039 111.801C171.593 112.027 167.15 112.304 162.71 112.622C161.481 110.965 159.395 110.074 157.251 110.666C151.352 112.293 145.443 113.892 139.528 115.461C137.06 116.117 135.53 118.607 135.862 121.077C135.926 121.55 136.069 122.023 136.274 122.474C135.613 123.379 135.215 124.477 135.262 125.518C135.367 127.886 136.803 129.676 139.019 130.453C146.497 133.079 154.592 133.043 162.463 133.168C162.225 133.574 162.04 133.998 161.927 134.41C161.415 136.263 162.021 137.987 163.244 139.39C166.486 143.105 172.003 143.177 176.521 143.684C181.044 144.193 185.584 144.558 190.125 144.887C192.302 145.045 194.482 145.194 196.662 145.346C196.698 146.121 196.903 146.882 197.31 147.557C199.075 150.495 202.027 152.794 205.441 153.422C207.779 153.851 210.426 152.944 211.436 150.722C218.69 151.007 225.956 150.88 233.202 150.34C235.763 150.149 237.874 148.539 238.229 145.903C238.561 143.435 237.042 140.939 234.563 140.286C230.451 139.204 226.299 138.374 222.124 137.713C232.02 137.921 241.908 138.435 251.785 139.085C259.737 139.611 267.68 140.223 275.626 140.84C278.301 141.047 280.86 138.338 280.744 135.721L280.738 135.716Z" fill="#6610F2"/>
</svg>
