<svg width="296" height="543" viewBox="0 0 296 543" fill="none" xmlns="http://www.w3.org/2000/svg">
<path d="M6 442V437.5C16.5 437.5 24.3 435.4 29.4 431.2C34.8 426.7 38.25 421 39.75 414.1C41.55 407.2 42.45 399.7 42.45 391.6V145C42.45 134.2 39 125.5 32.1 118.9C25.5 112.3 16.8 109 6 109V104.5H51.9C67.2 104.5 78.9 102.85 87 99.55C94.5 96.25 99.75 92.2 102.75 87.4H107.25V258.4C115.35 242.5 127.2 230.05 142.8 221.05C158.4 211.75 175.05 207.1 192.75 207.1C206.85 207.1 218.85 210.4 228.75 217C238.65 223.3 246.15 231.85 251.25 242.65C256.65 253.45 259.35 265.6 259.35 279.1V401.5C259.35 412.6 262.65 421.45 269.25 428.05C276.15 434.35 285 437.5 295.8 437.5V442H158.55V437.5C169.35 437.5 178.05 434.35 184.65 428.05C191.55 421.45 195 412.6 195 401.5V274.6C195 268 194.1 260.95 192.3 253.45C190.5 245.65 187.2 239.05 182.4 233.65C177.9 227.95 171.45 225.1 163.05 225.1C155.25 225.1 147.75 227.5 140.55 232.3C133.65 236.8 127.35 242.5 121.65 249.4C115.95 256.3 111.15 263.2 107.25 270.1V391.6C107.25 399.7 108 407.2 109.5 414.1C111.3 421 114.75 426.7 119.85 431.2C125.25 435.4 133.2 437.5 143.7 437.5V442H6Z" fill="black"/>
<path d="M0 439V434.5C10.5 434.5 18.3 432.4 23.4 428.2C28.8 423.7 32.25 418 33.75 411.1C35.55 404.2 36.45 396.7 36.45 388.6V142C36.45 131.2 33 122.5 26.1 115.9C19.5 109.3 10.8 106 0 106V101.5H45.9C61.2 101.5 72.9 99.85 81 96.55C88.5 93.25 93.75 89.2 96.75 84.4H101.25V255.4C109.35 239.5 121.2 227.05 136.8 218.05C152.4 208.75 169.05 204.1 186.75 204.1C200.85 204.1 212.85 207.4 222.75 214C232.65 220.3 240.15 228.85 245.25 239.65C250.65 250.45 253.35 262.6 253.35 276.1V398.5C253.35 409.6 256.65 418.45 263.25 425.05C270.15 431.35 279 434.5 289.8 434.5V439H152.55V434.5C163.35 434.5 172.05 431.35 178.65 425.05C185.55 418.45 189 409.6 189 398.5V271.6C189 265 188.1 257.95 186.3 250.45C184.5 242.65 181.2 236.05 176.4 230.65C171.9 224.95 165.45 222.1 157.05 222.1C149.25 222.1 141.75 224.5 134.55 229.3C127.65 233.8 121.35 239.5 115.65 246.4C109.95 253.3 105.15 260.2 101.25 267.1V388.6C101.25 396.7 102 404.2 103.5 411.1C105.3 418 108.75 423.7 113.85 428.2C119.25 432.4 127.2 434.5 137.7 434.5V439H0Z" fill="#6610F2"/>
</svg>
