<svg xmlns="http://www.w3.org/2000/svg" viewBox="0 0 295.8 357.6"><defs><style>.cls-1{fill:#6610f2;}</style></defs><g id="Capa_2" data-name="Capa 2"><g id="Capa_1-2" data-name="Capa 1"><path d="M6,357.6v-4.5q15.75,0,23.4-6.3a29.94,29.94,0,0,0,10.35-17.1,89,89,0,0,0,2.7-22.5V60.6q0-16.2-10.35-26.1Q22.2,24.6,6,24.6V20.1H51.9q23,0,35.1-5Q98.25,10.2,102.75,3h4.5V174a88.89,88.89,0,0,1,35.55-37.35,95.93,95.93,0,0,1,49.95-14q21.15,0,36,9.9a60.24,60.24,0,0,1,22.5,25.65q8.1,16.2,8.1,36.45V317.1q0,16.65,9.9,26.55,10.35,9.45,26.55,9.45v4.5H158.55v-4.5q16.2,0,26.1-9.45Q195,333.75,195,317.1V190.2a90.83,90.83,0,0,0-2.7-21.15,44.16,44.16,0,0,0-9.9-19.8q-6.75-8.55-19.35-8.55a40,40,0,0,0-22.5,7.2,84.22,84.22,0,0,0-18.9,17.1,143.58,143.58,0,0,0-14.4,20.7V307.2a105.91,105.91,0,0,0,2.25,22.5,33.51,33.51,0,0,0,10.35,17.1q8.1,6.3,23.85,6.3v4.5Z"/><path class="cls-1" d="M0,354.6v-4.5q15.75,0,23.4-6.3a29.94,29.94,0,0,0,10.35-17.1,89,89,0,0,0,2.7-22.5V57.6q0-16.2-10.35-26.1Q16.2,21.6,0,21.6V17.1H45.9q23,0,35.1-5Q92.25,7.2,96.75,0h4.5V171a88.89,88.89,0,0,1,35.55-37.35,95.93,95.93,0,0,1,49.95-14q21.15,0,36,9.9a60.24,60.24,0,0,1,22.5,25.65q8.1,16.2,8.1,36.45V314.1q0,16.65,9.9,26.55,10.35,9.45,26.55,9.45v4.5H152.55v-4.5q16.2,0,26.1-9.45Q189,330.75,189,314.1V187.2a90.83,90.83,0,0,0-2.7-21.15,44.16,44.16,0,0,0-9.9-19.8q-6.75-8.55-19.35-8.55a40,40,0,0,0-22.5,7.2,84.22,84.22,0,0,0-18.9,17.1,143.58,143.58,0,0,0-14.4,20.7V304.2a105.91,105.91,0,0,0,2.25,22.5,33.51,33.51,0,0,0,10.35,17.1q8.1,6.3,23.85,6.3v4.5Z"/></g></g></svg>