<svg width="233" height="324" viewBox="0 0 233 324" fill="none" xmlns="http://www.w3.org/2000/svg">
<g clip-path="url(#clip0_2454_2)">
<path d="M4.27421 143.51C3.18444 140.717 3.28351 138.008 4.89694 135.428C5.76027 134.052 7.48693 133.485 8.20873 131.968C8.29365 131.784 8.50594 131.656 8.61917 131.472C10.6289 128.636 10.3883 127.757 7.586 125.757C5.53383 124.297 3.28351 123.12 1.62761 121.092C-0.580248 118.37 -0.410413 113.563 1.17472 111.337C2.0522 110.089 3.31181 109.309 4.55727 108.629C9.79386 105.821 15.1578 103.212 20.0689 99.8657C23.6638 97.4127 27.2303 94.832 29.792 91.1879C31.2497 89.1177 32.2829 86.8632 32.0423 84.2258C32.0423 84.1124 32.014 83.9989 32.0423 83.8997C32.9764 79.6742 32.0423 75.4204 32.1838 71.1949C32.297 68.0045 31.7451 64.5164 34.0803 61.6947C35.5947 59.8656 36.9392 57.8946 38.5527 56.1647C41.7371 52.7475 43.4071 48.5362 45.0347 44.2824C46.0113 41.7159 46.4783 38.9934 47.3699 36.3986C48.3748 33.4493 50.4694 31.45 52.8188 29.7343C57.1921 26.5155 62.0182 24.105 67.1275 22.205C71.4158 20.6169 74.954 17.6392 78.8036 15.2429C87.6775 9.75544 97.1176 5.62923 107.279 3.09111C113.79 1.46047 120.343 0.609706 127.023 0.170144C138.671 -0.581366 150.05 0.864936 161.174 4.1971C169.114 6.57925 176.685 9.88306 183.79 14.2078C189.989 17.9795 195.693 22.3184 201.028 27.2529C208.728 34.3709 214.955 42.5525 220.135 51.6131C224.197 58.7028 227.24 66.2179 229.363 74.0733C230.835 79.5324 232.094 85.0482 232.448 90.7484C232.66 94.2507 233.014 97.753 232.972 101.255C232.873 108.827 232.123 116.314 230.382 123.716C228.683 130.961 226.362 137.994 223.121 144.644C219.47 152.131 215.04 159.164 209.633 165.573C203.477 172.861 196.57 179.271 188.701 184.602C184.201 187.651 179.587 190.586 174.435 192.472C172.567 193.152 172.326 194.981 171.987 196.414C170.628 202.17 169.015 207.899 168.661 213.868C168.604 214.833 168.349 215.768 168.307 216.761C168.024 223.567 169.029 230.231 170.6 236.811C173.006 246.836 176.572 256.421 181.681 265.453C185.248 271.763 188.758 278.101 192.622 284.227C196.372 290.168 200.731 295.698 204.737 301.469C209.138 307.793 211.827 314.925 213.596 322.412C213.851 323.49 213.596 324.199 212.025 323.943C207.765 323.277 203.449 322.951 199.132 322.993C193.457 323.064 187.767 322.795 182.134 322.27C174.364 321.547 166.609 321.561 158.824 321.419C152.257 321.306 145.69 320.909 139.138 320.271C136.944 320.058 134.722 320.044 132.514 319.931C128.905 319.746 125.282 319.959 121.701 319.817C116.38 319.604 111.214 320.441 105.991 321.079C101.491 321.632 96.9477 321.533 92.4046 321.235C86.984 320.866 81.5352 320.725 76.1004 321.391C74.1332 321.632 72.1093 321.604 70.1137 321.675C65.3159 321.845 60.5463 322.199 55.8051 322.894C53.5689 323.22 51.2762 323.121 49.0258 323.263C47.5256 323.362 46.0113 323.475 44.5393 323.716C43.1665 323.929 41.8786 323.858 40.5482 323.49C39.2745 323.135 39.0622 322.398 39.5009 321.292C40.619 318.513 42.3456 316.088 43.9732 313.607C47.3982 308.332 50.3279 302.773 52.8896 297.045C55.522 291.175 57.6025 285.063 61.2964 279.703C62.8816 277.406 65.0894 275.705 66.7453 273.493C68.7833 270.77 71.3733 268.502 73.0858 265.524C75.8598 260.703 76.5392 255.627 75.0956 250.239C73.1708 243.035 71.0195 235.917 68.3021 228.941C66.3349 223.922 63.943 219.2 61.1691 214.62C61.1974 214.067 61.5653 213.911 62.0465 213.883C65.4008 213.698 68.6843 213.018 71.9112 212.096C72.5763 211.897 72.9302 211.983 73.0009 212.762C73.0434 213.23 73.2415 213.698 73.4255 214.152C74.7984 217.683 76.1853 221.213 77.5582 224.744C79.4688 229.678 81.4219 234.599 83.9695 239.264C85.9084 242.823 87.8615 246.382 89.1494 250.253C89.3617 252.89 89.6873 255.513 89.7439 258.151C89.8429 263.369 89.7722 268.587 89.7722 273.791C89.7722 274.23 89.8005 274.67 89.7439 275.095C89.1353 279.618 88.7532 284.184 88.0172 288.693C87.1539 293.954 86.2481 299.214 85.0734 304.404C84.111 308.715 82.8372 312.94 82.3136 317.35C82.2428 318.002 82.3843 318.13 82.9221 318.13C84.762 318.13 86.5878 318.357 88.4135 318.385C92.2206 318.442 95.9429 319.222 99.7217 319.321C104.718 319.463 105.963 319.264 106.841 314.301C107.661 309.622 107.336 304.872 107.831 300.179C108.596 292.905 109.629 285.687 109.968 278.342C110.435 268.247 110.464 258.165 110.733 248.083C110.917 241.093 110.28 234.102 110.266 227.098C110.266 219.016 109.997 210.919 109.657 202.837C109.402 196.725 107.534 190.898 106.048 185.013C105.991 183.425 106.869 182.135 107.506 180.802C108.921 177.782 109.544 174.506 110.719 171.401C111.695 172.436 111.907 173.84 112.459 175.073C114.059 178.647 115.615 182.22 116.663 186.006C117.087 187.537 117.385 189.21 118.22 190.515C119.21 192.075 119.819 193.634 119.791 195.435C119.762 197.236 120.272 198.98 120.696 200.639C121.588 204.113 122.225 207.601 122.395 211.146C122.692 217.073 122.197 223.042 123.145 228.955C123.201 229.324 123.145 229.749 123.272 230.09C124.107 232.16 124.206 234.443 124.263 236.527C124.419 242.085 125.268 247.615 125.084 253.188C124.871 259.881 125.452 266.573 124.588 273.28C124.065 277.336 123.711 281.419 123.244 285.503C122.918 288.31 122.182 291.104 122.381 293.968C122.395 294.181 122.395 294.422 122.324 294.62C121.503 296.79 121.149 299.03 121.121 301.341C121.107 302.83 120.541 304.248 120.357 305.751C119.946 309.14 118.474 312.458 119.932 315.918C119.762 316.91 120.116 317.378 121.163 317.166C125.721 317.336 130.292 317.038 134.821 317.804C135.982 318.002 136.718 317.392 136.746 316.201C136.873 311.494 137.312 306.815 138.02 302.15C138.416 299.512 138.147 296.846 138.572 294.152C139.109 290.763 139.52 287.332 139.902 283.929C140.312 280.285 140.822 276.655 141.19 273.011C141.699 268.005 141.303 262.958 141.77 257.924C142.166 253.741 142.336 249.43 141.459 245.177C140.978 242.837 141.218 240.384 140.85 237.959C140.326 234.542 139.888 231.082 139.548 227.651C139.166 223.808 139.279 219.909 138.812 216.052C138.572 214.124 138.954 212.096 138.586 210.21C137.991 207.218 137.935 204.184 137.439 201.192C137.439 199.887 137.51 198.583 137.425 197.293C137.326 195.931 136.916 194.684 135.557 194.003C131.976 184.801 130.023 175.073 126.414 165.885C126.004 165.049 127.334 163.361 125.183 163.361C125.027 162.964 124.928 162.539 124.73 162.17C122.805 158.71 120.682 155.35 118.984 151.777C117.583 148.813 115.375 146.488 113.62 143.822C112.841 142.617 111.723 141.638 110.761 140.547C110.096 139.199 109.19 138.108 107.647 137.725C106.303 135.258 105.086 132.705 103.585 130.337C96.2542 118.767 85.9792 111.025 72.9443 106.899C65.7829 104.63 58.4375 103.978 51.0356 104.829C41.7512 105.892 33.2453 109.267 25.4895 114.499C23.2816 114.442 21.1445 114.641 18.9367 115.009C15.1295 115.633 11.3507 116.456 7.54354 117.122C6.52453 117.306 5.57628 117.973 5.37814 118.98C5.16585 120.029 4.98186 121.333 6.18486 122.042C7.72753 122.964 9.25605 123.914 10.5864 125.119C11.0252 125.516 11.2799 125.389 11.7045 125.219C12.9641 124.708 14.1105 123.957 15.455 123.673C11.3648 128.806 7.95398 134.322 5.74612 140.561C5.3923 141.567 5.4206 142.858 4.30252 143.524L4.27421 143.51Z" fill="#FDC0CA"/>
<path d="M25.447 114.499C33.2029 109.267 41.7229 105.892 50.9931 104.829C58.3951 103.978 65.7405 104.63 72.9019 106.899C85.9367 111.025 96.2118 118.767 103.543 130.337C105.043 132.705 106.26 135.258 107.605 137.725C107.463 139.044 108.044 140.121 108.794 141.128V141.17C108.794 141.709 108.723 142.276 109.402 142.518C109.926 144.956 110.294 147.452 111.016 149.834C111.497 151.422 110.987 153.081 111.723 154.584C111.723 157.831 111.723 161.078 111.709 164.326C111.384 166.693 110.704 169.005 110.69 171.401C109.516 174.492 108.893 177.782 107.478 180.802C106.855 182.135 105.963 183.425 106.02 185.013C105.1 184.9 105.029 185.751 104.76 186.247C101.137 192.727 96.3816 198.214 90.4798 202.709C89.6024 203.376 89.3618 204.113 89.6307 205.091C89.942 206.183 90.2109 207.289 90.6214 208.353C93.3953 215.414 96.3958 222.39 99.5802 229.267C102.934 236.499 105.864 243.915 108.765 251.331C109.275 252.635 109.119 253.67 108.171 254.748C106.034 257.201 103.217 258.335 100.217 259.186C99.1131 259.498 97.9951 259.654 96.8487 259.37C94.839 258.874 93.4095 257.754 92.4188 255.882C91.3998 253.954 90.7204 251.813 89.1353 250.225C87.8615 246.354 85.8943 242.794 83.9553 239.235C81.4078 234.57 79.4688 229.65 77.544 224.716C76.1712 221.185 74.7842 217.654 73.4114 214.124C73.2415 213.67 73.0434 213.216 72.9868 212.734C72.9019 211.954 72.5622 211.883 71.897 212.068C68.6701 213.003 65.4008 213.67 62.0324 213.854C61.5512 213.883 61.1832 214.024 61.1549 214.592C60.4614 214.053 59.6547 214.109 58.8338 214.124C42.3881 214.393 28.4758 208.565 17.0544 196.711C14.6059 194.173 12.6952 191.21 10.4591 188.516C9.56744 185.453 7.61433 182.901 6.49625 179.923C6.05751 178.746 5.84522 177.413 4.89697 176.449C3.41091 170.621 2.25037 164.751 2.36359 158.682C2.44851 154.669 2.92971 150.713 3.82134 146.8C4.0761 145.694 4.33085 144.602 4.24593 143.468C5.36402 142.801 5.33571 141.511 5.68953 140.504C7.89739 134.265 11.3083 128.749 15.3985 123.616C16.0636 122.936 16.7571 122.283 17.3799 121.575C19.7434 118.852 22.7438 116.824 25.4187 114.456L25.447 114.499ZM85.9651 201.164C87.2813 200.327 88.7532 199.689 89.6024 198.271C90.0694 198.229 90.3666 197.888 90.6921 197.605C96.1552 192.713 100.429 186.942 103.472 180.277C103.939 179.256 104.449 178.221 104.279 177.03C105.072 176.959 105.171 176.236 105.312 175.74C106.331 171.883 107.591 168.069 107.52 164.014C108.213 163.56 107.959 162.837 107.987 162.227C108.313 156.215 107.294 150.415 105.68 144.63C104.392 140.008 102.326 135.867 99.8349 131.826C98.08 128.976 95.8438 126.594 93.5652 124.226C92.249 122.028 90.0977 120.695 88.1729 119.15C80.4171 112.953 71.5007 109.55 61.7069 108.671C52.7905 107.877 44.1289 109.224 35.9627 113.124C31.0658 115.378 26.5934 118.257 22.7297 122.028C22.3334 122.354 21.9513 122.695 21.8239 123.219C19.0075 125.261 17.0119 128.055 15.0871 130.862C13.2472 133.528 11.4073 136.236 10.6855 139.497C10.2185 139.667 10.0769 140.093 9.92127 140.49C7.62849 146.006 6.58117 151.777 6.29811 157.704C6.0292 163.546 6.90669 169.26 8.66165 174.818C10.8412 181.709 14.2804 187.92 19.2905 193.181C21.1446 195.676 23.5081 197.661 25.9141 199.561C32.9906 205.134 41.0719 208.452 49.9316 209.799C51.5168 210.04 53.1727 210.721 54.8286 209.969C57.5035 210.65 60.1784 210.352 62.8391 209.969C66.1226 209.473 69.491 209.232 72.5481 207.729C73.836 207.941 74.5436 206.708 75.5909 206.467C79.5113 205.588 82.7523 203.404 85.9792 201.164H85.9651Z" fill="#92908F"/>
<path d="M4.92529 176.506C5.85939 177.47 6.07168 178.803 6.52458 179.98C7.64266 182.943 9.59577 185.51 10.4874 188.572C6.24152 185.666 5.4348 181.156 4.92529 176.506Z" fill="#F9BFC8"/>
<path d="M111.723 154.598C110.973 153.095 111.497 151.422 111.016 149.848C110.294 147.466 109.926 144.985 109.402 142.532C109.36 142.007 109.629 141.355 108.808 141.185L108.794 141.142C108.921 140.731 108.355 139.511 109.657 140.405C109.926 140.589 110.351 140.518 110.719 140.561C111.681 141.638 112.799 142.631 113.578 143.836C115.318 146.516 117.54 148.841 118.941 151.791C120.626 155.364 122.763 158.724 124.688 162.184C124.886 162.553 124.999 162.978 125.14 163.375C125.027 164.467 125.692 165.19 126.372 165.899C129.981 175.088 131.934 184.815 135.515 194.017C135.529 194.499 135.401 195.052 135.585 195.463C136.279 197.08 136.873 198.71 136.845 200.497C136.845 200.894 137.071 201.078 137.397 201.206C137.892 204.198 137.963 207.232 138.543 210.224C138.911 212.11 138.543 214.138 138.77 216.066C139.237 219.923 139.138 223.822 139.506 227.665C139.845 231.11 140.284 234.556 140.808 237.973C141.176 240.398 140.935 242.851 141.416 245.191C142.294 249.444 142.124 253.755 141.728 257.938C141.261 262.986 141.657 268.02 141.147 273.025C140.779 276.669 140.27 280.299 139.86 283.943C139.477 287.36 139.067 290.792 138.529 294.166C138.105 296.861 138.373 299.526 137.977 302.164C137.27 306.829 136.831 311.494 136.703 316.215C136.675 317.406 135.925 318.016 134.779 317.818C130.25 317.052 125.678 317.35 121.121 317.18C121.248 316.23 120.852 315.804 119.89 315.932C118.446 312.472 119.89 309.154 120.314 305.765C120.498 304.276 121.064 302.858 121.079 301.355C121.107 299.044 121.461 296.804 122.282 294.634C122.352 294.436 122.352 294.209 122.338 293.982C122.14 291.118 122.89 288.324 123.202 285.517C123.669 281.447 124.008 277.35 124.546 273.294C125.424 266.587 124.829 259.895 125.041 253.202C125.225 247.63 124.376 242.1 124.221 236.541C124.164 234.471 124.079 232.174 123.23 230.104C123.088 229.763 123.159 229.352 123.102 228.969C122.168 223.057 122.65 217.101 122.352 211.16C122.183 207.615 121.546 204.127 120.654 200.653C120.229 198.994 119.72 197.25 119.748 195.449C119.777 193.648 119.168 192.089 118.177 190.529C117.342 189.224 117.045 187.551 116.62 186.02C115.573 182.234 114.016 178.647 112.417 175.088C111.865 173.854 111.653 172.45 110.676 171.415C110.676 169.005 111.37 166.693 111.695 164.34C112.049 161.092 112.021 157.845 111.709 154.584L111.723 154.598Z" fill="#FEFD04"/>
<path d="M89.1494 250.267C90.7345 251.869 91.4138 254.01 92.4328 255.925C93.4236 257.796 94.853 258.916 96.8627 259.413C98.0091 259.696 99.1272 259.54 100.231 259.228C103.232 258.378 106.048 257.229 108.185 254.79C109.133 253.713 109.289 252.677 108.78 251.373C105.878 243.943 102.934 236.541 99.5942 229.31C96.4098 222.419 93.4094 215.456 90.6354 208.395C90.225 207.346 89.9419 206.226 89.6447 205.134C89.3758 204.155 89.6164 203.404 90.4939 202.752C96.3815 198.257 101.137 192.769 104.774 186.289C105.043 185.793 105.114 184.942 106.034 185.056C107.506 190.94 109.388 196.768 109.643 202.879C109.983 210.962 110.237 219.058 110.251 227.14C110.251 234.145 110.902 241.135 110.718 248.126C110.45 258.207 110.421 268.303 109.954 278.385C109.615 285.73 108.581 292.947 107.817 300.221C107.322 304.914 107.661 309.665 106.826 314.344C105.949 319.307 104.703 319.505 99.7075 319.363C95.9286 319.25 92.2064 318.484 88.3993 318.427C86.5735 318.399 84.7478 318.172 82.9079 318.172C82.3701 318.172 82.2144 318.045 82.2993 317.392C82.823 312.983 84.0826 308.757 85.0592 304.447C86.2339 299.257 87.1397 293.996 88.003 288.736C88.7389 284.212 89.1211 279.661 89.7296 275.138C89.7863 274.712 89.7579 274.273 89.7579 273.833C89.7579 268.615 89.8287 263.397 89.7296 258.193C89.6872 255.556 89.3475 252.918 89.1352 250.295L89.1494 250.267Z" fill="#030202"/>
<path d="M25.447 114.499C22.7721 116.867 19.7717 118.894 17.4081 121.617C16.7854 122.326 16.0919 122.978 15.4267 123.659C14.0822 123.928 12.9216 124.694 11.6762 125.204C11.2516 125.374 10.9968 125.502 10.5581 125.105C9.22773 123.9 7.69921 122.95 6.15654 122.028C4.95354 121.319 5.13753 120.015 5.34982 118.965C5.56211 117.959 6.49621 117.292 7.51522 117.108C11.3224 116.441 15.1012 115.633 18.9083 114.995C21.1021 114.626 23.2533 114.428 25.4612 114.485L25.447 114.499Z" fill="#FDFC06"/>
<path d="M137.383 201.206C137.057 201.078 136.831 200.894 136.831 200.497C136.845 198.71 136.25 197.08 135.571 195.463C135.387 195.052 135.514 194.499 135.5 194.017C136.859 194.684 137.269 195.945 137.369 197.307C137.468 198.597 137.383 199.902 137.383 201.206Z" fill="#FAC0C6"/>
<path d="M110.704 140.561C110.35 140.518 109.912 140.589 109.643 140.405C108.341 139.511 108.907 140.731 108.779 141.142C108.015 140.135 107.449 139.058 107.591 137.739C109.133 138.122 110.039 139.199 110.704 140.561Z" fill="#FDFC06"/>
<path d="M126.358 165.899C125.692 165.19 125.013 164.467 125.126 163.375C127.277 163.375 125.933 165.063 126.358 165.899Z" fill="#FAC0C6"/>
<path d="M119.904 315.932C120.866 315.804 121.263 316.244 121.135 317.18C120.088 317.392 119.734 316.91 119.904 315.932Z" fill="#FDFC06"/>
<path d="M104.279 177.03C104.449 178.221 103.939 179.256 103.472 180.277C100.429 186.942 96.1552 192.727 90.6922 197.604C90.3808 197.888 90.0836 198.228 89.6024 198.271C89.6024 197.831 89.5033 197.363 89.6307 196.981C90.6639 193.776 90.5931 190.458 90.5648 187.168C90.5365 182.787 89.2344 178.831 85.6396 176.009C80.6011 172.025 75.4495 168.182 70.7648 163.744C65.4433 158.724 60.7729 153.265 58.1262 146.303C56.9516 143.212 55.7202 140.149 54.3899 137.129C52.833 133.598 50.6535 130.834 46.1953 131.429C47.0586 130.692 47.8512 129.855 48.7853 129.217C51.7008 127.204 54.9843 126.608 58.3527 127.586C60.4473 128.196 62.4004 129.373 64.3677 130.394C71.3168 134.024 77.5441 138.661 83.2902 143.992C87.5078 147.906 91.6829 151.847 94.9805 156.583C99.3255 162.822 101.958 169.869 104.279 177.044V177.03Z" fill="#040202"/>
<path d="M93.5653 124.212C95.8439 126.58 98.08 128.976 99.835 131.812C102.326 135.853 104.392 139.993 105.68 144.616C107.294 150.401 108.327 156.201 107.987 162.213C107.959 162.822 108.214 163.546 107.52 163.999C105.765 162.936 104.888 161.078 104.109 159.405C101.802 154.471 98.5471 150.188 95.4051 145.821C94.4852 144.531 93.7492 143.141 92.7161 141.908C90.8762 139.71 88.5693 138.193 86.2482 136.605C82.5259 134.066 78.5207 131.996 74.7135 129.6C72.0386 127.913 68.8117 127.289 66.2076 125.417C64.1413 123.928 61.8485 122.978 59.4142 122.227C56.2864 121.248 53.0595 121.376 49.8892 121.121C45.332 120.752 40.7747 121.915 36.1892 121.716C35.8778 121.716 35.5665 121.872 35.2551 121.915C31.1366 122.553 26.9898 122.326 22.8571 122.113C22.8147 122.113 22.7722 122.042 22.7297 122.014C26.6076 118.242 31.08 115.364 35.9627 113.109C36.1184 113.109 36.2883 113.138 36.4439 113.109C40.0954 112.698 43.7469 112.017 47.4125 111.947C52.8331 111.847 58.2536 111.649 63.6884 112.358C66.4765 112.726 69.2788 113.435 72.1377 113.223C72.2934 113.223 72.4774 113.209 72.6189 113.279C74.6852 114.385 76.9921 114.91 79.1292 115.931C83.1345 117.845 86.9558 120 90.6214 122.496C91.5414 123.12 92.2632 124.198 93.5511 124.198L93.5653 124.212Z" fill="#FDFC06"/>
<path d="M19.2762 193.181C14.2661 187.906 10.8269 181.709 8.64738 174.818C6.89241 169.274 6.01493 163.546 6.28383 157.704C6.55274 151.777 7.61421 145.992 9.90699 140.49C10.0768 140.093 10.2042 139.667 10.6712 139.497C10.7137 140.249 10.7703 141 10.8128 141.738C10.9968 145.736 13.2612 147.721 16.8985 147.041C17.7336 146.885 18.4695 146.332 19.3753 146.459C18.6394 148.118 18.3138 149.862 18.2855 151.663C18.2572 153.393 18.2855 155.123 18.2855 156.853C18.0025 156.825 17.7477 156.725 17.6911 156.399C17.5354 155.548 17.4364 154.683 17.2382 153.847C16.8278 152.06 15.0304 150.16 13.6717 150.004C11.6195 149.777 10.1759 150.727 9.04366 152.84C7.01979 156.598 7.21793 160.653 7.78405 164.595C8.18033 167.388 8.19448 170.678 11.4497 172.252C11.6478 172.351 11.6903 172.734 11.8601 172.947C12.7517 174.053 13.7 175.116 15.1719 175.4C15.8088 175.527 16.6579 175.556 16.5306 174.563C15.9645 170.04 16.2475 165.602 17.677 161.277C18.0874 160.029 17.6487 158.682 18.3138 157.505C18.3705 157.647 18.4837 157.789 18.4978 157.945C19.3329 164.694 20.083 171.444 22.2767 177.938C22.9702 179.994 23.7203 181.78 25.8291 182.886C30.5844 185.382 35.637 187.126 40.534 189.281L40.6047 189.381L40.718 189.338C40.9727 189.352 41.2133 189.366 41.4681 189.381L41.553 189.423L41.6237 189.352C41.7653 189.267 41.921 189.182 42.0625 189.097C42.9258 189.636 43.9448 189.253 44.8506 189.537C45.162 190.132 45.7139 190.118 46.2659 190.09C54.1633 193.209 61.169 197.789 67.7501 203.106C69.1371 204.836 71.0053 206.098 72.5055 207.715C69.4484 209.218 66.0942 209.459 62.7966 209.955C60.1358 210.352 57.4467 210.65 54.786 209.955C49.8891 207.431 44.8082 205.29 40.2368 202.156C38.9488 201.277 37.4911 200.653 36.0758 199.973C30.6128 197.335 24.7251 195.747 19.2338 193.181H19.2762Z" fill="#F9BFC8"/>
<path d="M22.7156 122.028C22.7156 122.028 22.8005 122.127 22.843 122.127C26.9756 122.34 31.1224 122.567 35.241 121.929C35.5523 121.886 35.8637 121.716 36.175 121.73C40.7748 121.943 45.3179 120.766 49.8751 121.135C53.0454 121.39 56.2722 121.262 59.4 122.241C61.8343 122.992 64.1271 123.942 66.1935 125.431C68.7976 127.303 72.0245 127.927 74.6994 129.614C78.5065 132.01 82.5118 134.081 86.234 136.619C88.5551 138.193 90.8762 139.724 92.7019 141.922C93.7351 143.155 94.471 144.545 95.391 145.835C98.5329 150.203 101.788 154.485 104.095 159.419C104.888 161.107 105.751 162.95 107.506 164.013C107.577 168.069 106.303 171.883 105.298 175.74C105.171 176.25 105.057 176.959 104.265 177.03C101.944 169.855 99.3113 162.808 94.9664 156.569C91.6688 151.833 87.4795 147.891 83.2761 143.978C77.53 138.646 71.3027 134.01 64.3536 130.38C62.3863 129.359 60.4474 128.182 58.3386 127.572C54.9843 126.594 51.7008 127.189 48.7712 129.203C47.8371 129.841 47.0445 130.678 46.1812 131.415C43.7186 132.053 42.0485 133.613 41.0578 135.938C40.4492 136.293 39.8548 136.661 39.2462 136.987C35.5948 138.987 31.9292 140.759 28.1503 137.257C27.5984 136.746 27.2162 137.072 26.7775 137.469C25.6594 138.462 24.7819 139.724 23.5082 140.546C23.5789 140.178 23.5506 139.752 23.7346 139.469C25.2065 137.143 25.0225 134.818 24.0035 132.379C22.9845 129.954 23.1402 127.643 25.3339 125.8C25.5745 125.601 25.8151 125.346 25.9566 125.062C26.5369 123.843 25.9991 122.95 24.6687 122.978C23.7063 122.992 22.7581 123.134 21.7957 123.219C21.923 122.695 22.291 122.354 22.7014 122.028H22.7156Z" fill="#FAC0C6"/>
<path d="M72.5338 207.729C71.0194 206.112 69.1654 204.864 67.7784 203.12C67.5378 202.156 68.1747 201.816 69.2361 201.575C68.0614 200.937 67.4246 200.242 67.651 199.164C67.8775 198.101 67.9341 197.42 66.4763 197.137C65.5422 196.952 64.778 196.002 63.7023 195.69C63.306 195.577 62.5843 195.038 62.5701 194.244C62.5418 193.351 61.9474 192.996 61.1831 192.684C60.3198 192.316 59.3432 191.975 59.3149 190.756C59.7537 190.756 60.1783 190.756 60.617 190.756C61.0982 192.174 62.5276 192.429 63.5891 192.996C65.5705 194.046 66.9009 195.917 68.9955 196.881C70.057 197.364 70.708 198.923 71.3449 200.1C71.7978 200.937 72.3073 201.178 73.2131 201.22C75.2936 201.305 77.5581 200.526 79.3413 202.369C79.5112 202.553 79.9216 202.567 79.9216 201.986C79.9216 201.135 80.0207 201.079 80.7 201.476C81.0963 201.702 81.4077 201.958 82.0163 201.561C80.7708 200.937 80.8274 199.916 81.4218 199.023C82.0446 198.087 82.087 197.123 82.087 196.087C82.0729 194.684 81.7898 193.166 82.1861 191.876C82.7522 190.075 82.3559 188.473 81.8889 186.828C81.62 185.878 81.4077 184.957 81.4077 183.964C81.4077 182.83 79.7801 180.448 78.7469 180.433C77.5015 180.419 76.7938 179.866 76.1003 178.987C75.7606 178.562 75.1945 178.448 74.6992 178.221C73.3263 177.597 71.6846 177.371 70.708 176.165C70.0287 175.329 69.3352 174.832 68.4011 175.159C67.4104 175.513 66.4905 174.988 65.5564 175.201C65.4573 175.215 65.3724 175.3 65.3016 175.385C64.5657 176.307 65.8677 179.895 67.099 180.334C67.835 181.695 68.0331 184.12 67.4387 184.404C66.3772 184.9 64.6364 183.751 63.7448 181.979C63.6316 181.738 63.3485 181.554 63.3061 181.312C63.1928 180.745 62.8815 180.377 62.4144 180.036C59.3432 177.753 56.5834 175.159 54.9558 171.642C54.4322 170.508 53.767 170.097 52.7621 169.614C51.9129 169.203 51.5308 169.629 51.0921 170.026C50.5825 170.479 50.8373 171.032 51.2194 171.458C52.0686 172.422 52.1677 173.556 52.1535 174.79C52.1252 175.853 51.8988 176.974 52.3234 178.009C53.3565 180.547 54.0359 183.085 52.8895 185.807C52.6347 186.389 52.7338 187.055 53.0876 187.679C54.0076 189.352 55.7059 189.239 57.192 189.437C58.1827 189.579 58.9894 189.707 59.2866 190.784C58.027 190.884 56.7249 190.487 55.5361 191.337C55.3238 191.493 53.9651 192.089 54.4746 190.501C54.6444 189.948 53.8377 189.508 53.1018 189.48C52.1394 189.451 51.1628 189.636 50.2146 189.324C48.87 188.884 47.5255 188.005 46.2234 189.451C46.1244 189.565 45.813 189.508 45.6007 189.522C45.4875 189.04 45.3743 188.586 45.2752 188.119C45.1195 186.431 45.4733 184.772 45.6007 183.099C45.346 182.064 46.3508 181.327 46.2801 180.334C47.7378 180.121 48.403 180.689 48.2473 182.234C48.1624 183.028 48.1058 183.865 48.4171 184.645C48.7144 185.396 48.5162 186.729 49.606 186.658C50.7099 186.601 50.809 185.297 51.0638 184.375C51.1062 184.219 51.1204 184.049 51.0921 183.893C50.5542 181.369 50.993 178.817 50.8373 176.279C50.7807 175.414 50.8798 174.577 50.6392 173.698C50.1155 171.756 49.4079 169.841 49.5211 167.743C49.6485 165.318 48.5162 162.993 48.8417 160.525C48.87 160.341 48.7144 160.114 48.6294 159.916C48.0633 158.71 47.9926 157.463 48.6861 156.342C49.0965 155.676 48.3605 154.428 49.5211 154.329C50.6533 154.23 49.9598 155.563 50.5259 156.087C51.1487 156.654 52.0403 157.406 52.0403 158.072C52.0403 159.831 52.564 161.447 52.7904 163.134C52.847 163.602 52.9602 164.155 52.5781 164.538C51.9695 165.134 52.3658 165.502 52.6913 166.055C53.7528 167.927 55.2813 169.487 56.1447 171.486C56.357 171.968 56.8665 172.11 57.3618 172.167C57.4467 172.464 57.4892 172.791 57.6166 173.074C58.4799 174.974 60.7585 175.612 61.5935 177.612C61.8483 178.207 62.8248 178.193 63.4759 177.711C64.1552 177.2 63.7306 176.747 63.4193 176.208C62.9522 175.4 62.8673 174.279 62.0606 173.769C61.2256 173.244 61.268 172.592 61.2822 171.841C62.188 170.961 61.8766 169.118 60.617 167.927C60.0933 166.566 60.3622 165.091 59.9518 163.716C59.9235 162.978 60.3198 162.539 60.985 162.241C61.5935 162.978 61.5794 164.311 62.471 164.552C63.3627 164.779 63.8156 165.091 64.1977 165.885C64.4666 166.424 65.0186 166.963 65.5847 167.204C67.5661 168.04 68.8257 169.643 70.1278 171.217C70.5665 171.741 71.0336 172.252 71.6988 172.578C72.5621 172.989 73.5669 173.386 74.1048 174.109C75.8456 176.449 78.5205 177.427 80.8132 178.973C81.5634 179.469 82.5824 179.965 83.1485 180.462C84.5213 181.624 85.3422 181.199 86.3754 180.306C86.899 180.873 87.1396 181.596 87.3802 182.305C88.7106 186.048 88.3709 189.848 87.635 193.62C87.1396 196.158 86.1914 198.583 85.9791 201.178C82.7664 203.418 79.5253 205.588 75.5908 206.481C74.5293 206.722 73.8217 207.956 72.5479 207.743L72.5338 207.729Z" fill="#DB0304"/>
<path d="M59.9378 163.73C60.3623 165.105 60.0934 166.58 60.6029 167.941C60.235 169.118 61.6644 170.111 60.9285 171.33C59.6972 170.082 58.5791 168.721 58.0696 167.048C56.8099 162.907 55.9608 158.668 55.3947 154.371C54.8427 150.146 54.5172 145.85 52.8188 141.865C52.6631 139.667 51.6724 137.81 50.4411 136.094C49.3797 134.605 47.7096 134.279 45.9263 135.031C44.228 135.74 43.0108 137.03 42.5579 138.774C41.7088 142.12 41.7371 145.58 42.2466 148.955C43.0674 154.357 43.8742 159.76 44.3129 165.205C44.7799 170.919 45.615 176.619 45.3461 182.376C45.3461 182.617 45.5159 182.872 45.6008 183.127C45.4734 184.8 45.1338 186.46 45.2753 188.147C44.9781 188.544 44.9922 189.012 44.9922 189.48C44.9498 189.522 44.8932 189.565 44.8507 189.607C43.9449 189.324 42.9401 189.707 42.0626 189.168C43.209 185.892 43.393 182.447 43.1948 179.072C42.6995 170.309 42.1616 161.546 40.6897 152.883C40.3218 150.756 40.0529 148.6 39.9538 146.431C39.784 142.886 40.0387 139.412 41.0577 136.009C42.0484 133.684 43.7185 132.138 46.1811 131.486C50.6393 130.89 52.8188 133.655 54.3756 137.186C55.706 140.206 56.9373 143.269 58.112 146.36C60.7586 153.322 65.4291 158.781 70.7506 163.801C75.4352 168.225 80.5869 172.082 85.6254 176.066C89.2061 178.902 90.5081 182.844 90.5506 187.225C90.5789 190.515 90.6497 193.833 89.6165 197.037C89.4891 197.434 89.5882 197.902 89.5882 198.328C88.739 199.746 87.2671 200.398 85.9509 201.22C86.1632 198.625 87.1114 196.187 87.6068 193.663C88.3427 189.877 88.6824 186.091 87.352 182.347C87.0973 181.639 86.8708 180.915 86.3472 180.348C85.9226 178.774 84.663 177.867 83.4741 176.945C79.582 173.953 75.6475 171.004 71.7413 168.026C68.3446 165.446 64.9337 162.907 62.4711 159.278C61.1266 157.292 59.6688 155.364 58.4092 153.28C58.6357 156.839 58.7914 160.369 59.9236 163.772L59.9378 163.73Z" fill="#F37784"/>
<path d="M21.8239 123.219C22.7863 123.134 23.7346 123.007 24.697 122.978C26.0415 122.95 26.5793 123.843 25.9849 125.063C25.8434 125.346 25.6169 125.601 25.3622 125.8C23.1684 127.643 23.0128 129.94 24.0318 132.379C25.0508 134.832 25.2348 137.143 23.7629 139.469C23.5789 139.767 23.6072 140.192 23.5364 140.547C22.2627 142.588 20.8757 144.559 19.3896 146.459C18.4838 146.318 17.7479 146.885 16.9128 147.041C13.2897 147.721 11.0111 145.736 10.8271 141.738C10.7988 140.986 10.7422 140.235 10.6855 139.497C11.4073 136.236 13.2614 133.528 15.0871 130.862C17.0119 128.069 19.0075 125.261 21.8239 123.219Z" fill="#FCFBFC"/>
<path d="M93.5652 124.212C92.2772 124.212 91.5413 123.134 90.6355 122.51C86.9699 120.015 83.1627 117.859 79.1433 115.945C77.0062 114.924 74.6993 114.4 72.6329 113.294C72.5056 113.223 72.3074 113.223 72.1517 113.237C69.2928 113.435 66.4906 112.727 63.7024 112.372C58.2677 111.663 52.8471 111.862 47.4265 111.961C43.7609 112.032 40.1095 112.712 36.458 113.124C36.3023 113.138 36.1325 113.124 35.9768 113.124C44.1431 109.224 52.8047 107.877 61.721 108.671C71.5149 109.536 80.4312 112.953 88.187 119.15C90.1118 120.695 92.2631 122.028 93.5793 124.226L93.5652 124.212Z" fill="#FAC0C6"/>
<path d="M19.2764 193.181C24.7677 195.761 30.6553 197.335 36.1184 199.973C37.5337 200.653 38.9914 201.277 40.2793 202.156C44.8507 205.29 49.9317 207.431 54.8286 209.955C53.1727 210.692 51.5168 210.026 49.9317 209.785C41.0719 208.438 32.9906 205.134 25.9141 199.547C23.4939 197.647 21.1446 195.662 19.2905 193.167L19.2764 193.181Z" fill="#030202"/>
<path d="M111.723 154.598C112.035 157.845 112.063 161.107 111.709 164.354C111.709 161.107 111.709 157.845 111.723 154.598Z" fill="#FAC0C6"/>
<path d="M108.808 141.199C109.629 141.369 109.36 142.021 109.402 142.546C108.723 142.305 108.78 141.752 108.808 141.199Z" fill="#FDFC06"/>
<path d="M19.3753 146.459C20.8755 144.559 22.2484 142.588 23.5221 140.547C24.7959 139.724 25.6734 138.462 26.7915 137.47C27.2302 137.087 27.6123 136.746 28.1643 137.257C31.9431 140.759 35.6087 138.987 39.2602 136.988C39.8688 136.647 40.4632 136.293 41.0718 135.938C40.0528 139.341 39.798 142.815 39.9678 146.36C40.0669 148.53 40.3358 150.685 40.7038 152.812C42.1899 161.475 42.7277 170.238 43.2089 179.001C43.3929 182.376 43.223 185.821 42.0766 189.097C41.9351 189.182 41.7794 189.267 41.6379 189.352L41.553 189.295L41.4822 189.366C41.2275 189.352 40.9869 189.338 40.7321 189.324L40.6613 189.21L40.534 189.267C35.637 187.112 30.5844 185.368 25.8291 182.872C23.7203 181.766 22.9702 179.98 22.2767 177.924C20.083 171.429 19.3328 164.666 18.4978 157.931C18.4837 157.775 18.3846 157.633 18.3138 157.491C18.3138 157.278 18.2997 157.066 18.2855 156.839C18.2855 155.109 18.2572 153.379 18.2855 151.649C18.3138 149.848 18.6394 148.104 19.3753 146.445V146.459Z" fill="#040202"/>
<path d="M18.2997 156.853C18.2997 157.066 18.3139 157.278 18.328 157.505C17.6487 158.682 18.1016 160.029 17.6911 161.277C16.2758 165.602 15.9928 170.04 16.5448 174.563C16.6721 175.556 15.823 175.527 15.1861 175.4C13.7142 175.116 12.7659 174.053 11.8743 172.947C11.7044 172.734 11.662 172.351 11.4638 172.252C8.20867 170.678 8.19451 167.402 7.79823 164.595C7.24627 160.653 7.03397 156.598 9.05784 152.84C10.1901 150.727 11.6337 149.777 13.6859 150.004C15.0445 150.16 16.8278 152.06 17.2524 153.847C17.4505 154.683 17.5496 155.548 17.7053 156.399C17.7619 156.725 18.0025 156.825 18.2997 156.853Z" fill="#FCFBFC"/>
<path d="M45.615 189.508C45.8273 189.48 46.1386 189.551 46.2377 189.437C47.5398 187.977 48.8843 188.856 50.2288 189.31C51.1771 189.622 52.1536 189.423 53.116 189.466C53.852 189.494 54.6587 189.934 54.4889 190.487C53.9794 192.075 55.3381 191.479 55.5504 191.323C56.7392 190.472 58.0413 190.869 59.3009 190.77C59.3292 191.99 60.3057 192.344 61.1691 192.699C61.9192 193.01 62.5278 193.365 62.5561 194.258C62.5702 195.038 63.292 195.591 63.6883 195.705C64.7639 196.002 65.5282 196.967 66.4623 197.151C67.92 197.434 67.8634 198.115 67.637 199.179C67.4105 200.27 68.0474 200.965 69.2221 201.589C68.1606 201.816 67.5237 202.17 67.7643 203.135C61.1832 197.831 54.1775 193.237 46.2802 190.118C46.0537 189.919 45.8273 189.721 45.6008 189.508H45.615Z" fill="#CC0204"/>
<path d="M45.6149 189.508C45.8413 189.707 46.0678 189.905 46.2942 190.118C45.7422 190.146 45.1903 190.16 44.8789 189.565C44.9214 189.522 44.978 189.48 45.0204 189.437C45.2186 189.451 45.4309 189.48 45.629 189.494L45.6149 189.508Z" fill="#F37784"/>
<path d="M40.5481 189.281L40.6613 189.225L40.7321 189.338L40.6189 189.381L40.5481 189.281Z" fill="#F37784"/>
<path d="M41.4822 189.395L41.5671 189.31L41.652 189.366L41.5671 189.437L41.4822 189.395Z" fill="#F37784"/>
<path d="M45.6007 183.085C45.5158 182.829 45.3318 182.588 45.3459 182.333C45.6148 176.576 44.7798 170.876 44.3128 165.162C43.874 159.717 43.0673 154.315 42.2464 148.912C41.7369 145.552 41.6945 142.078 42.5578 138.731C42.9966 136.987 44.2137 135.697 45.9262 134.988C47.7095 134.251 49.3795 134.577 50.441 136.052C51.6723 137.767 52.6772 139.639 52.8187 141.823C51.6582 141.993 52.5498 143.396 51.8705 143.595C50.4269 143.992 50.8939 145.07 50.8656 145.949C50.809 147.353 50.8373 148.771 50.8656 150.174C50.8656 150.642 50.7665 151.138 51.1487 151.564C53.3707 154.031 52.9602 157.307 53.2857 160.185C53.5547 162.595 54.5312 164.623 55.1539 166.821C55.4511 167.842 55.805 169.005 56.5126 169.699C57.3193 170.479 57.376 171.231 57.3476 172.152C56.8523 172.096 56.3428 171.954 56.1305 171.472C55.2672 169.472 53.7528 167.899 52.6772 166.041C52.3658 165.488 51.9554 165.119 52.5639 164.524C52.9461 164.141 52.8329 163.588 52.7762 163.12C52.5498 161.433 52.0261 159.802 52.0261 158.058C52.0261 157.392 51.1345 156.64 50.5118 156.073C49.9456 155.562 50.6391 154.215 49.5069 154.315C48.3464 154.414 49.0823 155.662 48.6719 156.328C47.9784 157.462 48.0492 158.696 48.6153 159.901C48.7002 160.1 48.8559 160.313 48.8276 160.511C48.502 162.978 49.6343 165.29 49.5069 167.728C49.3937 169.813 50.1013 171.727 50.625 173.684C50.8656 174.549 50.7665 175.399 50.8231 176.264C50.9647 178.803 50.5259 181.355 51.0779 183.879C51.1062 184.035 51.092 184.205 51.0496 184.361C50.809 185.297 50.7099 186.587 49.5918 186.644C48.5021 186.7 48.7002 185.382 48.403 184.63C48.0916 183.836 48.1624 183.014 48.2331 182.22C48.3888 180.674 47.7236 180.107 46.2659 180.32C46.1951 179.2 46.4357 178.051 45.8838 176.973C45.8838 178.108 44.8789 179.341 46.2659 180.32C46.3225 181.312 45.3318 182.05 45.5865 183.085H45.6007Z" fill="#CC0204"/>
<path d="M67.1134 180.334C65.8821 179.909 64.5659 176.307 65.316 175.385C65.3867 175.3 65.4717 175.215 65.5707 175.201C66.5048 175.003 67.4248 175.513 68.4155 175.158C69.3496 174.832 70.0431 175.329 70.7224 176.165C71.699 177.37 73.3407 177.597 74.7135 178.221C75.2089 178.448 75.7892 178.562 76.1147 178.987C76.8082 179.866 77.5017 180.405 78.7613 180.433C79.7944 180.447 81.4362 182.844 81.422 183.964C81.422 184.956 81.6343 185.878 81.9032 186.828C82.3703 188.473 82.7666 190.061 82.2004 191.876C81.8042 193.166 82.0872 194.669 82.1014 196.087C82.1014 197.122 82.0589 198.087 81.4362 199.022C80.8559 199.916 80.7851 200.923 82.0306 201.561C81.422 201.972 81.1107 201.717 80.7144 201.476C80.035 201.078 79.9501 201.135 79.936 201.986C79.936 202.567 79.5255 202.539 79.3557 202.369C77.5724 200.54 75.308 201.305 73.2275 201.22C72.3075 201.178 71.8122 200.937 71.3593 200.1C70.7224 198.923 70.0714 197.363 69.0099 196.881C66.9153 195.917 65.5849 194.046 63.6035 192.996C62.542 192.429 61.0984 192.174 60.6313 190.756C62.8251 190.401 64.8772 190.458 66.3067 192.571C66.519 192.883 67.0285 193.067 67.4389 193.166C69.7175 193.748 71.1894 195.492 72.7746 196.995C74.0908 198.243 75.6193 198.668 77.2752 198.895C77.9404 198.98 78.4499 198.668 78.733 198.072C80.1766 195.052 80.0917 191.805 79.9926 188.586C79.936 186.828 78.6905 185.283 78.8037 183.439C78.832 182.858 78.3084 182.631 77.8555 182.447C75.124 181.27 72.6614 179.582 69.7883 178.632C66.9719 177.711 67.0568 177.47 67.1276 180.306L67.1134 180.334Z" fill="#ED0001"/>
<path d="M59.9377 163.73C58.8055 160.341 58.6498 156.796 58.4233 153.237C59.683 155.321 61.1266 157.25 62.4852 159.235C64.9479 162.865 68.3587 165.389 71.7554 167.984C75.6616 170.961 79.5962 173.911 83.4882 176.903C84.6771 177.824 85.9367 178.718 86.3613 180.306C85.3281 181.199 84.5072 181.624 83.1344 180.462C82.5541 179.979 81.5351 179.483 80.7992 178.973C78.5205 177.441 75.8315 176.463 74.0907 174.109C73.5528 173.4 72.548 172.989 71.6847 172.578C71.0195 172.252 70.5524 171.755 70.1137 171.217C68.7975 169.643 67.552 168.04 65.5706 167.204C65.0186 166.963 64.4525 166.438 64.1836 165.885C63.8015 165.091 63.3486 164.779 62.4569 164.552C61.5653 164.325 61.5795 162.993 60.9709 162.241C60.3198 162.539 59.9094 162.978 59.9377 163.716V163.73Z" fill="#BA0313"/>
<path d="M57.3478 172.181C57.3761 171.259 57.3195 170.508 56.5128 169.728C55.791 169.033 55.4371 167.87 55.1541 166.849C54.5172 164.652 53.5548 162.624 53.2859 160.213C52.9604 157.335 53.3708 154.06 51.1488 151.592C50.7667 151.167 50.8657 150.685 50.8657 150.203C50.8516 148.799 50.8233 147.381 50.8657 145.977C50.894 145.098 50.427 144.021 51.8706 143.624C52.5641 143.425 51.6583 142.021 52.8188 141.851C54.5313 145.85 54.8427 150.132 55.3947 154.357C55.9608 158.654 56.81 162.893 58.0696 167.034C58.5791 168.693 59.6972 170.068 60.9285 171.302C61.0417 171.472 61.1549 171.656 61.2681 171.826C61.2398 172.578 61.2115 173.23 62.0466 173.755C62.8533 174.265 62.9382 175.385 63.4052 176.194C63.7166 176.732 64.1412 177.186 63.4619 177.697C62.8108 178.193 61.8343 178.207 61.5795 177.597C60.7445 175.598 58.4659 174.96 57.6025 173.06C57.4752 172.776 57.4327 172.464 57.3478 172.153V172.181Z" fill="#BA0313"/>
<path d="M59.3009 190.756C58.9896 189.678 58.197 189.551 57.2063 189.409C55.7202 189.196 54.0219 189.324 53.1019 187.651C52.7623 187.027 52.6632 186.36 52.9038 185.779C54.0502 183.071 53.3708 180.533 52.3377 177.98C51.9131 176.945 52.1537 175.839 52.1678 174.761C52.1961 173.528 52.0829 172.394 51.2337 171.429C50.8516 170.99 50.5969 170.451 51.1064 169.997C51.5451 169.6 51.9272 169.175 52.7764 169.586C53.7813 170.068 54.4465 170.479 54.9701 171.614C56.5836 175.13 59.3575 177.725 62.4287 180.008C62.8816 180.348 63.193 180.717 63.3204 181.284C63.3628 181.525 63.6459 181.709 63.7591 181.95C64.6507 183.723 66.3916 184.871 67.453 184.375C68.0474 184.092 67.8493 181.667 67.1134 180.306C69.0665 180.972 70.1987 182.815 69.9156 184.815C69.8449 185.283 69.5477 185.41 69.1514 185.509C66.0377 186.247 64.3535 185.354 62.4995 182.886C61.2399 181.213 60.4615 178.916 58.0272 178.306C57.5177 178.179 57.0506 177.838 56.5553 177.64C56.0882 177.441 55.8335 176.591 55.239 176.959C54.6446 177.328 54.8711 178.136 54.7154 178.746C54.1068 181.142 55.0833 183.638 54.1634 186.048C53.6964 187.254 54.6871 188.232 55.8759 188.048C57.5884 187.792 59.8104 189.069 60.603 190.756C60.1643 190.756 59.7397 190.756 59.3009 190.756Z" fill="#ED0001"/>
<path d="M61.2682 171.855C61.155 171.685 61.0417 171.5 60.9285 171.33C61.6645 170.125 60.2492 169.118 60.603 167.941C61.8626 169.132 62.174 170.976 61.2682 171.855Z" fill="#CC0204"/>
<path d="M45.615 189.494C45.4169 189.48 45.2046 189.451 45.0065 189.437C45.0065 188.969 44.9923 188.515 45.2895 188.104C45.4027 188.572 45.516 189.026 45.615 189.494Z" fill="#CC0204"/>
<path d="M46.2942 180.32C44.9072 179.341 45.9262 178.094 45.912 176.973C46.464 178.051 46.2234 179.2 46.2942 180.32Z" fill="#DB0304"/>
<path d="M60.6172 190.756C59.8246 189.068 57.6026 187.792 55.8901 188.048C54.7013 188.232 53.7106 187.253 54.1776 186.048C55.0975 183.638 54.121 181.156 54.7296 178.746C54.8852 178.136 54.6588 177.328 55.2532 176.959C55.8477 176.591 56.1024 177.441 56.5695 177.64C57.0648 177.853 57.5319 178.179 58.0414 178.306C60.4615 178.916 61.2541 181.213 62.5137 182.886C64.3677 185.353 66.0519 186.247 69.1656 185.509C69.5619 185.41 69.8591 185.283 69.9298 184.815C70.1987 182.815 69.0665 180.972 67.1276 180.306C67.0568 177.456 66.9719 177.711 69.7883 178.632C72.6614 179.582 75.124 181.27 77.8555 182.447C78.3084 182.645 78.832 182.872 78.8037 183.439C78.6905 185.283 79.936 186.828 79.9926 188.586C80.0917 191.805 80.1766 195.052 78.733 198.072C78.4499 198.668 77.9404 198.98 77.2752 198.895C75.6052 198.668 74.0766 198.243 72.7746 196.995C71.1894 195.492 69.7175 193.748 67.4389 193.166C67.0285 193.067 66.519 192.883 66.3067 192.571C64.8772 190.444 62.8392 190.387 60.6313 190.756H60.6172Z" fill="#FB0001"/>
</g>
<defs>
<clipPath id="clip0_2454_2">
<rect width="233" height="324" fill="white"/>
</clipPath>
</defs>
</svg>
