<svg width="202" height="201" viewBox="0 0 202 201" fill="none" xmlns="http://www.w3.org/2000/svg">
<g clip-path="url(#clip0_2172_1188)">
<rect x="5" y="163" width="192" height="35" rx="14" fill="#6610F2"/>
<path d="M41.8644 31.9314C39.7978 30.2718 39.5655 29.1834 40.7965 26.8935C46.8873 15.5815 56.1619 8.31272 68.566 4.78667C78.9233 1.83679 89.429 0.0737651 100.192 -0.000104825C113.505 -0.0887487 126.616 1.73338 138.946 6.70236C154.346 12.9124 162.968 24.8202 165.752 41.111C169.262 61.6665 172.945 82.1925 176.564 102.733C179.911 121.728 183.278 140.712 186.58 159.712C186.778 160.849 187.208 161.347 188.276 161.731C195.746 164.429 200.364 169.689 201.679 177.495C203.063 185.714 199.889 192.239 193.333 197.149C190.748 199.084 187.737 200.281 184.454 200.606C184.103 200.64 183.639 200.443 183.485 200.99H182.694C182.24 200.389 181.597 200.719 181.058 200.719C127.432 200.699 73.8065 200.695 20.1807 200.7H18.0153C18.0153 200.7 17.16 200.601 16.809 200.532C10.0459 199.153 5.1317 195.391 1.9627 189.269C1.09753 187.6 0.954159 185.699 0 184.089V177.012C0.652586 176.815 0.578428 176.18 0.702024 175.731C2.6054 168.773 7.00541 164.124 13.7933 161.711C14.7524 161.371 15.2418 160.962 15.4346 159.864C20.4922 130.942 25.5992 102.034 30.6962 73.1163C32.5354 62.6859 34.3547 52.2505 36.2136 41.8201C36.6684 39.2691 37.2963 38.7717 39.8275 38.5698C42.0868 39.7173 42.423 40.4363 41.9781 42.9528C40.4702 51.5118 38.9821 60.0807 37.4742 68.6398C34.0037 88.4025 30.5282 108.165 27.0477 127.928C25.1443 138.737 23.236 149.547 21.298 160.549H23.1569C49.903 160.549 76.6492 160.549 103.395 160.549C103.919 160.549 104.438 160.49 104.962 160.46C105.749 160.49 106.535 160.549 107.316 160.549C117.95 160.554 128.579 160.549 139.213 160.559C141.814 160.559 142.536 161.13 143.277 163.612C142.392 166.123 141.913 166.453 139.06 166.453C115.458 166.453 91.8564 166.453 68.2595 166.458C67.4734 166.458 66.6873 166.508 65.9013 166.537C65.1795 166.508 64.4577 166.453 63.7408 166.453C49.9376 166.448 36.1345 166.444 22.3313 166.463C20.8926 166.463 19.4342 166.532 18.0153 166.754C12.7946 167.571 9.09171 170.482 7.07462 175.293C5.0526 180.119 5.6508 184.803 8.73081 189.053C11.88 193.396 16.369 194.962 21.5947 194.952C35.5956 194.923 49.5965 194.947 63.5974 194.938C64.2451 194.938 64.8977 194.834 65.5453 194.78C66.4599 194.829 67.3745 194.923 68.2891 194.923C105.225 194.933 142.165 194.933 179.1 194.923C180.48 194.923 181.859 194.854 183.228 194.741C192.048 194.012 198.045 185.172 195.459 176.736C193.492 170.334 188.177 166.503 181.038 166.468C171.838 166.429 162.637 166.414 153.432 166.493C151.217 166.512 149.739 165.862 149.21 163.622C149.981 161.14 150.708 160.564 153.283 160.564C161.896 160.549 170.513 160.564 179.125 160.549C179.876 160.549 180.831 160.962 180.539 159.357C177.849 144.425 175.249 129.474 172.624 114.533C168.481 90.9584 164.303 67.3889 160.21 43.8047C159.058 37.1663 157.303 30.8036 153.308 25.2289C147.816 17.5612 140.4 12.7843 131.313 10.3269C122.538 7.95322 113.708 6.0917 104.567 6.10155C104.176 6.05723 103.786 5.98828 103.395 5.97843C92.4694 5.64356 81.8303 7.31794 71.295 10.1348C60.028 13.1438 51.4455 19.3932 46.0023 29.7448C45.1026 31.4537 43.8271 32.3106 41.8594 31.9363L41.8644 31.9314Z" fill="#030303"/>
<path d="M104.967 160.465C104.443 160.495 103.924 160.554 103.4 160.554C76.6541 160.554 49.908 160.554 23.1619 160.554H21.303C23.241 149.552 25.1542 138.743 27.0527 127.933C30.5282 108.17 34.0037 88.4076 37.4792 68.6449C38.9821 60.081 40.4752 51.517 41.983 42.9579C42.428 40.4463 42.0918 39.7273 39.8325 38.575C40.3565 36.3145 40.7125 34 41.8693 31.9267C43.837 32.301 45.1174 31.449 46.0122 29.7352C51.4554 19.3836 60.033 13.1342 71.3049 10.1252C81.8402 7.31322 92.4793 5.63391 103.405 5.96879C103.796 5.97864 104.186 6.05251 104.577 6.09191C104.488 6.83553 104.043 7.39694 103.642 7.99775C97.6605 16.8572 90.9813 25.175 84.0748 33.3253C79.3584 38.8901 75.9719 45.1445 74.3602 52.2606C73.9993 53.8463 73.0698 55.5109 74.0092 57.2394C72.4568 60.406 72.9413 63.5972 73.8609 66.8031C73.9498 72.7472 75.3341 78.509 76.3476 84.3251C76.5206 85.3248 77.3463 86.354 76.486 87.4227C73.3566 81.9612 69.6784 79.8978 64.4626 80.6857C58.9058 81.5229 54.8716 87.0878 55.7318 92.7315C56.5871 98.3406 61.9264 102.448 67.4141 101.719C73.4406 100.916 76.8222 96.8485 77.0249 90.1509C77.4699 90.2297 77.6429 90.5006 77.7368 90.9438C79.8132 100.621 82.5472 110.116 85.9287 119.423C86.695 121.531 87.1153 123.816 88.5935 125.633C87.6443 126.849 86.9867 128.194 86.9719 129.755C86.9422 132.503 86.8977 135.256 86.9966 137.999C87.0757 140.092 87.4762 142.145 88.4699 144.041C91.0407 148.942 95.2479 151.31 100.622 151.891C100.676 152.566 101.121 153.063 101.393 153.645C102.491 155.964 104.251 157.944 104.962 160.46L104.967 160.465ZM66.188 128.691C63.5678 128.45 60.9476 128.435 58.5004 129.533C55.3067 130.967 52.7655 133.163 52.2019 136.773C51.7075 139.929 53.1709 142.52 55.6132 144.48C59.6622 147.73 66.5242 148.035 71.0083 145.342C75.9175 142.392 77.7863 135.98 72.7238 131.74C72.4271 131.493 72.2146 131.144 71.9575 130.843C72.3678 128.834 72.2343 126.8 72.1206 124.791C72.0168 122.944 70.6869 121.871 68.9961 121.974C67.4141 122.068 66.3611 123.2 66.2671 124.983C66.2029 126.219 66.2078 127.465 66.1831 128.701L66.188 128.691ZM76.9952 32.6063C76.9656 26.7262 72.2195 22.038 66.3067 22.0429C60.4136 22.0478 55.6329 26.7853 55.6231 32.6309C55.6132 38.5257 60.5718 43.4405 66.4303 43.3519C72.2887 43.2632 77.0249 38.442 76.9903 32.6014L76.9952 32.6063Z" fill="#C5C4C9"/>
<path d="M88.5935 125.633C87.1153 123.816 86.6951 121.531 85.9288 119.423C82.5472 110.12 79.8083 100.626 77.7368 90.9437C77.6429 90.5005 77.4699 90.2297 77.0249 90.1509C76.847 89.2398 76.664 88.3337 76.4861 87.4226C77.3413 86.3589 76.5207 85.3247 76.3476 84.325C75.3341 78.509 73.9499 72.7471 73.8609 66.803C74.642 67.1576 74.8496 67.9948 75.3391 68.5858C78.6465 72.5994 84.2825 73.7173 88.8506 71.2155C93.305 68.7778 95.4753 63.4149 93.8092 58.5986C92.3558 54.3831 89.3054 51.8469 84.8708 51.3544C79.9764 50.8078 76.407 53.0485 74.0043 57.2394C73.0649 55.5157 73.9944 53.8463 74.3553 52.2605C75.9669 45.1444 79.3535 38.8901 84.0699 33.3252C90.9715 25.1749 97.6555 16.8571 103.638 7.99768C104.043 7.39687 104.483 6.83546 104.572 6.09184C113.713 6.08199 122.548 7.94351 131.318 10.3172C140.405 12.7746 147.821 17.5515 153.313 25.2192C157.303 30.789 159.063 37.1566 160.215 43.795C164.308 67.3792 168.486 90.9487 172.629 114.523C175.254 129.469 177.859 144.416 180.544 159.347C180.836 160.958 179.876 160.539 179.13 160.539C170.518 160.554 161.901 160.539 153.288 160.554C150.713 160.554 149.986 161.135 149.215 163.617C147.237 163.617 145.26 163.612 143.282 163.607C142.541 161.125 141.819 160.559 139.218 160.554C128.584 160.544 117.955 160.554 107.321 160.544C106.535 160.544 105.749 160.485 104.967 160.455C104.256 157.939 102.496 155.959 101.398 153.64C101.126 153.058 100.681 152.561 100.627 151.886C109.096 151.483 113.392 146.238 114.608 141.101C115.443 137.57 115.102 133.946 115.068 130.366C115.028 126.13 112.675 123.885 108.403 123.855C103.549 123.821 98.6937 123.89 93.834 123.826C91.8366 123.801 90.0865 124.294 88.5935 125.623V125.633ZM117.559 69.3294C118.509 72.1217 119.952 72.7914 122.656 71.6932C127.566 69.7037 130.216 63.8483 128.554 58.6724C126.893 53.4966 121.371 50.3005 116.15 51.4874C110.653 52.7382 106.945 57.9288 107.741 63.2524C108.191 66.2613 109.323 67.1625 112.344 66.9065C113.921 68.0638 115.3 69.6347 117.559 69.3245V69.3294ZM130.092 130.868C129.736 131.252 129.395 131.646 129.024 132.02C125.143 135.965 125.435 141.013 129.746 144.44C133.933 147.774 140.899 148.07 145.452 145.11C150.91 141.559 151.444 135.866 146.634 131.503C143.564 128.721 139.826 128.154 135.842 128.681C135.817 127.44 135.822 126.194 135.758 124.953C135.664 123.176 134.596 122.043 133.014 121.954C131.323 121.866 129.998 122.949 129.904 124.801C129.8 126.815 129.642 128.854 130.092 130.863V130.868ZM90.3238 91.0865C90.2942 96.9715 95.1836 101.886 101.042 101.847C106.861 101.812 111.666 97.0158 111.696 91.2195C111.726 85.3296 106.841 80.4296 100.978 80.4641C95.154 80.4985 90.3535 85.2853 90.3238 91.0865ZM146.402 91.1703C146.412 85.305 141.448 80.3754 135.619 80.4641C129.771 80.5576 125.034 85.3296 125.025 91.1407C125.015 97.0257 129.954 101.94 135.782 101.852C141.611 101.763 146.387 96.9567 146.397 91.1703H146.402ZM135.728 22.0428C129.82 22.033 125.064 26.7212 125.03 32.5964C124.995 38.5109 129.894 43.4109 135.782 43.3518C141.606 43.2927 146.412 38.4518 146.402 32.6407C146.392 26.7951 141.621 22.0527 135.728 22.0428ZM100.973 22.0428C95.0847 22.0674 90.3486 26.7705 90.3288 32.6111C90.309 38.501 95.1886 43.3863 101.057 43.3518C106.96 43.3173 111.76 38.4321 111.701 32.5274C111.642 26.6917 106.856 22.0133 100.973 22.0428Z" fill="#D6D5D8"/>
<path d="M88.5934 125.633C90.0865 124.303 91.8366 123.811 93.8339 123.836C98.6887 123.895 103.544 123.831 108.403 123.865C112.675 123.895 115.028 126.14 115.068 130.376C115.102 133.956 115.443 137.58 114.608 141.111C113.392 146.248 109.095 151.492 100.627 151.896C95.2528 151.31 91.0456 148.942 88.4748 144.046C87.4811 142.15 87.0757 140.097 87.0015 138.004C86.9026 135.261 86.9471 132.508 86.9768 129.76C86.9916 128.199 87.6492 126.849 88.5984 125.638L88.5934 125.633Z" fill="#030303"/>
<path d="M71.9575 130.833C72.2096 131.134 72.4271 131.479 72.7238 131.73C77.7862 135.975 75.9175 142.382 71.0082 145.332C66.5242 148.025 59.6621 147.72 55.6131 144.47C53.1709 142.51 51.7075 139.924 52.2019 136.763C52.7655 133.158 55.3066 130.962 58.5003 129.524C60.9475 128.425 63.5678 128.445 66.188 128.681C66.2226 130.326 66.4896 131.902 68.3336 132.468C69.9552 132.966 71.1219 132.193 71.9575 130.829V130.833Z" fill="#6610F2"/>
<path d="M74.0041 57.2443C76.4117 53.0534 79.9762 50.8126 84.8706 51.3593C89.3052 51.8567 92.3556 54.3929 93.8091 58.6035C95.4702 63.4198 93.3048 68.7827 88.8504 71.2204C84.2774 73.7222 78.6414 72.6043 75.3389 68.5907C74.8495 67.9948 74.6418 67.1576 73.8607 66.8079C72.9362 63.6069 72.4567 60.4108 74.009 57.2443H74.0041ZM83.7484 66.6208C86.3538 66.5765 88.4549 64.4195 88.4055 61.8291C88.356 59.2781 86.1165 57.1113 83.5852 57.1655C81.0392 57.2196 78.8639 59.4702 78.9183 61.9916C78.9726 64.5771 81.1529 66.6602 83.7533 66.6159L83.7484 66.6208Z" fill="#030303"/>
<path d="M76.486 87.4225C76.6639 88.3335 76.8469 89.2397 77.0248 90.1507C76.8221 96.8483 73.4406 100.916 67.414 101.719C61.9264 102.448 56.587 98.3405 55.7318 92.7313C54.8715 87.0876 58.9057 81.5178 64.4626 80.6855C69.6783 79.9025 73.3565 81.966 76.486 87.4225ZM66.361 95.8683C68.9219 95.8436 71.1021 93.5734 71.023 91.0175C70.9439 88.5108 68.7785 86.4277 66.2819 86.4572C63.7902 86.4868 61.6396 88.6192 61.5951 91.0963C61.5506 93.6128 63.8298 95.8929 66.361 95.8683Z" fill="#030303"/>
<path d="M76.9952 32.6012C77.0249 38.4418 72.2936 43.2582 66.4352 43.3517C60.5767 43.4404 55.6181 38.5206 55.6279 32.6307C55.6378 26.7852 60.4185 22.0477 66.3116 22.0427C72.2244 22.0378 76.9655 26.7261 77.0001 32.6061L76.9952 32.6012ZM66.2671 28.0114C63.7259 28.036 61.6199 30.1093 61.5902 32.6209C61.5556 35.1276 63.8594 37.4274 66.366 37.3929C68.9219 37.3584 71.0972 35.0783 71.0181 32.5224C70.939 29.9813 68.8379 27.9868 66.2671 28.0114Z" fill="#030303"/>
<path d="M71.9574 130.833C71.1219 132.197 69.9502 132.971 68.3336 132.473C66.4896 131.907 66.2226 130.331 66.188 128.686C66.2127 127.445 66.2028 126.204 66.272 124.968C66.366 123.185 67.419 122.053 69.001 121.959C70.6918 121.861 72.0217 122.934 72.1255 124.776C72.2392 126.79 72.3678 128.824 71.9624 130.828L71.9574 130.833Z" fill="#030303"/>
<path d="M135.847 128.681C139.831 128.159 143.569 128.721 146.639 131.503C151.449 135.866 150.915 141.559 145.457 145.11C140.904 148.07 133.938 147.774 129.751 144.44C125.44 141.013 125.148 135.96 129.029 132.02C129.395 131.646 129.741 131.252 130.097 130.863C131.728 132.926 133.8 133.163 135.154 131.478C135.832 130.636 135.688 129.632 135.851 128.681H135.847Z" fill="#6610F2"/>
<path d="M90.3287 91.0865C90.3584 85.2902 95.1589 80.4985 100.983 80.464C106.846 80.4296 111.731 85.3296 111.701 91.2195C111.671 97.0208 106.861 101.812 101.047 101.847C95.1885 101.881 90.2991 96.9715 90.3287 91.0865ZM101.052 95.9127C103.578 95.8881 105.793 93.6375 105.768 91.121C105.744 88.5799 103.514 86.3835 100.983 86.4081C98.4366 86.4327 96.2465 88.6538 96.2663 91.19C96.2811 93.7163 98.5404 95.9423 101.052 95.9127Z" fill="#030303"/>
<path d="M146.407 91.1654C146.397 96.9519 141.621 101.758 135.792 101.847C129.963 101.936 125.025 97.0208 125.034 91.1358C125.044 85.3247 129.776 80.5528 135.629 80.4592C141.453 80.3705 146.421 85.3001 146.412 91.1654H146.407ZM130.977 91.2442C131.026 93.805 133.286 95.9866 135.802 95.9078C138.343 95.829 140.528 93.5637 140.469 91.062C140.405 88.5307 138.131 86.3392 135.624 86.3983C133.063 86.4574 130.927 88.6834 130.977 91.2442Z" fill="#030303"/>
<path d="M135.728 22.0379C141.621 22.0477 146.392 26.7902 146.402 32.6357C146.412 38.4468 141.606 43.2927 135.782 43.3469C129.894 43.406 124.995 38.5059 125.029 32.5914C125.064 26.7163 129.815 22.0231 135.728 22.0379ZM135.698 27.9672C133.078 27.9672 130.962 30.0798 130.972 32.6801C130.982 35.2458 133.187 37.4471 135.718 37.4324C138.239 37.4176 140.469 35.1719 140.464 32.6604C140.459 30.0897 138.304 27.9721 135.693 27.9721L135.698 27.9672Z" fill="#030303"/>
<path d="M100.973 22.0379C106.856 22.0133 111.642 26.6868 111.701 32.5225C111.76 38.4272 106.96 43.3125 101.057 43.3469C95.1835 43.3814 90.304 38.4962 90.3287 32.6063C90.3485 26.7656 95.0847 22.0626 100.973 22.0379ZM105.768 32.5915C105.724 30.006 103.563 27.9278 100.943 27.9672C98.3377 28.0017 96.2217 30.1636 96.2712 32.7392C96.3157 35.2754 98.5898 37.4866 101.091 37.4275C103.623 37.3684 105.813 35.108 105.773 32.5915H105.768Z" fill="#030303"/>
<path d="M112.344 66.9065C109.323 67.1625 108.191 66.2613 107.741 63.2524C106.945 57.9288 110.653 52.7382 116.15 51.4873C121.371 50.3005 126.893 53.4966 128.555 58.6724C130.216 63.8482 127.566 69.7037 122.657 71.6932C119.957 72.7914 118.514 72.1217 117.559 69.3294C117.826 67.5516 119.117 66.7883 120.585 66.0446C122.78 64.9415 123.596 62.6516 122.82 60.3862C122.098 58.2735 119.883 56.8946 117.752 57.2246C115.404 57.589 113.748 59.3964 113.629 61.77C113.594 62.4201 113.639 63.08 113.723 63.7251C113.901 65.0745 113.56 66.1727 112.339 66.9065H112.344Z" fill="#030303"/>
<path d="M112.344 66.9063C113.56 66.1726 113.906 65.0744 113.728 63.725C113.644 63.0799 113.604 62.42 113.634 61.7699C113.753 59.4012 115.409 57.5938 117.757 57.2245C119.888 56.8896 122.103 58.2734 122.825 60.3861C123.601 62.6564 122.78 64.9414 120.59 66.0445C119.117 66.7832 117.831 67.5515 117.564 69.3293C115.305 69.6395 113.921 68.0686 112.349 66.9113L112.344 66.9063Z" fill="#C5C4C9"/>
<path d="M135.847 128.681C135.683 129.632 135.827 130.636 135.149 131.479C133.795 133.168 131.723 132.926 130.092 130.863C129.647 128.859 129.8 126.815 129.904 124.801C129.998 122.949 131.323 121.866 133.014 121.954C134.601 122.038 135.664 123.171 135.758 124.953C135.822 126.194 135.817 127.435 135.842 128.681H135.847Z" fill="#030303"/>
<path d="M83.7484 66.616C81.148 66.6603 78.9677 64.5722 78.9134 61.9917C78.859 59.4703 81.0343 57.2197 83.5803 57.1655C86.1116 57.1114 88.3511 59.2782 88.4006 61.8292C88.45 64.4146 86.3538 66.5766 83.7435 66.6209L83.7484 66.616Z" fill="#C5C4C9"/>
<path d="M66.3562 95.8684C63.825 95.893 61.5508 93.6129 61.5904 91.0964C61.6299 88.6193 63.7854 86.4869 66.2771 86.4573C68.7737 86.4278 70.9391 88.5109 71.0182 91.0176C71.0973 93.5735 68.9171 95.8388 66.3562 95.8684Z" fill="#C5C4C9"/>
<path d="M66.272 28.0115C68.8428 27.9868 70.9439 29.9813 71.023 32.5224C71.1021 35.0783 68.9268 37.3585 66.3709 37.3929C63.8643 37.4274 61.5605 35.1227 61.5951 32.6209C61.6297 30.1094 63.7309 28.041 66.272 28.0115Z" fill="#C5C4C9"/>
<path d="M101.052 95.9128C98.5403 95.9374 96.281 93.7114 96.2662 91.19C96.2514 88.6538 98.4415 86.4328 100.983 86.4082C103.514 86.3835 105.748 88.5799 105.768 91.1211C105.793 93.6376 103.578 95.8881 101.052 95.9128Z" fill="#C5C4C9"/>
<path d="M130.977 91.2441C130.927 88.6882 133.063 86.4573 135.624 86.3982C138.136 86.344 140.405 88.5306 140.469 91.0619C140.533 93.5587 138.348 95.8289 135.802 95.9077C133.281 95.9865 131.026 93.8049 130.977 91.2441Z" fill="#C5C4C9"/>
<path d="M135.698 27.9671C138.309 27.9671 140.464 30.0847 140.469 32.6554C140.474 35.1669 138.239 37.4126 135.723 37.4274C133.187 37.4421 130.987 35.2408 130.977 32.6751C130.967 30.0748 133.083 27.9671 135.703 27.9622L135.698 27.9671Z" fill="#C5C4C9"/>
<path d="M105.768 32.5964C105.808 35.1129 103.623 37.3733 101.087 37.4324C98.585 37.4915 96.3108 35.2754 96.2663 32.7441C96.2218 30.1685 98.3378 28.0066 100.938 27.9721C103.558 27.9376 105.724 30.0109 105.763 32.5964H105.768Z" fill="#C5C4C9"/>
</g>
<defs>
<clipPath id="clip0_2172_1188">
<rect width="202" height="201" fill="white"/>
</clipPath>
</defs>
</svg>
