<svg width="473" height="156" viewBox="0 0 473 156" fill="none" xmlns="http://www.w3.org/2000/svg">
<path d="M46.0238 75H6.66375V21.4H46.0238V31.56H18.1038V42.84H41.4638V53H18.1038V64.84H46.0238V75ZM65.9869 31.16H54.5469V21.4H65.9869V31.16ZM52.4669 90.68C45.9069 90.68 41.9869 87.8 39.8269 85.48L45.6669 77.56C46.8669 79.48 48.6269 80.76 50.8669 80.76C53.2669 80.76 54.5469 79.56 54.5469 76.36V35.8H65.9869V76.28C65.9869 84.12 61.3469 90.68 52.4669 90.68ZM92.3981 75.8C79.9181 75.8 72.3181 67.48 72.3181 55.4C72.3181 43.32 79.9181 35 91.4381 35C103.918 35 110.158 43.32 110.158 53.56C110.158 55.24 109.998 57.48 109.758 58.36H83.0381C83.7581 63.88 87.4381 66.52 92.5581 66.52C98.0781 66.52 101.038 64.12 102.478 60.76L109.438 67.72C106.478 71.96 101.198 75.8 92.3981 75.8ZM91.5181 43.8C86.6381 43.8 83.5981 46.52 83.0381 51.8H99.8381C99.4381 46.6 96.6381 43.8 91.5181 43.8ZM128.174 75H116.734V35.8H128.174V48.12C129.454 41.56 133.294 35 140.814 35C146.574 35 149.774 38.68 149.774 44.84C149.774 49.08 148.494 52.44 147.534 53.96H136.494C137.934 52.52 139.294 49.72 139.294 47.48C139.294 45.24 138.254 43.56 135.774 43.56C131.854 43.56 128.174 47.8 128.174 54.28V75ZM171.762 75.8C159.682 75.8 152.082 67.4 152.082 55.4C152.082 43.48 159.682 35 171.762 35C181.122 35 187.602 40.12 190.002 46.84L180.482 52.36C179.522 47.48 176.962 44.52 172.162 44.52C167.122 44.52 163.762 48.2 163.762 55.4C163.762 62.6 167.122 66.28 172.162 66.28C177.042 66.28 179.522 63.32 180.482 58.44L190.002 63.96C187.602 70.68 181.122 75.8 171.762 75.8ZM206.768 31.16H195.328V21.4H206.768V31.16ZM206.768 75H195.328V35.8H206.768V75ZM232.699 75.8C220.619 75.8 213.019 67.4 213.019 55.4C213.019 43.48 220.619 35 232.699 35C242.059 35 248.539 40.12 250.939 46.84L241.419 52.36C240.459 47.48 237.899 44.52 233.099 44.52C228.059 44.52 224.699 48.2 224.699 55.4C224.699 62.6 228.059 66.28 233.099 66.28C237.979 66.28 240.459 63.32 241.419 58.44L250.939 63.96C248.539 70.68 242.059 75.8 232.699 75.8ZM267.706 31.16H256.266V21.4H267.706V31.16ZM267.706 75H256.266V35.8H267.706V75ZM293.397 75.8C281.477 75.8 273.797 67.4 273.797 55.4C273.797 43.48 281.477 35 293.397 35C305.637 35 313.397 43.48 313.397 55.4C313.397 67.4 305.637 75.8 293.397 75.8ZM293.557 66.52C298.437 66.52 301.797 63.4 301.797 55.4C301.797 47.32 298.437 44.28 293.557 44.28C288.757 44.28 285.397 47.32 285.397 55.4C285.397 63.4 288.757 66.52 293.557 66.52ZM336.362 75.8C327.642 75.8 319.882 72.6 316.522 67.88L321.802 60.12C325.082 63.64 330.762 67.08 336.682 67.08C339.802 67.08 341.642 66.12 341.642 64.04C341.642 61.96 339.402 61.16 335.242 60.12L329.962 58.84C322.922 57 317.802 54.2 317.802 47.32C317.802 39.64 324.042 35.08 333.642 35.08C342.122 35.08 348.282 38.76 351.002 42.2L345.882 49.88C342.042 45.88 337.242 43.72 332.682 43.72C329.882 43.72 328.202 44.76 328.202 46.68C328.202 48.76 329.882 49.56 335.082 51L339.482 52.2C348.122 54.52 351.882 57.88 351.882 63.88C351.882 71.48 345.482 75.8 336.362 75.8ZM388.583 75.8C379.943 75.8 375.863 70.68 375.863 63.4V44.52H370.023V35.8H375.863V31.16L387.303 25.16V35.8H398.183V44.52H387.303V61.32C387.303 64.52 388.903 65.64 391.143 65.64C393.623 65.64 395.783 63.64 396.983 61.48L400.263 70.84C398.583 73 394.583 75.8 388.583 75.8ZM425.406 58.68H403.806V49.32H425.406V58.68ZM445.253 75.88C435.733 75.88 429.733 68.44 429.733 55.4C429.733 42.44 435.733 35 444.773 35C452.933 35 456.133 40.68 457.253 47V21.4H468.693V75H457.253V63.96C456.213 70.28 453.413 75.88 445.253 75.88ZM441.333 55.4C441.333 62.92 444.613 66.92 449.813 66.92C454.613 66.92 457.253 63.96 457.253 57.56V53.32C457.253 46.92 454.533 43.88 449.653 43.88C444.613 43.88 441.333 47.96 441.333 55.4Z" fill="#0C0C0D"/>
<path d="M44.0238 73H4.66375V19.4H44.0238V29.56H16.1038V40.84H39.4638V51H16.1038V62.84H44.0238V73ZM63.9869 29.16H52.5469V19.4H63.9869V29.16ZM50.4669 88.68C43.9069 88.68 39.9869 85.8 37.8269 83.48L43.6669 75.56C44.8669 77.48 46.6269 78.76 48.8669 78.76C51.2669 78.76 52.5469 77.56 52.5469 74.36V33.8H63.9869V74.28C63.9869 82.12 59.3469 88.68 50.4669 88.68ZM90.3981 73.8C77.9181 73.8 70.3181 65.48 70.3181 53.4C70.3181 41.32 77.9181 33 89.4381 33C101.918 33 108.158 41.32 108.158 51.56C108.158 53.24 107.998 55.48 107.758 56.36H81.0381C81.7581 61.88 85.4381 64.52 90.5581 64.52C96.0781 64.52 99.0381 62.12 100.478 58.76L107.438 65.72C104.478 69.96 99.1981 73.8 90.3981 73.8ZM89.5181 41.8C84.6381 41.8 81.5981 44.52 81.0381 49.8H97.8381C97.4381 44.6 94.6381 41.8 89.5181 41.8ZM126.174 73H114.734V33.8H126.174V46.12C127.454 39.56 131.294 33 138.814 33C144.574 33 147.774 36.68 147.774 42.84C147.774 47.08 146.494 50.44 145.534 51.96H134.494C135.934 50.52 137.294 47.72 137.294 45.48C137.294 43.24 136.254 41.56 133.774 41.56C129.854 41.56 126.174 45.8 126.174 52.28V73ZM169.762 73.8C157.682 73.8 150.082 65.4 150.082 53.4C150.082 41.48 157.682 33 169.762 33C179.122 33 185.602 38.12 188.002 44.84L178.482 50.36C177.522 45.48 174.962 42.52 170.162 42.52C165.122 42.52 161.762 46.2 161.762 53.4C161.762 60.6 165.122 64.28 170.162 64.28C175.042 64.28 177.522 61.32 178.482 56.44L188.002 61.96C185.602 68.68 179.122 73.8 169.762 73.8ZM204.768 29.16H193.328V19.4H204.768V29.16ZM204.768 73H193.328V33.8H204.768V73ZM230.699 73.8C218.619 73.8 211.019 65.4 211.019 53.4C211.019 41.48 218.619 33 230.699 33C240.059 33 246.539 38.12 248.939 44.84L239.419 50.36C238.459 45.48 235.899 42.52 231.099 42.52C226.059 42.52 222.699 46.2 222.699 53.4C222.699 60.6 226.059 64.28 231.099 64.28C235.979 64.28 238.459 61.32 239.419 56.44L248.939 61.96C246.539 68.68 240.059 73.8 230.699 73.8ZM265.706 29.16H254.266V19.4H265.706V29.16ZM265.706 73H254.266V33.8H265.706V73ZM291.397 73.8C279.477 73.8 271.797 65.4 271.797 53.4C271.797 41.48 279.477 33 291.397 33C303.637 33 311.397 41.48 311.397 53.4C311.397 65.4 303.637 73.8 291.397 73.8ZM291.557 64.52C296.437 64.52 299.797 61.4 299.797 53.4C299.797 45.32 296.437 42.28 291.557 42.28C286.757 42.28 283.397 45.32 283.397 53.4C283.397 61.4 286.757 64.52 291.557 64.52ZM334.362 73.8C325.642 73.8 317.882 70.6 314.522 65.88L319.802 58.12C323.082 61.64 328.762 65.08 334.682 65.08C337.802 65.08 339.642 64.12 339.642 62.04C339.642 59.96 337.402 59.16 333.242 58.12L327.962 56.84C320.922 55 315.802 52.2 315.802 45.32C315.802 37.64 322.042 33.08 331.642 33.08C340.122 33.08 346.282 36.76 349.002 40.2L343.882 47.88C340.042 43.88 335.242 41.72 330.682 41.72C327.882 41.72 326.202 42.76 326.202 44.68C326.202 46.76 327.882 47.56 333.082 49L337.482 50.2C346.122 52.52 349.882 55.88 349.882 61.88C349.882 69.48 343.482 73.8 334.362 73.8ZM386.583 73.8C377.943 73.8 373.863 68.68 373.863 61.4V42.52H368.023V33.8H373.863V29.16L385.303 23.16V33.8H396.183V42.52H385.303V59.32C385.303 62.52 386.903 63.64 389.143 63.64C391.623 63.64 393.783 61.64 394.983 59.48L398.263 68.84C396.583 71 392.583 73.8 386.583 73.8ZM423.406 56.68H401.806V47.32H423.406V56.68ZM443.253 73.88C433.733 73.88 427.733 66.44 427.733 53.4C427.733 40.44 433.733 33 442.773 33C450.933 33 454.133 38.68 455.253 45V19.4H466.693V73H455.253V61.96C454.213 68.28 451.413 73.88 443.253 73.88ZM439.333 53.4C439.333 60.92 442.613 64.92 447.813 64.92C452.613 64.92 455.253 61.96 455.253 55.56V51.32C455.253 44.92 452.533 41.88 447.653 41.88C442.613 41.88 439.333 45.96 439.333 53.4Z" fill="#6610F2"/>
<path d="M312.087 137.282C311.952 134.249 309.83 132.49 306.969 132.163C282.651 129.393 258.257 127.341 233.818 126.01L236.624 125.944C242.091 125.811 247.538 125.465 252.928 124.475C252.991 124.464 253.052 124.444 253.113 124.428C260.464 124.37 267.815 124.442 275.161 124.619C284.996 124.854 294.826 125.274 304.651 125.8C307.329 125.944 309.888 123.343 309.769 120.682C309.636 117.688 307.514 115.84 304.651 115.563C272.339 112.451 239.808 111.704 207.389 113.367C202.942 113.593 198.499 113.87 194.059 114.188C192.83 112.531 190.744 111.64 188.6 112.232C182.702 113.859 176.792 115.458 170.877 117.027C168.409 117.683 166.879 120.173 167.211 122.643C167.275 123.116 167.418 123.589 167.623 124.04C166.962 124.945 166.564 126.043 166.611 127.084C166.716 129.452 168.152 131.242 170.368 132.019C177.846 134.645 185.941 134.609 193.812 134.734C193.575 135.14 193.389 135.564 193.276 135.976C192.764 137.829 193.37 139.553 194.593 140.956C197.835 144.671 203.352 144.743 207.87 145.25C212.393 145.759 216.934 146.124 221.474 146.453C223.651 146.611 225.831 146.76 228.011 146.912C228.047 147.687 228.252 148.448 228.659 149.123C230.424 152.061 233.376 154.36 236.79 154.988C239.128 155.417 241.775 154.51 242.785 152.288C250.039 152.573 257.305 152.446 264.551 151.906C267.113 151.715 269.224 150.105 269.578 147.469C269.91 145.001 268.391 142.505 265.912 141.852C261.801 140.77 257.648 139.94 253.473 139.279C263.369 139.487 273.257 140.001 283.134 140.651C291.086 141.177 299.029 141.789 306.975 142.406C309.65 142.613 312.209 139.904 312.093 137.287L312.087 137.282Z" fill="#0C0C0D"/>
<path d="M309.738 135.716C309.603 132.683 307.481 130.924 304.62 130.597C280.302 127.827 255.908 125.775 231.469 124.444L234.275 124.378C239.742 124.245 245.189 123.899 250.579 122.909C250.642 122.898 250.703 122.878 250.764 122.862C258.115 122.804 265.466 122.876 272.812 123.053C282.647 123.288 292.477 123.708 302.302 124.234C304.98 124.378 307.539 121.777 307.42 119.116C307.287 116.122 305.165 114.274 302.302 113.997C269.99 110.885 237.459 110.138 205.039 111.801C200.593 112.027 196.15 112.304 191.71 112.622C190.481 110.965 188.395 110.074 186.251 110.666C180.352 112.293 174.443 113.892 168.528 115.461C166.06 116.117 164.53 118.607 164.862 121.077C164.926 121.55 165.069 122.023 165.274 122.474C164.613 123.379 164.215 124.477 164.262 125.518C164.367 127.886 165.803 129.676 168.019 130.453C175.497 133.079 183.592 133.043 191.463 133.168C191.225 133.574 191.04 133.998 190.927 134.41C190.415 136.263 191.021 137.987 192.244 139.39C195.486 143.105 201.003 143.177 205.521 143.684C210.044 144.193 214.584 144.558 219.125 144.887C221.302 145.045 223.482 145.194 225.662 145.346C225.698 146.121 225.903 146.882 226.31 147.557C228.075 150.495 231.027 152.794 234.441 153.422C236.779 153.851 239.426 152.944 240.436 150.722C247.69 151.007 254.956 150.88 262.202 150.34C264.763 150.149 266.874 148.539 267.229 145.903C267.561 143.435 266.042 140.939 263.563 140.286C259.451 139.204 255.299 138.374 251.124 137.713C261.02 137.921 270.908 138.435 280.785 139.085C288.737 139.611 296.68 140.223 304.626 140.84C307.301 141.047 309.86 138.338 309.744 135.721L309.738 135.716Z" fill="#6610F2"/>
</svg>
