<svg width="230" height="256" viewBox="0 0 230 256" fill="none" xmlns="http://www.w3.org/2000/svg">
<g clip-path="url(#clip0_2171_651)">
<path d="M123.001 -5.46686e-06C125.067 0.775328 127.284 1.10047 129.265 2.14592C135.373 5.37731 139.26 10.2844 140.57 17.1123C140.79 18.2628 141.141 19.0232 142.376 19.4133C167.073 27.1567 184.422 43.7188 196.973 65.6832C211.07 90.3588 216.338 117.125 214.662 145.367C213.272 168.773 206.983 190.712 194.412 210.605C182.161 229.999 166.003 244.825 143.812 252.198C138.589 253.934 133.242 255.12 127.739 255.515C127.389 255.54 127.093 255.6 127.008 256H125.508C125.007 255.625 124.507 255.625 124.007 256H116.008C115.508 255.625 115.007 255.625 114.507 256H112.006C109.53 254.754 106.753 254.94 104.132 254.354C82.3211 249.487 65.4427 237.177 52.0109 219.774C37.5887 201.091 29.5697 179.757 26.4281 156.482C22.9364 130.626 25.8078 105.525 35.4677 81.2549C38.4241 73.8217 42.081 66.7437 46.4431 60.0358C48.5492 56.7994 50.3451 56.2192 54.052 57.5847C56.8534 59.1104 57.5637 62.1067 55.7378 65.243C54.3971 67.544 52.9414 69.78 51.6357 72.106C43.3466 86.8473 38.7443 102.749 36.6783 119.451C35.8479 126.149 35.4276 132.882 35.6728 139.63C36.3131 157.188 39.6848 174.135 46.8383 190.287C52.7913 203.723 60.8704 215.628 71.7558 225.527C83.5867 236.287 97.2285 243.275 113.362 244.91C132.686 246.871 149.58 240.908 164.377 228.843C182.156 214.347 193.016 195.339 199.195 173.475C201.761 164.391 203.212 155.132 203.922 145.708C205.488 125.004 202.456 105.015 194.927 85.7218C190.195 73.5966 183.557 62.6019 174.812 52.8727C165.253 42.2381 153.937 34.3548 140.305 29.8828C138.959 29.4426 137.584 29.0975 136.213 28.7373C131.776 27.5668 130.45 25.9161 130.35 21.3542C130.255 17.1874 128.569 13.956 124.837 11.9501C118.414 8.49865 110.45 12.7705 109.73 20.0386C109.655 20.7839 109.695 21.5392 109.66 22.2846C109.52 25.4659 108.099 27.6019 105.062 28.3572C97.0585 30.348 89.6698 33.6745 82.6062 37.8813C79.2045 39.9071 76.4432 39.1468 75.1175 36.1855C73.7368 32.524 74.3271 30.6332 77.5637 28.5973C83.7768 24.6856 90.3451 21.5292 97.4036 19.4684C98.5742 19.1282 99.1445 18.593 99.4096 17.3474C101.376 7.99843 107.063 2.32599 116.433 0.360149C116.643 0.31513 116.818 0.120046 117.013 -0.0100098C119.014 -0.0100098 121.015 -0.0100098 123.016 -0.0100098L123.001 -5.46686e-06Z" fill="black"/>
<path d="M209.009 0C211.711 1.45062 212.836 3.68158 212.536 6.7429C212.381 8.30857 212.571 9.90426 212.486 11.4749C212.331 14.2811 210.155 16.387 207.514 16.387C204.887 16.387 202.671 14.2661 202.541 11.4749C202.441 9.319 202.526 7.15307 202.516 4.99214C202.501 2.49607 204.172 1.19051 206.013 0H209.014L209.009 0Z" fill="black"/>
<path d="M20.9905 256C18.2891 254.549 17.1636 252.318 17.4637 249.257C17.6188 247.691 17.4287 246.096 17.5137 244.525C17.6638 241.739 19.8649 239.613 22.4912 239.613C25.1276 239.613 27.3337 241.719 27.4637 244.525C27.5638 246.681 27.4787 248.847 27.4887 251.008C27.4987 253.499 25.8329 254.809 23.997 256.005H20.9955L20.9905 256Z" fill="black"/>
<path d="M114.502 256C115.002 255.23 115.503 255.42 116.003 256H114.502Z" fill="#4F4F4F"/>
<path d="M124.002 256C124.502 255.425 125.002 255.23 125.503 256H124.002Z" fill="#505050"/>
<path d="M75.1075 36.1906C77.8788 38.8667 79.5697 39.0868 82.8463 37.0659C89.6147 32.8891 96.7833 29.6828 104.552 27.837C107.904 27.0416 109.049 25.3859 109.029 21.9244C108.984 14.9965 113.607 9.9893 120.035 10.0043C126.458 10.0243 131.02 15.0165 130.975 21.9895C130.955 25.2609 132.006 26.9066 135.042 27.6919C162.246 34.7099 179.85 52.8977 191.821 77.1932C203.297 100.483 206.858 125.284 204.157 151.035C201.956 171.994 195.503 191.472 183.532 208.925C172.236 225.387 157.734 237.917 138.169 243.405C116.623 249.452 96.7533 245.065 78.8143 232.095C59.7998 218.349 47.9839 199.361 41.3006 177.236C30.5402 141.601 33.1415 106.901 50.1 73.5366C51.4907 70.8004 53.1715 68.2093 54.7773 65.5832C56.8183 62.2418 56.6782 60.421 54.0519 57.5848C56.133 54.9586 58.214 52.3275 60.2951 49.7014C61.0004 49.4563 61.5657 49.9015 62.176 50.0915C63.9719 50.6418 65.6327 50.4217 66.9584 49.0311C68.209 47.7205 68.4591 46.1648 67.7488 44.4591C67.5037 43.8639 67.1835 43.2486 67.4736 42.5633C70.0199 40.4374 72.5612 38.3165 75.1075 36.1906Z" fill="#6610F2"/>
<path d="M27.4636 219.289C27.4636 220.45 27.5537 221.62 27.4436 222.776C27.1985 225.412 24.9774 227.418 22.4411 227.388C19.9149 227.358 17.6787 225.322 17.5337 222.686C17.4036 220.37 17.4086 218.034 17.5337 215.713C17.6787 213.026 19.8248 211.056 22.4111 211.011C25.0874 210.966 27.2635 212.996 27.4636 215.803C27.5437 216.958 27.4786 218.129 27.4786 219.289H27.4686H27.4636Z" fill="black"/>
<path d="M8.02911 238.483C6.94857 238.483 5.86803 238.548 4.79249 238.468C1.98609 238.267 -0.0399257 236.096 9.42966e-05 233.415C0.0401143 230.834 2.0161 228.683 4.70245 228.543C7.0186 228.418 9.35477 228.418 11.6759 228.543C14.3223 228.693 16.3533 230.914 16.3783 233.445C16.4033 235.976 14.3973 238.207 11.766 238.448C10.5304 238.558 9.27473 238.468 8.03411 238.468C8.03411 238.468 8.03411 238.473 8.03411 238.478L8.02911 238.483Z" fill="black"/>
<path d="M36.6782 238.482C35.5977 238.482 34.5172 238.547 33.4416 238.472C30.6702 238.277 28.5592 236.046 28.5992 233.43C28.6392 230.904 30.6802 228.688 33.3216 228.543C35.6377 228.418 37.9739 228.413 40.295 228.543C42.9714 228.688 44.9474 230.864 44.9774 233.435C45.0074 236.111 42.9714 238.277 40.165 238.467C39.0094 238.547 37.8388 238.482 36.6782 238.482Z" fill="black"/>
<path d="M67.4737 42.5633C69.2396 45.5446 69.1645 47.9156 67.2486 49.7464C65.3726 51.5372 62.8964 51.5171 60.2901 49.6964C58.4642 47.0652 58.4192 44.6592 60.16 42.7734C62.041 40.7475 64.4322 40.6775 67.4737 42.5633Z" fill="#010101"/>
<path d="M193.232 27.4668C191.986 27.4668 190.73 27.5718 189.5 27.4468C186.858 27.1717 184.947 24.9307 185.022 22.3546C185.097 19.8735 186.988 17.7276 189.545 17.5625C191.941 17.4075 194.367 17.4175 196.763 17.5575C199.4 17.7126 201.416 19.9936 201.401 22.5247C201.386 25.0607 199.365 27.2417 196.718 27.4668C195.563 27.5668 194.397 27.4818 193.232 27.4818V27.4718V27.4668Z" fill="black"/>
<path d="M221.976 17.5275C223.137 17.5275 224.312 17.4324 225.463 17.5475C228.109 17.8026 230.05 20.0085 230 22.5847C229.955 25.0657 228.079 27.2567 225.538 27.4267C223.057 27.5968 220.55 27.5968 218.069 27.4267C215.573 27.2517 213.647 24.9707 213.622 22.5396C213.597 20.0186 215.618 17.7776 218.244 17.5475C219.48 17.4374 220.735 17.5275 221.981 17.5275H221.976Z" fill="black"/>
<path d="M202.526 36.7057C202.526 35.6253 202.466 34.5448 202.536 33.4693C202.721 30.7032 204.947 28.5822 207.559 28.6123C210.1 28.6423 212.311 30.6631 212.461 33.3143C212.591 35.6303 212.591 37.9663 212.461 40.2873C212.316 42.9684 210.16 44.9493 207.584 44.9893C204.907 45.0343 202.731 42.9934 202.536 40.1922C202.456 39.0367 202.521 37.8662 202.521 36.7057H202.526Z" fill="black"/>
<path d="M195.028 138.66C194.612 161.554 188.594 185.155 173.522 205.898C164.197 218.734 152.446 228.613 137.059 233.345C118.94 238.923 101.961 235.791 86.3833 225.317C70.7955 214.832 60.2952 200.131 53.827 182.774C39.865 145.312 41.7009 108.687 61.5459 73.6016C69.3197 59.8557 80.1151 48.7759 94.6174 41.988C116.293 31.8387 136.889 34.5598 156.053 48.4158C170.52 58.8753 179.93 73.2665 186.423 89.6635C192.346 104.615 194.978 120.202 195.033 138.665L195.028 138.66Z" fill="black"/>
<path d="M63.1117 179.292C59.4348 170.243 57.1937 161.159 56.0381 151.805C55.5479 147.843 55.4028 143.842 55.0226 139.87C54.8975 138.58 55.3378 137.719 56.2382 136.819C84.2972 108.802 112.331 80.7697 140.335 52.7026C141.471 51.5621 142.286 51.402 143.707 52.2024C153.107 57.5047 160.505 64.9079 166.743 73.6116C167.839 75.1372 166.804 75.6174 166.043 76.3828C139.6 102.829 113.152 129.271 86.7035 155.712C78.9346 163.48 71.1557 171.249 63.1117 179.287V179.292Z" fill="#DEF4FA"/>
<path d="M127.464 179.552C124.052 177.306 122.241 177.461 119.35 180.347C108.975 190.707 98.5794 201.046 88.2842 211.481C86.8985 212.886 86.1632 212.811 84.7875 211.541C78.1842 205.428 72.8115 198.395 68.4093 190.572C67.779 189.456 67.739 188.806 68.7145 187.836C103.262 153.351 137.774 118.836 172.296 84.3262C172.411 84.2112 172.571 84.1461 172.867 83.9561C176.428 90.5639 178.995 97.5369 180.926 104.74C181.786 107.946 182.256 111.258 183.117 114.464C183.512 115.945 182.987 116.75 182.036 117.696C171.116 128.57 160.22 139.47 149.33 150.375C146.443 153.266 146.278 155.122 148.524 158.478C146.598 161.279 144.402 163.8 141.336 165.416C140.645 165.461 140.035 165.171 139.405 164.966C137.684 164.416 136.098 164.586 134.802 165.951C133.517 167.307 133.417 168.913 133.947 170.608C134.122 171.164 134.417 171.679 134.402 172.284C132.837 175.42 130.24 177.571 127.459 179.547L127.464 179.552Z" fill="#AFE6F6"/>
<path d="M55.7578 121.607C58.2641 101.834 64.8324 82.8706 78.5492 66.9037C87.4086 56.5943 98.159 49.2361 111.796 46.745C118.244 45.5645 124.662 45.7246 130.205 47.1752C105.373 72.0059 80.3501 97.0217 55.7578 121.612V121.607Z" fill="#AFE6F6"/>
<path d="M127.464 179.552C129.665 177.156 131.866 174.755 134.067 172.359C134.777 172.174 135.373 172.514 135.968 172.794C137.769 173.64 139.415 173.354 140.775 171.974C142.171 170.553 142.696 168.893 141.676 166.972C141.371 166.396 141.001 165.801 141.306 165.086C144.062 163.265 145.838 160.374 148.524 158.468C151.821 160.359 153.627 160.159 156.288 157.508C165.018 148.799 173.742 140.08 182.441 131.341C183.077 130.701 183.507 129.861 184.037 129.11C184.317 129.261 184.597 129.411 184.872 129.561C184.872 133.742 184.902 137.924 184.842 142.106C184.832 142.881 184.027 143.322 183.502 143.842C157.524 169.828 131.531 195.799 105.583 221.81C104.472 222.926 103.572 223.181 102.136 222.521C99.7299 221.415 97.2987 220.395 94.8774 218.864C102.976 210.781 110.93 202.847 118.879 194.914C121.356 192.443 123.837 189.972 126.303 187.491C129.12 184.654 129.36 182.959 127.459 179.537L127.464 179.552Z" fill="#DEF4FA"/>
<path d="M116.378 225.982C138.534 203.818 160.515 181.828 182.486 159.844C182.496 162.15 181.656 164.476 181.025 166.827C176.528 183.609 168.859 198.635 156.078 210.67C145.633 220.51 133.382 226.197 118.759 225.987C117.954 225.977 117.149 225.987 116.378 225.987V225.982Z" fill="#AFE6F6"/>
<path d="M141.311 165.091C143.877 169.023 142.816 172.789 138.904 173.77C136.988 174.25 135.538 173.304 134.067 172.359C132.846 170.348 132.316 168.257 133.717 166.141C134.857 164.421 136.548 163.76 138.614 163.97C139.65 164.075 140.395 164.756 141.311 165.091Z" fill="#010101"/>
</g>
<defs>
<clipPath id="clip0_2171_651">
<rect width="230" height="256" fill="white"/>
</clipPath>
</defs>
</svg>
