<svg width="488" height="441" viewBox="0 0 488 441" fill="none" xmlns="http://www.w3.org/2000/svg">
<path d="M82.205 364.11C69.5517 364.11 59.21 360.095 51.18 352.065C43.15 344.035 39.135 333.572 39.135 320.675V180.15H8.11V175.405C24.9 174.188 39.865 168.835 53.005 159.345C66.3883 149.855 77.3383 137.08 85.855 121.02H91.695V173.58H140.24L136.59 180.15H91.695V312.645C91.695 332.112 98.265 341.845 111.405 341.845C115.785 341.845 120.773 340.507 126.37 337.83C132.21 335.153 137.685 331.625 142.795 327.245V330.895C134.765 341.115 125.275 349.267 114.325 355.35C103.375 361.19 92.6683 364.11 82.205 364.11ZM158.302 258.625V240.375H249.552V258.625H158.302ZM406.362 372.87L405.997 321.04C400.157 333.693 391.397 344.157 379.717 352.43C368.037 360.46 355.505 364.475 342.122 364.475C328.982 364.475 317.18 360.338 306.717 352.065C296.254 343.792 287.98 332.477 281.897 318.12C275.814 303.52 272.772 287.095 272.772 268.845C272.772 248.405 276.544 230.642 284.087 215.555C291.874 200.468 302.58 188.91 316.207 180.88C329.834 172.607 345.529 168.47 363.292 168.47C373.269 168.47 381.42 170.052 387.747 173.215C394.074 176.135 399.792 181.245 404.902 188.545V118.1C404.902 109.34 402.104 102.283 396.507 96.93C391.154 91.5767 384.097 88.9 375.337 88.9V85.25H412.567C424.734 85.25 433.98 84.0333 440.307 81.6C446.634 79.1667 451.135 75.76 453.812 71.38H457.462V326.15C457.462 334.91 460.139 341.967 465.492 347.32C470.845 352.673 478.024 355.35 487.027 355.35V359H449.797C439.09 359 430.574 360.095 424.247 362.285C418.164 364.475 413.419 368.003 410.012 372.87H406.362ZM362.197 349.875C367.794 349.875 373.39 348.172 378.987 344.765C384.827 341.115 390.059 336.37 394.682 330.53C399.305 324.69 402.712 318.485 404.902 311.915V222.855C403.685 208.255 400.035 196.575 393.952 187.815C388.112 179.055 380.447 174.675 370.957 174.675C358.304 174.675 348.449 182.705 341.392 198.765C334.579 214.825 331.172 238.55 331.172 269.94C331.172 323.23 341.514 349.875 362.197 349.875Z" fill="black"/>
<path d="M79.205 361.11C66.5517 361.11 56.21 357.095 48.18 349.065C40.15 341.035 36.135 330.572 36.135 317.675V177.15H5.11V172.405C21.9 171.188 36.865 165.835 50.005 156.345C63.3883 146.855 74.3383 134.08 82.855 118.02H88.695V170.58H137.24L133.59 177.15H88.695V309.645C88.695 329.112 95.265 338.845 108.405 338.845C112.785 338.845 117.773 337.507 123.37 334.83C129.21 332.153 134.685 328.625 139.795 324.245V327.895C131.765 338.115 122.275 346.267 111.325 352.35C100.375 358.19 89.6683 361.11 79.205 361.11ZM155.302 255.625V237.375H246.552V255.625H155.302ZM403.362 369.87L402.997 318.04C397.157 330.693 388.397 341.157 376.717 349.43C365.037 357.46 352.505 361.475 339.122 361.475C325.982 361.475 314.18 357.338 303.717 349.065C293.254 340.792 284.98 329.477 278.897 315.12C272.814 300.52 269.772 284.095 269.772 265.845C269.772 245.405 273.544 227.642 281.087 212.555C288.874 197.468 299.58 185.91 313.207 177.88C326.834 169.607 342.529 165.47 360.292 165.47C370.269 165.47 378.42 167.052 384.747 170.215C391.074 173.135 396.792 178.245 401.902 185.545V115.1C401.902 106.34 399.104 99.2833 393.507 93.93C388.154 88.5767 381.097 85.9 372.337 85.9V82.25H409.567C421.734 82.25 430.98 81.0333 437.307 78.6C443.634 76.1667 448.135 72.76 450.812 68.38H454.462V323.15C454.462 331.91 457.139 338.967 462.492 344.32C467.845 349.673 475.024 352.35 484.027 352.35V356H446.797C436.09 356 427.574 357.095 421.247 359.285C415.164 361.475 410.419 365.003 407.012 369.87H403.362ZM359.197 346.875C364.794 346.875 370.39 345.172 375.987 341.765C381.827 338.115 387.059 333.37 391.682 327.53C396.305 321.69 399.712 315.485 401.902 308.915V219.855C400.685 205.255 397.035 193.575 390.952 184.815C385.112 176.055 377.447 171.675 367.957 171.675C355.304 171.675 345.449 179.705 338.392 195.765C331.579 211.825 328.172 235.55 328.172 266.94C328.172 320.23 338.514 346.875 359.197 346.875Z" fill="#6610F2"/>
</svg>
