<svg width="454" height="277" viewBox="0 0 454 277" fill="none" xmlns="http://www.w3.org/2000/svg">
<path d="M171.046 82.2735C168.258 82.605 165.597 82.129 162.843 82.2905C159.911 82.4605 157.089 84.1095 154.607 85.563C152.703 86.685 150.909 87.875 149.039 88.9715C150.858 86.5405 152.677 84.118 154.496 81.687C157.259 77.998 161.628 78.7035 163.566 81.4405C164.739 80.123 165.903 78.8055 167.076 77.488C169.975 74.224 175.517 76.4425 176.401 80.1655C176.953 79.613 177.497 79.0605 178.05 78.508C179.758 76.791 182.589 76.4255 184.68 77.6495C185.207 77.9555 185.708 78.406 186.125 78.9245C181.263 80.6245 176.069 81.6785 171.046 82.2735ZM145.486 90.816C143.514 91.6915 141.525 92.533 139.528 93.332C140.072 92.5925 140.616 91.8445 141.143 91.088C143.055 88.334 146.26 87.9855 148.555 89.2435C147.569 89.8045 146.557 90.34 145.486 90.816Z" fill="#6610F2"/>
<path d="M21.7259 241.98C23.0094 237.594 24.6584 233.327 25.6359 228.864C26.5029 227.266 27.4209 225.694 28.4664 224.189C29.1719 223.169 28.8829 222.183 28.1859 221.554C28.7168 220.188 29.21 218.808 29.6649 217.415C31.0419 216.922 32.6484 216.939 33.8639 217.474C34.3399 217.687 34.7649 217.942 35.1389 218.231C36.4819 217.117 38.1479 216.573 40.0264 217.083C40.7234 217.27 41.3949 217.636 41.9984 218.12C43.2054 215.536 44.4294 212.952 45.6704 210.377C49.6377 200.96 53.9905 191.71 58.7179 182.65C59.9844 180.227 63.2059 179.377 65.6284 180.406C67.0649 178.196 68.5099 176.003 69.9719 173.81C68.6119 172.263 68.0509 170.019 69.2919 167.656C71.5274 163.397 73.8309 159.164 76.1854 154.965C75.5819 154.226 75.1909 153.325 75.1399 152.296C74.0689 150.996 73.7289 149.245 74.0349 147.366C74.1199 146.865 74.1964 146.372 74.2814 145.87C71.3914 145.25 68.8754 142.181 69.7254 138.96C70.0399 137.761 70.3629 136.571 70.6774 135.373C71.3914 130.485 72.5729 125.751 74.4429 121.144C75.5394 118.458 77.9959 116.545 81.0134 117.285C82.2969 114.386 83.5974 111.496 84.9234 108.615L85.3059 107.442C84.3454 106.116 84.0649 104.39 84.3709 102.69C84.7449 100.625 85.1104 98.5595 85.4674 96.494C83.4189 95.304 81.9399 92.703 82.8239 90.3145C83.7079 87.926 84.6004 85.546 85.4844 83.1575C85.3654 83.098 85.2464 83.0385 85.1274 82.9705C82.7814 81.5935 82.1099 79.086 82.7304 76.6975C81.8379 75.04 81.9739 73.0595 82.7814 71.283C83.3934 69.923 84.0139 68.563 84.6259 67.203C84.6939 66.438 84.9319 65.639 85.3994 64.823L86.7849 62.4175C86.8699 62.2645 86.9719 62.137 87.0739 61.9925C91.4174 65.6475 96.9679 68.427 100.096 73.221C100.249 73.459 100.393 73.697 100.538 73.9435C100.317 74.547 100.087 75.1505 99.8664 75.754C100.385 75.6775 100.92 75.686 101.456 75.771C103.963 81.6105 103.411 88.8185 102.382 94.845C101.889 97.718 106.284 98.942 106.777 96.0605C107.958 89.1585 108.502 81.3385 105.91 74.649C105.969 74.564 106.02 74.4705 106.08 74.3855C106.802 73.255 107.892 72.4083 109.165 71.9885C109.233 72.0565 109.301 72.133 109.361 72.201C109.845 73.2635 110.321 74.3345 110.763 75.4225C110.746 75.5075 110.729 75.584 110.721 75.669C110.406 79.324 110.721 82.9365 111.078 86.5745L110.95 86.8295C110.857 86.9995 110.763 87.178 110.661 87.348C109.837 88.7675 110.704 90.1105 111.877 90.578C111.928 90.7735 112.013 90.952 112.115 91.1135C111.486 91.3005 110.967 91.7935 110.789 92.6605C110.627 93.485 110.449 94.267 110.338 95.1C110.058 97.2335 112.939 97.8625 114.231 96.715C115.464 95.6185 116.603 94.4285 117.733 93.23C120.479 92.006 123.938 93.111 125.154 95.712C125.749 94.964 126.344 94.2245 126.939 93.4765C128.673 91.3005 131.648 91.496 133.798 92.8815C134.512 92.7794 135.24 92.8264 135.935 93.0195C136.63 93.2126 137.277 93.5476 137.836 94.0035C136.68 94.454 135.524 94.8875 134.359 95.304C126.99 97.9135 119.374 99.7325 111.528 99.792C108.587 99.8175 108.596 104.373 111.528 104.356C119.909 104.288 128.103 102.376 135.966 99.5625C139.306 98.364 142.596 97.021 145.851 95.61C149.217 94.1565 152.158 92.482 155.252 90.5185C157.522 89.082 160.488 86.9315 163.268 86.8465C165.886 86.77 168.393 87.1525 171.028 86.8465C177.437 86.0985 183.872 84.679 189.907 82.35C194.31 80.6585 200.574 75.8305 204.501 80.582C204.714 80.8455 204.952 81.024 205.19 81.1515C201.484 84.56 197.752 87.9345 194.004 91.3005L183.532 103.71C182.24 105.24 180.438 105.606 178.763 105.215L175.508 108.215C174.887 108.785 174.224 109.176 173.553 109.422L159.154 122.062C160.335 123.26 161.015 124.943 160.667 126.796C161.644 126.737 162.656 126.949 163.625 127.51C166.43 129.151 166.77 132.27 165.588 134.999C164.33 137.914 163.115 140.847 161.925 143.796C162.086 143.669 162.239 143.541 162.401 143.414C166.838 139.912 172.371 143.167 171.547 148.743C171.292 150.46 171.071 152.186 170.867 153.911C171.054 153.979 171.241 154.047 171.419 154.132C172.227 153.299 173.026 152.466 173.833 151.625C177.148 148.182 182.367 150.809 183.115 154.651C184.713 156.818 184.348 159.734 182.58 161.757C180.004 164.698 177.429 167.639 174.845 170.58C174.445 171.03 174.02 171.387 173.57 171.651L167.892 177.89C165.801 180.193 162.392 179.802 160.327 177.958C159.179 179.318 158.04 180.686 156.893 182.046C155.601 183.585 153.935 183.993 152.371 183.67L151.81 184.333C150.067 186.39 146.599 186.33 144.619 184.758C142.63 183.177 142.052 180.72 142.902 178.417C142.052 178.485 141.176 178.357 140.352 177.992C138.677 179.828 136.994 181.664 135.32 183.5C133.016 186.016 129.752 185.404 127.755 183.466C127.066 183.44 126.395 183.27 125.766 182.981C124.108 185.157 122.468 187.35 120.853 189.56C119.246 191.762 116.679 192.969 114.019 191.796C113.007 191.345 112.055 190.521 111.418 189.518C107.474 194.04 103.598 198.621 99.8069 203.279C98.7784 204.546 97.0699 204.996 95.4549 204.818C92.1399 210.887 88.9439 217.015 85.8414 223.195C86.6914 224.427 87.0569 225.949 86.5554 227.487C85.9349 229.408 85.2464 231.304 84.5069 233.182C85.4419 234.67 85.6969 236.591 84.6344 238.58C84.6004 238.648 84.5579 238.707 84.5239 238.775C81.0559 237.653 77.2904 237.364 73.6779 237.339C69.6914 237.313 65.5094 237.602 61.6164 238.656C58.3439 239.047 55.0629 239.413 51.7734 239.447C50.4644 239.455 49.7419 240.339 49.5974 241.325C46.6989 241.121 43.8089 240.994 40.9104 240.994C35.2579 240.441 29.6054 239.821 23.9104 240.186C22.5249 240.28 21.8109 241.215 21.7259 242.218H21.6239C21.6579 242.141 21.6834 242.065 21.7089 241.98H21.7259ZM139.927 136.257C139.451 135.679 139.102 135.007 138.907 134.293H138.89C138.788 134.633 138.669 134.965 138.524 135.296C138.261 135.883 138.006 136.469 137.751 137.047C138.448 136.597 139.187 136.342 139.935 136.257H139.927ZM140.675 116.46C141.508 115.789 142.366 115.143 143.233 114.505C145.384 112.329 148.894 112.831 150.9 114.794L161.763 105.257C160.633 104.79 159.647 104.008 159.035 103.005C157.496 104.739 155.958 106.464 154.428 108.198C152.762 110.068 149.727 110.213 147.696 108.938C146.871 110.043 146.038 111.148 145.214 112.253C143.497 114.539 140.666 115.746 137.989 114.352C137.938 114.48 137.895 114.616 137.836 114.743C137.623 115.253 137.402 115.772 137.19 116.282C138.32 115.899 139.553 116.01 140.683 116.46H140.675ZM207.74 77.3435C203.447 72.15 197.625 74.02 192.389 76.315C194.395 74.224 197.259 72.932 199.741 71.4615C204.076 68.9115 208.904 73.476 207.901 77.556C207.85 77.4795 207.799 77.4115 207.74 77.335V77.3435Z" fill="#6610F2"/>
<path d="M75.9986 242.354C81.9656 226.807 90.0321 212.188 100.105 198.91C100.334 198.613 100.598 198.392 100.878 198.239C100.436 197.083 100.802 195.689 102.349 195.408C106.233 194.703 110.118 194.006 113.994 193.3C113.365 192.127 113.637 190.436 115.294 189.977C116.918 189.535 118.541 189.093 120.156 188.651C116.824 183.5 115.923 177.031 117.759 171.251C116.62 171.396 115.473 171.54 114.334 171.668C112.37 171.889 111.75 169.9 112.421 168.463C112.379 168.387 112.336 168.31 112.294 168.225C109.982 163.27 108.758 158.042 108.732 152.56C108.732 151.676 109.14 151.064 109.718 150.707C109.642 150.452 109.599 150.188 109.599 149.916C108.656 150.843 106.862 151.072 105.876 149.644C102.527 144.774 100.759 139.113 100.623 133.205C100.598 131.964 101.397 131.242 102.34 131.055C100.589 130.562 99.6456 127.952 101.686 126.941C109.939 122.835 118.652 119.673 127.662 117.684C131.045 116.936 134.47 116.35 137.904 115.916C137.734 114.879 138.176 113.74 139.468 113.366C151.717 109.805 163.625 105.215 175.355 100.225C180.583 98.007 185.878 95.8565 190.927 93.2555C195.109 91.0965 199.317 88.5125 202.224 84.7215C203.507 83.047 205.675 79.8255 205.071 77.5645C204.578 75.7455 202.258 75.448 200.668 75.397C198.195 75.3205 195.823 75.924 193.418 76.434C178.075 79.698 162.939 83.8646 148.087 88.912C134.776 93.4386 121.713 98.6648 108.953 104.569C107.627 105.181 106.386 104.501 105.808 103.523C105.12 103.039 104.661 102.206 104.873 101.16C107.304 88.9375 108.12 73.935 97.8266 64.8825C95.6591 62.9785 92.4036 60.7685 89.3861 61.4825C86.2581 62.222 84.4731 65.3415 83.7591 68.24C82.1356 74.87 83.3851 82.7495 85.0256 89.252C86.7851 96.2305 90.0406 103.328 86.6151 110.332C85.3231 112.967 81.3961 110.663 82.6796 108.028C84.4986 104.314 83.3936 100.098 82.3141 96.324C81.1921 92.414 80.0446 88.5635 79.4326 84.5345C78.3701 77.5815 77.2736 68.376 81.4131 62.154C83.1131 59.587 85.7311 57.5045 88.8081 56.9435C92.2591 56.3145 95.6676 57.734 98.4811 59.655C103.93 63.378 107.61 69.175 109.48 75.431C111.784 83.149 111.231 91.309 109.863 99.163C134.164 88.164 159.511 79.5195 185.513 73.51C190.842 72.2775 196.801 70.246 202.334 70.977C207.502 71.6655 210.724 75.6095 209.279 80.854C206.261 91.802 194.191 96.953 184.782 101.067C172.89 106.269 160.888 111.241 148.555 115.296C150.442 115.423 152.303 115.746 154.097 116.375C160.786 118.738 165.835 125.275 166.133 132.423C166.294 136.376 163.736 138.382 160.225 139.41C155.474 140.804 150.646 141.986 145.86 143.269C134.98 146.185 124.1 149.1 113.229 152.024C113.263 152.186 113.28 152.356 113.28 152.543C113.297 157.184 114.249 161.689 116.212 165.905C116.357 166.219 116.433 166.525 116.442 166.823C117.666 166.67 118.881 166.508 120.097 166.338L120.369 165.939C120.777 165.369 121.312 165.063 121.873 164.97C120.539 162.836 119.196 160.694 117.861 158.561C116.297 156.062 120.241 153.775 121.797 156.257L125.834 162.709C126.531 163.822 126.132 164.893 125.333 165.522C140.92 162.904 156.17 158.574 170.808 152.611C171.007 152.525 171.22 152.47 171.437 152.449C171.568 152.334 171.71 152.232 171.862 152.143C176.537 149.483 171.029 143.601 168.827 141.425C166.736 139.359 169.958 136.138 172.049 138.203C174.743 140.864 177.557 143.847 178.016 147.774C178.203 149.389 177.99 151.004 177.378 152.441C182.733 155.934 188.598 161.697 184.459 168.463C180.617 174.753 172.533 178.145 166.15 181.103C163.506 182.327 161.186 178.4 163.846 177.167C169.023 174.77 174.471 172.348 178.645 168.361C180.532 166.559 182.079 164.298 180.77 161.689C179.597 159.36 177.174 157.762 175.058 156.376C174.828 156.232 174.65 156.062 174.497 155.883C174.386 155.951 174.276 156.028 174.157 156.096C173.723 156.342 173.298 156.436 172.899 156.402C172.669 156.657 172.372 156.869 172.006 157.022C156.222 163.44 139.774 167.928 122.961 170.504C120.352 175.858 120.794 182.514 124.67 187.257C124.704 187.299 124.729 187.342 124.763 187.376C125.911 187.061 127.058 186.747 128.206 186.441C127.033 184.316 126.71 181.834 127.466 179.42C128.35 176.632 132.753 177.822 131.861 180.635C131.385 182.132 131.572 183.729 132.626 184.945C132.694 185.021 132.753 185.106 132.813 185.191C140.998 182.956 149.175 180.729 157.361 178.493C157.845 178.306 158.338 178.119 158.823 177.924C159.273 177.745 159.681 177.72 160.038 177.796C162.546 177.567 163.489 181.545 160.812 182.276C160.064 182.48 159.316 182.684 158.576 182.888C146.685 187.529 134.462 191.269 122.001 194.057C122.349 195.179 121.958 196.462 120.471 196.726L104.389 199.633C104.499 200.117 104.397 200.653 103.989 201.205C94.1716 214.143 86.1646 228.388 80.3421 243.552C79.2966 246.264 74.8851 245.091 75.9476 242.337L75.9986 242.354ZM135.881 141.255C140.14 140.116 144.39 138.977 148.648 137.829C150.552 137.319 152.465 136.809 154.369 136.291C156.247 135.789 158.398 135.466 160.183 134.676C163.141 133.358 160.931 128.564 159.69 126.507C158.075 123.821 155.55 121.671 152.558 120.676C148.852 119.444 144.849 119.75 141.024 120.132C137.088 120.523 133.17 121.152 129.302 121.994C120.53 123.898 112.047 126.881 104.006 130.885C103.828 130.978 103.649 131.038 103.471 131.08C104.38 131.293 105.171 132.007 105.205 133.214C105.324 138.356 106.93 143.116 109.837 147.349C110.084 147.715 110.211 148.072 110.237 148.42C110.492 148.174 110.815 147.978 111.24 147.868C119.459 145.666 127.67 143.465 135.89 141.255H135.881Z" fill="#0C0C0D"/>
<path d="M76.466 110.145C77.605 107.45 81.5405 109.771 80.4015 112.449C72.573 130.91 69.5895 151.166 71.4935 171.107C71.774 174.031 67.2095 174.006 66.929 171.107C64.94 150.307 68.306 129.355 76.4575 110.145H76.466ZM22.2785 229.919C38.658 213.65 52.224 194.771 62.4665 174.082C63.767 171.447 67.7025 173.759 66.402 176.386C55.998 197.406 42.1345 216.624 25.5 233.148C23.4175 235.223 20.1875 231.992 22.2785 229.927V229.919ZM110.032 133.248C111.001 130.494 115.404 131.684 114.427 134.463C113.653 136.665 114.214 138.807 115.974 140.354C118.184 142.292 114.954 145.505 112.752 143.576C109.871 141.051 108.766 136.869 110.032 133.248ZM205.81 58.618C208.25 56.7565 210.681 54.895 213.12 53.042C214.106 52.2855 215.662 52.8975 216.24 53.858C216.937 55.0225 216.393 56.238 215.424 56.9775C212.984 58.839 210.553 60.7005 208.114 62.5535C207.128 63.31 205.572 62.698 204.994 61.7375C204.297 60.573 204.841 59.3575 205.81 58.618ZM216.784 65.4435C219.437 64.4946 222.171 63.7918 224.952 63.344C226.176 63.1485 227.392 63.6585 227.757 64.9335C228.072 66.0215 227.375 67.543 226.168 67.7385C223.38 68.189 220.66 68.886 217.999 69.838C215.228 70.824 214.038 66.421 216.784 65.4435ZM219.903 79.324H231.191C234.124 79.324 234.132 83.8885 231.191 83.8885H219.903C216.971 83.8885 216.962 79.324 219.903 79.324ZM61.7865 243.434C63.3675 234.016 67.5495 225.32 73.746 218.07C75.6585 215.834 78.8715 219.073 76.9675 221.291C71.2725 227.955 67.626 236.005 66.181 244.641C65.6965 247.531 61.302 246.307 61.7865 243.425V243.434Z" fill="#0C0C0D"/>
<path d="M429.592 133.599C427.244 141.541 425.35 149.653 422.475 157.398C411.721 186.386 383.039 206.028 351.939 205.818C346.508 205.782 340.965 205.219 335.665 204.039C325.044 201.674 314.327 199.402 304.362 194.854C269.984 179.169 252.552 143.164 261.659 106.66C264.523 95.1723 267.583 83.7315 270.865 72.3612C280.656 38.4207 311.333 16.2401 346.78 17.4678C351.498 17.6293 356.278 18.2769 360.865 19.3803C371.185 21.8671 381.735 23.8425 391.365 28.4753C419.885 42.1985 434.793 65.0263 436.328 96.4768C436.684 103.816 435.487 111.023 433.542 118.101C432.127 123.236 430.778 128.393 429.4 133.537C429.466 133.555 429.528 133.571 429.594 133.589L429.592 133.599ZM343.096 130.255C342.787 129.998 342.642 129.861 342.48 129.752C319.884 114.799 289.624 127.096 284.084 153.66C283.94 154.342 284.139 155.257 284.513 155.865C291.562 167.449 301.286 176.027 314.117 180.595C321.625 183.267 329.412 185.19 337.137 187.194C361.229 193.437 386.929 183.597 400.778 163.016C401.551 161.869 401.665 160.83 401.36 159.536C397.899 144.781 383.519 134.749 368.483 137.041C355.777 138.981 347.679 146.484 343.865 158.673C342.424 163.271 337.87 165.768 333.458 164.466C328.968 163.143 326.369 158.652 327.755 154.051C328.736 150.798 329.99 147.591 331.473 144.533C334.176 138.963 338.2 134.375 343.096 130.255ZM309.393 45.1984C310.723 48.2731 312.863 49.9768 315.881 50.7799C330.369 54.6237 344.847 58.5249 359.325 62.4044C374.826 66.5578 390.331 70.696 405.824 74.88C408.905 75.7111 411.645 75.2824 414.223 73.2875C407.75 59.7781 398.008 49.6728 384.266 43.7632C374.405 39.5216 363.951 37.0042 353.439 35.1102C337.466 32.2277 322.839 36.0601 309.392 45.2035L309.393 45.1984Z" fill="#0C0C0D"/>
</svg>
