<svg width="122" height="98" viewBox="0 0 122 98" fill="none" xmlns="http://www.w3.org/2000/svg">
<g clip-path="url(#clip0_2639_58)">
<path d="M81.5692 0.0287159C92.4244 0.0287159 103.283 0.0802864 114.138 -0.000292495C117.771 -0.0260777 121.126 2.49765 121.86 6.05601C121.964 6.56205 121.993 7.09065 121.993 7.60635C122 23.2 122 38.7968 121.997 54.3904C121.997 58.4516 118.853 61.7521 114.751 62.0164C113.362 62.1067 112.987 62.4838 112.984 63.873C112.974 66.4064 112.951 68.9365 112.99 71.4699C113.01 72.7721 112.531 73.7326 111.334 74.2902C110.121 74.8575 109.048 74.5255 108.08 73.7004C104.039 70.2741 99.983 66.864 95.9689 63.4088C94.8733 62.4644 93.7125 61.9713 92.2288 62.0003C88.8538 62.068 85.4789 62.0519 82.104 62.0003C81.2301 61.9874 81.0312 62.2549 81.0377 63.0833C81.0605 68.2274 81.0899 73.3716 80.9888 78.5157C80.9203 82.145 77.5225 85.4036 73.8509 85.4133C59.2946 85.4488 44.7383 85.4552 30.1821 85.423C28.4473 85.4197 27.0745 85.9451 25.78 87.07C21.9029 90.4382 17.9442 93.7097 14.0476 97.0553C12.9878 97.9643 11.8694 98.293 10.5879 97.7096C9.31614 97.1327 8.97701 96.0497 9.0031 94.725C9.05527 92.2754 9.02593 89.8226 9.01614 87.3698C9.00962 85.929 8.57919 85.4907 7.16726 85.423C3.2282 85.2392 0.00652162 81.9194 0.00326081 78.0129C0 62.3774 0 46.7451 0 31.1096C0 26.8325 3.3619 23.461 7.69551 23.4546C18.3095 23.4353 28.9201 23.4256 39.5341 23.4772C40.7471 23.4836 40.9819 23.1452 40.9688 22.0139C40.9167 16.9922 40.9069 11.9673 41.0047 6.94238C41.0764 3.30666 44.4579 0.0673937 48.1426 0.0545011C59.2848 0.0190464 70.4237 0.0416085 81.5659 0.0416085V0.0254927L81.5692 0.0287159ZM81.5496 2.42674C70.7759 2.42674 60.0022 2.42674 49.2285 2.42674C45.4166 2.42674 43.3884 4.44766 43.3851 8.24776C43.3818 23.3966 43.4471 38.5486 43.3394 53.6975C43.3134 57.562 46.1274 59.67 49.4111 59.6474C63.7619 59.5604 78.1127 59.6216 92.4668 59.5958C94.3581 59.5926 95.9298 60.1921 97.3483 61.4105C101.336 64.8367 105.36 68.221 109.377 71.615C109.638 71.8341 109.867 72.2499 110.29 72.0469C110.698 71.8503 110.551 71.4087 110.555 71.067C110.564 68.5369 110.538 66.0035 110.568 63.4733C110.594 61.3202 112.064 59.7634 114.135 59.6216C117.676 59.3767 119.577 57.3686 119.577 53.8393C119.58 38.6099 119.58 23.3772 119.577 8.14784C119.577 4.47022 117.494 2.43641 113.747 2.43319C103.012 2.43319 92.281 2.43319 81.5464 2.43319L81.5496 2.42674ZM51.2502 83.0314C58.4859 83.0314 65.7216 83.0346 72.9574 83.0314C76.4921 83.0314 78.5856 80.975 78.5921 77.5133C78.6019 72.8108 78.5627 68.1114 78.6182 63.4088C78.6312 62.3355 78.3769 61.9777 77.2193 61.9842C67.8705 62.0325 58.5185 61.9616 49.1698 62.0325C44.5166 62.068 40.8743 58.5161 40.9395 53.9585C41.0699 45.0014 40.9656 36.0378 40.9949 27.0774C40.9949 26.1846 40.8286 25.8268 39.8047 25.8301C29.1549 25.8687 18.5051 25.8494 7.85529 25.8591C4.71187 25.8591 2.43583 28.0702 2.43257 31.1418C2.41952 46.7322 2.42278 62.3226 2.43257 77.913C2.43257 80.7139 4.55535 82.8735 7.37596 83.0249C9.97808 83.1668 11.4357 84.6849 11.4487 87.2859C11.4585 89.655 11.4422 92.0272 11.4618 94.3995C11.4618 94.7701 11.2498 95.2761 11.7259 95.4824C12.1889 95.6823 12.4433 95.2052 12.7335 94.9603C16.6236 91.6791 20.5203 88.4076 24.3778 85.091C25.9104 83.7727 27.5865 83.0088 29.6636 83.0185C36.8569 83.0572 44.0536 83.0314 51.2502 83.0314Z" fill="#352F8E"/>
<path d="M81.5496 2.42686C92.2842 2.42686 103.016 2.42686 113.75 2.42686C117.497 2.42686 119.58 4.46389 119.58 8.14151C119.584 23.3709 119.584 38.6035 119.58 53.833C119.58 57.3623 117.679 59.3703 114.138 59.6153C112.068 59.7571 110.597 61.3171 110.571 63.467C110.541 65.9971 110.571 68.5305 110.558 71.0607C110.558 71.4024 110.701 71.8439 110.294 72.0406C109.87 72.2468 109.642 71.8278 109.381 71.6087C105.363 68.2147 101.339 64.8304 97.3515 61.4041C95.9331 60.1858 94.3613 59.5863 92.4701 59.5895C78.1192 59.6153 63.7652 59.5508 49.4143 59.6411C46.1274 59.6604 43.3133 57.5525 43.3427 53.6911C43.447 38.5423 43.3851 23.3903 43.3883 8.24143C43.3883 4.44133 45.4198 2.42363 49.2317 2.42041C60.0054 2.42041 70.7792 2.42041 81.5529 2.42041L81.5496 2.42686ZM74.8715 18.6748C74.9139 19.3226 74.8943 19.8126 74.9823 20.2799C76.0878 26.3008 77.2095 32.3184 78.3182 38.336C78.6736 40.2699 79.8116 41.3916 81.4714 41.3948C83.1246 41.3948 84.3148 40.2216 84.6539 38.336C85.743 32.2733 86.855 26.2105 87.9571 20.151C88.456 17.4081 87.6278 15.1164 85.3778 13.4565C83.2974 11.9255 80.9725 11.6547 78.6149 12.8248C76.1367 14.0528 74.953 16.1188 74.8747 18.6748H74.8715ZM81.5105 42.9838C79.2671 42.9677 77.3758 44.8017 77.3562 47.0095C77.3367 49.1948 79.2312 51.1094 81.4388 51.1416C83.5974 51.1706 85.5735 49.2496 85.6126 47.0772C85.6517 44.9241 83.7213 42.9967 81.5072 42.9838H81.5105Z" fill="#FE5859"/>
<path d="M51.2502 83.0319C44.0536 83.0319 36.8602 83.0545 29.6636 83.019C27.5865 83.0093 25.9137 83.77 24.3778 85.0915C20.5203 88.4081 16.6236 91.6796 12.7335 94.9608C12.4433 95.2058 12.1889 95.6828 11.7259 95.4829C11.2498 95.2799 11.465 94.7706 11.4618 94.4C11.4422 92.031 11.4618 89.6587 11.4487 87.2865C11.4389 84.6854 9.97809 83.1673 7.37596 83.0255C4.55862 82.8707 2.43583 80.7145 2.43257 77.9135C2.41953 62.3231 2.41953 46.7327 2.43257 31.1423C2.43257 28.0707 4.71188 25.8596 7.8553 25.8596C18.5051 25.8499 29.1549 25.8693 39.8047 25.8306C40.8286 25.8274 40.9949 26.1819 40.9949 27.0779C40.9688 36.0383 41.0699 44.9987 40.9395 53.9591C40.8743 58.5166 44.5133 62.0717 49.1698 62.0331C58.5185 61.9622 67.8673 62.0331 77.2193 61.9847C78.3769 61.9783 78.6312 62.336 78.6182 63.4093C78.5627 68.1087 78.6019 72.8113 78.5921 77.5139C78.5856 80.9755 76.4889 83.0287 72.9574 83.0319C65.7217 83.0383 58.4859 83.0319 51.2502 83.0319ZM31.0136 56.6214C31.0234 52.138 27.6484 48.7569 23.1518 48.7472C18.6779 48.7375 15.1465 52.1605 15.1302 56.5182C15.1171 60.8566 18.6942 64.4311 23.0605 64.444C27.5408 64.4536 31.0005 61.05 31.0103 56.6214H31.0136Z" fill="#6610F2"/>
<path d="M74.8715 18.672C74.9497 16.116 76.1334 14.05 78.6116 12.8219C80.9725 11.6552 83.2974 11.9227 85.3746 13.4537C87.6245 15.1136 88.4528 17.4053 87.9539 20.1482C86.8517 26.2109 85.7398 32.2705 84.6507 38.3332C84.3115 40.2188 83.1213 41.3952 81.4681 41.392C79.8084 41.392 78.6703 40.2671 78.3149 38.3332C77.2062 32.3124 76.0845 26.298 74.9791 20.2771C74.8943 19.8065 74.9106 19.3166 74.8682 18.672H74.8715ZM85.6713 18.7816C85.5083 17.083 84.83 15.7647 83.3007 15.0427C81.8431 14.3562 80.3562 14.4174 79.0551 15.4005C77.604 16.4931 77.1084 18.0144 77.4247 19.7807C78.0443 23.2424 78.6834 26.7008 79.316 30.1593C79.7986 32.7926 80.2877 35.4259 80.7703 38.0592C80.8453 38.4686 80.9236 38.8683 81.4616 38.8844C82.042 38.9037 82.0257 38.4041 82.1659 38.056C82.2246 37.911 82.2083 37.7402 82.2377 37.5822C82.942 33.7305 83.6529 29.8789 84.3572 26.0272C84.8039 23.5905 85.2441 21.1506 85.6745 18.7816H85.6713Z" fill="#37308E"/>
<path d="M81.5105 42.9806C83.7246 42.9967 85.655 44.9209 85.6159 47.074C85.5768 49.2432 83.6007 51.1674 81.4421 51.1384C79.2312 51.1061 77.34 49.1916 77.3595 47.0063C77.3791 44.7984 79.2704 42.9645 81.5138 42.9806H81.5105ZM81.4518 48.6146C82.3779 48.6275 83.0822 47.9539 83.0855 47.0482C83.0888 46.1779 82.3453 45.4108 81.4877 45.4012C80.666 45.3915 79.841 46.1908 79.8247 47.0127C79.8051 47.8669 80.5519 48.6018 81.4518 48.6146Z" fill="#37308D"/>
<path d="M31.0136 56.6213C31.0038 61.0499 27.5441 64.4567 23.0637 64.4439C18.6975 64.4342 15.1171 60.8565 15.1334 56.5181C15.1465 52.1604 18.6812 48.7374 23.155 48.7471C27.6517 48.7568 31.0266 52.1378 31.0168 56.6213H31.0136ZM23.0833 62.0587C26.181 62.0652 28.6397 59.6639 28.6821 56.5955C28.7212 53.585 26.2169 51.1 23.1289 51.0903C20.0181 51.0774 17.5497 53.4916 17.5497 56.5471C17.5497 59.6188 19.9888 62.0523 23.08 62.0587H23.0833Z" fill="#353190"/>
<path d="M85.668 18.7844C85.2376 21.1566 84.7974 23.5933 84.3506 26.03C83.6463 29.8817 82.9387 33.7333 82.2311 37.585C82.2018 37.7429 82.2181 37.9138 82.1594 38.0588C82.0192 38.4101 82.0355 38.9065 81.455 38.8872C80.9138 38.871 80.8388 38.4714 80.7638 38.062C80.2812 35.4287 79.792 32.7954 79.3094 30.1621C78.6768 26.7036 78.0377 23.2452 77.4182 19.7835C77.1019 18.0205 77.5975 16.4959 79.0486 15.4033C80.3529 14.4202 81.8366 14.359 83.2941 15.0455C84.8235 15.7675 85.5017 17.0857 85.6648 18.7844H85.668Z" fill="#EAEAEB"/>
<path d="M81.4518 48.6149C80.5518 48.602 79.8084 47.8704 79.8247 47.013C79.841 46.1911 80.6692 45.3918 81.4877 45.4015C82.3453 45.4111 83.0887 46.1782 83.0855 47.0485C83.079 47.951 82.3746 48.6278 81.4518 48.6149Z" fill="#E6E6E9"/>
<path d="M23.0833 62.0554C19.992 62.0489 17.5497 59.6154 17.5529 56.5438C17.5529 53.4882 20.0214 51.0741 23.1322 51.087C26.2202 51.0999 28.7245 53.5817 28.6853 56.5921C28.6429 59.6606 26.181 62.065 23.0865 62.0554H23.0833Z" fill="#EAEAEB"/>
</g>
<defs>
<clipPath id="clip0_2639_58">
<rect width="122" height="98" fill="white"/>
</clipPath>
</defs>
</svg>
