<svg width="233" height="324" viewBox="0 0 233 324" fill="none" xmlns="http://www.w3.org/2000/svg">
<g clip-path="url(#clip0_2454_76)">
<path d="M4.28557 143.515C3.20304 140.72 3.29233 138.014 4.91054 135.442C5.76986 134.066 7.49967 133.507 8.22508 131.986C8.31436 131.796 8.51524 131.673 8.638 131.494C10.6468 128.665 10.4013 127.771 7.60011 125.78C5.54666 124.326 3.29233 123.152 1.6518 121.106C-0.5579 118.377 -0.379338 113.58 1.20539 111.344C2.08704 110.102 3.33697 109.308 4.58689 108.637C9.82097 105.831 15.189 103.225 20.0994 99.8704C23.6929 97.4215 27.253 94.8271 29.8198 91.1929C31.2818 89.1241 32.3085 86.8764 32.0742 84.2262C32.0742 84.1144 32.0407 84.0025 32.0742 83.9019C33.0004 79.6749 32.0742 75.4256 32.2192 71.1986C32.3308 68.0116 31.7728 64.5227 34.1164 61.7048C35.6342 59.882 36.9846 57.9027 38.5916 56.1806C41.7723 52.7588 43.4463 48.5542 45.0756 44.3049C46.0577 41.7441 46.5153 39.0268 47.4081 36.4213C48.4237 33.4691 50.4994 31.4786 52.8542 29.7565C57.229 26.536 62.0501 24.1318 67.1614 22.2307C71.4581 20.6317 74.9846 17.6571 78.846 15.2753C87.7183 9.78469 97.1597 5.65837 107.327 3.11995C113.833 1.4985 120.395 0.637452 127.069 0.201337C138.709 -0.547887 150.092 0.90583 161.219 4.22701C169.165 6.60887 176.731 9.90769 183.84 14.2465C190.034 18.015 195.748 22.3537 201.082 27.2964C208.772 34.4084 214.999 42.594 220.188 51.6517C224.239 58.7414 227.297 66.256 229.407 74.1173C230.88 79.5743 232.141 85.0872 232.487 90.7903C232.688 94.1338 233.034 97.4662 233.011 100.81C232.967 108.772 232.152 116.633 230.288 124.394C228.603 131.405 226.326 138.237 223.157 144.69C219.485 152.159 215.077 159.204 209.664 165.612C203.515 172.892 196.607 179.31 188.739 184.644C184.242 187.686 179.633 190.627 174.477 192.506C172.613 193.188 172.356 195.011 172.021 196.453C170.66 202.212 169.042 207.949 168.696 213.898C168.64 214.871 168.383 215.799 168.35 216.783C168.06 223.593 169.064 230.258 170.649 236.833C173.059 246.864 176.631 256.447 181.731 265.471C185.302 271.778 188.806 278.13 192.668 284.246C196.417 290.184 200.781 295.72 204.787 301.479C209.185 307.808 211.885 314.942 213.637 322.423C213.894 323.497 213.649 324.201 212.064 323.955C207.801 323.296 203.482 322.96 199.174 323.016C193.493 323.083 187.813 322.815 182.177 322.289C174.41 321.562 166.642 321.585 158.875 321.439C152.302 321.316 145.739 320.925 139.189 320.299C137.001 320.086 134.769 320.075 132.571 319.963C128.966 319.784 125.339 319.986 121.756 319.84C116.433 319.628 111.277 320.466 106.054 321.104C101.557 321.663 97.0146 321.562 92.4613 321.26C87.0375 320.891 81.5914 320.746 76.1564 321.417C74.1811 321.663 72.1611 321.629 70.1746 321.696C65.3758 321.875 60.6105 322.222 55.8563 322.915C53.6243 323.24 51.3364 323.15 49.0709 323.296C47.5643 323.396 46.0577 323.508 44.5734 323.743C43.2007 323.955 41.9062 323.877 40.5781 323.508C39.3059 323.161 39.0938 322.412 39.5402 321.316C40.6563 318.532 42.3972 316.116 44.0043 313.623C47.4304 308.345 50.3544 302.798 52.9212 297.062C55.5438 291.202 57.6419 285.085 61.3247 279.718C62.9094 277.414 65.1191 275.725 66.782 273.511C68.8131 270.794 71.4134 268.524 73.1321 265.538C75.8998 260.719 76.5805 255.642 75.1409 250.252C73.2102 243.05 71.0675 235.927 68.3444 228.96C66.3802 223.94 63.992 219.209 61.2131 214.636C61.2801 213.842 61.8827 213.92 62.4184 213.898C65.1303 213.775 67.7641 213.137 70.3978 212.567C72.6299 212.086 72.6299 212.019 73.4669 214.155C74.8507 217.677 76.2346 221.211 77.6073 224.745C79.5268 229.687 81.4686 234.596 84.0131 239.271C85.9438 242.827 87.908 246.383 89.1914 250.252C89.4034 252.835 89.7382 255.407 89.794 257.99C89.8833 263.145 89.8164 268.311 89.8052 273.478C89.8052 274.015 89.8499 274.574 89.7717 275.099C89.1691 279.628 88.7896 284.179 88.0419 288.708C87.1826 293.964 86.2675 299.22 85.0957 304.42C84.1247 308.725 82.8525 312.952 82.3391 317.358C82.261 318.006 82.4172 318.129 82.9529 318.129C84.7832 318.129 86.6246 318.364 88.4437 318.386C92.2493 318.442 95.9767 319.214 99.76 319.326C104.749 319.471 105.998 319.27 106.88 314.305C107.706 309.631 107.382 304.878 107.862 300.181C108.621 292.913 109.648 285.689 109.994 278.342C110.463 268.256 110.485 258.158 110.753 248.071C110.942 241.082 110.295 234.093 110.284 227.093C110.273 219.008 110.005 210.912 109.67 202.827C109.413 196.722 107.539 190.895 106.065 185.014C106.01 183.426 106.891 182.14 107.516 180.809C108.934 177.79 109.547 174.502 110.73 171.416C112.773 175.352 114.435 179.456 115.931 183.616C116.567 185.405 117.147 187.216 117.739 189.017C118.509 191.365 120.149 193.423 119.915 196.095C119.77 197.661 120.339 199.215 120.73 200.658C121.667 204.124 122.27 207.624 122.437 211.158C122.727 217.096 122.248 223.056 123.185 228.972C123.241 229.341 123.174 229.766 123.308 230.101C124.145 232.17 124.245 234.462 124.301 236.531C124.446 242.1 125.305 247.624 125.116 253.204C124.892 259.902 125.484 266.601 124.613 273.299C124.089 277.358 123.743 281.44 123.274 285.51C122.951 288.317 122.203 291.113 122.415 293.975C122.426 294.188 122.437 294.422 122.359 294.624C121.522 296.782 121.176 299.03 121.154 301.344C121.132 302.843 120.574 304.252 120.384 305.75C119.971 309.139 118.509 312.449 119.96 315.915C119.792 316.899 120.149 317.38 121.187 317.168C124.323 317.212 127.47 317.168 130.606 317.324C132.068 317.402 133.497 317.906 135.004 317.839C136.131 317.783 136.744 317.279 136.778 316.206C136.912 311.498 137.347 306.813 138.05 302.161C138.452 299.522 138.173 296.849 138.597 294.165C139.122 290.777 139.546 287.344 139.936 283.933C140.349 280.288 140.851 276.654 141.231 273.008C141.744 268.01 141.331 262.966 141.811 257.934C142.202 253.741 142.38 249.436 141.499 245.175C141.019 242.838 141.264 240.378 140.885 237.962C140.36 234.552 139.959 231.096 139.579 227.652C139.155 223.817 139.434 219.914 138.854 216.056C138.564 214.144 138.999 212.097 138.619 210.219C138.028 207.233 137.972 204.191 137.47 201.206C137.47 199.909 137.548 198.6 137.459 197.303C137.358 195.95 136.945 194.686 135.584 194.015C132.001 184.812 130.048 175.084 126.433 165.892C126.02 165.053 127.359 163.364 125.205 163.364C125.16 163.208 125.149 163.04 125.082 162.895C123.129 159.249 121.132 155.637 119.234 151.969C117.75 149.107 115.697 146.635 113.844 144.041C112.974 142.822 111.947 141.592 110.786 140.552C110.786 139.904 110.184 139.289 109.927 139.177C108.934 138.741 108.844 137.018 107.349 137.41C106.322 134.95 105.072 132.601 103.655 130.365C96.2892 118.769 85.9996 111.008 72.92 106.882C65.811 104.645 58.5347 103.986 51.2025 104.813C41.8839 105.864 33.3241 109.241 25.5344 114.497C23.3358 114.441 21.1819 114.642 18.9834 115.011C15.1666 115.638 11.3945 116.454 7.58895 117.114C6.56223 117.293 5.62478 117.964 5.4239 118.97C5.21186 120.021 5.02214 121.318 6.22742 122.034C7.77867 122.951 9.29645 123.901 10.6357 125.109C11.0709 125.512 11.3387 125.378 11.7628 125.21C13.0127 124.695 14.1734 123.946 15.5126 123.667C11.428 128.799 8.01304 134.312 5.8145 140.552C5.45738 141.559 5.49086 142.856 4.37485 143.515H4.28557Z" fill="#FDC0CA"/>
<path d="M110.686 171.427C109.503 174.524 108.889 177.801 107.471 180.82C106.846 182.162 105.954 183.437 106.021 185.025C105.105 184.913 105.039 185.763 104.76 186.255C101.132 192.729 96.3783 198.231 90.4858 202.727C89.6153 203.386 89.3586 204.136 89.6376 205.108C89.9501 206.204 90.2179 207.311 90.6309 208.363C93.4097 215.43 96.4118 222.396 99.5924 229.285C102.94 236.52 105.887 243.923 108.788 251.348C109.302 252.656 109.145 253.685 108.197 254.77C106.054 257.219 103.242 258.359 100.24 259.209C99.1348 259.522 98.0188 259.679 96.8693 259.399C94.8494 258.907 93.432 257.778 92.4388 255.91C91.4121 253.987 90.7313 251.851 89.1466 250.252C87.8632 246.383 85.9101 242.816 83.9683 239.271C81.4238 234.597 79.4819 229.687 77.5624 224.745C76.1897 221.211 74.817 217.689 73.422 214.155C72.585 212.019 72.585 212.075 70.353 212.567C67.7192 213.137 65.0854 213.775 62.3735 213.898C61.8379 213.92 61.2352 213.842 61.1683 214.636C60.4763 214.099 59.6728 214.155 58.847 214.166C42.397 214.435 28.4693 208.62 17.0748 196.755C15.4231 195.033 13.9277 193.166 12.5215 191.231C11.8631 190.325 11.1488 189.453 10.4681 188.57C9.82077 186.199 8.40344 184.197 7.39904 182.006C6.56203 180.172 6.02635 178.203 4.91034 176.504C3.42605 170.678 2.25424 164.807 2.377 158.735C2.45512 154.72 2.94617 150.762 3.82781 146.848C4.07333 145.741 4.34117 144.656 4.26305 143.516C5.37906 142.845 5.34558 141.559 5.7027 140.552C7.90124 134.312 11.3162 128.799 15.4008 123.667C16.0593 122.985 16.7623 122.336 17.3873 121.62C19.7532 118.892 22.7553 116.879 25.4337 114.497C33.2346 109.241 41.7832 105.864 51.1019 104.813C58.434 103.986 65.7216 104.645 72.8194 106.882C85.899 111.008 96.1886 118.769 103.554 130.365C104.972 132.601 106.233 134.95 107.248 137.41C107.616 138.718 107.962 140.027 108.755 141.156C109.581 143.806 110.094 146.535 110.842 149.196C111.344 150.997 111.02 152.864 111.701 154.586C111.701 157.84 111.69 161.094 111.679 164.348C111.355 166.708 110.686 169.023 110.663 171.427H110.686ZM21.8178 123.219C18.9385 125.355 16.8963 128.229 14.9098 131.137C13.1465 133.731 11.4167 136.37 10.6801 139.49C10.2114 139.646 10.0775 140.083 9.91005 140.485C7.6334 145.942 6.56203 151.668 6.29419 157.538C6.02635 163.431 6.87451 169.213 8.6378 174.815C10.814 181.704 14.2625 187.91 19.2622 193.177C21.0366 195.67 23.3803 197.605 25.7462 199.472C32.8552 205.108 40.9908 208.452 49.9189 209.805C51.4925 210.04 53.1553 210.756 54.807 209.962C55.2646 210.073 55.7333 210.275 56.1909 210.286C61.1459 210.42 66.0006 209.805 70.7436 208.318C72.4623 207.792 74.1251 207.032 75.7991 206.517C78.6896 205.634 81.301 204.449 83.6 202.525C84.2138 202.659 84.5933 202.19 85.0062 201.91C93.2535 196.42 99.4027 189.129 103.521 180.116C103.967 179.143 104.425 178.148 104.268 177.018C105.061 176.951 105.161 176.224 105.295 175.721C106.311 171.863 107.583 168.05 107.505 163.991C108.197 163.543 107.94 162.816 107.974 162.201C108.297 156.185 107.282 150.393 105.663 144.6C104.369 139.982 102.304 135.844 99.8156 131.808C98.0635 128.956 95.8314 126.574 93.5436 124.203C92.2267 122.001 90.084 120.659 88.1533 119.127C80.3971 112.954 71.4802 109.51 61.6816 108.649C52.7647 107.866 44.1045 109.208 35.9465 113.111C31.0137 115.291 26.6055 118.277 22.7107 122.012C22.3089 122.336 21.9295 122.671 21.8067 123.208L21.8178 123.219Z" fill="#92908F"/>
<path d="M4.93286 176.504C6.04887 178.203 6.58455 180.172 7.42156 182.005C8.42596 184.197 9.84329 186.21 10.4906 188.57C6.23859 185.651 5.43506 181.144 4.93286 176.504Z" fill="#F9BFC8"/>
<path d="M111.723 154.586C111.043 152.864 111.366 150.997 110.864 149.196C110.116 146.535 109.603 143.806 108.777 141.156C108.766 140.418 108.677 139.624 109.782 140.463C109.994 140.619 110.395 140.53 110.708 140.552C111.88 141.581 112.895 142.811 113.766 144.041C115.618 146.635 117.672 149.107 119.156 151.969C121.053 155.637 123.051 159.26 125.004 162.895C125.082 163.029 125.093 163.208 125.127 163.364C125.004 164.46 125.685 165.176 126.354 165.892C129.959 175.084 131.912 184.812 135.506 194.015C135.517 194.507 135.394 195.044 135.573 195.469C136.264 197.091 136.856 198.712 136.834 200.501C136.834 200.893 137.057 201.083 137.38 201.206C137.883 204.191 137.938 207.233 138.53 210.219C138.909 212.109 138.474 214.144 138.764 216.056C139.345 219.914 139.066 223.817 139.49 227.652C139.869 231.096 140.271 234.541 140.795 237.962C141.175 240.389 140.929 242.838 141.409 245.175C142.291 249.436 142.112 253.741 141.722 257.934C141.253 262.978 141.655 268.01 141.141 273.008C140.773 276.654 140.26 280.288 139.847 283.933C139.456 287.344 139.043 290.777 138.508 294.165C138.084 296.849 138.363 299.522 137.961 302.161C137.258 306.824 136.822 311.498 136.689 316.206C136.655 317.279 136.041 317.794 134.914 317.839C133.407 317.906 131.979 317.402 130.517 317.324C127.381 317.168 124.234 317.201 121.098 317.168C121.221 316.217 120.841 315.781 119.87 315.915C118.42 312.449 119.881 309.139 120.294 305.75C120.473 304.252 121.042 302.843 121.064 301.344C121.087 299.03 121.433 296.793 122.27 294.624C122.348 294.434 122.337 294.188 122.326 293.975C122.125 291.101 122.872 288.317 123.185 285.51C123.642 281.44 124 277.347 124.524 273.299C125.395 266.589 124.803 259.891 125.026 253.204C125.205 247.624 124.357 242.1 124.212 236.531C124.156 234.451 124.067 232.159 123.218 230.101C123.084 229.766 123.151 229.352 123.096 228.972C122.158 223.056 122.649 217.096 122.348 211.158C122.169 207.624 121.567 204.124 120.64 200.658C120.25 199.215 119.692 197.672 119.826 196.095C120.06 193.423 118.42 191.365 117.649 189.017C117.058 187.216 116.489 185.405 115.842 183.616C114.346 179.445 112.672 175.352 110.641 171.416C110.652 169.011 111.322 166.697 111.657 164.337C112.014 161.083 111.991 157.829 111.679 154.575L111.723 154.586Z" fill="#FEFD04"/>
<path d="M89.1578 250.263C90.7425 251.862 91.4233 253.998 92.45 255.921C93.4433 257.789 94.8718 258.918 96.8806 259.41C98.0301 259.69 99.1461 259.533 100.251 259.22C103.253 258.37 106.065 257.23 108.208 254.781C109.157 253.696 109.313 252.667 108.8 251.359C105.898 243.934 102.963 236.531 99.6036 229.296C96.4119 222.408 93.4098 215.441 90.6421 208.374C90.2292 207.323 89.9502 206.204 89.6489 205.12C89.3699 204.136 89.6265 203.397 90.497 202.738C96.3895 198.242 101.144 192.752 104.771 186.266C105.05 185.774 105.106 184.924 106.032 185.036C107.505 190.918 109.38 196.744 109.637 202.85C109.971 210.934 110.239 219.019 110.25 227.115C110.262 234.116 110.909 241.105 110.719 248.094C110.451 258.18 110.429 268.267 109.96 278.365C109.625 285.711 108.588 292.924 107.829 300.204C107.338 304.889 107.672 309.653 106.847 314.327C105.965 319.292 104.715 319.494 99.7264 319.348C95.9543 319.236 92.2157 318.476 88.4101 318.409C86.591 318.375 84.7607 318.152 82.9193 318.152C82.3837 318.152 82.2274 318.017 82.3055 317.38C82.8189 312.974 84.0911 308.747 85.0621 304.442C86.2339 299.253 87.1378 293.998 88.0083 288.731C88.756 284.213 89.1355 279.662 89.7381 275.122C89.8051 274.585 89.7716 274.037 89.7716 273.5C89.7716 268.334 89.8497 263.179 89.7605 258.012C89.7158 255.429 89.3699 252.846 89.1578 250.274V250.263Z" fill="#030202"/>
<path d="M25.4449 114.497C22.7665 116.868 19.7756 118.892 17.3985 121.62C16.7735 122.336 16.0816 122.984 15.412 123.666C14.0616 123.946 12.9121 124.695 11.6622 125.21C11.2381 125.377 10.9814 125.512 10.535 125.109C9.20698 123.901 7.67805 122.951 6.1268 122.034C4.92151 121.318 5.10007 120.021 5.32327 118.97C5.53531 117.963 6.47276 117.293 7.48832 117.114C11.2939 116.454 15.066 115.637 18.8828 115.011C21.0813 114.653 23.2352 114.452 25.4337 114.497H25.4449Z" fill="#FDFC06"/>
<path d="M137.392 201.206C137.068 201.083 136.834 200.904 136.845 200.501C136.867 198.712 136.276 197.079 135.584 195.469C135.405 195.055 135.528 194.507 135.517 194.015C136.878 194.686 137.291 195.939 137.392 197.303C137.481 198.6 137.403 199.909 137.403 201.206H137.392Z" fill="#FAC0C6"/>
<path d="M110.708 140.563C110.395 140.541 109.994 140.63 109.782 140.474C108.666 139.624 108.755 140.429 108.777 141.167C107.985 140.026 107.639 138.718 107.271 137.421C108.755 137.03 108.855 138.752 109.848 139.188C110.116 139.3 110.708 139.915 110.708 140.563Z" fill="#FDFC06"/>
<path d="M126.354 165.903C125.685 165.187 125.004 164.471 125.127 163.375C127.281 163.375 125.941 165.064 126.354 165.903Z" fill="#FAC0C6"/>
<path d="M119.904 315.926C120.875 315.792 121.254 316.228 121.132 317.179C120.082 317.391 119.737 316.91 119.904 315.926Z" fill="#FDFC06"/>
<path d="M104.28 177.029C104.447 178.159 103.978 179.154 103.532 180.127C99.4139 189.14 93.2647 196.431 85.0174 201.921C84.6045 202.19 84.2251 202.671 83.6224 202.536C85.0956 200.289 86.8254 198.131 87.5396 195.514C89.2248 189.319 88.7003 183.426 84.6492 178.159C84.6938 177.018 84.1358 176.459 82.9975 176.448C82.897 176.358 82.7966 176.269 82.7073 176.191C82.5846 176.068 82.4618 175.933 82.339 175.81L82.3725 175.844C82.3279 175.631 82.1939 175.52 81.9819 175.52L82.0265 175.564C81.0668 174.468 80.3749 172.981 78.5446 173.149C76.9934 172.277 75.4533 171.382 73.8797 170.543C67.2618 167.01 60.9452 163.085 55.6441 157.684C53.6688 155.671 51.7381 153.546 49.4615 151.947C45.2653 148.984 41.1026 145.931 36.5381 143.56C32.6321 141.525 28.5475 139.825 23.9607 141.447C23.8045 141.503 23.5813 141.346 23.3804 141.279C23.9161 140.295 24.6526 139.479 25.4003 138.662C25.5789 138.562 25.8244 138.495 25.936 138.338C27.0409 136.761 28.0788 136.963 29.4626 138.159C31.0473 139.523 32.9892 139.49 34.998 138.953C37.8327 138.204 39.7745 136.28 41.6382 134.245C45.4104 130.141 49.8632 127.48 55.5772 127.223C58.8806 127.077 61.4585 128.922 64.1593 130.309C71.1901 133.91 77.4732 138.584 83.2653 143.963C87.4838 147.888 91.68 151.824 94.9834 156.554C99.3358 162.794 101.97 169.85 104.302 177.029H104.28Z" fill="#030202"/>
<path d="M93.555 124.215C95.8317 126.596 98.0637 128.967 99.827 131.819C102.316 135.855 104.38 139.993 105.675 144.611C107.293 150.404 108.32 156.207 107.985 162.212C107.951 162.827 108.219 163.543 107.516 164.002C105.786 162.716 104.838 160.815 103.912 158.97C102.717 156.599 101.278 154.407 99.8716 152.171C98.2311 149.576 96.2892 147.206 94.5594 144.69C93.901 143.739 93.343 142.744 92.6064 141.827C90.8431 139.624 88.5553 138.148 86.2563 136.638C82.049 133.887 77.7523 131.293 73.3218 128.933C70.9224 127.648 68.2328 126.876 66.0008 125.299C64.0813 123.946 62.0055 123.029 59.8069 122.336C56.4031 121.262 52.8431 121.307 49.3388 121.117C44.9417 120.871 40.5558 121.944 36.1364 121.732C35.8351 121.721 35.5226 121.9 35.2101 121.944C31.0921 122.56 26.9517 122.358 22.8225 122.135C22.7778 122.135 22.7443 122.067 22.6997 122.034C26.5946 118.288 31.0028 115.313 35.9356 113.133C36.0918 113.133 36.2592 113.155 36.4266 113.133C40.0871 112.73 43.7364 112.126 47.4081 111.97C50.89 111.824 54.4055 112.037 57.8986 112.104C62.6304 112.193 67.2507 113.099 71.9379 113.245C72.15 113.245 72.4067 113.211 72.5852 113.3C74.6722 114.396 76.9711 114.922 79.1027 115.951C83.1538 117.908 87.0375 120.043 90.7203 122.627C91.5462 123.208 92.2604 124.338 93.5438 124.226L93.555 124.215Z" fill="#FDFC06"/>
<path d="M70.7549 208.329C66.023 209.816 61.1572 210.431 56.2021 210.297C55.7334 210.286 55.2758 210.085 54.8183 209.973C50.5886 207.591 45.946 206.003 41.9395 203.174C40.0981 201.877 38 200.915 35.9689 199.92C30.5674 197.292 24.7195 195.737 19.2846 193.188C14.2849 187.91 10.8364 181.715 8.6602 174.826C6.88575 169.224 6.03758 163.443 6.31659 157.549C6.58443 151.679 7.6558 145.953 9.93245 140.496C10.0999 140.105 10.2226 139.669 10.7025 139.501C10.7471 140.25 10.8029 140.999 10.8364 141.749C11.0261 145.741 13.2916 147.731 16.9187 147.06C17.7557 146.904 18.4922 146.345 19.3962 146.479C18.336 148.749 18.2913 151.175 18.2802 153.602C17.9119 153.065 17.5771 152.517 17.1753 152.003C15.1888 149.431 11.2605 149.286 9.66461 151.813C8.47048 153.703 7.7116 155.783 7.59999 158.053C7.42143 161.642 7.54419 165.209 8.67136 168.631C9.67577 171.673 12.2761 173.384 14.6643 175.206C14.8987 175.385 15.2781 175.419 15.5906 175.419C16.2825 175.419 16.7066 175.229 16.5392 174.345C16.1933 172.579 16.3607 170.778 16.3941 169C16.4388 166.518 17.9454 164.538 18.894 162.369C20.1886 167.468 20.2555 172.836 22.2755 177.778C23.0121 179.59 23.1571 181.771 25.5008 182.453C25.4561 182.989 25.8914 183.235 26.2262 183.437C27.889 184.387 29.4961 185.483 31.4268 185.886C32.7883 186.165 34.1163 186.59 35.2435 187.474C35.4667 187.474 35.6899 187.474 35.9019 187.474C38.5915 188.804 41.1918 190.348 43.9707 191.432C53.5907 195.167 62.4183 200.3 70.699 206.406C70.699 207.043 70.4535 207.691 70.766 208.318L70.7549 208.329Z" fill="#F9BFC8"/>
<path d="M22.7219 122.023C22.7219 122.023 22.8 122.123 22.8447 122.123C26.9739 122.358 31.1143 122.548 35.2323 121.933C35.5448 121.889 35.8573 121.71 36.1586 121.721C40.5892 121.922 44.9639 120.86 49.361 121.106C52.8541 121.296 56.4253 121.251 59.8292 122.325C62.0165 123.018 64.0923 123.946 66.023 125.288C68.2662 126.865 70.9557 127.636 73.344 128.922C77.7634 131.293 82.0712 133.876 86.2785 136.627C88.5775 138.137 90.8653 139.613 92.6286 141.816C93.3652 142.733 93.9232 143.728 94.5816 144.678C96.3226 147.194 98.2644 149.554 99.8938 152.159C101.3 154.396 102.74 156.599 103.934 158.958C104.86 160.803 105.809 162.693 107.538 163.99C107.605 168.05 106.344 171.863 105.329 175.721C105.195 176.224 105.094 176.94 104.302 177.018C101.97 169.839 99.3358 162.783 94.9834 156.543C91.68 151.802 87.4838 147.865 83.2653 143.952C77.4844 138.562 71.1901 133.887 64.1593 130.298C61.4585 128.911 58.8805 127.066 55.5772 127.211C49.8632 127.469 45.4103 130.13 41.6382 134.234C39.7745 136.269 37.8215 138.193 34.998 138.942C32.9892 139.467 31.0473 139.512 29.4626 138.148C28.0787 136.951 27.052 136.75 25.936 138.327C25.8244 138.483 25.5789 138.55 25.4003 138.651C25.1994 138.573 24.9316 138.483 24.9874 138.237C25.4561 136.224 24.7865 134.391 24.0946 132.59C23.1014 129.973 23.1906 127.636 25.4784 125.702C25.7128 125.501 25.936 125.221 26.0476 124.93C26.5387 123.689 26.0476 122.951 24.7196 122.973C23.7598 122.996 22.8 123.13 21.8291 123.208C21.9519 122.683 22.3313 122.336 22.7331 122.012L22.7219 122.023Z" fill="#FAC0C6"/>
<path d="M70.7548 208.329C70.4423 207.703 70.6878 207.054 70.6878 206.417C73.2546 205.913 75.6652 205.008 77.8749 203.588C80.3636 201.988 82.484 200.054 83.8455 197.37C86.178 193.658 86.5686 189.71 85.3522 185.539C84.1692 181.961 82.551 178.695 78.8235 177.085C78.7454 177.04 78.6561 177.029 78.5668 177.029C77.7075 176.101 76.7812 175.24 75.5982 174.726C75.1965 174.111 74.5269 173.82 73.9354 173.462C68.7571 170.353 63.2329 167.804 58.4787 163.991C56.3694 162.045 54.2602 160.099 52.1509 158.153C51.4032 157.393 50.7113 156.554 49.8966 155.861C45.0866 151.813 39.953 148.257 34.3283 145.383C31.0361 143.694 28.034 143.012 25.4784 143.706C25.7016 143.795 25.9024 143.884 26.1033 143.94C26.4158 144.03 26.7283 144.108 27.0408 144.175C31.7838 145.17 35.5559 147.832 38.8258 151.254C41.2587 153.803 43.0108 156.878 44.975 159.764C45.7674 161.396 46.5486 163.029 47.3409 164.65C46.8945 165.735 46.3588 165.209 45.9124 164.695C43.2005 161.53 40.3659 158.455 37.8437 155.145C35.9577 152.674 33.6587 150.695 31.1477 149.062C29.4737 147.966 27.688 146.725 25.4226 146.736C23.4137 146.736 23.3356 146.702 23.8825 148.648C25.5342 154.474 26.5609 160.446 28.1791 166.294C29.3844 170.655 30.1879 175.162 31.3597 179.556C31.9066 181.603 32.4422 183.683 33.96 185.271C34.585 185.93 34.9421 186.68 35.2323 187.496C34.1051 186.613 32.777 186.188 31.4155 185.908C29.4737 185.506 27.8778 184.41 26.2149 183.459C25.8801 183.269 25.4449 183.012 25.4895 182.475C25.4002 180.854 25.456 179.21 25.1882 177.622C24.0387 170.823 22.8111 164.024 21.5946 157.236C20.9474 153.602 20.2666 149.968 19.6082 146.322C19.8314 145.618 20.1327 144.924 20.2666 144.198C20.5902 142.42 22.4093 142.308 23.3914 141.279C23.5811 141.335 23.8155 141.503 23.9717 141.447C28.5474 139.825 32.632 141.525 36.5491 143.56C41.1136 145.931 45.2875 148.984 49.4725 151.947C51.7492 153.557 53.6799 155.682 55.6552 157.684C60.9562 163.085 67.284 167.01 73.8908 170.543C75.4643 171.382 77.0044 172.277 78.5557 173.149C79.6717 174.021 80.7654 174.927 82.0376 175.564L81.993 175.52C82.1269 175.631 82.2496 175.732 82.3836 175.844L82.3501 175.81C82.4728 175.933 82.5956 176.068 82.7184 176.191C82.8188 176.28 82.9192 176.369 83.0085 176.448C83.5554 177.018 84.1134 177.588 84.6602 178.159C88.7002 183.426 89.2358 189.319 87.5507 195.514C86.8364 198.142 85.1066 200.289 83.6335 202.536C81.3345 204.46 78.7231 205.645 75.8326 206.529C74.1586 207.043 72.4957 207.803 70.7771 208.329H70.7548Z" fill="#F67985"/>
<path d="M23.3692 141.279C22.3871 142.308 20.568 142.42 20.2444 144.198C20.1104 144.924 19.8091 145.618 19.5859 146.322C19.5524 146.423 19.4855 146.468 19.3739 146.479C18.4699 146.345 17.7333 146.904 16.8963 147.06C13.2693 147.731 11.0038 145.752 10.8141 141.749C10.7806 140.999 10.7248 140.25 10.6802 139.501C11.4167 136.37 13.1466 133.731 14.9098 131.148C16.8852 128.24 18.9386 125.366 21.8179 123.23C22.7777 123.152 23.7375 123.007 24.7084 122.996C26.0364 122.973 26.5163 123.7 26.0364 124.953C25.9248 125.243 25.7016 125.523 25.4673 125.724C23.1795 127.659 23.0902 129.996 24.0834 132.613C24.7753 134.424 25.445 136.258 24.9762 138.26C24.9204 138.506 25.1883 138.595 25.3892 138.673C24.6414 139.49 23.9049 140.306 23.3692 141.29V141.279Z" fill="#FDFCFC"/>
<path d="M93.5548 124.214C92.2714 124.326 91.5572 123.197 90.7313 122.615C87.0485 120.032 83.1648 117.908 79.1137 115.939C76.971 114.899 74.6832 114.374 72.5962 113.289C72.4177 113.2 72.1721 113.244 71.9489 113.233C67.2505 113.088 62.6303 112.171 57.9096 112.093C54.4165 112.026 50.9122 111.813 47.4191 111.959C43.7474 112.115 40.0981 112.719 36.4376 113.121C36.2813 113.144 36.1139 113.121 35.9465 113.121C44.1045 109.219 52.7648 107.877 61.6817 108.66C71.4802 109.521 80.3971 112.965 88.1534 119.138C90.084 120.681 92.2268 122.012 93.5437 124.214H93.5548Z" fill="#FAC0C6"/>
<path d="M19.2734 193.177C24.7083 195.726 30.5562 197.281 35.9577 199.909C38 200.904 40.0869 201.866 41.9283 203.163C45.9459 205.992 50.5774 207.58 54.807 209.962C53.1553 210.756 51.4925 210.04 49.9189 209.805C40.9909 208.452 32.8663 205.108 25.7462 199.472C23.3803 197.594 21.0367 195.67 19.2622 193.177H19.2734Z" fill="#0B0808"/>
<path d="M111.723 154.586C112.036 157.84 112.069 161.094 111.701 164.348C111.701 161.094 111.712 157.84 111.723 154.586Z" fill="#FAC0C6"/>
<path d="M82.0154 175.553C80.7431 174.916 79.6495 174.01 78.5334 173.138C80.3637 172.97 81.0556 174.446 82.0154 175.553Z" fill="#0B0808"/>
<path d="M84.6492 178.147C84.1024 177.577 83.5444 177.007 82.9976 176.437C84.1359 176.437 84.6939 176.996 84.6492 178.147Z" fill="#0B0808"/>
<path d="M82.3725 175.833C82.2386 175.721 82.1159 175.62 81.9819 175.508C82.194 175.508 82.3279 175.62 82.3725 175.833Z" fill="#0B0808"/>
<path d="M35.2212 187.496C34.9422 186.669 34.5739 185.931 33.9489 185.271C32.4311 183.683 31.8955 181.603 31.3486 179.557C30.1768 175.162 29.3733 170.655 28.168 166.294C26.5498 160.446 25.5342 154.474 23.8714 148.648C23.3245 146.714 23.4027 146.747 25.4115 146.736C27.677 146.736 29.4626 147.977 31.1366 149.062C33.6476 150.695 35.9466 152.674 37.8326 155.145C40.3548 158.455 43.1895 161.53 45.9014 164.695C46.3478 165.221 46.8834 165.735 47.3298 164.65C47.553 164.527 47.5642 164.147 48.0553 164.46C49.7627 165.545 51.2917 166.563 52.5304 168.396C54.3272 171.047 57.1396 172.97 58.9363 175.732C59.6394 176.817 59.0479 178.293 57.7199 178.326C56.5704 178.36 55.4209 178.561 54.2937 177.823C53.5572 177.342 52.5639 176.716 51.5595 177.656C51.3363 177.857 50.8453 177.678 50.4881 177.488C49.2829 176.85 48.2003 175.989 47.062 175.296C42.6538 172.601 39.3839 168.642 35.4778 165.4C34.9645 164.975 34.5181 164.438 33.7927 164.785C33.1119 165.109 33.3351 165.791 33.2682 166.372C32.7994 170.376 35.2546 173.842 35.3328 177.756C35.3328 178.282 35.9131 178.651 36.5157 178.684C36.5157 179.232 36.5157 179.769 36.5157 180.317C35.7122 180.474 35.8127 180.943 36.0805 181.513C36.6162 182.632 37.3862 183.549 38.2902 184.399C38.7143 184.801 39.0714 185.427 38.4576 185.942C37.9777 186.344 37.5425 187.183 36.7055 186.669C35.2435 185.763 35.8573 186.903 35.8685 187.474C35.6452 187.474 35.422 187.474 35.21 187.474L35.2212 187.496Z" fill="#CF0203"/>
<path d="M35.8796 187.485C35.8572 186.915 35.2546 185.774 36.7166 186.68C37.5536 187.205 37.9776 186.355 38.4687 185.953C39.0825 185.438 38.7365 184.812 38.3013 184.41C37.3973 183.56 36.6384 182.643 36.0916 181.525C35.8237 180.954 35.7233 180.485 36.5268 180.328C36.8505 180.35 37.4196 180.306 37.4531 180.418C38.1227 182.576 39.9195 183.515 41.6939 184.499C41.7721 184.544 41.7832 184.712 41.8613 184.768C42.1627 184.991 42.4975 185.394 42.7765 185.371C44.3724 185.237 45.6558 186.165 47.0619 186.613C49.4056 187.351 51.7938 188.178 53.758 189.71C54.5727 190.348 55.1976 190.884 56.2578 190.784C56.894 190.717 57.5524 190.717 56.9386 191.734C56.4922 192.483 57.1506 192.707 57.7198 192.696C58.4117 192.696 58.9474 192.953 59.5166 193.3C62.0164 194.809 64.5721 196.218 67.0385 197.784C68.1656 198.5 69.3486 199.17 70.1968 200.278C71.5806 202.067 72.3507 202.223 74.2479 201.206C75.0626 201.362 75.5648 200.948 75.9554 200.289C76.279 199.73 76.7701 199.316 77.2165 198.857C78.3994 197.627 79.4931 196.241 80.0734 194.619C81.3345 191.074 81.1225 187.474 80.0734 183.929C79.4373 181.782 78.7119 179.59 76.0781 179.064C75.509 178.953 74.9956 178.874 74.9398 178.181C74.8617 177.197 75.7433 177.555 76.3013 177.264C75.5648 176.56 75.4755 175.676 75.5871 174.748C76.7701 175.262 77.6963 176.123 78.5557 177.052C77.5513 178.427 78.8681 178.472 79.5601 179.009C79.8949 178.024 78.8012 177.812 78.8123 177.108C82.5398 178.729 84.1469 181.983 85.341 185.561C84.5486 185.673 84.6714 186.288 84.6714 186.814C84.6714 188.547 84.6825 190.28 84.6602 192.014C84.6602 192.506 84.8834 193.11 84.2027 193.479C83.7228 192.707 84.3589 191.701 83.6 190.761C83.2094 192.316 83.388 193.658 83.3991 194.966C83.3991 195.782 82.9974 196.722 83.8455 197.392C82.484 200.076 80.3636 202.011 77.8749 203.61C75.654 205.03 73.2546 205.936 70.6878 206.439C62.407 200.333 53.5794 195.201 43.9594 191.466C41.1806 190.381 38.5691 188.838 35.8907 187.507L35.8796 187.485Z" fill="#DC0305"/>
<path d="M18.8606 162.38C17.912 164.55 16.4054 166.518 16.3607 169.011C16.3273 170.789 16.1599 172.59 16.5058 174.357C16.6732 175.24 16.238 175.43 15.5572 175.43C15.2447 175.43 14.8541 175.397 14.6309 175.218C12.2427 173.384 9.64237 171.684 8.63797 168.642C7.5108 165.209 7.38804 161.642 7.5666 158.064C7.6782 155.783 8.43709 153.703 9.63121 151.824C11.2271 149.308 15.1555 149.442 17.1419 152.014C17.5325 152.528 17.8785 153.076 18.2468 153.613C19.1954 156.487 18.8941 159.45 18.8606 162.391V162.38Z" fill="#FDFCFC"/>
<path d="M18.8606 162.38C18.8941 159.439 19.1954 156.476 18.2468 153.602C18.258 151.175 18.3138 148.749 19.3628 146.479C19.4633 146.479 19.5414 146.423 19.5749 146.322C20.2445 149.957 20.9141 153.591 21.5614 157.236C22.7778 164.024 24.0166 170.823 25.1549 177.622C25.4228 179.21 25.367 180.854 25.4562 182.475C23.1126 181.793 22.9675 179.612 22.231 177.801C20.211 172.858 20.144 167.491 18.8495 162.391L18.8606 162.38Z" fill="#0B0808"/>
<path d="M75.5984 174.714C75.4868 175.642 75.576 176.526 76.3126 177.23C75.7546 177.532 74.873 177.163 74.9511 178.147C75.0069 178.841 75.5202 178.919 76.0894 179.031C78.7232 179.556 79.4486 181.759 80.0847 183.895C81.1449 187.44 81.3458 191.052 80.0847 194.586C79.5044 196.207 78.4107 197.594 77.2277 198.824C76.7813 199.282 76.2903 199.696 75.9667 200.255C75.576 200.915 75.0738 201.317 74.2592 201.172C74.5158 199.685 75.3305 198.511 76.2457 197.37C77.0827 196.33 77.9643 195.491 78.3214 193.926C78.9018 191.365 79.7164 189.017 78.8906 186.311C78.4665 184.935 78.2768 183.66 76.9822 182.766C75.9778 182.061 75.0962 181.122 76.4019 179.881C75.922 179.601 75.5426 179.646 75.1743 179.735C74.5158 179.892 73.8797 180.675 73.2213 180.149C72.3843 179.489 73.6788 178.975 73.5449 178.304C73.5114 178.17 73.4222 178.036 73.3106 177.823C72.7637 178.17 72.4177 178.919 71.6477 178.628C69.65 177.868 67.4069 177.711 65.744 176.168C64.628 175.128 63.0768 174.748 62.0277 173.596C61.6929 173.227 61.1126 172.97 60.5546 173.372C60.0747 173.73 59.9185 174.2 59.9185 174.793C59.9185 175.318 60.2533 175.698 60.3649 176.146C60.655 177.331 60.9452 178.595 60.164 179.713C59.5055 180.652 58.4342 180.507 57.6306 180.205C54.9522 179.199 52.0618 178.874 49.3499 178.572C46.1469 178.226 44.5845 175.542 41.8503 174.86C41.5713 173.305 39.9085 173.104 39.0938 172.042C38.4688 171.225 37.5648 171.427 36.7055 171.729C35.8685 172.031 35.9466 172.735 35.8015 173.451C35.4444 175.296 36.6386 176.895 36.4823 178.684C35.8685 178.651 35.2993 178.282 35.2993 177.756C35.2212 173.842 32.7548 170.376 33.2347 166.372C33.3017 165.802 33.0896 165.109 33.7593 164.784C34.4847 164.438 34.9311 164.974 35.4444 165.399C39.3505 168.642 42.6204 172.59 47.0286 175.296C48.1669 175.989 49.2494 176.85 50.4547 177.488C50.8118 177.678 51.3029 177.857 51.5261 177.655C52.5305 176.716 53.5349 177.342 54.2603 177.823C55.3986 178.561 56.5481 178.36 57.6864 178.326C59.0145 178.282 59.606 176.817 58.9029 175.732C57.1061 172.959 54.2938 171.047 52.497 168.396C51.2582 166.562 49.7293 165.545 48.0218 164.46C47.5308 164.147 47.5085 164.527 47.2964 164.65C46.5152 163.018 45.7229 161.385 44.9416 159.763C44.9305 159.126 44.897 158.545 44.5064 157.93C44.1381 157.359 43.8703 156.711 43.3681 156.207C42.8436 155.671 42.7431 154.888 43.2342 154.463C43.9372 153.859 44.0042 154.798 44.406 155.123C45.3323 155.883 46.0911 156.688 46.6268 157.773C46.8947 158.321 47.4973 158.243 47.9995 157.918C48.0107 157.426 47.6201 157.225 47.3745 157.001C46.917 156.576 46.6715 156.006 47.0063 155.57C47.4861 154.955 47.9437 155.637 48.3566 155.883C48.8254 156.151 49.2494 156.487 49.6958 156.8C50.4659 157.326 50.9123 158.41 52.1064 158.142C52.3073 159.763 53.6688 160.58 54.4724 161.776C55.5326 163.342 57.0057 163.465 58.4342 163.99C63.1884 167.792 68.7014 170.353 73.8909 173.462C74.4824 173.82 75.152 174.11 75.5537 174.726L75.5984 174.714Z" fill="#E40103"/>
<path d="M52.1621 158.153C50.9569 158.422 50.5105 157.326 49.7516 156.811C49.3052 156.51 48.8811 156.174 48.4124 155.895C47.9883 155.649 47.5419 154.966 47.062 155.581C46.7272 156.018 46.9616 156.588 47.4303 157.013C47.6758 157.248 48.0664 157.449 48.0552 157.93C47.553 158.265 46.9504 158.343 46.6826 157.784C46.1469 156.7 45.388 155.895 44.4617 155.134C44.0711 154.81 44.0041 153.87 43.2899 154.474C42.7988 154.888 42.8881 155.682 43.4238 156.219C43.926 156.722 44.1939 157.359 44.5621 157.941C44.9527 158.556 44.9862 159.126 44.9974 159.775C43.022 156.879 41.2699 153.803 38.8482 151.265C35.5783 147.843 31.8062 145.182 27.0631 144.187C26.7507 144.119 26.4382 144.041 26.1257 143.952C25.9248 143.896 25.7351 143.806 25.5007 143.717C28.0564 143.024 31.0473 143.717 34.3507 145.394C39.9642 148.257 45.109 151.813 49.919 155.872C50.7337 156.565 51.4256 157.404 52.1733 158.176L52.1621 158.153Z" fill="#CF0203"/>
<path d="M83.8568 197.359C83.0086 196.688 83.4215 195.737 83.4104 194.932C83.3992 193.624 83.2095 192.282 83.6113 190.728C84.3701 191.667 83.734 192.685 84.2139 193.445C84.8947 193.087 84.6603 192.472 84.6715 191.98C84.6938 190.247 84.6715 188.514 84.6826 186.78C84.6826 186.255 84.5599 185.64 85.3522 185.528C86.5687 189.688 86.1781 193.646 83.8456 197.359H83.8568Z" fill="#E40103"/>
<path d="M58.4899 163.979C57.0614 163.465 55.5883 163.331 54.528 161.765C53.7245 160.58 52.3518 159.752 52.1621 158.131C54.2714 160.077 56.3806 162.022 58.4899 163.968V163.979Z" fill="#CF0203"/>
<path d="M78.8235 177.074C78.8124 177.778 79.8949 177.991 79.5713 178.975C78.8793 178.438 77.5625 178.394 78.5669 177.018C78.6561 177.018 78.7454 177.029 78.8235 177.074Z" fill="#E40103"/>
<path d="M36.5268 178.695C36.6942 176.906 35.4889 175.307 35.8461 173.462C35.98 172.758 35.9019 172.053 36.75 171.74C37.6093 171.427 38.5133 171.237 39.1383 172.053C39.9418 173.115 41.6047 173.317 41.8948 174.871C44.629 175.553 46.1914 178.226 49.3944 178.584C52.0951 178.874 54.9967 179.21 57.6752 180.216C58.4675 180.518 59.5501 180.664 60.2085 179.724C60.9897 178.606 60.7107 177.342 60.4094 176.157C60.2978 175.71 59.963 175.318 59.963 174.804C59.963 174.211 60.1192 173.742 60.5991 173.384C61.1683 172.97 61.7486 173.238 62.0722 173.607C63.1213 174.759 64.6725 175.139 65.7885 176.179C67.4402 177.723 69.6946 177.89 71.6922 178.639C72.4623 178.93 72.8082 178.181 73.3551 177.834C73.4555 178.047 73.5559 178.17 73.5894 178.315C73.7233 178.986 72.4288 179.501 73.2658 180.16C73.9242 180.686 74.5603 179.903 75.2188 179.747C75.5871 179.657 75.9665 179.612 76.4464 179.892C75.1407 181.144 76.0223 182.084 77.0267 182.777C78.3101 183.683 78.511 184.946 78.9351 186.322C79.7609 189.028 78.9351 191.376 78.3659 193.937C78.0088 195.503 77.1383 196.341 76.2902 197.381C75.3639 198.522 74.5603 199.696 74.3037 201.183C72.4065 202.201 71.6253 202.044 70.2526 200.255C69.4044 199.159 68.2103 198.477 67.0943 197.761C64.6279 196.196 62.0722 194.798 59.5724 193.277C59.0032 192.931 58.4675 192.662 57.7756 192.673C57.2064 192.673 56.548 192.461 56.9944 191.712C57.597 190.694 56.9498 190.705 56.3136 190.761C55.2534 190.862 54.6173 190.325 53.8138 189.688C51.8608 188.156 49.4613 187.328 47.1177 186.59C45.7227 186.143 44.4282 185.215 42.8323 185.349C42.5421 185.371 42.2073 184.969 41.9171 184.745C41.839 184.689 41.8279 184.521 41.7497 184.477C39.9753 183.493 38.1785 182.553 37.5089 180.395C37.4754 180.283 36.9063 180.328 36.5826 180.306C36.5826 179.758 36.5826 179.221 36.5826 178.673L36.5268 178.695Z" fill="#F80002"/>
</g>
<defs>
<clipPath id="clip0_2454_76">
<rect width="233" height="324" fill="white"/>
</clipPath>
</defs>
</svg>
