<svg width="138" height="98" viewBox="0 0 138 98" fill="none" xmlns="http://www.w3.org/2000/svg">
<g clip-path="url(#clip0_2639_97)">
<path d="M138 82.7724C137.291 84.602 137.469 86.5596 137.218 88.4519C136.889 90.9214 136.717 93.4126 136.433 95.8875C136.266 97.3578 135.587 97.9432 134.136 97.9922C133.867 98.0003 133.597 97.9922 133.327 97.9922C91.3268 97.9922 49.329 97.9922 7.32858 97.9922C4.90999 97.9922 4.60261 97.7716 3.97167 95.4165C2.72058 90.7471 1.25379 86.1349 0.253453 81.3974C0.231883 81.2967 0.086282 81.2232 0 81.1388C0 79.0532 0 76.9649 0 74.8794C0.887087 71.6884 1.98718 68.5764 3.27063 65.5243C4.80753 61.8677 6.23118 58.1512 8.74145 55.0147C9.88199 53.588 10.4563 53.4682 12.093 54.236C12.9774 55.3823 12.8749 56.4496 11.9366 57.5359C11.0198 58.5978 10.3053 59.8039 9.6555 61.0536C7.81661 64.5931 6.49272 68.3504 5.08525 72.0668C4.06065 74.7732 3.75057 77.6075 4.26017 80.4908C5.02593 84.8226 6.49811 88.9719 7.54428 93.2302C7.68449 93.7965 7.99187 93.9272 8.50687 93.9163C10.2568 93.8836 12.0094 93.8782 13.7593 93.8619C14.2959 93.8782 14.8351 93.9054 15.3717 93.9081C33.9574 93.9081 52.5457 93.9136 71.1314 93.9081C72.9191 93.9081 75.095 94.4717 76.3892 93.6495C77.856 92.7183 78.6083 90.562 79.5412 88.863C83.1112 82.3531 82.1863 74.0244 77.2898 68.462C75.2918 66.194 73.2373 63.9723 71.1638 61.7724C66.5935 56.9151 60.872 53.6398 55.3041 50.1765C53.4706 49.0357 51.3216 48.5184 49.1403 48.434C42.4588 48.1726 35.7747 47.9467 29.0905 47.7316C28.4731 47.7125 27.8502 47.8786 27.2301 47.9603C23.7896 48.0528 20.8695 49.5013 18.1624 51.5079C16.763 52.5453 16.1941 52.5316 14.8513 51.448C14.1664 50.1411 14.5304 49.1474 15.6629 48.2734C20.1334 44.8265 25.1836 43.3263 30.7676 43.6911C31.8515 43.7619 32.3045 43.4842 32.6604 42.4087C34.1946 37.7829 35.8717 33.2034 37.4518 28.5912C38.5788 25.3049 40.4312 22.5468 43.0197 20.2516C46.6947 16.9898 50.4211 13.7798 53.9505 10.3601C57.3802 7.03573 61.2845 4.83581 65.9275 3.75763C70.2848 2.74479 74.4829 1.07035 78.8968 0.269881C82.7849 -0.438014 86.5139 0.280772 89.9328 2.23293C92.6534 3.78758 95.4441 4.92838 98.5556 5.46475C103.088 6.24615 106.704 8.72651 109.354 12.4947C114.316 19.5437 119.164 26.6744 124.098 33.7425C126.347 36.9634 126.934 40.7316 127.73 44.4344C129.024 50.4461 130.286 56.4659 131.575 62.4776C131.976 64.3508 132.71 66.0933 133.775 67.6861C135.67 70.5204 137.223 73.5044 137.79 76.9295C137.798 76.984 137.924 77.0167 137.997 77.0602V82.7751L138 82.7724ZM62.2444 49.5884L62.4763 49.7273C62.4493 49.6293 62.4223 49.534 62.3954 49.436L62.2093 49.1582C61.4517 47.8595 60.4001 46.795 59.4726 45.6324C58.661 44.6141 58.545 43.4869 59.1517 42.3298C59.753 41.1835 60.7371 40.5464 62.0125 40.6717C67.8419 41.2462 72.9622 43.3453 76.9339 47.8759C77.9046 48.984 78.6272 50.2745 79.5143 51.4834C84.3622 44.4889 88.5361 41.8261 96.2071 40.7833C98.0703 40.5301 99.1947 40.9984 99.8849 42.3134C100.578 43.6367 100.349 44.7747 99.0518 46.245C97.6739 47.8078 96.4579 49.4904 95.4036 51.2874C93.8748 53.8984 92.6453 56.6347 91.8984 59.7467C92.2139 59.5807 92.3784 59.5126 92.5213 59.4146C97.1401 56.2699 102.306 55.3033 107.769 55.4694C109.184 55.513 110.204 56.1038 110.711 57.4243C111.218 58.7448 110.87 59.9101 109.85 60.8794C106.618 63.9587 104.059 67.5554 101.937 71.476C101.26 72.7257 100.365 73.2975 98.9628 72.8101C97.6766 71.6285 97.558 71.0295 98.3831 69.5075C100.071 66.3982 102.026 63.4768 104.32 60.7895C104.595 60.4682 105.04 60.2368 105.021 59.6269C104.79 59.6269 104.574 59.6106 104.363 59.6269C99.9011 59.9972 95.862 61.3694 92.613 64.6476C91.3457 65.9272 90.189 66.1505 88.857 65.478C87.5493 64.8191 87.0424 63.6783 87.285 61.9439C87.6517 59.3302 88.4148 56.8253 89.3693 54.3776C90.6366 51.1213 92.4053 48.1454 94.5381 45.292C89.5203 45.9292 84.8449 49.583 82.6474 54.5845C82.0218 56.0058 81.2372 57.1466 79.5466 57.1602C77.8614 57.1738 76.9878 56.1092 76.4189 54.639C75.9255 53.3675 75.2056 52.2131 74.367 51.1458C71.8567 47.9576 68.5861 46.0653 64.4014 45.1859C66.7445 48.2598 68.4971 51.35 69.8156 54.6934C69.9262 54.9739 70.15 55.2244 70.3657 55.4449C73.3154 58.4916 76.2868 61.5165 79.2285 64.5713C86.4627 72.0832 87.7866 82.138 82.7687 91.308C82.3211 92.1248 81.8708 92.9389 81.3343 93.9081C84.0333 93.9081 86.5382 93.8346 89.035 93.9408C90.1297 93.9871 90.3858 93.5025 90.5368 92.5958C91.3565 87.6242 92.7343 82.8051 94.4977 78.0948C95.1286 76.4095 95.6301 76.1127 97.4501 76.3061C98.6338 77.1229 98.8414 78.1656 98.3184 79.497C96.6952 83.6301 95.5627 87.9101 94.6864 92.2636C94.4653 93.3563 94.8922 93.9036 95.9672 93.9054C107.685 93.9054 119.401 93.9054 131.119 93.9054C131.389 93.9054 131.661 93.8836 131.928 93.9081C132.459 93.9599 132.607 93.6985 132.653 93.2002C133.074 88.7813 133.597 84.3706 133.931 79.9463C134.193 76.4857 132.758 73.4854 130.895 70.7082C129.315 68.3531 128.14 65.851 127.554 63.0602C126.279 56.9968 125.001 50.9334 123.685 44.8782C123.033 41.8833 122.647 38.793 120.833 36.1793C115.866 29.0186 110.94 21.828 105.927 14.7001C103.897 11.8113 101.052 9.95988 97.593 9.4099C94.2011 8.86809 91.1435 7.632 88.2018 5.91399C85.2574 4.19598 82.0434 3.61877 78.7243 4.44374C75.5507 5.23332 72.4284 6.24343 69.2845 7.15553C68.0765 7.46864 66.8766 7.81714 65.6606 8.08941C62.6057 8.77552 60.0361 10.3002 57.7362 12.4294C53.5407 16.3119 49.2589 20.1019 45.0311 23.949C43.7558 25.1116 42.6476 26.462 42.049 28.0875C40.2182 33.0373 38.4845 38.0252 36.7076 42.9968C36.4703 43.6584 36.6968 43.8654 37.3709 43.8763C39.1154 43.898 40.8599 43.9797 42.6071 44.0369C45.4275 44.2057 48.2613 44.0859 51.0682 44.5106C55.1315 45.1232 58.5639 47.1353 61.8993 49.3842C62.0152 49.4496 62.1311 49.5149 62.2498 49.5803L62.2444 49.5884Z" fill="#030303"/>
<path d="M14.8513 51.4448C16.1941 52.5284 16.763 52.542 18.1624 51.5047C20.8695 49.4953 23.7869 48.0469 27.2301 47.957C27.1411 48.1558 27.106 48.4607 26.9577 48.537C25.2483 49.4109 23.9675 50.8322 22.5627 52.0764C19.9284 54.4125 17.4155 56.8847 15.946 60.1873C14.5709 63.2802 13.3306 66.4358 11.9339 69.5179C10.2756 73.1745 9.75796 77.0379 10.3673 80.9177C11.0576 85.323 12.5459 89.5677 13.7566 93.8613C12.0067 93.8777 10.2541 93.8831 8.50417 93.9158C7.98918 93.9267 7.6791 93.7933 7.54159 93.2297C6.49272 88.9714 5.02323 84.8221 4.25748 80.4903C3.74787 77.6097 4.05795 74.7754 5.08255 72.0663C6.49003 68.3472 7.81391 64.5899 9.6528 61.0531C10.3026 59.8034 11.0171 58.5973 11.9339 57.5354C12.8722 56.4491 12.9747 55.3818 12.0903 54.2355C13.0852 53.3806 14.099 52.5447 14.8513 51.4448Z" fill="#A09CAC"/>
<path d="M69.2817 7.16088C72.4257 6.24879 75.548 5.23867 78.7215 4.4491C82.0407 3.62413 85.2547 4.20133 88.1991 5.91934C91.1408 7.63735 94.1984 8.87345 97.5903 9.41526C101.05 9.96796 103.894 11.8167 105.925 14.7054C110.934 21.8334 115.861 29.024 120.83 36.1846C122.644 38.7984 123.03 41.8886 123.683 44.8836C125.001 50.9388 126.279 57.0022 127.552 63.0656C128.137 65.8563 129.312 68.3585 130.893 70.7136C132.756 73.4907 134.19 76.4911 133.929 79.9516C133.594 84.376 133.071 88.7867 132.65 93.2056C132.602 93.7039 132.456 93.9652 131.925 93.9135C131.658 93.889 131.386 93.9108 131.116 93.9108C119.398 93.9108 107.683 93.9108 95.9645 93.9108C94.8931 93.9108 94.4662 93.3635 94.6837 92.269C95.5627 87.9182 96.6952 83.6354 98.3156 79.5024C98.8387 78.171 98.6311 77.1282 97.4474 76.3114C97.7467 75.0535 98.4801 73.9862 98.9628 72.8101C100.365 73.2974 101.263 72.7256 101.937 71.4759C104.056 67.5526 106.618 63.9586 109.85 60.8793C110.87 59.9073 111.217 58.742 110.711 57.4242C110.204 56.1037 109.184 55.5129 107.769 55.4693C102.306 55.3032 97.1401 56.2698 92.5213 59.4145C92.3784 59.5125 92.2139 59.5806 91.8984 59.7466C92.6453 56.6346 93.8748 53.8983 95.4036 51.2873C96.4579 49.4876 97.6739 47.8077 99.0517 46.2449C100.349 44.7747 100.578 43.6339 99.8849 42.3134C99.1973 40.9983 98.0703 40.53 96.2071 40.7832C88.5361 41.8287 84.3622 44.4915 79.5143 51.4833C78.6272 50.2745 77.9046 48.9839 76.9339 47.8758C72.9622 43.3452 67.8419 41.2488 62.0125 40.6716C60.7371 40.5463 59.753 41.1834 59.1517 42.3297C58.545 43.4868 58.661 44.6113 59.4726 45.6323C60.4001 46.7949 61.4517 47.8594 62.2093 49.1582C62.1042 49.2371 61.999 49.3134 61.8939 49.3923C58.5585 47.1434 55.1261 45.1313 51.0628 44.5187C48.2532 44.094 45.4194 44.2138 42.6017 44.045C42.5101 43.4433 42.6664 42.8824 42.8633 42.3215C44.4002 37.938 45.9263 33.5491 47.4713 29.1683C48.353 26.6661 49.631 24.4145 51.6155 22.6093C54.6704 19.8295 57.6876 17.0088 60.7533 14.2371C62.6812 12.4919 64.6899 10.8365 66.6151 9.08854C67.4402 8.3398 68.6724 8.19278 69.2817 7.16088ZM78.5813 33.5463C81.3909 33.5654 83.3862 32.7785 85.0228 31.1232C86.0609 30.0722 86.1445 28.896 85.279 28.0084C84.4566 27.1644 83.3268 27.2107 82.2861 28.1309C80.2018 29.9715 78.1068 29.9742 76.0144 28.1418C74.9548 27.2134 73.8439 27.1617 73.0215 27.9975C72.183 28.847 72.2666 30.1185 73.2669 31.1259C74.8685 32.7377 76.8179 33.53 78.5813 33.5463ZM62.061 28.0438C62.061 28.0438 62.0583 28.0438 62.0556 28.0438C62.0556 27.3196 62.1257 26.5872 62.0394 25.8738C61.9154 24.8447 61.2548 24.2511 60.2356 24.1858C59.1598 24.1177 58.3482 24.6323 58.1622 25.7132C57.9087 27.1862 57.8952 28.7 58.1729 30.1729C58.3752 31.2538 59.1894 31.7439 60.2707 31.6595C61.3034 31.5806 61.9235 30.9707 62.0502 29.9442C62.1284 29.3207 62.0637 28.6782 62.0637 28.0465L62.061 28.0438ZM96.2125 27.8532C96.2125 28.4876 96.1721 29.1247 96.2206 29.7536C96.3096 30.9081 96.9486 31.586 98.1053 31.6568C99.2782 31.7276 100.055 31.0687 100.176 29.9633C100.322 28.621 100.322 27.2406 100.179 25.8983C100.06 24.7902 99.2863 24.1313 98.1134 24.1967C96.9567 24.2593 96.315 24.9345 96.2179 26.0889C96.1694 26.6743 96.2098 27.2651 96.2098 27.8532H96.2125Z" fill="#A09CAD"/>
<path d="M13.7593 93.8616C12.5459 89.5679 11.0603 85.3233 10.37 80.918C9.76064 77.0382 10.2783 73.1747 11.9366 69.5181C13.3333 66.4361 14.5709 63.2805 15.9487 60.1875C17.4182 56.8876 19.9284 54.4127 22.5654 52.0767C23.9702 50.8297 25.2483 49.4085 26.9604 48.5372C27.1087 48.461 27.1438 48.156 27.2327 47.9573C27.8529 47.8756 28.4757 47.7095 29.0932 47.7286C35.7774 47.9437 42.4615 48.1696 49.143 48.431C51.3243 48.5154 53.4733 49.0327 55.3068 50.1735C60.8746 53.6368 66.5962 56.9121 71.1665 61.7694C73.2372 63.972 75.2918 66.191 77.2925 68.459C82.189 74.0187 83.1138 82.3501 79.5439 88.86C78.6137 90.559 77.8587 92.7153 76.3919 93.6465C75.0977 94.4687 72.9218 93.9051 71.1341 93.9051C52.5484 93.9133 33.96 93.9106 15.3744 93.9051C14.8378 93.9051 14.2985 93.8752 13.762 93.8589L13.7593 93.8616ZM43.0116 77.7243C45.1524 77.6971 47.1585 76.9456 48.7844 75.2848C49.8036 74.2447 49.8845 73.0576 49.027 72.1782C48.2074 71.3369 47.0857 71.3777 46.0449 72.2871C43.9876 74.0922 41.8279 74.1031 39.7895 72.3252C38.684 71.3614 37.5273 71.3233 36.7076 72.2272C35.8663 73.1556 35.9769 74.2692 37.0473 75.3338C38.657 76.9293 40.6119 77.6971 43.0089 77.7243H43.0116ZM63.9377 72.0421C63.9377 72.0421 63.9404 72.0421 63.943 72.0421C63.943 71.4104 63.9943 70.776 63.9323 70.1498C63.8217 69.0634 63.1827 68.4236 62.1069 68.3419C61.031 68.2603 60.2383 68.7885 60.0415 69.8558C59.7719 71.3178 59.7907 72.8235 60.0307 74.291C60.2087 75.3719 61.0283 75.9191 62.0691 75.8565C63.1018 75.7939 63.8244 75.1813 63.9242 74.0704C63.9862 73.4007 63.935 72.72 63.935 72.0448L63.9377 72.0421ZM25.8441 72.1646C25.8441 71.4894 25.9062 70.806 25.8307 70.1389C25.6985 69.0035 24.7845 68.2439 23.7033 68.3447C22.5627 68.4481 21.8994 69.1261 21.8401 70.2669C21.7754 71.4812 21.7835 72.7037 21.8401 73.918C21.894 75.0642 22.7811 75.9355 23.8273 75.8756C24.9409 75.813 25.6689 75.1867 25.828 74.0568C25.9169 73.4388 25.8441 72.7962 25.8441 72.1673V72.1646Z" fill="#C6C4CA"/>
<path d="M98.9628 72.8097C98.4801 73.9859 97.7467 75.0532 97.4475 76.3111C95.6274 76.1178 95.1259 76.4146 94.495 78.0999C92.7316 82.8101 91.3538 87.6293 90.5341 92.6009C90.3858 93.5048 90.1297 93.9922 89.0323 93.9459C86.5355 93.8397 84.0333 93.9132 81.3316 93.9132C81.8682 92.9412 82.3184 92.1271 82.766 91.3131C87.7839 82.1404 86.46 72.0882 79.2258 64.5764C76.2841 61.5215 73.3128 58.4966 70.363 55.45C70.1473 55.2294 69.9235 54.9789 69.8129 54.6985C68.4944 51.3551 66.7418 48.2648 64.3987 45.1909C68.5834 46.0676 71.854 47.9626 74.3643 51.1509C75.2056 52.2181 75.9228 53.3753 76.4162 54.644C76.9851 56.1116 77.8614 57.1761 79.5439 57.1653C81.2345 57.1516 82.0192 56.0108 82.6447 54.5896C84.8449 49.588 89.5176 45.9342 94.5354 45.2971C92.4026 48.1505 90.6339 51.1236 89.3666 54.3827C88.4121 56.8331 87.6517 59.3352 87.2824 61.949C87.0397 63.6833 87.5439 64.8214 88.8543 65.483C90.189 66.1555 91.343 65.9323 92.6103 64.6526C95.862 61.3745 99.8984 60.005 104.361 59.632C104.571 59.6157 104.787 59.632 105.019 59.632C105.035 60.2419 104.59 60.4733 104.318 60.7946C102.023 63.4819 100.066 66.4033 98.3804 69.5126C97.5553 71.0346 97.6712 71.6336 98.9601 72.8152L98.9628 72.8097Z" fill="#54D179"/>
<path d="M69.2818 7.16064C68.6724 8.18982 67.4375 8.33684 66.6151 9.0883C64.6899 10.839 62.6839 12.4944 60.7533 14.2369C57.6903 17.0058 54.6731 19.8293 51.6155 22.6091C49.631 24.4142 48.353 26.6632 47.4713 29.168C45.9263 33.5488 44.4002 37.9378 42.8633 42.3213C42.6665 42.8822 42.5101 43.443 42.6017 44.0447C40.8572 43.9876 39.1127 43.9059 37.3655 43.8841C36.6941 43.8759 36.4676 43.6663 36.7022 43.0047C38.4791 38.0331 40.2128 33.0451 42.0436 28.0953C42.6449 26.4699 43.7504 25.1194 45.0257 23.9568C49.2535 20.1097 53.5353 16.3197 57.7308 12.4372C60.0307 10.3081 62.6003 8.78064 65.6552 8.09725C66.8713 7.82498 68.0711 7.47647 69.2791 7.16337L69.2818 7.16064Z" fill="#817E96"/>
<path d="M62.2444 49.5879C62.1284 49.5226 62.0125 49.4572 61.8939 49.3919C61.999 49.3129 62.1042 49.2367 62.2093 49.1577C62.2713 49.2503 62.3334 49.3429 62.3954 49.4354C62.3414 49.4844 62.2929 49.5362 62.2444 49.5906V49.5879Z" fill="#A09CAD"/>
<path d="M62.3954 49.4329C62.4223 49.5309 62.4493 49.6262 62.4763 49.7242C62.3981 49.6779 62.3226 49.6317 62.2444 49.5854C62.2929 49.5309 62.3415 49.4792 62.3954 49.4302V49.4329Z" fill="#A09CAD"/>
<path d="M78.5814 33.546C76.818 33.5297 74.8685 32.7374 73.2669 31.1256C72.2666 30.1182 72.183 28.8494 73.0216 27.9972C73.8439 27.1614 74.9548 27.2158 76.0145 28.1415C78.1068 29.9739 80.2019 29.9684 82.2861 28.1306C83.3296 27.2104 84.4566 27.1641 85.279 28.0081C86.1472 28.8957 86.0636 30.0719 85.0229 31.1229C83.3862 32.7782 81.3909 33.5651 78.5814 33.546Z" fill="#030203"/>
<path d="M62.061 28.0435C62.061 28.6779 62.123 29.3177 62.0475 29.9412C61.9208 30.9649 61.3007 31.5748 60.268 31.6565C59.1868 31.7409 58.3725 31.2508 58.1702 30.1699C57.8952 28.6996 57.906 27.1831 58.1595 25.7101C58.3455 24.6292 59.1544 24.1147 60.2329 24.1827C61.2548 24.2481 61.9127 24.8416 62.0368 25.8708C62.123 26.5841 62.0529 27.3165 62.0529 28.0408C62.0529 28.0408 62.0556 28.0408 62.0583 28.0408L62.061 28.0435Z" fill="#040405"/>
<path d="M96.2126 27.8555C96.2126 27.2674 96.1721 26.6738 96.2207 26.0912C96.3177 24.9368 96.9595 24.2615 98.1162 24.1989C99.2891 24.1363 100.063 24.7952 100.182 25.9006C100.324 27.2429 100.324 28.6233 100.179 29.9656C100.058 31.071 99.281 31.7298 98.1081 31.6591C96.9514 31.5883 96.3123 30.9103 96.2234 29.7559C96.1748 29.127 96.2153 28.4899 96.2153 27.8555H96.2126Z" fill="#030303"/>
<path d="M43.0116 77.7241C40.6146 77.6942 38.6625 76.9291 37.0501 75.3336C35.9769 74.2718 35.8664 73.1555 36.7103 72.227C37.53 71.3231 38.6867 71.3612 39.7922 72.3251C41.8306 74.103 43.9904 74.0893 46.0477 72.2869C47.0857 71.3776 48.2074 71.3367 49.0298 72.178C49.8872 73.0575 49.8063 74.2445 48.7871 75.2846C47.1585 76.9482 45.1552 77.6969 43.0143 77.7241H43.0116Z" fill="#040404"/>
<path d="M63.9377 72.0446C63.9377 72.7198 63.9889 73.4005 63.9269 74.0702C63.8244 75.1811 63.1018 75.7937 62.0718 75.8563C61.031 75.9217 60.2114 75.3717 60.0334 74.2908C59.7907 72.8233 59.7746 71.3203 60.0442 69.8555C60.241 68.7883 61.0337 68.2628 62.1096 68.3417C63.1827 68.4234 63.8244 69.0632 63.935 70.1496C63.997 70.7731 63.9458 71.4102 63.9458 72.0419C63.9458 72.0419 63.9431 72.0419 63.9404 72.0419L63.9377 72.0446Z" fill="#060606"/>
<path d="M25.8442 72.1647C25.8442 72.7963 25.917 73.4361 25.828 74.0542C25.6662 75.1841 24.9382 75.8103 23.8273 75.8729C22.7812 75.9328 21.8914 75.0616 21.8402 73.9153C21.7835 72.701 21.7782 71.4785 21.8402 70.2642C21.8995 69.1234 22.5628 68.4455 23.7033 68.342C24.7845 68.244 25.7013 69.0009 25.8307 70.1363C25.9089 70.8033 25.8442 71.4867 25.8442 72.1619V72.1647Z" fill="#040404"/>
</g>
<defs>
<clipPath id="clip0_2639_97">
<rect width="138" height="98" fill="white"/>
</clipPath>
</defs>
</svg>
