<svg width="179" height="201" viewBox="0 0 179 201" fill="none" xmlns="http://www.w3.org/2000/svg">
<g clip-path="url(#clip0_2187_217)">
<path d="M44.6106 201C42.9101 200.205 41.0555 200.428 39.2754 200.253C29.6465 199.309 20.0867 198.069 10.9468 194.671C8.45985 193.749 6.10046 192.572 3.9802 190.95C1.35511 188.941 5.77631e-05 186.423 0.0053717 182.987C0.069139 154.436 0.0797668 125.879 5.7763e-05 97.3278C-0.0105701 93.6435 1.44545 90.993 4.30966 88.9309C8.52361 85.904 13.3646 84.3561 18.3331 83.1898C20.0442 82.787 20.4906 82.4 19.5713 80.6241C14.4168 70.6741 9.31539 60.6975 4.35217 50.6467C-0.579162 40.6595 4.857 29.4478 15.6443 27.0517C23.291 25.3501 31.0388 29.4955 34.275 37.1237C38.1594 46.2839 41.9536 55.4759 45.7903 64.6574C47.6448 69.0944 49.5153 73.526 51.338 77.9789C51.6675 78.7847 51.9863 79.2565 53.0013 79.23C64.6122 78.9331 76.1382 79.9085 87.8022 81.8805C87.324 79.3519 86.7288 77.0353 85.6023 74.8884C83.025 69.9902 82.855 65.0868 85.3685 60.1038C86.325 58.2007 86.8298 56.1598 86.8617 54.0023C86.9255 49.014 88.6578 44.736 92.351 41.285C94.0727 39.6735 95.178 37.6432 95.8794 35.4062C97.2132 31.1229 99.7586 27.7992 103.67 25.5462C106.077 24.1573 107.9 22.1906 109.313 19.8211C111.471 16.2058 114.574 13.7779 118.591 12.5056C121.291 11.6522 123.613 10.2103 125.606 8.19586C128.677 5.08415 132.429 3.52564 136.802 3.41962C139.48 3.3507 142.026 2.74108 144.449 1.56425C149.067 -0.678097 153.642 -0.434249 158.18 1.8505C160.136 2.8365 162.197 3.48853 164.344 3.94972C170.232 5.22197 173.872 8.79488 175.068 14.748C175.514 16.9585 176.311 19.0418 177.3 21.0668C179.42 25.4084 179.675 29.803 177.512 34.2134C176.21 36.8693 175.652 39.6947 175.541 42.6262C175.387 46.6285 173.915 50.0848 171.088 52.9155C168.893 55.1102 167.304 57.6229 166.358 60.5809C165.163 64.3075 162.872 67.239 159.509 69.2481C156.772 70.8808 154.625 73.0224 152.994 75.7578C150.905 79.2565 147.781 81.5094 143.933 82.7393C141.287 83.5821 138.986 84.9339 137.062 86.9112C133.948 90.1077 130.117 91.6927 125.707 91.8147C122.933 91.8889 120.377 92.5992 117.869 93.7071C116.609 94.2637 115.265 94.8151 113.92 94.937C112.284 95.0854 111.965 95.7162 111.97 97.2535C112.018 125.672 111.965 154.091 112.055 182.516C112.066 186.597 110.429 189.465 107.156 191.618C101.969 195.026 96.0814 196.542 90.1191 197.799C82.6584 199.373 75.0966 200.205 67.4871 200.629C67.131 200.651 66.6687 200.465 66.504 201.011H44.6371L44.6106 201ZM94.6944 118.452C97.6702 118.028 100.322 116.746 102.942 115.362C104.557 114.508 105.349 113.3 105.174 111.381C105.019 109.685 105.099 107.962 105.158 106.255C105.189 105.21 104.887 104.998 103.925 105.428C102.065 106.26 100.173 107.013 98.292 107.797C90.5921 110.077 82.7062 111.391 74.7193 112.118C61.02 113.358 47.326 113.379 33.6639 111.72C24.6514 110.628 15.7187 109.117 7.42894 105.11C7.29609 105.046 7.07822 105.142 6.82847 105.168C6.82847 106.732 7.03571 108.285 6.78596 109.759C6.16423 113.416 8.04005 115.288 11.1487 116.443C11.5207 116.581 11.8767 116.756 12.2487 116.899C20.9635 120.318 30.1248 121.628 39.3657 122.434C52.8684 123.616 66.3605 123.425 79.8101 121.644C84.853 120.976 89.9066 120.292 94.6997 118.442L94.6944 118.452ZM98.276 178.821C88.695 181.599 78.8855 182.929 68.9537 183.597C58.2833 184.313 47.6289 184.17 36.9957 183.109C28.7591 182.288 20.5756 181.074 12.7057 178.365C10.7555 177.697 8.86371 176.859 6.81784 176.048C6.81784 177.792 7.02508 179.34 6.77533 180.819C6.16954 184.456 7.98159 186.375 11.1221 187.509C11.4941 187.642 11.8501 187.822 12.2221 187.965C22.5365 191.967 33.3769 193.155 44.297 193.876C55.4988 194.613 66.6847 194.305 77.828 193.012C83.668 192.333 89.5186 191.533 95.077 189.428C98.292 188.84 101.247 187.636 103.909 185.749C104.552 185.293 105.131 184.742 105.126 183.83C105.115 181.593 105.115 179.351 105.136 177.114C105.147 176.303 104.94 176.054 104.105 176.414C102.176 177.257 100.216 178.031 98.2707 178.831L98.276 178.821ZM98.292 124.623C88.153 127.687 77.7217 128.901 67.2001 129.574C55.4669 130.327 43.7656 129.871 32.1122 128.387C24.2954 127.39 16.5583 125.985 9.24631 122.874C6.81784 121.84 6.82847 121.813 6.82847 124.538C6.82847 137.621 6.99851 150.709 6.71688 163.787C6.63717 167.524 8.00285 169.454 11.2178 170.61C11.712 170.79 12.1849 171.039 12.6791 171.224C21.936 174.728 31.6286 176.027 41.4116 176.753C52.5283 177.575 63.6504 177.533 74.7459 176.388C81.6487 175.672 88.5462 174.877 95.1355 172.486C97.9997 172.078 100.519 170.8 103.027 169.459C104.568 168.638 105.205 167.482 105.195 165.637C105.115 151.78 105.152 137.923 105.152 124.066C105.152 123.738 105.142 123.404 105.152 123.075C105.189 122.147 104.887 121.925 103.978 122.328C102.107 123.149 100.194 123.865 98.2973 124.623H98.292ZM111.784 88.4008C112.836 88.4485 114.011 88.0138 115.169 87.4996C118.336 86.0948 121.583 85.1406 125.111 85.0823C127.965 85.0346 130.494 84.0327 132.54 81.854C134.932 79.3095 137.891 77.5495 141.239 76.4999C143.859 75.6783 146.054 74.3106 147.446 71.8774C149.433 68.4052 152.186 65.7229 155.624 63.6979C157.824 62.4044 159.301 60.5225 160.04 58.0629C161.166 54.3097 163.202 51.1185 166.013 48.3937C167.639 46.814 168.601 44.9003 168.696 42.6103C168.856 38.7458 169.557 35.0245 171.284 31.5205C172.251 29.5591 172.634 27.4758 171.709 25.4031C170.168 21.9627 168.866 18.4534 167.968 14.7904C167.405 12.5003 165.705 11.244 163.505 10.7722C160.375 10.0989 157.404 9.02813 154.54 7.63925C152.186 6.49423 149.858 6.46772 147.488 7.61805C143.987 9.31969 140.277 10.1148 136.377 10.2209C133.959 10.2898 131.897 11.3659 130.239 13.094C127.71 15.734 124.718 17.6264 121.243 18.7079C118.299 19.6196 116.152 21.4061 114.622 24.046C112.826 27.1471 110.275 29.5167 107.193 31.3191C104.865 32.6814 103.239 34.5898 102.447 37.182C101.347 40.792 99.4451 43.9038 96.7137 46.5437C94.8964 48.2983 93.9026 50.4187 93.8017 53.0481C93.6635 56.6899 92.994 60.2469 91.2935 63.5494C89.9916 66.0728 90.1138 68.6226 91.3945 71.1512C92.6858 73.6957 93.6848 76.3568 94.1896 79.161C94.7741 82.4106 96.8413 84.0751 99.8915 84.6795C102.447 85.1831 104.844 86.0683 107.182 87.1868C108.558 87.8442 109.977 88.3902 111.789 88.4008H111.784ZM55.5838 106.154C55.4988 105.783 55.4776 105.592 55.4032 105.417C46.2207 83.3807 37.0754 61.323 27.8132 39.3183C25.6026 34.0703 19.7892 32.0824 14.6718 34.4891C9.86273 36.7526 7.89657 42.6209 10.4366 47.6622C19.9433 66.518 29.519 85.3368 39.0309 104.187C39.5039 105.131 40.0831 105.603 41.1246 105.656C45.8806 105.894 50.6259 106.345 55.5785 106.159L55.5838 106.154ZM60.2973 85.9517C58.9051 85.9517 57.5128 85.9676 56.1206 85.9464C55.1747 85.9305 54.7336 86.1531 55.18 87.208C57.6988 93.1664 60.1963 99.1354 62.6833 105.11C63.0234 105.921 63.5122 106.064 64.389 105.984C67.1523 105.725 69.9315 105.64 72.7054 105.433C80.8357 104.829 88.8544 103.578 96.634 101.081C99.2804 100.233 101.889 99.252 104.105 97.4921C105.381 96.4796 105.418 95.536 104.031 94.4758C101.932 92.8802 99.5248 91.9684 97.0751 91.1679C85.1293 87.2558 72.7319 86.4341 60.292 85.9517H60.2973ZM31.7243 104.649C29.062 99.4535 26.5697 94.603 24.0988 89.7366C23.7002 88.9521 23.0519 89.0051 22.4036 89.1535C17.9505 90.1554 13.5453 91.3217 9.53326 93.5799C6.08983 95.5201 6.05263 96.734 9.54389 98.5841C16.3457 102.194 23.8171 103.435 31.7243 104.643V104.649Z" fill="#020202"/>
<path d="M95.1355 172.491C88.5462 174.876 81.6487 175.677 74.7459 176.392C63.6504 177.537 52.5231 177.585 41.4116 176.758C31.6287 176.032 21.936 174.739 12.6791 171.229C12.185 171.044 11.7173 170.789 11.2178 170.614C8.00288 169.459 6.6372 167.529 6.71691 163.792C6.99855 150.714 6.8285 137.626 6.8285 124.543C6.8285 121.818 6.81788 121.839 9.24635 122.878C16.5583 125.99 24.2954 127.395 32.1122 128.391C43.7657 129.876 55.467 130.332 67.2001 129.579C77.7217 128.906 88.153 127.692 98.292 124.628C98.292 137.472 98.2601 150.322 98.3345 163.166C98.3558 166.591 98.5152 169.93 95.1674 172.114C95.1036 172.157 95.1408 172.364 95.1302 172.491H95.1355ZM55.8761 146.881C62.6939 146.881 69.517 146.881 76.3348 146.876C77.1266 146.876 77.929 146.86 78.7048 146.722C80.4531 146.415 81.3884 145.212 81.4362 143.547C81.484 141.877 80.5913 140.632 78.8802 140.229C78.1203 140.048 77.3073 140.033 76.5208 140.033C64.4688 140.022 52.4221 140.022 40.3701 140.027C38.3189 140.027 36.2624 139.969 34.2112 140.048C31.8253 140.144 30.4277 141.697 30.6403 143.86C30.8369 145.848 32.2504 146.866 35.0189 146.876C41.9696 146.903 48.9202 146.887 55.8761 146.887V146.881ZM55.9293 163.744C60.8287 163.744 65.7335 163.755 70.633 163.744C73.1199 163.734 74.6928 162.387 74.6662 160.362C74.6397 158.311 73.0933 156.996 70.5958 156.991C60.8606 156.975 51.1202 156.975 41.385 156.991C38.845 156.991 37.3943 158.279 37.4049 160.399C37.4155 162.53 38.829 163.734 41.4222 163.739C46.2579 163.755 51.0936 163.739 55.9293 163.739V163.744Z" fill="#03A8F3"/>
<path d="M111.779 88.4054C109.967 88.3948 108.548 87.8488 107.171 87.1915C104.833 86.0783 102.437 85.193 99.8807 84.6841C96.8358 84.0798 94.7634 82.4153 94.1789 79.1657C93.674 76.3615 92.675 73.695 91.3837 71.1558C90.0978 68.6272 89.9809 66.0827 91.2828 63.5541C92.9832 60.2516 93.6528 56.6945 93.791 53.0527C93.8919 50.4287 94.8856 48.303 96.703 46.5483C99.4344 43.9137 101.337 40.802 102.437 37.1867C103.229 34.5945 104.855 32.6808 107.182 31.3237C110.264 29.5214 112.81 27.1518 114.611 24.0507C116.141 21.416 118.288 19.6296 121.232 18.7125C124.707 17.6311 127.699 15.7386 130.229 13.0987C131.887 11.3653 133.948 10.2944 136.366 10.2255C140.261 10.1142 143.976 9.32435 147.478 7.62271C149.848 6.47238 152.17 6.49889 154.529 7.64391C157.393 9.03279 160.364 10.1036 163.494 10.7768C165.699 11.2486 167.4 12.505 167.958 14.795C168.856 18.4581 170.158 21.9674 171.699 25.4077C172.629 27.4805 172.241 29.5691 171.273 31.5252C169.546 35.0292 168.845 38.7558 168.686 42.615C168.59 44.905 167.633 46.8187 166.002 48.3984C163.191 51.1231 161.156 54.3144 160.029 58.0675C159.291 60.5272 157.813 62.4091 155.613 63.7025C152.17 65.7275 149.417 68.4099 147.435 71.8821C146.043 74.3153 143.848 75.6829 141.228 76.5046C137.881 77.5542 134.926 79.3088 132.53 81.8586C130.484 84.0374 127.954 85.0393 125.101 85.087C121.572 85.1453 118.325 86.0995 115.158 87.5043C114.005 88.0132 112.825 88.4532 111.773 88.4054H111.779ZM112.964 79.2028C116.731 79.0332 120.929 78.1373 124.909 76.4357C139.719 70.1115 150.767 59.679 158.281 45.5305C161.379 39.6941 163.35 33.5237 162.761 26.7489C162.197 20.3134 157.914 16.2687 151.447 16.0832C146.797 15.9507 142.371 16.8624 138.083 18.5482C128.719 22.2271 120.855 28.0848 114.133 35.4532C106.544 43.7759 100.959 53.2171 99.7426 64.6196C98.8498 72.9582 102.628 79.0756 112.964 79.1975V79.2028Z" fill="#535B5E"/>
<path d="M55.5785 106.159C50.6259 106.35 45.8806 105.894 41.1246 105.655C40.0884 105.602 39.5092 105.131 39.0309 104.187C29.5136 85.3364 19.9379 66.5177 10.4366 47.6618C7.89654 42.6205 9.85739 36.7523 14.6718 34.4887C19.7891 32.082 25.6026 34.0699 27.8132 39.318C37.0754 61.3226 46.2207 83.3803 55.4032 105.417C55.4776 105.592 55.4935 105.788 55.5838 106.154L55.5785 106.159Z" fill="#7E8D92"/>
<path d="M95.077 189.423C89.5186 191.533 83.6679 192.328 77.8279 193.006C66.6846 194.3 55.4988 194.607 44.297 193.87C33.3768 193.149 22.5364 191.962 12.222 187.96C11.8554 187.817 11.494 187.642 11.1221 187.504C7.98152 186.364 6.16946 184.45 6.77525 180.814C7.01969 179.335 6.81776 177.782 6.81776 176.043C8.86363 176.854 10.7554 177.692 12.7056 178.36C20.5756 181.068 28.759 182.282 36.9956 183.104C47.6288 184.164 58.2833 184.302 68.9536 183.592C78.8854 182.929 88.6949 181.598 98.276 178.815C98.5045 182.611 98.8233 186.433 95.1514 189.041C95.077 189.094 95.1035 189.285 95.077 189.418V189.423Z" fill="#9C9C9C"/>
<path d="M94.6889 118.452C89.8958 120.297 84.8422 120.986 79.7993 121.654C66.3497 123.435 52.8576 123.626 39.3549 122.444C30.114 121.633 20.9527 120.329 12.2379 116.91C11.8712 116.767 11.5099 116.592 11.1379 116.454C8.03455 115.298 6.15342 113.427 6.77515 109.769C7.0249 108.295 6.81766 106.742 6.81766 105.178C7.06742 105.147 7.27997 105.051 7.41814 105.12C15.7079 109.128 24.6406 110.639 33.653 111.731C47.3152 113.39 61.0092 113.363 74.7085 112.128C82.6954 111.407 90.5759 110.093 98.2812 107.808C98.5628 111.794 98.7647 115.749 94.7208 118.267C94.6836 118.288 94.6996 118.394 94.6889 118.458V118.452Z" fill="#9C9C9C"/>
<path d="M60.2918 85.9563C72.7318 86.4387 85.1292 87.2603 97.0749 91.1725C99.5246 91.973 101.932 92.8847 104.031 94.4804C105.418 95.5406 105.381 96.4789 104.105 97.4967C101.889 99.2566 99.2802 100.237 96.6339 101.085C88.8542 103.582 80.8355 104.839 72.7052 105.438C69.9366 105.644 67.1574 105.724 64.3889 105.989C63.5121 106.074 63.0232 105.931 62.6831 105.114C60.1962 99.14 57.6986 93.171 55.1798 87.2126C54.7334 86.1577 55.1798 85.9351 56.1204 85.951C57.5126 85.9775 58.9049 85.9563 60.2971 85.9563H60.2918Z" fill="#535B5F"/>
<path d="M95.1354 172.491C95.1461 172.364 95.1036 172.157 95.1726 172.115C98.5151 169.931 98.361 166.591 98.3397 163.167C98.26 150.322 98.2972 137.478 98.2972 124.628C100.194 123.87 102.113 123.154 103.978 122.333C104.892 121.93 105.189 122.152 105.152 123.08C105.142 123.409 105.152 123.737 105.152 124.071C105.152 137.928 105.115 151.785 105.195 165.642C105.205 167.487 104.568 168.643 103.027 169.464C100.524 170.8 97.9997 172.083 95.1354 172.491Z" fill="#0377BC"/>
<path d="M31.7188 104.648C23.8117 103.439 16.3403 102.199 9.53845 98.5886C6.04719 96.7333 6.08439 95.5193 9.52782 93.5845C13.5398 91.3262 17.9451 90.16 22.3982 89.1581C23.0412 89.015 23.6895 88.9566 24.0933 89.7412C26.5643 94.6076 29.0619 99.458 31.7188 104.653V104.648Z" fill="#525A5E"/>
<path d="M95.0769 189.422C95.0982 189.295 95.0769 189.099 95.1513 189.046C98.8285 186.432 98.5044 182.616 98.2759 178.82C100.221 178.02 102.182 177.251 104.111 176.403C104.94 176.037 105.147 176.291 105.142 177.102C105.115 179.339 105.12 181.582 105.131 183.819C105.131 184.731 104.557 185.282 103.914 185.738C101.252 187.625 98.2918 188.834 95.0822 189.417L95.0769 189.422Z" fill="#6F6F6F"/>
<path d="M94.6892 118.452C94.6998 118.389 94.6892 118.283 94.721 118.262C98.7649 115.738 98.563 111.784 98.2814 107.803C100.163 107.018 102.054 106.265 103.914 105.433C104.881 104.998 105.184 105.21 105.147 106.26C105.094 107.967 105.009 109.69 105.163 111.386C105.338 113.305 104.552 114.514 102.931 115.367C100.311 116.751 97.665 118.034 94.6838 118.458L94.6892 118.452Z" fill="#6F6F6F"/>
<path d="M55.8706 146.881C48.92 146.881 41.9694 146.897 35.0134 146.871C32.2396 146.86 30.8314 145.842 30.6348 143.854C30.4222 141.697 31.8198 140.138 34.2057 140.043C36.2569 139.963 38.3081 140.022 40.3646 140.022C52.4166 140.022 64.4633 140.022 76.5153 140.027C77.3018 140.027 78.1148 140.048 78.8747 140.223C80.5911 140.626 81.4785 141.872 81.4307 143.541C81.3829 145.201 80.4476 146.409 78.6993 146.717C77.9235 146.855 77.1211 146.871 76.3293 146.871C69.5115 146.881 62.6884 146.876 55.8706 146.876V146.881Z" fill="#EEF2F4"/>
<path d="M55.9239 163.745C51.0882 163.745 46.2525 163.755 41.4168 163.745C38.8236 163.734 37.4101 162.536 37.3995 160.405C37.3888 158.284 38.8396 157.002 41.3796 156.996C51.1147 156.98 60.8552 156.98 70.5903 156.996C73.0879 156.996 74.6289 158.311 74.6608 160.368C74.6874 162.393 73.1145 163.739 70.6275 163.75C65.7281 163.766 60.8233 163.75 55.9239 163.75V163.745Z" fill="#F2F3F4"/>
<path d="M112.964 79.2032C102.628 79.0813 98.8498 72.9585 99.7426 64.6253C100.959 53.2174 106.544 43.7762 114.133 35.4589C120.855 28.0904 128.719 22.2328 138.083 18.5538C142.371 16.8681 146.798 15.9563 151.447 16.0889C157.914 16.2744 162.197 20.3191 162.761 26.7546C163.35 33.5293 161.379 39.6997 158.281 45.5362C150.772 59.6847 139.719 70.1119 124.909 76.4413C120.929 78.143 116.731 79.0335 112.964 79.2085V79.2032ZM155.996 30.3063C156.07 24.1358 154.715 22.7947 149.8 22.8636C147.998 22.8901 146.224 23.0809 144.513 23.6323C127.933 28.9916 116.285 39.8323 109.116 55.5605C107.411 59.303 106.162 63.2046 106.513 67.4242C106.81 71.0078 108.213 72.3595 111.821 72.4072C114.553 72.4443 117.236 71.9778 119.813 71.0714C133.327 66.311 143.296 57.278 150.693 45.2605C153.732 40.32 155.789 34.9765 156.001 30.3116L155.996 30.3063Z" fill="#010202"/>
<path d="M155.996 30.3066C155.783 34.9715 153.732 40.3149 150.687 45.2555C143.29 57.273 133.321 66.306 119.808 71.0663C117.236 71.9728 114.553 72.4393 111.816 72.4022C108.208 72.3545 106.805 71.0027 106.507 67.4192C106.157 63.1996 107.405 59.298 109.111 55.5555C116.28 39.8272 127.928 28.9866 144.507 23.6272C146.213 23.0759 147.993 22.8851 149.795 22.8586C154.71 22.795 156.065 24.1308 155.991 30.3013L155.996 30.3066Z" fill="#7E8D93"/>
</g>
<defs>
<clipPath id="clip0_2187_217">
<rect width="179" height="201" fill="white"/>
</clipPath>
</defs>
</svg>
