<svg width="434" height="155" viewBox="0 0 434 155" fill="none" xmlns="http://www.w3.org/2000/svg">
<path d="M22.848 58H13.696V23.248H0.896V15.12H35.648V23.248H22.848V58ZM48.981 58.64C38.997 58.64 32.917 51.984 32.917 42.32C32.917 32.656 38.997 26 48.213 26C58.197 26 63.189 32.656 63.189 40.848C63.189 42.192 63.061 43.984 62.869 44.688H41.493C42.069 49.104 45.013 51.216 49.109 51.216C53.525 51.216 55.893 49.296 57.045 46.608L62.613 52.176C60.245 55.568 56.021 58.64 48.981 58.64ZM48.277 33.04C44.373 33.04 41.941 35.216 41.493 39.44H54.933C54.613 35.28 52.373 33.04 48.277 33.04ZM80.241 58.64C73.329 58.64 70.065 54.544 70.065 48.72V33.616H65.393V26.64H70.065V22.928L79.217 18.128V26.64H87.921V33.616H79.217V47.056C79.217 49.616 80.497 50.512 82.289 50.512C84.273 50.512 86.001 48.912 86.961 47.184L89.585 54.672C88.241 56.4 85.041 58.64 80.241 58.64ZM106.481 58.64C96.497 58.64 90.417 51.984 90.417 42.32C90.417 32.656 96.497 26 105.713 26C115.697 26 120.689 32.656 120.689 40.848C120.689 42.192 120.561 43.984 120.369 44.688H98.993C99.569 49.104 102.513 51.216 106.609 51.216C111.025 51.216 113.393 49.296 114.545 46.608L120.113 52.176C117.745 55.568 113.521 58.64 106.481 58.64ZM105.777 33.04C101.873 33.04 99.441 35.216 98.993 39.44H112.433C112.113 35.28 109.873 33.04 105.777 33.04ZM135.102 58H125.95V26.64H135.102V36.496C136.126 31.248 139.198 26 145.214 26C149.822 26 152.382 28.944 152.382 33.872C152.382 37.264 151.358 39.952 150.59 41.168H141.758C142.91 40.016 143.998 37.776 143.998 35.984C143.998 34.192 143.166 32.848 141.182 32.848C138.046 32.848 135.102 36.24 135.102 41.424V58ZM162.859 58.704C157.995 58.704 154.603 56.08 154.603 51.024C154.603 46.288 157.611 43.536 163.563 41.488L173.163 37.904C172.843 35.28 171.627 33.808 168.171 33.808C164.203 33.808 160.555 36.048 158.379 39.184L153.771 32.528C156.907 29.136 162.091 26 168.811 26C176.747 26 181.355 30.224 181.355 38.096V48.848C181.355 50.256 181.867 50.704 183.019 50.704H184.875V58H179.499C176.107 58 173.035 56.464 173.035 51.984V49.872C172.011 53.968 169.259 58.704 162.859 58.704ZM163.051 49.68C163.051 51.152 164.075 51.984 166.251 51.984C170.603 51.984 173.035 49.808 173.035 45.968V43.792L166.379 46.544C163.883 47.568 163.051 48.464 163.051 49.68Z" fill="#6610F2"/>
<path d="M222.536 97.56H214.024L230.664 49.56H239.176L222.536 97.56Z" fill="#6610F2"/>
<path d="M290.8 134H273.456V91.12H290.672C303.728 91.12 311.344 99.696 311.344 112.56C311.344 125.424 303.792 134 290.8 134ZM289.904 99.248H282.608V125.872H290.032C297.904 125.872 301.744 121.328 301.744 112.56C301.744 103.792 297.84 99.248 289.904 99.248ZM331.669 134.64C321.685 134.64 315.605 127.984 315.605 118.32C315.605 108.656 321.685 102 330.901 102C340.885 102 345.877 108.656 345.877 116.848C345.877 118.192 345.749 119.984 345.557 120.688H324.181C324.757 125.104 327.701 127.216 331.797 127.216C336.213 127.216 338.581 125.296 339.733 122.608L345.301 128.176C342.933 131.568 338.709 134.64 331.669 134.64ZM330.965 109.04C327.061 109.04 324.629 111.216 324.181 115.44H337.621C337.301 111.28 335.061 109.04 330.965 109.04ZM362.515 134.704C354.899 134.704 350.099 128.752 350.099 118.32C350.099 107.952 354.899 102 362.131 102C368.659 102 371.219 106.544 372.115 111.6V91.12H381.267V134H372.115V125.168C371.283 130.224 369.043 134.704 362.515 134.704ZM359.379 118.32C359.379 124.336 362.003 127.536 366.163 127.536C370.003 127.536 372.115 125.168 372.115 120.048V116.656C372.115 111.536 369.939 109.104 366.035 109.104C362.003 109.104 359.379 112.368 359.379 118.32ZM394.422 134.704C389.558 134.704 386.166 132.08 386.166 127.024C386.166 122.288 389.174 119.536 395.126 117.488L404.726 113.904C404.406 111.28 403.19 109.808 399.734 109.808C395.766 109.808 392.118 112.048 389.942 115.184L385.334 108.528C388.47 105.136 393.654 102 400.374 102C408.31 102 412.918 106.224 412.918 114.096V124.848C412.918 126.256 413.43 126.704 414.582 126.704H416.438V134H411.062C407.67 134 404.598 132.464 404.598 127.984V125.872C403.574 129.968 400.822 134.704 394.422 134.704ZM394.614 125.68C394.614 127.152 395.638 127.984 397.814 127.984C402.166 127.984 404.598 125.808 404.598 121.968V119.792L397.942 122.544C395.446 123.568 394.614 124.464 394.614 125.68ZM429.915 134H420.763V91.12H429.915V134Z" fill="#6610F2"/>
</svg>
