<svg width="222" height="201" viewBox="0 0 222 201" fill="none" xmlns="http://www.w3.org/2000/svg">
<g clip-path="url(#clip0_2172_1149)">
<path d="M0.000111424 95.7289C1.16451 94.1598 2.73442 93.685 4.6519 93.7197C9.48907 93.8008 14.332 93.7313 19.1692 93.7487C26.4916 93.7718 30.9464 96.8175 33.5764 103.598C37.394 113.458 41.1943 123.331 45.0061 133.197C46.8251 137.91 50.8049 140.012 55.7231 138.958C56.6037 138.767 56.6326 138.188 56.7601 137.563C59.0078 126.388 64.1114 116.701 72.0131 108.508C72.8994 107.593 72.9284 106.649 72.9284 105.566C72.9226 86.5052 73.0616 67.4439 72.8763 48.3827C72.7546 36.0959 77.8177 27.0112 88.4711 21.0125C89.7803 20.2772 90.3538 19.5418 90.4233 17.8974C90.5971 13.6532 92.8043 10.596 96.7551 8.87055C114.065 1.30279 132.081 -1.44754 150.862 0.717985C161.034 1.89339 170.772 4.57424 180.18 8.58683C184.728 10.5265 187.149 13.8211 187.155 18.7428C187.155 20.0166 187.914 20.3293 188.702 20.7693C194.095 23.8034 198.619 27.7176 201.481 33.3166C203.584 37.4335 204.586 41.8166 204.586 46.443C204.575 66.0832 204.598 85.7177 204.552 105.358C204.552 106.823 204.922 107.877 205.948 108.977C216.242 119.967 221.658 133.041 221.884 148.078C222.099 162.229 221.96 176.38 221.925 190.531C221.913 196.536 217.528 200.977 211.555 200.977C163.01 201 114.47 201 65.9246 200.977C59.9868 200.977 55.642 196.536 55.5667 190.491C55.503 185.291 55.5088 180.092 55.5783 174.898C55.5957 173.624 55.3408 173.219 53.9505 173.184C37.591 172.831 26.1034 163.179 22.5697 146.972C20.2525 136.347 17.8774 125.734 15.5428 115.109C14.6854 111.212 12.6868 108.114 9.4659 105.711C6.25657 103.32 2.87924 101.131 -0.0114746 98.3229V95.7231L0.000111424 95.7289ZM138.928 194.492V194.469C162.552 194.469 186.17 194.469 209.794 194.469C214.469 194.469 215.442 193.392 215.454 188.719C215.454 187.283 214.95 187.075 213.716 187.109C210.976 187.185 208.224 187.138 205.484 187.109C202.982 187.08 201.522 185.824 201.562 183.78C201.597 181.829 203.016 180.642 205.403 180.613C208.149 180.584 210.895 180.514 213.635 180.613C215.02 180.659 215.46 180.306 215.448 178.847C215.379 168.737 215.628 158.628 215.361 148.524C214.875 129.868 206.608 115.41 191.123 105.022C189.814 104.142 188.476 103.777 186.883 103.783C164.632 103.812 142.387 103.783 120.136 103.771C119.273 103.771 118.398 103.777 117.546 103.661C115.698 103.401 114.696 102.266 114.737 100.419C114.777 98.5719 115.831 97.5007 117.685 97.3096C118.404 97.2343 119.128 97.2691 119.852 97.2691C140.44 97.2575 161.029 97.2228 181.611 97.2691C183.61 97.2691 183.65 96.7422 182.741 95.2715C180.453 91.5484 177.11 89.8461 172.794 89.8519C166.798 89.8635 160.803 89.8519 154.807 89.8519C138.123 89.8519 121.433 89.8693 104.749 89.8403C100.138 89.8345 96.7087 91.7279 94.4784 95.781C93.876 96.8696 94.0555 97.298 95.3821 97.2749C98.2729 97.2228 101.164 97.1707 104.048 97.3038C106.754 97.4254 108.121 100.124 106.702 102.278C105.833 103.604 104.489 103.771 103.075 103.771C98.8116 103.777 94.5537 103.812 90.2901 103.754C89.004 103.737 87.9207 104.049 86.849 104.75C70.924 115.149 62.5937 129.85 62.107 148.836C61.8579 158.575 62.1302 168.332 62.0028 178.077C61.9738 180.179 62.5126 180.659 64.598 180.653C105.989 180.584 147.38 180.601 188.771 180.601C189.495 180.601 190.22 180.566 190.938 180.624C192.792 180.763 194.113 182.089 194.141 183.792C194.165 185.477 192.861 186.889 191.036 187.08C190.324 187.156 189.594 187.104 188.87 187.104C147.479 187.104 106.088 187.104 64.6965 187.104C64.1172 187.104 63.5379 187.104 62.9644 187.109C62.5068 187.115 62.2171 187.231 62.0549 187.781C60.9426 191.614 63.0166 194.48 66.979 194.48C90.9621 194.48 114.945 194.48 138.928 194.48V194.492ZM198.069 101.699V99.3246C198.069 82.0699 197.971 64.821 198.11 47.5663C198.191 37.6998 193.666 30.85 185.203 26.2642C184.618 25.9458 184.154 25.5926 183.471 26.1426C179.636 29.2462 175.621 28.9393 171.317 27.0459C161.84 22.8828 151.858 20.7751 141.524 20.4393C129.167 20.0398 117.262 22.2169 105.914 27.1791C101.76 28.9972 97.8268 29.1188 94.1251 26.2005C93.5979 25.7836 93.2098 25.7373 92.6189 26.0616C84.4507 30.4737 79.4629 36.9355 79.4513 46.5588C79.4282 64.3867 79.4455 82.2204 79.4513 100.048C79.4513 100.512 79.2138 101.056 79.7584 101.473C82.0814 100.083 84.416 98.6877 86.7448 97.2865C87.214 97.0027 87.3356 96.5048 87.4978 96.0184C90.3886 87.5126 96.2048 83.3495 105.19 83.3379C109.957 83.3321 114.725 83.3379 119.487 83.3379C125.442 83.3379 125.407 83.3379 125.135 77.3683C125.083 76.2508 124.712 75.9555 123.64 75.8049C118.183 75.058 114.499 70.698 114.702 65.3884C114.91 59.9862 119.029 55.6783 124.573 55.5856C134.033 55.4235 143.499 55.4351 152.953 55.5856C158.144 55.6667 162.002 59.3898 162.784 64.5315C163.462 68.9899 160.554 73.6336 156.215 75.3649C154.992 75.8512 153.127 75.1506 152.6 76.5634C152.125 77.8315 152.484 79.4122 152.472 80.854C152.472 81.0682 152.501 81.294 152.472 81.5024C152.2 83.0542 152.889 83.3958 154.372 83.3785C160.513 83.2974 166.648 83.3264 172.788 83.3495C181.287 83.3785 187.294 87.7616 189.982 95.8447C190.208 96.5222 190.428 97.1185 191.164 97.5296C193.412 98.7977 195.59 100.187 198.063 101.699H198.069ZM13.3356 100.842C13.6079 100.94 13.9265 100.981 14.1467 101.149C18.3871 104.42 20.8144 108.786 21.9556 113.962C24.3076 124.657 26.7291 135.339 29.0463 146.04C31.7632 158.628 41.1537 166.577 53.4986 166.734C55.0512 166.751 55.6073 166.456 55.5725 164.759C55.4683 159.056 55.4509 153.347 55.6305 147.649C55.6884 145.756 55.1554 145.42 53.4001 145.438C45.9909 145.513 41.565 142.415 38.877 135.473C35.0305 125.537 31.1723 115.607 27.3837 105.647C26.4221 103.117 24.8985 101.16 22.2163 100.587C19.4125 99.9847 16.5334 100.216 13.3356 100.842Z" fill="#030303"/>
<path d="M0 68.8625C0.926883 67.855 0.695162 66.4712 1.17019 65.3074C1.76687 63.8482 2.16659 62.3023 2.85596 60.8895C3.69594 59.1698 5.42226 58.6139 7.04431 59.3319C8.63739 60.0383 9.30938 61.6769 8.72428 63.4719C8.15077 65.2437 7.39768 66.9807 7.01534 68.793C6.12901 72.9504 6.34915 77.0961 7.59465 81.1724C7.76264 81.7225 7.95961 82.2841 7.98278 82.8516C8.0465 84.5597 7.305 85.8161 5.58447 86.2099C3.8176 86.6152 2.51996 85.9262 1.73791 84.2296C0.938469 82.4926 1.10647 80.4544 0 78.8216V68.8567L0 68.8625Z" fill="#030303"/>
<path d="M13.8859 73.8074C13.9206 70.0959 14.9576 66.7203 17.2342 63.7557C19.227 61.1617 20.9649 58.5156 20.907 54.9952C20.878 53.2176 22.6565 51.9553 24.3191 52.0885C26.0396 52.2275 27.2503 53.565 27.3141 55.4526C27.4647 60.0384 25.4719 63.7962 22.7144 67.2587C20.4435 70.1133 19.8816 73.321 20.7795 76.8241C21.1677 78.3237 22.0656 79.5339 22.923 80.7788C24.2785 82.7416 24.1105 84.5598 22.5174 85.7294C20.9823 86.8527 19.0938 86.401 17.6629 84.5887C15.1719 81.4273 13.8453 77.8547 13.8801 73.8074H13.8859Z" fill="#030303"/>
<path d="M138.928 194.492C114.945 194.492 90.962 194.492 66.9789 194.492C63.0165 194.492 60.9426 191.626 62.0549 187.793C62.2171 187.242 62.5067 187.132 62.9644 187.121C63.5437 187.115 64.123 187.115 64.6965 187.115C106.088 187.115 147.479 187.115 188.87 187.115C189.594 187.115 190.318 187.167 191.036 187.092C192.861 186.901 194.17 185.488 194.141 183.803C194.112 182.101 192.792 180.775 190.938 180.636C190.22 180.584 189.495 180.613 188.771 180.613C147.38 180.613 105.989 180.595 64.598 180.665C62.5125 180.665 61.9795 180.19 62.0027 178.088C62.1302 168.343 61.8579 158.587 62.107 148.848C62.5878 129.862 70.9182 115.155 86.849 104.762C87.9207 104.061 89.004 103.748 90.29 103.766C94.5537 103.824 98.8115 103.789 103.075 103.783C104.483 103.783 105.827 103.609 106.702 102.289C108.121 100.135 106.748 97.437 104.048 97.3154C101.164 97.188 98.2728 97.2343 95.3821 97.2864C94.0555 97.3096 93.8817 96.8811 94.4784 95.7925C96.7087 91.7394 100.138 89.846 104.749 89.8518C121.433 89.8808 138.123 89.8634 154.807 89.8634C160.803 89.8634 166.798 89.875 172.794 89.8634C177.104 89.8576 180.453 91.5599 182.741 95.283C183.644 96.7537 183.604 97.2864 181.611 97.2806C161.023 97.2343 140.434 97.269 119.852 97.2806C119.128 97.2806 118.404 97.2517 117.685 97.3211C115.831 97.5122 114.771 98.5834 114.737 100.43C114.696 102.278 115.698 103.412 117.546 103.673C118.398 103.795 119.272 103.783 120.136 103.783C142.387 103.8 164.632 103.824 186.883 103.795C188.476 103.795 189.814 104.159 191.123 105.034C206.602 115.421 214.875 129.879 215.361 148.535C215.622 158.639 215.379 168.749 215.448 178.858C215.46 180.317 215.019 180.671 213.635 180.624C210.895 180.526 208.143 180.59 205.403 180.624C203.016 180.653 201.603 181.84 201.562 183.792C201.528 185.835 202.982 187.092 205.484 187.121C208.23 187.15 210.976 187.202 213.716 187.121C214.956 187.086 215.46 187.295 215.454 188.731C215.442 193.403 214.469 194.48 209.794 194.48C186.17 194.48 162.552 194.48 138.928 194.48V194.503V194.492Z" fill="#6610F2"/>
<path d="M13.3354 100.842C16.5332 100.222 19.4123 99.9905 22.2161 100.587C24.8925 101.16 26.4161 103.117 27.3835 105.648C31.1779 115.607 35.0361 125.537 38.8769 135.473C41.5648 142.409 45.9907 145.507 53.4 145.438C55.1494 145.42 55.6882 145.756 55.6303 147.649C55.4507 153.347 55.4681 159.056 55.5723 164.759C55.6013 166.456 55.051 166.757 53.4984 166.734C41.1593 166.577 31.7688 158.628 29.0461 146.04C26.7347 135.334 24.3132 124.657 21.9555 113.962C20.82 108.792 18.387 104.42 14.1465 101.149C13.9263 100.981 13.6077 100.94 13.3354 100.842Z" fill="#6610F2"/>
</g>
<defs>
<clipPath id="clip0_2172_1149">
<rect width="222" height="201" fill="white"/>
</clipPath>
</defs>
</svg>
