<svg width="201" height="201" viewBox="0 0 201 201" fill="none" xmlns="http://www.w3.org/2000/svg">
<g clip-path="url(#clip0_2187_115)">
<path d="M0 108.702V92.2044C0.608455 91.9787 0.361926 91.4381 0.403888 91.0287C0.917928 86.0159 1.69423 81.0503 2.93212 76.1635C15.4422 26.7966 61.4382 -5.15929 112.145 0.688094C141.104 4.02646 164.157 17.9836 181.661 41.2314C183.423 43.5724 183.381 44.2391 181.592 46.5854C179.384 47.2205 177.894 46.3387 176.688 44.4858C175.576 42.7851 174.349 41.1369 172.628 39.536C172.691 40.4073 172.738 40.9847 172.78 41.5568C172.749 43.1893 172.817 44.8322 172.665 46.4594C172.119 52.3225 170.703 57.9232 167.168 62.7733C165.085 65.634 162.384 67.5919 158.718 67.8386C156.111 68.0118 153.493 68.0905 150.892 68.3057C146.538 68.6627 142.132 68.7676 138.03 70.5418C130.771 73.6807 128.783 84.3204 134.469 89.6272C137.747 92.6873 141.597 92.8238 145.641 91.5641C151.018 89.8896 155.266 86.4148 159.468 82.8665C162.012 80.7196 164.524 78.515 167.587 77.0978C172.623 74.7725 177.459 75.5126 181.566 79.2341C182.143 79.759 182.71 80.2997 183.281 80.8298C188.322 87.2756 191.349 94.8237 194.9 102.12C195.057 101.689 195.057 101.317 195.057 100.939C195.104 86.4883 192.062 72.7306 185.846 59.6764C184.64 57.1464 185.007 55.9233 187.268 54.7003C189.361 54.2332 190.363 55.4352 191.165 57.1254C200.475 76.8354 203.166 97.4534 199.274 118.848C191.606 160.982 157.7 193.542 115.145 199.945C112.743 200.308 110.272 200.203 107.938 201.011H92.2386C91.9501 200.344 91.3364 200.633 90.8696 200.586C72.6212 198.743 56.0565 192.471 41.2228 181.658C39.0355 180.062 38.7838 179.254 39.7332 176.687C41.5271 175.307 43.1321 175.706 44.8631 176.976C54.1 183.758 64.2497 188.665 75.3016 191.731C76.5971 192.093 77.1846 191.972 77.5203 190.592C78.1025 188.188 78.8369 185.82 79.5083 183.437C81.4805 176.293 82.6135 169.013 83.1695 161.628C83.5577 156.473 81.3074 152.815 76.8122 150.453C73.2926 148.6 69.4635 147.818 65.582 147.193C60.9871 146.458 56.3241 146.568 51.7134 146.043C44.3962 145.214 41.3697 140.579 43.4731 133.488C43.9766 131.787 44.7319 130.197 45.4715 128.596C46.295 126.811 46.9874 124.984 47.3074 123.032C47.8057 120.014 46.7199 118.255 43.8035 117.405C38.8205 115.951 36.8955 116.66 34.1312 121.137C31.9806 124.617 28.9436 126.092 24.8785 125.714C19.0614 125.173 15.311 121.914 12.9664 116.801C11.3089 113.19 10.6585 109.321 10.4224 105.385C10.008 98.4035 10.585 91.5221 12.9244 84.8873C14.2515 81.1238 17.2466 79.1817 21.1963 79.1922C27.5903 79.2079 33.0874 84.4674 33.4073 90.8922C33.4808 92.3619 33.5122 93.8421 34.4669 95.3591C34.7851 90.6805 36.3674 86.546 39.2139 82.9557C40.9658 80.7511 42.5184 78.4101 43.9609 75.9955C45.2407 73.8434 46.0747 73.5442 48.4928 74.2004C50.2028 76.1215 50.2657 76.8511 48.9859 79.0662C47.1185 82.2996 44.9995 85.3755 42.5499 88.1837C40.8347 90.1468 40.0531 92.2254 40.5357 94.8289C40.6983 95.7003 40.5724 96.6661 40.3993 97.5532C39.6125 101.621 35.411 103.39 31.9439 101.122C30.1185 99.931 28.9908 98.1935 28.2984 96.1569C27.7686 94.598 27.6218 92.9708 27.5326 91.3331C27.37 88.4881 25.8698 86.5775 23.2891 85.5172C20.4986 84.3729 18.8883 85.1183 18.0701 87.9895C16.5384 93.3802 15.9772 98.9022 16.2709 104.487C16.4912 108.686 17.0682 112.828 19.502 116.444C21.0914 118.806 23.3416 119.851 26.1636 119.877C28.6289 119.903 29.1796 117.867 30.108 116.308C31.7341 113.578 33.8899 111.573 37.1053 111.153C40.5147 110.712 43.9084 111.006 47.1186 112.355C51.5928 114.234 53.9165 118.444 53.2293 123.284C52.8517 125.956 52.0177 128.491 50.8742 130.932C50.0717 132.648 49.2324 134.349 48.8233 136.212C48.3092 138.527 48.902 139.587 51.2519 139.986C53.2398 140.322 55.275 140.401 57.2997 140.511C62.7863 140.815 68.2361 141.304 73.5496 142.842C85.3201 146.248 89.852 152.846 88.7977 164.992C88.247 171.323 87.0143 177.527 85.6558 183.716C84.869 186.403 84.1923 189.132 83.2534 191.768C82.7132 193.279 83.1748 193.557 84.5595 193.788C95.0134 195.515 105.473 195.573 115.921 193.867C123.994 192.55 131.783 190.209 139.252 186.844C139.971 186.518 140.642 186.314 140.396 185.185C139.284 180.046 137.521 175.181 134.615 170.766C132.397 166.588 129.375 162.971 126.464 159.281C123.548 155.586 120.427 152.048 117.904 148.059C111.945 138.642 112.349 127.483 119.063 118.717C122.824 113.804 127.592 110.088 133.231 107.526C139.216 104.807 145.478 102.991 151.988 102.167C162.515 100.829 172.528 101.637 180.475 109.915C183.738 113.489 187.845 115.594 192.445 116.848C192.812 116.948 193.205 117.085 193.546 116.77C194.05 116.303 194.213 112.334 193.709 111.767C191.511 109.3 190.1 106.382 188.773 103.395C187.325 100.136 186.061 96.7868 184.168 93.7424C182.877 90.6455 181.215 87.7638 179.106 85.1655C175.828 81.1185 172.513 80.6566 168.154 83.5331C165.416 85.3387 163.04 87.6011 160.501 89.6587C156.258 93.1073 151.72 96.0257 146.391 97.5007C139.279 99.4743 132.46 97.1857 128.384 91.6638C122.315 83.4281 124.896 67.2979 138.964 63.9176C144.802 62.5161 150.75 62.3639 156.677 62.0962C159.756 61.9597 161.734 60.6474 163.155 58.1542C166.381 52.501 167.32 46.3807 166.659 39.9821C166.491 38.3602 166.061 36.7592 165.08 35.3892C164.671 34.8171 164.178 33.9983 163.438 34.2135C162.793 34.4024 162.93 35.321 162.882 35.9614C162.736 37.9403 163.265 39.8561 163.465 41.8088C164.126 48.2021 160.066 54.4956 154.222 56.0966C144.886 58.6581 136.624 51.5562 137.532 41.7668C138.271 33.804 141.56 26.8281 145.835 20.2301C147.209 18.1043 147.241 18.1043 144.928 16.8865C126.91 7.44356 107.786 4.01071 87.6228 6.6772C73.5601 8.53535 60.5885 13.4537 48.6816 21.1959C47.3284 22.0778 46.9297 22.6394 48.005 24.1196C49.5366 26.2245 50.8322 28.5183 52.0701 30.8121C57.5672 40.9847 59.6234 51.6244 56.1772 62.9518C55.3851 65.5658 54.7085 66.0224 51.9128 65.8387C50.2133 64.6734 49.9195 63.1722 50.5332 61.2248C52.0072 56.5375 52.3166 51.7294 51.5718 46.8741C50.4336 39.4625 46.9087 33.0849 42.8803 26.9174C42.2247 25.9148 41.7893 26.1877 41.0865 26.7599C36.5073 30.4814 32.2166 34.5179 28.4977 39.095C5.93768 66.8675 0.403889 97.8156 11.183 131.845C11.9331 134.217 13.1814 135.126 15.4736 135.488C19.1401 136.07 22.8276 136.721 26.3944 137.734C34.021 139.902 35.9198 147.114 30.5486 152.941C29.3003 154.295 27.9312 155.528 26.3681 156.473C25.1932 157.187 24.9939 157.733 25.9642 158.799C27.8998 160.924 29.7146 163.16 31.6239 165.307C32.332 166.105 32.9772 166.898 33.1241 167.99C33.0244 168.856 32.6677 169.611 32.159 170.299C30.3808 171.422 28.9174 171.081 27.4906 169.548C13.1342 154.174 4.30115 136.128 1.10151 115.316C0.760569 113.111 0.923173 110.812 0.0052453 108.702H0ZM139.793 167.606C142.253 172.078 144.503 176.645 145.594 181.674C145.924 183.201 146.328 183.343 147.676 182.55C158.812 176.005 168.322 167.633 176.095 157.318C183.575 147.392 188.915 136.412 191.999 124.349C192.193 123.599 192.639 122.901 191.349 122.617C186.806 121.62 182.804 119.462 179.059 116.765C177.926 115.688 176.735 114.66 175.665 113.521C172.46 110.13 168.437 108.503 163.91 107.888C156.231 106.849 148.856 108.308 141.571 110.581C134.825 112.686 128.888 116.061 124.303 121.546C120.291 126.344 118.843 131.803 120.054 137.997C120.941 142.532 123.522 146.117 126.281 149.608C130.938 155.497 135.806 161.224 139.798 167.606H139.793ZM161.393 28.0931C158.718 25.8308 156.079 23.9044 153.42 21.999C152.47 21.3219 152.046 21.5056 151.437 22.4137C148.809 26.34 146.517 30.4394 145.017 34.9326C143.957 38.103 143.024 41.3154 143.522 44.722C144.041 48.2808 146.05 50.1179 149.837 50.5536C153.247 50.9473 155.77 49.3621 157.023 46.1025C157.889 43.8506 157.443 41.6146 157.191 39.3312C156.709 34.9903 156.672 30.7386 161.393 28.0879V28.0931ZM15.1379 141.545C16.5017 144.033 17.5823 146.106 18.7624 148.112C19.6384 149.602 20.3413 152.19 21.6841 152.174C23.5881 152.153 25.146 150.143 26.5517 148.594C26.6409 148.5 26.7143 148.39 26.793 148.29C28.3037 146.28 27.9627 144.579 25.5866 143.676C22.3607 142.448 18.9251 142.086 15.1379 141.55V141.545Z" fill="#020303"/>
<path d="M180.48 109.914C172.534 101.637 162.52 100.834 151.993 102.167C145.484 102.991 139.221 104.807 133.236 107.526C127.597 110.088 122.829 113.804 119.068 118.717C112.354 127.483 111.945 138.642 117.909 148.059C120.432 152.048 123.553 155.586 126.469 159.281C129.381 162.971 132.397 166.582 134.621 170.766C132.234 172.225 129.774 173.511 127.235 174.703C114.054 180.897 100.138 183.589 85.6558 183.71C87.0143 177.521 88.2469 171.317 88.7977 164.987C89.852 152.841 85.3253 146.243 73.5496 142.836C68.2361 141.298 62.7863 140.81 57.2997 140.505C55.2802 140.395 53.2398 140.316 51.2518 139.981C48.9019 139.582 48.3092 138.521 48.8233 136.207C49.2376 134.343 50.0769 132.637 50.8742 130.926C52.0124 128.485 52.8464 125.955 53.2293 123.278C53.9165 118.433 51.598 114.229 47.1185 112.35C43.9084 111.001 40.5147 110.707 37.1053 111.148C33.8899 111.562 31.7288 113.573 30.108 116.302C29.1796 117.861 28.6288 119.898 26.1636 119.872C23.3363 119.845 21.0913 118.801 19.502 116.439C17.063 112.822 16.4912 108.681 16.2709 104.482C15.9772 98.8966 16.5384 93.3747 18.0701 87.984C18.8831 85.1128 20.4986 84.3674 23.2891 85.5117C25.8698 86.5667 27.37 88.4826 27.5326 91.3276C27.627 92.9653 27.7686 94.5924 28.2984 96.1514C28.9908 98.188 30.1185 99.9254 31.9439 101.117C35.411 103.385 39.6178 101.621 40.3993 97.5476C40.5724 96.6606 40.6983 95.6947 40.5357 94.8234C40.0531 92.2199 40.8347 90.1413 42.5499 88.1782C45.0047 85.37 47.1185 82.2993 48.9859 79.0607C50.2657 76.8456 50.1975 76.1107 48.4928 74.1948C49.4002 71.3131 51.1889 68.7936 51.9232 65.8384C54.719 66.0221 55.3904 65.5655 56.1877 62.9515C59.6286 51.6241 57.5777 40.9844 52.0806 30.8118C50.8375 28.518 49.5471 26.2242 48.0155 24.1194C46.9402 22.6391 47.3388 22.0723 48.6921 21.1957C60.599 13.4534 73.5706 8.53508 87.6333 6.67693C107.791 4.01044 126.915 7.44329 144.943 16.8915C147.262 18.104 147.23 18.1093 145.851 20.2351C141.581 26.8278 138.287 33.8038 137.548 41.7718C136.64 51.5611 144.901 58.663 154.238 56.1015C160.081 54.5006 164.141 48.207 163.48 41.8137C163.281 39.8664 162.746 37.9505 162.898 35.9664C162.945 35.3312 162.809 34.4127 163.454 34.2184C164.194 33.998 164.687 34.8168 165.096 35.3942C166.072 36.759 166.507 38.3652 166.675 39.9871C167.336 46.3856 166.397 52.506 163.171 58.1591C161.749 60.6524 159.772 61.9647 156.693 62.1011C150.766 62.3636 144.812 62.5158 138.98 63.9225C124.917 67.3081 122.331 83.4383 128.4 91.6688C132.47 97.1907 139.294 99.474 146.407 97.5056C151.736 96.0307 156.273 93.1122 160.517 89.6636C163.05 87.6008 165.432 85.3385 168.17 83.5381C172.534 80.6668 175.843 81.1288 179.122 85.1705C181.225 87.7687 182.893 90.6557 184.184 93.7474C184.037 93.9521 183.785 94.1358 183.753 94.3562C183.192 98.0043 182.746 101.668 182.08 105.3C181.786 106.886 181.886 108.686 180.491 109.925L180.48 109.914ZM100.631 40.2548C100.631 40.2548 100.631 40.2285 100.631 40.2181C98.7376 40.2181 96.8388 40.1236 94.9557 40.239C92.0603 40.4123 90.3241 42.0499 90.1143 44.8897C89.9307 47.3619 89.8678 49.85 90.2349 52.3222C90.964 57.2091 95.2861 60.9464 100.322 61.0566C105.163 61.1668 109.763 57.5502 110.644 52.8261C111.148 50.1177 111.069 47.3514 110.802 44.622C110.55 42.0657 108.882 40.47 106.312 40.281C104.429 40.1446 102.53 40.2548 100.636 40.2548H100.631ZM77.3839 45.0104C77.3839 44.16 77.4574 43.3045 77.3682 42.4646C77.2108 40.9739 76.3349 40.0868 74.84 39.9294C73.2664 39.7666 72.0757 40.4543 71.74 42.008C71.3151 43.9921 71.3151 46.0497 71.7452 48.0338C72.0599 49.493 73.1929 50.2331 74.6511 50.1387C76.188 50.0389 77.2003 49.1518 77.363 47.5562C77.4521 46.7163 77.3787 45.8555 77.3734 45.0104H77.3839ZM129.496 45.0104C129.454 45.0104 129.412 45.0104 129.37 45.0104C129.37 44.16 129.47 43.2992 129.349 42.4646C129.097 40.7639 127.828 39.7614 126.197 39.9189C124.502 40.0816 123.616 41.0946 123.558 42.7638C123.501 44.3333 123.49 45.908 123.579 47.4722C123.668 49.0731 124.681 49.9969 126.212 50.1334C127.765 50.2699 128.882 49.472 129.239 47.9288C129.454 46.9893 129.417 45.9867 129.496 45.0156V45.0104Z" fill="#68BEE0"/>
<path d="M51.918 65.8435C51.1837 68.7935 49.3951 71.3182 48.4876 74.1999C46.0748 73.5438 45.2355 73.843 43.9557 75.9898C42.5132 78.4096 40.9606 80.7454 39.2087 82.95C36.3622 86.5403 34.7799 90.6748 34.4617 95.3534C33.5018 93.8364 33.4756 92.3562 33.4021 90.8865C33.0822 84.467 27.5903 79.2022 21.1911 79.1865C17.2413 79.176 14.2463 81.1234 12.9192 84.8816C10.5798 91.5111 10.0028 98.3978 10.4172 105.379C10.6532 109.316 11.2984 113.184 12.9612 116.796C15.3111 121.908 19.0562 125.168 24.8733 125.708C28.9331 126.086 31.9754 124.611 34.126 121.131C36.8903 116.654 38.8153 115.945 43.7983 117.399C46.7147 118.25 47.8005 120.008 47.3022 123.026C46.9822 124.979 46.2898 126.805 45.4663 128.59C44.7267 130.191 43.9767 131.781 43.4679 133.482C41.3593 140.574 44.3858 145.208 51.7082 146.038C56.3189 146.563 60.9819 146.452 65.5768 147.187C69.4583 147.812 73.2874 148.594 76.807 150.447C81.3022 152.814 83.5525 156.468 83.1643 161.622C82.6083 169.002 81.4753 176.288 79.5031 183.432C77.5623 183.258 75.6058 183.185 73.6808 182.896C62.865 181.28 52.4583 178.282 42.702 173.254C39.4657 171.585 36.3133 169.753 33.1189 167.994C32.9773 166.897 32.3321 166.11 31.6187 165.312C29.7094 163.16 27.8946 160.924 25.959 158.803C24.9887 157.738 25.188 157.192 26.3629 156.478C27.926 155.533 29.2951 154.3 30.5434 152.945C35.9146 147.124 34.0158 139.912 26.3892 137.739C22.8224 136.726 19.1401 136.075 15.4684 135.493C13.1762 135.125 11.9279 134.222 11.1778 131.85C0.403924 97.8152 5.93772 66.8671 28.4978 39.1104C32.2167 34.5332 36.5073 30.4967 41.0865 26.7752C41.7946 26.1978 42.2247 25.9301 42.8804 26.9327C46.9088 33.1003 50.4336 39.4725 51.5719 46.8894C52.3167 51.7447 52.0072 56.5528 50.5333 61.2401C49.9196 63.1875 50.2186 64.6835 51.9128 65.854L51.918 65.8435Z" fill="#96D48E"/>
<path d="M139.793 167.606C135.801 161.218 130.933 155.492 126.275 149.607C123.516 146.117 120.936 142.537 120.049 137.997C118.838 131.803 120.285 126.344 124.298 121.546C128.882 116.061 134.82 112.686 141.565 110.581C148.851 108.308 156.226 106.844 163.905 107.888C168.432 108.502 172.455 110.13 175.66 113.52C176.735 114.654 177.921 115.683 179.054 116.764C178.529 118.234 178.026 119.714 177.47 121.174C174.653 128.575 170.902 135.467 166.381 141.965C161.298 149.277 155.256 155.686 148.458 161.381C145.735 163.664 142.945 165.906 139.793 167.601V167.606Z" fill="#96D58E"/>
<path d="M139.793 167.606C142.95 165.905 145.736 163.664 148.458 161.386C155.261 155.691 161.304 149.277 166.381 141.97C170.897 135.472 174.653 128.58 177.47 121.179C178.026 119.719 178.529 118.239 179.054 116.77C182.794 119.468 186.801 121.625 191.343 122.622C192.629 122.906 192.183 123.604 191.994 124.354C188.91 136.417 183.57 147.397 176.09 157.323C168.317 167.638 158.812 176.015 147.671 182.555C146.328 183.343 145.924 183.206 145.589 181.679C144.498 176.655 142.247 172.084 139.787 167.611L139.793 167.606Z" fill="#87BF80"/>
<path d="M183.276 80.8238C182.704 80.2937 182.138 79.753 181.561 79.2281C177.459 75.5066 172.618 74.7665 167.582 77.0918C164.514 78.509 162.007 80.7136 159.463 82.8604C155.256 86.4087 151.007 89.8836 145.636 91.558C141.592 92.8178 137.747 92.6813 134.463 89.6211C128.772 84.3144 130.765 73.6747 138.025 70.5358C142.127 68.7616 146.533 68.6566 150.886 68.2997C153.488 68.0845 156.106 68.011 158.712 67.8325C162.384 67.5858 165.08 65.6332 167.163 62.7672C170.698 57.9172 172.114 52.3165 172.66 46.4533C172.812 44.8314 172.744 43.1885 172.775 41.5508C173.336 41.5718 173.509 42.0179 173.719 42.4221C174.968 44.8524 176.074 47.3457 177.092 49.8862C180.491 58.3738 182.558 67.1921 183.591 76.2572C183.759 77.7479 184.089 79.3488 183.271 80.8186L183.276 80.8238Z" fill="#96D48E"/>
<path d="M85.6505 183.71C100.133 183.589 114.049 180.901 127.23 174.702C129.769 173.511 132.229 172.225 134.615 170.766C137.516 175.18 139.284 180.041 140.396 185.185C140.637 186.313 139.971 186.518 139.252 186.843C131.783 190.208 123.999 192.544 115.921 193.866C105.472 195.572 95.0134 195.515 84.5595 193.788C83.1695 193.557 82.7131 193.279 83.2534 191.767C84.1923 189.132 84.869 186.402 85.6558 183.715L85.6505 183.71Z" fill="#5EAACA"/>
<path d="M183.276 80.8238C184.089 79.3593 183.764 77.7584 183.596 76.2624C182.563 67.1974 180.496 58.3791 177.097 49.8914C176.08 47.3509 174.973 44.8576 173.724 42.4274C173.515 42.0232 173.342 41.577 172.78 41.556C172.738 40.9786 172.696 40.4065 172.628 39.5352C174.349 41.1361 175.571 42.7843 176.688 44.485C177.9 46.3379 179.389 47.2197 181.592 46.5846C183.465 48.5005 184.467 50.9885 185.894 53.1983C186.266 53.7809 186.423 54.5525 187.273 54.6943C185.012 55.9225 184.645 57.1403 185.852 59.6756C192.067 72.7298 195.11 86.4875 195.062 100.938C195.062 101.311 195.062 101.689 194.905 102.119C191.354 94.8229 188.322 87.2748 183.287 80.8291L183.276 80.8238Z" fill="#86BE7F"/>
<path d="M161.393 28.0931C156.672 30.7386 156.714 34.9956 157.191 39.3365C157.443 41.6146 157.889 43.8559 157.023 46.1077C155.77 49.3726 153.247 50.9578 149.837 50.5589C146.055 50.1179 144.046 48.286 143.522 44.7272C143.024 41.3206 143.957 38.103 145.017 34.9378C146.517 30.4447 148.814 26.3505 151.437 22.419C152.04 21.5161 152.47 21.3272 153.42 22.0043C156.079 23.9097 158.712 25.8308 161.393 28.0984V28.0931Z" fill="#95D38D"/>
<path d="M33.1241 167.994C36.3132 169.753 39.4656 171.584 42.7072 173.254C52.4635 178.282 62.8649 181.274 73.686 182.896C75.611 183.185 77.5675 183.258 79.5083 183.431C78.8369 185.815 78.1025 188.182 77.5203 190.586C77.1846 191.966 76.6024 192.087 75.3016 191.725C64.2497 188.659 54.1 183.757 44.8631 176.97C43.1321 175.7 41.527 175.301 39.7332 176.681C36.9112 174.912 34.7186 172.388 32.1589 170.304C32.6677 169.611 33.0297 168.855 33.1241 167.994Z" fill="#86BE7F"/>
<path d="M180.48 109.914C181.881 108.68 181.781 106.88 182.07 105.289C182.736 101.662 183.182 97.9933 183.743 94.3452C183.775 94.1248 184.026 93.941 184.173 93.7363C186.067 96.786 187.331 100.13 188.779 103.389C190.106 106.371 191.517 109.289 193.714 111.761C194.223 112.328 194.055 116.297 193.552 116.764C193.211 117.079 192.817 116.942 192.45 116.842C187.85 115.588 183.738 113.483 180.48 109.908V109.914Z" fill="#5DA9C9"/>
<path d="M15.1379 141.544C18.925 142.085 22.3607 142.442 25.5866 143.67C27.9627 144.573 28.3037 146.274 26.793 148.284C26.7143 148.389 26.6409 148.494 26.5517 148.588C25.146 150.137 23.5881 152.147 21.6841 152.168C20.3413 152.184 19.6437 149.596 18.7624 148.106C17.5823 146.095 16.5017 144.027 15.1379 141.539V141.544Z" fill="#66BADC"/>
<path d="M100.631 40.2548C102.525 40.2548 104.423 40.1446 106.306 40.281C108.877 40.47 110.55 42.0604 110.796 44.622C111.064 47.3514 111.143 50.1177 110.639 52.8261C109.758 57.5555 105.158 61.1668 100.316 61.0566C95.2808 60.9411 90.9587 57.2091 90.2296 52.3222C89.8624 49.8552 89.9254 47.3619 90.1089 44.8896C90.3188 42.0499 92.055 40.4123 94.9504 40.239C96.8387 40.1236 98.7322 40.218 100.626 40.218C100.626 40.2285 100.626 40.2443 100.626 40.2548H100.631ZM100.573 46.1862C97.4786 46.1862 95.9819 47.6804 96.0833 50.6688C96.1725 53.3143 97.9769 55.1514 100.479 55.1462C102.981 55.1462 104.78 53.309 104.869 50.6635C104.971 47.6786 103.539 46.1862 100.573 46.1862Z" fill="#020304"/>
<path d="M77.3839 45.0105C77.3839 45.8608 77.4574 46.7164 77.3682 47.5563C77.2004 49.152 76.1933 50.039 74.6564 50.1388C73.193 50.2332 72.0652 49.4931 71.7505 48.0339C71.3204 46.0445 71.3204 43.9922 71.7452 42.0081C72.0809 40.4596 73.2716 39.7667 74.8452 39.9295C76.3349 40.0817 77.2161 40.974 77.3735 42.4647C77.4626 43.3046 77.3892 44.1654 77.3892 45.0105H77.3839Z" fill="#030506"/>
<path d="M129.491 45.0153C129.412 45.9864 129.449 46.9889 129.234 47.9285C128.877 49.4717 127.76 50.2696 126.207 50.1331C124.676 49.9966 123.663 49.078 123.574 47.4718C123.485 45.9076 123.501 44.3329 123.553 42.7635C123.611 41.0943 124.503 40.0812 126.192 39.9185C127.823 39.7611 129.092 40.7636 129.344 42.4643C129.465 43.2936 129.365 44.1597 129.365 45.0101C129.407 45.0101 129.449 45.0101 129.491 45.0101V45.0153Z" fill="#030506"/>
<path d="M100.568 46.1855C103.534 46.1855 104.966 47.678 104.864 50.6629C104.775 53.3084 102.976 55.1456 100.474 55.1456C97.9719 55.1456 96.1727 53.3137 96.0783 50.6682C95.9769 47.6798 97.4736 46.1855 100.568 46.1855Z" fill="#414F55"/>
</g>
<defs>
<clipPath id="clip0_2187_115">
<rect width="201" height="201" fill="white"/>
</clipPath>
</defs>
</svg>
