<svg width="201" height="201" viewBox="0 0 201 201" fill="none" xmlns="http://www.w3.org/2000/svg">
<g clip-path="url(#clip0_2187_178)">
<path d="M127.27 65.165C124.181 65.8363 124.181 65.8363 124.719 68.4322C133.045 106.878 141.372 145.279 149.698 183.724C150.325 186.499 150.996 189.274 151.489 192.094C151.757 193.705 152.25 194.331 154.085 194.331C164.605 194.197 175.17 194.331 185.69 194.242C187.302 194.242 187.615 194.689 187.57 196.211C187.481 201 187.57 201 182.691 201C127.002 201 71.3125 201 15.6235 201.045C13.6985 201.045 13.2061 200.552 13.2956 198.673C13.4299 194.287 13.3404 194.287 17.7722 194.287C27.6208 194.287 37.4693 194.287 47.2731 194.287C48.5713 194.287 49.0638 193.839 49.2876 192.675C58.2856 150.963 67.3284 109.295 76.3711 67.5818C76.6397 66.2839 75.2967 64.8965 74.0433 65.165C73.4166 65.2993 73.6404 65.7916 73.6404 66.1496C73.6404 67.5371 73.6404 68.9245 73.6404 70.312C73.5508 72.2812 72.2974 73.6239 70.3277 73.6239C65.8511 73.7134 61.3745 73.7134 56.9426 73.6239C54.7043 73.6239 53.5851 72.147 53.5851 69.5063C53.5851 55.99 53.5851 42.4289 53.5851 28.9125C53.5851 25.0635 53.5851 21.2592 53.5851 17.4102C53.5851 14.68 54.7938 13.4269 57.5246 13.4269C61.5535 13.4269 65.6272 13.4269 69.6562 13.4269C72.3869 13.4269 73.6404 14.6353 73.6851 17.3206C73.7747 21.0354 73.909 20.7669 77.4007 22.3333C80.6239 23.7655 83.1756 22.1991 85.9958 21.3935C86.8016 21.1697 86.6226 20.4088 86.7569 19.827C87.9655 14.322 89.1742 8.81697 90.3829 3.31196C90.9201 0.805611 91.905 0.0447562 94.4119 0C98.4408 0 102.515 0 106.543 0C109.006 0 109.99 0.805611 110.572 3.31196C111.781 8.81697 113.035 14.322 114.154 19.827C114.378 20.9011 114.915 21.2144 115.765 21.662C119.302 23.5417 122.704 22.8257 126.151 21.3935C127.046 21.0354 127.36 20.6326 127.27 19.7375C126.688 13.5164 128.703 13.1583 134.03 13.3373C137.164 13.4269 140.297 13.3373 143.431 13.3373C146.027 13.3373 147.325 14.5905 147.325 17.1864C147.325 34.686 147.325 52.1857 147.325 69.7301C147.325 72.4155 146.072 73.6239 143.296 73.6239C139.268 73.6239 135.194 73.6239 131.165 73.6239C128.479 73.6239 127.27 72.3707 127.225 69.5959C127.225 68.1189 127.225 66.6867 127.225 65.0755L127.27 65.165ZM103.858 165.419C103.858 174.862 103.858 183.993 103.858 193.078C103.858 194.197 104.439 194.287 105.29 194.287C118.048 194.287 130.807 194.287 143.565 194.287C144.863 194.287 145.132 193.839 144.863 192.675C144.281 190.079 143.699 187.528 143.207 184.933C142.938 183.456 142.312 182.56 140.834 181.889C132.329 178.174 123.913 174.325 115.497 170.566C111.692 168.865 107.931 167.164 103.902 165.374L103.858 165.419ZM97.1426 165.643C96.7397 165.687 96.6054 165.643 96.4711 165.732C84.1604 171.237 71.805 176.787 59.4943 182.292C58.6437 182.695 58.2408 183.187 58.0618 184.127C57.4798 186.991 56.8531 189.856 56.1816 192.675C55.9578 193.749 56.0025 194.331 57.3903 194.331C70.1486 194.331 82.907 194.331 95.6653 194.331C96.695 194.331 97.1426 194.152 97.1426 192.989C97.1426 183.948 97.1426 174.862 97.1426 165.687V165.643ZM107.215 53.6179C107.215 45.338 107.215 37.0134 107.215 28.7335C107.215 27.346 106.946 26.7642 105.424 26.809C102.156 26.9432 98.8437 26.8985 95.5758 26.809C94.2776 26.809 93.7404 27.0775 93.7851 28.5097C93.8299 45.2485 93.8299 61.9873 93.7851 78.7261C93.7851 80.1583 94.2776 80.4716 95.5758 80.4268C98.799 80.3373 102.022 80.2926 105.201 80.4268C106.946 80.5164 107.215 79.845 107.215 78.2786C107.125 70.0434 107.215 61.8083 107.215 53.5731V53.6179ZM92.3974 160.227C83.3994 156.199 74.7148 152.305 65.8958 148.322C63.9709 157.139 62.1355 165.732 60.2105 174.639C70.9992 169.805 81.5192 165.106 92.4422 160.182L92.3974 160.227ZM135.194 148.367C126.33 152.35 117.69 156.199 109.006 160.138C109.185 160.317 109.274 160.451 109.409 160.496C119.436 165.016 129.419 169.492 139.447 174.012C139.805 174.191 140.252 174.46 140.611 174.102C140.924 173.788 140.655 173.296 140.611 172.938C139.939 169.894 139.312 166.806 138.641 163.763C137.522 158.705 136.403 153.603 135.283 148.411L135.194 148.367ZM103.858 155.035C113.706 150.605 123.197 146.353 132.687 142.101C133.045 141.922 133.537 141.832 133.537 141.295C133.537 140.534 132.866 140.49 132.374 140.311C123.331 137.267 114.288 134.313 105.29 131.27C104.171 130.867 103.813 131.136 103.813 132.299C103.813 139.729 103.813 147.203 103.813 155.035H103.858ZM97.1426 155.035C97.1426 147.203 97.1426 139.729 97.1426 132.299C97.1426 131.27 96.9188 130.957 95.7996 131.315C86.7121 134.403 77.5798 137.401 68.4475 140.445C68.0446 140.579 67.4179 140.624 67.4179 141.295C67.4179 141.967 68.0446 141.967 68.4475 142.19C71.8497 143.757 75.2967 145.279 78.7437 146.845C84.7871 149.53 90.7858 152.216 97.1426 155.08V155.035ZM60.3001 43.324V62.3454C60.3001 67.0448 60.3001 66.9552 64.9557 67.0448C66.5673 67.0448 67.0598 66.6867 67.0598 64.986C66.9702 51.6039 67.0598 38.2218 67.0598 24.8844C67.0598 20.0955 67.0598 20.1403 62.3145 20.0955C60.7925 20.0955 60.3001 20.4088 60.3001 22.02C60.3896 29.1363 60.3001 36.2077 60.3001 43.324ZM133.985 43.324C133.985 49.6794 133.985 56.0347 133.985 62.3454C133.985 67 133.985 66.9105 138.686 67C140.431 67 140.745 66.4629 140.7 64.8965C140.655 51.5591 140.7 38.2665 140.7 24.9292C140.7 20.006 140.7 20.0955 135.821 20.0508C134.299 20.0508 133.985 20.5431 133.985 21.9753C134.03 29.0915 133.985 36.2077 133.985 43.324ZM116.571 28.9125C116.258 29.7181 116.437 30.2552 116.571 30.7923C118.496 39.654 120.376 48.4709 122.346 57.2879C122.48 57.9145 122.033 59.1677 123.331 59.1677C125.032 59.1677 127.27 57.7802 127.27 56.7061C127.27 47.6206 127.27 38.5798 127.27 29.4943C127.27 28.4202 127.002 28.1069 125.972 28.5097C122.838 29.7629 119.75 30.9713 116.526 28.8677L116.571 28.9125ZM127.315 113.681C127.315 113.681 127.36 113.278 127.405 113.099C119.66 109.608 111.871 106.117 103.947 102.536V121.468C111.826 118.828 119.57 116.277 127.315 113.681ZM73.6851 28.1964C73.6851 37.2819 73.7747 46.1436 73.6404 55.0053C73.6404 57.2432 74.1776 58.3173 76.4159 58.8544C77.9379 59.2124 78.3408 59.0782 78.6542 57.5564C80.4001 49.0975 82.2803 40.6834 84.0709 32.2692C84.2947 31.2398 84.8767 30.2104 84.3395 28.8677C80.6687 31.4636 77.356 29.1363 73.6404 28.1964H73.6851ZM97.0531 102.581C89.0847 106.162 81.3402 109.697 73.5956 113.188C73.5956 113.367 73.5956 113.546 73.6404 113.725C81.3849 116.321 89.1295 118.872 97.0531 121.513V102.581ZM89.98 126.212C83.9366 124.198 78.3408 122.363 72.7451 120.484C71.8497 120.17 71.805 120.752 71.6707 121.289C70.8201 125.138 70.0143 128.987 69.119 133.15C76.1025 130.822 82.7727 128.585 89.9353 126.212H89.98ZM131.926 133.15C131.031 129.032 130.225 125.273 129.374 121.468C129.24 120.886 129.285 120.17 128.255 120.528C122.704 122.408 117.108 124.243 111.154 126.257C118.227 128.629 124.942 130.867 131.881 133.194L131.926 133.15ZM75.252 105.043C81.1611 102.402 86.6226 99.9405 92.4422 97.3447C87.8313 95.2411 83.4889 93.3166 79.1914 91.3921C78.4751 91.0788 78.1618 91.3921 78.0275 92.0187C77.1321 96.2258 76.2368 100.433 75.252 105.088V105.043ZM125.838 105.043C124.853 100.388 123.958 96.2258 123.062 92.0187C122.928 91.3026 122.57 91.0788 121.898 91.3921C117.601 93.3614 113.303 95.2859 108.737 97.3447C114.512 99.9405 119.929 102.357 125.838 105.043ZM97.1426 6.89245C97.1426 6.89245 96.7397 6.89245 96.5159 6.8477C95.6206 10.8758 94.7252 14.9486 93.8299 18.9766C93.5613 20.2745 94.4566 20.0955 95.2177 20.0955C98.7094 20.0955 102.201 20.0955 105.648 20.0955C106.946 20.0955 107.394 19.827 107.081 18.4395C106.23 14.8591 105.469 11.2338 104.708 7.65331C104.619 7.2505 104.663 6.75818 103.858 6.89245C103.858 7.42953 103.858 7.9666 103.858 8.50367C103.858 13.6059 103.858 13.5611 98.5751 13.3821C97.5007 13.3821 97.0978 13.0688 97.1426 11.9499C97.2321 10.2492 97.1426 8.54843 97.1426 6.8477V6.89245ZM113.885 79.0842C113.885 80.8297 113.93 82.2619 113.885 83.6941C113.796 85.7081 112.542 86.9165 110.572 87.0508C109.722 87.0955 108.916 87.0508 108.066 87.0508C105.171 87.0508 103.783 88.483 103.902 91.3474C103.902 91.3474 104.037 91.7054 104.171 92.0187C109.632 89.5571 115.049 87.1403 120.376 84.6787C121.854 84.0073 121.361 82.9332 120.331 82.3066C118.362 81.1877 116.258 80.2478 113.93 79.0842H113.885ZM97.0531 92.0635C97.0978 91.4816 97.1426 91.2131 97.1426 90.8998C97.2321 87.0508 97.2321 86.9165 93.3823 87.0955C87.697 87.3641 86.6673 85.5291 87.115 80.9192C87.2045 79.8003 87.0255 79.0842 85.6377 79.845C84.0709 80.6954 82.3698 81.4115 80.803 82.3066C79.5047 83.0227 79.5495 84.1416 80.803 84.7234C86.1301 87.185 91.4573 89.5571 97.0083 92.0635H97.0531ZM114.019 65.165C113.482 71.6546 113.751 72.1022 119.033 73.9372C118.675 72.147 118.183 70.491 118.048 68.7902C117.825 66.1944 116.392 65.2545 114.019 65.165ZM87.115 64.8069C85.8168 65.6573 84.0261 65.165 83.5785 66.6867C82.907 69.014 82.5041 71.4756 81.9669 74.0267C85.4288 72.5647 87.1448 70.118 87.115 66.6867C87.115 66.1944 87.115 65.7021 87.115 64.8069ZM114.154 51.2458L113.93 51.3801C113.93 53.2598 113.93 55.1396 113.93 56.9746C113.93 57.7355 114.333 58.2278 115.049 58.1383C115.989 58.0488 115.497 57.2879 115.407 56.8403C115.004 54.9606 114.601 53.0808 114.154 51.2011V51.2458ZM87.115 51.6486H86.8016C86.3987 53.4389 85.9958 55.2291 85.6377 57.0641C85.5482 57.4669 85.1453 58.0935 85.9511 58.183C86.6673 58.2725 87.115 57.9145 87.115 57.1089C87.115 55.2739 87.115 53.4836 87.115 51.6486Z" fill="#020202"/>
<path d="M10.0276 43.0105C10.341 31.0606 14.728 20.7667 23.2336 12.2183C24.2632 11.1889 24.9347 10.7861 25.9196 12.2183C26.7701 13.4714 28.5608 14.4561 28.7398 15.7092C28.9189 17.0519 26.9044 17.947 25.9196 19.066C12.9822 33.6117 13.7879 55.766 27.934 69.5062C29.2323 70.7593 29.4561 71.4754 28.1579 72.9076C25.0242 76.3539 25.069 76.4434 21.9354 73.0419C14.1461 64.583 10.2067 54.6024 10.0276 43.0105Z" fill="#040404"/>
<path d="M190.972 43.9954C190.659 56.1244 186.183 66.5078 177.498 75.101C176.603 75.9514 176.065 76.1751 175.26 75.101C174.319 73.8031 172.529 72.7737 172.26 71.431C171.992 69.954 174.096 69.1037 175.125 67.8952C188.018 53.1705 187.123 31.2399 172.932 17.455C171.634 16.2019 171.544 15.5305 172.753 14.1878C175.976 10.6521 175.886 10.6073 179.109 14.0983C186.809 22.5125 190.704 32.4483 190.928 43.9507L190.972 43.9954Z" fill="#040404"/>
<path d="M177.229 44.7566C177.14 52.4099 173.917 59.6157 167.828 65.613C166.888 66.5529 166.306 66.6871 165.456 65.5235C164.56 64.2256 162.815 63.1067 162.636 61.764C162.456 60.466 164.471 59.5709 165.411 58.3625C173.021 49.0085 172.126 35.4473 163.262 26.9437C162.054 25.78 161.964 25.1534 163.083 23.8555C166.351 20.0512 166.306 19.9617 169.619 23.8107C174.633 29.5395 177.229 36.1634 177.229 44.7566Z" fill="#050505"/>
<path d="M34.7386 20.1406C34.8729 20.4987 34.9624 20.9015 35.1863 21.17C36.2159 22.4679 37.8722 23.5869 38.2751 25.0638C38.7676 26.7645 36.5293 27.5701 35.5444 28.7786C28.0685 38.1326 28.8743 51.649 37.7379 60.0631C39.1257 61.4058 38.9466 62.0772 37.8722 63.3303C34.7386 67.0003 34.8281 67.0451 31.605 63.4646C20.682 51.3357 21.3088 33.0752 32.948 21.7518C33.3956 21.3043 33.8881 20.9462 34.7834 20.1406H34.7386Z" fill="#050505"/>
<path d="M37.3796 43.6371C37.4692 38.5796 39.3046 34.3725 42.9754 30.9711C43.9603 30.0312 44.766 29.6731 45.4375 31.1948C45.4823 31.3291 45.5718 31.4186 45.6614 31.5529C46.4224 32.627 47.5415 33.6117 47.8549 34.8201C48.213 36.2075 46.4224 36.7446 45.7509 37.774C43.1097 41.7573 43.6469 47.2623 47.3177 50.5295C48.6159 51.6484 48.5264 52.4093 47.6311 53.4834C47.3625 53.7967 47.1834 54.1548 46.9596 54.5128C45.5868 56.6611 43.9752 56.7805 42.1248 54.8709C39.0807 51.7379 37.6035 47.9337 37.4244 43.6371H37.3796Z" fill="#060606"/>
<path d="M163.62 43.548C163.486 48.6055 161.651 52.8573 157.89 56.3036C156.995 57.1092 156.323 57.3777 155.697 56.0798C155.607 55.9007 155.473 55.7217 155.339 55.5875C154.578 54.5133 153.458 53.5287 153.145 52.3202C152.787 50.9328 154.578 50.3957 155.249 49.3663C157.89 45.383 157.353 39.878 153.682 36.6108C152.384 35.4919 152.474 34.7311 153.414 33.6569C153.682 33.3436 153.861 32.9408 154.085 32.6275C155.458 30.5091 157.025 30.345 158.786 32.1352C161.919 35.3129 163.441 39.1619 163.62 43.5928V43.548Z" fill="#050505"/>
<path d="M201 197.688C201 199.867 199.926 200.956 197.777 200.956C195.628 200.956 194.464 199.807 194.285 197.509C194.106 195.212 195.18 194.123 197.508 194.242C199.836 194.362 201 195.51 201 197.688Z" fill="black"/>
<path d="M6.71482 197.688C6.71482 199.867 5.64043 200.956 3.49166 200.956C1.34288 200.956 0.178963 199.807 -0.000101622 197.509C-0.179166 195.212 0.895221 194.123 3.22306 194.242C5.5509 194.362 6.6999 195.51 6.67005 197.688H6.71482Z" fill="black"/>
<path d="M103.858 165.419C107.886 167.209 111.692 168.91 115.452 170.611C123.913 174.415 132.329 178.219 140.79 181.934C142.267 182.605 142.894 183.5 143.162 184.977C143.655 187.573 144.237 190.169 144.819 192.72C145.087 193.884 144.819 194.331 143.52 194.331C130.762 194.331 118.004 194.331 105.245 194.331C104.395 194.331 103.813 194.287 103.813 193.123C103.813 183.993 103.813 174.907 103.813 165.464L103.858 165.419Z" fill="#7E7E7E"/>
<path d="M97.1426 165.597C97.1426 174.772 97.1426 183.858 97.1426 192.899C97.1426 194.062 96.6502 194.241 95.6653 194.241C82.907 194.241 70.1486 194.241 57.3903 194.241C56.0025 194.241 55.913 193.66 56.1816 192.585C56.8083 189.721 57.4798 186.901 58.0618 184.037C58.2408 183.142 58.6437 182.605 59.4943 182.202C71.8497 176.697 84.1604 171.192 96.4711 165.642C96.6054 165.597 96.7397 165.642 97.1426 165.553V165.597Z" fill="#7E7E7E"/>
<path d="M107.215 53.5729C107.215 61.808 107.215 70.0432 107.215 78.2783C107.215 79.8448 106.946 80.5161 105.2 80.4266C101.977 80.2923 98.7989 80.3371 95.5757 80.4266C94.2775 80.4266 93.7403 80.1581 93.785 78.7259C93.8298 61.9871 93.8298 45.2483 93.785 28.5094C93.785 27.0773 94.2775 26.764 95.5757 26.8087C98.8436 26.8982 102.156 26.8982 105.424 26.8087C106.991 26.764 107.26 27.3458 107.215 28.7332C107.17 37.0131 107.215 45.3378 107.215 53.6177V53.5729ZM103.857 36.8341C103.857 34.5963 103.007 33.4774 101.306 33.4774C98.5601 33.4774 97.1873 34.3576 97.1873 36.118C97.1873 38.8332 98.1423 40.1908 100.052 40.1908C102.589 40.1908 103.857 39.0719 103.857 36.8341ZM100.589 73.6684C102.768 73.6684 103.857 72.7882 103.857 71.0278C103.857 68.3126 102.962 66.955 101.171 66.955C98.5153 66.955 97.1873 67.865 97.1873 69.6851C97.1873 72.3108 98.3213 73.6237 100.589 73.6237V73.6684Z" fill="#356AA9"/>
<path d="M103.857 154.991C103.857 147.159 103.857 139.729 103.857 132.255C103.857 131.091 104.171 130.823 105.335 131.225C114.377 134.269 123.375 137.268 132.418 140.266C132.911 140.445 133.582 140.49 133.582 141.251C133.582 141.743 133.09 141.877 132.732 142.056C123.241 146.308 113.706 150.605 103.902 154.991H103.857Z" fill="#7D7D7D"/>
<path d="M97.1424 154.991C90.7857 152.171 84.787 149.486 78.7436 146.756C75.2966 145.234 71.8943 143.668 68.4473 142.101C68.0444 141.922 67.4177 141.877 67.4177 141.206C67.4177 140.535 68.0444 140.49 68.4473 140.356C77.5796 137.312 86.6672 134.269 95.7995 131.225C96.8738 130.867 97.1424 131.181 97.1424 132.21C97.1424 139.684 97.1424 147.114 97.1424 154.946V154.991Z" fill="#7D7D7D"/>
<path d="M60.3 43.3239C60.3 36.2076 60.3448 29.1361 60.3 22.0199C60.3 20.4087 60.7925 20.0506 62.3145 20.0954C67.0597 20.1401 67.0597 20.0954 67.0597 24.8843C67.0597 38.2664 67.0597 51.6485 67.0597 64.9858C67.0597 66.6866 66.5673 67.0446 64.9557 67.0446C60.3448 66.9551 60.3 67.0446 60.3 62.3452C60.3 55.9898 60.3 49.6792 60.3 43.3239Z" fill="#356BA9"/>
<path d="M133.985 43.324C133.985 36.2078 133.985 29.0915 133.985 21.9753C133.985 20.5431 134.298 20.0508 135.821 20.0508C140.7 20.0508 140.7 20.0508 140.7 24.9292C140.7 38.2665 140.7 51.5591 140.7 64.8965C140.7 66.4629 140.387 67.0448 138.686 67C133.985 66.9105 133.985 67 133.985 62.3454C133.985 55.99 133.985 49.6346 133.985 43.324Z" fill="#356AA9"/>
<path d="M127.315 113.68C119.57 116.276 111.826 118.827 103.947 121.468V102.536C111.871 106.117 119.66 109.608 127.404 113.099C127.404 113.278 127.36 113.501 127.315 113.68Z" fill="#7D7D7D"/>
<path d="M97.0529 102.536V121.468C89.1741 118.827 81.3848 116.232 73.6402 113.68C73.6402 113.501 73.6402 113.322 73.5955 113.143C81.34 109.652 89.0845 106.161 97.0529 102.536Z" fill="#7D7D7D"/>
<path d="M97.1427 6.89258C97.1427 8.59331 97.1874 10.294 97.1427 11.9948C97.0979 13.1137 97.5008 13.3822 98.5752 13.427C103.813 13.606 103.813 13.6508 103.858 8.54856C103.858 8.01148 103.858 7.42965 103.858 6.93733C104.619 6.80307 104.619 7.29538 104.708 7.69819C105.514 11.2787 106.23 14.9039 107.081 18.4844C107.394 19.8719 106.946 20.1404 105.648 20.1404C102.156 20.0509 98.6647 20.1404 95.2177 20.1404C94.4567 20.1404 93.5614 20.3194 93.83 19.0215C94.7253 14.9934 95.6206 10.9206 96.5159 6.89258C96.7398 6.89258 96.9188 6.89258 97.1427 6.93733V6.89258Z" fill="#7D7D7D"/>
<path d="M113.885 79.084C116.258 80.2476 118.317 81.1875 120.287 82.3064C121.316 82.8883 121.809 83.9624 120.331 84.6785C114.959 87.1849 109.587 89.5569 104.126 92.0185C103.992 91.6605 103.902 91.5262 103.857 91.3472C103.738 88.4828 105.126 87.0506 108.021 87.0506C108.871 87.0506 109.677 87.0506 110.528 87.0506C112.497 86.9163 113.751 85.7079 113.84 83.6939C113.93 82.2617 113.84 80.8295 113.84 79.084H113.885Z" fill="#7B7B7B"/>
<path d="M97.053 92.0633C91.4573 89.5569 86.1301 87.1849 80.8477 84.7233C79.5495 84.1414 79.5495 83.0225 80.8477 82.3064C82.4145 81.4113 84.1156 80.74 85.6824 79.8449C87.0702 79.084 87.2492 79.8449 87.1597 80.919C86.7121 85.5736 87.7417 87.3639 93.427 87.0954C97.2769 86.9163 97.2769 87.0954 97.1873 90.8996C97.1873 91.1682 97.1873 91.4367 97.0978 92.0633H97.053Z" fill="#7B7B7B"/>
<path d="M114.154 51.2461C114.557 53.1259 115.004 55.0056 115.407 56.8854C115.497 57.3329 115.944 58.0938 115.049 58.1833C114.333 58.2728 113.93 57.7805 113.93 57.0196C113.93 55.1399 113.93 53.2601 113.93 51.4251L114.154 51.2909V51.2461Z" fill="#7B7B7B"/>
<path d="M87.1149 51.6484C87.1149 53.4834 87.1149 55.2737 87.1149 57.1087C87.1149 57.9143 86.6673 58.2724 85.951 58.1828C85.1452 58.0933 85.5481 57.4667 85.6376 57.0639C85.9958 55.2737 86.3987 53.4387 86.8016 51.6484H87.1149Z" fill="#7B7B7B"/>
<path d="M103.857 36.8343C103.857 39.0721 102.589 40.191 100.052 40.191C98.1423 40.191 97.1873 38.8334 97.1873 36.1182C97.1873 34.3577 98.5601 33.4775 101.306 33.4775C103.007 33.4775 103.857 34.5964 103.857 36.8343Z" fill="black"/>
<path d="M100.545 73.6687C98.2766 73.6687 97.1426 72.3558 97.1426 69.7301C97.1426 67.91 98.4706 67 101.127 67C102.917 67 103.813 68.3576 103.813 71.0728C103.813 72.8332 102.723 73.7134 100.545 73.7134V73.6687Z" fill="black"/>
</g>
<defs>
<clipPath id="clip0_2187_178">
<rect width="201" height="201" fill="white"/>
</clipPath>
</defs>
</svg>
