<svg width="75" height="98" viewBox="0 0 75 98" fill="none" xmlns="http://www.w3.org/2000/svg">
<g clip-path="url(#clip0_2639_70)">
<path d="M16.0898 97.9998C14.9362 97.4368 14.0102 96.6819 13.8183 95.3102C13.7876 95.0952 13.6418 94.9877 13.4909 94.8649C8.35704 90.7114 6.60227 85.3756 7.85568 78.9444C8.97096 73.2247 10.0095 67.4897 11.1094 61.7674C11.6031 59.2032 12.6263 56.8411 14.1355 54.717C14.596 54.0721 14.5832 53.8059 13.8848 53.3734C9.23954 50.4969 4.92423 47.1777 0.897969 43.4849C-0.189173 42.4894 -0.265912 41.9545 0.547526 40.7773C2.0286 38.6276 3.02365 36.2681 3.62222 33.732C4.10568 31.677 4.82191 29.7013 5.82464 27.8511C6.22624 27.114 6.24415 26.4819 6.07276 25.7014C4.51495 18.61 5.52536 11.9587 9.63092 5.89356C11.2245 3.53659 13.3093 1.68376 15.811 0.299266C16.5682 -0.117875 17.2204 -0.0948429 17.9571 0.342771C22.3876 2.98125 25.4085 6.74576 26.9766 11.6542C27.1633 12.2428 27.3577 12.4808 28.0049 12.381C29.7469 12.1149 31.5042 12.1149 33.2462 12.381C33.8755 12.4757 34.1006 12.2838 34.2924 11.6747C35.8246 6.82765 38.7919 3.10409 43.1302 0.447696C44.0332 -0.105079 44.7929 -0.112757 45.6959 0.416987C50.4921 3.23717 53.3622 7.50327 54.8918 12.7342C56.1913 17.1692 56.2424 21.6605 55.1041 26.1467C54.9865 26.6073 54.989 26.9733 55.2244 27.4032C56.3959 29.535 57.2119 31.8075 57.7772 34.167C58.3502 36.5496 59.3427 38.7325 60.7138 40.7543C61.5247 41.9494 61.4556 42.4894 60.3864 43.4695C56.3345 47.1828 51.9911 50.5149 47.3228 53.4144C46.7293 53.7829 46.6219 54.0004 47.067 54.6172C48.9727 57.248 50.0163 60.2422 50.4819 63.4309C50.597 64.214 50.9218 64.2959 51.5844 64.3061C54.5465 64.3522 57.5163 64.1065 60.4708 64.4622C67.8224 65.3451 73.9923 71.5152 74.862 78.8472C75.9491 88.0038 70.2397 95.909 61.2458 97.7311C60.8673 97.8079 60.4171 97.6339 60.105 97.9947H16.0898V97.9998ZM47.7372 22.4948C47.7269 22.3694 47.6579 22.3003 47.53 22.2926L47.5504 22.2721C47.4762 22.1723 47.4174 22.052 47.3253 21.9727C41.3217 16.6906 34.4177 14.2952 26.442 15.7053C21.5051 16.578 17.1846 18.7968 13.6009 22.3566C13.473 22.482 13.3425 22.6125 13.2146 22.7404L13.0279 22.9298C12.9665 22.9938 12.9026 23.0603 12.8412 23.1243C12.0201 23.8409 11.4062 24.7366 10.7283 25.5785C7.41826 29.6783 6.74551 34.8708 4.8654 39.5924C5.15445 39.5924 5.40769 39.6155 5.65837 39.5899C7.79684 39.3493 9.92252 39.4286 12.0252 39.9046C17.9418 41.2405 22.6536 44.5341 26.6313 48.987C27.015 49.417 27.2963 49.591 27.9077 49.3914C29.7111 48.8054 31.5579 48.8054 33.3613 49.3914C33.9701 49.5885 34.2566 49.4247 34.6377 48.987C36.9834 46.2948 39.6923 44.0325 42.8361 42.3307C46.6372 40.2732 50.6584 39.1164 55.0376 39.5617C55.4878 39.6078 55.9406 39.6103 56.5238 39.641C55.4546 37.4632 54.9609 35.2879 54.3137 33.1587C53.1601 29.3533 51.2569 25.9624 48.4278 23.1269C48.3664 23.0629 48.305 22.9963 48.2411 22.9324C48.1797 22.8684 48.1157 22.807 48.0543 22.743C47.9904 22.5946 47.8906 22.4896 47.7192 22.4768L47.7346 22.4973L47.7372 22.4948ZM29.6778 94.9033C34.1696 94.9135 38.6614 94.9161 43.1533 94.9442C43.583 94.9468 43.7723 94.7267 43.9769 94.435C45.1562 92.7357 46.3175 91.021 47.5427 89.3525C47.8881 88.8816 47.7883 88.6078 47.4967 88.2009C46.274 86.4939 45.151 84.7076 43.8516 83.0621C42.8693 81.8184 42.5547 80.7 43.7109 79.446C44.3427 78.6425 44.972 77.8389 45.7164 76.8946C45.2994 76.9381 45.1076 76.9406 44.9259 76.9816C41.0813 77.8414 37.7227 79.6098 34.9421 82.4172C31.6782 85.7159 29.7622 89.6749 29.2404 94.2968C29.202 94.6474 29.0485 95.0517 29.6804 94.9033H29.6778ZM52.8403 67.3899C52.651 67.3796 52.4592 67.3873 52.2725 67.3566C51.3695 67.2082 51.2211 67.5485 51.4283 68.3982C51.7788 69.8441 52.0243 71.3156 52.2443 72.7871C52.3313 73.3681 52.5794 73.5114 53.114 73.4934C54.1602 73.4602 55.209 73.5114 56.2552 73.473C56.9356 73.4499 57.4984 73.6368 57.9691 74.1204C58.4167 75.4896 58.1763 76.0168 56.8538 76.5695C54.9737 76.5619 53.0884 76.6361 51.216 76.5184C50.024 76.4441 49.2847 76.8562 48.8192 77.8977C48.1388 78.7807 47.4941 79.6891 46.7677 80.5337C46.3507 81.0173 46.4019 81.3526 46.7549 81.8414C48.1362 83.7531 49.4561 85.7108 50.8349 87.6276C51.4232 88.444 51.4488 89.1913 50.8246 89.982C50.5279 90.3582 50.2721 90.7626 49.9984 91.1541C49.1543 92.3697 48.3076 93.5828 47.3739 94.9289C50.5305 94.9289 53.4901 94.9365 56.4496 94.9263C57.7235 94.9212 58.9923 94.9442 60.2661 94.7676C66.5844 93.895 71.708 88.2674 71.9612 81.8695C72.2273 75.1364 67.7687 69.1634 61.4147 67.7354C58.5753 67.0981 55.7001 67.4155 52.8378 67.3848L52.8403 67.3899ZM18.1925 71.94C19.4459 72.1243 19.7733 72.4391 19.9396 73.6777C20.5151 77.9387 21.0856 82.2022 21.6458 86.4658C21.7097 86.9571 21.8299 87.3359 22.3262 87.6148C22.9043 87.9398 23.0961 88.5464 22.9171 89.1964C22.7406 89.8362 22.2904 90.2303 21.6278 90.3198C21.2825 90.3659 20.927 90.3608 20.5765 90.3378C17.5044 90.133 16.6756 91.1567 16.8367 94.1253C16.8674 94.6985 16.934 94.9647 17.6067 94.9519C20.1877 94.911 22.7713 94.911 25.3523 94.9519C26.002 94.9621 26.1657 94.7139 26.2117 94.1381C26.4522 91.1439 27.3449 88.3365 28.7595 85.6955C29.0127 85.2246 29.1074 84.7639 29.1048 84.2393C29.092 80.9227 29.0971 77.6034 29.0997 74.2868C29.0997 72.6848 29.5474 71.9887 30.591 71.9631C31.6602 71.9349 32.1642 72.6822 32.1642 74.3047C32.1642 76.4237 32.1642 78.5401 32.1642 80.8356C32.5172 80.503 32.7218 80.3161 32.9188 80.1216C34.9882 78.0897 37.3364 76.4493 40.03 75.3821C40.8946 75.0392 41.2603 74.5811 41.3396 73.6828C41.4496 72.4391 41.818 72.1269 43.0714 71.9426C43.7211 72.1755 44.3274 72.5261 44.3657 73.2708C44.4015 73.9695 44.7443 73.9285 45.2124 73.821C45.4554 73.7647 45.701 73.711 45.944 73.6547C46.7702 73.6009 47.5965 73.4934 48.4201 73.5114C49.1364 73.5293 49.2566 73.3245 49.1133 72.631C48.5864 70.0412 48.0953 67.4411 47.6553 64.8359C47.1284 61.7239 46.2893 58.7476 44.4041 56.145C44.0204 55.6127 43.7467 55.4745 43.12 55.843C40.9994 57.0944 38.7152 57.9927 36.3414 58.6427C34.3129 59.1955 32.2511 59.8327 30.1459 59.6382C25.8818 59.2441 21.8581 57.9492 18.1183 55.843C17.5607 55.5282 17.2742 55.5487 16.8981 56.0861C15.6243 57.9108 14.6113 59.866 14.1816 62.0489C12.9921 68.1116 11.8512 74.187 10.7334 80.2624C10.099 83.7096 10.6976 86.9162 12.8335 89.7645C13.1072 90.2661 13.4423 90.7114 13.913 91.0569C14.2174 90.8419 14.2404 90.499 14.3836 90.2252C15.1203 88.8253 16.2433 87.8528 17.7755 87.515C18.5532 87.3436 18.6529 87.0083 18.5608 86.3481C18.0057 82.3174 17.4814 78.2842 16.9263 74.2535C16.7421 72.9279 16.9391 72.5159 18.1848 71.9452L18.1925 71.94ZM56.5366 42.8195C54.4058 42.4894 52.5103 42.41 50.6174 42.7606C44.7622 43.8432 40.273 47.1368 36.4718 51.5385C36.2851 51.7561 36.1137 51.9659 36.1879 52.3011C36.4565 53.5219 36.106 54.6121 35.2337 55.8251C43.4321 53.0791 50.0112 48.2193 56.5366 42.8195ZM4.74773 42.84C11.2962 48.2193 17.8395 53.0919 26.0352 55.8149C25.1553 54.5967 24.8176 53.5295 25.0786 52.3293C25.1476 52.0068 25.0146 51.7868 24.8202 51.559C21.5511 47.7228 17.6809 44.7517 12.8054 43.2494C10.2423 42.4612 7.62802 42.3154 4.74773 42.8374V42.84ZM8.62819 23.2062C9.48511 22.2644 10.1323 21.4762 10.8639 20.775C11.3448 20.3144 11.5059 19.8435 11.511 19.1858C11.5341 15.1449 12.8719 11.5723 15.4375 8.45783C16.361 7.33692 17.3483 7.34204 18.3025 8.46039C19.1952 9.50964 19.9524 10.6485 20.5151 11.9101C20.7991 12.5473 20.9295 13.5633 21.3797 13.7322C21.9246 13.937 22.7278 13.3637 23.4363 13.2383C24.1858 13.1027 24.1551 12.7521 23.9454 12.1712C23.0194 9.60945 21.6764 7.29342 19.6454 5.47642C16.4658 2.63065 17.0772 2.46175 13.959 5.5404C9.11676 10.326 7.9759 16.4193 8.62563 23.2036L8.62819 23.2062ZM52.5794 23.1115C53.045 20.2222 52.8864 17.4737 52.2545 14.7585C51.2186 10.3004 49.1006 6.51032 45.3071 3.77971C44.6804 3.32674 44.2225 3.27811 43.5676 3.77203C40.7181 5.92683 38.6538 8.63953 37.3697 11.9792C37.0422 12.8314 37.2162 13.1948 38.0961 13.3253C38.5003 13.3842 38.9019 13.5275 39.2779 13.6887C39.7895 13.9114 40.0351 13.8269 40.2218 13.246C40.805 11.4341 41.7694 9.82697 43.0228 8.39385C43.9692 7.31133 44.8901 7.32669 45.811 8.43991C48.4048 11.58 49.7221 15.1884 49.7707 19.26C49.7759 19.6618 49.6991 20.061 50.0521 20.4167C50.8809 21.2536 51.6662 22.1314 52.5743 23.109L52.5794 23.1115ZM30.7854 52.0222C30.371 52.0427 30.1459 52.0376 29.9259 52.0683C29.5806 52.1194 29.2353 52.1758 28.9002 52.2679C28.0637 52.4956 27.8514 53.1252 28.4244 53.7547C29.0025 54.3894 29.6394 54.9678 30.2329 55.5871C30.5117 55.8788 30.7343 55.8967 31.0233 55.5973C31.6168 54.978 32.2537 54.3971 32.8318 53.765C33.4099 53.1354 33.2129 52.4675 32.3739 52.2832C31.7907 52.1527 31.2049 51.9633 30.7829 52.0222H30.7854ZM16.8495 11.6005C15.6959 13.42 15.0462 15.2677 14.7673 17.315C15.9184 16.6394 17.003 15.9868 18.1081 15.365C18.5097 15.1398 18.3894 14.8762 18.2846 14.564C17.952 13.5684 17.5248 12.619 16.8521 11.5979L16.8495 11.6005ZM46.2279 17.1359C46.4837 15.8973 45.5322 13.0899 44.3709 11.7028C43.693 12.6497 43.2786 13.699 42.9102 14.7738C42.8079 15.0707 42.9282 15.2345 43.1891 15.3829C44.2071 15.9561 45.2124 16.5473 46.2254 17.1359H46.2279Z" fill="#030202"/>
<path d="M48.4302 23.1273C51.2568 25.9628 53.16 29.3537 54.3162 33.1591C54.9633 35.2883 55.457 37.4636 56.5263 39.6414C55.943 39.6107 55.4903 39.6082 55.0401 39.5621C50.6634 39.1168 46.6422 40.2761 42.8385 42.3311C39.6947 44.0329 36.9833 46.2952 34.6402 48.9874C34.259 49.4251 33.9725 49.5888 33.3637 49.3918C31.5604 48.8057 29.7135 48.8057 27.9101 49.3918C27.2988 49.5914 27.0199 49.4174 26.6337 48.9874C22.6535 44.5345 17.9417 41.2435 12.0276 39.905C9.92751 39.429 7.80183 39.3497 5.6608 39.5903C5.41268 39.6184 5.15688 39.5928 4.86783 39.5928C6.74539 34.8712 7.41814 29.6761 10.7307 25.5789C11.4086 24.7395 12.0225 23.8438 12.8436 23.1247C12.905 23.0607 12.969 22.9942 13.0303 22.9302C13.0917 22.8662 13.1557 22.8048 13.2171 22.7408C13.4652 22.7332 13.5982 22.6078 13.6033 22.357C13.8284 22.357 14.0382 22.339 14.2352 22.1957C17.9417 19.4856 22.0472 17.8145 26.6081 17.1235C30.0179 16.6066 33.3765 16.7575 36.6993 17.4767C40.4289 18.2854 43.877 19.8106 46.9517 22.1164C47.1385 22.2571 47.3073 22.3851 47.5529 22.2725L47.5324 22.293C47.5324 22.4312 47.6015 22.4977 47.7396 22.4952C47.7396 22.4952 47.7242 22.4747 47.7242 22.4772C47.7268 22.705 47.8905 22.728 48.0593 22.7434C48.1207 22.8074 48.1847 22.8688 48.2461 22.9328C48.3075 22.9967 48.3689 23.0633 48.4328 23.1273H48.4302ZM25.2728 38.2211C25.2549 36.9646 24.1806 35.9281 22.9272 35.9614C21.707 35.9921 20.6992 37.0183 20.6889 38.2365C20.6813 39.4879 21.7403 40.5525 22.9886 40.5474C24.242 40.5423 25.2908 39.4751 25.2728 38.2211ZM38.3185 35.9614C37.0626 35.946 36.001 36.9953 36.001 38.2518C36.001 39.4674 37.0063 40.509 38.2188 40.5499C39.4696 40.5909 40.5542 39.5621 40.5849 38.3056C40.6131 37.0516 39.5745 35.9793 38.3185 35.9639V35.9614Z" fill="#DE542D"/>
<path d="M43.0789 71.9403C41.823 72.1246 41.4546 72.4342 41.3472 73.6805C41.2679 74.5762 40.9021 75.0369 40.0375 75.3798C37.3414 76.4495 34.9957 78.0874 32.9263 80.1194C32.7293 80.3139 32.5222 80.5007 32.1717 80.8334C32.1717 78.5404 32.1717 76.4214 32.1717 74.3024C32.1717 72.6799 31.6703 71.9326 30.5986 71.9608C29.5523 71.9889 29.1072 72.6825 29.1072 74.2845C29.1072 77.6012 29.1021 80.9204 29.1124 84.237C29.1124 84.7591 29.0177 85.2223 28.767 85.6932C27.3525 88.3342 26.4597 91.1416 26.2193 94.1358C26.1732 94.7116 26.0095 94.9599 25.3598 94.9496C22.7788 94.9087 20.1952 94.9087 17.6142 94.9496C16.9389 94.9599 16.875 94.6963 16.8443 94.123C16.6831 91.1544 17.5119 90.1307 20.5841 90.3355C20.9319 90.3585 21.2901 90.3636 21.6354 90.3176C22.2979 90.228 22.7481 89.8339 22.9246 89.1941C23.1037 88.5441 22.9144 87.9376 22.3337 87.6125C21.8375 87.3336 21.7172 86.9574 21.6533 86.4635C21.0905 82.1999 20.5201 77.939 19.9471 73.6754C19.7808 72.4368 19.4509 72.122 18.2 71.9378C17.9084 71.147 17.3022 70.7401 16.5066 70.8527C15.8032 70.9525 15.3581 71.4976 15.1637 72.1937C15.0358 72.6492 15.2942 73.0638 15.3453 73.5014C15.6113 75.7586 15.9311 78.0081 16.2201 80.2627C16.4452 82.0157 16.6576 83.7738 16.8571 85.5294C16.8903 85.8211 16.9594 86.1615 16.5297 86.3202C14.8286 86.9497 13.7568 88.2626 12.8513 89.7546C10.7128 86.9062 10.1142 83.6996 10.7512 80.2524C11.869 74.1745 13.0099 68.1016 14.1993 62.039C14.6291 59.856 15.642 57.9008 16.9159 56.0762C17.2919 55.5387 17.5784 55.5183 18.1361 55.833C21.8758 57.9392 25.8995 59.2342 30.1637 59.6283C32.2689 59.8228 34.3306 59.1881 36.3591 58.6328C38.7329 57.9853 41.0172 57.087 43.1378 55.833C43.7619 55.4645 44.0356 55.6053 44.4219 56.135C46.3071 58.7377 47.1461 61.714 47.6731 64.8259C48.1156 67.4311 48.6042 70.0312 49.1311 72.6211C49.2718 73.312 49.1516 73.5168 48.4379 73.5014C47.6142 73.4809 46.788 73.591 45.9618 73.6447C45.972 73.4553 45.9618 73.2634 45.9976 73.0791C46.2227 71.9966 45.9081 71.2749 45.0358 70.9167C44.317 70.6224 43.6161 70.9883 43.0892 71.9326L43.0789 71.9403Z" fill="#DD542D"/>
<path d="M56.8537 76.575C58.1761 76.0222 58.4166 75.495 57.9689 74.1259C58.4524 72.8745 57.8743 71.989 56.5365 71.9608C55.8074 71.9455 55.0759 71.9455 54.3468 71.9608C53.9197 71.9711 53.6408 71.9045 53.5615 71.385C53.3518 70.0492 53.0858 68.721 52.8402 67.3902C55.7026 67.4209 58.5777 67.1036 61.4171 67.7408C67.7686 69.1688 72.2297 75.1419 71.9636 81.875C71.7104 88.2703 66.5868 93.9004 60.2686 94.7731C58.9947 94.9497 57.7234 94.9266 56.4521 94.9318C53.4925 94.942 50.5329 94.9343 47.3763 94.9343C48.3126 93.5882 49.1567 92.3726 50.0008 91.1596C50.2745 90.768 50.5329 90.3611 50.8271 89.9875C51.4486 89.1967 51.4256 88.4494 50.8373 87.6331C49.4585 85.7188 48.1386 83.7611 46.7573 81.8468C46.4043 81.358 46.3531 81.0228 46.7701 80.5391C47.494 79.6971 48.1412 78.7861 48.8216 77.9032C48.9623 77.962 49.103 78.0746 49.2437 78.0746C50.8654 78.0874 52.4923 78.1719 54.1038 78.0491C55.1705 77.9672 56.227 77.6038 56.8537 76.575Z" fill="#DD542D"/>
<path d="M43.7082 79.4463C42.552 80.7003 42.8692 81.8186 43.8489 83.0624C45.1483 84.7104 46.2713 86.4942 47.494 88.2011C47.7856 88.608 47.8854 88.8818 47.5401 89.3527C46.3148 91.0213 45.156 92.7334 43.9742 94.4352C43.7696 94.7295 43.5803 94.9496 43.1506 94.9445C38.6587 94.9163 34.1669 94.9138 29.6751 94.9035C29.6802 94.8088 29.6726 94.709 29.693 94.6169C31.1741 88.6874 34.5557 84.1423 39.7766 81.015C40.9737 80.2985 42.1811 79.4232 43.7056 79.4437L43.7082 79.4463Z" fill="#E6ECF4"/>
<path d="M56.5365 42.822C50.0137 48.2218 43.432 53.0816 35.2336 55.8276C36.1059 54.612 36.4538 53.5243 36.1878 52.3036C36.1136 51.9709 36.285 51.7585 36.4717 51.541C40.2729 47.1393 44.7621 43.8456 50.6173 42.7631C52.5102 42.4125 54.4057 42.4918 56.5365 42.822Z" fill="#EFF9FB"/>
<path d="M4.75018 42.8427C7.63047 42.3207 10.2447 42.4665 12.8078 43.2548C17.6808 44.7544 21.5536 47.7256 24.8227 51.5643C25.0171 51.7921 25.1501 52.0122 25.081 52.3346C24.8227 53.5323 25.1603 54.5995 26.0377 55.8202C17.8419 53.0947 11.2986 48.2246 4.75018 42.8453V42.8427Z" fill="#EFF9FB"/>
<path d="M8.62807 23.2091C7.97835 16.4248 9.11921 10.3289 13.9615 5.54582C17.0796 2.46716 16.4683 2.63606 19.6479 5.48184C21.6789 7.29883 23.0193 9.61486 23.9478 12.1766C24.1576 12.7575 24.1883 13.1081 23.4388 13.2437C22.7277 13.3717 21.927 13.9424 21.3822 13.7376C20.9294 13.5687 20.7989 12.5528 20.5176 11.9155C19.9574 10.6539 19.2002 9.51505 18.3049 8.4658C17.3508 7.3449 16.3634 7.34234 15.44 8.46324C12.8743 11.5777 11.5339 15.1503 11.5135 19.1912C11.5109 19.8463 11.3472 20.3198 10.8663 20.7804C10.1347 21.4816 9.485 22.2698 8.63063 23.2116L8.62807 23.2091Z" fill="#DA532C"/>
<path d="M52.5819 23.1143C51.6738 22.1392 50.8885 21.2589 50.0597 20.422C49.7067 20.0663 49.7834 19.6671 49.7783 19.2653C49.7272 15.1911 48.4124 11.5827 45.8186 8.44522C44.9003 7.33199 43.9794 7.3192 43.0304 8.39916C41.777 9.82972 40.8126 11.4394 40.2294 13.2513C40.0427 13.8322 39.7971 13.9167 39.2855 13.694C38.9095 13.5302 38.5079 13.3895 38.1037 13.3306C37.2238 13.2001 37.0473 12.8367 37.3772 11.9845C38.6613 8.64484 40.7256 5.93214 43.5752 3.77734C44.2301 3.28342 44.6854 3.33205 45.3146 3.78502C49.1081 6.51563 51.2261 10.3032 52.2621 14.7638C52.8939 17.479 53.0525 20.2275 52.587 23.1168L52.5819 23.1143Z" fill="#DA532C"/>
<path d="M47.5477 22.2748C47.3047 22.3874 47.1359 22.2594 46.9466 22.1186C43.8719 19.8154 40.4237 18.2902 36.6942 17.4789C33.3688 16.7572 30.0128 16.6088 26.603 17.1257C22.0421 17.8167 17.9365 19.4878 14.23 22.198C14.0331 22.3413 13.8233 22.3592 13.5982 22.3592C17.1819 18.7969 21.5024 16.5807 26.4393 15.708C34.4151 14.2979 41.319 16.6933 47.3226 21.9753C47.4147 22.0572 47.4735 22.1749 47.5477 22.2748Z" fill="#E06144"/>
<path d="M43.7082 79.4464C42.1836 79.4259 40.9737 80.3011 39.7791 81.0177C34.5583 84.145 31.1767 88.69 29.6956 94.6196C29.6726 94.7117 29.6828 94.8089 29.6777 94.9062C29.0459 95.0572 29.1968 94.6503 29.2377 94.2997C29.757 89.6753 31.6729 85.7188 34.9394 82.4201C37.72 79.6127 41.0786 77.8443 44.9232 76.9845C45.1049 76.9435 45.2967 76.941 45.7137 76.8975C44.9718 77.8443 44.34 78.6454 43.7082 79.4489V79.4464Z" fill="#EEF8FA"/>
<path d="M12.8436 89.7597C13.7466 88.2677 14.8209 86.9549 16.522 86.3253C16.9492 86.1667 16.8827 85.8263 16.8494 85.5346C16.6525 83.7764 16.4376 82.0208 16.2125 80.2678C15.9234 78.0132 15.6062 75.7637 15.3377 73.5066C15.2865 73.0689 15.0281 72.6544 15.156 72.1988C15.3504 71.5027 15.7955 70.9576 16.499 70.8578C17.2945 70.7452 17.9033 71.1521 18.1924 71.9429C16.9466 72.511 16.7497 72.9256 16.9338 74.2513C17.4915 78.2819 18.0159 82.3151 18.5684 86.3458C18.6605 87.0061 18.5607 87.3413 17.7831 87.5128C16.2509 87.8506 15.1305 88.8231 14.3912 90.2229C14.248 90.4967 14.2249 90.8397 13.9205 91.0546C13.4499 90.7091 13.1148 90.2639 12.8411 89.7623L12.8436 89.7597Z" fill="#D23B27"/>
<path d="M52.8402 67.3925C53.0832 68.7232 53.3518 70.0514 53.5616 71.3873C53.6434 71.9042 53.9197 71.9733 54.3469 71.9631C55.0759 71.9452 55.8075 71.9452 56.5365 71.9631C57.8718 71.9913 58.4524 72.8793 57.969 74.1281C57.4983 73.6445 56.9356 73.4576 56.2551 73.4807C55.2089 73.5191 54.1602 73.4679 53.1139 73.5011C52.5793 73.5191 52.3312 73.3758 52.2442 72.7948C52.0242 71.3233 51.7787 69.8492 51.4282 68.4059C51.221 67.5537 51.3694 67.2133 52.2724 67.3643C52.4591 67.395 52.6509 67.3873 52.8402 67.3976V67.3925Z" fill="#D33B27"/>
<path d="M30.7879 52.025C31.2099 51.9636 31.7983 52.1555 32.3789 52.286C33.2154 52.4728 33.4149 53.1382 32.8368 53.7678C32.2587 54.3999 31.6192 54.9782 31.0283 55.6001C30.7418 55.9021 30.5193 55.8842 30.2379 55.5899C29.6445 54.9706 29.0075 54.3922 28.4294 53.7575C27.8539 53.128 28.0687 52.4984 28.9052 52.2707C29.2403 52.1785 29.5856 52.1222 29.931 52.0711C30.1509 52.0378 30.3735 52.0455 30.7904 52.025H30.7879Z" fill="#4D4842"/>
<path d="M56.8537 76.5748C56.2269 77.6035 55.1705 77.9669 54.1038 78.0488C52.4923 78.1717 50.8629 78.0872 49.2437 78.0744C49.103 78.0744 48.9623 77.9618 48.8216 77.903C49.2871 76.8614 50.0238 76.4494 51.2184 76.5236C53.0909 76.6413 54.9761 76.5671 56.8562 76.5748H56.8537Z" fill="#E46345"/>
<path d="M16.8494 11.6006C17.5222 12.6217 17.9493 13.5711 18.2819 14.5666C18.3867 14.8789 18.507 15.1424 18.1054 15.3677C17.0029 15.987 15.9183 16.6421 14.7646 17.3177C15.0435 15.2704 15.6932 13.4227 16.8468 11.6031L16.8494 11.6006Z" fill="#DDBE7B"/>
<path d="M46.2278 17.1362C45.2149 16.5502 44.207 15.9564 43.1915 15.3832C42.9306 15.2347 42.8104 15.071 42.9127 14.7741C43.281 13.7018 43.6929 12.65 44.3733 11.7031C45.5346 13.0902 46.4862 15.8976 46.2304 17.1362H46.2278Z" fill="#DDBE7B"/>
<path d="M43.079 71.9401C43.6059 70.9957 44.3068 70.6272 45.0256 70.9241C45.8979 71.2824 46.2151 72.004 45.9874 73.0866C45.949 73.2683 45.9618 73.4628 45.9516 73.6521C45.7086 73.7084 45.463 73.7647 45.22 73.8185C44.7519 73.9234 44.4091 73.9669 44.3733 73.2683C44.3349 72.5261 43.7287 72.1729 43.079 71.9401Z" fill="#D23B27"/>
<path d="M13.6034 22.3569C13.5957 22.6077 13.4652 22.7357 13.2171 22.7408C13.345 22.6128 13.4755 22.4849 13.6034 22.3569Z" fill="#E06144"/>
<path d="M48.0568 22.7432C47.8879 22.7278 47.7242 22.7048 47.7217 22.4771C47.8931 22.4898 47.9928 22.5948 48.0568 22.7432Z" fill="#E06144"/>
<path d="M47.737 22.4951C47.5989 22.4977 47.5298 22.4312 47.5298 22.293C47.6577 22.3006 47.7268 22.3672 47.737 22.4951Z" fill="#E06144"/>
<path d="M13.0304 22.9326C12.969 22.9966 12.9076 23.0631 12.8436 23.1271C12.905 23.0631 12.9664 22.9966 13.0304 22.9326Z" fill="#E06144"/>
<path d="M48.4303 23.1271C48.3689 23.0631 48.3075 22.9966 48.2435 22.9326C48.3049 22.9966 48.3663 23.0631 48.4303 23.1271Z" fill="#E06144"/>
<path d="M25.2728 38.2184C25.2907 39.4724 24.242 40.5395 22.9885 40.5447C21.7377 40.5498 20.6787 39.4852 20.6889 38.2338C20.6966 37.0156 21.707 35.9868 22.9271 35.9587C24.1806 35.928 25.2549 36.9619 25.2728 38.2184Z" fill="#040101"/>
<path d="M38.3186 35.9588C39.5745 35.9741 40.6131 37.0464 40.5849 38.3004C40.5568 39.5569 39.4697 40.5857 38.2188 40.5448C37.0063 40.5038 35.9985 39.4623 36.001 38.2467C36.001 36.9901 37.0652 35.9409 38.3186 35.9562V35.9588Z" fill="#040101"/>
</g>
<defs>
<clipPath id="clip0_2639_70">
<rect width="75" height="98" fill="white"/>
</clipPath>
</defs>
</svg>
