<svg width="201" height="201" viewBox="0 0 201 201" fill="none" xmlns="http://www.w3.org/2000/svg">
<path d="M0.0121344 169.951C0.65526 169.732 0.554139 169.089 0.667394 168.644C2.9608 159.552 8.83791 154.026 17.7203 151.539C30.5302 147.951 43.3523 144.396 56.1946 140.917C57.8044 140.48 58.2857 139.829 58.2817 138.163C58.221 124.378 54.2895 111.835 46.6124 100.396C42.5757 94.3816 38.0455 88.6663 34.7207 82.2149C22.5336 58.5608 31.0884 28.6535 53.796 14.7636C62.5652 9.40014 72.0462 6.90449 82.2755 6.8964C100.263 6.88427 118.011 4.83355 135.465 0.416616C135.764 0.339764 136.132 0.404481 136.258 0C136.65 0 137.042 0 137.435 0C139.012 2.22465 140.618 4.43311 142.159 6.68203C152.198 21.2959 150.867 40.6504 138.83 53.6666C137.354 55.2602 136.614 56.4615 137.811 58.6134C139.133 60.9917 139.109 63.7746 139.198 66.4563C139.457 74.1535 142.03 80.9974 146.742 87.0646C148.57 89.4146 149.399 91.9831 148.469 94.9358C147.522 97.937 145.476 99.7532 142.446 100.489C141.892 100.623 141.241 100.497 140.929 101.169C138.935 105.525 135.95 109.509 135.881 114.585C135.837 117.724 134.992 120.657 133.418 123.347C129.883 129.39 124.54 132.573 117.591 133.018C114.715 133.2 111.859 133.006 109.101 131.954C107.406 131.307 105.618 130.906 103.604 130.312C103.604 133.479 103.62 136.512 103.596 139.546C103.584 140.792 104.647 140.573 105.278 140.751C113.942 143.194 122.627 145.569 131.299 147.992C136.387 149.411 141.54 150.657 146.523 152.38C155.802 155.584 161.586 163.665 161.752 173.522C161.898 182.219 161.736 190.923 161.837 199.624C161.857 201.318 160.915 200.971 159.993 200.971C145.726 200.975 131.46 200.971 117.198 200.971C78.983 200.971 40.7677 200.971 2.55228 200.971C1.8323 200.971 1.11637 200.93 0.396392 200.91C0.396392 192.185 0.396392 183.457 0.380212 174.732C0.380212 174.052 0.659304 173.284 0 172.713V169.967L0.0121344 169.951ZM59.6691 177.587C59.479 176.956 59.3778 176.657 59.301 176.354C57.1815 167.868 55.0256 159.39 52.987 150.884C52.5745 149.165 52.0567 148.489 50.1921 149.177C47.9917 149.982 45.6821 150.483 43.417 151.122C34.6236 153.606 25.7331 155.802 17.0651 158.666C10.6743 160.777 7.05011 165.752 6.69416 172.527C6.36249 178.789 6.55664 185.083 6.53237 191.36C6.52024 194.519 6.53237 194.519 9.59025 194.519C31.8408 194.519 54.0913 194.519 76.3377 194.519C101.99 194.519 127.642 194.507 153.294 194.551C154.864 194.551 155.438 194.228 155.41 192.529C155.305 186.579 155.41 180.625 155.357 174.671C155.288 165.963 150.758 160.106 142.385 157.78C132.006 154.9 121.619 152.04 111.257 149.108C109.922 148.732 109.396 148.776 109.024 150.338C106.973 158.909 104.732 167.431 102.657 175.994C102.285 177.531 101.949 177.442 100.898 176.556C94.9439 171.54 88.8888 166.646 83.0036 161.554C81.3938 160.158 80.4594 160.162 78.8536 161.546C72.6165 166.921 66.2338 172.131 59.6772 177.592L59.6691 177.587ZM62.6986 120.56C67.334 114.913 69.9631 108.931 70.8813 102.156C71.0552 100.87 70.6952 100.607 69.5384 100.477C63.3701 99.7815 58.8116 94.9924 58.3383 88.3144C57.95 82.8135 61.2466 77.0456 67.1398 75.7067C70.7316 74.8897 71.2615 73.2071 71.5446 70.1087C72.6772 57.59 84.2454 46.6367 96.7479 45.8682C104.134 45.4152 111.524 45.6578 118.909 45.6821C123.512 45.6942 127.848 46.9077 131.444 49.9737C132.629 50.9849 133.192 50.3741 133.964 49.5126C144.541 37.7381 145.217 21.3081 135.667 8.6559C134.878 7.60829 134.146 7.3656 132.868 7.66492C115.989 11.5641 98.8673 13.2184 81.5515 13.3883C65.801 13.5461 53.0194 19.9895 43.9388 32.9005C35.4932 44.9096 33.6326 58.1806 37.7138 72.297C39.3358 77.9112 42.4179 82.7245 45.6659 87.4933C50.5521 94.6688 55.7416 101.67 59.0866 109.784C60.478 113.154 61.5499 116.624 62.7027 120.564L62.6986 120.56ZM108.882 52.1862C108.882 52.1862 108.882 52.2064 108.882 52.2145C105.351 52.2145 101.816 52.1255 98.2849 52.2307C89.0668 52.5138 80.8113 59.2646 78.4977 68.2117C77.8343 70.7802 77.713 73.3648 77.7008 75.9858C77.6928 77.6725 78.2388 79.8689 77.3894 80.9043C76.4914 82.0045 74.2061 81.147 72.5316 81.2603C72.0098 81.2967 71.484 81.2522 70.9622 81.2886C67.334 81.5636 64.7332 84.3343 64.7817 87.8614C64.8262 91.3683 67.5443 94.0783 71.1887 94.1875C72.9522 94.2441 74.7239 94.2441 76.4874 94.1875C77.4096 94.1592 77.7372 94.4383 77.7292 95.3969C77.7008 99.0655 77.4824 102.706 76.718 106.306C74.9746 114.521 71.0188 121.526 65.1417 127.484C64.539 128.095 64.0375 128.609 64.179 129.652C64.628 132.957 64.8383 136.29 64.7494 139.631C64.7251 140.561 64.9475 141.176 65.7767 141.722C70.4768 144.796 75.1526 147.915 79.7961 151.07C80.6455 151.644 81.2401 151.608 82.0612 151.049C86.6561 147.931 91.2671 144.837 95.9227 141.811C96.8207 141.229 97.0957 140.602 97.0795 139.586C97.0229 136.318 97.0148 133.046 97.0836 129.778C97.1079 128.674 96.7883 128.188 95.6841 127.881C91.9143 126.829 88.181 125.652 84.4395 124.503C83.0157 124.067 80.9893 124.151 80.3421 123.023C79.6909 121.89 81.0338 120.264 81.2805 118.804C81.5272 117.36 82.1218 117.016 83.6144 117.478C92.6545 120.264 101.743 122.885 110.775 125.693C113.214 126.449 115.605 126.651 118.109 126.433C123.933 125.927 128.779 121.49 129.191 115.629C129.551 110.549 130.991 105.93 133.475 101.545C134.373 99.9594 135.246 98.3334 135.898 96.6346C136.622 94.7376 137.722 93.8275 139.813 94.1794C140.703 94.3291 141.71 94.321 142.163 93.2532C142.551 92.3431 142.062 91.6312 141.536 90.9355C135.813 83.4283 132.913 74.9787 132.65 65.5138C132.427 57.5051 126.74 52.2509 118.691 52.1902C115.419 52.1659 112.151 52.1902 108.878 52.1902L108.882 52.1862ZM86.3163 155.972C90.4177 159.382 94.3655 162.662 98.4265 166.04C99.923 160.114 101.383 154.435 102.763 148.74C102.904 148.157 103.636 147.324 102.779 146.851C101.958 146.398 101.039 146.107 100.032 146.794C95.5627 149.844 91.0447 152.817 86.3203 155.972H86.3163ZM63.3984 166.052C67.5848 162.565 71.488 159.321 75.5005 155.984C73.9837 154.961 72.5801 154.014 71.1766 153.072C68.0863 151.005 64.9637 148.983 61.9139 146.859C60.931 146.175 60.0816 146.43 59.1594 146.786C58.3666 147.09 58.8278 147.692 58.9289 148.109C60.3688 153.982 61.8492 159.843 63.4024 166.052H63.3984Z" fill="#030302"/>
<path d="M0.012146 172.697C0.67145 173.268 0.388314 174.036 0.392358 174.716C0.412582 183.44 0.408538 192.165 0.408538 200.894C0.275059 200.914 0.145625 200.938 0.012146 200.958C0.012146 191.538 0.012146 182.118 0.012146 172.697Z" fill="#101010"/>
<path d="M200.643 101.051C200.461 112.624 196.38 123.055 188.185 131.865C187.505 132.597 187.158 132.573 186.531 131.893C185.426 130.692 183.671 129.737 183.246 128.354C182.793 126.874 184.86 125.959 185.79 124.79C197.52 110.043 196.897 88.2375 183.764 74.3597C182.947 73.4982 182.809 72.9117 183.825 72.216C183.982 72.1068 184.104 71.945 184.245 71.8034C186.443 69.603 188.511 69.692 190.45 72.0704C196.986 80.0912 200.623 90.2801 200.647 101.047L200.643 101.051Z" fill="#040404"/>
<path d="M187.704 100.958C187.55 108.955 184.844 116.183 179.355 122.351C178.583 123.217 178.049 123.65 177.118 122.501C176.135 121.288 174.323 120.369 174.044 119.071C173.777 117.841 175.67 116.761 176.532 115.552C183.307 106.026 182.664 92.6543 174.857 83.8043C173.838 82.6475 173.891 82.065 174.958 81.0336C178.489 77.6198 178.457 77.5672 181.382 81.5311C185.588 87.2383 187.615 93.6655 187.704 100.958Z" fill="#040404"/>
<path d="M168.851 86.9473C176.265 94.2158 176.613 105.954 169.878 113.481C169.122 114.323 168.709 114.234 168.127 113.473C168.086 113.421 168.034 113.38 167.989 113.336C166.934 112.272 165.445 111.378 164.935 110.092C164.393 108.733 166.274 107.867 166.84 106.601C169.053 101.638 168.737 96.9744 165.368 92.6666C164.636 91.7323 164.648 91.2712 165.498 90.4905C166.695 89.3944 167.747 88.1324 168.855 86.9473H168.851Z" fill="#040404"/>
<path d="M59.6691 177.588C66.2257 172.127 72.6085 166.917 78.8456 161.542C80.4513 160.159 81.3857 160.154 82.9955 161.55C88.8807 166.642 94.9358 171.537 100.89 176.552C101.941 177.438 102.277 177.527 102.649 175.99C104.724 167.427 106.969 158.905 109.016 150.334C109.388 148.772 109.914 148.724 111.249 149.104C121.615 152.037 131.998 154.896 142.377 157.776C150.75 160.102 155.28 165.955 155.349 174.667C155.398 180.621 155.293 186.575 155.402 192.525C155.434 194.224 154.86 194.552 153.286 194.548C127.634 194.503 101.982 194.515 76.3297 194.515C54.0792 194.515 31.8327 194.515 9.58219 194.515C6.52027 194.515 6.51218 194.515 6.52431 191.356C6.54858 185.079 6.35443 178.785 6.6861 172.524C7.04609 165.748 10.6702 160.773 17.057 158.662C25.725 155.798 34.6155 153.602 43.409 151.118C45.67 150.479 47.9836 149.978 50.184 149.173C52.0487 148.489 52.5664 149.165 52.979 150.88C55.0176 159.386 57.1775 167.864 59.2929 176.35C59.3698 176.657 59.4709 176.953 59.661 177.584L59.6691 177.588Z" fill="#6610F2"/>
<path d="M62.7027 120.56C61.554 116.62 60.4781 113.15 59.0866 109.78C55.7416 101.667 50.5521 94.6649 45.666 87.4894C42.418 82.7206 39.3358 77.9073 37.7139 72.2931C33.6326 58.1807 35.4892 44.9057 43.9388 32.8966C53.0235 19.9815 65.801 13.5381 81.5515 13.3844C98.8674 13.2146 115.989 11.5602 132.868 7.66103C134.15 7.36576 134.878 7.60845 135.667 8.65201C145.217 21.3042 144.541 37.7342 133.964 49.5087C133.192 50.3662 132.629 50.981 131.444 49.9698C127.852 46.9038 123.512 45.6904 118.909 45.6782C111.524 45.658 104.134 45.4113 96.7479 45.8643C84.2454 46.6328 72.6772 57.5861 71.5447 70.1048C71.2656 73.2032 70.7317 74.8858 67.1399 75.7029C61.2466 77.0417 57.946 82.8096 58.3384 88.3105C58.8116 94.9926 63.3701 99.7816 69.5384 100.473C70.6953 100.603 71.0512 100.866 70.8813 102.152C69.9672 108.931 67.3381 114.909 62.6987 120.556L62.7027 120.56Z" fill="#655740"/>
<path d="M108.886 52.186C112.159 52.186 115.427 52.1658 118.699 52.186C126.748 52.2426 132.435 57.5009 132.658 65.5096C132.921 74.9785 135.821 83.4241 141.544 90.9313C142.074 91.627 142.559 92.3389 142.171 93.2489C141.714 94.3208 140.711 94.3249 139.821 94.1752C137.73 93.8233 136.634 94.7334 135.906 96.6304C135.259 98.3292 134.385 99.9552 133.483 101.541C130.999 105.921 129.559 110.545 129.199 115.625C128.783 121.486 123.937 125.923 118.117 126.429C115.613 126.647 113.218 126.445 110.783 125.688C101.751 122.885 92.6627 120.264 83.6225 117.473C82.1259 117.012 81.5313 117.356 81.2886 118.8C81.0419 120.26 79.699 121.886 80.3502 123.019C80.9974 124.143 83.0239 124.062 84.4476 124.499C88.1891 125.652 91.9225 126.825 95.6922 127.877C96.7965 128.184 97.116 128.669 97.0917 129.774C97.0189 133.042 97.0311 136.314 97.0877 139.582C97.1039 140.598 96.8288 141.224 95.9309 141.807C91.2753 144.832 86.6642 147.927 82.0693 151.045C81.2482 151.603 80.6496 151.644 79.8042 151.065C75.1608 147.906 70.4849 144.792 65.7849 141.718C64.9516 141.172 64.7292 140.557 64.7575 139.627C64.8465 136.29 64.6361 132.953 64.1872 129.648C64.0456 128.601 64.5472 128.087 65.1498 127.48C71.0269 121.526 74.9828 114.517 76.7261 106.302C77.4906 102.706 77.709 99.0613 77.7373 95.3927C77.7454 94.4341 77.4178 94.155 76.4955 94.1833C74.732 94.2399 72.9644 94.2399 71.1968 94.1833C67.5525 94.07 64.8343 91.36 64.7898 87.8572C64.7454 84.3301 67.3462 81.5594 70.9703 81.2844C71.4921 81.2439 72.0179 81.2884 72.5397 81.2561C74.2143 81.1469 76.4996 82.0003 77.3975 80.9001C78.2429 79.8647 77.7009 77.6683 77.709 75.9816C77.7211 73.3646 77.8425 70.776 78.5058 68.2075C80.8194 59.2604 89.0709 52.5096 98.293 52.2265C101.82 52.1172 105.355 52.2103 108.89 52.2103C108.89 52.2022 108.89 52.1901 108.89 52.182L108.886 52.186Z" fill="#EECFB3"/>
<path d="M86.3204 155.972C91.0447 152.821 95.5628 149.844 100.032 146.794C101.044 146.107 101.962 146.398 102.779 146.851C103.64 147.324 102.904 148.153 102.763 148.74C101.383 154.435 99.9231 160.114 98.4265 166.04C94.3655 162.662 90.4178 159.382 86.3163 155.972H86.3204Z" fill="#F7D36E"/>
<path d="M63.4024 166.051C61.8492 159.843 60.3688 153.982 58.9289 148.109C58.8278 147.692 58.3666 147.093 59.1594 146.786C60.0857 146.43 60.9351 146.179 61.9139 146.859C64.9678 148.982 68.0863 151.005 71.1766 153.071C72.5842 154.01 73.9837 154.96 75.5005 155.984C71.488 159.321 67.5888 162.569 63.3984 166.051H63.4024Z" fill="#F8D46E"/>
</svg>
