<svg width="477" height="215" viewBox="0 0 477 215" fill="none" xmlns="http://www.w3.org/2000/svg">
<path d="M45.8363 75H6.47625V21.4H45.8363V31.56H17.9163V42.84H41.2763V53H17.9163V64.84H45.8363V75ZM65.7994 31.16H54.3594V21.4H65.7994V31.16ZM52.2794 90.68C45.7194 90.68 41.7994 87.8 39.6394 85.48L45.4794 77.56C46.6794 79.48 48.4394 80.76 50.6794 80.76C53.0794 80.76 54.3594 79.56 54.3594 76.36V35.8H65.7994V76.28C65.7994 84.12 61.1594 90.68 52.2794 90.68ZM92.2106 75.8C79.7306 75.8 72.1306 67.48 72.1306 55.4C72.1306 43.32 79.7306 35 91.2506 35C103.731 35 109.971 43.32 109.971 53.56C109.971 55.24 109.811 57.48 109.571 58.36H82.8506C83.5706 63.88 87.2506 66.52 92.3706 66.52C97.8906 66.52 100.851 64.12 102.291 60.76L109.251 67.72C106.291 71.96 101.011 75.8 92.2106 75.8ZM91.3306 43.8C86.4506 43.8 83.4106 46.52 82.8506 51.8H99.6506C99.2506 46.6 96.4506 43.8 91.3306 43.8ZM127.987 75H116.547V35.8H127.987V48.12C129.267 41.56 133.107 35 140.627 35C146.387 35 149.587 38.68 149.587 44.84C149.587 49.08 148.307 52.44 147.347 53.96H136.307C137.747 52.52 139.107 49.72 139.107 47.48C139.107 45.24 138.067 43.56 135.587 43.56C131.667 43.56 127.987 47.8 127.987 54.28V75ZM171.574 75.8C159.494 75.8 151.894 67.4 151.894 55.4C151.894 43.48 159.494 35 171.574 35C180.934 35 187.414 40.12 189.814 46.84L180.294 52.36C179.334 47.48 176.774 44.52 171.974 44.52C166.934 44.52 163.574 48.2 163.574 55.4C163.574 62.6 166.934 66.28 171.974 66.28C176.854 66.28 179.334 63.32 180.294 58.44L189.814 63.96C187.414 70.68 180.934 75.8 171.574 75.8ZM206.581 31.16H195.141V21.4H206.581V31.16ZM206.581 75H195.141V35.8H206.581V75ZM232.512 75.8C220.432 75.8 212.832 67.4 212.832 55.4C212.832 43.48 220.432 35 232.512 35C241.872 35 248.352 40.12 250.752 46.84L241.232 52.36C240.272 47.48 237.712 44.52 232.912 44.52C227.872 44.52 224.512 48.2 224.512 55.4C224.512 62.6 227.872 66.28 232.912 66.28C237.792 66.28 240.272 63.32 241.232 58.44L250.752 63.96C248.352 70.68 241.872 75.8 232.512 75.8ZM267.518 31.16H256.078V21.4H267.518V31.16ZM267.518 75H256.078V35.8H267.518V75ZM293.209 75.8C281.289 75.8 273.609 67.4 273.609 55.4C273.609 43.48 281.289 35 293.209 35C305.449 35 313.209 43.48 313.209 55.4C313.209 67.4 305.449 75.8 293.209 75.8ZM293.369 66.52C298.249 66.52 301.609 63.4 301.609 55.4C301.609 47.32 298.249 44.28 293.369 44.28C288.569 44.28 285.209 47.32 285.209 55.4C285.209 63.4 288.569 66.52 293.369 66.52ZM336.174 75.8C327.454 75.8 319.694 72.6 316.334 67.88L321.614 60.12C324.894 63.64 330.574 67.08 336.494 67.08C339.614 67.08 341.454 66.12 341.454 64.04C341.454 61.96 339.214 61.16 335.054 60.12L329.774 58.84C322.734 57 317.614 54.2 317.614 47.32C317.614 39.64 323.854 35.08 333.454 35.08C341.934 35.08 348.094 38.76 350.814 42.2L345.694 49.88C341.854 45.88 337.054 43.72 332.494 43.72C329.694 43.72 328.014 44.76 328.014 46.68C328.014 48.76 329.694 49.56 334.894 51L339.294 52.2C347.934 54.52 351.694 57.88 351.694 63.88C351.694 71.48 345.294 75.8 336.174 75.8ZM380.795 78.2H370.155L390.955 18.2H401.595L380.795 78.2ZM440.779 75H404.939V66.6L418.539 51.72L426.939 44.52L415.339 45.08H406.059V35.8H439.979V44.2L426.139 58.36L417.259 66.2L429.339 65.72H440.779V75ZM454.779 78.2H444.139L464.939 18.2H475.579L454.779 78.2Z" fill="#0C0C0D"/>
<path d="M43.8363 73H4.47625V19.4H43.8363V29.56H15.9163V40.84H39.2763V51H15.9163V62.84H43.8363V73ZM63.7994 29.16H52.3594V19.4H63.7994V29.16ZM50.2794 88.68C43.7194 88.68 39.7994 85.8 37.6394 83.48L43.4794 75.56C44.6794 77.48 46.4394 78.76 48.6794 78.76C51.0794 78.76 52.3594 77.56 52.3594 74.36V33.8H63.7994V74.28C63.7994 82.12 59.1594 88.68 50.2794 88.68ZM90.2106 73.8C77.7306 73.8 70.1306 65.48 70.1306 53.4C70.1306 41.32 77.7306 33 89.2506 33C101.731 33 107.971 41.32 107.971 51.56C107.971 53.24 107.811 55.48 107.571 56.36H80.8506C81.5706 61.88 85.2506 64.52 90.3706 64.52C95.8906 64.52 98.8506 62.12 100.291 58.76L107.251 65.72C104.291 69.96 99.0106 73.8 90.2106 73.8ZM89.3306 41.8C84.4506 41.8 81.4106 44.52 80.8506 49.8H97.6506C97.2506 44.6 94.4506 41.8 89.3306 41.8ZM125.987 73H114.547V33.8H125.987V46.12C127.267 39.56 131.107 33 138.627 33C144.387 33 147.587 36.68 147.587 42.84C147.587 47.08 146.307 50.44 145.347 51.96H134.307C135.747 50.52 137.107 47.72 137.107 45.48C137.107 43.24 136.067 41.56 133.587 41.56C129.667 41.56 125.987 45.8 125.987 52.28V73ZM169.574 73.8C157.494 73.8 149.894 65.4 149.894 53.4C149.894 41.48 157.494 33 169.574 33C178.934 33 185.414 38.12 187.814 44.84L178.294 50.36C177.334 45.48 174.774 42.52 169.974 42.52C164.934 42.52 161.574 46.2 161.574 53.4C161.574 60.6 164.934 64.28 169.974 64.28C174.854 64.28 177.334 61.32 178.294 56.44L187.814 61.96C185.414 68.68 178.934 73.8 169.574 73.8ZM204.581 29.16H193.141V19.4H204.581V29.16ZM204.581 73H193.141V33.8H204.581V73ZM230.512 73.8C218.432 73.8 210.832 65.4 210.832 53.4C210.832 41.48 218.432 33 230.512 33C239.872 33 246.352 38.12 248.752 44.84L239.232 50.36C238.272 45.48 235.712 42.52 230.912 42.52C225.872 42.52 222.512 46.2 222.512 53.4C222.512 60.6 225.872 64.28 230.912 64.28C235.792 64.28 238.272 61.32 239.232 56.44L248.752 61.96C246.352 68.68 239.872 73.8 230.512 73.8ZM265.518 29.16H254.078V19.4H265.518V29.16ZM265.518 73H254.078V33.8H265.518V73ZM291.209 73.8C279.289 73.8 271.609 65.4 271.609 53.4C271.609 41.48 279.289 33 291.209 33C303.449 33 311.209 41.48 311.209 53.4C311.209 65.4 303.449 73.8 291.209 73.8ZM291.369 64.52C296.249 64.52 299.609 61.4 299.609 53.4C299.609 45.32 296.249 42.28 291.369 42.28C286.569 42.28 283.209 45.32 283.209 53.4C283.209 61.4 286.569 64.52 291.369 64.52ZM334.174 73.8C325.454 73.8 317.694 70.6 314.334 65.88L319.614 58.12C322.894 61.64 328.574 65.08 334.494 65.08C337.614 65.08 339.454 64.12 339.454 62.04C339.454 59.96 337.214 59.16 333.054 58.12L327.774 56.84C320.734 55 315.614 52.2 315.614 45.32C315.614 37.64 321.854 33.08 331.454 33.08C339.934 33.08 346.094 36.76 348.814 40.2L343.694 47.88C339.854 43.88 335.054 41.72 330.494 41.72C327.694 41.72 326.014 42.76 326.014 44.68C326.014 46.76 327.694 47.56 332.894 49L337.294 50.2C345.934 52.52 349.694 55.88 349.694 61.88C349.694 69.48 343.294 73.8 334.174 73.8ZM378.795 76.2H368.155L388.955 16.2H399.595L378.795 76.2ZM438.779 73H402.939V64.6L416.539 49.72L424.939 42.52L413.339 43.08H404.059V33.8H437.979V42.2L424.139 56.36L415.259 64.2L427.339 63.72H438.779V73ZM452.779 76.2H442.139L462.939 16.2H473.579L452.779 76.2Z" fill="#6610F2"/>
<g clip-path="url(#clip0_2020_2)">
<path d="M314.087 137.282C313.952 134.249 311.83 132.49 308.969 132.163C284.651 129.393 260.257 127.341 235.818 126.01L238.624 125.944C244.091 125.811 249.538 125.465 254.928 124.475C254.991 124.464 255.052 124.444 255.113 124.428C262.464 124.37 269.815 124.442 277.161 124.619C286.996 124.854 296.826 125.274 306.651 125.8C309.329 125.944 311.888 123.343 311.769 120.682C311.636 117.688 309.514 115.84 306.651 115.563C274.339 112.451 241.808 111.704 209.389 113.367C204.942 113.593 200.499 113.87 196.059 114.188C194.83 112.531 192.744 111.64 190.6 112.232C184.702 113.859 178.792 115.458 172.877 117.027C170.409 117.683 168.879 120.173 169.211 122.643C169.275 123.116 169.418 123.589 169.623 124.04C168.962 124.945 168.564 126.043 168.611 127.084C168.716 129.452 170.152 131.242 172.368 132.019C179.846 134.645 187.941 134.609 195.812 134.734C195.575 135.14 195.389 135.564 195.276 135.976C194.764 137.829 195.37 139.553 196.593 140.956C199.835 144.671 205.352 144.743 209.87 145.25C214.393 145.759 218.934 146.124 223.474 146.453C225.651 146.611 227.831 146.76 230.011 146.912C230.047 147.687 230.252 148.448 230.659 149.123C232.424 152.061 235.376 154.36 238.79 154.988C241.128 155.417 243.775 154.51 244.785 152.288C252.039 152.573 259.305 152.446 266.551 151.906C269.113 151.715 271.224 150.105 271.578 147.469C271.91 145.001 270.391 142.505 267.912 141.852C263.801 140.77 259.648 139.94 255.473 139.279C265.369 139.487 275.257 140.001 285.134 140.651C293.086 141.177 301.029 141.789 308.975 142.406C311.65 142.613 314.209 139.904 314.093 137.287L314.087 137.282Z" fill="#0C0C0D"/>
<path d="M311.738 135.716C311.603 132.683 309.481 130.924 306.62 130.597C282.302 127.827 257.908 125.775 233.469 124.444L236.275 124.378C241.742 124.245 247.189 123.899 252.579 122.909C252.642 122.898 252.703 122.878 252.764 122.862C260.115 122.804 267.466 122.876 274.812 123.053C284.647 123.288 294.477 123.708 304.302 124.234C306.98 124.378 309.539 121.777 309.42 119.116C309.287 116.122 307.165 114.274 304.302 113.997C271.99 110.885 239.459 110.138 207.039 111.801C202.593 112.027 198.15 112.304 193.71 112.622C192.481 110.965 190.395 110.074 188.251 110.666C182.352 112.293 176.443 113.892 170.528 115.461C168.06 116.117 166.53 118.607 166.862 121.077C166.926 121.55 167.069 122.023 167.274 122.474C166.613 123.379 166.215 124.477 166.262 125.518C166.367 127.886 167.803 129.676 170.019 130.453C177.497 133.079 185.592 133.043 193.463 133.168C193.225 133.574 193.04 133.998 192.927 134.41C192.415 136.263 193.021 137.987 194.244 139.39C197.486 143.105 203.003 143.177 207.521 143.684C212.044 144.193 216.584 144.558 221.125 144.887C223.302 145.045 225.482 145.194 227.662 145.346C227.698 146.121 227.903 146.882 228.31 147.557C230.075 150.495 233.027 152.794 236.441 153.422C238.779 153.851 241.426 152.944 242.436 150.722C249.69 151.007 256.956 150.88 264.202 150.34C266.763 150.149 268.874 148.539 269.229 145.903C269.561 143.435 268.042 140.939 265.563 140.286C261.451 139.204 257.299 138.374 253.124 137.713C263.02 137.921 272.908 138.435 282.785 139.085C290.737 139.611 298.68 140.223 306.626 140.84C309.301 141.047 311.86 138.338 311.744 135.721L311.738 135.716Z" fill="#6610F2"/>
</g>
<defs>
<clipPath id="clip0_2020_2">
<rect width="166" height="166" fill="white" transform="translate(156 49)"/>
</clipPath>
</defs>
</svg>