<svg width="409" height="156" viewBox="0 0 409 156" fill="none" xmlns="http://www.w3.org/2000/svg">
<path d="M45.8206 75H6.46063V21.4H45.8206V31.56H17.9006V42.84H41.2606V53H17.9006V64.84H45.8206V75ZM65.7838 31.16H54.3438V21.4H65.7838V31.16ZM52.2638 90.68C45.7037 90.68 41.7837 87.8 39.6237 85.48L45.4637 77.56C46.6637 79.48 48.4237 80.76 50.6638 80.76C53.0638 80.76 54.3438 79.56 54.3438 76.36V35.8H65.7838V76.28C65.7838 84.12 61.1438 90.68 52.2638 90.68ZM92.195 75.8C79.715 75.8 72.115 67.48 72.115 55.4C72.115 43.32 79.715 35 91.235 35C103.715 35 109.955 43.32 109.955 53.56C109.955 55.24 109.795 57.48 109.555 58.36H82.835C83.555 63.88 87.235 66.52 92.355 66.52C97.875 66.52 100.835 64.12 102.275 60.76L109.235 67.72C106.275 71.96 100.995 75.8 92.195 75.8ZM91.315 43.8C86.435 43.8 83.395 46.52 82.835 51.8H99.635C99.235 46.6 96.435 43.8 91.315 43.8ZM127.971 75H116.531V35.8H127.971V48.12C129.251 41.56 133.091 35 140.611 35C146.371 35 149.571 38.68 149.571 44.84C149.571 49.08 148.291 52.44 147.331 53.96H136.291C137.731 52.52 139.091 49.72 139.091 47.48C139.091 45.24 138.051 43.56 135.571 43.56C131.651 43.56 127.971 47.8 127.971 54.28V75ZM171.559 75.8C159.479 75.8 151.879 67.4 151.879 55.4C151.879 43.48 159.479 35 171.559 35C180.919 35 187.399 40.12 189.799 46.84L180.279 52.36C179.319 47.48 176.759 44.52 171.959 44.52C166.919 44.52 163.559 48.2 163.559 55.4C163.559 62.6 166.919 66.28 171.959 66.28C176.839 66.28 179.319 63.32 180.279 58.44L189.799 63.96C187.399 70.68 180.919 75.8 171.559 75.8ZM206.565 31.16H195.125V21.4H206.565V31.16ZM206.565 75H195.125V35.8H206.565V75ZM232.496 75.8C220.416 75.8 212.816 67.4 212.816 55.4C212.816 43.48 220.416 35 232.496 35C241.856 35 248.336 40.12 250.736 46.84L241.216 52.36C240.256 47.48 237.696 44.52 232.896 44.52C227.856 44.52 224.496 48.2 224.496 55.4C224.496 62.6 227.856 66.28 232.896 66.28C237.776 66.28 240.256 63.32 241.216 58.44L250.736 63.96C248.336 70.68 241.856 75.8 232.496 75.8ZM267.503 31.16H256.063V21.4H267.503V31.16ZM267.503 75H256.063V35.8H267.503V75ZM293.194 75.8C281.274 75.8 273.594 67.4 273.594 55.4C273.594 43.48 281.274 35 293.194 35C305.434 35 313.194 43.48 313.194 55.4C313.194 67.4 305.434 75.8 293.194 75.8ZM293.354 66.52C298.234 66.52 301.594 63.4 301.594 55.4C301.594 47.32 298.234 44.28 293.354 44.28C288.554 44.28 285.194 47.32 285.194 55.4C285.194 63.4 288.554 66.52 293.354 66.52ZM336.159 75.8C327.439 75.8 319.679 72.6 316.319 67.88L321.599 60.12C324.879 63.64 330.559 67.08 336.479 67.08C339.599 67.08 341.439 66.12 341.439 64.04C341.439 61.96 339.199 61.16 335.039 60.12L329.759 58.84C322.719 57 317.599 54.2 317.599 47.32C317.599 39.64 323.839 35.08 333.439 35.08C341.919 35.08 348.079 38.76 350.799 42.2L345.679 49.88C341.839 45.88 337.039 43.72 332.479 43.72C329.679 43.72 327.999 44.76 327.999 46.68C327.999 48.76 329.679 49.56 334.879 51L339.279 52.2C347.919 54.52 351.679 57.88 351.679 63.88C351.679 71.48 345.279 75.8 336.159 75.8ZM406.779 75H370.939V66.6L384.539 51.72L392.939 44.52L381.339 45.08H372.059V35.8H405.979V44.2L392.139 58.36L383.259 66.2L395.339 65.72H406.779V75Z" fill="#0C0C0D"/>
<path d="M43.8206 73H4.46063V19.4H43.8206V29.56H15.9006V40.84H39.2606V51H15.9006V62.84H43.8206V73ZM63.7838 29.16H52.3438V19.4H63.7838V29.16ZM50.2638 88.68C43.7037 88.68 39.7837 85.8 37.6237 83.48L43.4637 75.56C44.6637 77.48 46.4237 78.76 48.6638 78.76C51.0638 78.76 52.3438 77.56 52.3438 74.36V33.8H63.7838V74.28C63.7838 82.12 59.1438 88.68 50.2638 88.68ZM90.195 73.8C77.715 73.8 70.115 65.48 70.115 53.4C70.115 41.32 77.715 33 89.235 33C101.715 33 107.955 41.32 107.955 51.56C107.955 53.24 107.795 55.48 107.555 56.36H80.835C81.555 61.88 85.235 64.52 90.355 64.52C95.875 64.52 98.835 62.12 100.275 58.76L107.235 65.72C104.275 69.96 98.995 73.8 90.195 73.8ZM89.315 41.8C84.435 41.8 81.395 44.52 80.835 49.8H97.635C97.235 44.6 94.435 41.8 89.315 41.8ZM125.971 73H114.531V33.8H125.971V46.12C127.251 39.56 131.091 33 138.611 33C144.371 33 147.571 36.68 147.571 42.84C147.571 47.08 146.291 50.44 145.331 51.96H134.291C135.731 50.52 137.091 47.72 137.091 45.48C137.091 43.24 136.051 41.56 133.571 41.56C129.651 41.56 125.971 45.8 125.971 52.28V73ZM169.559 73.8C157.479 73.8 149.879 65.4 149.879 53.4C149.879 41.48 157.479 33 169.559 33C178.919 33 185.399 38.12 187.799 44.84L178.279 50.36C177.319 45.48 174.759 42.52 169.959 42.52C164.919 42.52 161.559 46.2 161.559 53.4C161.559 60.6 164.919 64.28 169.959 64.28C174.839 64.28 177.319 61.32 178.279 56.44L187.799 61.96C185.399 68.68 178.919 73.8 169.559 73.8ZM204.565 29.16H193.125V19.4H204.565V29.16ZM204.565 73H193.125V33.8H204.565V73ZM230.496 73.8C218.416 73.8 210.816 65.4 210.816 53.4C210.816 41.48 218.416 33 230.496 33C239.856 33 246.336 38.12 248.736 44.84L239.216 50.36C238.256 45.48 235.696 42.52 230.896 42.52C225.856 42.52 222.496 46.2 222.496 53.4C222.496 60.6 225.856 64.28 230.896 64.28C235.776 64.28 238.256 61.32 239.216 56.44L248.736 61.96C246.336 68.68 239.856 73.8 230.496 73.8ZM265.503 29.16H254.063V19.4H265.503V29.16ZM265.503 73H254.063V33.8H265.503V73ZM291.194 73.8C279.274 73.8 271.594 65.4 271.594 53.4C271.594 41.48 279.274 33 291.194 33C303.434 33 311.194 41.48 311.194 53.4C311.194 65.4 303.434 73.8 291.194 73.8ZM291.354 64.52C296.234 64.52 299.594 61.4 299.594 53.4C299.594 45.32 296.234 42.28 291.354 42.28C286.554 42.28 283.194 45.32 283.194 53.4C283.194 61.4 286.554 64.52 291.354 64.52ZM334.159 73.8C325.439 73.8 317.679 70.6 314.319 65.88L319.599 58.12C322.879 61.64 328.559 65.08 334.479 65.08C337.599 65.08 339.439 64.12 339.439 62.04C339.439 59.96 337.199 59.16 333.039 58.12L327.759 56.84C320.719 55 315.599 52.2 315.599 45.32C315.599 37.64 321.839 33.08 331.439 33.08C339.919 33.08 346.079 36.76 348.799 40.2L343.679 47.88C339.839 43.88 335.039 41.72 330.479 41.72C327.679 41.72 325.999 42.76 325.999 44.68C325.999 46.76 327.679 47.56 332.879 49L337.279 50.2C345.919 52.52 349.679 55.88 349.679 61.88C349.679 69.48 343.279 73.8 334.159 73.8ZM404.779 73H368.939V64.6L382.539 49.72L390.939 42.52L379.339 43.08H370.059V33.8H403.979V42.2L390.139 56.36L381.259 64.2L393.339 63.72H404.779V73Z" fill="#6610F2"/>
<path d="M280.087 137.282C279.952 134.249 277.83 132.49 274.969 132.163C250.651 129.393 226.257 127.341 201.818 126.01L204.624 125.944C210.091 125.811 215.538 125.465 220.928 124.475C220.991 124.464 221.052 124.444 221.113 124.428C228.464 124.37 235.815 124.442 243.161 124.619C252.996 124.854 262.826 125.274 272.651 125.8C275.329 125.944 277.888 123.343 277.769 120.682C277.636 117.688 275.514 115.84 272.651 115.563C240.339 112.451 207.808 111.704 175.389 113.367C170.942 113.593 166.499 113.87 162.059 114.188C160.83 112.531 158.744 111.64 156.6 112.232C150.702 113.859 144.792 115.458 138.877 117.027C136.409 117.683 134.879 120.173 135.211 122.643C135.275 123.116 135.418 123.589 135.623 124.04C134.962 124.945 134.564 126.043 134.611 127.084C134.716 129.452 136.152 131.242 138.368 132.019C145.846 134.645 153.941 134.609 161.812 134.734C161.575 135.14 161.389 135.564 161.276 135.976C160.764 137.829 161.37 139.553 162.593 140.956C165.835 144.671 171.352 144.743 175.87 145.25C180.393 145.759 184.934 146.124 189.474 146.453C191.651 146.611 193.831 146.76 196.011 146.912C196.047 147.687 196.252 148.448 196.659 149.123C198.424 152.061 201.376 154.36 204.79 154.988C207.128 155.417 209.775 154.51 210.785 152.288C218.039 152.573 225.305 152.446 232.551 151.906C235.113 151.715 237.224 150.105 237.578 147.469C237.91 145.001 236.391 142.505 233.912 141.852C229.801 140.77 225.648 139.94 221.473 139.279C231.369 139.487 241.257 140.001 251.134 140.651C259.086 141.177 267.029 141.789 274.975 142.406C277.65 142.613 280.209 139.904 280.093 137.287L280.087 137.282Z" fill="#0C0C0D"/>
<path d="M277.738 135.716C277.603 132.683 275.481 130.924 272.62 130.597C248.302 127.827 223.908 125.775 199.469 124.444L202.275 124.378C207.742 124.245 213.189 123.899 218.579 122.909C218.642 122.898 218.703 122.878 218.764 122.862C226.115 122.804 233.466 122.876 240.812 123.053C250.647 123.288 260.477 123.708 270.302 124.234C272.98 124.378 275.539 121.777 275.42 119.116C275.287 116.122 273.165 114.274 270.302 113.997C237.99 110.885 205.459 110.138 173.039 111.801C168.593 112.027 164.15 112.304 159.71 112.622C158.481 110.965 156.395 110.074 154.251 110.666C148.352 112.293 142.443 113.892 136.528 115.461C134.06 116.117 132.53 118.607 132.862 121.077C132.926 121.55 133.069 122.023 133.274 122.474C132.613 123.379 132.215 124.477 132.262 125.518C132.367 127.886 133.803 129.676 136.019 130.453C143.497 133.079 151.592 133.043 159.463 133.168C159.225 133.574 159.04 133.998 158.927 134.41C158.415 136.263 159.021 137.987 160.244 139.39C163.486 143.105 169.003 143.177 173.521 143.684C178.044 144.193 182.584 144.558 187.125 144.887C189.302 145.045 191.482 145.194 193.662 145.346C193.698 146.121 193.903 146.882 194.31 147.557C196.075 150.495 199.027 152.794 202.441 153.422C204.779 153.851 207.426 152.944 208.436 150.722C215.69 151.007 222.956 150.88 230.202 150.34C232.763 150.149 234.874 148.539 235.229 145.903C235.561 143.435 234.042 140.939 231.563 140.286C227.451 139.204 223.299 138.374 219.124 137.713C229.02 137.921 238.908 138.435 248.785 139.085C256.737 139.611 264.68 140.223 272.626 140.84C275.301 141.047 277.86 138.338 277.744 135.721L277.738 135.716Z" fill="#6610F2"/>
</svg>
