<?xml version="1.0" encoding="UTF-8"?>
<svg id="Capa_2" data-name="Capa 2" xmlns="http://www.w3.org/2000/svg" viewBox="0 0 234.25 282.4">
  <defs>
    <style>
      .cls-1 {
        fill: #6610f2;
      }
    </style>
  </defs>
  <g id="Capa_1-2" data-name="Capa 1">
    <path d="M6,282.4v-5.5L140.2,9.6h-38.5c-20.9,0-37.95,6.6-51.15,19.8-12.83,12.83-21.45,33.55-25.85,62.15h-6.6L29.65,3H223.25v5.5L87.95,275.25h58.3c22.37,0,40.15-7.33,53.35-22,13.57-14.67,22.92-38.5,28.05-71.5h6.6l-13.75,100.65H6Z"/>
    <path class="cls-1" d="M0,279.4v-5.5L134.2,6.6h-38.5c-20.9,0-37.95,6.6-51.15,19.8-12.83,12.83-21.45,33.55-25.85,62.15h-6.6L23.65,0H217.25V5.5L81.95,272.25h58.3c22.37,0,40.15-7.33,53.35-22,13.57-14.67,22.92-38.5,28.05-71.5h6.6l-13.75,100.65H0Z"/>
  </g>
</svg>