<svg width="482" height="400" viewBox="0 0 482 400" fill="none" xmlns="http://www.w3.org/2000/svg">
<path d="M6 399.45L106.35 2.99998H135.6L36.15 399.9L6 399.45ZM147.339 345V340.5L257.139 121.8H225.639C208.539 121.8 194.589 127.2 183.789 138C173.289 148.5 166.239 165.45 162.639 188.85H157.239L166.689 116.4H325.089V120.9L214.389 339.15H262.089C280.389 339.15 294.939 333.15 305.739 321.15C316.839 309.15 324.489 289.65 328.689 262.65H334.089L322.839 345H147.339ZM352.289 399.45L452.639 2.99998H481.889L382.439 399.9L352.289 399.45Z" fill="black"/>
<path d="M0 396.45L100.35 -2.25306e-05H129.6L30.15 396.9L0 396.45ZM141.339 342V337.5L251.139 118.8H219.639C202.539 118.8 188.589 124.2 177.789 135C167.289 145.5 160.239 162.45 156.639 185.85H151.239L160.689 113.4H319.089V117.9L208.389 336.15H256.089C274.389 336.15 288.939 330.15 299.739 318.15C310.839 306.15 318.489 286.65 322.689 259.65H328.089L316.839 342H141.339ZM346.289 396.45L446.639 -2.25306e-05H475.889L376.439 396.9L346.289 396.45Z" fill="#6610F2"/>
</svg>