<svg width="153" height="201" viewBox="0 0 153 201" fill="none" xmlns="http://www.w3.org/2000/svg">
<g clip-path="url(#clip0_2475_1437)">
<path d="M2.77497 187.183C2.41668 187.896 2.03564 188.661 1.05746 188.393C0.289704 188.182 -0.0117118 187.525 -0.00602465 186.738C0.090656 174.861 -0.0060246 162.962 3.70196 151.468C4.79957 148.066 6.30665 144.859 8.45069 141.999C9.16158 141.052 9.25257 140.19 9.08196 139.055C8.43932 134.694 7.84217 130.328 8.31989 125.888C8.61562 123.143 9.372 120.586 10.936 118.332C16.8733 109.765 17.5728 100.902 12.5852 91.6567C12.0506 90.6637 11.6582 89.585 11.1691 88.5634C8.74642 83.5525 9.15589 78.6901 11.8061 73.8846C13.2904 71.1966 15.1273 68.7596 16.9529 66.317C19.6145 62.7443 20.3595 58.9034 19.7225 54.4689C18.5396 46.205 19.0458 38.0095 21.9405 30.0823C23.9082 24.6947 27.2465 20.8709 33.1611 19.5583C39.1269 18.2342 44.0519 14.9526 47.3789 9.8105C52.52 1.89469 59.9985 -0.479486 68.8363 0.0741076C85.1185 1.09569 99.5694 6.81425 111.956 17.4866C117.165 21.9724 121.084 27.4456 122.272 34.4311C122.869 37.9353 122.83 41.5194 122.875 45.075C122.921 48.8474 122.96 52.6198 123 56.3922C123.051 60.8838 124.689 64.6733 127.914 67.8122C130.405 70.2378 132.947 72.6291 135.267 75.2201C139.84 80.3337 143.144 86.155 144.213 93.0492C145.76 103.02 142.444 111.261 135.006 117.841C132.788 119.804 131.787 122.036 131.747 124.901C131.69 129.004 132.657 132.936 133.595 136.874C133.72 137.388 134.079 137.913 134.465 138.296C140.266 144.06 142.837 151.342 144.168 159.184C145.703 168.207 145.612 177.327 145.646 186.43C145.646 187.229 145.629 188.062 144.702 188.364C143.724 188.684 143.315 187.948 142.916 187.251C143.042 177.429 142.933 167.63 141.216 157.911C139.14 146.16 133.015 137.651 121.829 133.159C116.42 130.985 110.756 129.723 105.001 128.844C103.823 128.662 103.528 129.078 103.55 130.191C103.607 133.176 103.533 136.167 103.584 139.157C103.602 140.373 103.26 141.235 102.026 141.589C101.122 141.081 100.815 140.293 100.849 139.277C100.894 137.782 100.877 136.287 100.855 134.797C100.821 132.822 101.492 130.231 100.502 129.038C99.4613 127.783 96.7827 128.822 94.832 128.628C92.9496 128.439 91.6359 128.685 92.0965 131.116C92.2501 131.926 91.8463 132.742 90.8681 132.788C89.7591 132.839 89.4634 132.023 89.4407 131.082C89.4179 130.157 89.4293 129.233 89.4293 128.308C89.4293 123.348 89.4293 118.383 89.4293 113.076C77.9868 119.605 67.0676 118.697 56.3076 111.289C56.3076 117.55 56.3076 123.303 56.3076 129.061C56.3076 129.912 56.3076 130.768 56.2451 131.618C56.1939 132.366 55.7048 132.8 54.9882 132.805C54.2603 132.817 53.7996 132.354 53.6802 131.647C53.6006 131.162 53.5721 130.648 53.6347 130.157C53.7939 128.947 53.3219 128.553 52.1105 128.616C50.1314 128.713 48.1353 128.725 46.1562 128.616C44.8652 128.548 44.45 128.902 44.4898 130.248C44.5922 133.73 44.4671 137.223 44.5467 140.704C44.7685 149.904 48.6869 157.26 55.9095 162.808C60.499 166.329 65.7539 168.144 71.5547 168.344C71.1168 166.472 70.605 164.765 70.3263 163.025C68.4268 151.222 78.9195 140.618 90.6861 142.399C94.5249 142.981 97.6414 145.058 100.724 147.21C101.873 148.865 102.999 149.111 104.506 147.484C105.45 146.462 106.707 145.698 107.924 144.984C114.453 141.126 121.055 141.063 127.283 145.412C133.607 149.824 136.007 156.136 134.949 163.795C134.215 169.12 131.002 172.921 127.368 176.505C124.416 179.415 121.561 182.435 118.615 185.448C119.44 186.053 120.162 185.819 120.833 185.825C124.871 185.847 128.903 185.836 132.941 185.836C134.022 185.836 135.154 185.779 135.307 187.297C134.869 188.644 133.755 188.524 132.685 188.524C127.584 188.524 122.483 188.57 117.387 188.49C116.056 188.467 115.169 188.901 114.276 189.848C111.057 193.25 107.713 196.531 104.511 199.95C103.175 201.382 102.191 201.365 100.866 199.933C97.7267 196.554 94.4282 193.329 91.289 189.951C90.2823 188.867 89.2473 188.49 87.7914 188.49C64.0591 188.535 40.3326 188.524 16.6003 188.518C15.4913 188.518 14.2629 188.775 13.7283 187.348C13.8762 186.053 14.7349 185.819 15.8553 185.83C19.0458 185.859 22.2362 185.733 25.421 185.876C27.3034 185.962 28.02 185.516 27.9461 183.456C27.7811 178.982 27.8949 174.496 27.8949 170.016C27.8949 168.309 27.8949 166.603 27.9176 164.896C27.929 164.103 28.2589 163.47 29.129 163.435C29.9764 163.407 30.4086 163.989 30.5109 164.771C30.5849 165.33 30.5451 165.907 30.5451 166.477C30.5451 172.236 30.6076 178 30.5053 183.759C30.4768 185.419 30.9261 185.887 32.6038 185.876C50.0404 185.813 67.4771 185.842 84.9137 185.825C85.4938 185.825 86.1592 186.053 86.7734 185.431C86.2502 184.872 85.7838 184.364 85.3061 183.867C81.6209 180.026 77.8788 176.231 74.2902 172.304C73.4883 171.431 72.7888 171.066 71.6457 171.032C57.445 170.649 45.087 160.04 42.4595 146.063C41.5041 140.984 41.8738 135.853 41.9022 130.745C41.9136 128.902 41.2652 128.628 39.6956 128.844C35.9023 129.375 32.1773 130.146 28.5318 131.361C15.0363 135.864 6.79006 144.847 4.42422 159.149C2.88302 168.463 2.68397 177.812 2.80909 187.2L2.77497 187.183ZM130.126 134.614C129.728 131.806 129.302 129.506 129.091 127.189C128.682 122.646 129.592 118.623 133.464 115.604C136.359 113.35 138.452 110.348 139.891 106.963C143.4 98.7164 142.097 90.8634 137.832 83.2729C134.96 78.165 130.718 74.2613 126.577 70.272C122.369 66.2142 120.196 61.3917 120.293 55.4506C120.378 50.3312 119.878 45.2062 120.02 40.0926C120.236 32.1654 117.063 25.722 111.404 20.6598C98.0793 8.74897 82.4853 2.44828 64.4914 2.80783C58.9919 2.91627 54.2603 4.89094 51.0072 9.65641C46.5941 16.1169 40.8273 20.7054 33.0872 22.4347C29.1005 23.325 26.6892 25.9332 25.1366 29.483C21.8267 37.0678 21.1898 45.1263 22.3329 53.1277C23.2087 59.2344 22.0599 64.3366 18.3235 69.0678C16.8278 70.9569 15.4572 72.9487 14.2515 75.0489C11.8345 79.2608 11.607 83.4955 13.7681 87.8671C14.5245 89.391 15.1387 90.989 15.8894 92.5242C20.2457 101.45 19.5178 110.125 14.0525 118.206C9.84403 124.427 10.8222 130.956 11.5843 137.862C12.062 137.588 12.3179 137.485 12.517 137.32C18.4315 132.149 25.4153 129.158 32.928 127.281C39.1098 125.734 45.4168 125.694 51.7352 125.831C53.0375 125.86 53.6404 125.591 53.6119 124.096C53.5209 119.616 53.5607 115.13 53.5949 110.644C53.6006 109.703 53.2991 109.086 52.5428 108.493C47.5154 104.566 44.3249 99.3785 42.2889 93.3802C39.434 84.985 38.8994 76.293 38.6719 67.5269C38.5809 63.9085 38.3591 60.3929 41.9136 58.0987C42.0216 58.0302 42.0728 57.8647 42.1581 57.7562C46.5656 52.129 48.0841 45.4231 49.267 38.5916C49.4262 37.6842 49.3466 36.6398 50.5921 36.48C51.9797 36.3031 52.1219 37.4388 52.4745 38.3576C56.6204 49.1499 63.6326 57.6021 73.9376 62.7329C85.545 68.5085 97.7722 71.2308 110.688 67.2472C111.512 66.9961 112.303 66.9447 112.65 67.875C113.014 68.8566 112.53 69.5015 111.569 69.8326C110.5 70.2035 109.465 70.7229 108.373 70.9797C107.122 71.2708 106.673 71.8643 106.673 73.1827C106.667 77.3146 106.178 81.4124 105.359 85.4587C103.442 94.8755 100.229 103.665 92.9098 110.365C92.2387 110.981 92.1875 111.689 92.1932 112.482C92.2046 116.254 92.2728 120.027 92.1591 123.799C92.1079 125.409 92.597 125.871 94.1894 125.831C98.4376 125.728 102.692 125.654 106.911 126.408C114.959 127.84 122.847 129.723 130.132 134.614H130.126ZM51.1835 43.1288C49.5741 50.2342 47.2538 56.8031 41.9989 61.911C41.4927 62.4019 41.3278 62.9383 41.3506 63.6232C41.6122 70.8656 41.4586 78.1308 42.8974 85.2875C44.6491 94.008 47.8623 101.838 55.3465 107.323C60.1976 110.884 65.225 114.137 71.3443 114.645C82.201 115.541 90.7032 111.249 96.4358 101.935C101.918 93.0378 103.511 83.0389 104.028 72.7946C104.091 71.5675 103.42 71.6132 102.584 71.6303C98.1817 71.7273 93.8083 71.4933 89.4634 70.7286C73.1585 67.8522 60.6469 59.5426 52.4973 44.9095C52.1731 44.333 52.0878 43.5569 51.1835 43.1345V43.1288ZM86.8985 144.876C81.5981 145.098 76.8949 148.129 74.313 153.973C71.5718 160.171 72.2713 166.238 76.9177 171.231C84.9933 179.912 93.3761 188.301 101.594 196.839C102.424 197.701 102.948 197.735 103.778 196.845C106.053 194.402 108.401 192.034 110.727 189.643C116.71 183.479 122.858 177.469 128.636 171.117C134.306 164.885 133.789 155.183 127.868 149.276C121.84 143.266 113.008 143.478 105.882 149.733C102.441 152.757 103.363 153.1 99.467 149.784C96.1628 146.976 92.5458 144.824 86.8985 144.87V144.876Z" fill="#080808"/>
<path d="M2.77531 187.183C2.65019 177.795 2.85493 168.441 4.39044 159.132C6.75628 144.83 15.0026 135.853 28.4981 131.344C32.1378 130.129 35.8685 129.358 39.6618 128.827C41.2315 128.611 41.8798 128.884 41.8684 130.728C41.84 135.836 41.4703 140.967 42.4258 146.046C45.0532 160.017 57.4113 170.627 71.6119 171.015C72.7607 171.043 73.4546 171.414 74.2565 172.287C77.8507 176.214 81.5871 180.009 85.2724 183.85C85.7501 184.347 86.2164 184.854 86.7396 185.414C86.1254 186.036 85.46 185.808 84.88 185.808C67.4433 185.825 50.0067 185.796 32.57 185.859C30.8866 185.865 30.443 185.402 30.4715 183.742C30.5738 177.983 30.5113 172.219 30.5113 166.46C30.5113 165.89 30.5511 165.313 30.4772 164.754C30.3748 163.978 29.9426 163.39 29.0952 163.418C28.2251 163.453 27.8952 164.086 27.8838 164.879C27.8611 166.586 27.8611 168.292 27.8611 169.999C27.8611 174.479 27.7474 178.965 27.9123 183.439C27.9862 185.499 27.2696 185.945 25.3872 185.859C22.2024 185.716 19.012 185.842 15.8215 185.813C14.7068 185.802 13.8481 186.042 13.6945 187.331C10.0491 187.28 6.40368 187.229 2.76393 187.183H2.77531ZM6.79609 169.691C12.0623 152.455 20.9172 138.946 39.1614 133.153C16.7883 133.77 6.81884 155.252 6.79609 169.691Z" fill="#A0D2AE"/>
<path d="M102.027 141.589C103.261 141.235 103.602 140.373 103.585 139.157C103.539 136.167 103.608 133.182 103.551 130.191C103.528 129.079 103.824 128.662 105.001 128.845C110.756 129.729 116.421 130.99 121.829 133.159C133.016 137.651 139.135 146.16 141.216 157.911C142.934 167.636 143.042 177.435 142.917 187.251C140.38 187.263 137.844 187.269 135.302 187.28C135.143 185.762 134.016 185.825 132.936 185.819C128.898 185.819 124.866 185.83 120.828 185.808C120.163 185.808 119.44 186.036 118.61 185.431C121.55 182.417 124.405 179.404 127.363 176.488C131.002 172.904 134.21 169.103 134.943 163.778C136.001 156.119 133.601 149.807 127.277 145.395C121.044 141.046 114.441 141.115 107.918 144.967C106.707 145.686 105.444 146.451 104.5 147.467C102.993 149.093 101.867 148.848 100.719 147.193C101.719 145.452 101.429 143.415 102.027 141.577V141.589Z" fill="#9FD2AD"/>
<path d="M151.476 85.8697C151.493 86.7429 151.237 87.2223 150.606 87.3935C150.009 87.5533 149.451 87.4449 149.138 86.857C148.877 86.3605 148.689 85.8183 148.507 85.2876C146.721 80.0256 143.827 75.4427 140.033 71.4192C139.886 71.2651 139.738 71.111 139.584 70.9626C138.902 70.3063 138.492 69.513 139.254 68.7483C140.016 67.9835 140.796 68.4001 141.472 69.0622C143.906 71.4763 145.942 74.1929 147.683 77.1435C149.093 79.5291 150.27 82.0231 151.106 84.6769C151.254 85.1449 151.396 85.6186 151.47 85.8754L151.476 85.8697Z" fill="#0C0C0C"/>
<path d="M70.5598 199.185C68.012 199.185 65.4585 199.168 62.9107 199.197C61.8699 199.208 60.96 198.951 60.9884 197.77C61.0112 196.668 61.9325 196.543 62.8652 196.548C68.0348 196.566 73.2043 196.56 78.3796 196.548C79.318 196.548 80.2051 196.731 80.2051 197.827C80.2051 198.854 79.4033 199.208 78.4251 199.202C75.8033 199.185 73.1816 199.202 70.5655 199.202L70.5598 199.185Z" fill="#0A0A0A"/>
<path d="M150.117 94.2421C150.117 93.4659 150.117 92.6955 150.117 91.9193C150.117 91.0689 150.583 90.561 151.368 90.5211C152.045 90.4868 152.625 90.892 152.687 91.6225C152.835 93.3746 152.954 95.1324 152.994 96.8902C153.011 97.6778 152.505 98.2714 151.709 98.2942C150.771 98.3227 150.361 97.6436 150.321 96.7704C150.282 95.9257 150.31 95.0811 150.31 94.2364C150.247 94.2364 150.179 94.2364 150.117 94.2364V94.2421Z" fill="#161616"/>
<path d="M88.2467 199.145C87.3993 199.145 86.5406 199.214 85.6989 199.122C85.0108 199.048 84.5444 198.586 84.5615 197.821C84.5785 197.062 84.9994 196.605 85.7444 196.588C87.3027 196.548 88.8609 196.548 90.4192 196.566C91.2438 196.577 91.8069 197.011 91.7784 197.861C91.75 198.689 91.1585 199.111 90.368 199.162C89.6628 199.208 88.9519 199.174 88.241 199.174C88.241 199.162 88.241 199.151 88.241 199.139L88.2467 199.145Z" fill="#0B0B0B"/>
<path d="M130.126 134.614C122.841 129.723 114.953 127.84 106.906 126.408C102.686 125.66 98.4323 125.734 94.184 125.831C92.5916 125.871 92.1025 125.403 92.1537 123.799C92.2675 120.033 92.1935 116.255 92.1879 112.482C92.1879 111.683 92.2334 110.975 92.9044 110.365C100.224 103.665 103.437 94.8699 105.353 85.4588C106.178 81.4181 106.662 77.3147 106.667 73.1827C106.667 71.8644 107.116 71.2708 108.368 70.9798C109.465 70.723 110.495 70.2093 111.564 69.8326C112.525 69.4959 113.008 68.851 112.644 67.8751C112.297 66.9391 111.507 66.9905 110.682 67.2473C97.7669 71.2309 85.5396 68.5086 73.9323 62.7329C63.6329 57.6022 56.6151 49.1499 52.4692 38.3577C52.1166 37.4446 51.9744 36.3031 50.5867 36.4801C49.3413 36.6399 49.4152 37.6786 49.2616 38.5917C48.0844 45.4232 46.566 52.1291 42.1528 57.7563C42.0675 57.8705 42.0163 58.0303 41.9082 58.0987C38.3538 60.393 38.5756 63.9086 38.6666 67.5269C38.8941 76.2931 39.4286 84.9851 42.2836 93.3803C44.3252 99.3842 47.5157 104.566 52.5374 108.493C53.2881 109.081 53.5952 109.697 53.5895 110.644C53.5554 115.13 53.5156 119.61 53.6066 124.096C53.635 125.591 53.0322 125.86 51.7298 125.831C45.4172 125.694 39.1045 125.734 32.9226 127.281C25.41 129.158 18.4262 132.149 12.5116 137.32C12.3183 137.491 12.0623 137.588 11.5789 137.862C10.8169 130.956 9.83868 124.427 14.0471 118.206C19.5124 110.125 20.2404 101.445 15.8841 92.5242C15.1391 90.9947 14.5192 89.3967 13.7628 87.8672C11.596 83.4955 11.8235 79.2665 14.2462 75.049C15.4575 72.943 16.8281 70.9569 18.3181 69.0679C22.0546 64.3424 23.1977 59.2402 22.3275 53.1278C21.1844 45.1264 21.8214 37.0679 25.1313 29.4831C26.6782 25.9333 29.0895 23.3251 33.0818 22.4348C40.822 20.7055 46.5887 16.117 51.0019 9.65648C54.2549 4.89101 58.9923 2.91634 64.486 2.80791C82.48 2.45406 98.074 8.74904 111.393 20.6599C117.058 25.7221 120.225 32.1655 120.009 40.0927C119.873 45.2063 120.373 50.337 120.282 55.4506C120.18 61.3975 122.352 66.22 126.566 70.2721C130.707 74.2614 134.949 78.1651 137.821 83.273C142.086 90.8635 143.389 98.7165 139.88 106.963C138.441 110.348 136.348 113.35 133.453 115.604C129.581 118.623 128.671 122.647 129.08 127.189C129.29 129.507 129.717 131.807 130.115 134.614H130.126ZM51.872 13.5088C55.9895 10.581 60.596 9.13713 65.6177 9.27981C79.8468 9.68502 92.6656 14.1537 103.977 22.9085C110 27.5655 114.538 33.1471 115.96 40.886C116.676 44.7726 116.688 48.6934 116.733 52.5913C119.361 41.257 118.178 30.9384 108.885 22.7087C103.426 17.8748 97.3859 13.9425 90.7547 10.9691C82.9293 7.45923 74.8536 4.83394 66.1182 5.81557C60.4254 6.45477 55.2615 8.42374 51.69 13.3205C51.6275 13.4631 51.5592 13.6115 51.4967 13.7542C51.7469 13.8626 51.8095 13.6971 51.8663 13.5088H51.872Z" fill="#6A6C61"/>
<path d="M51.1839 43.1289C52.0882 43.5512 52.1735 44.3274 52.4976 44.9038C60.6415 59.5369 73.1588 67.8465 89.4638 70.7229C93.8087 71.4877 98.1878 71.7217 102.584 71.6247C103.42 71.6075 104.091 71.5619 104.028 72.7889C103.511 83.039 101.913 93.0322 96.4361 101.93C90.7036 111.244 82.2013 115.535 71.3447 114.639C65.2253 114.137 60.198 110.878 55.3469 107.317C47.8683 101.833 44.6494 94.0024 42.8978 85.2819C41.459 78.1194 41.6182 70.8542 41.3509 63.6175C41.3282 62.9327 41.4931 62.3962 41.9992 61.9054C47.2598 56.7975 49.5745 50.2286 51.1839 43.1232V43.1289Z" fill="#FDFDFD"/>
<path d="M86.8989 144.876C92.5461 144.836 96.1688 146.982 99.4673 149.79C103.369 153.106 102.442 152.757 105.882 149.738C113.008 143.483 121.84 143.272 127.869 149.282C133.789 155.189 134.312 164.885 128.636 171.123C122.858 177.475 116.711 183.485 110.728 189.648C108.402 192.04 106.047 194.408 103.778 196.851C102.948 197.741 102.425 197.707 101.594 196.845C93.3708 188.302 84.988 179.912 76.918 171.237C72.2716 166.243 71.5721 160.171 74.3133 153.979C76.8952 148.135 81.5985 145.11 86.8989 144.882V144.876ZM98.2162 191.549C98.2901 191.675 98.2617 192.023 98.5403 191.692C98.4323 191.64 98.3299 191.595 98.2219 191.543C98.2446 191.269 98.1195 191.11 97.8522 191.058L97.511 190.533C97.3461 190.276 97.1754 190.019 97.0105 189.763C96.8797 189.609 96.7546 189.46 96.6238 189.306C96.1973 188.473 95.5944 187.794 94.838 187.251C90.2827 181.904 85.7501 176.539 81.1606 171.22C74.2962 163.27 76.8327 151.422 86.3472 147.119C86.7055 146.953 87.1946 146.953 87.3595 146.36C86.4951 146.131 85.7216 146.343 84.9197 146.594C74.4896 149.807 70.975 163.065 78.5331 171.357C83.6458 176.967 89.0998 182.258 94.4001 187.697C94.8779 188.501 95.5262 189.141 96.3281 189.62C96.4702 189.757 96.6124 189.894 96.7546 190.031C96.9536 190.265 97.147 190.493 97.346 190.727C97.4939 190.864 97.6418 191.001 97.784 191.138C97.9318 191.275 98.0797 191.412 98.2219 191.549H98.2162Z" fill="#6610F2"/>
<path d="M102.027 141.589C101.429 143.421 101.719 145.464 100.719 147.204C97.6361 145.047 94.5196 142.975 90.6808 142.393C78.9199 140.613 68.4215 151.217 70.321 163.019C70.5997 164.765 71.1115 166.472 71.5494 168.338C65.7543 168.138 60.4937 166.329 55.9042 162.802C48.6816 157.255 44.7632 149.898 44.5414 140.698C44.4561 137.217 44.5869 133.724 44.4845 130.243C44.4447 128.896 44.8599 128.536 46.1508 128.611C48.1299 128.719 50.1204 128.708 52.1052 128.611C53.3166 128.554 53.7829 128.942 53.6294 130.152C53.5668 130.637 53.5952 131.15 53.6749 131.641C53.7943 132.349 54.2549 132.811 54.9829 132.8C55.6995 132.788 56.1886 132.36 56.2397 131.613C56.2966 130.762 56.2966 129.906 56.3023 129.056C56.3023 123.303 56.3023 117.544 56.3023 111.284C67.068 118.692 77.9815 119.605 89.424 113.07C89.424 118.378 89.424 123.343 89.424 128.302C89.424 129.227 89.4126 130.152 89.4353 131.076C89.4581 132.018 89.7538 132.834 90.8628 132.783C91.841 132.737 92.2448 131.921 92.0912 131.11C91.6362 128.679 92.9443 128.434 94.8267 128.622C96.7774 128.816 99.456 127.777 100.497 129.033C101.486 130.226 100.815 132.817 100.849 134.791C100.872 136.287 100.889 137.782 100.844 139.272C100.81 140.287 101.117 141.075 102.021 141.583L102.027 141.589Z" fill="#FCFCFC"/>
<path d="M6.79608 169.691C6.82452 155.252 16.7883 133.776 39.1614 133.153C20.9171 138.946 12.0623 152.455 6.79608 169.691Z" fill="#FAFCFB"/>
<path d="M51.6957 13.3148C55.2672 8.41803 60.4311 6.45477 66.1239 5.80986C74.8536 4.82824 82.935 7.45352 90.7604 10.9634C97.3916 13.9368 103.431 17.8691 108.891 22.703C118.184 30.9327 119.367 41.2512 116.739 52.5856C116.694 48.682 116.677 44.7668 115.966 40.8803C114.544 33.1414 110 27.5598 103.983 22.9028C92.6713 14.1537 79.8526 9.68502 65.6234 9.2741C60.6017 9.13142 55.9952 10.5753 51.8777 13.5031C51.8209 13.4403 51.7583 13.3775 51.7014 13.3148H51.6957Z" fill="#F9F9F8"/>
<path d="M51.872 13.5088C51.8152 13.6972 51.7526 13.8627 51.5024 13.7542C51.5649 13.6116 51.6332 13.4632 51.6957 13.3205C51.7526 13.3833 51.8152 13.4461 51.872 13.5088Z" fill="#F9F9F8"/>
<path d="M94.3944 187.697C89.0941 182.263 83.6401 176.967 78.5274 171.357C70.9693 163.065 74.4839 149.807 84.914 146.594C85.7159 146.348 86.4894 146.132 87.3538 146.36C87.1889 146.948 86.7055 146.953 86.3415 147.119C76.827 151.422 74.2905 163.27 81.1549 171.22C85.7444 176.539 90.277 181.904 94.8323 187.252C94.6845 187.4 94.5423 187.548 94.3944 187.697Z" fill="#F8FAF4"/>
<path d="M94.3945 187.697C94.5423 187.548 94.6845 187.4 94.8324 187.251C95.5945 187.794 96.1916 188.473 96.6181 189.306C96.5158 189.409 96.4191 189.517 96.3167 189.62C95.5205 189.135 94.8722 188.496 94.3888 187.691L94.3945 187.697Z" fill="#DCE4C3"/>
<path d="M97.3403 190.727C97.1413 190.493 96.9479 190.265 96.7546 190.031C96.8456 189.945 96.9309 189.86 97.0105 189.768C97.1754 190.025 97.346 190.282 97.511 190.539C97.4541 190.602 97.3972 190.664 97.3403 190.727Z" fill="#DCE4C3"/>
<path d="M96.6238 189.312C96.7546 189.466 96.8797 189.614 97.0105 189.768C96.9309 189.86 96.8456 189.945 96.7546 190.031C96.6124 189.894 96.4702 189.757 96.3281 189.626C96.4247 189.523 96.5271 189.42 96.6238 189.312Z" fill="#DCE4C3"/>
<path d="M97.7783 191.138C97.6304 191.001 97.4826 190.864 97.3404 190.727C97.3973 190.664 97.4541 190.602 97.511 190.539C97.6247 190.71 97.7442 190.887 97.8579 191.058L97.784 191.138H97.7783Z" fill="#DCE4C3"/>
<path d="M97.8522 191.058C98.1195 191.109 98.2389 191.269 98.2218 191.543C98.074 191.412 97.9261 191.275 97.7839 191.138L97.8579 191.058H97.8522Z" fill="#DCE4C3"/>
<path d="M98.2219 191.543C98.3299 191.595 98.4323 191.64 98.5404 191.692C98.2674 192.023 98.2901 191.674 98.2162 191.549L98.2219 191.543Z" fill="#DCE4C3"/>
</g>
<defs>
<clipPath id="clip0_2475_1437">
<rect width="153" height="201" fill="white"/>
</clipPath>
</defs>
</svg>
