<svg width="201" height="201" viewBox="0 0 201 201" fill="none" xmlns="http://www.w3.org/2000/svg">
<g clip-path="url(#clip0_2484_2044)">
<path d="M172.402 125.289C172.727 136.517 170.995 147.383 166.471 157.709C162.058 167.783 155.676 176.415 147.305 183.61C137.837 191.749 126.988 196.972 114.812 199.584C112.162 200.15 109.412 200.135 106.819 201H100.537C100.537 190.27 100.547 179.541 100.552 168.806C102.316 170.064 103.665 171.758 105.208 173.247C108.052 175.99 111.626 176.247 114.098 173.83C116.623 171.365 116.397 167.694 113.532 164.799C112.293 163.546 111.065 162.277 109.784 161.07C109.102 160.431 109.107 159.948 109.784 159.308C111.065 158.102 112.293 156.833 113.532 155.58C116.397 152.68 116.623 149.014 114.093 146.549C111.621 144.137 108.042 144.394 105.203 147.137C103.66 148.626 102.311 150.32 100.547 151.578C100.547 124.597 100.542 97.6208 100.521 70.6393C100.521 69.8842 100.794 69.0608 100.196 68.3843C100.427 68.1116 100.663 67.8442 100.894 67.5715C102.248 66.6328 103.308 65.3846 104.368 64.147C112.529 54.6183 126.159 54.6078 134.352 64.0736C141.059 71.8245 149.593 75.7157 159.843 75.8206C164.026 75.8626 168.209 75.8678 172.391 75.8888C172.391 92.3556 172.402 108.822 172.407 125.289H172.402ZM150.438 120.643C150.406 113.941 148.848 108.849 145.294 104.496C138.025 95.5965 125.839 95.35 118.664 104.517C111.443 113.747 111.553 125.017 118.68 134.325C123.509 140.634 132.294 143.188 139.852 138.819C147.278 134.53 149.923 127.623 150.438 120.643Z" fill="#FEBCA8"/>
<path d="M100.547 168.806C100.547 179.535 100.537 190.265 100.531 201H95.8185C93.1366 200.607 90.4442 200.303 87.7833 199.81C77.5649 197.911 68.2229 193.936 59.7101 187.952C53.6273 183.673 48.358 178.576 43.792 172.734C38.3914 165.822 34.4604 158.123 31.852 149.769C29.3696 141.809 28.4406 133.617 28.6611 125.289C28.6611 108.823 28.6663 92.3558 28.6716 75.889C29.4536 75.868 30.2356 75.826 31.0176 75.826C46.0382 75.826 61.0589 75.6582 76.0743 75.8837C85.0332 76.0201 93.0946 73.9067 100.196 68.374C100.794 69.0558 100.521 69.8739 100.521 70.629C100.542 97.6105 100.542 124.587 100.547 151.568L100.584 151.678C98.894 150.047 97.2251 148.395 95.5141 146.785C92.8742 144.305 89.2161 144.242 86.8911 146.607C84.5504 148.988 84.6553 152.57 87.1745 155.208C88.4814 156.576 89.8197 157.924 91.2 159.219C91.94 159.917 91.9662 160.431 91.2105 161.134C89.9194 162.334 88.6965 163.609 87.4579 164.862C84.6921 167.668 84.4611 171.276 86.8859 173.746C89.3158 176.221 92.9844 176.043 95.7975 173.311C97.3877 171.764 98.9885 170.227 100.584 168.69L100.547 168.801V168.806ZM53.7638 118.225C53.811 124.99 55.396 130.25 59.1538 134.603C66.6694 143.298 78.6303 143.156 85.5685 134.22C92.7115 125.011 92.6275 113.616 85.5108 104.396C80.4409 97.8307 71.6658 95.7173 64.3286 99.9494C56.8917 104.239 54.2571 111.156 53.7638 118.22V118.225Z" fill="#FECBBC"/>
<path d="M28.6663 125.284C24.2262 125.316 19.7914 125.353 15.598 123.486C7.19019 119.736 1.90514 113.543 0.346389 104.355C0.304402 104.119 0.120711 103.909 0 103.683C0 101.591 0 99.4986 0 97.4061C0.865972 94.1547 1.63747 90.8928 3.48488 87.9718C7.05898 82.3186 11.9452 78.4798 18.3848 76.6233C18.684 76.5342 18.9622 76.3716 19.2508 76.2405C22.3841 75.9468 25.5173 75.6269 28.6716 75.8892C28.6716 92.356 28.6663 108.823 28.6611 125.29L28.6663 125.284Z" fill="#FEBCA9"/>
<path d="M28.6715 75.8892C25.5173 75.627 22.3841 75.9469 19.2508 76.2405C19.2508 63.2926 19.2036 50.3446 19.2508 37.3967C19.3295 16.6925 35.8355 0.178536 56.5663 0.105117C71.2249 0.0526747 85.8834 0.131338 100.542 0.152315C100.542 22.0049 100.537 43.8575 100.542 65.7154C100.542 66.3395 100.322 67.0369 100.894 67.5666C100.663 67.8393 100.427 68.1068 100.196 68.3795C93.0999 73.9121 85.0385 76.0255 76.0743 75.8892C61.0589 75.6584 46.0382 75.8262 31.0175 75.8315C30.2355 75.8315 29.4535 75.8734 28.6715 75.8944V75.8892Z" fill="#655740"/>
<path d="M100.894 67.5613C100.327 67.0317 100.542 66.3394 100.542 65.7101C100.531 43.8575 100.542 22.0049 100.542 0.147027C111.6 0.136539 122.674 -0.241044 133.706 0.230934C143.667 0.660959 151.225 5.77931 156.263 14.4165C157.04 15.7485 157.885 16.4355 159.486 16.7659C172.596 19.4719 181.765 30.726 181.817 44.062C181.859 54.7864 181.817 65.5108 181.817 76.23C178.684 75.9206 175.551 75.6217 172.397 75.8734C168.214 75.8524 164.031 75.8472 159.848 75.8052C149.598 75.7003 141.064 71.8091 134.357 64.0582C126.164 54.5924 112.534 54.6029 104.373 64.1316C103.313 65.3692 102.253 66.6174 100.899 67.5561L100.894 67.5613Z" fill="#524635"/>
<path d="M172.391 75.8891C175.546 75.6374 178.679 75.9363 181.812 76.2457C185.843 77.6092 189.606 79.3608 192.897 82.2136C202.853 90.8456 203.782 107.218 194.833 116.873C189.538 122.584 183.103 125.394 175.341 125.269C174.36 125.253 173.378 125.279 172.402 125.29C172.402 108.823 172.391 92.3559 172.386 75.8891H172.391Z" fill="#F8A58D"/>
<path d="M150.438 120.643C149.923 127.623 147.278 134.53 139.852 138.819C132.294 143.188 123.509 140.634 118.68 134.325C111.553 125.017 111.443 113.742 118.664 104.517C125.839 95.3502 138.025 95.5967 145.294 104.496C148.848 108.849 150.412 113.941 150.438 120.643ZM138.645 119.374C138.571 116.547 137.894 113.925 136.052 111.723C133.638 108.833 130.242 108.859 127.818 111.738C124.417 115.771 124.427 123.013 127.839 127.03C130.279 129.899 133.648 129.91 136.068 127.004C137.905 124.802 138.571 122.174 138.645 119.369V119.374Z" fill="#E1DFDE"/>
<path d="M100.547 151.573C102.311 150.315 103.659 148.621 105.202 147.131C108.042 144.389 111.621 144.132 114.093 146.544C116.618 149.009 116.392 152.68 113.532 155.575C112.293 156.828 111.065 158.097 109.784 159.303C109.102 159.943 109.102 160.425 109.784 161.065C111.065 162.271 112.293 163.54 113.532 164.794C116.397 167.694 116.623 171.36 114.098 173.824C111.626 176.242 108.047 175.985 105.208 173.242C103.665 171.753 102.316 170.059 100.552 168.8L100.589 168.69C100.589 163.021 100.589 157.352 100.589 151.678L100.552 151.568L100.547 151.573Z" fill="#DC425C"/>
<path d="M53.769 118.225C54.2623 111.156 56.897 104.244 64.3338 99.9545C71.671 95.7224 80.4462 97.8306 85.516 104.402C92.6328 113.621 92.7167 125.017 85.5738 134.225C78.6408 143.161 66.6798 143.303 59.159 134.608C55.4012 130.255 53.8162 124.996 53.769 118.231V118.225ZM78.9557 119.557C78.9032 116.563 78.2104 113.815 76.2055 111.549C73.8805 108.922 70.7368 108.917 68.3593 111.481C64.6855 115.441 64.6592 123.192 68.3068 127.214C70.7158 129.873 73.9068 129.857 76.279 127.125C78.1632 124.954 78.8454 122.331 78.9557 119.557Z" fill="#FEFDFD"/>
<path d="M100.584 151.684C100.584 157.353 100.584 163.027 100.584 168.696C98.9884 170.238 97.3877 171.774 95.7975 173.316C92.9844 176.048 89.3158 176.232 86.8858 173.751C84.4664 171.286 84.692 167.673 87.4579 164.867C88.6965 163.609 89.9194 162.34 91.2104 161.139C91.9662 160.436 91.9452 159.922 91.1999 159.225C89.8196 157.929 88.4813 156.582 87.1745 155.213C84.6553 152.575 84.5503 148.993 86.8911 146.612C89.2161 144.247 92.8689 144.31 95.5141 146.791C97.225 148.401 98.894 150.053 100.584 151.684Z" fill="#DE5F90"/>
<path d="M138.645 119.374C138.571 122.179 137.905 124.801 136.068 127.009C133.648 129.915 130.274 129.904 127.838 127.036C124.427 123.018 124.417 115.776 127.817 111.743C130.242 108.864 133.638 108.838 136.052 111.728C137.894 113.93 138.571 116.552 138.645 119.379V119.374Z" fill="#544837"/>
<path d="M78.9557 119.557C78.8402 122.332 78.1632 124.948 76.279 127.125C73.9068 129.857 70.7158 129.873 68.3068 127.214C64.6592 123.192 64.6855 115.441 68.3593 111.481C70.7368 108.922 73.8805 108.922 76.2055 111.549C78.2104 113.815 78.9032 116.563 78.9557 119.557Z" fill="#675942"/>
</g>
<defs>
<clipPath id="clip0_2484_2044">
<rect width="201" height="201" fill="white"/>
</clipPath>
</defs>
</svg>
