<svg width="344" height="120" viewBox="0 0 344 120" fill="none" xmlns="http://www.w3.org/2000/svg">
<path d="M35.544 43H0.024V35.832L16.984 14.712L23.192 7.928L17.112 8.248H1.304V0.119999H34.264V7.288L16.664 29.048L10.904 35.192L16.6 34.872H35.544V43ZM51.9675 43.64C42.4315 43.64 36.2875 36.92 36.2875 27.32C36.2875 17.784 42.4315 11 51.9675 11C61.7595 11 67.9675 17.784 67.9675 27.32C67.9675 36.92 61.7595 43.64 51.9675 43.64ZM52.0955 36.216C55.9995 36.216 58.6875 33.72 58.6875 27.32C58.6875 20.856 55.9995 18.424 52.0955 18.424C48.2555 18.424 45.5675 20.856 45.5675 27.32C45.5675 33.72 48.2555 36.216 52.0955 36.216ZM82.1645 43H73.0125V11.64H82.1645V20.728C83.1885 15.608 86.1965 11 92.6605 11C98.6125 11 102.261 14.648 102.261 21.112V43H93.1085V24.312C93.1085 20.472 92.0845 18.104 87.9245 18.104C83.5725 18.104 82.1645 20.536 82.1645 25.656V43ZM115.359 43.704C110.495 43.704 107.103 41.08 107.103 36.024C107.103 31.288 110.111 28.536 116.063 26.488L125.663 22.904C125.343 20.28 124.127 18.808 120.671 18.808C116.703 18.808 113.055 21.048 110.879 24.184L106.271 17.528C109.407 14.136 114.591 11 121.311 11C129.247 11 133.855 15.224 133.855 23.096V33.848C133.855 35.256 134.367 35.704 135.519 35.704H137.375V43H131.999C128.607 43 125.535 41.464 125.535 36.984V34.872C124.511 38.968 121.759 43.704 115.359 43.704ZM115.551 34.68C115.551 36.152 116.575 36.984 118.751 36.984C123.103 36.984 125.535 34.808 125.535 30.968V28.792L118.879 31.544C116.383 32.568 115.551 33.464 115.551 34.68Z" fill="#6610F2"/>
<path d="M167.536 82.56H159.024L175.664 34.56H184.176L167.536 82.56Z" fill="#6610F2"/>
<path d="M224.016 119.64C215.76 119.64 208.144 116.952 204.176 110.68L210.192 103.64C213.072 109.016 219.28 111.384 224.4 111.384C228.112 111.384 230.8 110.232 230.8 107.288C230.8 103.96 227.984 102.872 222.288 101.72L218.128 100.824C211.472 99.48 205.2 96.536 205.2 88.408C205.2 80.024 212.432 75.608 221.136 75.608C229.2 75.608 235.664 78.68 239.248 83.8L233.04 90.776C230.224 86.296 225.232 83.864 220.304 83.864C217.04 83.864 214.672 85.272 214.672 87.768C214.672 90.904 217.424 92.056 221.904 93.08L226.768 94.232C234.768 96.088 240.208 99.352 240.208 107.032C240.208 115.224 233.296 119.64 224.016 119.64ZM252.047 119.704C247.183 119.704 243.791 117.08 243.791 112.024C243.791 107.288 246.799 104.536 252.751 102.488L262.351 98.904C262.031 96.28 260.815 94.808 257.359 94.808C253.391 94.808 249.743 97.048 247.567 100.184L242.959 93.528C246.095 90.136 251.279 87 257.999 87C265.935 87 270.543 91.224 270.543 99.096V109.848C270.543 111.256 271.055 111.704 272.207 111.704H274.062V119H268.687C265.295 119 262.223 117.464 262.223 112.984V110.872C261.199 114.968 258.447 119.704 252.047 119.704ZM252.239 110.68C252.239 112.152 253.263 112.984 255.439 112.984C259.791 112.984 262.223 110.808 262.223 106.968V104.792L255.567 107.544C253.071 108.568 252.239 109.464 252.239 110.68ZM287.54 119H278.388V87.64H287.54V96.728C288.564 91.608 291.572 87 298.036 87C303.988 87 307.636 90.648 307.636 97.112V119H298.484V100.312C298.484 96.472 297.46 94.104 293.3 94.104C288.948 94.104 287.54 96.536 287.54 101.656V119ZM327.843 119.64C318.307 119.64 312.163 112.92 312.163 103.32C312.163 93.784 318.307 87 327.843 87C337.635 87 343.843 93.784 343.843 103.32C343.843 112.92 337.635 119.64 327.843 119.64ZM327.971 112.216C331.875 112.216 334.563 109.72 334.563 103.32C334.563 96.856 331.875 94.424 327.971 94.424C324.131 94.424 321.443 96.856 321.443 103.32C321.443 109.72 324.131 112.216 327.971 112.216Z" fill="#6610F2"/>
</svg>
