<svg width="153" height="201" viewBox="0 0 153 201" fill="none" xmlns="http://www.w3.org/2000/svg">
<g clip-path="url(#clip0_2475_1410)">
<path d="M16.2932 201C15.574 200.233 15.4517 199.357 15.5936 198.31C16.6798 190.322 22.3164 185.306 30.3309 185.296C40.42 185.281 50.5091 185.262 60.5933 185.325C62.0122 185.335 62.57 185.045 62.4232 183.525C62.2764 182.035 62.4477 180.515 62.3792 179.015C62.2666 176.65 62.7315 174.579 64.9626 173.325C65.6329 172.946 65.5106 172.361 65.5106 171.795C65.5155 168.328 65.4519 164.861 65.5449 161.393C65.5791 160.114 65.0311 159.873 63.9547 159.819C55.0986 159.377 46.6829 157.016 38.4579 153.824C36.9999 153.258 36.584 152.363 37.2347 150.932C37.8023 149.688 38.3258 148.424 38.8641 147.16C40.053 144.356 40.1362 144.292 43.0377 145.438C47.3385 147.14 51.7323 148.566 56.2827 149.358C81.3293 153.721 103.254 147.125 121.588 129.547C133.629 117.999 140.626 103.544 142.818 86.9108C145.558 66.1557 140.249 47.5056 127.567 31.0294C120.237 21.5076 110.872 14.4204 99.9075 9.5513C98.0971 8.74471 97.51 7.83974 98.3271 5.96096C98.9485 4.53466 99.379 3.01492 99.8194 1.50992C100.25 0.0442791 101.101 -0.339346 102.462 0.27052C123.53 9.71852 138.483 25.1422 147.085 46.6695C152.065 59.1324 153.964 72.1216 152.53 85.4895C150.505 104.376 142.975 120.798 129.871 134.495C117.62 147.307 102.701 155.334 85.3365 158.713C82.4693 159.268 79.5776 159.79 76.6419 159.814C75.3893 159.824 74.8071 160.159 74.856 161.61C74.9734 164.944 74.9098 168.284 74.8805 171.618C74.8756 172.445 74.9685 173.074 75.7954 173.556C77.3905 174.495 78.0168 176.035 78.0168 177.855C78.0168 179.556 78.144 181.268 77.9825 182.955C77.8064 184.78 78.2712 185.365 80.2382 185.34C90.3223 185.222 100.411 185.252 110.501 185.296C118.231 185.33 124.308 190.991 124.846 198.511C124.915 199.47 124.817 200.316 124.073 200.995H16.2932V201ZM68.7057 174.284C68.6225 175.095 68.1528 175.612 67.4384 175.932C65.9412 175.823 65.5302 176.723 65.5253 178.002C65.5204 180.019 65.5987 182.045 65.4959 184.057C65.4274 185.389 66.1124 185.399 67.047 185.237C69.2488 185.257 71.4554 185.242 73.6572 185.306C74.5673 185.33 74.9245 185.03 74.9 184.086C74.8462 182.001 74.8609 179.915 74.8756 177.83C74.8853 176.861 74.5429 176.074 73.5643 175.956C71.8762 175.755 71.7246 174.687 71.7441 173.315C71.7882 169.469 71.7197 165.623 71.7882 161.782C71.8077 160.532 71.5093 159.913 70.1735 160.237C69.2488 160.08 68.5931 160.075 68.6225 161.408C68.7154 165.697 68.691 169.99 68.7105 174.284H68.7057ZM128.399 26.6816C128.511 26.9767 128.555 27.3259 128.746 27.5522C134.916 34.9345 139.491 43.1923 142.578 52.3304C146.957 65.2901 147.848 78.4662 145.23 91.8586C142.916 103.712 138.082 114.443 130.698 124.004C130.126 124.747 129.25 125.357 129.206 126.444C129.079 126.582 128.952 126.724 128.824 126.862C127.425 127.826 126.172 128.928 125.487 130.551C121.925 133.802 118.407 137.087 114.405 139.822C103.342 147.391 91.208 152.098 77.8847 153.475C66.0537 154.694 54.5261 153.209 43.4193 148.861C42.0297 148.315 41.56 148.655 41.0218 149.934C40.3662 151.488 41.4817 151.547 42.3282 151.876C50.3427 155.004 58.6851 156.672 67.2427 156.957C81.9213 157.454 95.7143 154.09 108.627 146.992C138.468 130.59 154.683 96.4424 148.455 62.8064C146.571 52.6206 142.882 43.1038 137.362 34.3345C129.015 21.065 117.791 11.0415 103.626 4.3822C103.151 4.16087 102.373 3.36903 102.158 4.58385C102.011 5.41503 100.661 6.36918 102.373 7.17086C110.153 10.8104 117.199 15.5663 123.447 21.488C123.491 22.1126 123.902 22.3339 124.45 22.3929C124.793 22.7126 125.13 23.0372 125.473 23.3569C126.075 24.793 127.112 25.8406 128.389 26.6718L128.399 26.6816ZM29.5187 188.488C24.7237 188.547 20.4473 191.793 19.1898 196.234C18.8522 197.424 19.0284 197.965 20.3641 197.877C21.4601 197.803 22.5659 197.818 23.6668 197.793C25.6142 197.813 27.5615 197.857 29.5089 197.852C58.6802 197.842 87.8466 197.833 117.018 197.823C117.987 197.833 118.96 197.818 119.929 197.867C121.187 197.931 121.5 197.469 121.147 196.224C119.919 191.847 116.127 188.867 111.592 188.822C110.755 188.331 109.83 188.449 108.925 188.449C96.502 188.449 84.079 188.439 71.6561 188.449C57.6086 188.458 43.5612 188.478 29.5138 188.493L29.5187 188.488Z" fill="#0C0C0D"/>
<path d="M69.0286 147.592C29.0832 146.432 -1.45808 114.306 0.0538167 74.0938C1.51189 35.3033 33.1785 5.51827 71.3772 6.3593C111.068 7.23475 141.815 39.7495 140.44 79.2235C139.075 118.496 107.071 148.178 69.0286 147.592ZM12.4817 92.3602C15.0358 90.6634 16.6309 88.2879 17.4822 85.3566C18.4706 81.9581 18.407 78.535 17.8687 75.0823C16.9293 69.023 15.6816 63.0424 13.6168 57.2536C12.8242 53.9141 11.4444 50.8205 9.88359 47.5646C9.59002 48.1154 9.41877 48.3958 9.28177 48.6909C5.8274 56.2453 3.836 64.1638 3.24397 72.4707C2.70086 80.0547 3.57179 87.4616 5.47511 94.78C5.69529 95.6161 6.0329 96.0096 6.98212 95.6063C8.96373 94.7653 10.9453 93.9587 12.4817 92.3651V92.3602ZM129.676 77.8513C131.726 77.5611 133.771 77.1578 135.831 77.0201C137.035 76.9414 137.411 76.5578 137.348 75.3873C137.132 71.1526 136.707 66.9475 135.792 62.8063C133.125 50.7664 127.797 40.1183 119.352 31.0884C118.094 29.7408 117.028 29.0424 115.188 30.0506C114.278 30.5523 113.045 30.4638 111.959 30.6408C105.138 30.5916 98.3075 30.0801 91.4966 30.6654C87.1909 31.0343 83.0466 32.136 79.3476 34.5115C78.5061 35.0525 77.3465 35.5591 77.5079 36.8231C77.6743 38.151 79.0051 38.1166 79.9397 38.4117C81.7305 38.9773 83.6338 39.1839 85.2974 40.1429C89.4808 42.5529 93.3853 45.3858 97.2458 48.2679C100.118 50.4123 102.912 52.6845 105.079 55.5912C107.335 58.616 106.616 61.1144 103.044 62.4227C98.2977 64.1588 93.7816 63.4113 90.1804 59.9095C86.9658 56.7814 83.306 54.3518 79.7342 51.7451C74.7973 48.14 69.4836 48.2187 64.1553 50.1811C57.2417 52.7239 53.9194 58.5225 51.8742 65.1917C50.0589 71.1182 52.4124 76.7398 57.8728 79.6268C60.285 80.9006 62.8146 81.9532 65.2709 83.1532C71.8615 86.3698 73.9948 90.7765 72.6493 97.9966C71.8224 102.448 70.149 106.638 68.9063 110.961C67.8983 114.468 66.7534 117.955 66.9883 121.698C67.1204 123.793 67.9619 125.298 70.0365 126.001C72.1453 126.714 74.2493 126.705 76.3581 126.1C80.6296 124.87 84.49 122.647 88.5707 120.95C92.0984 119.485 94.858 117.119 97.0305 113.956C100.167 109.392 103.21 104.784 107.922 101.533C111.826 98.8376 115.53 95.8227 118.858 92.3848C119.812 91.4012 120.007 90.8061 118.447 90.2749C116.147 89.4978 114.072 88.224 112.242 86.6403C109.238 84.0385 106.973 80.999 107.261 76.7152C107.447 73.9314 109.566 72.3724 112.252 73.0019C114.072 73.4249 115.54 74.5266 117.023 75.5889C119.034 77.03 121.001 78.5399 123.051 79.9219C123.961 80.5367 125.155 81.1171 126.075 80.1088C127.097 78.9874 128.438 78.5448 129.676 77.8612V77.8513ZM61.2098 10.1119C52.3733 11.1546 44.1581 14.0711 36.4959 18.5369C26.216 24.5323 18.0987 32.7409 12.1588 43.0988C11.8848 43.5759 11.3955 44.0087 11.8603 44.6825C13.4505 47.0088 14.1012 49.7975 15.4908 52.2222C17.4871 58.1536 19.0381 64.2031 20.3445 70.3214C21.2204 74.4233 21.6558 78.5645 21.2595 82.7598C20.736 88.3272 17.8002 92.4684 13.5532 95.8227C11.9239 96.6244 10.4756 97.8195 8.69462 98.2671C7.04083 98.6851 6.78151 99.3835 7.43715 101.011C13.9398 117.193 24.7726 129.424 40.2683 137.323C46.8443 140.677 53.8118 142.984 61.2245 143.678C61.9143 143.815 62.5993 144.022 63.299 144.086C68.9748 144.602 74.6358 144.676 80.2626 143.535C82.0925 143.569 83.8393 143.058 85.5812 142.63C100.592 138.961 113.03 131.175 122.679 119.007C131.427 107.976 136.183 95.38 137.176 81.3187C137.24 80.3891 136.849 80.0154 136.115 80.1482C133.786 80.5662 131.32 80.3842 129.167 81.6384C125.854 85.0812 123.907 84.0041 120.712 82.1892C119.533 81.5203 118.491 80.6006 117.375 79.8088C115.736 78.6382 114.224 77.2611 112.389 76.3906C110.892 75.6824 110.368 76.0611 110.393 77.7284C110.422 79.6022 111.357 81.0925 112.516 82.445C114.743 85.0418 117.644 86.6009 120.766 87.8403C123.589 88.9617 124.059 90.4519 122.361 92.9603C121.671 93.9783 120.839 94.9325 119.929 95.7538C117.947 97.5441 115.99 99.3934 113.813 100.923C107.981 105.02 103.093 109.958 99.3448 116.071C97.4317 119.184 94.6868 121.545 91.389 123.114C87.5138 124.959 83.5702 126.655 79.6363 128.367C77.777 129.174 75.8003 129.542 73.7747 129.69C67.1889 130.172 63.0935 125.883 63.8324 119.357C64.1651 116.42 64.8598 113.583 65.677 110.759C67.0127 106.126 68.8133 101.626 69.6989 96.8555C70.5992 92.0159 69.3613 89.1584 65.1534 86.6452C64.488 86.2468 63.7687 85.9271 63.0691 85.5878C60.6128 84.3975 58.0588 83.3745 55.7151 81.9925C51.5904 79.558 48.6547 76.0021 48.3807 71.0789C47.8571 61.6948 51.8693 54.2485 59.4483 49.0548C65.5302 44.889 72.4732 44.1808 79.0785 47.6384C83.7659 50.0926 88.1303 53.26 91.8538 57.2142C94.2513 59.7619 97.3827 60.5046 100.813 59.7816C101.703 59.5947 102.76 59.4668 103.054 58.4782C103.323 57.5585 102.471 56.9634 101.884 56.3831C97.7301 52.296 93.0379 48.8974 88.2771 45.5874C85.5322 43.6792 82.6259 42.1447 79.284 41.525C78.0168 41.2889 76.7887 40.7725 75.7612 39.9216C74.308 38.7166 73.7502 37.2608 74.4646 35.4017C75.2425 33.3705 76.8572 32.1655 78.6431 31.2015C82.939 28.8752 87.5725 27.798 92.4409 27.439C97.647 27.0505 102.833 27.257 108.03 27.3948C109.776 27.4292 111.528 27.6505 113.245 27.1439C113.705 27.0062 114.488 27.3013 114.532 26.6275C114.557 26.2537 114.004 25.7717 113.622 25.4471C111.034 23.2732 108.318 21.2715 105.427 19.5255C97.6323 14.8236 89.3584 11.4595 80.2577 10.3874C73.9263 9.25616 67.5852 9.05451 61.2245 10.1021L61.2098 10.1119Z" fill="#0C0C0D"/>
<path d="M117.018 197.818C87.8466 197.828 58.6802 197.842 29.5089 197.847C27.5615 197.847 25.6142 197.808 23.6668 197.788C23.8087 193.539 26.5732 190.957 29.5187 188.483C43.5661 188.468 57.6135 188.449 71.661 188.439C84.084 188.429 96.5069 188.439 108.93 188.439C109.835 188.439 110.76 188.321 111.597 188.812C114.332 191.252 116.416 194.08 117.023 197.818H117.018Z" fill="#656D78"/>
<path d="M128.819 126.862C128.947 126.724 129.074 126.582 129.201 126.444C130.576 126.262 130.943 124.978 131.657 124.108C139.437 114.65 144.315 103.785 146.713 91.8192C148.004 85.3615 148.533 78.8448 148.024 72.1953C147.584 66.4311 146.669 60.7948 145.054 55.301C142.417 46.3252 138.184 38.1068 132.435 30.7293C131.276 29.244 130.429 27.3308 128.394 26.6816C128.134 24.9405 126.945 24.0307 125.478 23.3667C125.135 23.047 124.797 22.7224 124.455 22.4027C124.484 21.6945 124 21.5568 123.452 21.4977C117.199 15.5761 110.158 10.8202 102.378 7.18065C100.666 6.37897 102.016 5.42483 102.163 4.59364C102.378 3.37391 103.156 4.16575 103.631 4.39199C117.796 11.0513 129.015 21.0748 137.367 34.3443C142.882 43.1136 146.571 52.6304 148.459 62.8162C154.688 96.4522 138.473 130.6 108.631 147.002C95.7143 154.099 81.9213 157.463 67.2476 156.967C58.6851 156.676 50.3476 155.014 42.3331 151.886C41.4866 151.557 40.371 151.493 41.0267 149.943C41.5649 148.665 42.0297 148.33 43.4242 148.871C54.531 153.214 66.0635 154.704 77.8896 153.485C91.2128 152.107 103.342 147.406 114.41 139.831C118.407 137.097 121.93 133.807 125.492 130.56C127.092 129.774 128.355 128.687 128.824 126.872L128.819 126.862Z" fill="#C6CBD3"/>
<path d="M128.399 26.6816C130.434 27.3259 131.285 29.2391 132.44 30.7294C138.184 38.1068 142.417 46.3252 145.059 55.3011C146.674 60.7948 147.589 66.4311 148.029 72.1953C148.538 78.8448 148.009 85.3665 146.718 91.8193C144.32 103.785 139.442 114.65 131.662 124.108C130.948 124.978 130.581 126.262 129.206 126.444C129.255 125.357 130.131 124.742 130.703 124.004C138.087 114.443 142.926 103.712 145.235 91.8586C147.853 78.4612 146.962 65.2901 142.583 52.3304C139.496 43.1874 134.921 34.9345 128.751 27.5522C128.56 27.3259 128.516 26.9767 128.404 26.6816H128.399Z" fill="#8E9197"/>
<path d="M67.4384 175.932C68.1528 175.607 68.6225 175.095 68.7056 174.284C69.9631 174.5 70.2273 173.861 70.2127 172.725C70.1588 168.564 70.1784 164.398 70.1735 160.232C71.5093 159.908 71.8126 160.528 71.7882 161.777C71.7197 165.623 71.7882 169.469 71.7441 173.31C71.7294 174.682 71.8762 175.75 73.5643 175.951C74.5477 176.069 74.8853 176.856 74.8756 177.825C74.8609 179.91 74.8413 181.996 74.9 184.081C74.9245 185.025 74.5673 185.33 73.6572 185.301C71.4554 185.237 69.2488 185.252 67.047 185.232C67.2133 182.134 66.7534 179.006 67.4384 175.927V175.932Z" fill="#A9B1BC"/>
<path d="M29.5187 188.488C26.5781 190.957 23.8087 193.539 23.6668 197.793C22.5659 197.818 21.4601 197.798 20.3641 197.877C19.0333 197.97 18.8522 197.424 19.1898 196.234C20.4473 191.793 24.7188 188.552 29.5187 188.488Z" fill="#8E9197"/>
<path d="M117.018 197.818C116.411 194.085 114.327 191.252 111.592 188.812C116.127 188.857 119.919 191.837 121.147 196.215C121.495 197.464 121.187 197.921 119.929 197.857C118.96 197.808 117.992 197.828 117.018 197.813V197.818Z" fill="#50565F"/>
<path d="M70.1686 160.232C70.1784 164.398 70.154 168.559 70.2078 172.725C70.2225 173.856 69.9582 174.5 68.7008 174.284C68.6812 169.99 68.7106 165.697 68.6127 161.408C68.5833 160.075 69.239 160.075 70.1637 160.237L70.1686 160.232Z" fill="#D0D3DA"/>
<path d="M67.4384 175.932C66.7534 179.01 67.2133 182.138 67.047 185.237C66.1173 185.399 65.4274 185.389 65.4959 184.057C65.5987 182.045 65.5204 180.019 65.5253 178.002C65.5253 176.723 65.9412 175.823 67.4384 175.932Z" fill="#D0D3DA"/>
<path d="M128.819 126.862C128.35 128.677 127.083 129.764 125.487 130.551C126.168 128.928 127.42 127.826 128.819 126.862Z" fill="#8E9197"/>
<path d="M125.478 23.3667C126.945 24.0307 128.134 24.9405 128.394 26.6816C127.112 25.8504 126.079 24.8028 125.478 23.3667Z" fill="#8E9197"/>
<path d="M123.457 21.4929C124.005 21.5568 124.484 21.6945 124.46 22.3978C123.912 22.3339 123.501 22.1175 123.457 21.4929Z" fill="#8E9197"/>
<path d="M108.015 27.3997C102.819 27.2571 97.6274 27.0554 92.4263 27.444C87.5628 27.8079 82.9292 28.8801 78.6284 31.2065C76.8474 32.1704 75.2278 33.3754 74.4499 35.4067C73.7404 37.2658 74.2933 38.7216 75.7465 39.9266C76.774 40.7774 77.9972 41.2938 79.2693 41.5299C82.6112 42.1496 85.5126 43.6841 88.2624 45.5924C93.0232 48.9024 97.7204 52.3009 101.87 56.388C102.462 56.9684 103.313 57.5635 103.039 58.4832C102.745 59.4767 101.688 59.5997 100.798 59.7865C97.3632 60.5145 94.2366 59.7669 91.8391 57.2192C88.1157 53.2698 83.7512 50.0975 79.0638 47.6433C72.4585 44.1858 65.5204 44.894 59.4337 49.0598C51.8546 54.2486 47.8425 61.6948 48.366 71.0838C48.64 76.007 51.5757 79.558 55.7004 81.9975C58.0441 83.3795 60.5982 84.4025 63.0544 85.5927C63.7541 85.9321 64.4733 86.2518 65.1387 86.6502C69.3466 89.1683 70.5845 92.0209 69.6842 96.8605C68.7986 101.631 66.998 106.127 65.6623 110.764C64.8501 113.583 64.1504 116.425 63.8177 119.362C63.0837 125.888 67.1742 130.177 73.76 129.695C75.7856 129.547 77.7623 129.183 79.6216 128.372C83.5555 126.66 87.4992 124.959 91.3743 123.119C94.6721 121.55 97.4219 119.194 99.3301 116.076C103.083 109.963 107.966 105.025 113.798 100.928C115.976 99.3983 117.933 97.549 119.914 95.7588C120.824 94.9374 121.656 93.9833 122.346 92.9652C124.049 90.4569 123.574 88.9667 120.751 87.8453C117.629 86.6059 114.728 85.0468 112.502 82.45C111.342 81.0925 110.408 79.6072 110.378 77.7333C110.354 76.066 110.877 75.6873 112.374 76.3956C114.209 77.2661 115.721 78.6383 117.36 79.8138C118.471 80.6105 119.513 81.5253 120.697 82.1942C123.892 84.0041 125.84 85.0861 129.152 81.6433C129.353 84.6632 128.8 87.6289 128.183 90.5405C125.722 102.138 120.834 112.555 113.108 121.619C104.761 131.416 94.5693 138.371 82.4057 142.448C81.6424 142.704 80.6932 142.635 80.243 143.545C74.6211 144.681 68.9552 144.607 63.2795 144.096C62.5798 144.032 61.8948 143.83 61.2049 143.687C60.3095 142.989 59.1939 142.837 58.1566 142.502C47.862 139.133 38.8983 133.595 31.2067 125.937C26.4753 121.226 22.4974 115.948 19.3072 110.086C16.8412 105.561 14.8303 100.839 13.5337 95.8277C17.7807 92.4734 20.7164 88.3322 21.2399 82.7647C21.6363 78.5694 21.2008 74.4283 20.325 70.3264C19.0186 64.2081 17.4724 58.1586 15.4712 52.2272C18.4657 44.0579 23.0014 36.8084 28.8288 30.4245C36.9999 21.4683 46.815 14.9909 58.4062 11.3219C59.3603 11.0219 60.471 10.9825 61.1951 10.112C67.5558 9.05947 73.9019 9.26112 80.2332 10.3923C80.4779 11.0809 81.1629 11.076 81.6864 11.2333C90.9144 14.0368 98.9729 18.9255 106.268 25.157C106.968 25.757 107.937 26.2538 108 27.3948L108.015 27.3997Z" fill="#5D9BEB"/>
<path d="M129.681 77.8514C128.443 78.535 127.102 78.9826 126.079 80.099C125.155 81.1073 123.966 80.5269 123.056 79.9121C121.006 78.5301 119.043 77.0202 117.028 75.5791C115.545 74.5168 114.077 73.42 112.257 72.9921C109.566 72.3626 107.452 73.9217 107.266 76.7054C106.978 80.9892 109.248 84.0287 112.247 86.6305C114.077 88.2142 116.152 89.488 118.451 90.2651C120.017 90.7913 119.817 91.3914 118.862 92.375C115.535 95.8129 111.831 98.8229 107.927 101.523C103.215 104.774 100.172 109.382 97.0354 113.947C94.8629 117.109 92.1034 119.47 88.5756 120.94C84.4949 122.637 80.6345 124.855 76.363 126.09C74.2542 126.7 72.1453 126.705 70.0414 125.991C67.9668 125.288 67.1253 123.783 66.9932 121.688C66.7534 117.945 67.9032 114.463 68.9112 110.951C70.1539 106.628 71.8273 102.438 72.6542 97.9868C73.9949 90.7717 71.8616 86.3649 65.2758 83.1434C62.8195 81.9434 60.2899 80.8909 57.8777 79.617C52.4173 76.73 50.0638 71.1084 51.8791 65.1819C53.9243 58.5127 57.2466 52.7141 64.1602 50.1713C69.4885 48.2089 74.8022 48.1302 79.7391 51.7353C83.3109 54.3469 86.9707 56.7766 90.1854 59.8997C93.7865 63.4015 98.3026 64.1491 103.049 62.4129C106.62 61.1046 107.34 58.6012 105.084 55.5814C102.917 52.6747 100.123 50.4025 97.2506 48.2581C93.3902 45.376 89.4857 42.5431 85.3023 40.1331C83.6387 39.1741 81.7354 38.9675 79.9446 38.4019C79.01 38.1068 77.6792 38.1412 77.5128 36.8133C77.3514 35.5542 78.511 35.0476 79.3525 34.5017C83.0515 32.1262 87.1958 31.0245 91.5015 30.6556C98.3173 30.0703 105.143 30.5818 111.964 30.631C112.507 31.3589 113.015 32.1163 113.598 32.8098C119.777 40.1971 124.108 48.5729 126.848 57.8094C128.785 64.3507 129.338 71.074 129.685 77.8366L129.681 77.8514Z" fill="#9FD367"/>
<path d="M80.2577 143.54C80.703 142.635 81.6571 142.699 82.4204 142.443C94.584 138.366 104.771 131.411 113.123 121.614C120.849 112.55 125.737 102.133 128.198 90.5356C128.815 87.6289 129.367 84.6632 129.167 81.6384C131.32 80.3793 133.786 80.5662 136.115 80.1482C136.854 80.0154 137.245 80.3892 137.176 81.3187C136.183 95.3801 131.432 107.976 122.679 119.007C113.03 131.175 100.592 138.961 85.5812 142.63C83.8344 143.058 82.0925 143.569 80.2626 143.535L80.2577 143.54Z" fill="#416DA5"/>
<path d="M129.681 77.8513C129.333 71.0887 128.78 64.3605 126.843 57.8241C124.108 48.5876 119.777 40.2118 113.593 32.8246C113.011 32.1311 112.502 31.3737 111.959 30.6458C113.045 30.4687 114.273 30.5523 115.188 30.0556C117.028 29.0473 118.089 29.7457 119.352 31.0933C127.797 40.1282 133.125 50.7713 135.792 62.8113C136.712 66.9525 137.132 71.1576 137.348 75.3922C137.406 76.5628 137.03 76.9464 135.831 77.0251C133.771 77.1628 131.726 77.5661 129.676 77.8563L129.681 77.8513Z" fill="#6F9449"/>
<path d="M12.4817 92.3602C10.9502 93.9538 8.96374 94.7604 6.98213 95.6014C6.03292 96.0047 5.69531 95.6112 5.47513 94.7751C3.56691 87.4567 2.70087 80.0498 3.24398 72.4658C3.83602 64.1589 5.82742 56.2454 9.28178 48.686C9.41878 48.3909 9.58514 48.1155 9.8836 47.5597C11.4444 50.8205 12.8291 53.9141 13.6169 57.2487C11.8016 64.1294 10.7105 71.1231 10.872 78.2448C10.9747 82.9811 11.6206 87.6928 12.4817 92.3553V92.3602Z" fill="#C4E2A2"/>
<path d="M13.5484 95.8276C14.845 100.834 16.8559 105.561 19.3219 110.086C22.517 115.948 26.49 121.226 31.2214 125.937C38.913 133.595 47.8718 139.133 58.1713 142.502C59.2037 142.841 60.3193 142.989 61.2196 143.687C53.8069 142.994 46.8394 140.682 40.2634 137.333C24.7677 129.434 13.9349 117.202 7.43227 101.021C6.77663 99.3934 7.04084 98.695 8.68974 98.2769C10.4707 97.8245 11.919 96.6342 13.5484 95.8326V95.8276Z" fill="#9CC1F1"/>
<path d="M61.2098 10.112C60.4856 10.9825 59.3749 11.0219 58.4208 11.3219C46.8296 14.9909 37.0194 21.4683 28.8434 30.4245C23.016 36.8084 18.4755 44.053 15.4859 52.2272C14.0963 49.7976 13.4407 47.0138 11.8554 44.6875C11.3955 44.0087 11.8799 43.5759 12.1539 43.1038C18.0987 32.7459 26.2111 24.5373 36.491 18.5419C44.1532 14.0761 52.3732 11.1596 61.2049 10.1169L61.2098 10.112Z" fill="#9BC1F1"/>
<path d="M12.4817 92.3602C11.6206 87.6928 10.9796 82.986 10.872 78.2497C10.7154 71.1281 11.8016 64.1343 13.6168 57.2536C15.6816 63.0424 16.9293 69.023 17.8688 75.0823C18.407 78.5399 18.4706 81.963 17.4822 85.3566C16.6309 88.2879 15.0358 90.6634 12.4817 92.3602Z" fill="#9FD367"/>
<path d="M108.015 27.3997C107.946 26.2586 106.983 25.7619 106.283 25.1619C98.9876 18.9304 90.9291 14.0367 81.7011 11.2382C81.1776 11.0809 80.4926 11.0858 80.2479 10.3972C89.3487 11.4694 97.6176 14.8384 105.417 19.5354C108.313 21.2814 111.029 23.2782 113.612 25.457C113.994 25.7816 114.547 26.2636 114.522 26.6374C114.478 27.3112 113.696 27.021 113.236 27.1538C111.518 27.6554 109.762 27.4341 108.02 27.4046L108.015 27.3997Z" fill="#416DA5"/>
</g>
<defs>
<clipPath id="clip0_2475_1410">
<rect width="153" height="201" fill="white"/>
</clipPath>
</defs>
</svg>
