<svg width="512" height="217" viewBox="0 0 512 217" fill="none" xmlns="http://www.w3.org/2000/svg">
<path d="M3.44 177L3.62 175.2H3.8C8.12 175.2 11.6 174.06 14.24 171.78C16.88 169.5 18.2 166.2 18.2 161.88V58.2C18.2 53.88 16.88 50.4 14.24 47.76C11.6 45.12 8.12 43.8 3.8 43.8L3.62 42H100.1L105.5 78.18H103.7C100.1 55.62 85.88 44.34 61.04 44.34H45.92V96.36H62.12C68.12 96.36 72.92 94.56 76.52 90.96C80.12 87.24 81.92 82.38 81.92 76.38H83.72V120.66H81.92C81.8 114.18 79.76 108.9 75.8 104.82C71.84 100.74 66.62 98.7 60.14 98.7H45.92V161.88C45.92 170.4 50.12 174.66 58.52 174.66H66.08C77.72 174.66 86.96 171.66 93.8 165.66C100.64 159.66 105.02 150.24 106.94 137.4H108.74L103.34 177H3.44ZM110.26 177V175.2C112.42 174.84 115.12 173.64 118.36 171.6C121.24 169.56 124.66 165.78 128.62 160.26L145.72 136.68C143.8 133.56 141.94 130.44 140.14 127.32C138.34 124.2 136.48 121.14 134.56 118.14C132.64 115.02 130.66 111.84 128.62 108.6C126.7 105.36 124.72 102 122.68 98.52C120.16 94.56 118.06 91.8 116.38 90.24C114.7 88.56 112.66 87.6 110.26 87.36V85.56H157.06V87.36C153.22 87.6 151.12 89.28 150.76 92.4C150.52 95.52 151.54 99 153.82 102.84C155.62 105.96 157.36 108.96 159.04 111.84C160.72 114.72 162.4 117.54 164.08 120.3L176.14 103.38C179.14 99.18 180.4 95.52 179.92 92.4C179.56 89.28 177.58 87.6 173.98 87.36V85.56H200.08V87.36C196.72 87.72 193.48 88.92 190.36 90.96C187.36 93 183.88 96.78 179.92 102.3L165.34 122.46C169.54 129.66 173.74 136.74 177.94 143.7C182.14 150.54 186.7 157.98 191.62 166.02C193.66 169.26 195.4 171.54 196.84 172.86C198.4 174.18 200.32 174.96 202.6 175.2V177H155.8V175.2C159.52 174.96 161.68 173.4 162.28 170.52C162.88 167.64 161.86 163.98 159.22 159.54C157.18 155.82 155.14 152.28 153.1 148.92C151.06 145.44 149.02 142.02 146.98 138.66L131.14 160.98C128.38 164.82 127.48 168.12 128.44 170.88C129.52 173.52 132.16 174.96 136.36 175.2V177H110.26ZM232.31 179.52C226.07 179.52 220.97 177.54 217.01 173.58C213.05 169.62 211.07 164.46 211.07 158.1V88.8H195.77V86.46C204.05 85.86 211.43 83.22 217.91 78.54C224.51 73.86 229.91 67.56 234.11 59.64H236.99V85.56H260.93L259.13 88.8H236.99V154.14C236.99 163.74 240.23 168.54 246.71 168.54C248.87 168.54 251.33 167.88 254.09 166.56C256.97 165.24 259.67 163.5 262.19 161.34V163.14C258.23 168.18 253.55 172.2 248.15 175.2C242.75 178.08 237.47 179.52 232.31 179.52ZM260.248 177V175.2H260.428C264.748 175.2 268.228 173.88 270.868 171.24C273.508 168.6 274.828 165.12 274.828 160.8V101.76C274.828 97.2 273.868 93.66 271.948 91.14C270.148 88.62 266.248 87.36 260.248 87.36V85.56H278.068C284.428 85.56 289.228 84.96 292.468 83.76C295.708 82.44 297.988 80.76 299.308 78.72H300.208L300.388 108.24C301.948 104.64 303.928 100.86 306.328 96.9C308.848 92.94 311.968 89.64 315.688 87C319.528 84.24 324.088 82.86 329.368 82.86C331.168 82.86 333.088 83.04 335.128 83.4C337.168 83.76 339.328 84.42 341.608 85.38L334.588 106.44C330.268 104.04 326.488 102.36 323.248 101.4C320.128 100.44 317.368 99.96 314.968 99.96C310.888 99.96 307.828 101.22 305.788 103.74C303.868 106.26 302.188 109.26 300.748 112.74V160.8C300.748 165.12 302.068 168.6 304.708 171.24C307.348 173.88 310.828 175.2 315.148 175.2H315.328V177H260.248ZM367.095 179.52C359.775 179.52 353.895 177.54 349.455 173.58C345.015 169.62 342.795 164.4 342.795 157.92C342.795 155.16 343.275 152.58 344.235 150.18C345.195 147.66 346.995 145.2 349.635 142.8C352.395 140.4 356.175 137.94 360.975 135.42C365.775 132.78 372.135 130.02 380.055 127.14L396.795 121.02V107.52C396.795 100.68 395.715 95.28 393.555 91.32C391.395 87.24 388.395 85.2 384.555 85.2C379.995 85.32 376.095 88.32 372.855 94.2C369.735 100.08 367.635 108.24 366.555 118.68L347.115 107.52C349.155 102.6 352.275 98.28 356.475 94.56C360.675 90.84 365.475 87.96 370.875 85.92C376.395 83.88 382.155 82.86 388.155 82.86C398.355 82.86 406.635 85.74 412.995 91.5C419.475 97.14 422.715 104.88 422.715 114.72V158.1C422.715 165.06 425.055 168.54 429.735 168.54C432.495 168.54 435.195 167.04 437.835 164.04L439.275 165.3C436.155 169.5 432.375 172.92 427.935 175.56C423.495 178.2 419.175 179.52 414.975 179.52C410.415 179.52 406.455 177.96 403.095 174.84C399.855 171.72 397.815 167.58 396.975 162.42C391.095 168.42 385.935 172.8 381.495 175.56C377.175 178.2 372.375 179.52 367.095 179.52ZM380.595 168.36C383.235 168.36 385.755 167.7 388.155 166.38C390.675 165.06 393.495 162.9 396.615 159.9L396.795 123.36L389.595 126.06C383.475 128.34 378.795 130.68 375.555 133.08C372.315 135.36 370.035 137.94 368.715 140.82C367.515 143.7 366.915 147 366.915 150.72C366.915 155.88 368.175 160.14 370.695 163.5C373.335 166.74 376.635 168.36 380.595 168.36ZM473.075 179.52C469.955 179.52 467.615 179.4 466.055 179.16C464.495 178.92 462.995 178.62 461.555 178.26C460.235 177.9 458.435 177.6 456.155 177.36C453.875 177.12 450.395 177 445.715 177L441.395 143.16H443.735C445.655 154.44 449.255 162.96 454.535 168.72C459.815 174.36 465.575 177.18 471.815 177.18C477.935 177.18 482.555 175.92 485.675 173.4C488.915 170.88 490.535 167.46 490.535 163.14C490.535 160.38 489.815 157.98 488.375 155.94C487.055 153.78 484.715 151.62 481.355 149.46C477.995 147.18 473.435 144.48 467.675 141.36L462.455 138.48C455.855 134.76 450.935 130.44 447.695 125.52C444.575 120.48 443.015 115.08 443.015 109.32C443.015 101.16 445.955 94.74 451.835 90.06C457.835 85.38 465.815 83.04 475.775 83.04C478.295 83.04 480.335 83.16 481.895 83.4C483.455 83.64 484.955 83.94 486.395 84.3C487.835 84.66 489.635 84.96 491.795 85.2C493.955 85.44 496.835 85.56 500.435 85.56L502.955 114.54H500.795C500.075 108.9 498.455 103.92 495.935 99.6C493.535 95.16 490.655 91.74 487.295 89.34C483.935 86.82 480.515 85.56 477.035 85.56C472.475 85.56 468.815 86.76 466.055 89.16C463.415 91.56 462.095 94.92 462.095 99.24C462.095 102.48 463.115 105.48 465.155 108.24C467.315 110.88 471.395 113.76 477.395 116.88L482.795 119.58C491.195 123.9 497.315 128.4 501.155 133.08C504.995 137.76 506.915 143.76 506.915 151.08C506.915 169.8 495.635 179.28 473.075 179.52Z" fill="#0C0C0D"/>
<path d="M1.44 176L1.62 174.2H1.8C6.12 174.2 9.6 173.06 12.24 170.78C14.88 168.5 16.2 165.2 16.2 160.88V57.2C16.2 52.88 14.88 49.4 12.24 46.76C9.6 44.12 6.12 42.8 1.8 42.8L1.62 41H98.1L103.5 77.18H101.7C98.1 54.62 83.88 43.34 59.04 43.34H43.92V95.36H60.12C66.12 95.36 70.92 93.56 74.52 89.96C78.12 86.24 79.92 81.38 79.92 75.38H81.72V119.66H79.92C79.8 113.18 77.76 107.9 73.8 103.82C69.84 99.74 64.62 97.7 58.14 97.7H43.92V160.88C43.92 169.4 48.12 173.66 56.52 173.66H64.08C75.72 173.66 84.96 170.66 91.8 164.66C98.64 158.66 103.02 149.24 104.94 136.4H106.74L101.34 176H1.44ZM108.26 176V174.2C110.42 173.84 113.12 172.64 116.36 170.6C119.24 168.56 122.66 164.78 126.62 159.26L143.72 135.68C141.8 132.56 139.94 129.44 138.14 126.32C136.34 123.2 134.48 120.14 132.56 117.14C130.64 114.02 128.66 110.84 126.62 107.6C124.7 104.36 122.72 101 120.68 97.52C118.16 93.56 116.06 90.8 114.38 89.24C112.7 87.56 110.66 86.6 108.26 86.36V84.56H155.06V86.36C151.22 86.6 149.12 88.28 148.76 91.4C148.52 94.52 149.54 98 151.82 101.84C153.62 104.96 155.36 107.96 157.04 110.84C158.72 113.72 160.4 116.54 162.08 119.3L174.14 102.38C177.14 98.18 178.4 94.52 177.92 91.4C177.56 88.28 175.58 86.6 171.98 86.36V84.56H198.08V86.36C194.72 86.72 191.48 87.92 188.36 89.96C185.36 92 181.88 95.78 177.92 101.3L163.34 121.46C167.54 128.66 171.74 135.74 175.94 142.7C180.14 149.54 184.7 156.98 189.62 165.02C191.66 168.26 193.4 170.54 194.84 171.86C196.4 173.18 198.32 173.96 200.6 174.2V176H153.8V174.2C157.52 173.96 159.68 172.4 160.28 169.52C160.88 166.64 159.86 162.98 157.22 158.54C155.18 154.82 153.14 151.28 151.1 147.92C149.06 144.44 147.02 141.02 144.98 137.66L129.14 159.98C126.38 163.82 125.48 167.12 126.44 169.88C127.52 172.52 130.16 173.96 134.36 174.2V176H108.26ZM230.31 178.52C224.07 178.52 218.97 176.54 215.01 172.58C211.05 168.62 209.07 163.46 209.07 157.1V87.8H193.77V85.46C202.05 84.86 209.43 82.22 215.91 77.54C222.51 72.86 227.91 66.56 232.11 58.64H234.99V84.56H258.93L257.13 87.8H234.99V153.14C234.99 162.74 238.23 167.54 244.71 167.54C246.87 167.54 249.33 166.88 252.09 165.56C254.97 164.24 257.67 162.5 260.19 160.34V162.14C256.23 167.18 251.55 171.2 246.15 174.2C240.75 177.08 235.47 178.52 230.31 178.52ZM258.248 176V174.2H258.428C262.748 174.2 266.228 172.88 268.868 170.24C271.508 167.6 272.828 164.12 272.828 159.8V100.76C272.828 96.2 271.868 92.66 269.948 90.14C268.148 87.62 264.248 86.36 258.248 86.36V84.56H276.068C282.428 84.56 287.228 83.96 290.468 82.76C293.708 81.44 295.988 79.76 297.308 77.72H298.208L298.388 107.24C299.948 103.64 301.928 99.86 304.328 95.9C306.848 91.94 309.968 88.64 313.688 86C317.528 83.24 322.088 81.86 327.368 81.86C329.168 81.86 331.088 82.04 333.128 82.4C335.168 82.76 337.328 83.42 339.608 84.38L332.588 105.44C328.268 103.04 324.488 101.36 321.248 100.4C318.128 99.44 315.368 98.96 312.968 98.96C308.888 98.96 305.828 100.22 303.788 102.74C301.868 105.26 300.188 108.26 298.748 111.74V159.8C298.748 164.12 300.068 167.6 302.708 170.24C305.348 172.88 308.828 174.2 313.148 174.2H313.328V176H258.248ZM365.095 178.52C357.775 178.52 351.895 176.54 347.455 172.58C343.015 168.62 340.795 163.4 340.795 156.92C340.795 154.16 341.275 151.58 342.235 149.18C343.195 146.66 344.995 144.2 347.635 141.8C350.395 139.4 354.175 136.94 358.975 134.42C363.775 131.78 370.135 129.02 378.055 126.14L394.795 120.02V106.52C394.795 99.68 393.715 94.28 391.555 90.32C389.395 86.24 386.395 84.2 382.555 84.2C377.995 84.32 374.095 87.32 370.855 93.2C367.735 99.08 365.635 107.24 364.555 117.68L345.115 106.52C347.155 101.6 350.275 97.28 354.475 93.56C358.675 89.84 363.475 86.96 368.875 84.92C374.395 82.88 380.155 81.86 386.155 81.86C396.355 81.86 404.635 84.74 410.995 90.5C417.475 96.14 420.715 103.88 420.715 113.72V157.1C420.715 164.06 423.055 167.54 427.735 167.54C430.495 167.54 433.195 166.04 435.835 163.04L437.275 164.3C434.155 168.5 430.375 171.92 425.935 174.56C421.495 177.2 417.175 178.52 412.975 178.52C408.415 178.52 404.455 176.96 401.095 173.84C397.855 170.72 395.815 166.58 394.975 161.42C389.095 167.42 383.935 171.8 379.495 174.56C375.175 177.2 370.375 178.52 365.095 178.52ZM378.595 167.36C381.235 167.36 383.755 166.7 386.155 165.38C388.675 164.06 391.495 161.9 394.615 158.9L394.795 122.36L387.595 125.06C381.475 127.34 376.795 129.68 373.555 132.08C370.315 134.36 368.035 136.94 366.715 139.82C365.515 142.7 364.915 146 364.915 149.72C364.915 154.88 366.175 159.14 368.695 162.5C371.335 165.74 374.635 167.36 378.595 167.36ZM471.075 178.52C467.955 178.52 465.615 178.4 464.055 178.16C462.495 177.92 460.995 177.62 459.555 177.26C458.235 176.9 456.435 176.6 454.155 176.36C451.875 176.12 448.395 176 443.715 176L439.395 142.16H441.735C443.655 153.44 447.255 161.96 452.535 167.72C457.815 173.36 463.575 176.18 469.815 176.18C475.935 176.18 480.555 174.92 483.675 172.4C486.915 169.88 488.535 166.46 488.535 162.14C488.535 159.38 487.815 156.98 486.375 154.94C485.055 152.78 482.715 150.62 479.355 148.46C475.995 146.18 471.435 143.48 465.675 140.36L460.455 137.48C453.855 133.76 448.935 129.44 445.695 124.52C442.575 119.48 441.015 114.08 441.015 108.32C441.015 100.16 443.955 93.74 449.835 89.06C455.835 84.38 463.815 82.04 473.775 82.04C476.295 82.04 478.335 82.16 479.895 82.4C481.455 82.64 482.955 82.94 484.395 83.3C485.835 83.66 487.635 83.96 489.795 84.2C491.955 84.44 494.835 84.56 498.435 84.56L500.955 113.54H498.795C498.075 107.9 496.455 102.92 493.935 98.6C491.535 94.16 488.655 90.74 485.295 88.34C481.935 85.82 478.515 84.56 475.035 84.56C470.475 84.56 466.815 85.76 464.055 88.16C461.415 90.56 460.095 93.92 460.095 98.24C460.095 101.48 461.115 104.48 463.155 107.24C465.315 109.88 469.395 112.76 475.395 115.88L480.795 118.58C489.195 122.9 495.315 127.4 499.155 132.08C502.995 136.76 504.915 142.76 504.915 150.08C504.915 168.8 493.635 178.28 471.075 178.52Z" fill="#6610F2"/>
</svg>
