<svg width="188" height="201" viewBox="0 0 188 201" fill="none" xmlns="http://www.w3.org/2000/svg">
<g clip-path="url(#clip0_2316_154)">
<path d="M45.1598 201C43.0886 200.082 40.8139 200.05 38.6488 199.51C19.0218 194.631 3.49561 177.214 0.600088 157.079C-1.46069 142.742 1.76351 129.878 10.424 118.358C11.9787 116.291 12.7404 116.139 15.0672 117.156C16.622 119.208 16.6167 119.853 15.0464 121.988C8.33191 131.111 5.16509 141.257 6.06244 152.662C7.99801 177.245 26.4406 194.789 50.9456 194.794C83.4902 194.804 100.362 166.696 95.7244 140.853C90.1212 109.618 53.6794 93.9055 27.0093 110.955C25.2146 112.104 23.7016 112.314 22.1626 110.693C21.2861 108.206 21.5209 107.414 23.8112 106.014C38.1271 97.2263 53.2098 95.6892 69.0282 101.24C69.4456 101.387 69.8734 101.523 70.5621 101.754C70.5621 100.946 70.5621 100.264 70.5621 99.5871C70.5621 85.8475 70.8282 72.1079 70.4786 58.3788C70.1656 45.9927 83.3232 39.2672 92.375 45.3369C92.4637 45.3999 92.6098 45.3841 92.9593 45.4419C92.9593 43.1493 92.9593 40.8987 92.9593 38.6429C92.9593 35.2434 92.8758 31.8387 92.9854 28.4392C93.3349 17.3489 104.646 10.9538 114.303 16.3469C114.574 16.499 114.85 16.6511 115.424 16.9659C114.981 11.3211 116.374 6.56283 120.767 3.06891C123.579 0.823574 126.813 -0.167944 130.398 0.0209168C138.437 0.451099 143.049 6.23757 143.691 16.8295C145.673 15.8065 147.588 14.7363 149.811 14.4897C158.826 13.4877 165.999 19.8565 166.036 29.0477C166.088 41.801 166.052 54.5596 166.052 67.3182C166.052 68.0317 166.052 68.7399 166.052 69.7262C168.759 68.231 171.399 67.2605 174.326 67.3497C182.23 67.5962 187.974 73.6765 187.984 81.9549C188.011 101.449 187.984 120.944 188 140.439C188 143.843 187.802 147.227 187.311 150.606C186.19 158.323 183.633 165.52 179.684 172.22C178.385 174.423 177.66 174.67 175.197 173.877C173.846 172.524 173.507 171.092 174.566 169.329C179.929 160.358 182.178 150.564 182.146 140.161C182.11 128.85 182.141 117.545 182.141 106.234C182.141 98.0605 182.162 89.8923 182.131 81.7188C182.115 77.333 179.329 73.9336 175.411 73.367C170.157 72.6115 166.088 76.2156 166.078 81.7713C166.046 94.9076 166.057 108.049 166.078 121.191C166.078 122.534 165.952 123.793 165.019 124.837C164.027 125.398 162.937 125.492 161.826 125.561C154.224 126.054 148.376 129.595 144.213 135.958C142.021 139.306 140.874 143.015 140.78 147.033C140.748 148.24 140.623 149.41 139.611 150.228C138.662 150.999 137.561 151.078 136.491 150.574C135.213 149.976 134.89 148.843 134.874 147.489C134.759 134.584 144.813 122.408 157.647 120.168C159.718 119.806 160.261 119.113 160.255 117.009C160.172 88.0928 160.198 59.1762 160.188 30.2596C160.188 29.2838 160.172 28.2923 160.031 27.327C159.567 24.1373 157.762 21.9497 154.803 20.8113C149.179 18.6394 143.628 22.7996 143.618 29.2051C143.597 47.7869 143.613 66.3686 143.607 84.9452C143.607 85.6639 143.644 86.3931 143.56 87.1013C143.399 88.5388 142.475 89.3152 141.114 89.4726C139.695 89.6404 138.573 89.1263 137.983 87.6994C137.644 86.8757 137.749 86.0259 137.749 85.1812C137.743 62.0878 137.749 38.9944 137.743 15.8957C137.743 15.0458 137.764 14.1907 137.686 13.3461C137.253 8.48291 132.756 5.10966 128.003 6.05396C123.657 6.91957 121.273 10.062 121.268 15.0143C121.257 38.3701 121.268 61.7258 121.262 85.0816C121.262 85.7373 121.325 86.4036 121.21 87.0384C120.908 88.6909 119.854 89.5565 118.195 89.4831C116.551 89.4096 115.539 88.5283 115.424 86.8023C115.383 86.2147 115.403 85.6272 115.403 85.0343C115.403 67.5648 115.403 50.1004 115.403 32.6308C115.403 31.1934 115.45 29.7507 115.383 28.3133C115.195 24.3 112.263 20.9425 108.533 20.3916C104.338 19.7778 100.634 21.9864 99.2929 25.8843C98.839 27.2116 98.8443 28.5808 98.8443 29.9553C98.8443 52.4612 98.8443 74.967 98.8443 97.4729C98.8443 98.2546 98.8756 99.052 98.766 99.8232C98.5051 101.707 96.867 102.703 95.0409 102.173C93.1158 101.612 92.9645 100.085 92.9645 98.433C92.9697 85.2809 92.9697 72.1341 92.9645 58.9821C92.9645 57.9381 92.9645 56.8784 92.7924 55.8502C92.2654 52.6815 90.4916 50.4939 87.4396 49.4656C81.7529 47.5508 76.4627 51.4644 76.447 57.702C76.4001 72.8791 76.4575 88.0614 76.3949 103.238C76.3896 104.55 77.0261 105.006 77.9443 105.589C92.8445 114.974 100.691 128.703 102.147 146.136C103.154 158.15 100.128 169.193 93.1054 179.05C92.6411 179.701 92.4532 180.131 93.1732 180.808C103.503 190.534 115.805 195.046 129.876 194.92C130.199 194.946 130.518 195.014 130.841 194.998C143.717 194.432 155.143 190.224 164.737 181.39C166.693 179.59 167.471 179.538 169.662 181.002C170.81 182.906 170.241 184.343 168.676 185.781C159.154 194.537 147.896 199.258 135.15 200.612C134.697 200.659 134.086 200.313 133.794 200.995H132.234C130.022 200.428 127.81 200.349 125.598 200.995H124.038C123.824 200.381 123.281 200.622 122.88 200.575C110.223 199.064 98.9799 194.395 89.6777 185.471C88.6917 184.527 88.2847 184.952 87.5752 185.671C80.6573 192.695 72.3985 197.359 62.8303 199.636C60.6078 200.166 58.3487 200.544 56.1106 200.995H45.1806L45.1598 201Z" fill="#040303"/>
<path d="M56.0894 201C58.3327 200.549 60.5865 200.171 62.809 199.641C72.3773 197.365 80.6308 192.701 87.554 185.676C88.2635 184.957 88.6705 184.527 89.6565 185.477C98.9639 194.4 110.207 199.07 122.858 200.58C123.26 200.628 123.803 200.386 124.017 201H56.0894Z" fill="#FCFCFC"/>
<path d="M125.582 201C127.794 200.355 130.006 200.434 132.218 201H125.582Z" fill="#5F5F5F"/>
<path d="M22.1625 110.693C23.6964 112.314 25.2145 112.099 27.0092 110.955C53.6793 93.9108 90.1159 109.623 95.7243 140.853C100.362 166.696 83.4901 194.804 50.9455 194.794C26.4406 194.789 7.99795 177.24 6.06239 152.662C5.16504 141.257 8.33185 131.111 15.0463 121.988C16.6167 119.853 16.6219 119.208 15.0672 117.156C17.3575 114.916 19.6009 112.629 22.1625 110.693ZM50.5438 109.361C49.6673 109.413 48.0344 109.418 46.4275 109.628C19.4965 113.222 0.47482 144.389 18.0514 171.606C20.2739 175.047 21.7138 175.2 24.5989 172.298C38.8157 158.008 53.0272 143.712 67.2387 129.417C69.6281 127.009 72.0437 124.622 74.407 122.193C76.4574 120.089 76.3165 118.29 73.9479 116.689C67.103 112.052 59.6112 109.397 50.5386 109.361H50.5438ZM51.2377 189.632C53.7889 189.679 56.2983 189.364 58.7921 188.85C84.2466 183.609 101.703 153.134 83.8083 126.599C82.238 124.27 80.4694 124.092 78.4816 126.033C76.4782 127.99 74.5166 129.999 72.5393 131.987C57.733 146.876 42.9215 161.769 28.1153 176.663C25.8771 178.914 25.9554 180.603 28.4074 182.266C35.3045 186.956 42.8642 189.579 51.2429 189.626L51.2377 189.632Z" fill="#FA57A9"/>
<path d="M169.651 181.007C167.46 179.543 166.683 179.596 164.726 181.395C155.132 190.23 143.706 194.437 130.83 195.004C130.512 195.02 130.189 194.951 129.865 194.925C130.512 194.012 131.597 193.913 132.516 193.524C138.87 190.828 144.478 186.93 149.237 182.004C154.219 176.847 158.189 170.908 160.897 164.167C163.485 157.72 165.17 151.073 165.363 144.122C165.519 138.377 165.404 132.622 165.384 126.872C165.384 126.185 165.644 125.419 164.998 124.842C165.931 123.798 166.062 122.539 166.057 121.196C166.036 108.055 166.025 94.9182 166.057 81.7767C166.072 76.2263 170.136 72.617 175.39 73.3724C179.313 73.939 182.094 77.3385 182.11 81.7242C182.141 89.8977 182.12 98.0659 182.12 106.239C182.12 117.55 182.094 128.855 182.125 140.166C182.157 150.569 179.908 160.364 174.545 169.334C173.486 171.102 173.825 172.529 175.176 173.883C173.705 176.553 171.696 178.804 169.63 181.012L169.651 181.007Z" fill="#F8B9A6"/>
<path d="M165.008 124.837C165.65 125.414 165.389 126.18 165.394 126.867C165.415 132.617 165.53 138.372 165.373 144.116C165.18 151.067 163.495 157.714 160.907 164.162C158.199 170.903 154.229 176.847 149.247 181.999C144.484 186.925 138.88 190.823 132.526 193.519C131.608 193.907 130.522 194.007 129.876 194.92C115.805 195.04 103.508 190.529 93.1729 180.808C92.453 180.131 92.6408 179.701 93.1051 179.05C100.127 169.193 103.148 158.15 102.146 146.136C100.691 128.703 92.8442 114.974 77.9441 105.589C77.0258 105.012 76.3893 104.555 76.3946 103.239C76.4572 88.0615 76.3998 72.8792 76.4467 57.7022C76.4676 51.4645 81.7526 47.5509 87.4393 49.4658C90.4913 50.494 92.2599 52.6869 92.7921 55.8503C92.9642 56.8733 92.9642 57.933 92.9642 58.9822C92.9747 72.1343 92.9747 85.2811 92.9642 98.4331C92.9642 100.086 93.1155 101.607 95.0407 102.174C96.8667 102.709 98.5048 101.707 98.7657 99.8233C98.87 99.0521 98.844 98.2547 98.844 97.473C98.844 74.9672 98.844 52.4613 98.844 29.9554C98.844 28.5809 98.8387 27.2117 99.2926 25.8844C100.633 21.9866 104.338 19.7727 108.532 20.3917C112.268 20.9373 115.195 24.3001 115.382 28.3134C115.45 29.7508 115.403 31.1935 115.403 32.6309C115.403 50.1005 115.403 67.5649 115.403 85.0345C115.403 85.622 115.382 86.2149 115.424 86.8024C115.539 88.5284 116.546 89.4098 118.194 89.4832C119.853 89.5566 120.913 88.6963 121.21 87.0385C121.325 86.4037 121.262 85.7322 121.262 85.0817C121.262 61.7259 121.262 38.3702 121.267 15.0145C121.267 10.0621 123.657 6.91968 128.003 6.05407C132.755 5.10977 137.253 8.48303 137.686 13.3462C137.759 14.1908 137.743 15.0459 137.743 15.8958C137.743 38.9892 137.743 62.0827 137.748 85.1814C137.748 86.026 137.644 86.8759 137.983 87.6995C138.567 89.1265 139.694 89.6406 141.113 89.4727C142.47 89.3101 143.393 88.5389 143.56 87.1014C143.644 86.388 143.607 85.664 143.607 84.9453C143.607 66.3635 143.597 47.7817 143.618 29.2052C143.623 22.7997 149.174 18.6395 154.803 20.8114C157.761 21.9551 159.566 24.1427 160.031 27.3271C160.172 28.2924 160.187 29.2839 160.187 30.2597C160.198 59.1763 160.172 88.093 160.255 117.01C160.26 119.119 159.723 119.806 157.646 120.168C144.812 122.408 134.759 134.584 134.874 147.49C134.884 148.843 135.213 149.976 136.491 150.574C137.566 151.078 138.661 150.999 139.611 150.228C140.623 149.41 140.753 148.235 140.779 147.033C140.879 143.015 142.026 139.306 144.212 135.959C148.376 129.595 154.224 126.054 161.825 125.561C162.937 125.487 164.027 125.398 165.018 124.837H165.008Z" fill="#FDC8B7"/>
<path d="M50.5437 109.366C59.6111 109.403 67.1029 112.062 73.953 116.695C76.3216 118.3 76.4625 120.094 74.4122 122.198C72.0436 124.627 69.6332 127.014 67.2438 129.422C53.0323 143.718 38.8155 158.008 24.604 172.304C21.7189 175.205 20.279 175.053 18.0565 171.611C0.474701 144.394 19.5016 113.227 46.4326 109.634C48.0395 109.418 49.6776 109.418 50.5489 109.366H50.5437ZM21.9641 166.953C22.6319 166.124 23.0024 165.573 23.4562 165.117C37.8034 150.674 52.1558 136.242 66.5082 121.81C66.8316 121.485 67.1238 121.128 67.4786 120.844C68.3759 120.126 67.969 119.774 67.176 119.37C63.0231 117.251 58.6824 115.688 54.0131 115.441C39.3999 114.675 28.423 120.934 21.3224 133.603C15.2184 144.494 15.9175 155.59 21.9589 166.953H21.9641Z" fill="#060405"/>
<path d="M51.2377 189.637C42.8642 189.59 35.2994 186.967 28.4023 182.277C25.9554 180.614 25.8772 178.924 28.1101 176.674C42.9164 161.78 57.7227 146.892 72.5342 131.998C74.5115 130.009 76.4679 128 78.4765 126.043C80.4642 124.102 82.2328 124.281 83.8032 126.61C101.698 153.145 84.2414 183.62 58.787 188.861C56.2984 189.375 53.7889 189.695 51.2325 189.642L51.2377 189.637ZM80.5112 132.412C80.2555 132.617 80.0886 132.722 79.9529 132.858C65.011 147.878 50.0795 162.913 35.1063 177.907C34.0994 178.914 34.3811 179.223 35.4298 179.748C44.565 184.349 53.9089 185.089 63.4824 181.29C82.8641 173.6 91.1124 150.013 80.5164 132.412H80.5112Z" fill="#030203"/>
</g>
<defs>
<clipPath id="clip0_2316_154">
<rect width="188" height="201" fill="white"/>
</clipPath>
</defs>
</svg>
