<svg width="189" height="164" viewBox="0 0 189 164" fill="none" xmlns="http://www.w3.org/2000/svg">
<g clip-path="url(#clip0_2316_432)">
<path d="M59.2467 28.0677C62.5156 26.682 65.7674 24.9612 69.37 27.1756C71.063 27.4259 72.8703 27.3785 74.3799 28.2119C79.7863 31.1809 84.25 30.179 87.7877 25.1776C89.693 22.5068 92.4544 21.0387 95.1916 19.48C111.647 13.4201 123.815 22.5145 135.775 31.3735C150.534 42.3467 162.275 56.4586 174.367 70.1608C175.024 71.3441 175.545 72.5638 174.949 73.9615C163.885 79.7659 152.658 78.2595 141.413 74.6946C130.351 71.1778 120.198 65.2572 108.924 62.307C99.1377 64.6379 89.1742 66.5795 79.6391 69.3043C68.6096 72.4296 61.1257 81.8138 55.2553 91.7851C50.2378 96.6977 47.7698 103.427 43.0636 108.596C39.128 112.927 35.0847 116.948 29.7365 119.449C26.677 120.439 23.4655 121.857 21.888 117.328C25.4636 94.3549 28.5136 71.231 38.0389 49.7217C42.3498 39.9984 48.5274 31.7166 59.2467 28.0677Z" fill="#FD4B4B"/>
<path d="M129.388 121.923C127.108 123.287 124.823 124.724 121.97 124.129C111.8 126.927 101.467 129.21 91.3991 132.394C89.337 132.849 87.2462 133.288 85.1842 133.743C74.4648 133.679 64.094 137.088 53.3652 136.808C41.9087 136.528 31.3014 134.346 23.9127 124.432C22.1607 117.984 28.5463 120.35 30.6983 118.147C38.7862 114.912 42.5915 106.562 49.704 102.132C56.2391 103.245 62.0036 99.1277 68.3986 99.356C71.7336 102.564 66.3915 105.088 68.0088 107.592C68.4402 104.855 69.6746 101.854 72.4534 99.7259C74.335 98.6877 76.243 98.2007 78.1489 99.6076C79.2025 101.728 82.0208 102.284 82.8671 105.261C83.0053 102.336 83.1291 99.8994 85.1231 98.103C86.1096 97.2561 87.2186 96.5948 88.4032 96.0347C94.3707 92.4939 100.899 91.4972 107.694 91.8609C109.457 92.1896 110.536 93.5023 111.862 94.555C114.507 96.6376 112.412 93.4367 113.136 93.2426C114.36 88.934 117.684 88.1161 121.5 88.1374C125.554 89.5026 128.364 91.9294 128.665 95.9508C130.11 92.2868 123.559 90.5711 125.153 86.2847C132.086 82.995 140.153 82.581 146.486 77.7772C153.843 77.068 161.213 77.1321 168.573 76.8835C171.216 76.515 173.98 74.8762 176.285 77.6811C170.671 95.3998 157.606 106.328 142.051 114.841C137.797 117.17 133.056 118.586 129.353 121.884L129.388 121.923Z" fill="#E03333"/>
<path d="M59.2467 28.0677C42.6186 38.737 35.4907 55.0649 31.7313 73.5487C28.8378 87.7468 25.6196 101.911 22.5494 116.083C22.1476 117.21 21.5076 117.358 20.6519 116.519C24.5792 89.786 27.0427 62.5715 42.2899 39.1406C46.02 33.408 50.3196 26.7217 59.2241 28.0738L59.2467 28.0677Z" fill="#040202"/>
<path d="M173.624 70.2871C164.599 63.7731 159.149 53.8495 150.974 46.5251C141.875 38.3802 133.055 29.9178 122.176 24.0946C113.707 19.5676 104.91 17.1673 95.362 20.4781C93.8802 21.2878 92.2756 22.9071 91.2874 19.9436C99.9573 14.8049 108.724 14.7374 117.923 18.7291C138.023 27.4458 152.114 43.3553 166.58 58.849C169.713 62.2087 172.247 66.1415 175.049 69.8082C174.821 70.7675 174.358 70.9402 173.602 70.2931L173.624 70.2871Z" fill="#040202"/>
<path d="M129.388 121.924C128.974 119.292 130.649 118.479 132.727 117.631C151.728 109.748 166.203 96.8401 175.88 78.6154C176.781 78.7141 177.436 79.1694 177.927 79.9119C168.225 101.396 151.576 114.886 129.388 121.924Z" fill="#040202"/>
<path d="M24.7181 124.629C39.6422 138.665 57.3877 135.245 75.0501 132.964C78.3353 132.545 82.184 128.795 85.1784 133.721C69.8469 137.999 54.3955 140.562 38.5886 136.544C31.8957 134.842 26.2127 131.656 22.9868 125.142C23.2859 123.993 23.8685 123.813 24.7408 124.623L24.7181 124.629Z" fill="#040202"/>
<path d="M77.276 135.88C38.1886 142.212 143.387 110.179 139.096 118.428C127.836 123.332 117.35 126.736 107.977 129.132C95.3201 132.368 84.7219 133.884 77.276 135.88Z" fill="#040202"/>
<path d="M91.2816 19.921C92.6378 20.0916 94 20.2848 95.3562 20.4555C93.5959 21.9466 91.4442 23.1542 90.1675 25.0012C83.9893 33.9142 76.9208 32.5314 69.3703 27.1756C70.1308 26.7534 71.2001 25.763 71.596 25.9724C80.351 30.9326 85.8254 25.4608 91.3042 19.9149L91.2816 19.921Z" fill="#040202"/>
<path d="M177.926 79.9115C177.254 79.4849 176.553 79.0417 175.88 78.6151C173.617 76.236 171.194 78.8757 168.871 78.3573C168.147 73.5752 173.682 76.3884 174.619 73.6372C174.299 72.5336 173.951 71.4134 173.631 70.3098C174.153 70.2669 174.639 70.0881 175.078 69.8248C178.286 72.5577 181.759 75.1952 177.926 79.9115Z" fill="#040202"/>
<path d="M24.718 124.629C24.1293 124.787 23.5467 124.967 22.9641 125.147C21.5821 122.435 19.951 119.789 20.646 116.496C21.2861 116.349 21.9035 116.208 22.5435 116.061C23.985 121.621 27.3623 117.561 29.9322 117.552C31.604 116.546 32.2814 117.262 32.35 118.967C30.0152 121.122 24.3756 118.822 24.712 124.606L24.718 124.629Z" fill="#040202"/>
<path d="M53.531 90.6941C61.7255 77.2601 71.1438 65.5856 88.8801 65.6635C96.1477 65.7065 101.765 59.5896 109.214 60.312C110.614 61.3691 111.011 62.6705 110.122 64.2437C107.195 67.3582 103.12 67.8189 99.359 68.9967C96.6221 69.5601 93.9232 70.3561 91.2046 70.9875C81.8065 71.0541 73.8169 74.3843 67.2841 81.1592C66.0927 82.328 64.9178 83.4681 63.796 84.7153C60.302 87.2535 59.4666 93.0116 53.8192 92.947C53.2219 92.2575 53.141 91.5025 53.531 90.6941Z" fill="#040202"/>
<path d="M110.033 63.0054C109.768 62.1056 109.48 61.2118 109.214 60.312C120.769 62.6774 130.821 69.0376 141.957 72.5589C152.83 76.0049 163.634 76.3867 174.619 73.6375C174.013 76.8097 169.767 75.5445 168.87 78.3576C161.581 78.6846 154.285 78.989 146.995 79.316C145.751 78.3871 144.199 78.3904 142.793 77.942C135.976 76.3217 129.997 72.1225 122.82 71.6913C119.057 68.0634 113.152 67.5824 110.017 63.0341L110.033 63.0054Z" fill="#040202"/>
<path d="M53.5314 90.6939C53.8056 91.4457 54.0859 92.2201 54.3375 92.978C56.5721 97.695 52.8049 100.209 50.5195 103.273C44.5891 108.673 39.6036 115.155 32.3334 118.996C31.5295 118.532 30.7195 118.045 29.9156 117.581C40.379 110.893 46.1789 100.116 53.5314 90.6939Z" fill="#040202"/>
<path d="M65.3267 80.7371C71.5577 72.9265 79.074 67.8298 89.6699 69.3355C95.8781 74.6626 95.4922 82.4604 97.2253 89.472C96.58 95.0335 91.0782 95.5125 87.8746 98.4098C87.0882 98.6448 86.3018 98.8798 85.4988 99.1435C83.4799 101.481 81.1074 102.408 78.1429 100.945C76.6404 100.862 75.1545 100.75 73.6519 100.667C71.078 101.114 69.8465 99.2355 68.3874 97.6846C66.0161 92.2761 63.7413 86.866 65.304 80.7431L65.3267 80.7371Z" fill="#F6F6F6"/>
<path d="M50.542 103.267C49.7833 99.0768 53.7394 96.6332 54.36 92.9717C57.086 89.7412 59.8407 86.5272 62.5667 83.2967C67.2529 82.6721 65.958 86.8057 66.8304 88.9749C67.9816 91.8219 68.5396 94.9007 69.2953 97.9022C69.6909 99.1069 69.3356 99.9545 68.1963 100.503C62.4181 102.124 57.0462 106.257 50.5647 103.261L50.542 103.267Z" fill="#F6F6F6"/>
<path d="M87.8749 98.4097C89.6479 94.9733 94.4178 94.9331 95.9474 91.2222C96.5436 89.8245 97.7161 89.2191 99.1094 88.8943C109.345 89.9624 117.963 85.0805 126.859 81.2403C132.987 81.1034 138.483 78.6112 144.09 76.6234C145.982 76.5291 146.477 77.9255 146.973 79.3219C140.848 84.9923 133.277 86.5354 125.282 86.8572C124.633 88.1477 123.648 89.0912 122.216 89.4508C119.188 90.6504 114.542 89.6136 114.508 95.0113C111.916 96.3856 110.727 93.306 108.62 93.1423C101.587 94.5172 94.18 94.3172 87.8462 98.3931L87.8749 98.4097Z" fill="#040202"/>
<path d="M68.1738 100.509C68.3843 99.8454 68.5662 99.1655 68.7768 98.5023C68.9626 97.3845 69.3989 97.2919 70.0569 98.2078C71.2477 99.0296 72.4613 99.8452 73.6522 100.667C68.795 104.638 69.8212 110.189 69.828 115.648C65.1985 110.869 65.6134 105.806 68.1798 100.531L68.1738 100.509Z" fill="#040202"/>
<path d="M78.1431 100.944C80.6006 100.334 83.0354 99.7305 85.4989 99.1432C83.6956 102.466 86.3297 106.591 83.6272 110.543C81.1934 107.166 81.1371 103.152 78.1491 100.967L78.1431 100.944Z" fill="#040202"/>
<path d="M108.665 93.1302C111.295 91.6245 112.711 94.0121 114.553 94.9992C115.118 97.1053 116.92 99.1224 114.501 102.319C112.432 99.0385 110.552 96.0957 108.665 93.1302Z" fill="#040202"/>
<path d="M122.244 89.4672C122.632 87.8342 123.919 87.295 125.311 86.8736C127.648 90.6163 131.246 93.9 129.896 99.8202C126.919 96.2247 126.478 91.3184 122.25 89.4898L122.244 89.4672Z" fill="#040202"/>
<path d="M127.868 82.3778C119.08 87.9848 110.195 93.1329 99.0972 90.2081C94.4814 85.5709 94.7316 79.1687 93.0153 73.4876C91.6779 69.0399 95.9764 68.6892 98.2663 66.9105C102.191 65.6162 106.115 64.322 110.033 63.0051C114.42 65.5192 120.602 64.9548 123.104 70.6682C126.456 73.848 129.084 77.3186 127.89 82.3717L127.868 82.3778Z" fill="#F6F6F6"/>
<path d="M127.867 82.3777C125.787 78.6875 123.372 75.111 123.081 70.6742C131.036 69.2953 136.956 75.0879 144.09 76.6232C140.299 83.1246 134.603 84.2381 127.845 82.3837L127.867 82.3777Z" fill="#F6F6F6"/>
</g>
<path d="M134.702 130.623C137.132 132.498 139.559 134.364 141.98 136.241C142.966 136.998 142.778 138.658 141.999 139.465C141.055 140.44 139.74 140.229 138.775 139.485C136.345 137.61 133.918 135.744 131.497 133.867C130.511 133.11 130.7 131.449 131.478 130.642C132.422 129.668 133.737 129.879 134.702 130.623ZM130.949 142.989C132.553 145.306 133.939 147.765 135.092 150.336C135.597 151.468 135.419 152.774 134.282 153.457C133.313 154.042 131.663 153.763 131.161 152.648C130.005 150.071 128.627 147.624 127.019 145.301C125.35 142.879 129.295 140.59 130.949 142.989ZM118.349 149.595L121.271 160.498C122.03 163.331 117.623 164.521 116.862 161.68L113.94 150.776C113.181 147.944 117.588 146.754 118.349 149.595Z" fill="black"/>
<defs>
<clipPath id="clip0_2316_432">
<rect width="165" height="112" fill="white" transform="translate(0 42.7051) rotate(-15)"/>
</clipPath>
</defs>
</svg>
