<svg width="180" height="136" viewBox="0 0 180 136" fill="none" xmlns="http://www.w3.org/2000/svg">
<g clip-path="url(#clip0_2316_433)">
<path d="M41.9766 93.3986C41.3675 95.4626 41.6271 96.1508 43.3996 97.3522C49.6678 101.587 56.3632 104.623 63.994 105.143C69.4869 105.517 74.7874 104.486 80.0328 103.047C86.3018 101.325 92.3622 98.9645 98.5539 97.0006C102.349 95.7974 106.307 95.3085 110.188 94.4886C116.593 93.1323 123.028 91.9372 129.109 89.3554C137.197 85.9222 143.077 80.1093 147.292 72.4691C148.465 70.3429 149.52 68.1469 150.513 65.925C154.561 56.8649 160.152 48.8221 166.296 41.1393C167.324 39.8436 168.33 38.5283 169.351 37.2218C169.182 36.5899 169.014 35.9619 168.844 35.3299C167.816 34.3481 166.565 34.3912 165.261 34.3766C158.345 34.3078 151.652 32.8713 145.068 30.7959C144.246 30.5377 143.423 30.2885 142.619 29.9745C140.995 29.3429 139.689 29.6335 138.783 31.21C138.709 33.3211 139.096 33.9243 141.022 34.5894C145.254 36.0461 149.549 37.2533 153.938 38.0963C154.339 38.1711 154.923 37.9975 155.187 38.748C154.22 39.0072 153.272 39.2146 152.358 39.5147C140.531 43.3693 128.459 46.1004 116.091 47.4967C112.678 47.8819 109.265 48.2334 106.052 49.6278C101.928 51.4144 98.2512 53.9024 94.8039 56.748C91.7126 59.2992 88.2437 60.2541 84.3002 59.5624C83.1906 59.3687 82.0729 59.2068 80.9511 59.0925C75.4567 58.5412 69.9688 58.3734 64.7985 60.6859C53.6894 65.6564 42.2219 69.5546 30.4027 72.421C27.9374 73.0181 25.4442 73.4956 22.962 74.0295C26.5407 70.5983 29.9969 67.1619 33.2009 63.4714C38.2971 57.6059 42.4789 51.0117 47.4646 45.0616C51.414 40.3458 55.4487 35.7299 60.6908 32.3907C65.1014 29.5833 69.6471 28.9029 74.3633 31.6354C75.808 32.4717 77.1096 33.5538 78.5004 34.485C81.7887 36.6942 85.7626 35.5489 87.3832 31.9397C87.9392 30.7071 88.4268 29.4377 89.061 28.2475C91.1819 24.2587 94.3669 21.8855 98.9728 21.5234C102.395 21.254 105.717 21.7442 109.02 22.527C115.912 24.16 122.428 26.8845 128.931 29.6547C130.856 30.4764 131.637 30.2376 132.782 28.6311C133.189 27.1547 132.709 26.0176 131.329 25.4222C122.567 21.6486 113.792 17.8871 104.229 16.7539C98.8709 16.1195 93.7005 16.6371 89.302 20.2074C86.4694 22.5073 84.6961 25.5775 83.3646 28.9399C82.5169 31.0805 82.1123 31.1931 80.2716 29.7686C76.2242 26.6453 71.8543 24.5185 66.5898 25.0909C62.3935 25.5464 58.8262 27.4759 55.5627 29.9929C49.2134 34.8945 44.1874 41.0841 39.3965 47.4647C34.5434 53.9254 29.8009 60.4708 23.966 66.1067C20.0511 69.8904 15.9123 73.3531 11.1082 75.94C10.1363 76.4628 9.53268 77.268 9.61626 78.4225C9.70303 79.5888 10.4437 80.2624 11.4892 80.6384C18.8572 83.2826 25.9841 86.4783 32.822 90.3272C34.2633 91.1348 35.4814 90.9692 36.5496 89.7136C37.0489 87.5986 36.7761 86.9394 34.852 85.9056C31.2425 83.9644 27.6491 81.9894 23.869 80.3946C23.3036 80.1566 22.767 79.839 21.8956 79.3951C23.8025 78.9138 25.293 78.3917 26.8903 78.3151C27.0452 78.2693 27.197 78.2117 27.3512 78.1788C39.5283 75.4621 51.4066 71.8179 62.8553 66.8199C65.943 65.4718 68.9974 64.0311 72.4654 63.7749C76.6215 63.4656 80.7049 63.9928 84.8025 64.5417C87.7854 64.9404 90.6658 64.6131 93.4464 63.3516C96.1259 62.1341 98.2177 60.0962 100.577 58.4312C104.37 55.7552 108.282 53.2848 113.041 52.7927C127.235 51.3305 141.13 48.4879 154.66 43.9268C155.887 43.5134 157.165 43.243 158.717 42.827C158.18 43.5976 157.83 44.1188 157.461 44.6284C153.411 50.2346 149.728 56.0686 146.821 62.3804C145.941 64.2925 144.969 66.1573 144.041 68.0444C140.777 74.8498 136.125 80.3295 129.35 83.7831C123.002 87.0207 116.072 88.2555 109.197 89.6827C105.265 90.4993 101.267 91.0076 97.4212 92.2115C91.076 94.1953 84.8748 96.6232 78.4628 98.4048C73.6351 99.7491 68.7523 100.685 63.7029 100.235C57.2061 99.6555 51.4782 97.0163 46.1678 93.3297C44.6938 92.3065 43.3408 92.0933 41.9656 93.3889L41.9766 93.3986Z" fill="#040202"/>
<path d="M132.785 28.643C131.64 30.2496 130.859 30.4883 128.934 29.6666C122.431 26.8964 115.911 24.173 109.023 22.5389C105.72 21.7561 102.399 21.2659 98.976 21.5354C94.37 21.8975 91.185 24.2706 89.0641 28.2594C88.4299 29.4496 87.9373 30.7161 87.3863 31.9516C85.7647 35.5569 81.7918 36.7061 78.5035 34.4969C77.1117 33.5617 75.8111 32.4836 74.3664 31.6473C69.6542 28.9138 65.1045 29.5952 60.6939 32.4026C55.4507 35.7379 51.4171 40.3577 47.4677 45.0735C42.4831 51.0276 38.3002 57.6178 33.2041 63.4833C30 67.1739 26.5439 70.6102 22.9651 74.0414C25.4474 73.5075 27.9405 73.03 30.4058 72.4329C42.225 69.5665 53.6926 65.6683 64.8016 60.6978C69.9719 58.3853 75.4598 58.5531 80.9543 59.1044C82.076 59.2187 83.1937 59.3806 84.3033 59.5744C88.2458 60.2621 91.7147 59.3072 94.8071 56.7599C98.2543 53.9143 101.931 51.4263 106.055 49.6397C109.268 48.2454 112.681 47.8938 116.094 47.5086C128.466 46.1113 140.535 43.3812 152.361 39.5266C153.275 39.2265 154.223 39.0191 155.19 38.7599C154.93 38.0083 154.342 38.183 153.941 38.1083C149.548 37.2662 145.253 36.0591 141.025 34.6013C139.1 33.9401 138.712 33.333 138.786 31.222C136.788 30.3646 134.786 29.5083 132.788 28.6509L132.785 28.643Z" fill="#FD4B4B"/>
<path d="M26.9011 78.3251C25.3038 78.4017 23.8094 78.9249 21.9064 79.4052C22.7778 79.849 23.3144 80.1666 23.8798 80.4046C27.6599 81.9994 31.2494 83.9755 34.8628 85.9156C36.7869 86.9494 37.0558 87.6097 36.5604 89.7236C38.3648 90.9504 40.172 92.1721 41.9764 93.3989C43.3516 92.1033 44.7036 92.3125 46.1786 93.3397C51.489 97.0263 57.2208 99.6645 63.7137 100.245C68.767 100.694 73.6498 99.7581 78.4736 98.4148C84.8856 96.6332 91.0868 94.2054 97.432 92.2215C101.277 91.0176 105.276 90.5093 109.208 89.6927C116.087 88.2644 123.013 87.0307 129.361 83.7931C136.136 80.3395 140.788 74.8598 144.052 68.0544C143.352 68.0641 142.864 68.5337 142.339 68.8858C139.114 71.0455 135.614 72.5717 131.888 73.6292C124.838 75.6327 117.676 77.1115 110.457 78.3939C106.346 79.1227 102.519 80.8933 98.5568 82.1751C95.9639 83.0138 93.3519 83.828 90.7884 84.7139C85.8667 86.4094 80.8853 87.6637 75.7238 88.3864C67.4301 89.5419 59.4432 88.3165 51.8796 84.895C44.2397 81.4388 36.3781 79.2612 28.0511 78.7789C27.6261 78.7531 27.182 78.7493 26.8954 78.3351L26.9011 78.3251Z" fill="#E03333"/>
<path d="M26.9012 78.3248C27.1878 78.739 27.633 78.7468 28.0569 78.7686C36.3829 79.247 44.2445 81.4245 51.8854 84.8847C59.4501 88.3102 67.437 89.5355 75.7297 88.3761C80.8873 87.6545 85.8687 86.4002 90.7943 84.7036C93.3628 83.8206 95.9748 83.0064 98.5627 82.1649C102.524 80.8791 106.352 79.1124 110.463 78.3836C117.678 77.1023 124.844 75.6224 131.894 73.6189C135.62 72.5614 139.12 71.0352 142.345 68.8755C142.869 68.5234 143.358 68.0538 144.058 68.0441C144.986 66.1571 145.962 64.2912 146.838 62.3802C149.745 56.0683 153.428 50.2343 157.478 44.6281C157.847 44.1185 158.2 43.5963 158.734 42.8267C157.182 43.2427 155.904 43.5131 154.677 43.9265C141.146 48.4876 127.251 51.3302 113.058 52.7924C108.297 53.2805 104.382 55.752 100.593 58.4309C98.2344 60.0959 96.1426 62.1338 93.4631 63.3513C90.6825 64.6128 87.7982 64.9411 84.8191 64.5414C80.7216 63.9926 76.6382 63.4654 72.4821 63.7747C69.018 64.0298 65.9635 65.4705 62.872 66.8196C51.4194 71.8187 39.541 75.4629 27.3679 78.1786C27.2098 78.2125 27.058 78.2701 26.9069 78.3148L26.9012 78.3248Z" fill="#F13A3A"/>
</g>
<path d="M125.971 102.623C128.401 104.498 130.828 106.364 133.249 108.241C134.235 108.998 134.047 110.658 133.268 111.465C132.324 112.44 131.009 112.229 130.044 111.485C127.615 109.61 125.187 107.744 122.766 105.867C121.78 105.11 121.969 103.449 122.747 102.642C123.691 101.668 125.006 101.879 125.971 102.623ZM122.218 114.989C123.822 117.306 125.208 119.765 126.361 122.336C126.866 123.468 126.688 124.774 125.551 125.457C124.582 126.042 122.932 125.763 122.43 124.648C121.274 122.071 119.896 119.624 118.288 117.301C116.619 114.879 120.564 112.59 122.218 114.989ZM109.618 121.595L112.54 132.498C113.299 135.331 108.892 136.521 108.131 133.68L105.209 122.776C104.45 119.944 108.857 118.754 109.618 121.595Z" fill="black"/>
<defs>
<clipPath id="clip0_2316_433">
<rect width="165" height="79" fill="white" transform="matrix(-0.965926 0.258819 0.258819 0.965926 159.377 0)"/>
</clipPath>
</defs>
</svg>
