<svg width="180" height="136" viewBox="0 0 180 136" fill="none" xmlns="http://www.w3.org/2000/svg">
<g clip-path="url(#clip0_2316_430)">
<path d="M137.848 93.3986C138.457 95.4626 138.197 96.1508 136.425 97.3522C130.156 101.587 123.461 104.623 115.83 105.143C110.337 105.517 105.037 104.486 99.7914 103.047C93.5224 101.325 87.462 98.9645 81.2703 97.0006C77.4749 95.7974 73.5175 95.3085 69.6362 94.4886C63.2315 93.1323 56.7962 91.9372 50.7157 89.3554C42.6268 85.9222 36.7473 80.1093 32.5322 72.4691C31.3587 70.3429 30.3042 68.1469 29.311 65.925C25.2632 56.8649 19.6719 48.8221 13.5285 41.1393C12.5004 39.8436 11.4941 38.5283 10.473 37.2218C10.6424 36.5899 10.8106 35.9619 10.98 35.3299C12.0081 34.3481 13.259 34.3912 14.563 34.3766C21.4792 34.3078 28.1724 32.8713 34.7566 30.7959C35.5783 30.5377 36.4017 30.2885 37.2049 29.9745C38.8289 29.3429 40.1348 29.6335 41.0417 31.21C41.1157 33.3211 40.7283 33.9243 38.8027 34.5894C34.5705 36.0461 30.2757 37.2533 25.8861 38.0963C25.4856 38.1711 24.9009 37.9975 24.6371 38.748C25.6044 39.0072 26.5521 39.2146 27.4666 39.5147C39.2928 43.3693 51.3656 46.1004 63.7334 47.4967C67.146 47.8819 70.5591 48.2334 73.7723 49.6278C77.8963 51.4144 81.5731 53.9024 85.0203 56.748C88.1116 59.2992 91.5805 60.2541 95.524 59.5624C96.6336 59.3687 97.7514 59.2068 98.8731 59.0925C104.368 58.5412 109.855 58.3734 115.026 60.6859C126.135 65.6564 137.602 69.5546 149.422 72.421C151.887 73.0181 154.38 73.4956 156.862 74.0295C153.283 70.5983 149.827 67.1619 146.623 63.4714C141.527 57.6059 137.345 51.0117 132.36 45.0616C128.41 40.3458 124.376 35.7299 119.133 32.3907C114.723 29.5833 110.177 28.9029 105.461 31.6354C104.016 32.4717 102.715 33.5538 101.324 34.485C98.0355 36.6942 94.0616 35.5489 92.441 31.9397C91.8851 30.7071 91.3975 29.4377 90.7632 28.2475C88.6424 24.2587 85.4573 21.8855 80.8514 21.5234C77.4287 21.254 74.1077 21.7442 70.8045 22.527C63.9123 24.16 57.3966 26.8845 50.8937 29.6547C48.9679 30.4764 48.1874 30.2376 47.0419 28.6311C46.6348 27.1547 47.1151 26.0176 48.4953 25.4222C57.257 21.6486 66.0321 17.8871 75.5954 16.7539C80.9533 16.1195 86.1237 16.6371 90.5222 20.2074C93.3548 22.5073 95.1282 25.5775 96.4596 28.9399C97.3073 31.0805 97.7119 31.1931 99.5526 29.7686C103.6 26.6453 107.97 24.5185 113.234 25.0909C117.431 25.5464 120.998 27.4759 124.262 29.9929C130.611 34.8945 135.637 41.0841 140.428 47.4647C145.281 53.9254 150.023 60.4708 155.858 66.1067C159.773 69.8904 163.912 73.3531 168.716 75.94C169.688 76.4628 170.292 77.268 170.208 78.4225C170.121 79.5888 169.381 80.2624 168.335 80.6384C160.967 83.2826 153.84 86.4783 147.002 90.3272C145.561 91.1348 144.343 90.9692 143.275 89.7136C142.775 87.5986 143.048 86.9394 144.972 85.9056C148.582 83.9644 152.175 81.9894 155.955 80.3946C156.521 80.1566 157.057 79.839 157.929 79.3951C156.022 78.9138 154.531 78.3917 152.934 78.3151C152.779 78.2693 152.627 78.2117 152.473 78.1788C140.296 75.4621 128.418 71.8179 116.969 66.8199C113.881 65.4718 110.827 64.0311 107.359 63.7749C103.203 63.4656 99.1193 63.9928 95.0218 64.5417C92.0388 64.9404 89.1584 64.6131 86.3778 63.3516C83.6983 62.1341 81.6065 60.0962 79.2476 58.4312C75.4539 55.7552 71.5425 53.2848 66.7832 52.7927C52.5895 51.3305 38.6946 48.4879 25.164 43.9268C23.9371 43.5134 22.6593 43.243 21.1069 42.827C21.6446 43.5976 21.994 44.1188 22.3633 44.6284C26.4127 50.2346 30.0959 56.0686 33.0032 62.3804C33.8829 64.2925 34.8547 66.1573 35.783 68.0444C39.0471 74.8498 43.6989 80.3295 50.4739 83.7831C56.8218 87.0207 63.7523 88.2555 70.6271 89.6827C74.5595 90.4993 78.5577 91.0076 82.403 92.2115C88.7482 94.1953 94.9494 96.6232 101.361 98.4048C106.189 99.7491 111.072 100.685 116.121 100.235C122.618 99.6555 128.346 97.0163 133.656 93.3297C135.13 92.3065 136.483 92.0933 137.859 93.3889L137.848 93.3986Z" fill="#040202"/>
<path d="M47.0388 28.643C48.1843 30.2496 48.9648 30.4883 50.8906 29.6666C57.3935 26.8964 63.9131 24.173 70.8013 22.5389C74.1046 21.7561 77.4256 21.2659 80.8483 21.5354C85.4542 21.8975 88.6392 24.2706 90.7601 28.2594C91.3943 29.4496 91.8869 30.7161 92.4379 31.9516C94.0595 35.5569 98.0324 36.7061 101.321 34.4969C102.713 33.5617 104.013 32.4836 105.458 31.6473C110.17 28.9138 114.72 29.5952 119.13 32.4026C124.373 35.7379 128.407 40.3577 132.357 45.0735C137.341 51.0276 141.524 57.6178 146.62 63.4833C149.824 67.1739 153.28 70.6102 156.859 74.0414C154.377 73.5075 151.884 73.03 149.418 72.4329C137.599 69.5665 126.132 65.6683 115.023 60.6978C109.852 58.3853 104.364 58.5531 98.8699 59.1044C97.7482 59.2187 96.6305 59.3806 95.5209 59.5744C91.5784 60.2621 88.1095 59.3072 85.0172 56.7599C81.5699 53.9143 77.8931 51.4263 73.7692 49.6397C70.556 48.2454 67.1428 47.8938 63.7303 47.5086C51.3586 46.1113 39.2897 43.3812 27.4635 39.5266C26.549 39.2265 25.6012 39.0191 24.6339 38.7599C24.8939 38.0083 25.4825 38.183 25.8829 38.1083C30.2764 37.2662 34.5713 36.0591 38.7995 34.6013C40.7241 33.9401 41.1125 33.333 41.0386 31.222C43.0366 30.3646 45.0386 29.5083 47.0366 28.6509L47.0388 28.643Z" fill="#FD4B4B"/>
<path d="M152.923 78.3251C154.52 78.4017 156.015 78.9249 157.918 79.4052C157.046 79.849 156.51 80.1666 155.944 80.4046C152.164 81.9994 148.575 83.9755 144.961 85.9156C143.037 86.9494 142.768 87.6097 143.264 89.7236C141.459 90.9504 139.652 92.1721 137.848 93.3989C136.473 92.1033 135.121 92.3125 133.646 93.3397C128.335 97.0263 122.603 99.6645 116.11 100.245C111.057 100.694 106.174 99.7581 101.351 98.4148C94.9386 96.6332 88.7374 94.2054 82.3922 92.2215C78.5469 91.0176 74.5487 90.5093 70.6163 89.6927C63.7376 88.2644 56.811 87.0307 50.4631 83.7931C43.6881 80.3395 39.0363 74.8598 35.7722 68.0544C36.4719 68.0641 36.9606 68.5337 37.4849 68.8858C40.7105 71.0455 44.2102 72.5717 47.9359 73.6292C54.9865 75.6327 62.1485 77.1115 69.3673 78.3939C73.4778 79.1227 77.305 80.8933 81.2674 82.1751C83.8603 83.0138 86.4723 83.828 89.0358 84.7139C93.9575 86.4094 98.9389 87.6637 104.1 88.3864C112.394 89.5419 120.381 88.3165 127.945 84.895C135.584 81.4388 143.446 79.2612 151.773 78.7789C152.198 78.7531 152.642 78.7493 152.929 78.3351L152.923 78.3251Z" fill="#E03333"/>
<path d="M152.923 78.3248C152.636 78.739 152.191 78.7468 151.767 78.7686C143.441 79.247 135.58 81.4245 127.939 84.8847C120.374 88.3102 112.387 89.5355 104.095 88.3761C98.9369 87.6545 93.9556 86.4002 89.0299 84.7036C86.4615 83.8206 83.8495 83.0064 81.2615 82.1649C77.3002 80.8791 73.4719 79.1124 69.3614 78.3836C62.1465 77.1023 54.9806 75.6224 47.93 73.6189C44.2044 72.5614 40.7046 71.0352 37.4791 68.8755C36.9547 68.5234 36.4661 68.0538 35.7663 68.0441C34.8381 66.1571 33.8623 64.2912 32.9865 62.3802C30.0793 56.0683 26.3961 50.2343 22.3466 44.6281C21.9773 44.1185 21.624 43.5963 21.0903 42.8267C22.6426 43.2427 23.9204 43.5131 25.1474 43.9265C38.678 48.4876 52.5729 51.3302 66.7666 52.7924C71.5269 53.2805 75.4422 55.752 79.2309 58.4309C81.5899 60.0959 83.6817 62.1338 86.3611 63.3513C89.1417 64.6128 92.026 64.9411 95.0051 64.5414C99.1027 63.9926 103.186 63.4654 107.342 63.7747C110.806 64.0298 113.861 65.4705 116.952 66.8196C128.405 71.8187 140.283 75.4629 152.456 78.1786C152.614 78.2125 152.766 78.2701 152.917 78.3148L152.923 78.3248Z" fill="#F13A3A"/>
</g>
<path d="M53.853 102.623C51.4236 104.498 48.9963 106.364 46.575 108.241C45.5891 108.998 45.7777 110.658 46.5558 111.465C47.5003 112.44 48.8152 112.229 49.7803 111.485C52.2097 109.61 54.637 107.744 57.0582 105.867C58.0441 105.11 57.8556 103.449 57.0774 102.642C56.133 101.668 54.8181 101.879 53.853 102.623ZM57.6058 114.989C56.0026 117.306 54.6161 119.765 53.4637 122.336C52.958 123.468 53.1361 124.774 54.273 125.457C55.2425 126.042 56.8926 125.763 57.3938 124.648C58.5506 122.071 59.9278 119.624 61.5359 117.301C63.2055 114.879 59.2606 112.59 57.6058 114.989ZM70.2059 121.595L67.2844 132.498C66.5254 135.331 70.9322 136.521 71.6933 133.68L74.6149 122.776C75.3739 119.944 70.9671 118.754 70.2059 121.595Z" fill="black"/>
<defs>
<clipPath id="clip0_2316_430">
<rect width="165" height="79" fill="white" transform="translate(20.4468) rotate(15)"/>
</clipPath>
</defs>
</svg>
