<svg width="189" height="164" viewBox="0 0 189 164" fill="none" xmlns="http://www.w3.org/2000/svg">
<g clip-path="url(#clip0_2316_441)">
<path d="M129.119 28.0677C125.85 26.682 122.598 24.9612 118.995 27.1756C117.302 27.4259 115.495 27.3785 113.985 28.2119C108.579 31.1809 104.115 30.179 100.578 25.1776C98.6722 22.5068 95.9108 21.0387 93.1737 19.48C76.7179 13.4201 64.5497 22.5145 52.5902 31.3735C37.8316 42.3467 26.0905 56.4586 13.9981 70.1608C13.3413 71.3441 12.8203 72.5638 13.4165 73.9615C24.4804 79.7659 35.7075 78.2595 46.9522 74.6946C58.0142 71.1778 68.1671 65.2572 79.4413 62.307C89.2276 64.6379 99.191 66.5795 108.726 69.3043C119.756 72.4296 127.239 81.8138 133.11 91.7851C138.127 96.6977 140.595 103.427 145.302 108.596C149.237 112.927 153.281 116.948 158.629 119.449C161.688 120.439 164.9 121.857 166.477 117.328C162.902 94.3549 159.852 71.231 150.326 49.7217C146.015 39.9984 139.838 31.7166 129.119 28.0677Z" fill="#FD4B4B"/>
<path d="M58.9776 121.923C61.2575 123.287 63.5418 124.724 66.3949 124.129C76.5656 126.927 86.8986 129.21 96.9662 132.394C99.0282 132.849 101.119 133.288 103.181 133.743C113.9 133.679 124.271 137.088 135 136.808C146.457 136.528 157.064 134.346 164.453 124.432C166.205 117.984 159.819 120.35 157.667 118.147C149.579 114.912 145.774 106.562 138.661 102.132C132.126 103.245 126.362 99.1277 119.967 99.356C116.632 102.564 121.974 105.088 120.356 107.592C119.925 104.855 118.691 101.854 115.912 99.7259C114.03 98.6877 112.122 98.2007 110.216 99.6076C109.163 101.728 106.344 102.284 105.498 105.261C105.36 102.336 105.236 99.8994 103.242 98.103C102.256 97.2561 101.147 96.5948 99.962 96.0347C93.9945 92.4939 87.4666 91.4972 80.6712 91.8609C78.9087 92.1896 77.8289 93.5023 76.5034 94.555C73.8583 96.6376 75.9536 93.4367 75.2291 93.2426C74.0053 88.934 70.6814 88.1161 66.8656 88.1374C62.8111 89.5026 60.0011 91.9294 59.7001 95.9508C58.2551 92.2868 64.806 90.5711 63.2123 86.2847C56.2795 82.995 48.2122 82.581 41.8793 77.7772C34.5221 77.068 27.1518 77.1321 19.7925 76.8835C17.149 76.515 14.3848 74.8762 12.0801 77.6811C17.6947 95.3998 30.759 106.328 46.3147 114.841C50.5684 117.17 55.3095 118.586 59.0124 121.884L58.9776 121.923Z" fill="#E03333"/>
<path d="M129.118 28.0677C145.747 38.737 152.874 55.0649 156.634 73.5487C159.527 87.7468 162.746 101.911 165.816 116.083C166.218 117.21 166.858 117.358 167.713 116.519C163.786 89.786 161.323 62.5715 146.075 39.1406C142.345 33.408 138.046 26.7217 129.141 28.0738L129.118 28.0677Z" fill="#040202"/>
<path d="M14.7408 70.2871C23.7665 63.7731 29.2163 53.8495 37.3914 46.5251C46.4902 38.3802 55.31 29.9178 66.1891 24.0946C74.6581 19.5676 83.4553 17.1673 93.0033 20.4781C94.485 21.2878 96.0896 22.9071 97.0778 19.9436C88.4079 14.8049 79.6411 14.7374 70.4418 18.7291C50.3422 27.4458 36.2508 43.3553 21.7855 58.849C18.6527 62.2087 16.1185 66.1415 13.316 69.8082C13.5443 70.7675 14.0076 70.9402 14.7634 70.2931L14.7408 70.2871Z" fill="#040202"/>
<path d="M58.9773 121.924C59.3913 119.292 57.7162 118.479 55.638 117.631C36.6372 109.748 22.1621 96.8401 12.4847 78.6154C11.5847 78.7141 10.9288 79.1694 10.4386 79.9119C20.1406 101.396 36.7894 114.886 58.9773 121.924Z" fill="#040202"/>
<path d="M163.647 124.629C148.723 138.665 130.978 135.245 113.315 132.964C110.03 132.545 106.181 128.795 103.187 133.721C118.518 137.999 133.97 140.562 149.777 136.544C156.47 134.842 162.153 131.656 165.378 125.142C165.079 123.993 164.497 123.813 163.624 124.623L163.647 124.629Z" fill="#040202"/>
<path d="M111.089 135.88C150.177 142.212 44.9779 110.179 49.2695 118.428C60.5294 123.332 71.0148 126.736 80.388 129.132C93.0452 132.368 103.643 133.884 111.089 135.88Z" fill="#040202"/>
<path d="M97.0836 19.921C95.7275 20.0916 94.3652 20.2848 93.009 20.4555C94.7693 21.9466 96.921 23.1542 98.1977 25.0012C104.376 33.9142 111.444 32.5314 118.995 27.1756C118.234 26.7534 117.165 25.763 116.769 25.9724C108.014 30.9326 102.54 25.4608 97.061 19.9149L97.0836 19.921Z" fill="#040202"/>
<path d="M10.4389 79.9115C11.1113 79.4849 11.8125 79.0417 12.485 78.6151C14.7484 76.236 17.1716 78.8757 19.4946 78.3573C20.2178 73.5752 14.6833 76.3884 13.746 73.6372C14.066 72.5336 14.4147 71.4134 14.7346 70.3098C14.2122 70.2669 13.7263 70.0881 13.2872 69.8248C10.0796 72.5577 6.60637 75.1952 10.4389 79.9115Z" fill="#040202"/>
<path d="M163.647 124.629C164.236 124.787 164.819 124.967 165.401 125.147C166.783 122.435 168.414 119.789 167.719 116.496C167.079 116.349 166.462 116.208 165.822 116.061C164.38 121.621 161.003 117.561 158.433 117.552C156.761 116.546 156.084 117.262 156.015 118.967C158.35 121.122 163.99 118.822 163.653 124.606L163.647 124.629Z" fill="#040202"/>
<path d="M134.834 90.6941C126.64 77.2601 117.221 65.5856 99.4851 65.6635C92.2175 65.7065 86.6005 59.5896 79.1509 60.312C77.7513 61.3691 77.3541 62.6705 78.243 64.2437C81.17 67.3582 85.2449 67.8189 89.0062 68.9967C91.7431 69.5601 94.442 70.3561 97.1607 70.9875C106.559 71.0541 114.548 74.3843 121.081 81.1592C122.273 82.328 123.447 83.4681 124.569 84.7153C128.063 87.2535 128.899 93.0116 134.546 92.947C135.143 92.2575 135.224 91.5025 134.834 90.6941Z" fill="#040202"/>
<path d="M78.3321 63.0054C78.5975 62.1056 78.8855 61.2118 79.1509 60.312C67.5966 62.6774 57.5443 69.0376 46.4083 72.5589C35.5352 76.0049 24.7308 76.3867 13.7461 73.6375C14.3522 76.8097 18.5983 75.5445 19.4948 78.3576C26.7845 78.6846 34.0804 78.989 41.3701 79.316C42.614 78.3871 44.1663 78.3904 45.5726 77.942C52.3892 76.3217 58.3679 72.1225 65.5454 71.6913C69.3082 68.0634 75.2128 67.5824 78.3487 63.0341L78.3321 63.0054Z" fill="#040202"/>
<path d="M134.834 90.6939C134.56 91.4457 134.279 92.2201 134.028 92.978C131.793 97.695 135.56 100.209 137.846 103.273C143.776 108.673 148.762 115.155 156.032 118.996C156.836 118.532 157.646 118.045 158.45 117.581C147.986 110.893 142.186 100.116 134.834 90.6939Z" fill="#040202"/>
<path d="M123.039 80.7371C116.808 72.9265 109.291 67.8298 98.6953 69.3355C92.4872 74.6626 92.8731 82.4604 91.1399 89.472C91.7853 95.0335 97.287 95.5125 100.491 98.4098C101.277 98.6448 102.063 98.8798 102.866 99.1435C104.885 101.481 107.258 102.408 110.222 100.945C111.725 100.862 113.211 100.75 114.713 100.667C117.287 101.114 118.519 99.2355 119.978 97.6846C122.349 92.2761 124.624 86.866 123.061 80.7431L123.039 80.7371Z" fill="#F6F6F6"/>
<path d="M137.823 103.267C138.582 99.0768 134.626 96.6332 134.005 92.9717C131.279 89.7412 128.525 86.5272 125.799 83.2967C121.112 82.6721 122.407 86.8057 121.535 88.9749C120.384 91.8219 119.826 94.9007 119.07 97.9022C118.674 99.1069 119.03 99.9545 120.169 100.503C125.947 102.124 131.319 106.257 137.801 103.261L137.823 103.267Z" fill="#F6F6F6"/>
<path d="M100.49 98.4097C98.7174 94.9733 93.9474 94.9331 92.4179 91.2222C91.8217 89.8245 90.6492 89.2191 89.2559 88.8943C79.0199 89.9624 70.4025 85.0805 61.506 81.2403C55.3787 81.1034 49.8824 78.6112 44.2753 76.6234C42.3835 76.5291 41.888 77.9255 41.3924 79.3219C47.5174 84.9923 55.088 86.5354 63.0829 86.8572C63.7321 88.1477 64.717 89.0912 66.1495 89.4508C69.177 90.6504 73.823 89.6136 73.857 95.0113C76.4495 96.3856 77.6386 93.306 79.7453 93.1423C86.7785 94.5172 94.1852 94.3172 100.519 98.3931L100.49 98.4097Z" fill="#040202"/>
<path d="M120.191 100.509C119.981 99.8454 119.799 99.1655 119.588 98.5023C119.403 97.3845 118.966 97.2919 118.308 98.2078C117.117 99.0296 115.904 99.8452 114.713 100.667C119.57 104.638 118.544 110.189 118.537 115.648C123.167 110.869 122.752 105.806 120.185 100.531L120.191 100.509Z" fill="#040202"/>
<path d="M110.222 100.944C107.765 100.334 105.33 99.7305 102.866 99.1432C104.67 102.466 102.036 106.591 104.738 110.543C107.172 107.166 107.228 103.152 110.216 100.967L110.222 100.944Z" fill="#040202"/>
<path d="M79.7002 93.1302C77.0702 91.6245 75.6538 94.0121 73.8119 94.9992C73.2476 97.1053 71.4452 99.1224 73.8647 102.319C75.933 99.0385 77.8135 96.0957 79.7002 93.1302Z" fill="#040202"/>
<path d="M66.121 89.4672C65.7335 87.8342 64.4461 87.295 63.0544 86.8736C60.7169 90.6163 57.119 93.9 58.4691 99.8202C61.4467 96.2247 61.8877 91.3184 66.1149 89.4898L66.121 89.4672Z" fill="#040202"/>
<path d="M60.4976 82.3778C69.2848 87.9848 78.1706 93.1329 89.2681 90.2081C93.8838 85.5709 93.6336 79.1687 95.35 73.4876C96.6873 69.0399 92.3889 68.6892 90.0989 66.9105C86.1746 65.6162 82.2503 64.322 78.332 63.0051C73.9454 65.5192 67.7628 64.9548 65.2611 70.6682C61.9096 73.848 59.2809 77.3186 60.475 82.3717L60.4976 82.3778Z" fill="#F6F6F6"/>
<path d="M60.4977 82.3777C62.5786 78.6875 64.993 75.111 65.2839 70.6742C57.3295 69.2953 51.4092 75.0879 44.2757 76.6232C48.0667 83.1246 53.7624 84.2381 60.5204 82.3837L60.4977 82.3777Z" fill="#F6F6F6"/>
</g>
<path d="M53.6631 130.623C51.2336 132.498 48.8063 134.364 46.3851 136.241C45.3992 136.998 45.5877 138.658 46.3659 139.465C47.3103 140.44 48.6252 140.229 49.5903 139.485C52.0198 137.61 54.447 135.744 56.8683 133.867C57.8542 133.11 57.6656 131.449 56.8875 130.642C55.943 129.668 54.6282 129.879 53.6631 130.623ZM57.4158 142.989C55.8127 145.306 54.4261 147.765 53.2737 150.336C52.7681 151.468 52.9461 152.774 54.0831 153.457C55.0526 154.042 56.7027 153.763 57.2039 152.648C58.3606 150.071 59.7379 147.624 61.346 145.301C63.0156 142.879 59.0706 140.59 57.4158 142.989ZM70.016 149.595L67.0944 160.498C66.3355 163.331 70.7422 164.521 71.5034 161.68L74.425 150.776C75.1839 147.944 70.7772 146.754 70.016 149.595Z" fill="black"/>
<defs>
<clipPath id="clip0_2316_441">
<rect width="165" height="112" fill="white" transform="matrix(-0.965926 -0.258819 -0.258819 0.965926 188.365 42.7051)"/>
</clipPath>
</defs>
</svg>
