<svg width="180" height="201" viewBox="0 0 180 201" fill="none" xmlns="http://www.w3.org/2000/svg">
<g clip-path="url(#clip0_2316_16)">
<path d="M103.909 127.815C103.909 108.179 103.888 88.5438 103.946 68.9084C103.946 67.3704 103.566 66.9754 102.023 66.9807C88.1585 67.0439 74.2945 67.0333 60.4358 67.007C55.0346 66.9965 50.7769 63.0725 50.2604 57.7318C49.7862 52.8334 53.2693 48.1721 58.2911 47.0871C59.3029 46.8712 60.3778 46.8712 61.4265 46.8764C97.4328 46.887 133.434 46.9081 169.44 46.9291C175.843 46.9291 179.969 50.9689 179.984 57.3157C180.016 69.335 180.016 81.3491 179.984 93.3684C179.969 99.3254 175.758 103.671 170.146 103.655C164.555 103.639 160.356 99.2728 160.324 93.3C160.277 84.9623 160.277 76.6193 160.345 68.2816C160.356 66.8964 159.992 66.5435 158.622 66.554C153.99 66.5909 153.99 66.533 153.99 71.0731C153.99 109.359 153.932 147.645 154.043 185.931C154.064 193.489 148.995 197.761 144.552 198.693C136.885 200.305 129.903 194.674 129.877 186.653C129.83 172.074 129.861 157.494 129.861 142.915C129.861 142.457 129.845 141.994 129.861 141.535C129.882 140.988 129.714 140.693 129.092 140.698C128.491 140.703 128.054 140.787 128.101 141.535C128.127 141.994 128.101 142.452 128.101 142.915C128.101 157.3 128.122 171.678 128.091 186.063C128.075 193.352 123.243 198.719 116.535 198.993C109.484 199.288 103.951 193.779 103.925 186.321C103.883 175.286 103.914 164.257 103.914 153.223C103.914 144.753 103.914 136.279 103.914 127.809L103.909 127.815ZM166.705 63.436C166.674 65.7324 166.616 68.0235 166.61 70.32C166.6 77.8676 166.589 85.4152 166.61 92.9681C166.621 96.102 167.97 97.424 170.852 97.2292C172.929 96.7604 173.677 95.3541 173.677 93.3526C173.666 81.307 173.677 69.2666 173.661 57.2209C173.661 56.5204 173.761 55.7619 173.176 55.1878C172.454 53.5445 171.047 53.2443 169.451 53.2443C133.313 53.2285 97.1746 53.2074 61.0418 53.1916C58.2753 53.1916 56.489 54.7612 56.5575 57.0471C56.626 59.3593 58.4176 60.7445 61.221 60.6497C61.9429 60.6708 62.6595 60.7129 63.3814 60.7129C77.6196 60.7129 91.8524 60.7129 106.091 60.7182C108.794 60.7182 109.632 61.3555 110.301 63.8415C110.275 64.4314 110.217 65.0161 110.217 65.606C110.217 105.572 110.211 145.538 110.227 185.504C110.227 186.479 110.259 187.495 110.517 188.428C111.07 190.44 112.277 191.909 114.458 192.33C118.195 193.505 121.625 190.935 121.741 186.753C121.841 183.082 121.767 179.4 121.767 175.729C121.767 163.457 121.767 151.185 121.767 138.907C121.767 135.289 122.674 134.414 126.336 134.414C128.307 134.414 130.277 134.404 132.243 134.414C134.772 134.43 135.594 135.088 136.227 137.548C136.206 143.521 136.174 149.489 136.163 155.461C136.153 165.7 136.153 175.94 136.163 186.173C136.163 189.597 137.549 191.535 140.463 192.346C141.312 192.899 142.229 192.762 143.124 192.552C146.16 191.835 147.651 189.639 147.651 185.889C147.651 146.234 147.651 106.583 147.651 66.928C147.651 65.9431 147.625 64.9581 147.656 63.9732C147.74 61.4029 148.863 60.3021 151.466 60.2915C155.207 60.2757 158.954 60.2915 162.695 60.3021C165.214 60.3126 166.02 60.9552 166.689 63.436H166.705Z" fill="#030304"/>
<path d="M42.983 128.579C55.7246 128.579 68.4662 128.579 81.2025 128.579C84.8384 128.579 85.7184 129.463 85.7237 133.108C85.7237 135.405 85.7553 137.706 85.7131 140.003C85.671 142.273 84.6171 143.442 82.3354 143.421C81.0865 143.41 80.802 143.906 80.6544 144.954C78.9208 157.221 77.1555 169.487 75.4008 181.754C74.8369 185.715 74.3416 189.687 73.6987 193.632C72.8767 198.651 70.0101 201 64.9093 201.005C50.1969 201.005 35.4898 201.005 20.7774 201.005C15.7345 201.005 12.7415 198.556 12.0195 193.595C9.70623 177.699 7.45617 161.798 5.2061 145.891C4.99532 144.395 4.85832 143.247 2.76634 143.368C1.19076 143.458 0.0947125 142.241 0.0578261 140.561C-0.0159465 137.543 -0.0370244 134.52 0.0630956 131.507C0.126329 129.653 1.43316 128.626 3.57784 128.6C7.12419 128.557 10.6705 128.584 14.2169 128.584C23.8074 128.584 33.3925 128.584 42.983 128.584V128.579ZM70.6635 143.526C69.8099 143.505 68.9562 143.468 68.1026 143.468C51.2244 143.468 34.341 143.468 17.4629 143.468C16.0823 143.468 14.6964 143.574 13.3264 143.442C11.6612 143.284 11.2502 143.99 11.5084 145.48C11.7561 146.897 11.9036 148.33 12.1091 149.757C13.3527 158.369 14.6068 166.98 15.8504 175.592C16.6725 181.291 17.4524 186.995 18.2955 192.689C18.4641 193.842 18.8751 194.727 20.4191 194.722C34.8047 194.653 49.1851 194.659 63.5708 194.638C65.8683 194.743 67.2067 193.631 67.5861 191.303C67.9497 189.044 68.3397 186.79 68.6611 184.525C70.4159 172.1 72.1021 159.664 73.9253 147.25C74.5945 142.694 74.4259 143.468 70.6688 143.532L70.6635 143.526ZM42.8038 137.159C47.4041 137.159 52.0043 137.159 56.5993 137.159C63.6288 137.159 70.6582 137.164 77.6877 137.153C79.1684 137.153 79.8113 136.379 79.2686 135.331C78.8207 134.467 77.9881 134.836 77.3294 134.836C54.3334 134.815 31.3374 134.82 8.34144 134.82C8.01473 134.82 7.68276 134.836 7.35605 134.83C6.56036 134.82 6.37593 135.299 6.37066 135.979C6.37066 136.648 6.50239 137.159 7.31916 137.148C7.84611 137.143 8.36779 137.159 8.89474 137.159C20.1978 137.159 31.4955 137.159 42.7985 137.159H42.8038Z" fill="#020202"/>
<path d="M35.6218 77.499C33.9092 75.6818 32.2019 73.9701 30.6105 72.1529C29.5514 70.9415 28.7557 69.5563 29.5566 67.8498C30.3681 66.1275 31.9121 65.9536 33.5509 65.9852C34.1411 65.9958 34.7418 65.9273 35.3214 65.9958C38.6307 66.4013 41.3866 65.8641 43.3047 62.6302C44.3322 60.892 46.3557 60.9236 47.9313 62.2562C49.5859 63.652 51.1562 65.1478 52.7739 66.5857C54.1335 67.7918 54.3864 69.1929 53.6539 70.8362C52.6422 73.101 51.0824 74.9234 49.2434 76.5509C48.6743 77.0565 47.9102 77.3936 47.6151 78.2047C49.2381 79.0685 50.8875 79.8428 52.4367 80.7803C62.3907 86.8058 67.5074 95.8914 68.5244 107.247C69.2885 115.78 63.8188 122.79 54.9239 125.302C45.8709 127.862 36.8812 127.135 27.9705 124.476C27.5332 124.344 27.1169 124.138 26.7006 123.954C20.0505 121.068 17.6002 115.922 19.5868 108.954C20.5089 105.725 21.9739 102.723 23.5969 99.8048C24.1396 98.8251 24.1185 98.0456 23.6654 97.0607C20.6512 90.4927 20.7935 89.7974 25.8575 84.7464C28.7451 81.8653 31.9068 79.3371 35.6218 77.4937V77.499ZM59.3134 115.632C61.7637 113.494 62.4961 110.571 62.1958 107.616C60.8257 94.3482 53.2271 86.5424 41.6712 82.7607C41.3866 82.6659 41.0336 82.787 40.7121 82.8081C39.458 82.5816 38.4041 83.1347 37.366 83.7088C34.5258 85.2836 32.1966 87.4852 29.8254 89.6658C28.3499 91.0247 28.0127 92.2045 29.1193 93.99C30.9583 96.9659 30.9899 99.9786 29.0455 103.055C27.7545 105.093 26.7849 107.337 26.0103 109.649C24.3293 114.674 25.3885 117.081 30.4472 118.619C37.3923 120.725 44.4903 121.263 51.6252 119.661C54.5129 119.014 57.3057 118.029 59.3186 115.632H59.3134ZM39.6582 72.1477C41.6501 74.6548 41.6132 74.6074 43.5682 73.1168C44.5694 72.3531 45.2333 71.2997 46.1344 70.4622C46.3346 70.2726 46.714 70.0725 46.3557 69.688C45.9289 69.235 45.6391 69.5721 45.4336 69.8934C44.1794 71.8527 42.372 72.6006 39.6635 72.1477H39.6582Z" fill="#030303"/>
<path d="M128.97 45.7757C116.303 45.7757 106.09 35.5629 106.096 22.901C106.096 10.2654 116.361 -0.00526499 128.981 2.02487e-06C141.58 0.00526904 151.903 10.3234 151.898 22.9063C151.893 35.5208 141.612 45.7757 128.976 45.7757H128.97ZM129.013 39.4605C138.145 39.4447 145.575 32.0445 145.564 22.9695C145.559 13.7838 138.081 6.30462 128.923 6.30989C119.828 6.32043 112.435 13.7206 112.414 22.8483C112.387 32.0867 119.775 39.4763 129.018 39.4605H129.013Z" fill="#040303"/>
<path d="M136.227 137.538C135.594 135.078 134.767 134.42 132.243 134.404C130.272 134.393 128.301 134.404 126.336 134.404C122.679 134.404 121.772 135.283 121.767 138.897C121.762 151.169 121.767 163.441 121.767 175.718C121.767 179.395 121.841 183.071 121.741 186.742C121.625 190.924 118.194 193.489 114.458 192.32C114.458 150.926 114.458 109.538 114.458 68.1447C114.458 65.3146 113.074 63.8749 110.306 63.8258C109.637 61.345 108.799 60.7077 106.096 60.7024C91.8575 60.6972 77.6247 60.7024 63.3866 60.6972C62.6646 60.6972 61.948 60.655 61.2261 60.634C61.8953 57.1419 64.509 55.1721 68.5085 55.1721C103.398 55.1721 138.292 55.1721 173.181 55.1721C173.772 55.7462 173.666 56.5046 173.666 57.2051C173.677 69.2508 173.666 81.2912 173.682 93.3369C173.682 95.3384 172.934 96.7446 170.857 97.2134C170.852 87.3904 170.847 77.5674 170.842 67.7444C170.842 64.9143 169.465 63.4729 166.71 63.4202C166.036 60.9394 165.235 60.2969 162.716 60.2863C158.975 60.2705 155.228 60.26 151.487 60.2758C148.884 60.2863 147.761 61.3819 147.677 63.9574C147.645 64.9424 147.672 65.9273 147.672 66.9122C147.672 106.568 147.672 146.218 147.672 185.873C147.672 189.623 146.181 191.82 143.145 192.536C142.25 192.747 141.333 192.884 140.484 192.331C140.484 175.466 140.484 158.606 140.484 141.741C140.484 138.953 139.07 137.548 136.242 137.527L136.227 137.538Z" fill="#63B4F4"/>
<path d="M110.296 63.831C113.064 63.8802 114.448 65.3198 114.448 68.1499C114.448 109.543 114.448 150.932 114.448 192.325C112.266 191.899 111.06 190.434 110.506 188.422C110.248 187.49 110.216 186.479 110.216 185.499C110.201 145.533 110.206 105.567 110.206 65.6007C110.206 65.0108 110.259 64.4262 110.29 63.8363L110.296 63.831Z" fill="#409FEC"/>
<path d="M173.171 55.1825C138.282 55.1825 103.387 55.1825 68.4981 55.1825C64.4986 55.1825 61.8849 57.1524 61.2157 60.6444C58.4176 60.7445 56.6207 59.3593 56.5522 57.0418C56.4837 54.7559 58.27 53.1863 61.0365 53.1863C97.1746 53.1969 133.313 53.2232 169.445 53.239C171.037 53.239 172.449 53.5392 173.171 55.1825Z" fill="#41A4F3"/>
<path d="M136.227 137.538C139.055 137.559 140.469 138.963 140.469 141.751C140.469 158.616 140.469 175.476 140.469 192.341C137.555 191.53 136.174 189.592 136.169 186.168C136.153 175.929 136.158 165.69 136.169 155.456C136.174 149.483 136.206 143.516 136.232 137.543L136.227 137.538Z" fill="#41A2F1"/>
<path d="M166.7 63.4307C169.454 63.4834 170.831 64.9248 170.831 67.7549C170.831 77.5779 170.842 87.4009 170.847 97.2239C167.97 97.4188 166.616 96.0968 166.605 92.9629C166.584 85.4153 166.589 77.8676 166.605 70.3147C166.605 68.0183 166.668 65.7271 166.7 63.4307Z" fill="#409FEC"/>
<path d="M63.5709 194.632C49.1852 194.653 34.8048 194.653 20.4192 194.716C18.8805 194.722 18.4694 193.837 18.2956 192.683C17.4524 186.99 16.6726 181.286 15.8505 175.587C14.6122 166.975 13.3581 158.364 12.1092 149.752C11.9037 148.33 11.7509 146.892 11.5085 145.475C11.2503 143.985 11.6613 143.279 13.3264 143.437C14.6912 143.568 16.0824 143.463 17.463 143.463C34.3411 143.463 51.2245 143.463 68.1026 143.463C68.9563 143.463 69.8099 143.5 70.6636 143.521C70.769 146.276 69.9996 148.93 69.6782 151.638C69.0775 156.662 68.2449 161.661 67.5177 166.67C66.7905 171.679 66.0528 176.687 65.3467 181.702C64.7354 186.005 64.1611 190.319 63.5656 194.627L63.5709 194.632ZM39.6 166.338C39.6 169.619 39.5632 172.9 39.6106 176.182C39.6475 178.62 40.9121 180.095 42.825 180.122C44.7589 180.143 46.1078 178.689 46.1289 176.271C46.1816 169.772 46.1553 163.278 46.1395 156.778C46.1395 155.851 45.9603 154.94 45.349 154.192C44.4901 153.133 43.3361 152.607 42.0293 153.017C40.3062 153.56 39.6317 154.982 39.6106 156.689C39.5684 159.907 39.6 163.12 39.5948 166.338H39.6ZM25.3145 156.12C22.9485 156.209 21.4678 158.216 22.2845 160.486C24.6347 167.028 27.1114 173.522 29.6302 179.995C30.3521 181.854 31.9909 182.492 33.6034 181.87C35.2633 181.228 36.1117 179.49 35.4266 177.636C33.0185 171.115 30.5365 164.621 28.0494 158.132C27.5593 156.857 26.5001 156.23 25.3145 156.114V156.12ZM50.5131 178.784C50.4341 180.59 51.4037 181.57 52.9845 181.886C54.597 182.207 55.8827 181.486 56.4413 179.964C58.8389 173.448 61.2365 166.928 63.4708 160.349C64.4035 157.605 62.3273 155.43 59.6926 156.099C58.2909 156.452 57.7639 157.584 57.3318 158.78C55.2135 164.7 53.1057 170.625 51.0085 176.556C50.7503 177.293 50.4183 178.025 50.5131 178.784Z" fill="#455658"/>
<path d="M63.5708 194.632C64.161 190.324 64.7406 186.015 65.3519 181.707C66.0633 176.693 66.7957 171.684 67.5229 166.675C68.2501 161.666 69.0827 156.668 69.6834 151.643C70.0048 148.936 70.7689 146.281 70.6688 143.526C74.4259 143.463 74.5945 142.689 73.9253 147.245C72.1073 159.659 70.4159 172.095 68.6611 184.52C68.3397 186.784 67.9497 189.039 67.5861 191.298C67.2102 193.626 65.8718 194.738 63.5708 194.632Z" fill="#3D4C4E"/>
<path d="M42.8094 137.159C31.5063 137.159 20.2086 137.159 8.90557 137.159C8.37862 137.159 7.85694 137.143 7.33 137.148C6.51323 137.159 6.37622 136.648 6.38149 135.979C6.38149 135.299 6.57119 134.815 7.36688 134.83C7.69359 134.83 8.02557 134.82 8.35228 134.82C31.3483 134.82 54.3443 134.82 77.3403 134.836C77.9989 134.836 78.8315 134.467 79.2794 135.331C79.8222 136.379 79.174 137.148 77.6986 137.153C70.6691 137.164 63.6396 137.159 56.6101 137.159C52.0099 137.159 47.4096 137.159 42.8146 137.159H42.8094Z" fill="#323E3F"/>
<path d="M59.313 115.632C57.3001 118.029 54.5072 119.014 51.6196 119.661C44.4794 121.263 37.3814 120.725 30.4415 118.619C25.3881 117.081 24.3237 114.674 26.0046 109.649C26.7793 107.342 27.7488 105.098 29.0399 103.054C30.9843 99.9786 30.9527 96.9605 29.1136 93.9899C28.007 92.2044 28.3443 91.0246 29.8197 89.6657C32.191 87.4852 34.5201 85.2783 37.3604 83.7087C38.3984 83.1346 39.4471 82.5816 40.7065 82.8081C40.9489 83.9247 42.0291 83.9773 42.7932 84.3671C47.7728 86.9058 52.0359 90.1924 54.8866 95.1329C57.7269 100.052 59.9664 105.093 59.6871 110.976C59.6134 112.54 59.1602 114.057 59.3077 115.632H59.313ZM37.8715 100.4C37.1654 100.432 36.2432 100.426 35.3316 100.532C31.7695 100.937 29.1558 103.407 28.8449 106.62C28.6657 108.464 29.5247 109.849 31.1108 110.276C32.6705 110.697 34.2303 109.938 34.8205 108.185C35.221 106.994 35.8954 106.736 36.9968 106.731C38.3721 106.731 39.7632 106.863 41.1175 106.494C42.8248 106.03 43.6574 104.882 43.4835 103.144C43.3201 101.49 42.3084 100.547 40.6432 100.416C39.7949 100.347 38.9359 100.405 37.8715 100.405V100.4ZM40.5431 87.3798C39.8897 87.3798 39.231 87.3535 38.5776 87.3798C36.7122 87.4694 35.5529 88.5228 35.4265 90.224C35.3 91.9253 36.2801 93.2104 38.0876 93.537C39.0466 93.7108 40.0425 93.7213 41.0226 93.7161C42.0607 93.7161 42.7985 93.7951 43.2358 95.0539C43.7628 96.555 45.1381 97.245 46.7453 96.8289C48.4105 96.397 49.2588 95.2119 49.1113 93.4632C48.89 90.8877 47.5937 89.0495 45.1803 88.0646C43.6943 87.4588 42.1187 87.4062 40.5431 87.3798ZM45.0011 107.547C44.8483 109.528 45.4121 110.618 46.7611 111.245C48.0363 111.84 49.496 111.75 50.1336 110.613C51.14 108.811 52.5839 108.843 54.2385 108.796C56.0354 108.743 57.2157 107.484 57.2737 105.82C57.3317 104.176 56.1935 102.749 54.4651 102.591C52.3678 102.401 50.2495 102.501 48.2734 103.328C46.2131 104.192 45.1697 105.851 45.0064 107.542L45.0011 107.547Z" fill="#93A1AC"/>
<path d="M59.3132 115.632C59.1656 114.063 59.6188 112.54 59.6926 110.976C59.9666 105.093 57.7323 100.052 54.8921 95.1329C52.036 90.1924 47.773 86.9005 42.7986 84.3671C42.0346 83.9773 40.9543 83.9247 40.7119 82.808C41.0334 82.787 41.3864 82.6658 41.671 82.7606C53.2269 86.5424 60.8255 94.3534 62.1956 107.616C62.5012 110.571 61.7635 113.499 59.3132 115.632Z" fill="#82929F"/>
<path d="M39.6581 72.1423C42.3666 72.5953 44.1793 71.8421 45.4282 69.8881C45.6337 69.5668 45.9235 69.2297 46.3503 69.6827C46.7139 70.0671 46.3345 70.2673 46.129 70.4569C45.2279 71.2944 44.564 72.3478 43.5628 73.1115C41.6131 74.602 41.65 74.6494 39.6528 72.1423H39.6581Z" fill="#82929F"/>
<path d="M129.018 39.4605C119.775 39.4763 112.393 32.0867 112.414 22.8483C112.44 13.7259 119.833 6.32042 128.923 6.30989C138.087 6.29935 145.559 13.7785 145.564 22.9695C145.569 32.0445 138.144 39.4447 129.012 39.4605H129.018Z" fill="#FCD4BB"/>
<path d="M39.6053 166.338C39.6053 163.12 39.579 159.907 39.6159 156.689C39.6369 154.982 40.3114 153.56 42.0345 153.017C43.3414 152.607 44.4954 153.133 45.3543 154.192C45.9603 154.94 46.1395 155.851 46.1447 156.778C46.1553 163.278 46.1869 169.772 46.1342 176.271C46.1131 178.689 44.7694 180.143 42.8302 180.122C40.9174 180.1 39.6527 178.626 39.6159 176.182C39.5632 172.9 39.6053 169.619 39.6053 166.338Z" fill="#020202"/>
<path d="M25.3199 156.12C26.5055 156.236 27.5647 156.862 28.0547 158.137C30.5472 164.626 33.0238 171.12 35.432 177.641C36.117 179.495 35.2634 181.233 33.6087 181.875C31.9963 182.497 30.3575 181.86 29.6356 180C27.1167 173.522 24.6401 167.028 22.2899 160.491C21.4784 158.227 22.9539 156.22 25.3199 156.125V156.12Z" fill="#010102"/>
<path d="M50.5132 178.784C50.4183 178.025 50.7503 177.293 51.0085 176.556C53.1057 170.625 55.2135 164.7 57.3319 158.78C57.7587 157.584 58.2909 156.457 59.6926 156.099C62.3273 155.43 64.4035 157.605 63.4708 160.349C61.2365 166.922 58.8389 173.443 56.4413 179.964C55.8827 181.486 54.6023 182.202 52.9845 181.886C51.3984 181.57 50.4341 180.59 50.5132 178.784Z" fill="#010102"/>
<path d="M37.8718 100.4C38.9362 100.4 39.7951 100.342 40.6435 100.411C42.3087 100.547 43.3204 101.485 43.4838 103.139C43.6524 104.877 42.8198 106.025 41.1178 106.489C39.7635 106.857 38.3724 106.72 36.997 106.726C35.8957 106.726 35.2212 106.989 34.8208 108.179C34.2306 109.933 32.6708 110.686 31.111 110.27C29.5249 109.844 28.666 108.459 28.8452 106.615C29.1561 103.402 31.7697 100.932 35.3319 100.526C36.2435 100.421 37.1657 100.432 37.8718 100.395V100.4Z" fill="#020202"/>
<path d="M40.5431 87.3799C42.1187 87.4062 43.6943 87.4589 45.1803 88.0646C47.599 89.0495 48.8952 90.8877 49.1113 93.4633C49.2588 95.212 48.4105 96.4023 46.7453 96.8289C45.1381 97.245 43.7628 96.555 43.2358 95.0539C42.7932 93.7951 42.0607 93.7108 41.0226 93.7161C40.0425 93.7161 39.0466 93.7108 38.0876 93.537C36.2749 93.2105 35.3 91.9253 35.4265 90.2241C35.5529 88.5228 36.7122 87.4694 38.5776 87.3799C39.231 87.3483 39.8897 87.3799 40.5431 87.3799Z" fill="#020202"/>
<path d="M45.0013 107.547C45.1647 105.857 46.208 104.197 48.2684 103.334C50.2444 102.507 52.3628 102.407 54.46 102.596C56.1884 102.749 57.3266 104.182 57.2686 105.825C57.2107 107.484 56.0303 108.748 54.2334 108.801C52.5788 108.848 51.135 108.817 50.1285 110.618C49.4909 111.756 48.0365 111.845 46.756 111.25C45.4071 110.623 44.8432 109.533 44.996 107.553L45.0013 107.547Z" fill="#030303"/>
</g>
<defs>
<clipPath id="clip0_2316_16">
<rect width="180" height="201" fill="white"/>
</clipPath>
</defs>
</svg>
