<svg width="482" height="156" viewBox="0 0 482 156" fill="none" xmlns="http://www.w3.org/2000/svg">
<path d="M45.7972 75H6.43719V21.4H45.7972V31.56H17.8772V42.84H41.2372V53H17.8772V64.84H45.7972V75ZM65.7603 31.16H54.3203V21.4H65.7603V31.16ZM52.2403 90.68C45.6803 90.68 41.7603 87.8 39.6003 85.48L45.4403 77.56C46.6403 79.48 48.4003 80.76 50.6403 80.76C53.0403 80.76 54.3203 79.56 54.3203 76.36V35.8H65.7603V76.28C65.7603 84.12 61.1203 90.68 52.2403 90.68ZM92.1716 75.8C79.6916 75.8 72.0916 67.48 72.0916 55.4C72.0916 43.32 79.6916 35 91.2116 35C103.692 35 109.932 43.32 109.932 53.56C109.932 55.24 109.772 57.48 109.532 58.36H82.8116C83.5316 63.88 87.2116 66.52 92.3316 66.52C97.8516 66.52 100.812 64.12 102.252 60.76L109.212 67.72C106.252 71.96 100.972 75.8 92.1716 75.8ZM91.2916 43.8C86.4116 43.8 83.3716 46.52 82.8116 51.8H99.6116C99.2116 46.6 96.4116 43.8 91.2916 43.8ZM127.948 75H116.508V35.8H127.948V48.12C129.228 41.56 133.068 35 140.588 35C146.348 35 149.548 38.68 149.548 44.84C149.548 49.08 148.268 52.44 147.308 53.96H136.268C137.708 52.52 139.068 49.72 139.068 47.48C139.068 45.24 138.028 43.56 135.548 43.56C131.628 43.56 127.948 47.8 127.948 54.28V75ZM171.535 75.8C159.455 75.8 151.855 67.4 151.855 55.4C151.855 43.48 159.455 35 171.535 35C180.895 35 187.375 40.12 189.775 46.84L180.255 52.36C179.295 47.48 176.735 44.52 171.935 44.52C166.895 44.52 163.535 48.2 163.535 55.4C163.535 62.6 166.895 66.28 171.935 66.28C176.815 66.28 179.295 63.32 180.255 58.44L189.775 63.96C187.375 70.68 180.895 75.8 171.535 75.8ZM206.542 31.16H195.102V21.4H206.542V31.16ZM206.542 75H195.102V35.8H206.542V75ZM232.473 75.8C220.393 75.8 212.793 67.4 212.793 55.4C212.793 43.48 220.393 35 232.473 35C241.833 35 248.313 40.12 250.713 46.84L241.193 52.36C240.233 47.48 237.673 44.52 232.873 44.52C227.833 44.52 224.473 48.2 224.473 55.4C224.473 62.6 227.833 66.28 232.873 66.28C237.753 66.28 240.233 63.32 241.193 58.44L250.713 63.96C248.313 70.68 241.833 75.8 232.473 75.8ZM267.479 31.16H256.039V21.4H267.479V31.16ZM267.479 75H256.039V35.8H267.479V75ZM293.17 75.8C281.25 75.8 273.57 67.4 273.57 55.4C273.57 43.48 281.25 35 293.17 35C305.41 35 313.17 43.48 313.17 55.4C313.17 67.4 305.41 75.8 293.17 75.8ZM293.33 66.52C298.21 66.52 301.57 63.4 301.57 55.4C301.57 47.32 298.21 44.28 293.33 44.28C288.53 44.28 285.17 47.32 285.17 55.4C285.17 63.4 288.53 66.52 293.33 66.52ZM336.135 75.8C327.415 75.8 319.655 72.6 316.295 67.88L321.575 60.12C324.855 63.64 330.535 67.08 336.455 67.08C339.575 67.08 341.415 66.12 341.415 64.04C341.415 61.96 339.175 61.16 335.015 60.12L329.735 58.84C322.695 57 317.575 54.2 317.575 47.32C317.575 39.64 323.815 35.08 333.415 35.08C341.895 35.08 348.055 38.76 350.775 42.2L345.655 49.88C341.815 45.88 337.015 43.72 332.455 43.72C329.655 43.72 327.975 44.76 327.975 46.68C327.975 48.76 329.655 49.56 334.855 51L339.255 52.2C347.895 54.52 351.655 57.88 351.655 63.88C351.655 71.48 345.255 75.8 336.135 75.8ZM397.476 75H382.996L369.236 35.8H381.876L387.316 54.6L390.356 68.36L393.316 54.6L398.756 35.8H411.236L397.476 75ZM434.242 58.68H412.642V49.32H434.242V58.68ZM452.088 75H440.648V21.4H452.088V47C453.208 40.68 456.408 35 464.568 35C473.688 35 479.688 42.44 479.688 55.4C479.688 68.44 473.688 75.88 464.088 75.88C455.928 75.88 453.128 70.28 452.088 63.96V75ZM452.088 57.56C452.088 63.96 454.728 66.92 459.528 66.92C464.728 66.92 468.008 62.92 468.008 55.4C468.008 47.96 464.728 43.88 459.528 43.88C454.728 43.88 452.088 46.92 452.088 53.32V57.56Z" fill="#0C0C0D"/>
<path d="M43.7972 73H4.43719V19.4H43.7972V29.56H15.8772V40.84H39.2372V51H15.8772V62.84H43.7972V73ZM63.7603 29.16H52.3203V19.4H63.7603V29.16ZM50.2403 88.68C43.6803 88.68 39.7603 85.8 37.6003 83.48L43.4403 75.56C44.6403 77.48 46.4003 78.76 48.6403 78.76C51.0403 78.76 52.3203 77.56 52.3203 74.36V33.8H63.7603V74.28C63.7603 82.12 59.1203 88.68 50.2403 88.68ZM90.1716 73.8C77.6916 73.8 70.0916 65.48 70.0916 53.4C70.0916 41.32 77.6916 33 89.2116 33C101.692 33 107.932 41.32 107.932 51.56C107.932 53.24 107.772 55.48 107.532 56.36H80.8116C81.5316 61.88 85.2116 64.52 90.3316 64.52C95.8516 64.52 98.8116 62.12 100.252 58.76L107.212 65.72C104.252 69.96 98.9716 73.8 90.1716 73.8ZM89.2916 41.8C84.4116 41.8 81.3716 44.52 80.8116 49.8H97.6116C97.2116 44.6 94.4116 41.8 89.2916 41.8ZM125.948 73H114.508V33.8H125.948V46.12C127.228 39.56 131.068 33 138.588 33C144.348 33 147.548 36.68 147.548 42.84C147.548 47.08 146.268 50.44 145.308 51.96H134.268C135.708 50.52 137.068 47.72 137.068 45.48C137.068 43.24 136.028 41.56 133.548 41.56C129.628 41.56 125.948 45.8 125.948 52.28V73ZM169.535 73.8C157.455 73.8 149.855 65.4 149.855 53.4C149.855 41.48 157.455 33 169.535 33C178.895 33 185.375 38.12 187.775 44.84L178.255 50.36C177.295 45.48 174.735 42.52 169.935 42.52C164.895 42.52 161.535 46.2 161.535 53.4C161.535 60.6 164.895 64.28 169.935 64.28C174.815 64.28 177.295 61.32 178.255 56.44L187.775 61.96C185.375 68.68 178.895 73.8 169.535 73.8ZM204.542 29.16H193.102V19.4H204.542V29.16ZM204.542 73H193.102V33.8H204.542V73ZM230.473 73.8C218.393 73.8 210.793 65.4 210.793 53.4C210.793 41.48 218.393 33 230.473 33C239.833 33 246.313 38.12 248.713 44.84L239.193 50.36C238.233 45.48 235.673 42.52 230.873 42.52C225.833 42.52 222.473 46.2 222.473 53.4C222.473 60.6 225.833 64.28 230.873 64.28C235.753 64.28 238.233 61.32 239.193 56.44L248.713 61.96C246.313 68.68 239.833 73.8 230.473 73.8ZM265.479 29.16H254.039V19.4H265.479V29.16ZM265.479 73H254.039V33.8H265.479V73ZM291.17 73.8C279.25 73.8 271.57 65.4 271.57 53.4C271.57 41.48 279.25 33 291.17 33C303.41 33 311.17 41.48 311.17 53.4C311.17 65.4 303.41 73.8 291.17 73.8ZM291.33 64.52C296.21 64.52 299.57 61.4 299.57 53.4C299.57 45.32 296.21 42.28 291.33 42.28C286.53 42.28 283.17 45.32 283.17 53.4C283.17 61.4 286.53 64.52 291.33 64.52ZM334.135 73.8C325.415 73.8 317.655 70.6 314.295 65.88L319.575 58.12C322.855 61.64 328.535 65.08 334.455 65.08C337.575 65.08 339.415 64.12 339.415 62.04C339.415 59.96 337.175 59.16 333.015 58.12L327.735 56.84C320.695 55 315.575 52.2 315.575 45.32C315.575 37.64 321.815 33.08 331.415 33.08C339.895 33.08 346.055 36.76 348.775 40.2L343.655 47.88C339.815 43.88 335.015 41.72 330.455 41.72C327.655 41.72 325.975 42.76 325.975 44.68C325.975 46.76 327.655 47.56 332.855 49L337.255 50.2C345.895 52.52 349.655 55.88 349.655 61.88C349.655 69.48 343.255 73.8 334.135 73.8ZM395.476 73H380.996L367.236 33.8H379.876L385.316 52.6L388.356 66.36L391.316 52.6L396.756 33.8H409.236L395.476 73ZM432.242 56.68H410.642V47.32H432.242V56.68ZM450.088 73H438.648V19.4H450.088V45C451.208 38.68 454.408 33 462.568 33C471.688 33 477.688 40.44 477.688 53.4C477.688 66.44 471.688 73.88 462.088 73.88C453.928 73.88 451.128 68.28 450.088 61.96V73ZM450.088 55.56C450.088 61.96 452.728 64.92 457.528 64.92C462.728 64.92 466.008 60.92 466.008 53.4C466.008 45.96 462.728 41.88 457.528 41.88C452.728 41.88 450.088 44.92 450.088 51.32V55.56Z" fill="#6610F2"/>
<path d="M317.087 137.282C316.952 134.249 314.83 132.49 311.969 132.163C287.651 129.393 263.257 127.341 238.818 126.01L241.624 125.944C247.091 125.811 252.538 125.465 257.928 124.475C257.991 124.464 258.052 124.444 258.113 124.428C265.464 124.37 272.815 124.442 280.161 124.619C289.996 124.854 299.826 125.274 309.651 125.8C312.329 125.944 314.888 123.343 314.769 120.682C314.636 117.688 312.514 115.84 309.651 115.563C277.339 112.451 244.808 111.704 212.389 113.367C207.942 113.593 203.499 113.87 199.059 114.188C197.83 112.531 195.744 111.64 193.6 112.232C187.702 113.859 181.792 115.458 175.877 117.027C173.409 117.683 171.879 120.173 172.211 122.643C172.275 123.116 172.418 123.589 172.623 124.04C171.962 124.945 171.564 126.043 171.611 127.084C171.716 129.452 173.152 131.242 175.368 132.019C182.846 134.645 190.941 134.609 198.812 134.734C198.575 135.14 198.389 135.564 198.276 135.976C197.764 137.829 198.37 139.553 199.593 140.956C202.835 144.671 208.352 144.743 212.87 145.25C217.393 145.759 221.934 146.124 226.474 146.453C228.651 146.611 230.831 146.76 233.011 146.912C233.047 147.687 233.252 148.448 233.659 149.123C235.424 152.061 238.376 154.36 241.79 154.988C244.128 155.417 246.775 154.51 247.785 152.288C255.039 152.573 262.305 152.446 269.551 151.906C272.113 151.715 274.224 150.105 274.578 147.469C274.91 145.001 273.391 142.505 270.912 141.852C266.801 140.77 262.648 139.94 258.473 139.279C268.369 139.487 278.257 140.001 288.134 140.651C296.086 141.177 304.029 141.789 311.975 142.406C314.65 142.613 317.209 139.904 317.093 137.287L317.087 137.282Z" fill="#0C0C0D"/>
<path d="M314.738 135.716C314.603 132.683 312.481 130.924 309.62 130.597C285.302 127.827 260.908 125.775 236.469 124.444L239.275 124.378C244.742 124.245 250.189 123.899 255.579 122.909C255.642 122.898 255.703 122.878 255.764 122.862C263.115 122.804 270.466 122.876 277.812 123.053C287.647 123.288 297.477 123.708 307.302 124.234C309.98 124.378 312.539 121.777 312.42 119.116C312.287 116.122 310.165 114.274 307.302 113.997C274.99 110.885 242.459 110.138 210.039 111.801C205.593 112.027 201.15 112.304 196.71 112.622C195.481 110.965 193.395 110.074 191.251 110.666C185.352 112.293 179.443 113.892 173.528 115.461C171.06 116.117 169.53 118.607 169.862 121.077C169.926 121.55 170.069 122.023 170.274 122.474C169.613 123.379 169.215 124.477 169.262 125.518C169.367 127.886 170.803 129.676 173.019 130.453C180.497 133.079 188.592 133.043 196.463 133.168C196.225 133.574 196.04 133.998 195.927 134.41C195.415 136.263 196.021 137.987 197.244 139.39C200.486 143.105 206.003 143.177 210.521 143.684C215.044 144.193 219.584 144.558 224.125 144.887C226.302 145.045 228.482 145.194 230.662 145.346C230.698 146.121 230.903 146.882 231.31 147.557C233.075 150.495 236.027 152.794 239.441 153.422C241.779 153.851 244.426 152.944 245.436 150.722C252.69 151.007 259.956 150.88 267.202 150.34C269.763 150.149 271.874 148.539 272.229 145.903C272.561 143.435 271.042 140.939 268.563 140.286C264.451 139.204 260.299 138.374 256.124 137.713C266.02 137.921 275.908 138.435 285.785 139.085C293.737 139.611 301.68 140.223 309.626 140.84C312.301 141.047 314.86 138.338 314.744 135.721L314.738 135.716Z" fill="#6610F2"/>
</svg>
