<svg width="317" height="201" viewBox="0 0 317 201" fill="none" xmlns="http://www.w3.org/2000/svg">
<g clip-path="url(#clip0_2316_134)">
<path d="M5.36475 42.2289C5.36475 38.7739 5.36475 35.3188 5.36475 31.8727C8.88824 31.6901 10.65 29.7696 10.65 26.1114C10.65 25.2278 10.65 24.353 10.65 23.4693C10.65 14.4916 14.5147 10.6125 23.4793 10.6125C87.714 10.6125 151.958 10.6125 216.192 10.6125C217.401 10.6125 218.619 10.5771 219.819 10.6743C226.242 11.1515 232.11 15.7994 233.01 21.1896C222.872 21.1896 212.76 21.1896 202.648 21.1896C194.31 21.1896 190.225 25.2189 190.225 33.4632C190.225 49.9872 190.225 66.5111 190.225 83.035C190.225 91.0938 194.354 95.238 202.383 95.2468C223.507 95.2468 244.621 95.2468 265.745 95.238C267.404 95.238 268.992 95.3706 270.58 95.9803C279.598 99.4353 288.642 102.802 297.668 106.239C304.559 108.855 306.65 112.16 306.474 119.52C306.43 121.243 305.997 121.782 304.25 121.738C299.636 121.623 295.012 121.614 290.389 121.729C284.645 121.871 280.259 126.315 280.021 132.059C279.977 133.155 280.012 134.259 280.012 135.364C280.012 142.866 280.012 142.724 272.592 142.928C269.477 143.016 267.492 142.079 265.409 139.632C250.974 122.631 224.027 122.834 209.769 140.038C207.907 142.283 206.098 142.91 203.389 142.91C169.843 142.839 136.296 142.839 102.74 142.91C100.243 142.91 98.6021 142.256 96.9345 140.241C82.4729 122.728 55.3584 122.56 40.8438 139.914C38.938 142.194 37.085 143.06 34.1909 142.963C32.0204 142.892 31.6763 142.168 31.738 140.268C31.8616 136.309 31.791 132.342 31.7733 128.374C31.7469 123.585 29.9469 121.747 25.244 121.712C21.5028 121.685 17.7529 121.526 14.0294 121.765C11.3382 121.941 10.5618 121.234 10.5794 118.407C10.7118 94.9464 10.65 71.4771 10.65 48.0167C10.65 44.3584 8.88824 42.435 5.36475 42.2465V42.2289ZM100.067 31.7578H172.631C179.663 31.7578 179.504 31.7578 179.734 24.8566C179.831 21.87 179.028 21.1012 176.01 21.1012C126.864 21.2072 77.717 21.1719 28.5616 21.1719C21.194 21.1719 21.3264 21.1719 21.1322 28.4C21.0617 31.1393 21.7587 31.8285 24.5205 31.8197C49.7026 31.7048 74.8759 31.749 100.058 31.749L100.067 31.7578ZM100.42 84.6521H28.1822C21.2028 84.6521 21.3881 84.6521 21.1322 91.6063C21.0175 94.7167 22.0146 95.2999 24.9175 95.291C73.9582 95.2027 122.99 95.2292 172.031 95.2292C179.716 95.2292 179.584 95.2292 179.734 87.6123C179.787 85.0497 179.001 84.5902 176.619 84.5991C151.216 84.6874 125.822 84.6521 100.42 84.6521ZM168.951 116.392C169.825 116.392 170.707 116.392 171.581 116.392C177.198 116.392 179.893 113.582 179.663 107.962C179.663 107.856 179.645 107.741 179.663 107.635C179.875 106.16 179.195 105.762 177.793 105.789C174.069 105.868 170.346 105.815 166.613 105.815C160.996 105.815 158.302 108.625 158.531 114.245C158.531 114.351 158.549 114.466 158.531 114.572C158.319 116.048 158.999 116.454 160.402 116.419C163.252 116.33 166.101 116.392 168.951 116.392ZM206.063 116.392C206.936 116.392 207.819 116.392 208.692 116.392C214.151 116.392 216.798 113.644 216.633 108.148C216.633 107.927 216.607 107.706 216.633 107.494C216.783 106.213 216.219 105.789 214.948 105.797C209.028 105.842 203.116 105.842 197.195 105.797C195.942 105.789 195.589 106.204 195.466 107.476C194.619 116.401 194.584 116.401 203.434 116.401C204.307 116.401 205.189 116.401 206.063 116.401V116.392Z" fill="#6610F2"/>
<path d="M5.36473 42.2289C8.88822 42.4115 10.65 44.3349 10.65 47.999C10.65 71.4594 10.7029 94.9287 10.5794 118.389C10.5617 121.217 11.3382 121.924 14.0294 121.747C17.7528 121.5 21.5028 121.667 25.244 121.694C29.938 121.729 31.7468 123.567 31.7733 128.357C31.7998 132.324 31.8704 136.292 31.738 140.25C31.6762 142.141 32.0204 142.866 34.1909 142.945C37.0762 143.043 38.9291 142.177 40.8438 139.897C55.3672 122.542 82.4728 122.71 96.9345 140.224C98.6021 142.238 100.243 142.901 102.74 142.892C136.287 142.822 169.834 142.822 203.389 142.892C206.089 142.892 207.907 142.274 209.769 140.021C224.027 122.816 250.974 122.613 265.409 139.614C267.492 142.062 269.477 142.998 272.592 142.91C280.012 142.698 280.012 142.839 280.012 135.346C280.012 134.242 279.977 133.146 280.021 132.041C280.259 126.307 284.644 121.862 290.389 121.712C295.003 121.597 299.627 121.606 304.25 121.72C305.997 121.765 306.43 121.226 306.474 119.503C306.65 112.142 304.55 108.846 297.668 106.222C288.642 102.793 279.597 99.4176 270.58 95.9626C268.992 95.3529 267.412 95.2203 265.745 95.2203C244.621 95.238 223.507 95.238 202.383 95.2292C194.354 95.2292 190.234 91.0849 190.225 83.0174C190.225 66.4934 190.225 49.9695 190.225 33.4455C190.225 25.2013 194.31 21.1807 202.648 21.1719C212.76 21.1719 222.872 21.1719 233.01 21.1719C232.11 15.7817 226.242 11.1338 219.819 10.6567C218.619 10.5683 217.401 10.5948 216.192 10.5948C151.957 10.5948 87.714 10.5948 23.4793 10.5948C14.5146 10.5948 10.65 14.4739 10.65 23.4517C10.65 24.3353 10.65 25.2101 10.65 26.0937C10.65 29.752 8.88822 31.6724 5.36473 31.855C1.84711 31.6842 0.0883061 29.7873 0.0883061 26.1644C0.0883061 22.4266 -0.141103 18.68 0.988298 15.0306C3.75004 6.03525 11.8588 0.0530583 21.5999 0.0353856C45.2379 4.02882e-05 68.8671 0.0265493 92.5051 0.0265493C133.949 0.0265493 175.393 0.0707309 216.836 4.02867e-05C229.692 -0.0176324 238.542 5.779 243.624 17.5402C247.145 25.6961 250.595 33.8874 254.336 41.9461C255.615 44.6942 255.73 46.3201 252.404 47.027C251.892 47.133 251.442 47.5395 250.965 47.8134C250.454 47.9813 249.862 48.0432 249.439 48.3348C246.854 50.0844 245.618 49.13 244.595 46.4173C242.927 42.0079 240.827 37.7665 239.036 33.3925C237.845 30.4942 235.471 32.0671 233.627 31.8285C231.986 31.6164 232.507 33.1274 232.507 33.9757C232.48 50.155 232.507 66.3255 232.445 82.5049C232.445 84.2898 233.018 84.7051 234.695 84.6874C242.715 84.6079 250.736 84.5637 258.757 84.7051C261.404 84.7493 261.051 83.795 260.256 82.0454C257.812 76.6464 255.474 71.1944 253.092 65.7688C251.592 62.3345 252.407 59.766 255.536 58.0636C258.865 56.8736 261.242 57.9104 262.665 61.174C265.824 68.4197 269.053 75.6302 272.08 82.929C272.962 85.0497 274.259 86.1631 276.377 86.9318C285.033 90.0599 293.653 93.3028 302.247 96.6076C312.085 100.39 316.982 107.591 316.991 118.124C317.009 134.754 317.009 151.393 316.991 168.023C316.991 175.657 312.774 179.846 305.141 179.864C299.75 179.881 294.359 179.696 288.977 179.934C286.074 180.058 284.706 179.36 285.289 176.276C285.386 175.746 285.253 175.18 285.227 174.632C285.253 174.191 285.368 173.74 285.289 173.316C284.662 169.931 286.074 169.004 289.383 169.207C294.2 169.507 299.062 169.189 303.897 169.331C305.98 169.392 306.544 168.677 306.474 166.689C306.333 162.951 306.403 159.204 306.447 155.458C306.465 154.167 306.191 153.408 304.656 153.408C294.756 153.452 284.856 153.443 274.965 153.425C273.536 153.425 273.324 154.079 273.668 155.307C275.442 161.74 274.798 168.155 273.421 174.553C269.601 185.148 263.062 193.304 252.554 197.925C235.383 205.48 214.913 198.747 205.781 182.355C204.713 180.447 203.654 179.811 201.51 179.819C174.881 179.899 148.26 179.872 121.631 179.872C118.161 179.872 116.361 178.129 116.231 174.641C116.367 171.077 118.19 169.295 121.702 169.295C141.608 169.295 161.513 169.295 181.428 169.295C186.925 169.295 192.431 169.163 197.928 169.357C200.486 169.445 201.157 168.615 200.901 166.167C200.583 163.101 200.628 159.955 201.545 156.995C202.428 154.123 201.81 153.355 198.686 153.372C168.44 153.496 138.193 153.443 107.946 153.443C107.399 153.443 106.843 153.469 106.296 153.443C104.946 153.381 104.205 153.699 104.655 155.325C106.455 161.758 105.793 168.173 104.408 174.571C100.587 185.156 94.058 193.304 83.5581 197.934C66.3965 205.489 45.9438 198.8 36.8027 182.426C35.6468 180.358 34.4027 179.811 32.2321 179.846C25.4204 179.961 18.5999 179.908 11.7794 179.881C4.4118 179.855 0.114776 175.569 0.114776 168.2C0.0794827 127.544 0.132423 86.9142 7.16676e-05 46.2847C-0.00875178 42.9534 0.794182 41.7075 4.05886 42.3172C4.47356 42.3967 4.93238 42.2642 5.36473 42.22V42.2289ZM68.7083 137.546C54.1849 137.564 42.3261 149.475 42.3438 164.029C42.3614 178.582 54.2643 190.467 68.7788 190.441C83.3111 190.405 95.1257 178.538 95.1521 163.949C95.1786 149.44 83.2493 137.529 68.7083 137.546ZM264.165 164.153C264.254 149.74 252.501 137.679 238.251 137.546C223.577 137.414 211.489 149.069 211.348 163.49C211.216 178.193 222.863 190.308 237.254 190.432C252.051 190.564 264.068 178.821 264.165 164.153ZM221.91 58.5672C221.91 50.429 221.866 42.2907 221.945 34.1525C221.963 32.3498 221.548 31.6694 219.616 31.7136C214.127 31.8373 208.63 31.8285 203.142 31.7136C201.289 31.6783 200.733 32.1908 200.742 34.0906C200.813 50.1462 200.831 66.2018 200.725 82.2574C200.707 84.4842 201.572 84.7228 203.407 84.6874C208.675 84.5902 213.951 84.5549 219.219 84.7051C221.354 84.767 221.998 84.1838 221.963 81.9923C221.83 74.1899 221.91 66.3785 221.91 58.5672ZM21.1411 169.278C23.9998 169.278 26.8586 169.198 29.7086 169.304C31.4733 169.366 31.9939 168.686 31.8615 166.98C31.5615 163.128 31.7292 159.275 32.7792 155.537C33.2468 153.876 32.8056 153.381 31.1557 153.399C25.0057 153.452 18.8558 153.461 12.7058 153.399C11.1176 153.381 10.6059 153.973 10.6323 155.511C10.7029 159.469 10.6941 163.428 10.6323 167.387C10.6059 168.827 11.1706 169.331 12.5735 169.295C15.4323 169.233 18.2823 169.278 21.1411 169.278ZM298.286 142.83C306.553 142.83 306.483 142.83 306.474 134.789C306.474 132.845 306.121 132.077 303.985 132.2C300.483 132.404 296.953 132.395 293.45 132.2C291.218 132.077 290.477 132.616 290.512 135.019C290.618 142.83 290.512 142.83 298.286 142.83ZM16.0146 142.83C19.4793 142.83 21.2116 141.561 21.2116 139.022C21.2116 134.51 19.8087 132.253 17.0029 132.253C12.7735 132.253 10.6588 133.688 10.6588 136.557C10.6588 140.739 12.447 142.83 16.0235 142.83H16.0146Z" fill="#010101"/>
<path d="M104.381 174.544C105.767 168.147 106.42 161.731 104.628 155.299C104.178 153.673 104.911 153.355 106.27 153.416C106.817 153.443 107.372 153.416 107.92 153.416C138.166 153.416 168.413 153.461 198.66 153.346C201.775 153.337 202.401 154.097 201.519 156.969C200.61 159.929 200.557 163.075 200.875 166.141C201.13 168.597 200.46 169.428 197.901 169.331C192.404 169.136 186.907 169.269 181.401 169.269C161.496 169.269 141.59 169.269 121.675 169.269C118.164 169.269 116.34 171.051 116.205 174.615C112.261 174.588 108.325 174.553 104.381 174.526V174.544Z" fill="#415E88"/>
<path d="M255.545 58.0635C252.415 59.766 251.601 62.3344 253.101 65.7688C255.474 71.2031 257.821 76.6463 260.265 82.0453C261.059 83.7949 261.403 84.7492 258.765 84.705C250.745 84.5636 242.724 84.6078 234.704 84.6873C233.018 84.705 232.445 84.2897 232.454 82.5048C232.524 66.3255 232.489 50.155 232.515 33.9757C232.515 33.1274 231.995 31.6164 233.636 31.8284C235.48 32.067 237.854 30.4941 239.045 33.3925C240.836 37.7576 242.936 42.0079 244.604 46.4172C245.627 49.13 246.862 50.0843 249.448 48.3347C249.88 48.0431 250.462 47.9812 250.974 47.8133C252.501 51.233 254.018 54.6438 255.545 58.0635Z" fill="#4DB5E2"/>
<path d="M273.395 174.544C274.771 168.147 275.424 161.731 273.642 155.298C273.306 154.07 273.509 153.416 274.939 153.416C284.839 153.434 294.739 153.443 304.63 153.399C306.165 153.399 306.438 154.159 306.421 155.449C306.377 159.195 306.306 162.942 306.447 166.68C306.518 168.668 305.953 169.384 303.871 169.322C299.036 169.18 294.183 169.498 289.356 169.198C286.047 168.995 284.636 169.923 285.262 173.307C285.342 173.731 285.227 174.182 285.2 174.624C281.256 174.597 277.321 174.562 273.377 174.535L273.395 174.544Z" fill="#415D88"/>
<path d="M100.076 31.7579C74.8935 31.7579 49.7202 31.7049 24.5381 31.8286C21.7764 31.8374 21.0705 31.157 21.1499 28.4089C21.344 21.1808 21.2029 21.1808 28.5793 21.1808C77.7259 21.1808 126.872 21.2073 176.028 21.1101C179.046 21.1101 179.848 21.87 179.751 24.8655C179.522 31.7579 179.681 31.7667 172.649 31.7667C148.463 31.7667 124.27 31.7667 100.084 31.7667L100.076 31.7579Z" fill="black"/>
<path d="M100.429 84.6521C125.831 84.6521 151.225 84.6875 176.628 84.5991C179.01 84.5991 179.796 85.0586 179.743 87.6123C179.593 95.2292 179.725 95.2292 172.04 95.2292C122.999 95.2292 73.9671 95.2027 24.9264 95.2911C22.0234 95.2911 21.0264 94.7167 21.1411 91.6063C21.397 84.661 21.2205 84.6521 28.191 84.6521C52.2702 84.6521 76.3494 84.6521 100.429 84.6521Z" fill="black"/>
<path d="M168.951 116.392C166.101 116.392 163.251 116.33 160.401 116.419C158.998 116.463 158.319 116.048 158.531 114.572C158.548 114.466 158.531 114.351 158.531 114.245C158.301 108.625 160.995 105.815 166.613 105.815C170.336 105.815 174.069 105.868 177.792 105.789C179.186 105.762 179.875 106.16 179.663 107.635C179.645 107.741 179.663 107.856 179.663 107.962C179.892 113.582 177.198 116.392 171.581 116.392C170.707 116.392 169.825 116.392 168.951 116.392Z" fill="black"/>
<path d="M206.063 116.392C205.189 116.392 204.307 116.392 203.433 116.392C194.592 116.392 194.619 116.392 195.466 107.467C195.589 106.195 195.942 105.78 197.195 105.788C203.116 105.833 209.027 105.833 214.948 105.788C216.219 105.78 216.783 106.204 216.633 107.485C216.607 107.697 216.633 107.927 216.633 108.139C216.798 113.635 214.151 116.383 208.692 116.383C207.819 116.383 206.936 116.383 206.063 116.383V116.392Z" fill="black"/>
<path d="M68.7082 137.555C83.2493 137.538 95.1786 149.449 95.1521 163.958C95.1256 178.547 83.3022 190.414 68.7788 190.449C54.2554 190.485 42.3526 178.591 42.3438 164.038C42.3261 149.484 54.1848 137.582 68.7082 137.555ZM68.6818 179.855C77.3905 179.881 84.5993 172.644 84.5816 163.896C84.564 155.36 77.3376 148.141 68.8141 148.141C60.2112 148.141 52.9937 155.237 52.9054 163.773C52.8172 172.529 59.973 179.828 68.6729 179.855H68.6818Z" fill="#334F79"/>
<path d="M264.165 164.152C264.077 178.821 252.059 190.564 237.253 190.432C222.862 190.308 211.215 178.193 211.348 163.49C211.48 149.069 223.568 137.414 238.25 137.546C252.5 137.679 264.253 149.74 264.165 164.152ZM237.968 148.132C229.198 148.088 221.945 155.245 221.927 163.958C221.909 172.538 229.03 179.775 237.562 179.855C246.289 179.934 253.568 172.75 253.603 164.029C253.639 155.466 246.474 148.185 237.977 148.141L237.968 148.132Z" fill="#334F79"/>
<path d="M221.919 58.5673C221.919 66.3786 221.839 74.1811 221.972 81.9924C222.007 84.175 221.363 84.767 219.228 84.7052C213.96 84.5549 208.684 84.5903 203.416 84.6875C201.581 84.7228 200.716 84.4842 200.734 82.2575C200.84 66.2019 200.822 50.1463 200.751 34.0907C200.751 32.1908 201.298 31.6783 203.151 31.7137C208.639 31.8286 214.136 31.8374 219.625 31.7137C221.557 31.6695 221.981 32.3499 221.954 34.1525C221.866 42.2908 221.919 50.429 221.919 58.5673Z" fill="#4DB5E3"/>
<path d="M21.141 169.278C18.2822 169.278 15.4323 169.233 12.5735 169.295C11.1705 169.331 10.6147 168.827 10.6323 167.387C10.6941 163.428 10.7029 159.469 10.6323 155.511C10.6058 153.964 11.1176 153.381 12.7058 153.399C18.8558 153.461 25.0057 153.452 31.1557 153.399C32.8145 153.381 33.2468 153.876 32.7792 155.537C31.7292 159.275 31.5615 163.127 31.8615 166.98C31.9939 168.685 31.4733 169.366 29.7086 169.304C26.8586 169.198 23.9998 169.278 21.141 169.278Z" fill="#415D88"/>
<path d="M298.285 142.839C290.512 142.839 290.618 142.839 290.512 135.028C290.477 132.624 291.218 132.094 293.45 132.209C296.953 132.404 300.482 132.404 303.985 132.209C306.121 132.085 306.474 132.854 306.474 134.798C306.491 142.839 306.553 142.839 298.285 142.839Z" fill="#DEDEDC"/>
<path d="M16.0146 142.839C12.4381 142.839 10.6499 140.748 10.6499 136.566C10.6499 133.697 12.7646 132.262 16.994 132.262C19.8057 132.262 21.2086 134.518 21.2027 139.031C21.2027 141.57 19.4704 142.839 16.0057 142.839H16.0146Z" fill="#D55246"/>
<path d="M68.6819 179.846C59.982 179.819 52.8261 172.521 52.9144 163.764C53.0026 155.228 60.2114 148.141 68.8231 148.132C77.3465 148.132 84.5729 155.343 84.5906 163.888C84.6082 172.635 77.3906 179.881 68.6907 179.846H68.6819ZM68.8936 158.701C66.0437 158.612 63.5908 160.901 63.4584 163.755C63.326 166.618 65.5672 169.11 68.4172 169.278C71.3907 169.454 73.9671 167.051 74.0201 164.064C74.0642 161.21 71.7524 158.789 68.8936 158.701Z" fill="#010102"/>
<path d="M237.977 148.132C246.474 148.177 253.639 155.458 253.603 164.02C253.568 172.742 246.289 179.925 237.562 179.846C229.03 179.766 221.918 172.538 221.927 163.949C221.945 155.246 229.207 148.079 237.968 148.123L237.977 148.132ZM243.042 163.888C242.998 161.025 240.607 158.692 237.748 158.701C234.889 158.701 232.524 161.06 232.489 163.923C232.454 166.918 234.968 169.393 237.942 169.278C240.801 169.172 243.095 166.75 243.042 163.888Z" fill="#010102"/>
<path d="M68.9025 158.7C71.7613 158.789 74.0731 161.21 74.029 164.064C73.976 167.051 71.3996 169.454 68.4261 169.278C65.5761 169.11 63.3438 166.618 63.4673 163.755C63.5996 160.901 66.0526 158.612 68.9025 158.7Z" fill="#D4D4D2"/>
<path d="M243.042 163.887C243.086 166.75 240.801 169.171 237.942 169.278C234.969 169.392 232.454 166.918 232.489 163.923C232.524 161.06 234.898 158.709 237.748 158.7C240.607 158.7 242.998 161.033 243.042 163.887Z" fill="#D4D4D2"/>
</g>
<defs>
<clipPath id="clip0_2316_134">
<rect width="317" height="201" fill="white"/>
</clipPath>
</defs>
</svg>
