<svg width="201" height="201" viewBox="0 0 201 201" fill="none" xmlns="http://www.w3.org/2000/svg">
<g clip-path="url(#clip0_2316_39)">
<path d="M197.596 26.5859C200.449 27.4885 200.989 28.2232 200.989 31.2355C200.989 35.1609 201.005 39.0864 200.989 43.0171C200.963 47.3623 198.209 50.1542 193.898 50.1752C188.6 50.2014 183.302 50.1647 178.004 50.1909C175.938 50.2014 174.133 49.6032 172.722 48.0603C172.193 47.483 171.71 47.2154 170.871 47.3308C164.598 48.223 158.272 48.8265 152.051 50.002C148.694 50.637 145.515 52.2166 142.268 53.3922C138.958 54.5939 135.68 55.8954 132.344 57.0185C131.101 57.4383 130.618 57.9578 130.645 59.3433C130.744 64.6437 130.734 69.9441 130.65 75.2444C130.629 76.6194 130.991 76.9815 132.37 76.9762C144.734 76.9185 157.097 77.0025 169.46 76.9133C174.265 76.8818 177.517 78.8288 179.426 83.2947C181.681 88.5741 184.121 93.7748 186.528 98.9912C187.257 100.571 187.619 102.192 187.619 103.919C187.614 112.62 187.635 121.326 187.609 130.027C187.598 134.556 184.797 137.28 180.213 137.317C178.415 137.331 177.517 138.221 177.517 139.988C177.517 156.02 177.354 172.058 177.601 188.085C177.695 194.377 175.749 198.833 169.596 200.958H17.6976C17.6294 200.853 17.5874 200.685 17.4982 200.654C12.0274 198.738 10.0237 194.76 10.0709 189.129C10.202 172.771 10.1181 156.414 10.1181 140.056C10.1181 137.332 10.1181 137.311 7.47971 137.322C6.48834 137.322 5.52845 137.212 4.57905 136.928C2.34455 136.257 1.2378 134.394 0.0366211 132.636C0.0366211 122.166 0.0366211 111.691 0.0366211 101.222C2.77467 95.2442 5.61762 89.3141 8.21405 83.279C10.1443 78.7973 13.3859 76.8818 18.1801 76.9133C30.4751 76.9972 42.7701 76.9133 55.0651 76.9762C56.581 76.9815 57.0059 76.6246 57.0006 75.066C56.9377 58.1835 56.9586 41.301 56.9639 24.4237C56.9639 19.2493 59.4869 16.7041 64.6483 16.6988C73.4132 16.6883 82.1781 16.6726 90.9377 16.7198C92.1441 16.7251 93.0149 16.4469 93.8279 15.5075C95.3071 13.8125 97.2268 12.6737 99.2777 11.7553C106.899 8.3389 114.536 4.9645 122.126 1.49038C125.929 -0.251921 129.795 -0.257169 133.823 0.383076C146.145 2.33005 158.481 4.17731 170.808 6.07705C171.49 6.18201 172.014 6.19251 172.534 5.56801C173.924 3.90442 175.801 3.26418 177.936 3.26418C183.297 3.26942 188.663 3.20645 194.024 3.29041C198.314 3.35339 200.947 6.09804 200.995 10.3541C201.016 12.1856 201.005 14.0171 200.995 15.8487C200.979 18.5303 200.234 19.454 197.627 20.0627C195.036 19.4435 194.338 18.6038 194.317 16.0376C194.307 14.5996 194.249 13.1617 194.333 11.729C194.412 10.4748 194.018 10.0077 192.697 10.0287C188.191 10.0969 183.685 10.0865 179.179 10.0287C177.957 10.013 177.449 10.3069 177.454 11.6556C177.501 21.7158 177.501 31.776 177.454 41.8363C177.449 43.101 177.795 43.5366 179.101 43.5156C183.606 43.4421 188.112 43.4316 192.618 43.5156C194.05 43.5418 194.365 43.0223 194.333 41.7103C194.254 38.252 194.302 34.7883 194.307 31.3247C194.307 28.2494 194.753 27.6145 197.59 26.5754L197.596 26.5859ZM93.8384 137.332C68.8497 137.332 43.8611 137.348 18.8725 137.296C17.2307 137.296 16.8059 137.742 16.8111 139.369C16.8688 156.188 16.8426 173.008 16.8478 189.827C16.8478 193.244 17.8811 194.277 21.2853 194.277C69.6261 194.277 117.967 194.277 166.307 194.277C169.68 194.277 170.797 193.175 170.797 189.843C170.797 173.092 170.776 156.335 170.839 139.584C170.845 137.841 170.462 137.285 168.605 137.285C143.684 137.353 118.759 137.327 93.8384 137.327V137.332ZM63.6517 56.7036C63.6517 67.3621 63.6674 78.0258 63.6307 88.6843C63.6307 89.8861 63.851 90.3846 65.2148 90.3846C84.3024 90.3374 103.395 90.3427 122.483 90.3794C123.695 90.3794 124.025 90.0015 124.02 88.8155C123.978 79.7891 123.978 70.7627 124.02 61.7363C124.025 60.4244 123.721 60.1252 122.472 60.6605C119.949 61.7468 117.332 62.1194 114.631 61.3427C110.277 60.0885 107.167 56.2785 106.826 51.7915C106.474 47.1576 108.929 42.9016 113.22 41.0858C116.278 39.7896 119.425 38.6875 122.562 37.596C123.674 37.2129 124.046 36.6461 124.02 35.4758C123.941 32.0752 123.894 28.6693 124.036 25.2739C124.104 23.6365 123.495 23.3741 122.037 23.3741C103.212 23.4161 84.3811 23.4214 65.5557 23.3689C64.0188 23.3689 63.6044 23.7572 63.6149 25.3054C63.6884 35.7697 63.6517 46.234 63.6517 56.6983V56.7036ZM93.6443 130.636C122.027 130.636 150.409 130.62 178.797 130.673C180.496 130.673 181.031 130.3 180.989 128.526C180.863 123.163 180.9 117.794 180.973 112.431C180.989 111.035 180.701 110.521 179.158 110.526C122.263 110.568 65.3616 110.568 8.46582 110.531C7.11253 110.531 6.67718 110.878 6.69816 112.263C6.77159 117.695 6.81355 123.126 6.68242 128.553C6.63521 130.374 7.24891 130.668 8.89594 130.668C37.1471 130.62 65.3983 130.631 93.6548 130.631L93.6443 130.636ZM93.7072 103.882H105.09C129.485 103.882 153.881 103.882 178.272 103.882C181.141 103.882 181.293 103.615 180.097 101.001C177.821 96.0051 175.502 91.0301 173.326 85.9921C172.565 84.2236 171.469 83.5781 169.57 83.5886C157.994 83.6516 146.417 83.6201 134.841 83.6201C130.692 83.6201 130.797 83.6201 130.65 87.8656C130.582 89.8231 131.064 90.5211 133.11 90.3636C135.58 90.1747 138.083 90.2587 140.558 90.3846C141.964 90.4581 143.191 91.0301 143.784 92.5415C144.309 93.8797 143.941 94.9871 143.113 95.9999C142.216 97.102 140.92 97.0075 139.677 97.0075C109.134 97.0075 78.5903 97.0075 48.0521 97.0075C47.6587 97.0075 47.2653 97.018 46.8772 96.9918C44.9731 96.8658 43.7352 95.7218 43.6146 93.99C43.494 92.2634 44.5535 90.9199 46.3841 90.5158C48.2619 90.1065 50.166 90.3427 52.0543 90.3322C57.1894 90.2954 57.158 90.3217 56.9901 85.079C56.9534 83.9874 56.6544 83.6043 55.5319 83.6043C42.7806 83.6358 30.024 83.6253 17.2727 83.6253C16.1292 83.6253 15.2532 84.0399 14.7549 85.1367C12.1952 90.794 9.64077 96.4512 7.04959 102.093C6.46212 103.363 7.03385 103.777 8.16684 103.872C8.75431 103.919 9.34179 103.893 9.92926 103.893C37.8553 103.893 65.7812 103.893 93.7072 103.893V103.882ZM105.53 16.2842C105.567 16.4259 105.604 16.5729 105.64 16.7146C111.578 16.7146 117.516 16.7408 123.453 16.6988C125.53 16.6831 127.524 17.1239 128.714 18.7927C129.832 20.3618 130.98 20.8866 132.748 20.3461C133.052 20.2516 133.398 20.2989 133.724 20.2884C138.607 20.1572 142.683 23.2115 143.679 27.7509C144.734 32.5632 142.342 37.2024 137.799 39.1074C136.719 39.5587 135.596 39.9313 134.495 40.3354C128.552 42.5185 122.598 44.6754 116.666 46.89C113.713 47.9921 112.685 50.6528 114.159 53.135C115.234 54.9455 117.028 55.4913 119.483 54.6097C125.504 52.4423 131.484 50.1595 137.516 48.0393C142.253 46.3757 146.795 44.0614 151.773 43.2165C157.501 42.2456 163.276 41.5214 169.046 40.8339C170.493 40.6607 170.86 40.1989 170.845 38.7925C170.776 30.8734 170.74 22.9543 170.866 15.0405C170.897 13.1197 170.158 12.6999 168.49 12.4533C157.637 10.8631 146.805 9.12084 135.948 7.54647C132.753 7.08465 129.47 5.76743 126.281 7.11614C119.315 10.0602 112.443 13.2142 105.53 16.2842ZM130.681 34.5679C132.37 33.9434 133.907 33.4606 135.371 32.8099C136.965 32.1014 137.589 30.4851 137.033 28.9212C136.435 27.2471 135.004 26.8273 132.25 27.0582C130.257 27.2261 130.692 28.5066 130.681 29.6664C130.666 31.2198 130.681 32.7731 130.681 34.5679Z" fill="#0C0C0D"/>
<path d="M197.596 26.5859C194.753 27.625 194.312 28.2547 194.312 31.3352C194.312 34.7989 194.26 38.2625 194.338 41.7208C194.37 43.0381 194.055 43.5576 192.623 43.5261C188.117 43.4369 183.612 43.4527 179.106 43.5261C177.8 43.5471 177.454 43.1063 177.459 41.8468C177.501 31.7866 177.506 21.7263 177.459 11.6661C177.454 10.3174 177.963 10.0235 179.185 10.0392C183.69 10.097 188.196 10.1075 192.702 10.0392C194.024 10.0183 194.412 10.4853 194.338 11.7396C194.249 13.1722 194.307 14.6102 194.323 16.0481C194.344 18.6091 195.041 19.454 197.632 20.0732C197.622 22.2459 197.611 24.4238 197.601 26.5964L197.596 26.5859Z" fill="#6610F2"/>
<path d="M93.8383 137.332C118.759 137.332 143.684 137.353 168.605 137.29C170.456 137.29 170.845 137.841 170.839 139.589C170.776 156.34 170.803 173.097 170.797 189.848C170.797 193.181 169.68 194.283 166.307 194.283C117.967 194.283 69.626 194.283 21.2853 194.283C17.8811 194.283 16.8478 193.249 16.8478 189.832C16.8478 173.013 16.8688 156.193 16.8111 139.374C16.8058 137.747 17.2307 137.296 18.8725 137.301C43.8611 137.353 68.8497 137.338 93.8383 137.338V137.332Z" fill="#E1495F"/>
<path d="M63.6517 56.7036C63.6517 46.2393 63.6831 35.775 63.6149 25.3107C63.6044 23.7625 64.0188 23.3689 65.5557 23.3742C84.3811 23.4267 103.212 23.4214 122.037 23.3794C123.495 23.3794 124.104 23.6366 124.036 25.2792C123.899 28.6746 123.941 32.0805 124.02 35.4811C124.046 36.6514 123.668 37.2129 122.562 37.6013C119.42 38.6928 116.278 39.7949 113.22 41.0911C108.929 42.9069 106.474 47.1629 106.826 51.7968C107.167 56.2838 110.272 60.099 114.631 61.348C117.327 62.1247 119.949 61.7521 122.472 60.6658C123.721 60.1253 124.025 60.4296 124.02 61.7416C123.978 70.768 123.978 79.7944 124.02 88.8208C124.025 90.0068 123.695 90.3899 122.483 90.3847C103.395 90.3532 84.3024 90.348 65.2148 90.3899C63.8457 90.3899 63.6254 89.8966 63.6307 88.6896C63.6674 78.0311 63.6517 67.3674 63.6517 56.7089V56.7036Z" fill="#E5EAEE"/>
<path d="M93.6389 130.636C65.3877 130.636 37.1365 130.62 8.88009 130.673C7.23307 130.673 6.61937 130.384 6.66657 128.558C6.80295 123.132 6.76099 117.7 6.68231 112.268C6.66133 110.878 7.09669 110.531 8.44998 110.537C65.3458 110.568 122.247 110.573 179.143 110.531C180.685 110.531 180.978 111.046 180.957 112.436C180.889 117.8 180.847 123.168 180.973 128.532C181.015 130.305 180.48 130.683 178.781 130.678C150.398 130.626 122.016 130.641 93.6284 130.641L93.6389 130.636Z" fill="#F05361"/>
<path d="M93.7072 103.882C65.7812 103.882 37.8552 103.882 9.92922 103.882C9.34175 103.882 8.74903 103.914 8.1668 103.861C7.03382 103.767 6.46208 103.352 7.04955 102.082C9.64073 96.4407 12.1952 90.7835 14.7549 85.1263C15.2532 84.0295 16.1239 83.6149 17.2726 83.6149C30.024 83.6149 42.7806 83.6254 55.5319 83.5939C56.6544 83.5939 56.9534 83.977 56.9901 85.0685C57.1579 90.3112 57.1894 90.285 52.0542 90.3217C50.1659 90.3374 48.2619 90.096 46.3841 90.5054C44.5587 90.9042 43.4992 92.2529 43.6146 93.9795C43.7352 95.7113 44.9731 96.8553 46.8771 96.9813C47.2705 97.0075 47.6639 96.997 48.0521 96.997C78.5955 96.997 109.139 96.997 139.677 96.997C140.925 96.997 142.216 97.0915 143.113 95.9894C143.941 94.9766 144.303 93.8693 143.784 92.5311C143.197 91.0197 141.969 90.4476 140.558 90.3742C138.077 90.2482 135.58 90.1643 133.11 90.3532C131.069 90.5054 130.582 89.8126 130.65 87.8552C130.797 83.6149 130.692 83.6096 134.841 83.6096C146.417 83.6096 157.994 83.6411 169.57 83.5781C171.469 83.5676 172.56 84.2131 173.326 85.9817C175.502 91.0197 177.821 95.9947 180.097 100.991C181.288 103.604 181.136 103.872 178.272 103.872C153.876 103.872 129.48 103.872 105.09 103.872H93.7072V103.882Z" fill="#DC485E"/>
<path d="M105.53 16.2842C112.444 13.2142 119.315 10.0602 126.281 7.11614C129.47 5.76743 132.753 7.08466 135.948 7.54647C146.806 9.12084 157.637 10.8579 168.49 12.4533C170.158 12.6999 170.897 13.1197 170.866 15.0405C170.74 22.9543 170.777 30.8787 170.845 38.7925C170.855 40.1989 170.493 40.6607 169.046 40.8339C163.276 41.5214 157.501 42.2456 151.773 43.2165C146.79 44.0614 142.253 46.3757 137.516 48.0393C131.479 50.1595 125.499 52.4423 119.483 54.6097C117.028 55.4913 115.234 54.9455 114.159 53.135C112.685 50.6528 113.713 47.9921 116.666 46.89C122.598 44.6754 128.552 42.5185 134.495 40.3354C135.596 39.9313 136.719 39.5639 137.799 39.1074C142.342 37.2024 144.734 32.5632 143.679 27.7509C142.683 23.2115 138.607 20.1572 133.724 20.2884C133.399 20.2989 133.052 20.2516 132.748 20.3461C130.986 20.8814 129.832 20.3566 128.715 18.7927C127.524 17.1186 125.531 16.6831 123.453 16.6988C117.516 16.7408 111.578 16.7146 105.64 16.7146C105.604 16.5729 105.567 16.4259 105.53 16.2842Z" fill="#E5BB9F"/>
<path d="M130.681 34.5679C130.681 32.7732 130.671 31.2198 130.681 29.6664C130.692 28.5066 130.256 27.2261 132.25 27.0582C134.998 26.8273 136.435 27.2471 137.033 28.9212C137.589 30.4851 136.965 32.1067 135.371 32.8099C133.907 33.4606 132.37 33.9434 130.681 34.5679Z" fill="#F9F9F9"/>
</g>
<defs>
<clipPath id="clip0_2316_39">
<rect width="201" height="201" fill="white"/>
</clipPath>
</defs>
</svg>
