<svg width="518" height="441" viewBox="0 0 518 441" fill="none" xmlns="http://www.w3.org/2000/svg">
<path d="M102.585 364.84L29.95 196.94C27.5167 191.343 24.2317 186.72 20.095 183.07C16.2017 179.42 10.7267 177.473 3.67 177.23V173.58H105.87V177.23C97.3533 178.203 91.7567 181.975 89.08 188.545C86.6467 195.115 87.4983 203.388 91.635 213.365L129.23 301.33L166.46 215.555C168.893 209.958 170.11 204.483 170.11 199.13C170.11 193.047 168.285 188.058 164.635 184.165C160.985 180.272 155.875 177.96 149.305 177.23V173.58H206.975V177.23C200.648 178.69 194.565 182.34 188.725 188.18C182.885 194.02 177.653 202.05 173.03 212.27L105.87 364.84H102.585ZM202.817 258.625V240.375H294.067V258.625H202.817ZM321.303 364.11V118.1C321.303 109.34 318.504 102.283 312.908 96.93C307.554 91.5767 300.498 88.9 291.738 88.9V85.25H328.968C343.324 85.25 353.179 83.9116 358.533 81.235C363.886 78.5583 367.779 75.2733 370.213 71.38H373.863V204.24C379.459 193.29 387.246 184.53 397.223 177.96C407.443 171.39 418.636 168.105 430.803 168.105C445.159 168.105 457.934 172.363 469.128 180.88C480.321 189.397 489.081 200.955 495.408 215.555C501.978 230.155 505.263 246.823 505.263 265.56C505.263 285.027 501.613 302.182 494.313 317.025C487.256 331.868 477.279 343.427 464.383 351.7C451.486 359.973 436.399 364.11 419.123 364.11C390.166 364.11 370.699 352.065 360.723 327.975L324.953 364.11H321.303ZM408.538 357.905C421.434 357.905 431.168 349.875 437.738 333.815C444.308 317.755 447.593 294.152 447.593 263.005C447.593 235.752 445.038 215.555 439.928 202.415C434.818 189.275 426.788 182.705 415.838 182.705C406.104 182.705 397.466 186.233 389.923 193.29C382.623 200.347 377.269 208.255 373.863 217.015V308.63C374.836 323.717 378.364 335.762 384.448 344.765C390.531 353.525 398.561 357.905 408.538 357.905Z" fill="black"/>
<path d="M99.585 361.84L26.95 193.94C24.5167 188.343 21.2317 183.72 17.095 180.07C13.2017 176.42 7.72667 174.473 0.669999 174.23V170.58H102.87V174.23C94.3533 175.203 88.7567 178.975 86.08 185.545C83.6467 192.115 84.4983 200.388 88.635 210.365L126.23 298.33L163.46 212.555C165.893 206.958 167.11 201.483 167.11 196.13C167.11 190.047 165.285 185.058 161.635 181.165C157.985 177.272 152.875 174.96 146.305 174.23V170.58H203.975V174.23C197.648 175.69 191.565 179.34 185.725 185.18C179.885 191.02 174.653 199.05 170.03 209.27L102.87 361.84H99.585ZM199.817 255.625V237.375H291.067V255.625H199.817ZM318.303 361.11V115.1C318.303 106.34 315.504 99.2833 309.908 93.93C304.554 88.5767 297.498 85.9 288.738 85.9V82.25H325.968C340.324 82.25 350.179 80.9116 355.533 78.235C360.886 75.5583 364.779 72.2733 367.213 68.38H370.863V201.24C376.459 190.29 384.246 181.53 394.223 174.96C404.443 168.39 415.636 165.105 427.803 165.105C442.159 165.105 454.934 169.363 466.128 177.88C477.321 186.397 486.081 197.955 492.408 212.555C498.978 227.155 502.263 243.823 502.263 262.56C502.263 282.027 498.613 299.182 491.313 314.025C484.256 328.868 474.279 340.427 461.383 348.7C448.486 356.973 433.399 361.11 416.123 361.11C387.166 361.11 367.699 349.065 357.723 324.975L321.953 361.11H318.303ZM405.538 354.905C418.434 354.905 428.168 346.875 434.738 330.815C441.308 314.755 444.593 291.152 444.593 260.005C444.593 232.752 442.038 212.555 436.928 199.415C431.818 186.275 423.788 179.705 412.838 179.705C403.104 179.705 394.466 183.233 386.923 190.29C379.623 197.347 374.269 205.255 370.863 214.015V305.63C371.836 320.717 375.364 332.762 381.448 341.765C387.531 350.525 395.561 354.905 405.538 354.905Z" fill="#6610F2"/>
</svg>
